<?xml version="1.0" encoding="utf-8"?>
<!-- Generator: $$$/GeneralStr/196=Adobe Illustrator 27.6.0, SVG Export Plug-In . SVG Version: 6.00 Build 0)  -->
<svg version="1.1" id="圖層_1" xmlns="http://www.w3.org/2000/svg" xmlns:xlink="http://www.w3.org/1999/xlink" x="0px" y="0px"
	 viewBox="0 0 434 512" style="enable-background:new 0 0 434 512;" xml:space="preserve">
<style type="text/css">
	.st0{fill:#B86964;}
</style>
<g>
	<path class="st0" d="M170.3,100c0,0-9.9-99-86.7-99C6.8,1,14,81.6,14,86.9c0,5.2-4.9,221.4-4.9,221.4s-6,0.9-6,15.4
		c0,14.4-2,162.2-2,162.2s9.2,5.5,16.2,9.7l2.1-169.5c0,0,0.1-10.5-4.6-10.5c0,0-0.8-3.8,2.6-2.5c3.4,1.1,5,8.5,5,13.3
		c0,4.5-0.8,156.8-0.8,171.4c1,0.6,2,1,2.4,1.1l2.7-175.9c0,0,0.7-13.9-4.5-13.9l5.6-230c0,0-2.3-62.2,57.5-62.2
		c59.8,0,71.3,85.5,71.3,85.5s-1.2,9.3,8.7,9.3C171.8,111.7,170.3,100,170.3,100z"/>
	<path class="st0" d="M137.5,116.2c0,0-3.4-29.9-33.9-29.9c-30.7,0-46.7,32.8-46.7,55.5c0,22.5-4.2,261.2-4.2,261.2s-5.7,3.1-5.7,12
		c0,9.1,0,91.6,0,91.6s6.4,3.3,15,4.8l1.2-91c0,0,0.4-10.4-4.6-10.8c0,0-0.7-3.7,2.7-2.4c3.6,1.3,4.5,8.7,4.5,13.5
		c0,2.2-0.2,47.6-0.4,91c2,0.4,3.7,0.4,5.4,0.4l1.2-97c0,0,0.2-10.4-5.5-12.2l4.2-260.3c0,0,1.6-41.2,32.9-41.2
		c19.5,0,20.5,17.3,20.5,17.3s1.5,2.1,7.9,2.1C138.3,120.8,137.5,116.2,137.5,116.2z"/>
	<path class="st0" d="M371.4,401.1c-4.5-2,1.5-4.6,5.4-1.7c3,3.2,3,11.7,3.5,12.8c0.3,1.1,5.7,84.7,6.4,95.3c2.7-1.1,4.2-2,4.2-2
		s-5.2-85.5-5.2-97c0-11.5-7.3-15.6-7.3-15.6s-14.5-264-14.5-274.9c0-11-8.7-40.6-33.9-40.6c-24.8,0-33.9,27.9-36.2,33.8
		c-2,5.8,0.7,5,3.8,6.5c3.1,1.3,6.1,0.4,6.1,0.4s5.3-26.9,25.9-26.9c20.6,0,21.3,29.1,21.3,29.1l15.6,275.7
		c-4.2,0-3.4,12.6-3.4,12.6l5.3,102c6.1,0,11.4-0.9,15.2-2.1l-8-100.1C375.6,408.6,376.4,403,371.4,401.1z"/>
	<path class="st0" d="M411.9,314.2c-3.1-2.8,2.2-4.6,4.5-1.3c3.1,3.3,3.1,13.6,3.1,13.6l10.7,160.3c1.6-0.9,2.7-1.7,3.1-2.2
		l-8.7-167c0,0-1.2-11.9-8.8-15.1L404.2,70.9c0,0-12.1-70.6-58.3-70.6c-53.7,0-76.6,71.9-76.6,109.6c0,0,10.6,6.5,12.1-1.5
		c1.5-8.2,12.6-96.3,64.1-96.3c43.8,0,47.6,73.6,47.6,73.6l10.2,220.4c0,0-5,1.1-5,15.3c0,14.4,11.1,177.1,11.1,177.1
		s9.2-4.8,16.8-9.5l-11.4-166.3C414.8,322.7,414.8,317.2,411.9,314.2z"/>
	<path class="st0" d="M127.6,126.4l1.3,18c0,0,6.5-1.3,9.3-3.7l-0.8-16.7C137.5,123.9,129.5,123.9,127.6,126.4z"/>
	<path class="st0" d="M145.1,120.4v18c0,0,1.2,1.5,3.8,0.7c2.3-1.1,50-11.5,77.8-8.9l0.4-20.4c0,0-45-2.6-77.4,6.5
		C143.2,118.2,145.1,120.4,145.1,120.4z"/>
	<path class="st0" d="M286.9,115.8l-0.8,19.9c0,0,23.2,6.5,35.1,16.3c0,0,2.3,2.6,1.5-7.6c-0.3-9.8,2.6-10.5-3.1-14.5
		C313.6,125.8,295.7,117.1,286.9,115.8z"/>
	<path class="st0" d="M112.3,162.6l0.2,8.4c0,0,44.8-27.1,108-25.3c0,0-5-4.1,0-8.3C220.6,137.4,158.1,135.7,112.3,162.6z"/>
	<path class="st0" d="M227.1,137.4c0,0,4.2,3.7,0.4,8.5c0,0,59.4,0,87.6,19.7v-8C315.1,157.6,286.5,136.8,227.1,137.4z"/>
	<polygon class="st0" points="247.2,109.4 247.2,130.5 251.7,131.4 251.7,109.9 	"/>
	<path class="st0" d="M254.8,110.8l0.8,20.4c0,0,11.4,1.3,12.2,2.1c1.1,0.3,1.6,0,1.6-3c0-2.9,0.8-13.7,0.8-13.7
		S271.6,110.8,254.8,110.8z"/>
	<path class="st0" d="M127.6,166.9l1.6,18.6c0,0,8.1-4,9.1-4l0.4-18.6C138.6,163,132.2,163,127.6,166.9z"/>
	<path class="st0" d="M145.9,159.8l0.8,19.2c0,0,15.9-7.5,78.4-11.6l0.8-19.3C225.9,148.1,171.8,149.3,145.9,159.8z"/>
	<path class="st0" d="M247.2,149.9v18.8c0,0,3.8,0.6,3.8,1.3l0.7-20.1C251.7,149.9,248.8,149.8,247.2,149.9z"/>
	<path class="st0" d="M254.5,150.7l-0.4,19c0,0,12.2,1.6,14.5,2.2l0.8-18.9C269.4,152.9,257.1,150.3,254.5,150.7z"/>
	<path class="st0" d="M286.5,158.3l-0.7,17.6c0,0,21.8,7.2,36.3,16.3l1.1-18.2C323.1,174.1,305.1,159.8,286.5,158.3z"/>
	<path class="st0" d="M111.6,203.8c0,0,9.9-15.6,21.1-16.5c11.3-0.7,5.5,3.6,13.9,1.3c8-2.2,25.1-11.9,46.5-14.8
		c22-3.7,37.3-2.8,37.3-2.8s40.7,1.3,60.6,11.5c0,0-64,18.4-69.1,20.6c0,0-2.5,0.8-4.1-2c-1.1-2.8-7.2,0.5-7.7,2.7
		c-0.4,2.4-33.1,8.5-33.1,10.8c0.8,2.3,1.1,4,30.9,7.4c0,0,2.6,1.9-1.6,3.4c-4.5,1.5-25.9,8.4-30,8.4c-4.7,0-40.2-4.7-58.5-21
		c0,0,18.3-4.1,37.9-12c19.8-7.8,40.3-12.5,43.4-12.8c3.1-0.4,3.9-2.6,0-3c-3.4-0.5-16.4-3-24-1.9c-7.2,0.8-50.3,17.1-54.1,18.9
		C117.3,203.8,112,205.9,111.6,203.8z"/>
	<path class="st0" d="M140.8,184c0,0,1.2,3.3,2.4,3.3c0.8,0,19.4-8.3,21-8.9C164.2,178.4,152.8,180.1,140.8,184z"/>
	<path class="st0" d="M211.8,210.9c0,0,0.4-3.8,2.6-3.8c2.3,0,2.3,3.9,2.3,3.9v20.8c0,0,0,3.3-1.6,3.3c-1.5,0-3-0.7-3-3.3
		C212.2,229.5,211.8,210.9,211.8,210.9z"/>
	<path class="st0" d="M224,221.1c0,0-3.4,0.6-3.4-1.7c0-2.3,2.7-2.6,2.7-2.6s32.4-11.4,41.9-14.7c9.6-3.5,42.7-13.9,45.8-12.8
		c2.7,1.2,14.1,10.8,12.9,13c-1.1,2.2-10.2,13.4-33.5,21.2c-23.3,7.9-46.8,12.3-46.1,9.9c0.4-2.4,22.1-6.5,26.3-8
		c4.2-1.9,25.5-6.5,22.4-9.8c-3.7-3.6-21.3,5.4-24.3,6.3c-3.1,0.9-38.1,13.9-41.1,13.9c-3.5,0-6.9-3.2-6.5-7.3
		c0.3-4.1,1.4-4.7,9.1-6.7c7.6-2.2,38.5-10.2,37.3-12.3c-1.2-2.4-3-2.6-5.7-1.5C258.7,209.2,224,221.1,224,221.1z"/>
	<path class="st0" d="M193.2,233.4c0,0-1.9,2.6,0,3.5c1.5,0.7,9.1,0.9,10.7-1.1c1.5-2.1,7.6-6.5,4.9-5.8
		C206.1,230.6,195.4,232.4,193.2,233.4z"/>
	<path class="st0" d="M212.2,241.4c0,0,2.6,1.1,3.8-0.6c0.7-1.5,1.1-5.4,4.2-5.4c2.6,0,2.2,6,2.2,7c0,1.2-4.2,6.4-4.2,7.7
		c0,1.1,1.5,2.3,1.5,3.5c0,1.3-1.9,2.3-2.7,2.3c-0.7,0-5.3,0-5.3,1.5c0,1.6,2.6,1.8,4.6,1.8c1.5,0,4.2-2.9,6.4-2.9
		c2.3,0,16.1,3.3,20.7,17.4c5.3,13.9,4.5,33.8,4.9,36.4c0.7,2.4,1.8,11.1,5.7,15.6c3.8,4.4,18.2,17.4,19.8,24.1
		c1.9,6.7-0.7,7-4.5,3.7c-4.6-3.5-21.4-11.9-43.1-11.9c-21.7,0-15.6-0.7-15.6-0.7l-0.8-11.1c0,0-0.7-2.8-3.1-2.8
		c-2.2,0-26.3-0.6-38.8,10.2c0,0-1.1,1.5-2.7,0c-1.9-1.5,2.7-4.5,2.7-4.5s13.7-9.7,13.7-22.1s-0.8-51.5,25.1-54c0,0,2.7-0.3,2.7-5.2
		c0-4.6-3.9-4.5-3.9-6.9c0-2.4-1.5-9.5,2.7-9.5C211,235.1,210.7,239.4,212.2,241.4z"/>
	<path class="st0" d="M162.6,353.9c0,0-10.6,4.9-9.8,10.6c0.3,5.8,11.8,22.1,59.4,22.1c47.6,0,63.2-17.8,63.2-24.9
		c0-6.9-32.4-17.7-56-17.7c-24.1,0-46.5,6-46.5,6s0.4,5,14.1,11.5c13.7,6.2,18.3,8.7,8.4,8.3C184.8,369.4,167.2,362.5,162.6,353.9z"
		/>
</g>
</svg>
