<?xml version="1.0" encoding="utf-8"?>
<!-- Generator: Adobe Illustrator 16.0.0, SVG Export Plug-In . SVG Version: 6.00 Build 0)  -->
<!DOCTYPE svg PUBLIC "-//W3C//DTD SVG 1.1//EN" "http://www.w3.org/Graphics/SVG/1.1/DTD/svg11.dtd">
<svg version="1.1" id="圖層_2" xmlns="http://www.w3.org/2000/svg" xmlns:xlink="http://www.w3.org/1999/xlink" x="0px" y="0px"
	 width="841.89px" height="595.281px" viewBox="0 0 841.89 595.281" enable-background="new 0 0 841.89 595.281"
	 xml:space="preserve">
<g>
	<path fill="#00913A" d="M607.025,145.799c0,0-60.537-50.065-190.306-48.435c-126.678,1.459-186.184,48.435-186.184,48.435
		s-10.786,8.296-9.728,43.313c0,0-0.458,100.244,89.487,172.337c0,0,43.828,38.221,106.424,38.221
		c68.575,0,109.915-38.334,109.915-38.334c90.191-74.041,90.115-172.224,90.115-172.224
		C617.808,154.096,607.025,145.799,607.025,145.799z"/>
	<path fill="none" stroke="#00913A" stroke-width="10" stroke-miterlimit="10" d="M624.312,137.61c0,0-65.361-54.058-205.476-52.296
		c-136.78,1.575-201.031,52.296-201.031,52.296s-11.646,8.958-10.502,46.767c0,0-0.495,108.238,96.623,186.078
		c0,0,47.323,41.27,114.911,41.27c74.042,0,118.676-41.393,118.676-41.393c97.385-79.94,97.305-185.955,97.305-185.955
		C635.96,146.567,624.312,137.61,624.312,137.61z"/>
	<path fill="#00913A" d="M840.66,247.519c-7.123-10.986-40.682,9.012-40.682,9.012c-14.762,8.41-20.084,21.37-20.084,21.37
		c-3.09,5.836-15.877,23.429-15.877,23.429c-20.918,30.744-66.428,86.685-170.059,122.602
		c-31.117,11.459-42.104,12.146-42.104,12.146c149.07-46.691,204.951-126.828,225.809-185.039
		c11.986-35.245,12.959-65.914,12.959-65.914c4.004-31.469-11.156-27.121-11.156-27.121c-35.703,11.844-48.234,40.681-48.234,40.681
		c-4.807,8.583-11.043,32.785-11.043,32.785c-36.16,116.265-145.846,168.904-145.846,168.904
		c187.5-118.097,136.463-302.793,136.463-302.793c-7.209-24.031-18.539-16.249-18.539-16.249s-31.811,19.911-40.51,39.136
		c0,0-9.152,12.359-4.805,29.524c0,0,10.984,50.568-8.699,101.039c0,0-30.324,85.029-93.492,132.405
		c0,0-53.555,45.659-125.991,42.513c-63.168,2.803-120.112-41.349-120.112-41.349c-67.33-50.37-95.022-134.026-95.022-134.026
		c-19.682-50.471-8.698-101.04-8.698-101.04c4.349-17.166-4.806-29.524-4.806-29.524c-8.697-19.225-40.51-39.137-40.51-39.137
		s-11.328-7.782-18.538,16.25c0,0-51.037,184.696,136.463,302.791c0,0-109.685-52.64-145.846-168.903
		c0,0-6.236-24.203-11.043-32.785c0,0-12.531-28.838-48.234-40.681c0,0-15.162-4.349-11.157,27.12c0,0,0.972,30.669,12.959,65.915
		c20.856,58.208,76.736,138.345,225.807,185.039c0,0-10.986-0.688-42.103-12.145C144.3,387.557,98.79,331.617,77.872,300.873
		c0,0-12.788-17.594-15.877-23.43c0,0-5.322-12.959-20.083-21.371c0,0-33.558-19.998-40.681-9.012c0,0-3.691,4.205,1.716,19.139
		c0,0,20.855,70.546,95.638,122.615c44.971,31.012,111.194,59.113,205.671,73.273c-32.81-4.676-107.347-15.697-126.024-21.893
		c0,0-12.816-5.15-30.325-2.746c0,0-25.404,6.291-22.315,21.627c0,0-1.03,10.758,33.987,20.482c0,0,87.885,17.51,208.041,13.732
		c0,0,21.8,20.254,51.152,22.314c32.786-1.029,55.5-21.857,55.5-21.857c120.154,3.777,208.039-13.73,208.039-13.73
		c35.018-9.729,33.988-20.484,33.988-20.484c3.09-15.334-22.314-21.629-22.314-21.629c-17.51-2.402-30.326,2.748-30.326,2.748
		c-18.676,6.193-93.215,17.219-126.021,21.893c94.475-14.16,160.699-42.262,205.668-73.272
		c74.785-52.067,95.641-122.615,95.641-122.615C844.351,251.724,840.66,247.519,840.66,247.519z"/>
	<path fill="#FFFFFF" d="M405.125,114.165v25.119h25.119v-25.119H405.125L405.125,114.165z M426.398,128.475h-7.072v3.466h6.56
		v3.499h-10.062v-6.964h-3.354v6.528h-3.499v-10.027h6.853v-3.462h-6.416v-3.501h9.918v6.964h3.571v-6.379h3.502V128.475
		L426.398,128.475z"/>
	<path fill="#FFFFFF" d="M466.476,282.004c-0.051-0.412-4.852-36.428-34.432-46.108c-0.379-0.18-0.789-0.298-1.215-0.37
		c-2.371-0.702-4.889-1.244-7.578-1.583v-11.486c0-2.548-2.066-4.614-4.614-4.614s-4.613,2.066-4.613,4.614v11.312
		c-3.31,0.31-6.375,0.912-9.223,1.754c-0.439,0.072-0.859,0.193-1.249,0.38c-29.56,9.692-34.355,45.689-34.406,46.101
		c-0.311,2.529,1.488,4.83,4.019,5.139c2.523,0.318,4.83-1.488,5.139-4.019c0.159-1.29,3.458-26.146,22.74-36.21
		c0.154,14.71,0.051,49.831-4.01,67.96c-0.558,2.485,1.007,4.953,3.494,5.512c0.339,0.074,0.679,0.111,1.013,0.111
		c2.112,0,4.017-1.459,4.498-3.606c4.663-20.813,4.403-60.813,4.197-73.232c2.19-0.465,4.512-0.784,7.008-0.885
		c0.064-0.003,0.136-0.007,0.201-0.013c0.021-0.001,0.181-0.017,0.256-0.019c0.042,0.001,0.066,0.001,0.095,0.001
		c0.106-0.001,0.356,0.015,0.378,0.017c0.068,0.006,0.137,0.01,0.205,0.013c2.491,0.102,4.808,0.42,6.996,0.888
		c-0.207,12.422-0.465,52.418,4.197,73.23c0.479,2.147,2.387,3.606,4.498,3.606c0.332,0,0.672-0.037,1.012-0.111
		c2.486-0.559,4.051-3.025,3.494-5.512c-4.061-18.122-4.166-53.217-4.012-67.94c19.205,10.078,22.59,34.907,22.754,36.197
		c0.289,2.335,2.275,4.046,4.57,4.046c0.189,0,0.377-0.01,0.566-0.035C464.988,286.834,466.787,284.534,466.476,282.004z"/>
	<path fill="#FFFFFF" d="M423.537,356.766c-23.779-67.591-135.947-60.68-140.881-60.33l1.697,24.547
		c0.271-0.021,27.387-1.802,56.063,4.13c29.291,6.059,48.44,17.426,57.205,33.832h-0.186v8.459h3.686h12.726h24.791h7.41h2.139
		v-6.134c20.021-46.685,111.48-39.299,112.943-39.17c0.004,0,0.008,0,0.01,0l2.207-24.506
		C558.437,297.152,446.382,287.86,423.537,356.766z"/>
	<path fill="#FFFFFF" d="M570.996,268.314c-38.449-2.601-68.004-15.661-87.826-38.893c-31.33-36.72-29.813-88.623-29.172-98.852
		h-24.664c-0.877,16.064-1.045,72.285,34.967,114.649c24.59,28.927,60.494,44.983,106.695,47.766V268.314z"/>
	<path fill="#FFFFFF" d="M406.409,130.569h-24.664c0.641,10.229,2.16,62.132-29.17,98.851
		c-19.568,22.934-48.626,35.951-86.355,38.784v24.668c45.488-3.035,80.896-19.04,105.223-47.655
		C407.455,202.854,407.286,146.634,406.409,130.569z"/>
</g>
</svg>
