<?xml version="1.0" encoding="utf-8"?>
<!-- Generator: Adobe Illustrator 22.1.0, SVG Export Plug-In . SVG Version: 6.00 Build 0)  -->
<svg version="1.1" id="layer" xmlns="http://www.w3.org/2000/svg" xmlns:xlink="http://www.w3.org/1999/xlink" x="0px" y="0px"
	 viewBox="0 0 842 436" style="enable-background:new 0 0 842 436;" xml:space="preserve">
<style type="text/css">
	.st0{fill:#00913A;}
	.st1{fill:none;stroke:#00913A;stroke-width:10;stroke-miterlimit:10;}
	.st2{fill:#FFFFFF;}
</style>
<g id="gg">
	<path class="st0" d="M607,66.1c0,0-60.5-50.1-190.3-48.4C290,19.2,230.5,66.1,230.5,66.1s-10.8,8.3-9.7,43.3
		c0,0-0.5,100.2,89.5,172.3c0,0,43.8,38.2,106.4,38.2c68.6,0,109.9-38.3,109.9-38.3c90.2-74,90.1-172.2,90.1-172.2
		C617.8,74.4,607,66.1,607,66.1z"/>
	<path class="st1" d="M624.3,57.9c0,0-65.4-54.1-205.5-52.3c-136.8,1.6-201,52.3-201,52.3s-11.6,9-10.5,46.8
		c0,0-0.5,108.2,96.6,186.1c0,0,47.3,41.3,114.9,41.3c74,0,118.7-41.4,118.7-41.4c97.4-79.9,97.3-186,97.3-186
		C636,66.9,624.3,57.9,624.3,57.9z"/>
	<path class="st0" d="M840.7,167.8c-7.1-11-40.7,9-40.7,9c-14.8,8.4-20.1,21.4-20.1,21.4c-3.1,5.8-15.9,23.4-15.9,23.4
		c-20.9,30.7-66.4,86.7-170.1,122.6c-31.1,11.5-42.1,12.1-42.1,12.1c149.1-46.7,205-126.8,225.8-185c12-35.2,13-65.9,13-65.9
		c4-31.5-11.2-27.1-11.2-27.1c-35.7,11.8-48.2,40.7-48.2,40.7c-4.8,8.6-11,32.8-11,32.8C684,268.1,574.3,320.7,574.3,320.7
		C761.8,202.6,710.8,17.9,710.8,17.9c-7.2-24-18.5-16.2-18.5-16.2s-31.8,19.9-40.5,39.1c0,0-9.2,12.4-4.8,29.5c0,0,11,50.6-8.7,101
		c0,0-30.3,85-93.5,132.4c0,0-53.6,45.7-126,42.5c-63.2,2.8-120.1-41.3-120.1-41.3c-67.3-50.4-95-134-95-134
		c-19.7-50.5-8.7-101-8.7-101c4.3-17.2-4.8-29.5-4.8-29.5c-8.7-19.2-40.5-39.1-40.5-39.1s-11.3-7.8-18.5,16.3
		c0,0-51,184.7,136.5,302.8c0,0-109.7-52.6-145.8-168.9c0,0-6.2-24.2-11-32.8c0,0-12.5-28.8-48.2-40.7c0,0-15.2-4.3-11.2,27.1
		c0,0,1,30.7,13,65.9c20.9,58.2,76.7,138.3,225.8,185c0,0-11-0.7-42.1-12.1C144.3,307.9,98.8,251.9,77.9,221.2
		c0,0-12.8-17.6-15.9-23.4c0,0-5.3-13-20.1-21.4c0,0-33.6-20-40.7-9c0,0-3.7,4.2,1.7,19.1c0,0,20.9,70.5,95.6,122.6
		c45,31,111.2,59.1,205.7,73.3c-32.8-4.7-107.3-15.7-126-21.9c0,0-12.8-5.1-30.3-2.7c0,0-25.4,6.3-22.3,21.6c0,0-1,10.8,34,20.5
		c0,0,87.9,17.5,208,13.7c0,0,21.8,20.3,51.2,22.3c32.8-1,55.5-21.9,55.5-21.9c120.2,3.8,208-13.7,208-13.7c35-9.7,34-20.5,34-20.5
		c3.1-15.3-22.3-21.6-22.3-21.6c-17.5-2.4-30.3,2.7-30.3,2.7c-18.7,6.2-93.2,17.2-126,21.9c94.5-14.2,160.7-42.3,205.7-73.3
		c74.8-52.1,95.6-122.6,95.6-122.6C844.3,172.1,840.7,167.8,840.7,167.8z"/>
	<g>
		<path class="st2" d="M405.1,34.5v25.1h25.1V34.5L405.1,34.5L405.1,34.5z M426.4,48.8h-7.1v3.5h6.6v3.5h-10.1v-7h-3.4v6.5H409v-10
			h6.9v-3.5h-6.4v-3.5h9.9v7h3.6v-6.4h3.5L426.4,48.8L426.4,48.8z"/>
		<g>
			<path class="st2" d="M466.5,202.3c-0.1-0.4-4.9-36.4-34.4-46.1c-0.4-0.2-0.8-0.3-1.2-0.4c-2.4-0.7-4.9-1.2-7.6-1.6v-11.5
				c0-2.5-2.1-4.6-4.6-4.6s-4.6,2.1-4.6,4.6v11.3c-3.3,0.3-6.4,0.9-9.2,1.8c-0.4,0.1-0.9,0.2-1.2,0.4c-29.6,9.7-34.4,45.7-34.4,46.1
				c-0.3,2.5,1.5,4.8,4,5.1c2.5,0.3,4.8-1.5,5.1-4c0.2-1.3,3.5-26.1,22.7-36.2c0.2,14.7,0.1,49.8-4,68c-0.6,2.5,1,5,3.5,5.5
				c0.3,0.1,0.7,0.1,1,0.1c2.1,0,4-1.5,4.5-3.6c4.7-20.8,4.4-60.8,4.2-73.2c2.2-0.5,4.5-0.8,7-0.9c0.1,0,0.1,0,0.2,0
				c0,0,0.2,0,0.3,0c0,0,0.1,0,0.1,0c0.1,0,0.4,0,0.4,0c0.1,0,0.1,0,0.2,0c2.5,0.1,4.8,0.4,7,0.9c-0.2,12.4-0.5,52.4,4.2,73.2
				c0.5,2.1,2.4,3.6,4.5,3.6c0.3,0,0.7,0,1-0.1c2.5-0.6,4.1-3,3.5-5.5c-4.1-18.1-4.2-53.2-4-67.9c19.2,10.1,22.6,34.9,22.8,36.2
				c0.3,2.3,2.3,4,4.6,4c0.2,0,0.4,0,0.6,0C465,207.2,466.8,204.9,466.5,202.3z"/>
			<path class="st2" d="M423.5,277.1c-23.8-67.6-135.9-60.7-140.9-60.3l1.7,24.5c0.3,0,27.4-1.8,56.1,4.1
				c29.3,6.1,48.4,17.4,57.2,33.8h-0.2v8.5h3.7h12.7h24.8h7.4h2.1v-6.1c20-46.7,111.5-39.3,112.9-39.2c0,0,0,0,0,0l2.2-24.5
				C558.4,217.5,446.4,208.2,423.5,277.1z"/>
			<path class="st2" d="M571,188.6c-38.4-2.6-68-15.7-87.8-38.9C451.8,113,453.4,61.1,454,50.9h-24.7c-0.9,16.1-1,72.3,35,114.6
				c24.6,28.9,60.5,45,106.7,47.8V188.6z"/>
			<path class="st2" d="M406.4,50.9h-24.7c0.6,10.2,2.2,62.1-29.2,98.9c-19.6,22.9-48.6,36-86.4,38.8v24.7
				c45.5-3,80.9-19,105.2-47.7C407.5,123.2,407.3,67,406.4,50.9z"/>
		</g>
	</g>
</g>
</svg>
