<?xml version="1.0" encoding="utf-8"?>
<!-- Generator: Adobe Illustrator 24.2.3, SVG Export Plug-In . SVG Version: 6.00 Build 0)  -->
<svg version="1.1" id="layer2" xmlns="http://www.w3.org/2000/svg" xmlns:xlink="http://www.w3.org/1999/xlink" x="0px" y="0px"
	 viewBox="0 0 14 14" style="enable-background:new 0 0 14 14;" xml:space="preserve">
<style type="text/css">
	.st0{fill-rule:evenodd;clip-rule:evenodd;fill:#f786a6;}
</style>
<g>
	<g>
		<path class="st0" d="M12.7,9.1L9,7l3.7-2.1c0.5-0.3,0.6-0.9,0.4-1.4c-0.3-0.5-0.9-0.6-1.4-0.4L8,5.3V1c0-0.6-0.4-1-1-1S6,0.4,6,1
			v4.3L2.3,3.1C1.8,2.9,1.2,3,0.9,3.5C0.7,4,0.8,4.6,1.3,4.9L5,7L1.3,9.1C0.8,9.4,0.7,10,0.9,10.5c0.3,0.5,0.9,0.6,1.4,0.4L6,8.7V13
			c0,0.6,0.4,1,1,1s1-0.4,1-1V8.7l3.7,2.1c0.5,0.3,1.1,0.1,1.4-0.4C13.3,10,13.2,9.4,12.7,9.1z"/>
	</g>
</g>
</svg>
