<svg width="30" height="75" viewBox="0 0 30 75" fill="none" xmlns="http://www.w3.org/2000/svg">
<path fill-rule="evenodd" clip-rule="evenodd" d="M25.4898 33.6885C25.4898 33.6885 29.8073 36.9114 29.9898 43.6006C30.1722 50.2289 27.8614 54.9721 27.8614 54.9721L21.5371 48.9519L25.4898 33.6885Z" fill="#F4F4F4"/>
<path fill-rule="evenodd" clip-rule="evenodd" d="M23.9695 35.8782C23.9695 35.8782 27.5573 38.5538 27.6789 44.0268C27.8005 49.4997 25.9762 53.4524 25.9762 53.4524L20.8074 48.5267L23.9695 35.8782Z" fill="#9C9C9C"/>
<path fill-rule="evenodd" clip-rule="evenodd" d="M4.51021 33.6885C4.51021 33.6885 0.192691 36.9114 0.0102601 43.6006C-0.172171 50.2289 2.13862 54.9721 2.13862 54.9721L8.46287 48.9519L4.51021 33.6885Z" fill="#EEEEEE"/>
<path fill-rule="evenodd" clip-rule="evenodd" d="M6.03052 35.8782C6.03052 35.8782 2.44272 38.5538 2.3211 44.0268C2.19948 49.4997 4.02378 53.4524 4.02378 53.4524L9.19264 48.5267L6.03052 35.8782Z" fill="#9C9C9C"/>
<path fill-rule="evenodd" clip-rule="evenodd" d="M11.1385 50.7766C11.1385 50.7766 8.15879 54.0604 9.61824 60.0806C11.0777 66.1008 15.0303 74.7967 15.0303 74.7967C15.0303 74.7967 18.5573 66.04 20.1384 60.6887C21.9019 54.6077 18.6181 50.7766 18.6181 50.7766H11.1385Z" fill="#E7E5E6"/>
<path fill-rule="evenodd" clip-rule="evenodd" d="M12.5979 51.0813C12.5979 51.0813 10.7127 53.0272 11.6249 56.6758C12.5371 60.3245 15.0303 65.4933 15.0303 65.4933C15.0303 65.4933 17.2194 60.2637 18.2532 57.0407C19.4086 53.3921 17.2803 51.0813 17.2803 51.0813H12.5979Z" fill="#8D8D8D"/>
<path fill-rule="evenodd" clip-rule="evenodd" d="M14.6047 0C14.6047 0 26.0979 6.68914 26.0979 23.5336C26.0979 40.3781 22.206 49.2564 20.9898 50.2294C19.7736 51.2023 14.6047 51.6888 14.6047 51.6888V0Z" fill="#F2F2F2"/>
<path fill-rule="evenodd" clip-rule="evenodd" d="M15.2128 0C15.2128 0 3.9021 6.68914 3.9021 23.5336C3.9021 40.3781 7.79396 49.2564 9.01016 50.2294C10.2264 51.2023 15.2128 51.6888 15.2128 51.6888V0Z" fill="#B7B7B7"/>
<path fill-rule="evenodd" clip-rule="evenodd" d="M15.3345 13.3171C18.4966 13.3171 21.0506 15.8712 21.0506 19.0333C21.0506 22.1954 18.4966 24.7495 15.3345 24.7495C12.1723 24.7495 9.61832 22.1954 9.61832 19.0333C9.61832 15.8712 12.1723 13.3171 15.3345 13.3171Z" fill="url(#paint0_linear_528_1925)"/>
<path fill-rule="evenodd" clip-rule="evenodd" d="M15.3345 13.925C18.1317 13.925 20.4425 16.2358 20.4425 19.0331C20.4425 21.8304 18.1317 24.1412 15.3345 24.1412C12.5372 24.1412 10.2264 21.8304 10.2264 19.0331C10.2264 16.2358 12.4764 13.925 15.3345 13.925Z" fill="#CECECE"/>
<defs>
<linearGradient id="paint0_linear_528_1925" x1="9.6126" y1="19.0093" x2="21.0116" y2="19.0093" gradientUnits="userSpaceOnUse">
<stop stop-color="white"/>
<stop offset="1" stop-color="#8B8B8B"/>
</linearGradient>
</defs>
</svg>
