<svg width="47" height="47" viewBox="0 0 47 47" fill="none" xmlns="http://www.w3.org/2000/svg">
<path d="M22.5145 45.7767L22.5145 36.1498L24.4432 36.1498L24.4432 45.7767L22.5145 45.7767Z" fill="#ECC443"/>
<path d="M23.488 45.7747L23.488 36.1478L24.4428 36.1478L24.4429 45.7747L23.488 45.7747Z" fill="#E39069"/>
<path d="M26.4246 41.2041L26.4246 36.148L28.3532 36.148L28.3533 41.2041L26.4246 41.2041Z" fill="#E39069"/>
<path d="M18.6044 41.203L18.6044 36.1471L20.533 36.1471L20.533 41.203L18.6044 41.203Z" fill="#ECC443"/>
<path d="M17.2371 33.2251L9.91439 33.2249L9.91444 27.0663L12.6883 22.1102L17.2372 22.1103L17.2371 33.2251Z" fill="#C3DAFD"/>
<path d="M37.0517 33.2252L29.7288 33.2251L29.7289 22.1107L34.285 22.1105L37.0517 27.0669L37.0517 33.2252Z" fill="#A1B8D8"/>
<path d="M30.377 30.9174L16.6038 30.9172L15.3156 33.2251L16.8863 37.1107L29.9823 37.1108L31.6652 33.2251L30.377 30.9174Z" fill="#2B4CA1"/>
<path d="M23.4947 31.2839C23.4947 32.0746 23.4948 37.0939 23.4947 37.1109C24.0914 37.1109 29.6392 37.1109 29.9823 37.1109L31.6651 33.2251L30.3769 31.2838L23.4947 31.2839Z" fill="#213B82"/>
<path d="M29.8866 9.67912C27.5657 3.67923 23.8807 0.63898 23.4936 0.17182C23.2922 0.473376 15.1034 7.23925 15.3143 19.6451L15.3142 33.2251L31.6637 33.2249L31.6638 19.6457C31.7255 16.2907 31.1112 12.8446 29.8866 9.67912V9.67912Z" fill="#E4F3FF"/>
<path d="M29.8866 9.67921C27.5657 3.67932 23.8807 0.639069 23.4936 0.171909C23.4933 0.172274 23.4927 0.172956 23.4924 0.173366L23.4924 33.2251L31.6638 33.225L31.6638 19.6458C31.7255 16.2908 31.1112 12.8447 29.8866 9.67921V9.67921Z" fill="#C3DAFD"/>
<path d="M23.4915 22.1249C19.6178 22.1249 17.5895 17.4035 20.3785 14.6109C23.1462 11.839 27.8946 13.826 27.8946 17.7263C27.8945 20.1515 25.9194 22.1247 23.4915 22.1249V22.1249Z" fill="#84D9F3"/>
<path d="M23.4948 13.3189L23.4947 22.1248C25.9212 22.123 27.8946 20.1504 27.8948 17.7262C27.8948 15.1018 25.7447 13.3437 23.4948 13.3189Z" fill="#77B0FB"/>
</svg>
