<?xml version="1.0" encoding="utf-8"?>
<!-- Generator: Adobe Illustrator 22.0.1, SVG Export Plug-In . SVG Version: 6.00 Build 0)  -->
<svg version="1.1" id="logo-sm" xmlns="http://www.w3.org/2000/svg" xmlns:xlink="http://www.w3.org/1999/xlink" x="0px" y="0px"
	 viewBox="0 0 387 43" style="enable-background:new 0 0 387 43;" xml:space="preserve">
<style type="text/css">
	.st0{fill:#3F3F3F;}
	.st1{fill:#D1D1D1;}
	.st2{fill-rule:evenodd;clip-rule:evenodd;fill:#003D72;}
	.st3{fill:#003D72;stroke:#003D72;stroke-width:0.3627;}
	.st4{fill:#003D72;stroke:#003D72;stroke-width:0.3621;}
	.st5{fill:#003D72;}
	.st6{fill:#040000;}
</style>
<g id="cm">
	<path class="st0" d="M323.6,17h-5.5v-0.9h2.4c-0.2-0.5-0.5-1-0.8-1.6l0.8-0.4c0.4,0.6,0.7,1.3,1,2h2.1V17z M323.3,19.4h-4.7v-0.9
		h4.7V19.4z M323.3,22.1h-4.7v-0.9h4.7V22.1z M323.1,29.5h-0.9v-0.9h-2.6v1.3h-0.9v-6h4.4V29.5z M322.2,27.7v-2.8h-2.6v2.8H322.2z
		 M333.8,28.4l-0.6,0.7c-2-1.6-3.3-3.1-4-4.8v5.6h-0.9v-5.6c-0.9,1.7-2.3,3.3-4.1,4.8l-0.6-0.7c2-1.7,3.4-3.3,4.2-4.9H324v-0.9h4.3
		v-1.5h-3.6v-6.5h8.2v6.5h-3.7v1.5h4.3v0.9h-3.8C330.5,25.2,331.8,26.8,333.8,28.4z M328.3,17.4v-1.9h-2.7v1.9H328.3z M328.3,20.2
		v-1.9h-2.7v1.9H328.3z M332,17.4v-1.9h-2.8v1.9H332z M332,20.2v-1.9h-2.8v1.9H332z"/>
	<path class="st0" d="M342.2,23.1l-0.7,0.7c-0.4-0.8-0.9-1.6-1.5-2.3v8.3h-0.9v-8.4c-0.8,1.9-1.7,3.4-2.4,4.4l-0.6-0.7
		c1.2-1.6,2.2-3.6,3-5.8h-2.9v-0.9h3V16l-2.2,0.4l-0.5-0.9c2.1-0.2,3.8-0.7,5.2-1.2l0.6,0.8c-0.9,0.3-1.6,0.5-2.1,0.7v2.9h2.1v0.9
		H340v0.7C341.1,21.5,341.8,22.4,342.2,23.1z M351.7,29.5h-10.1v-0.9h4.6v-2.8h-4V25h4v-2.6c-1.9,0.1-3.1,0.2-3.6,0.2l-0.4-0.9
		c3.3-0.1,6.2-0.4,8.6-0.9l0.6,0.8c-1.2,0.3-2.6,0.5-4.2,0.8V25h3.9v0.9h-3.9v2.8h4.6V29.5z M350.6,19.6h-7.7v-4.9h7.7V19.6z
		 M349.6,18.7v-3.1h-5.8v3.1H349.6z"/>
	<path class="st0" d="M359.4,26.3c-1.8,1-3.5,1.7-5.1,2.3l-0.3-0.9c0.7-0.2,1.5-0.5,2.3-0.9v-7.1h-2.1v-0.9h2.1v-4.3h0.9v4.3h2v0.9
		h-2v6.7c1-0.5,1.7-0.8,2-1L359.4,26.3z M369.8,26.5c-0.1,1.2-0.2,2-0.5,2.4c-0.3,0.4-0.6,0.7-0.9,0.7c-0.3,0-1.2,0.1-2.9,0.1
		c-2.2,0-3.5,0-3.9-0.1s-0.7-0.2-0.9-0.4c-0.2-0.3-0.3-0.6-0.3-0.9V21l-1.6,0.5l-0.1-0.9l1.7-0.6v-3.7h0.9v3.5l2.8-1v-4.5h0.9v4.2
		l3.9-1.4c0,2.4-0.3,4.9-0.9,7.6l-0.9-0.3c0.5-2.2,0.8-4.2,0.9-6.1l-3,1v7h-0.9v-6.7l-2.8,1v7.7c0,0.1,0,0.1,0.1,0.2
		c0.1,0.1,0.1,0.1,0.2,0.2c0.1,0,0.4,0,1.1,0.1c0.7,0,1.3,0,2,0c2,0,3.2-0.1,3.5-0.2c0.3-0.1,0.5-0.9,0.7-2.4L369.8,26.5z"/>
	<path class="st0" d="M387,29.9h-0.9v-1.2h-12.3v1.2h-1V14.8H387V29.9z M386.1,27.9V15.6h-12.3v12.3H386.1z M385.1,20.8h-10.4V20
		h4.8v-0.9h-3.7v-2.5h8.3v2.5h-3.6V20h4.7V20.8z M384.3,27h-8.8v-5.3h8.8V27z M383.4,26.2v-3.9h-7v3.9H383.4z M383.2,18.4v-1h-6.5v1
		H383.2z M382,25.4h-4.2v-2.3h4.2V25.4z M381.2,24.7v-0.9h-2.5v0.9H381.2z"/>
</g>
<rect id="di" x="298.6" class="st1" width="1" height="41.5"/>
<g id="nfu_1_">
	<g>
		<g>
			<g>
				<path class="st2" d="M257.8,15c2,0.2,4.3-0.8,4.6-2.7c-1.3-0.1-0.7,1.6-2.1,1.5c-1.2-2.5-0.8-6.6-2.1-9.1
					c2.8-2.1,2.5,2.9,3.8,4.1c1.1-1.8-0.6-5.3,0.6-6.5c1.2-0.1,1.2,1,1.8,1.5c1.2-0.1,0.7-1.8,1.8-2.1c1.1,0.1,1.9,0.4,1.8,1.8
					c-0.7,0.9-2.1,1-2.1,2.6c0.3,0.8,1.2-0.1,1.8,0c0.2,0.9,0.5,1.7,1.5,1.8c1.7-1.3-1.1-2.3-1.5-2.6c0-1.8,1.5-0.5,2.4-1.2
					c0.2-1-0.4-1.1-0.3-2.1c1-1,2.6-0.4,3.2,0.6c0.2,3.8-1.8,8-0.9,10.6c2.8,0.4,6.9-0.4,8.2,1.5c0,2.4-2.9,2.7-4.7,1.8
					c-0.2-0.9,0.5-0.9,0.3-1.8c-7.6-0.3-19.1,0.3-22.9,4.7c-1-2,3-5.3,4.1-4.7C257.3,14.7,257.5,15,257.8,15z M264.1,8.7
					c0.4,0.1,0.6,0.4,1.2,0.3c0-0.3,0-0.6,0-0.9C264.6,8.1,264.2,8.2,264.1,8.7z M264.1,13.4c0,0,1,0,1.1,0c0.4-0.1,0.6-0.3,0.8-0.6
					c0.6-0.9,1.3-2.4,0.7-3.5C265.4,10.2,264.6,11.7,264.1,13.4z M268.8,12.9c0.7-0.7,0.8-1.9,1.2-2.9c-0.4-0.1-0.6-0.4-1.2-0.3
					C268.5,10.4,267.1,12.7,268.8,12.9z"/>
				<path class="st2" d="M211.5,2c0.6,0.2,0.3,6.6,0.8,6.6c1.9,0,3.4-1.7,4.5-0.1c-0.1,1-0.8,1.6-1.8,2c-0.7,0.3-2.2,0.5-2.7,1.2
					c-0.3,0.5-0.3,1.2-0.4,1.7c-0.2,0.8-0.4,1.7-0.4,2.6c0.9,0,1.8-0.7,2.7-0.7c0.9,0,2.4,0.3,3,2.1c0.6,1.9-3,3-3.4,5
					c1.8,2.2,12.8,2.8,10.8,4.3c-3.7,3-9.6-0.2-12-1c-3.3-0.2-5.3,4.6-7.9,3.2c-0.4-0.3-0.3-0.7,0-1.1c0.5-0.7,1.7-1.5,2.3-1.9
					c0.7-0.5,1.9-1.1,2.3-1.8c0.5-0.9-2-2.6-3.3-4.1c-0.7-0.8-0.3-2-0.7-1.9c-0.7,0.3-1.7,0.8-1.9,1.5c-0.2,0.7-0.3,1.5-0.3,2.3
					c0.1,1.8,0.5,3.6,0.3,5.4c0,0.3-0.4,2.4-1,2.3c-0.6-0.1-4.2-4.6-3.2-5.4c0.3-0.3,1.2-0.5,1.5-0.9c0,0-0.1-0.7-0.2-1.3
					c-0.2,0.1-2.6,2.2-3.5,1.9c-0.7-0.2-1.4-0.6-1.7-1.1c-0.9-1.4,1.3-2.1,2.6-2.9c1.3-0.8,2.3-2.2,2.3-2.2s0.2-3.6-0.1-4.4
					c-0.3-0.7-4.8,0.8-5.8-0.5c0-0.8-0.3-1.2,0.2-1.5c1.4-1.1,4.8-1,5.4-2.9c0.2-0.7,0-1.7,0.1-2.4c0.1-0.7,0-2.2,0.3-2.4
					c0.4-0.3,0.8-0.3,1.3-0.2c0.7,0.1,0.5,1.2,0.6,1.8c0.1,0.6,0.2,1.3,0.2,2c0.1,0.7,0.1,1.3,0.5,1.7c0.3,0.3,1.5,0,1.8,0.1
					c0.5,0.2,0.4,0.7,0.4,1.2c0,0.9-2.3,1.1-2.2,2.3c0.1,0.6-0.2,1.4-0.2,2c1.6,0.8,2.6-1.2,3.8-1.8c0-0.4-0.3-1.4-0.1-1.8
					c0.2-0.3,1-0.6,1.3-0.8c0.3-0.2,0.6-0.5,0.8-0.8c0.3-0.6,0.3-0.9,0.4-1.6c0.2-1.1,0.1-2.3,0.3-3.5c0.1-0.8,0-2,0.7-2.5
					C210.3,1.7,211.4,1.9,211.5,2z M206.2,17.3c1.8,0.1,2.1-1.4,2.4-2.9C207,14.6,206.4,15.7,206.2,17.3z M210.7,21.1
					c1.6,0.3,1.8-0.8,1.7-2.3C209.5,18.3,209.7,20,210.7,21.1z"/>
				<path class="st2" d="M70.3,28.5c-1.3-0.4-2.2-2.8-3.5-2.6c-2.8,1-6,1.3-7.9,0.1c-2.6-1.6-3.5-3.8-3.9-5.9
					c-0.7-3.6-0.7-6-0.6-10.4c0.1-1.7,1.8-5.2,4.1-5.4c1.2,2.5-1.8,3-1.8,5.7c0.1,4.4-0.3,12.4,3.7,14.1c1.4,0.6,1.8-0.1,2.8-0.5
					c2.5-1.4,4.5-3.1,4.4-5.4c-2.2-0.1-4.9,5.8-6.8,4.3c-1.8-1.8-3.8-3.8,0.4-6.3c-0.1-1.3-2.5,0.1-2.7-1.2
					c-0.3-1.7,2.3-2.6,2.5-3.9c0.4-1.7-2.1-0.4-2.2-1.7c1.4-0.8,3.6-1.6,3.7-4.1c0.1-1.5-3.5,0-3.7-1c2.4-2.3,6.6-3.9,9.6-3.1
					c3,0.8,7.5,4.1,7.8,7.9c0.2,3.1,0.2,6.2,0.1,9.4c-0.1,2-0.2,3.1-0.6,4.4C75.5,24,72.6,28.7,70.3,28.5z M73.9,8
					c-0.2-3.6-3.3-5.8-7.1-5.3c-0.9,0.1-1.8,0.7-2.4,1.8c-0.1,0.3,0.6,0.9,0.8,1c0.4,0.3,0.9,0.3,1.3,0.5c0.4,0.2,0.9,0.5,1,0.9
					c0.1,0.6-0.5,0.6-0.9,0.8c-4.2,2.1,0.2,6.2,2.4,7.8c0.8-0.5-0.3-2.8,1.2-2.6c2.7,0.6-1.9,8,2.4,8.4C73.8,21.4,74.2,12.2,73.9,8z
					 M63.4,17.2c0.7,0,1.8,0.3,2.2-0.3c0.5-0.6,1-2.3-0.3-1.9c-0.5,0.2-1.2,0.4-1.3,0.8C64,15.9,63.4,17.1,63.4,17.2z M65.8,22.9
					c2.1,1.5,3.6,3.3,5.7,0.4C69,20.3,69.5,19.9,65.8,22.9z"/>
				<path class="st2" d="M183.1,2.3c0.3,0.1,0.6,0.4,0.7,0.7c0.2,0.6,0.2,1.4,0.2,2.1c0.1,1.9-0.1,3.8,0,5.6c0,0.5,0.1,0.9,0.2,1.4
					c0,0.2,0.2,1,0.4,1.1c1.6,0.5,2-1,2.9-0.3c0.1,2.8-2.3,3-2.9,5c-0.4,4.3,0.7,8.7,0,12.4c-2.5,0.2-1.6-2.9-1.8-4.7
					c-0.2-2.9-0.5-6.1-1.8-7.6c-2.2,0-4.7,2.5-6.2,0.6c-0.2-1.6,1.9-3.2,2.4-5c-0.2-1.2-1.4-2.1-0.6-3.5c0.4,1.8,2.2,2.2,3.8,2.6
					c-0.6,1.8-3.6,1.1-3.2,3.8c1.1,0.4,2.7-0.2,3.6-0.9c1.2-1,0.6-3.2,0.5-4.6c0-0.7,0.2-1.9-0.4-2.3c-0.8-0.5-2.8,0.1-3.4,0.8
					c-0.3-0.9-1.4-1-1.1-2.7c0.6-1,2.3-0.4,3.6,0.1c0.3,0.1,0.6-0.8,0.7-1c0.2-0.4,0.3-0.8,0.4-1.2c0.2-0.7,0.2-1.7,0.9-2.1
					C182.3,2.2,182.8,2.2,183.1,2.3z"/>
				<path class="st2" d="M238.5,2.9c1,0.5-0.4,4.4,0.3,6c1.3,1.2,4.3,0,4.9,1.3c0.3,3.7-4.8,2.2-5.5,4.5c-0.6,2,1.8,4.4,2.9,5.3
					c3.4,2.7,14,3,12.3,5.3c-1.2,2.2-5,1.6-7.4,1.2c-3.4-0.6-6.7-3.8-9.1-4.7c-4.1,0.4-7.1,7.2-10.9,4.1c-1.9-1.4,8.8-5.7,8.4-9.6
					c-0.3-2.5-3.2-1.4-4.9-3.3c-1.2-1.8,3.9-1.4,5.3-2.6C236.1,7.9,234.5,0.4,238.5,2.9z"/>
				<path class="st2" d="M109.7,11.6c1.9-0.8,4.1-1.2,4.8-2.2c0.6-0.8,0.6-1.9,0.5-2.9c-0.1-1.2-0.3-2.3-0.4-3.5
					c-0.1-0.7-0.1-1.3,0.8-0.9c0.6,0.3,1.5,1.7,1.9,2c0.7,0.5,1,0.2,1.8,0.5c0.3,1.9-1.8,1.5-2.4,2.6c0,0.8-0.1,1.7,0.3,2.1
					c2.6-0.4,7-1.3,7.9,1.5c-0.2,1.3-2.2,0.8-2.6,1.8c-0.9,0-0.4-1.4-0.9-1.8c-0.8-0.1-1.6,0-2.3,0.4c-0.6,0.3-1.5,1-0.8,1.8
					c0.6,0.6,1.8,0.4,2.3,1.1c0.3,1.8-1.8,1.1-1.5,2.9c0.3,0.7,2-0.1,2.4,0.6c0.9,1.1-1.5,1.1-1.5,2.4c1.7,2.3-0.5,6,2.5,6.3
					c1.5,0.1,2.1,0,3.2-0.1c0.6-0.1,0.9-0.2,1.1-0.5c1.4-1.3,0-3.8,1-3.5c1.2,0.3,1.6,2.2,1.4,3.4c-0.3,1.8-1.4,2.7-3.4,2.9
					c-1.6,0.2-3,0.2-4.5-0.1c-0.7-0.2-1.6-0.4-2.1-1c-0.6-0.8-0.4-2.3-0.4-3.2c0-0.2,0.1-3.3,0-3.3c-3.9,0.6-1.2,8.9-6,8.4
					c-0.8,0,1.2-1.9,1.5-3.8c0.4-2.5,0.4-5.6,2.5-6.7c-0.2-1.2-1.4-1.6-2.6-1.8c-2.3,7.5-6.1,11.2-6.5,10.3
					c-0.3-0.2-0.3-0.8-0.3-1.1c0.1-0.5,0.3-0.7,0.7-1.1c3.6-3.5,3.6-5.1,3.7-6.6c0-0.4-0.2-4.2,0.1-4.2c1.2-0.1,1.4,1.3,2.6,1.2
					c1.3-0.1,2-2,1.2-3.2c-0.2-0.4-1.4,0.2-1.6,0.2c-0.7,0.3-1.3,0.6-2,0.7c-1,0.2-2.1,0.4-3.1,0.3c-0.4,0-1.3-0.1-1.6-0.5
					c-0.4-0.5,0.3-0.7,0.6-0.9C107.8,12.1,108.9,11.9,109.7,11.6z"/>
				<path class="st2" d="M152.3,3.3c1.9,1-0.4,2.6-0.9,3.6c-0.5,1.1,2,2.1,1.4,2.9c-0.3,0.5-1.4,0.5-1.9,0.7c-1,0.3-2.1,0.7-3.1,1.1
					c-1.4,0.6-2.6,1.3-3.7,2.3c-0.8,0.8-1.4,1.8-2.1,2.7c-0.7,0.9-1.3,1.8-1.9,2.8c-0.5,0.8-1,1.5-1.4,2.3c-0.2,0.4-0.1,1.3-0.5,1.6
					c-0.5,0.3-2.1-0.5-2.6-0.7c-0.6-0.4-0.4-0.8,0-1.2c2.8-3.1,3.1-3.2,6.9-8.9c1-1.5,2-3,3.8-3.8c1.3-0.6,3.9-1.8,3.1-2.7
					c-0.5-0.4-1.1-0.4-1.7-0.3c-0.8,0.5-2.7,1.1-2.5,0C145.5,4.7,148.7,2.5,152.3,3.3z"/>
				<path class="st2" d="M174,5.2c-0.4,0.7-2.5,1.1-3.2,1.4c-0.3,0.1,1.6,2.2,1.8,2.4c0.4,0.3,0.8,0.6,1.3,0.9c0.3,0.2,1,0.3,1,0.8
					c0.1,0.9-0.9,2.2-1.4,2.9c-0.2,0.3-0.7,0.6-0.9,1c-0.2,0.5-0.2,2.7,0.1,4.2c0.2,1.4-0.1,2.8-0.1,4.2c0,0.4,0,0.9-0.5,1
					c-0.4,0.1-0.9-0.2-1.2-0.5c-0.6-0.7-0.7-1.2-0.9-2.3c-0.1-0.6-0.2-1.1-0.7-1.6c-0.2-0.2-0.7,0.6-1.6,0.5
					c-0.6-0.3-0.7-0.9-0.8-1.5c-0.1-0.7,0.1-1.1,0.6-1.6c0.2-0.2,1-0.9,0.8-1.3c-0.8-1.3-3.8,0.7-4.4-1.2c0.7-3.4,6-2.2,5.9-6.5
					c0-0.8-0.9-1-1.4-1.3c-0.5-0.3-1.3-1.4-0.5-1.9c0.4-0.3,1.2-0.4,1.7-0.5c0.5-0.2,1-0.4,1.6-0.5c0.7-0.2,2-0.8,2.6-0.1
					C173.8,4,174.2,4.9,174,5.2z"/>
				<path class="st2" d="M151.9,11.7c0.3,0.3,0.3,0.2,0.7,0.9c0.1,1.8-2.1,0.7-2.5,2c0.2,0.6,0.7,1.3,0.9,1.6c0.1,0.1,0.6,0,0.9,0.1
					c0.6,0,0.4,0.5,0.6,1c-0.1,1-1.2,1.2-1.3,2.1c1,0.6,3.2,0,3.5,1.2c-0.1,2.2-3.5,1.2-4.1,2.9c-0.1,1.4,0.6,2.7,1.9,2.9
					c1.5,0.2,2,0.1,4.2,0.1c1.5-0.1,1.6-1,2-2c0.1-0.5,0.4-2.1,1.2-1.4c0.9,0.9,1.1,2.3,0.9,3.4c-0.2,1.4-1.4,2.1-2.8,2.3
					c-0.6,0.1-1.1,0.2-1.7,0.2c-1.1,0-2.2-0.1-3.3-0.3c-1.7-0.3-3.4-1-4.5-2.3c-0.6-0.8-1.1-1.9-1.4-2.9c-0.9-0.1-2.3,0.3-2.4-0.6
					c0.5-1.5,3.1-1.1,3.5-2.6c0.1-0.7-0.2-1.5-0.2-1.5s-1.3,0.1-1.5-0.1c0-0.3-0.1-0.8-0.1-0.8s2-0.8,2.2-1.7c0.1-0.5,0-1-0.4-1.2
					c-0.3-0.2-0.8,0.4-0.9,0.1c-0.1-0.2-0.4-0.6-0.3-0.8c0.2-0.2,0.7-0.4,1-0.6c0.5-0.2,1-0.4,1.5-0.7
					C150.1,12.5,151.6,11.3,151.9,11.7z"/>
				<path class="st2" d="M69.2,6.8c0.7-0.1,2.1,0.8,2.6,1.3c1.3,1.4-0.6,2.8-1.8,3c-1,0.2-2.6,0-2.5-1.3C67.6,8.9,69.7,7.7,69.2,6.8
					z"/>
				<path class="st2" d="M270.2,17.4c0.1,1.6-2.3,0.7-1.9,3.4c0,1.5,5.1,0,5.2,1.7c0.1,1.4-2.6,1.1-3.4,1.7
					c-2.2,1.8-0.7,8.2-3.5,6.9c-1.3-0.6-6.7-6.4-5.3-7.1c0.1-0.1,1.4-0.6,1.6-0.7c0.9-0.4,2.3-0.9,3.3-1.2c0.9-0.5,0.2-2,0.3-2.9
					c-0.5-0.9-3.3,0.7-3.4-0.4C263.8,16.9,268.9,15.9,270.2,17.4z M262.3,25.3c0.4,1.5,2.8,2.9,3.6,1.9c0.3-0.4,0.3-0.8,0.6-1.5
					C266.9,24.4,263.6,24.7,262.3,25.3z"/>
				<path class="st2" d="M85.9,2.3c3.4-2.1,7.3,2.3,4.7,5.3c-2.8-0.3-4.2,0.7-5,2.4c2.1,1.8,6.3-3.4,8.2,0c-1.1,3.4-9.9,3.5-6.2,8.8
					c2.2-0.7,3.4-2.5,5.3-3.5c2.8,1,1.2,3.9,0.9,6.5c2.1,0.6,6.5-0.8,6.8,1.5c0.3,1.8-1.8,2.8-2.4,2.9c-1.1,0.5-14.1-0.4-10.3,0
					c3.8,0.4-4.9,2.3-5.3-0.6c-0.3-2.6,3.6-2.1,5.6-2.9c2.3-1,3.2-2.5,3.5-4.7c-2.7-0.8-2.7,4.2-5,4.1c-3.4-0.1-1-5.2-0.6-7.9
					c-0.5-1.2-2.9-0.5-3.2-1.8C85.1,9.6,89.2,6.2,85.9,2.3z"/>
			</g>
		</g>
	</g>
	<g>
		<g>
			<path class="st3" d="M57.9,42.4v-5.7h1.4l5.5,4.5v-4.5h1.3v5.7h-1.4l-5.6-4.5v4.5H57.9z"/>
			<path class="st3" d="M67.8,42.4l3.3-4.6h1.2l3.5,4.6h-1.3l-1-1.4h-3.6L69,42.4H67.8z M70.3,40.5h2.9l-0.9-1.3
				c-0.3-0.4-0.5-0.7-0.6-1c-0.1,0.3-0.3,0.6-0.5,0.9L70.3,40.5z"/>
			<path class="st3" d="M78.3,42.4v-4.1h-2.8v-0.5h6.8v0.5h-2.8v4.1H78.3z"/>
			<path class="st3" d="M83.9,42.4v-4.6H85v4.6H83.9z"/>
			<path class="st3" d="M87,40.2c0-0.8,0.4-1.4,1.1-1.8c0.8-0.4,1.7-0.7,3-0.7c0.8,0,1.5,0.1,2.1,0.3c0.6,0.2,1.1,0.5,1.5,0.9
				c0.3,0.4,0.5,0.8,0.5,1.2c0,0.5-0.2,0.9-0.5,1.3c-0.4,0.4-0.8,0.7-1.5,0.8c-0.6,0.2-1.3,0.3-2.1,0.3c-0.8,0-1.5-0.1-2.2-0.3
				c-0.6-0.2-1.1-0.5-1.4-0.9C87.2,41,87,40.6,87,40.2z M88.2,40.2c0,0.6,0.3,1,0.8,1.3c0.6,0.3,1.3,0.5,2.1,0.5
				c0.9,0,1.6-0.2,2.1-0.5c0.6-0.3,0.8-0.8,0.8-1.4c0-0.4-0.1-0.7-0.4-1c-0.2-0.3-0.6-0.5-1-0.7c-0.5-0.2-1-0.2-1.5-0.2
				c-0.8,0-1.5,0.1-2.1,0.4C88.5,39,88.2,39.5,88.2,40.2z"/>
			<path class="st3" d="M96.9,42.4v-4.6h1.2l4.5,3.7v-3.7h1.1v4.6h-1.2L98,38.8v3.7H96.9z"/>
			<path class="st3" d="M104.9,42.4l3.3-4.6h1.2l3.5,4.6h-1.3l-1-1.4h-3.6l-0.9,1.4H104.9z M107.4,40.5h2.9l-0.9-1.3
				c-0.3-0.4-0.5-0.7-0.6-1c-0.1,0.3-0.3,0.6-0.5,0.9L107.4,40.5z"/>
			<path class="st3" d="M114.1,42.4v-4.6h1.1v4.1h4.2v0.5H114.1z"/>
		</g>
		<g>
			<g>
				<path class="st3" d="M124.8,42.4v-5.7h6.6v0.7h-5.3v1.8h4.6v0.7h-4.6v2.6H124.8z"/>
				<path class="st3" d="M132.5,40.2c0-0.8,0.4-1.4,1.1-1.8c0.7-0.4,1.6-0.7,2.7-0.7c0.7,0,1.4,0.1,2,0.3c0.6,0.2,1,0.5,1.3,0.9
					c0.3,0.4,0.5,0.8,0.5,1.2c0,0.5-0.2,0.9-0.5,1.3c-0.3,0.4-0.8,0.7-1.4,0.8c-0.6,0.2-1.2,0.3-1.9,0.3c-0.7,0-1.4-0.1-2-0.3
					c-0.6-0.2-1-0.5-1.3-0.9C132.7,41,132.5,40.6,132.5,40.2z M133.6,40.2c0,0.6,0.3,1,0.8,1.3c0.5,0.3,1.2,0.5,1.9,0.5
					c0.8,0,1.4-0.2,1.9-0.5c0.5-0.3,0.8-0.8,0.8-1.4c0-0.4-0.1-0.7-0.3-1c-0.2-0.3-0.5-0.5-1-0.7c-0.4-0.2-0.9-0.2-1.4-0.2
					c-0.7,0-1.4,0.1-1.9,0.4C133.9,39,133.6,39.5,133.6,40.2z"/>
				<path class="st3" d="M141.5,42.4v-4.6h3.5c0.7,0,1.2,0,1.6,0.1c0.4,0.1,0.7,0.2,0.9,0.4c0.2,0.2,0.3,0.4,0.3,0.7
					c0,0.3-0.2,0.6-0.5,0.8c-0.4,0.2-0.9,0.4-1.7,0.4c0.3,0.1,0.5,0.2,0.6,0.2c0.3,0.2,0.6,0.4,0.9,0.6l1.4,1.3h-1.3l-1-1
					c-0.3-0.3-0.6-0.5-0.8-0.6c-0.2-0.1-0.4-0.3-0.5-0.3c-0.2-0.1-0.3-0.1-0.5-0.1c-0.1,0-0.3,0-0.6,0h-1.2v2.1H141.5z M142.5,39.8
					h2.2c0.5,0,0.9,0,1.1-0.1c0.3-0.1,0.5-0.2,0.6-0.3c0.1-0.1,0.2-0.3,0.2-0.4c0-0.2-0.1-0.4-0.4-0.5c-0.3-0.1-0.7-0.2-1.3-0.2
					h-2.5V39.8z"/>
				<path class="st3" d="M149.4,42.4v-4.6h1.6l1.9,3.3c0.2,0.3,0.3,0.5,0.4,0.7c0.1-0.2,0.2-0.4,0.4-0.7l1.9-3.2h1.4v4.6h-1v-3.9
					l-2.3,3.9h-0.9l-2.3-4v4H149.4z"/>
				<path class="st3" d="M158.3,40.2c0-0.8,0.4-1.4,1.1-1.8c0.7-0.4,1.6-0.7,2.7-0.7c0.7,0,1.4,0.1,2,0.3c0.6,0.2,1,0.5,1.3,0.9
					c0.3,0.4,0.5,0.8,0.5,1.2c0,0.5-0.2,0.9-0.5,1.3c-0.3,0.4-0.8,0.7-1.4,0.8c-0.6,0.2-1.2,0.3-1.9,0.3c-0.7,0-1.4-0.1-2-0.3
					c-0.6-0.2-1-0.5-1.3-0.9C158.5,41,158.3,40.6,158.3,40.2z M159.4,40.2c0,0.6,0.3,1,0.8,1.3c0.5,0.3,1.2,0.5,1.9,0.5
					c0.8,0,1.4-0.2,1.9-0.5c0.5-0.3,0.8-0.8,0.8-1.4c0-0.4-0.1-0.7-0.3-1c-0.2-0.3-0.5-0.5-1-0.7c-0.4-0.2-0.9-0.2-1.4-0.2
					c-0.7,0-1.4,0.1-1.9,0.4C159.7,39,159.4,39.5,159.4,40.2z"/>
				<path class="st3" d="M166.9,40.9l1-0.1c0,0.2,0.2,0.4,0.3,0.6c0.2,0.1,0.4,0.3,0.8,0.4c0.4,0.1,0.8,0.1,1.2,0.1
					c0.4,0,0.8,0,1.1-0.1c0.3-0.1,0.5-0.2,0.7-0.3c0.1-0.1,0.2-0.3,0.2-0.4c0-0.1-0.1-0.3-0.2-0.4c-0.1-0.1-0.4-0.2-0.7-0.3
					c-0.2,0-0.7-0.1-1.4-0.2c-0.7-0.1-1.2-0.2-1.5-0.3c-0.4-0.1-0.7-0.3-0.8-0.4c-0.2-0.2-0.3-0.4-0.3-0.6c0-0.2,0.1-0.5,0.3-0.7
					c0.2-0.2,0.6-0.4,1-0.5c0.4-0.1,0.9-0.2,1.5-0.2c0.6,0,1.1,0.1,1.6,0.2c0.4,0.1,0.8,0.3,1,0.5c0.2,0.2,0.4,0.5,0.4,0.7l-1,0
					c-0.1-0.3-0.2-0.5-0.5-0.7c-0.3-0.2-0.8-0.2-1.4-0.2c-0.6,0-1.1,0.1-1.4,0.2c-0.3,0.1-0.4,0.3-0.4,0.5c0,0.2,0.1,0.3,0.3,0.4
					c0.2,0.1,0.7,0.2,1.6,0.3c0.9,0.1,1.4,0.2,1.8,0.3c0.5,0.1,0.8,0.3,1,0.5c0.2,0.2,0.3,0.4,0.3,0.7c0,0.2-0.1,0.5-0.4,0.7
					c-0.2,0.2-0.6,0.4-1,0.5c-0.5,0.1-1,0.2-1.5,0.2c-0.7,0-1.3-0.1-1.8-0.2c-0.5-0.1-0.9-0.3-1.1-0.6
					C167,41.5,166.9,41.2,166.9,40.9z"/>
				<path class="st3" d="M173.7,42.4l3-4.6h1.1l3.2,4.6h-1.2L179,41h-3.3l-0.9,1.4H173.7z M176,40.5h2.7l-0.8-1.3
					c-0.3-0.4-0.4-0.7-0.6-1c-0.1,0.3-0.2,0.6-0.4,0.9L176,40.5z"/>
			</g>
		</g>
		<g>
			<g>
				<path class="st4" d="M192.5,36.5h1.4v3.4c0,0.6-0.1,1.1-0.4,1.4c-0.2,0.3-0.7,0.6-1.3,0.8c-0.6,0.2-1.4,0.3-2.4,0.3
					c-1,0-1.8-0.1-2.4-0.3c-0.6-0.2-1.1-0.5-1.3-0.8c-0.3-0.4-0.4-0.9-0.4-1.5v-3.4h1.4v3.4c0,0.5,0.1,0.9,0.3,1.1
					c0.2,0.2,0.5,0.4,0.9,0.6c0.4,0.1,0.9,0.2,1.5,0.2c1,0,1.7-0.1,2.2-0.4c0.4-0.3,0.6-0.8,0.6-1.5V36.5z"/>
				<path class="st4" d="M195.9,42.4v-4.7h1.1l4.3,3.7v-3.7h1v4.7h-1.1l-4.3-3.7v3.7H195.9z"/>
				<path class="st4" d="M204.3,42.4v-4.7h1.1v4.7H204.3z"/>
				<path class="st4" d="M209.7,42.4l-3.2-4.7h1.2l2.1,3.4c0.2,0.3,0.3,0.5,0.4,0.8c0.1-0.3,0.3-0.5,0.4-0.8l2.2-3.4h1.1l-3.2,4.7
					H209.7z"/>
				<path class="st4" d="M215,42.4v-4.7h5.9v0.5h-4.8v1.4h4.5v0.5h-4.5v1.6h5v0.5H215z"/>
				<path class="st4" d="M222.6,42.4v-4.7h3.6c0.7,0,1.3,0,1.7,0.1c0.4,0.1,0.7,0.2,0.9,0.4c0.2,0.2,0.3,0.4,0.3,0.7
					c0,0.3-0.2,0.6-0.6,0.8c-0.4,0.2-1,0.4-1.7,0.4c0.3,0.1,0.5,0.2,0.7,0.2c0.3,0.2,0.6,0.4,0.9,0.6l1.4,1.3h-1.4l-1.1-1
					c-0.3-0.3-0.6-0.5-0.8-0.6c-0.2-0.1-0.4-0.3-0.6-0.3c-0.2-0.1-0.3-0.1-0.5-0.1c-0.1,0-0.3,0-0.6,0h-1.3v2.1H222.6z M223.7,39.8
					h2.3c0.5,0,0.9,0,1.2-0.1c0.3-0.1,0.5-0.2,0.6-0.3c0.1-0.1,0.2-0.3,0.2-0.4c0-0.2-0.1-0.4-0.4-0.5c-0.3-0.1-0.7-0.2-1.3-0.2
					h-2.6V39.8z"/>
				<path class="st4" d="M230.5,40.9l1,0c0,0.2,0.2,0.4,0.3,0.6c0.2,0.1,0.5,0.3,0.8,0.4c0.4,0.1,0.8,0.1,1.3,0.1
					c0.4,0,0.8,0,1.1-0.1c0.3-0.1,0.6-0.2,0.7-0.3c0.2-0.1,0.2-0.3,0.2-0.4c0-0.1-0.1-0.3-0.2-0.4c-0.1-0.1-0.4-0.2-0.7-0.3
					c-0.2,0-0.7-0.1-1.5-0.2c-0.8-0.1-1.3-0.2-1.6-0.3c-0.4-0.1-0.7-0.3-0.9-0.4c-0.2-0.2-0.3-0.4-0.3-0.6c0-0.2,0.1-0.5,0.4-0.7
					c0.2-0.2,0.6-0.4,1-0.5c0.5-0.1,1-0.2,1.5-0.2c0.6,0,1.1,0.1,1.6,0.2c0.5,0.1,0.8,0.3,1.1,0.5c0.2,0.2,0.4,0.5,0.4,0.7l-1,0
					c-0.1-0.3-0.2-0.5-0.6-0.7c-0.3-0.2-0.8-0.2-1.4-0.2c-0.7,0-1.1,0.1-1.4,0.2c-0.3,0.1-0.4,0.3-0.4,0.5c0,0.2,0.1,0.3,0.3,0.4
					c0.2,0.1,0.8,0.2,1.6,0.3c0.9,0.1,1.5,0.2,1.8,0.3c0.5,0.1,0.8,0.3,1.1,0.5c0.2,0.2,0.3,0.4,0.3,0.7c0,0.2-0.1,0.5-0.4,0.7
					c-0.2,0.2-0.6,0.4-1.1,0.5c-0.5,0.1-1,0.2-1.6,0.2c-0.7,0-1.4-0.1-1.9-0.2c-0.5-0.1-0.9-0.3-1.2-0.6
					C230.6,41.5,230.5,41.2,230.5,40.9z"/>
				<path class="st4" d="M238.7,42.4v-4.7h1.1v4.7H238.7z"/>
				<path class="st4" d="M243.7,42.4v-4.1H241v-0.5h6.5v0.5h-2.7v4.1H243.7z"/>
				<path class="st4" d="M250.9,42.4v-2l-3.2-2.7h1.3l1.6,1.4c0.3,0.3,0.6,0.5,0.8,0.8c0.2-0.2,0.5-0.5,0.9-0.8l1.6-1.4h1.3
					l-3.3,2.7v2H250.9z"/>
			</g>
		</g>
	</g>
	<g>
		<polygon class="st5" points="9,31.3 0,17.4 6.1,5.6 13.3,5.6 7.3,17.3 12.8,25.4 27,25.4 32.7,17.1 27,5.6 34.1,5.6 39.8,17.4 
			30.8,31.3 		"/>
		<g>
			<g>
				<path class="st5" d="M26.2,16.2c0-3.3-2.7-6.1-6.1-6.1c-1,0-1.9,0.3-2.7,0.7l7.8,8.6C25.9,18.5,26.2,17.4,26.2,16.2z"/>
				<path class="st5" d="M14.2,16.1c0,3.3,2.7,6,6.1,6c1,0,1.9-0.3,2.7-0.7l-7.8-8.6C14.6,13.8,14.2,14.9,14.2,16.1z"/>
			</g>
		</g>
	</g>
	<path class="st6" d="M177.9,9c0,0-1.8,1.4-0.7,2.2C177.2,11.2,175.4,10.1,177.9,9z"/>
</g>
</svg>
