<?xml version="1.0" encoding="utf-8"?>
<!-- Generator: Adobe Illustrator 16.0.0, SVG Export Plug-In . SVG Version: 6.00 Build 0)  -->
<!DOCTYPE svg PUBLIC "-//W3C//DTD SVG 1.1//EN" "http://www.w3.org/Graphics/SVG/1.1/DTD/svg11.dtd">
<svg version="1.1" id="圖層_1" xmlns="http://www.w3.org/2000/svg" xmlns:xlink="http://www.w3.org/1999/xlink" x="0px" y="0px"
	 width="600px" height="157px" viewBox="0 0 600 157" enable-background="new 0 0 600 157" xml:space="preserve">
<g id="cm">
	<path fill="#3F3F3F" d="M338.241,61.084h-22.738v-3.721h9.922c-0.827-2.067-2.067-4.134-3.308-6.615l3.308-1.654
		c1.654,2.48,2.895,5.375,4.135,8.269h8.682V61.084z M337.001,71.006h-19.432v-3.721h19.432V71.006z M337.001,82.169h-19.432v-3.721
		h19.432V82.169z M336.174,112.764h-3.721v-3.722h-10.749v5.375h-3.721V89.61h18.19V112.764z M332.453,105.321V93.745h-10.749
		v11.576H332.453z M380.412,108.216l-2.48,2.895c-8.27-6.615-13.644-12.817-16.538-19.846v23.152h-3.721V91.265
		c-3.721,7.028-9.509,13.644-16.951,19.846l-2.48-2.895c8.269-7.029,14.057-13.644,17.364-20.259h-15.71v-3.721h17.777v-6.202
		h-14.884V51.161h33.902v26.874h-15.298v6.202h17.778v3.721h-15.711C366.769,94.985,372.144,101.601,380.412,108.216z
		 M357.673,62.738v-7.855H346.51v7.855H357.673z M357.673,74.314v-7.855H346.51v7.855H357.673z M372.971,62.738v-7.855h-11.576
		v7.855H372.971z M372.971,74.314v-7.855h-11.576v7.855H372.971z"/>
	<path fill="#3F3F3F" d="M415.141,86.304l-2.894,2.895c-1.654-3.309-3.722-6.615-6.202-9.51v34.315h-3.721V79.275
		c-3.308,7.854-7.028,14.057-9.923,18.19l-2.48-2.894c4.962-6.615,9.096-14.884,12.403-23.979h-11.989v-3.721h12.402v-9.923
		l-9.096,1.654l-2.066-3.721c8.682-0.827,15.71-2.894,21.498-4.961l2.481,3.308c-3.722,1.24-6.615,2.067-8.683,2.894v11.99h8.683
		v3.721h-9.51v2.894C410.593,79.688,413.487,83.409,415.141,86.304z M454.417,112.764H412.66v-3.722h19.018V97.466h-16.537v-3.307
		h16.537v-10.75c-7.854,0.414-12.816,0.827-14.883,0.827l-1.654-3.722c13.644-0.413,25.633-1.653,35.556-3.72l2.48,3.307
		c-4.961,1.241-10.749,2.067-17.364,3.308v10.75h16.124v3.721h-16.124v11.576h19.019v3.308H454.417z M449.869,71.833h-31.834V51.575
		h31.834V71.833z M445.735,68.112V55.296h-23.979v12.816H445.735z"/>
	<path fill="#3F3F3F" d="M486.252,99.533c-7.441,4.135-14.471,7.028-21.086,9.509l-1.24-3.721c2.895-0.826,6.202-2.066,9.51-3.721
		V72.247h-8.683v-3.721h8.683V50.748h3.721v17.778h8.269v3.721h-8.269v27.7c4.135-2.066,7.028-3.307,8.269-4.134L486.252,99.533z
		 M529.249,100.36c-0.413,4.961-0.827,8.269-2.067,9.922c-1.24,1.654-2.48,2.895-3.721,2.895s-4.961,0.414-11.989,0.414
		c-9.096,0-14.471,0-16.124-0.414c-1.654-0.413-2.895-0.826-3.721-1.654c-0.827-1.24-1.24-2.48-1.24-3.721V77.621l-6.615,2.067
		l-0.414-3.721l7.029-2.481V58.19h3.721v14.47l11.576-4.134V49.921h3.721v17.364l16.124-5.788c0,9.923-1.24,20.259-3.721,31.422
		l-3.721-1.24c2.066-9.096,3.307-17.365,3.721-25.22l-12.403,4.134v28.94h-3.721v-27.7l-11.576,4.135v31.834
		c0,0.414,0,0.414,0.413,0.827c0.414,0.413,0.414,0.413,0.827,0.827c0.413,0,1.653,0,4.548,0.413c2.894,0,5.374,0,8.269,0
		c8.269,0,13.23-0.413,14.471-0.827c1.24-0.413,2.066-3.721,2.894-9.922L529.249,100.36z"/>
	<path fill="#3F3F3F" d="M600.36,114.417h-3.721v-4.961h-50.853v4.961h-4.135V51.988h58.708V114.417z M596.64,106.148V55.296
		h-50.853v50.853H596.64z M592.505,76.794h-42.997v-3.308h19.845v-3.721h-15.297V59.43h34.315v10.336h-14.885v3.721h19.432v3.308
		H592.505z M589.197,102.428h-36.382V80.515h36.382V102.428z M585.477,99.12V82.996h-28.94V99.12H585.477z M584.649,66.872v-4.134
		h-26.873v4.134H584.649z M579.688,95.813h-17.364v-9.509h17.364V95.813z M576.381,92.919v-3.721h-10.336v3.721H576.381z"/>
</g>
<rect id="di" x="236.051" fill="#D1D1D1" width="3.797" height="157"/>
<g>
	<polygon fill="#003D72" points="38.209,135.017 1,77.549 26.22,28.764 55.987,28.764 31.181,77.136 53.92,110.624 112.628,110.624 
		136.194,76.309 112.628,28.764 141.982,28.764 165.548,77.549 128.338,135.017 	"/>
	<g>
		<g>
			<path fill="#003D72" d="M109.32,72.588c0-13.644-11.163-25.22-25.22-25.22c-4.134,0-7.855,1.24-11.163,2.894l32.248,35.556
				C108.08,82.097,109.32,77.549,109.32,72.588z"/>
			<path fill="#003D72" d="M59.708,72.174c0,13.644,11.163,24.806,25.22,24.806c4.134,0,7.855-1.24,11.163-2.895L63.842,58.531
				C61.362,62.666,59.708,67.213,59.708,72.174z"/>
		</g>
	</g>
</g>
</svg>
