<?xml version="1.0" encoding="utf-8"?>
<!-- Generator: Adobe Illustrator 16.0.0, SVG Export Plug-In . SVG Version: 6.00 Build 0)  -->
<!DOCTYPE svg PUBLIC "-//W3C//DTD SVG 1.1//EN" "http://www.w3.org/Graphics/SVG/1.1/DTD/svg11.dtd">
<svg version="1.1" id="logo" xmlns="http://www.w3.org/2000/svg" xmlns:xlink="http://www.w3.org/1999/xlink" x="0px" y="0px"
	 width="774px" height="86px" viewBox="0 0 774 86" enable-background="new 0 0 774 86" xml:space="preserve">
<g id="cm">
	<path fill="#0C437B" d="M647.07,33.893h-11.057v-1.775h4.869c-0.375-1.008-0.938-2.086-1.688-3.234l1.688-0.826
		c0.809,1.242,1.482,2.596,2.021,4.061h4.166V33.893z M646.35,38.885h-9.422v-1.863h9.422V38.885z M646.35,44.264h-9.422v-1.881
		h9.422V44.264z M645.963,59.012h-1.811v-1.863h-5.115v2.689h-1.863v-11.9h8.789V59.012z M644.152,55.303v-5.607h-5.115v5.607
		H644.152z M667.408,56.744l-1.107,1.477c-3.926-3.105-6.604-6.281-8.033-9.527v11.109h-1.863V48.693
		c-1.852,3.469-4.617,6.645-8.297,9.527l-1.178-1.336c4.078-3.363,6.873-6.639,8.385-9.826h-7.488V45.23h8.578v-3.059h-7.207V29.217
		h16.453v12.955h-7.383v3.059h8.648v1.828h-7.523C660.799,50.41,663.471,53.639,667.408,56.744z M656.404,34.754v-3.779h-5.449
		v3.779H656.404z M656.404,40.396v-3.885h-5.449v3.885H656.404z M663.77,34.754v-3.779h-5.502v3.779H663.77z M663.77,40.396v-3.885
		h-5.502v3.885H663.77z"/>
	<path fill="#0C437B" d="M684.195,46.268l-1.301,1.441c-0.867-1.617-1.898-3.117-3.094-4.5v16.664h-1.881V43.139
		c-1.699,3.82-3.316,6.785-4.852,8.895l-1.266-1.477c2.355-3.27,4.359-7.107,6.012-11.514h-5.836v-1.811h5.941v-5.326l-4.395,0.826
		l-0.967-1.793c4.195-0.492,7.664-1.318,10.406-2.479l1.107,1.652c-1.758,0.598-3.182,1.055-4.271,1.371v5.748h4.271v1.811h-4.271
		v1.477C681.992,42.957,683.457,44.873,684.195,46.268z M703.268,59.012H683v-1.758h9.246v-5.502h-7.98v-1.811h7.98v-5.221
		c-3.844,0.246-6.217,0.381-7.119,0.404l-0.861-1.846c6.621-0.117,12.334-0.75,17.139-1.898l1.213,1.617
		c-2.414,0.563-5.232,1.066-8.455,1.512v5.432h7.734v1.811h-7.734v5.502h9.105V59.012z M700.965,39.289h-15.451v-9.826h15.451
		V39.289z M699.049,37.461v-6.205H687.43v6.205H699.049z"/>
	<path fill="#0C437B" d="M718.684,52.578c-3.68,1.922-7.078,3.422-10.195,4.5l-0.51-1.811c1.465-0.48,2.965-1.078,4.5-1.793V39.254
		h-4.131v-1.846h4.131v-8.561h1.881v8.561h3.92v1.846h-3.92v13.43c2.004-0.996,3.346-1.682,4.025-2.057L718.684,52.578z M739.373,53
		c-0.117,2.402-0.475,4.031-1.072,4.887s-1.181,1.327-1.749,1.415s-2.476,0.132-5.722,0.132c-4.406,0-7.014-0.035-7.822-0.105
		s-1.403-0.369-1.784-0.896s-0.571-1.148-0.571-1.863v-14.66l-3.199,1.09l-0.281-1.846l3.48-1.178v-7.488h1.775v6.908l5.678-1.934
		v-8.965h1.846v8.314l7.84-2.707c-0.059,4.734-0.691,9.797-1.898,15.188l-1.811-0.527c1.008-4.348,1.611-8.385,1.811-12.111
		l-5.941,2.021v14.045h-1.846V39.324l-5.678,1.986v15.363c0,0.105,0.076,0.243,0.229,0.413s0.287,0.281,0.404,0.334
		s0.832,0.1,2.145,0.141s2.643,0.062,3.99,0.062c4.078,0,6.439-0.111,7.084-0.334s1.078-1.84,1.301-4.852L739.373,53z"/>
	<path fill="#0C437B" d="M773.791,59.873h-1.863v-2.338h-24.521v2.338h-1.916V29.639h28.301V59.873z M771.928,55.848V31.291h-24.521
		v24.557H771.928z M770.082,41.557h-20.883V40.08h9.58v-1.758h-7.383v-5.045h16.559v5.045h-7.295v1.758h9.422V41.557z
		 M768.43,53.896h-17.525V43.209h17.525V53.896z M766.637,52.438V44.65h-13.904v7.787H766.637z M766.162,36.846v-2.057h-12.92v2.057
		H766.162z M763.824,50.803h-8.35v-4.676h8.35V50.803z M762.137,49.396v-1.863h-4.975v1.863H762.137z"/>
</g>
<rect id="di" x="597" fill="#0C437B" width="2" height="83"/>
<g id="nfu_1_">
	<g>
		<g>
			<g>
				<path fill-rule="evenodd" clip-rule="evenodd" fill="#003D72" d="M515.373,30.01c4.005,0.397,8.526-1.644,9.178-5.473
					c-2.55-0.196-1.449,3.255-4.118,2.94c-2.476-4.979-1.671-13.23-4.115-18.227c5.684-4.258,4.94,5.834,7.634,8.231
					c2.121-3.699-1.254-10.534,1.185-12.937c2.373-0.221,2.301,2.008,3.532,2.94c2.42-0.126,1.43-3.663,3.517-4.117
					c2.183,0.174,3.862,0.841,3.532,3.529c-1.357,1.779-4.188,2.078-4.117,5.293c0.593,1.652,2.494-0.165,3.529,0
					c0.376,1.776,0.918,3.391,2.942,3.526c3.329-2.571-2.145-4.556-2.942-5.291c0.092-3.555,2.97-1.071,4.704-2.354
					c0.469-2.038-0.872-2.257-0.587-4.118c2.079-2.036,5.153-0.707,6.471,1.18c0.351,7.553-3.632,15.896-1.767,21.166
					c5.645,0.823,13.767-0.834,16.465,2.942c-0.064,4.863-5.788,5.424-9.405,3.527c-0.436-1.796,1.006-1.729,0.584-3.527
					c-15.12-0.594-38.09,0.697-45.855,9.409c-1.973-4.088,6.029-10.553,8.22-9.409C514.511,29.377,514.797,29.952,515.373,30.01z
					 M528.071,17.48c0.796,0.185,1.124,0.834,2.354,0.585c0-0.585,0-1.173,0-1.763C529.087,16.138,528.214,16.445,528.071,17.48z
					 M528.071,26.888c0.018-0.039,2.078-0.016,2.292-0.062c0.816-0.183,1.192-0.511,1.621-1.217
					c1.146-1.852,2.514-4.812,1.385-6.955C530.685,20.479,529.152,23.457,528.071,26.888z M537.484,25.71
					c1.431-1.31,1.648-3.835,2.349-5.88c-0.79-0.185-1.12-0.834-2.349-0.585C536.908,20.78,533.961,25.452,537.484,25.71z"/>
				<path fill-rule="evenodd" clip-rule="evenodd" fill="#003D72" d="M422.906,3.901c1.246,0.368,0.618,13.173,1.537,13.197
					c3.803,0.098,6.86-3.388,8.967-0.206c-0.228,2.083-1.686,3.294-3.502,4.095c-1.465,0.65-4.444,1.011-5.345,2.485
					c-0.558,0.95-0.668,2.403-0.889,3.471c-0.355,1.681-0.862,3.497-0.869,5.227c1.859,0.047,3.609-1.359,5.491-1.318
					c1.869,0.044,4.739,0.614,5.969,4.288c1.236,3.71-5.969,6.059-6.73,9.97c3.677,4.354,25.559,5.651,21.58,8.559
					c-7.497,5.971-19.143-0.457-23.935-2.085c-6.683-0.365-10.562,9.135-15.88,6.375c-0.711-0.606-0.535-1.385,0.061-2.202
					c1.069-1.454,3.482-3.021,4.54-3.857c1.322-1.043,3.752-2.114,4.604-3.602c0.985-1.709-3.904-5.186-6.527-8.167
					c-1.434-1.629-0.646-4.052-1.44-3.765c-1.483,0.533-3.362,1.61-3.84,2.962c-0.495,1.445-0.661,3.063-0.587,4.579
					c0.175,3.567,1.026,7.189,0.576,10.764c-0.081,0.656-0.824,4.762-2.088,4.559c-1.266-0.199-8.308-9.233-6.317-10.763
					c0.571-0.623,2.389-0.965,2.989-1.733c0,0-0.193-1.317-0.384-2.632c-0.478,0.299-5.267,4.31-6.988,3.816
					c-1.317-0.371-2.714-1.118-3.354-2.135c-1.763-2.777,2.583-4.119,5.262-5.763c2.676-1.647,4.635-4.482,4.635-4.482
					s0.39-7.237-0.191-8.801c-0.535-1.434-9.504,1.656-11.521-1.025c0.097-1.562-0.563-2.36,0.371-3.082
					c2.82-2.188,9.589-1.941,10.796-5.736c0.431-1.358,0.043-3.395,0.152-4.834c0.122-1.488,0.099-4.394,0.688-4.784
					c0.875-0.581,1.561-0.586,2.634-0.459c1.354,0.157,1.099,2.366,1.275,3.687c0.17,1.267,0.307,2.596,0.49,4.012
					c0.193,1.466,0.247,2.551,1.071,3.419c0.586,0.625,2.921-0.017,3.644,0.275c1.1,0.44,0.81,1.413,0.781,2.474
					c-0.047,1.848-4.668,2.288-4.447,4.562c0.11,1.13-0.495,2.747-0.404,3.996c3.274,1.693,5.211-2.485,7.646-3.529
					c0-0.897-0.642-2.802-0.14-3.587c0.35-0.552,1.984-1.198,2.524-1.606c0.541-0.409,1.219-1.086,1.527-1.684
					c0.636-1.226,0.535-1.835,0.719-3.187c0.303-2.298,0.283-4.641,0.695-6.926c0.276-1.53,0.017-4.056,1.342-5.048
					C420.39,3.46,422.673,3.831,422.906,3.901z M412.242,34.533c3.677,0.143,4.183-2.886,4.706-5.882
					C413.876,29.108,412.602,31.36,412.242,34.533z M421.246,42.108c3.272,0.527,3.678-1.571,3.347-4.635
					C418.953,36.516,419.273,40.069,421.246,42.108z"/>
				<path fill-rule="evenodd" clip-rule="evenodd" fill="#003D72" d="M140.614,57.078c-2.55-0.785-4.3-5.606-7.057-5.127
					c-5.642,1.9-12.077,2.521-15.696,0.207c-5.105-3.265-6.927-7.588-7.755-11.738c-1.431-7.15-1.431-11.948-1.127-20.826
					c0.12-3.373,3.563-10.497,8.112-10.733c2.318,5.058-3.668,6.033-3.515,11.395c0.25,8.787-0.636,24.878,7.35,28.127
					c2.755,1.117,3.675-0.106,5.615-1.026c4.9-2.854,9.079-6.156,8.779-10.858c-4.491-0.108-9.802,11.578-13.579,8.616
					c-3.677-3.576-7.665-7.662,0.818-12.658c-0.288-2.653-5.022,0.201-5.31-2.449c-0.522-3.465,4.5-5.225,4.9-7.763
					c0.772-3.319-4.291-0.884-4.31-3.409c2.701-1.612,7.151-3.1,7.485-8.209c0.194-2.979-6.925,0.054-7.359-2.059
					c4.796-4.696,13.169-7.759,19.293-6.124c6.051,1.612,14.905,8.167,15.517,15.819c0.492,6.157,0.461,12.43,0.153,18.757
					c-0.196,4.04-0.485,6.256-1.175,8.707C151.04,47.971,145.109,57.454,140.614,57.078z M147.72,15.968
					c-0.461-7.233-6.552-11.608-14.165-10.635c-1.88,0.237-3.63,1.308-4.704,3.528c-0.276,0.582,1.251,1.811,1.612,2.038
					c0.812,0.504,1.771,0.672,2.621,1.089c0.715,0.345,1.861,1.031,2.032,1.895c0.237,1.195-0.919,1.235-1.737,1.649
					c-8.39,4.225,0.47,12.433,4.883,15.671c1.544-1-0.545-5.638,2.352-5.29c5.424,1.232-3.845,15.936,4.811,16.852
					C147.569,42.765,148.262,24.374,147.72,15.968z M126.743,34.292c1.395,0.035,3.6,0.554,4.492-0.61
					c0.951-1.246,1.963-4.622-0.51-3.781c-0.914,0.31-2.31,0.798-2.653,1.637C127.978,31.761,126.681,34.289,126.743,34.292z
					 M131.567,45.752c4.21,2.983,7.119,6.504,11.398,0.74C137.923,40.619,138.993,39.855,131.567,45.752z"/>
				<path fill-rule="evenodd" clip-rule="evenodd" fill="#003D72" d="M366.165,4.644c0.653,0.242,1.194,0.723,1.385,1.368
					c0.375,1.264,0.357,2.802,0.404,4.112c0.147,3.752-0.175,7.506,0.09,11.257c0.074,0.931,0.176,1.865,0.389,2.778
					c0.062,0.305,0.382,2.037,0.705,2.139c3.133,1.024,4.089-2.079,5.875-0.587c0.296,5.588-4.518,6.058-5.875,9.999
					c-0.78,8.648,1.32,17.441,0,24.697c-4.981,0.374-3.236-5.706-3.532-9.407c-0.446-5.703-0.952-12.149-3.528-15.29
					c-4.492,0.016-9.424,4.943-12.348,1.173c-0.44-3.12,3.777-6.321,4.702-9.995c-0.455-2.476-2.77-4.228-1.174-7.057
					c0.706,3.608,4.309,4.315,7.646,5.293c-1.17,3.527-7.196,2.211-6.472,7.644c2.293,0.878,5.417-0.369,7.15-1.886
					c2.365-2.078,1.138-6.448,1.099-9.188c-0.016-1.305,0.489-3.797-0.833-4.591c-1.676-1.019-5.556,0.272-6.817,1.552
					c-0.653-1.896-2.828-2.042-2.296-5.411c1.148-1.991,4.541-0.841,7.198,0.151c0.514,0.193,1.182-1.66,1.346-1.986
					c0.377-0.706,0.543-1.539,0.708-2.313c0.313-1.478,0.479-3.307,1.852-4.244C364.506,4.395,365.407,4.359,366.165,4.644z"/>
				<path fill-rule="evenodd" clip-rule="evenodd" fill="#003D72" d="M476.93,5.718c2.048,1.092-0.875,8.841,0.674,11.967
					c2.601,2.45,8.58-0.096,9.801,2.602c0.502,7.485-9.668,4.462-11.067,8.954c-1.266,4.061,3.687,8.838,5.884,10.586
					c6.856,5.44,27.99,6.031,24.69,10.58c-2.473,4.333-10.04,3.23-14.697,2.356c-6.812-1.278-13.357-7.601-18.224-9.409
					c-8.224,0.788-14.229,14.375-21.754,8.23c-3.734-2.814,17.582-11.346,16.784-19.197c-0.502-5.068-6.428-2.76-9.737-6.675
					c-2.355-3.587,7.774-2.812,10.587-5.292C472.155,15.876,468.898,0.756,476.93,5.718z"/>
				<path fill-rule="evenodd" clip-rule="evenodd" fill="#003D72" d="M219.357,23.107c3.885-1.52,8.191-2.453,9.568-4.446
					c1.157-1.668,1.144-3.772,0.952-5.719c-0.237-2.318-0.6-4.634-0.822-6.958c-0.136-1.384-0.13-2.524,1.635-1.728
					c1.285,0.693,2.967,3.416,3.75,3.98c1.354,0.971,1.906,0.459,3.672,1.024c0.502,3.834-3.627,3.036-4.705,5.291
					c0.007,1.559-0.225,3.356,0.588,4.115c5.282-0.718,14.018-2.568,15.876,2.941c-0.363,2.576-4.348,1.531-5.292,3.527
					c-1.755-0.011-0.753-2.772-1.765-3.527c-1.572-0.118-3.273-0.005-4.692,0.736c-1.18,0.619-3.088,2.095-1.686,3.507
					c1.212,1.219,3.5,0.737,4.615,2.226c0.6,3.536-3.692,2.185-2.939,5.878c0.502,1.454,4.092-0.171,4.703,1.174
					c1.712,2.292-3.042,2.175-2.943,4.706c3.312,4.516-1.09,11.989,5.03,12.544c2.949,0.268,4.183,0.075,6.311-0.222
					c1.135-0.154,1.707-0.426,2.243-0.918c2.792-2.588,0.059-7.568,1.962-6.951c2.372,0.658,3.251,4.486,2.86,6.836
					c-0.613,3.676-2.812,5.365-6.739,5.821c-3.115,0.365-5.943,0.418-9.039-0.265c-1.366-0.306-3.257-0.874-4.158-2.024
					c-1.258-1.613-0.871-4.526-0.787-6.458c0.02-0.471,0.279-6.646-0.034-6.601c-7.711,1.116-2.317,17.873-12.039,16.877
					c-1.611,0.077,2.451-3.827,2.983-7.535c0.874-5.045,0.819-11.146,4.94-13.458c-0.459-2.482-2.745-3.136-5.294-3.527
					c-4.545,15.026-12.124,22.377-12.988,20.608c-0.513-0.443-0.685-1.627-0.535-2.254c0.257-1.061,0.644-1.359,1.399-2.102
					c7.197-7.043,7.271-10.184,7.376-13.269c0.027-0.807-0.45-8.327,0.203-8.372c2.316-0.163,2.817,2.608,5.135,2.448
					c2.643-0.124,3.928-4.002,2.35-6.47c-0.455-0.711-2.763,0.304-3.236,0.497c-1.353,0.543-2.615,1.138-4.042,1.479
					c-2,0.479-4.163,0.854-6.224,0.657c-0.877-0.085-2.559-0.29-3.18-1.03c-0.768-0.912,0.524-1.373,1.158-1.82
					C215.617,24.266,217.648,23.772,219.357,23.107z"/>
				<path fill-rule="evenodd" clip-rule="evenodd" fill="#003D72" d="M304.5,6.657c3.875,1.942-0.854,5.111-1.808,7.292
					c-0.923,2.119,4.002,4.192,2.746,5.894c-0.683,0.934-2.803,1.026-3.845,1.377c-2.066,0.695-4.125,1.417-6.136,2.259
					c-2.74,1.149-5.243,2.536-7.324,4.694c-1.594,1.646-2.869,3.547-4.272,5.346c-1.42,1.826-2.571,3.653-3.773,5.625
					c-0.945,1.549-1.926,3.077-2.858,4.635c-0.462,0.764-0.182,2.622-1.003,3.105c-0.964,0.569-4.296-0.939-5.208-1.458
					c-1.249-0.716-0.862-1.583-0.1-2.422c5.511-6.131,6.124-6.335,13.88-17.768c2.099-3.091,4.063-5.956,7.526-7.567
					c2.54-1.184,7.814-3.584,6.247-5.48c-1.078-0.877-2.288-0.792-3.412-0.624c-1.53,0.911-5.469,2.276-5.054-0.006
					C290.917,9.478,297.251,4.924,304.5,6.657z"/>
				<path fill-rule="evenodd" clip-rule="evenodd" fill="#003D72" d="M347.969,10.474c-0.76,1.396-4.989,2.216-6.463,2.885
					c-0.524,0.239,3.234,4.498,3.622,4.822c0.787,0.657,1.631,1.241,2.521,1.748c0.622,0.353,1.942,0.657,2.005,1.512
					c0.139,1.792-1.72,4.456-2.74,5.788c-0.486,0.64-1.466,1.292-1.813,1.984c-0.461,0.908-0.404,5.315,0.135,8.378
					c0.479,2.723-0.199,5.615-0.199,8.37c0,0.828-0.009,1.809-0.99,2.024c-0.862,0.184-1.836-0.484-2.366-1.094
					c-1.21-1.399-1.478-2.456-1.872-4.508c-0.232-1.22-0.425-2.277-1.368-3.13c-0.376-0.345-1.465,1.272-3.225,0.979
					c-1.199-0.614-1.347-1.788-1.63-2.973c-0.258-1.332,0.182-2.277,1.109-3.161c0.44-0.417,1.979-1.727,1.512-2.505
					c-1.539-2.582-7.563,1.323-8.819-2.354c1.484-6.742,12.09-4.37,11.76-12.938c-0.053-1.514-1.713-2.037-2.777-2.683
					c-1.018-0.61-2.567-2.805-1.083-3.838c0.828-0.579,2.405-0.746,3.375-1.065c1.044-0.348,2.082-0.723,3.119-1.079
					c1.475-0.498,3.922-1.516,5.223-0.151C347.437,7.939,348.291,9.877,347.969,10.474z"/>
				<path fill-rule="evenodd" clip-rule="evenodd" fill="#003D72" d="M303.648,23.335c0.517,0.661,0.517,0.366,1.394,1.788
					c0.175,3.51-4.117,1.447-4.935,3.959c0.38,1.168,1.416,2.688,1.709,3.128c0.115,0.169,1.174,0,1.762,0.146
					c1.244,0.074,0.884,0.979,1.101,2.054c-0.117,2.04-2.302,2.355-2.574,4.238c1.902,1.227,6.313-0.042,7.056,2.351
					c-0.277,4.427-6.932,2.475-8.233,5.885c-0.277,2.729,1.208,5.476,3.844,5.768c3.089,0.339,4.083,0.289,8.336,0.105
					c2.962-0.128,3.25-1.939,3.903-3.96c0.292-0.903,0.86-4.196,2.344-2.71c1.735,1.734,2.153,4.556,1.807,6.872
					c-0.432,2.867-2.861,4.104-5.556,4.54c-1.146,0.181-2.292,0.338-3.452,0.374c-2.233,0.075-4.488-0.134-6.676-0.534
					c-3.364-0.613-6.731-1.913-8.903-4.688c-1.285-1.647-2.161-3.764-2.704-5.768c-1.776-0.188-4.571,0.65-4.703-1.182
					c1.028-3.088,6.107-2.127,7.055-5.288c0.276-1.356-0.418-2.922-0.418-2.922s-2.55,0.254-3.079-0.294
					c-0.021-0.575-0.295-1.614-0.295-1.614s3.955-1.646,4.384-3.401c0.249-1.032,0.067-2.059-0.717-2.465
					c-0.609-0.317-1.576,0.789-1.832,0.22c-0.193-0.428-0.816-1.266-0.587-1.54c0.342-0.413,1.319-0.809,1.992-1.113
					c1.055-0.483,2.072-0.852,3.072-1.438C300.079,25.055,303.066,22.583,303.648,23.335z"/>
				<path fill-rule="evenodd" clip-rule="evenodd" fill="#003D72" d="M138.427,13.588c1.499-0.159,4.15,1.504,5.108,2.523
					c2.699,2.869-1.124,5.644-3.611,6.051c-1.939,0.321-5.289,0.063-4.995-2.613C135.123,17.724,139.359,15.436,138.427,13.588z"/>
				<path fill-rule="evenodd" clip-rule="evenodd" fill="#003D72" d="M540.172,34.732c0.227,3.137-4.594,1.405-3.868,6.859
					c-0.038,2.965,10.229,0.059,10.305,3.351c0.153,2.898-5.291,2.224-6.894,3.369c-4.477,3.667-1.494,16.461-6.941,13.855
					c-2.504-1.195-13.349-12.834-10.589-14.164c0.247-0.124,2.833-1.246,3.189-1.408c1.779-0.805,4.621-1.81,6.53-2.494
					c1.841-0.996,0.421-3.978,0.538-5.818c-0.961-1.786-6.668,1.3-6.72-0.809C527.384,33.709,537.65,31.694,540.172,34.732z
					 M524.458,50.66c0.854,3.058,5.61,5.716,7.142,3.865c0.606-0.771,0.514-1.626,1.174-2.942
					C533.642,48.819,526.987,49.353,524.458,50.66z"/>
				<path fill-rule="evenodd" clip-rule="evenodd" fill="#003D72" d="M171.774,4.549c6.845-4.29,14.606,4.542,9.409,10.584
					c-5.546-0.646-8.371,1.427-9.997,4.703c4.15,3.53,12.524-6.74,16.463,0c-2.228,6.859-19.74,6.945-12.349,17.642
					c4.488-1.393,6.821-4.944,10.586-7.058c5.63,1.925,2.351,7.891,1.763,12.937c4.241,1.285,13.052-1.697,13.525,2.941
					c0.6,3.631-3.689,5.545-4.703,5.88c-2.201,0.993-28.095-0.799-20.626,0.046c7.55,0.858-9.75,4.611-10.538-1.223
					c-0.688-5.108,7.138-4.102,11.168-5.881c4.506-1.982,6.344-4.996,7.056-9.406c-5.404-1.636-5.447,8.41-9.994,8.227
					c-6.761-0.266-2.083-10.412-1.174-15.875c-0.928-2.405-5.703-0.96-6.471-3.524C170.072,19.098,178.318,12.364,171.774,4.549z"/>
			</g>
		</g>
	</g>
	<g>
		<g>
			<path fill="#003D72" stroke="#003D72" stroke-width="0.7252" d="M115.777,84.841V73.363h2.868l11.096,9.011v-9.011h2.682v11.478
				h-2.868l-11.098-9.02v9.02H115.777z"/>
			<path fill="#003D72" stroke="#003D72" stroke-width="0.7252" d="M135.547,84.841l6.571-9.297h2.439l7.004,9.297h-2.579
				l-1.998-2.814h-7.154l-1.88,2.814H135.547z M140.484,81.024h5.802L144.5,78.45c-0.545-0.784-0.951-1.428-1.214-1.93
				c-0.217,0.594-0.525,1.188-0.922,1.776L140.484,81.024z"/>
			<path fill="#003D72" stroke="#003D72" stroke-width="0.7252" d="M156.547,84.841v-8.2h-5.637v-1.097h13.564v1.097h-5.662v8.2
				H156.547z"/>
			<path fill="#003D72" stroke="#003D72" stroke-width="0.7252" d="M167.781,84.841v-9.297h2.264v9.297H167.781z"/>
			<path fill="#003D72" stroke="#003D72" stroke-width="0.7252" d="M173.946,80.315c0-1.544,0.763-2.752,2.287-3.627
				c1.526-0.874,3.496-1.31,5.907-1.31c1.58,0,3.004,0.204,4.273,0.616c1.269,0.41,2.236,0.98,2.9,1.714
				c0.666,0.732,0.999,1.566,0.999,2.496c0,0.942-0.351,1.787-1.051,2.531c-0.701,0.745-1.693,1.31-2.978,1.691
				C185,84.808,183.614,85,182.129,85c-1.611,0-3.051-0.211-4.32-0.632c-1.268-0.425-2.229-1.001-2.883-1.733
				C174.272,81.903,173.946,81.131,173.946,80.315z M176.279,80.333c0,1.121,0.555,2.004,1.665,2.648
				c1.109,0.643,2.5,0.965,4.172,0.965c1.706,0,3.107-0.325,4.208-0.976c1.102-0.65,1.652-1.575,1.652-2.772
				c0-0.756-0.236-1.415-0.705-1.98c-0.472-0.564-1.161-1.002-2.066-1.314c-0.908-0.31-1.925-0.465-3.054-0.465
				c-1.602,0-2.981,0.298-4.138,0.897C176.859,77.934,176.279,78.936,176.279,80.333z"/>
			<path fill="#003D72" stroke="#003D72" stroke-width="0.7252" d="M193.804,84.841v-9.297h2.323l8.988,7.3v-7.3h2.171v9.297h-2.323
				l-8.988-7.305v7.305H193.804z"/>
			<path fill="#003D72" stroke="#003D72" stroke-width="0.7252" d="M209.81,84.841l6.572-9.297h2.44l7.004,9.297h-2.58l-1.997-2.814
				h-7.155l-1.879,2.814H209.81z M214.748,81.024h5.801l-1.786-2.574c-0.543-0.784-0.948-1.428-1.213-1.93
				c-0.218,0.594-0.526,1.188-0.923,1.776L214.748,81.024z"/>
			<path fill="#003D72" stroke="#003D72" stroke-width="0.7252" d="M228.14,84.841v-9.297h2.264v8.2h8.428v1.097H228.14z"/>
		</g>
		<g>
			<g>
				<path fill="#003D72" stroke="#003D72" stroke-width="0.7252" d="M249.53,84.841V73.363H262.7v1.356h-10.587v3.552h9.162v1.354
					h-9.162v5.216H249.53z"/>
				<path fill="#003D72" stroke="#003D72" stroke-width="0.7252" d="M265.02,80.315c0-1.544,0.705-2.752,2.114-3.627
					c1.409-0.874,3.228-1.31,5.458-1.31c1.459,0,2.775,0.204,3.947,0.616c1.172,0.41,2.066,0.98,2.681,1.714
					c0.614,0.732,0.921,1.566,0.921,2.496c0,0.942-0.323,1.787-0.971,2.531c-0.647,0.745-1.563,1.31-2.75,1.691
					c-1.187,0.38-2.467,0.572-3.839,0.572c-1.489,0-2.819-0.211-3.991-0.632c-1.172-0.425-2.06-1.001-2.665-1.733
					C265.321,81.903,265.02,81.131,265.02,80.315z M267.177,80.333c0,1.121,0.512,2.004,1.537,2.648
					c1.025,0.643,2.31,0.965,3.856,0.965c1.575,0,2.871-0.325,3.888-0.976c1.019-0.65,1.527-1.575,1.527-2.772
					c0-0.756-0.217-1.415-0.652-1.98c-0.435-0.564-1.072-1.002-1.908-1.314c-0.839-0.31-1.779-0.465-2.821-0.465
					c-1.482,0-2.756,0.298-3.824,0.897C267.71,77.934,267.177,78.936,267.177,80.333z"/>
				<path fill="#003D72" stroke="#003D72" stroke-width="0.7252" d="M282.87,84.841v-9.297h7.012c1.408,0,2.479,0.084,3.213,0.251
					c0.732,0.167,1.317,0.464,1.757,0.884c0.438,0.423,0.659,0.891,0.659,1.401c0,0.661-0.363,1.216-1.089,1.67
					c-0.727,0.451-1.85,0.739-3.366,0.862c0.552,0.155,0.975,0.309,1.262,0.462c0.61,0.329,1.188,0.741,1.737,1.236l2.749,2.53
					h-2.631l-2.092-1.932c-0.612-0.56-1.117-0.987-1.51-1.282c-0.396-0.298-0.751-0.502-1.064-0.625
					c-0.311-0.114-0.63-0.197-0.953-0.246c-0.238-0.027-0.626-0.041-1.166-0.041h-2.426v4.126H282.87z M284.962,79.647h4.497
					c0.958,0,1.705-0.058,2.246-0.175c0.539-0.115,0.949-0.303,1.229-0.557c0.28-0.256,0.42-0.535,0.42-0.836
					c0-0.437-0.271-0.802-0.815-1.082c-0.542-0.286-1.399-0.428-2.572-0.428h-5.005V79.647z"/>
				<path fill="#003D72" stroke="#003D72" stroke-width="0.7252" d="M298.725,84.841v-9.297h3.15l3.742,6.583
					c0.345,0.615,0.597,1.071,0.755,1.376c0.18-0.337,0.459-0.832,0.841-1.488L311,75.544h2.814v9.297h-2.017v-7.782l-4.594,7.782
					h-1.887l-4.574-7.915v7.915H298.725z"/>
				<path fill="#003D72" stroke="#003D72" stroke-width="0.7252" d="M316.554,80.315c0-1.544,0.704-2.752,2.113-3.627
					c1.41-0.874,3.229-1.31,5.459-1.31c1.458,0,2.774,0.204,3.946,0.616c1.172,0.41,2.067,0.98,2.682,1.714
					c0.615,0.732,0.922,1.566,0.922,2.496c0,0.942-0.324,1.787-0.971,2.531c-0.647,0.745-1.563,1.31-2.75,1.691
					c-1.187,0.38-2.466,0.572-3.841,0.572c-1.489,0-2.819-0.211-3.992-0.632c-1.172-0.425-2.058-1.001-2.663-1.733
					C316.856,81.903,316.554,81.131,316.554,80.315z M318.711,80.333c0,1.121,0.512,2.004,1.538,2.648
					c1.024,0.643,2.31,0.965,3.855,0.965c1.575,0,2.871-0.325,3.887-0.976c1.019-0.65,1.527-1.575,1.527-2.772
					c0-0.756-0.216-1.415-0.653-1.98c-0.434-0.564-1.07-1.002-1.908-1.314c-0.837-0.31-1.778-0.465-2.821-0.465
					c-1.479,0-2.756,0.298-3.822,0.897C319.245,77.934,318.711,78.936,318.711,80.333z"/>
				<path fill="#003D72" stroke="#003D72" stroke-width="0.7252" d="M333.659,81.856l1.975-0.104
					c0.094,0.464,0.312,0.847,0.653,1.146c0.341,0.296,0.871,0.537,1.59,0.722c0.717,0.186,1.526,0.276,2.427,0.276
					c0.797,0,1.503-0.07,2.114-0.21c0.611-0.138,1.066-0.332,1.364-0.575c0.299-0.243,0.449-0.507,0.449-0.793
					c0-0.292-0.143-0.546-0.432-0.765c-0.288-0.218-0.762-0.402-1.423-0.552c-0.424-0.096-1.363-0.246-2.815-0.448
					c-1.453-0.208-2.471-0.399-3.052-0.582c-0.757-0.234-1.319-0.522-1.689-0.865c-0.369-0.346-0.556-0.73-0.556-1.159
					c0-0.468,0.228-0.908,0.679-1.317c0.455-0.407,1.116-0.715,1.985-0.927c0.871-0.214,1.837-0.318,2.903-0.318
					c1.171,0,2.203,0.109,3.099,0.333c0.895,0.225,1.583,0.551,2.064,0.98c0.483,0.432,0.741,0.92,0.777,1.463l-2.005,0.089
					c-0.108-0.586-0.474-1.03-1.095-1.33c-0.623-0.301-1.541-0.452-2.756-0.452c-1.266,0-2.188,0.138-2.766,0.411
					c-0.579,0.274-0.869,0.604-0.869,0.985c0,0.335,0.205,0.609,0.615,0.828c0.403,0.213,1.454,0.434,3.155,0.66
					c1.7,0.228,2.869,0.424,3.501,0.593c0.918,0.248,1.6,0.565,2.038,0.948c0.438,0.382,0.657,0.824,0.657,1.321
					c0,0.495-0.241,0.962-0.723,1.399c-0.481,0.438-1.174,0.778-2.076,1.021S341.531,85,340.403,85c-1.432,0-2.63-0.123-3.598-0.368
					c-0.968-0.244-1.727-0.612-2.275-1.106C333.978,83.032,333.689,82.477,333.659,81.856z"/>
				<path fill="#003D72" stroke="#003D72" stroke-width="0.7252" d="M347.371,84.841l6.072-9.297h2.253l6.472,9.297h-2.383
					l-1.845-2.814h-6.611l-1.738,2.814H347.371z M351.933,81.024h5.36l-1.651-2.574c-0.503-0.784-0.876-1.428-1.122-1.93
					c-0.201,0.594-0.484,1.188-0.852,1.776L351.933,81.024z"/>
			</g>
		</g>
		<g>
			<g>
				<path fill="#003D72" stroke="#003D72" stroke-width="0.724" d="M384.829,72.975h2.738v6.786c0,1.182-0.235,2.119-0.705,2.812
					c-0.47,0.695-1.319,1.26-2.547,1.696c-1.227,0.436-2.837,0.652-4.833,0.652c-1.936,0-3.522-0.191-4.753-0.569
					c-1.233-0.379-2.113-0.928-2.638-1.647c-0.527-0.717-0.791-1.7-0.791-2.943v-6.786h2.738v6.779c0,1.021,0.167,1.773,0.501,2.255
					c0.333,0.482,0.907,0.855,1.722,1.119c0.813,0.263,1.807,0.389,2.983,0.389c2.013,0,3.447-0.257,4.305-0.772
					c0.854-0.522,1.281-1.518,1.281-2.99V72.975z"/>
				<path fill="#003D72" stroke="#003D72" stroke-width="0.724" d="M391.637,84.721v-9.298h2.223l8.601,7.302v-7.302h2.076v9.298
					h-2.223l-8.6-7.306v7.306H391.637z"/>
				<path fill="#003D72" stroke="#003D72" stroke-width="0.724" d="M408.548,84.721v-9.298h2.166v9.298H408.548z"/>
				<path fill="#003D72" stroke="#003D72" stroke-width="0.724" d="M419.212,84.721l-6.342-9.298h2.344l4.257,6.757
					c0.343,0.541,0.627,1.049,0.859,1.521c0.252-0.51,0.548-1.015,0.883-1.521l4.422-6.757h2.212l-6.411,9.298H419.212z"/>
				<path fill="#003D72" stroke="#003D72" stroke-width="0.724" d="M429.835,84.721v-9.298h11.838v1.098H432v2.847h9.061v1.091H432
					v3.165h10.053v1.098H429.835z"/>
				<path fill="#003D72" stroke="#003D72" stroke-width="0.724" d="M445.079,84.721v-9.298h7.259c1.46,0,2.571,0.083,3.331,0.251
					c0.757,0.167,1.364,0.461,1.819,0.885c0.453,0.421,0.68,0.891,0.68,1.403c0,0.659-0.376,1.216-1.127,1.664
					c-0.751,0.456-1.915,0.742-3.484,0.865c0.572,0.156,1.01,0.312,1.307,0.461c0.632,0.334,1.231,0.745,1.797,1.238l2.849,2.53
					h-2.725l-2.166-1.936c-0.635-0.557-1.153-0.984-1.563-1.279c-0.41-0.295-0.778-0.506-1.103-0.62
					c-0.323-0.122-0.653-0.204-0.988-0.247c-0.245-0.032-0.648-0.047-1.206-0.047h-2.512v4.129H445.079z M447.247,79.526h4.658
					c0.99,0,1.763-0.06,2.32-0.174c0.559-0.116,0.983-0.303,1.273-0.559c0.292-0.254,0.437-0.534,0.437-0.832
					c0-0.443-0.281-0.801-0.844-1.088c-0.562-0.28-1.449-0.424-2.665-0.424h-5.18V79.526z"/>
				<path fill="#003D72" stroke="#003D72" stroke-width="0.724" d="M460.828,81.732l2.043-0.1c0.096,0.466,0.322,0.847,0.674,1.145
					c0.356,0.3,0.902,0.54,1.649,0.723c0.744,0.183,1.583,0.276,2.515,0.276c0.825,0,1.555-0.071,2.188-0.209
					c0.63-0.141,1.102-0.329,1.412-0.572c0.309-0.243,0.463-0.511,0.463-0.799c0-0.292-0.148-0.547-0.447-0.765
					c-0.296-0.217-0.787-0.4-1.474-0.546c-0.438-0.1-1.41-0.249-2.914-0.456c-1.504-0.204-2.558-0.398-3.162-0.58
					c-0.782-0.233-1.365-0.521-1.747-0.865c-0.383-0.345-0.576-0.731-0.576-1.158c0-0.47,0.233-0.907,0.703-1.314
					c0.471-0.407,1.152-0.718,2.057-0.931c0.9-0.209,1.901-0.315,3.005-0.315c1.214,0,2.285,0.111,3.21,0.331
					c0.929,0.222,1.638,0.55,2.14,0.979c0.498,0.433,0.765,0.922,0.803,1.469l-2.077,0.088c-0.112-0.589-0.488-1.033-1.134-1.333
					c-0.643-0.301-1.595-0.449-2.853-0.449c-1.312,0-2.266,0.136-2.866,0.407c-0.598,0.271-0.899,0.601-0.899,0.987
					c0,0.333,0.214,0.607,0.638,0.822c0.417,0.218,1.508,0.438,3.265,0.664c1.762,0.227,2.971,0.423,3.626,0.595
					c0.953,0.25,1.658,0.566,2.11,0.946c0.456,0.383,0.683,0.823,0.683,1.324c0,0.494-0.25,0.959-0.75,1.397
					c-0.498,0.437-1.216,0.777-2.147,1.02c-0.937,0.243-1.987,0.365-3.156,0.365c-1.482,0-2.725-0.122-3.725-0.367
					c-1-0.244-1.787-0.614-2.356-1.106C461.157,82.914,460.857,82.355,460.828,81.732z"/>
				<path fill="#003D72" stroke="#003D72" stroke-width="0.724" d="M477.191,84.721v-9.298h2.163v9.298H477.191z"/>
				<path fill="#003D72" stroke="#003D72" stroke-width="0.724" d="M487.344,84.721v-8.2h-5.396v-1.098h12.977v1.098h-5.415v8.2
					H487.344z"/>
				<path fill="#003D72" stroke="#003D72" stroke-width="0.724" d="M501.762,84.721v-3.938l-6.312-5.359h2.635l3.229,2.803
					c0.596,0.526,1.151,1.05,1.665,1.573c0.492-0.486,1.085-1.034,1.788-1.643l3.172-2.733h2.521l-6.532,5.359v3.938H501.762z"/>
			</g>
		</g>
	</g>
	<g>
		<polygon fill="#003D72" points="17.965,62.631 0,34.861 12.215,11.184 26.688,11.184 14.559,34.662 25.514,50.822 54.067,50.79 
			65.412,34.19 54.067,11.184 68.092,11.184 79.526,34.861 61.561,62.631 		"/>
		<g>
			<g>
				<path fill="#003D72" d="M52.406,32.396c0-6.683-5.417-12.099-12.099-12.099c-1.944,0-3.76,0.502-5.392,1.319l15.576,17.262
					C51.688,37.005,52.406,34.787,52.406,32.396z"/>
				<path fill="#003D72" d="M28.454,32.151c0,6.68,5.418,12.095,12.098,12.095c1.947,0,3.76-0.503,5.392-1.321L30.369,25.667
					C29.172,27.543,28.454,29.758,28.454,32.151z"/>
			</g>
		</g>
	</g>
	<path fill="#040000" d="M355.799,17.914c0,0-3.521,2.833-1.449,4.44C354.35,22.354,350.747,20.21,355.799,17.914z"/>
</g>
</svg>
