<?xml version="1.0" encoding="utf-8"?>
<!-- Generator: Adobe Illustrator 16.0.0, SVG Export Plug-In . SVG Version: 6.00 Build 0)  -->
<!DOCTYPE svg PUBLIC "-//W3C//DTD SVG 1.1//EN" "http://www.w3.org/Graphics/SVG/1.1/DTD/svg11.dtd">
<svg version="1.1" id="layer_1" xmlns="http://www.w3.org/2000/svg" xmlns:xlink="http://www.w3.org/1999/xlink" x="0px" y="0px"
	 width="300px" height="43px" viewBox="0 0 300 43" enable-background="new 0 0 300 43" xml:space="preserve">
<rect id="di" x="299" fill="#D1D1D1" width="1" height="41.5"/>
<g id="nfu_1_">
	<g>
		<g>
			<g>
				<path fill="#003D72" d="M257.8,15c2,0.2,4.3-0.8,4.601-2.7c-1.301-0.1-0.7,1.6-2.101,1.5c-1.2-2.5-0.8-6.6-2.1-9.1
					c2.8-2.1,2.5,2.9,3.8,4.1c1.1-1.8-0.6-5.3,0.6-6.5c1.2-0.1,1.2,1,1.801,1.5c1.199-0.1,0.699-1.8,1.8-2.1
					c1.1,0.1,1.899,0.4,1.8,1.8c-0.7,0.9-2.1,1-2.1,2.6c0.299,0.8,1.199-0.1,1.799,0c0.201,0.9,0.5,1.7,1.5,1.8
					c1.701-1.3-1.1-2.3-1.5-2.6c0-1.8,1.5-0.5,2.4-1.2c0.2-1-0.4-1.1-0.3-2.1c1-1,2.601-0.4,3.2,0.6c0.2,3.8-1.8,8-0.9,10.6
					c2.801,0.4,6.9-0.4,8.2,1.5c0,2.4-2.899,2.7-4.7,1.8c-0.199-0.9,0.5-0.9,0.301-1.8C268.3,14.4,256.8,15,253,19.4
					c-1-2,3-5.3,4.1-4.7C257.3,14.7,257.5,15,257.8,15z M264.1,8.7c0.4,0.1,0.601,0.4,1.2,0.3c0-0.3,0-0.6,0-0.9
					C264.6,8.1,264.2,8.2,264.1,8.7z M264.1,13.4c0,0,1,0,1.101,0c0.399-0.1,0.6-0.3,0.8-0.6c0.6-0.9,1.3-2.4,0.7-3.5
					C265.4,10.2,264.6,11.7,264.1,13.4z M268.8,12.9c0.7-0.7,0.8-1.9,1.2-2.9c-0.4-0.1-0.6-0.4-1.2-0.3
					C268.5,10.4,267.1,12.7,268.8,12.9z"/>
				<path fill="#003D72" d="M211.5,2c0.6,0.2,0.3,6.6,0.8,6.6c1.9,0,3.4-1.7,4.5-0.1c-0.1,1-0.8,1.6-1.8,2c-0.7,0.3-2.2,0.5-2.7,1.2
					c-0.3,0.5-0.3,1.2-0.399,1.7c-0.2,0.8-0.4,1.7-0.4,2.6c0.9,0,1.8-0.7,2.7-0.7c0.899,0,2.399,0.3,3,2.1c0.6,1.9-3,3-3.4,5
					c1.8,2.199,12.8,2.8,10.8,4.3c-3.699,3-9.6-0.2-12-1c-3.3-0.2-5.3,4.6-7.899,3.2c-0.4-0.301-0.3-0.7,0-1.101
					c0.5-0.7,1.7-1.5,2.3-1.899c0.7-0.5,1.9-1.101,2.3-1.801c0.5-0.899-2-2.6-3.3-4.1c-0.7-0.8-0.3-2-0.7-1.9
					c-0.7,0.3-1.7,0.8-1.899,1.5c-0.2,0.7-0.301,1.5-0.301,2.3c0.101,1.8,0.5,3.6,0.301,5.4c0,0.3-0.4,2.4-1,2.3
					c-0.601-0.1-4.2-4.6-3.2-5.399c0.3-0.3,1.2-0.5,1.5-0.9c0,0-0.101-0.7-0.2-1.3c-0.2,0.1-2.6,2.2-3.5,1.9
					c-0.7-0.2-1.4-0.601-1.7-1.101c-0.899-1.4,1.3-2.1,2.601-2.9c1.3-0.8,2.3-2.2,2.3-2.2s0.2-3.6-0.101-4.4
					c-0.3-0.7-4.8,0.8-5.8-0.5c0-0.8-0.3-1.2,0.2-1.5c1.4-1.1,4.8-1,5.4-2.9c0.199-0.7,0-1.7,0.1-2.4s0-2.2,0.3-2.4
					c0.4-0.3,0.8-0.3,1.3-0.2c0.7,0.1,0.5,1.2,0.601,1.8c0.101,0.6,0.2,1.3,0.2,2c0.1,0.7,0.1,1.3,0.5,1.7c0.3,0.3,1.5,0,1.8,0.1
					c0.5,0.2,0.399,0.7,0.399,1.2c0,0.9-2.3,1.1-2.199,2.3c0.1,0.6-0.2,1.4-0.2,2c1.601,0.8,2.601-1.2,3.8-1.8
					c0-0.4-0.3-1.4-0.1-1.8c0.199-0.3,1-0.6,1.3-0.8c0.3-0.2,0.601-0.5,0.8-0.8c0.301-0.6,0.301-0.9,0.4-1.6
					c0.199-1.1,0.1-2.3,0.3-3.5c0.101-0.8,0-2,0.7-2.5C210.3,1.7,211.4,1.9,211.5,2z M206.2,17.3c1.8,0.1,2.1-1.4,2.399-2.9
					C207,14.6,206.4,15.7,206.2,17.3z M210.7,21.1c1.6,0.3,1.8-0.8,1.7-2.3C209.5,18.3,209.7,20,210.7,21.1z"/>
				<path fill="#003D72" d="M70.3,28.5c-1.3-0.4-2.2-2.8-3.5-2.6c-2.8,1-6,1.3-7.9,0.1c-2.6-1.6-3.5-3.8-3.9-5.9
					c-0.7-3.6-0.7-6-0.6-10.4c0.1-1.7,1.8-5.2,4.1-5.4c1.2,2.5-1.8,3-1.8,5.7c0.1,4.4-0.3,12.4,3.7,14.1c1.4,0.601,1.8-0.1,2.8-0.5
					c2.5-1.399,4.5-3.1,4.4-5.399c-2.2-0.1-4.9,5.8-6.8,4.3c-1.8-1.8-3.8-3.8,0.4-6.3c-0.1-1.3-2.5,0.1-2.7-1.2
					c-0.3-1.7,2.3-2.6,2.5-3.9c0.4-1.7-2.1-0.4-2.2-1.7c1.4-0.8,3.6-1.6,3.7-4.1c0.1-1.5-3.5,0-3.7-1c2.4-2.3,6.6-3.9,9.6-3.1
					c3,0.8,7.5,4.1,7.8,7.9c0.2,3.1,0.2,6.2,0.1,9.4c-0.1,2-0.2,3.1-0.6,4.4C75.5,24,72.6,28.7,70.3,28.5z M73.9,8
					c-0.2-3.6-3.3-5.8-7.1-5.3c-0.9,0.1-1.8,0.7-2.4,1.8c-0.1,0.3,0.6,0.9,0.8,1c0.4,0.3,0.9,0.3,1.3,0.5s0.9,0.5,1,0.9
					c0.1,0.6-0.5,0.6-0.9,0.8c-4.2,2.1,0.2,6.2,2.4,7.8c0.8-0.5-0.3-2.8,1.2-2.6c2.7,0.6-1.9,8,2.4,8.4C73.8,21.4,74.2,12.2,73.9,8z
					 M63.4,17.2c0.7,0,1.8,0.3,2.2-0.3c0.5-0.6,1-2.3-0.3-1.9c-0.5,0.2-1.2,0.4-1.3,0.8C64,15.9,63.4,17.1,63.4,17.2z M65.8,22.9
					c2.1,1.5,3.6,3.3,5.7,0.399C69,20.3,69.5,19.9,65.8,22.9z"/>
				<path fill="#003D72" d="M183.1,2.3c0.301,0.1,0.601,0.4,0.7,0.7c0.2,0.6,0.2,1.4,0.2,2.1c0.1,1.9-0.1,3.8,0,5.6
					c0,0.5,0.1,0.9,0.2,1.4c0,0.2,0.2,1,0.399,1.1c1.601,0.5,2-1,2.9-0.3c0.1,2.8-2.3,3-2.9,5c-0.399,4.3,0.7,8.7,0,12.4
					c-2.5,0.2-1.6-2.899-1.8-4.7c-0.2-2.899-0.5-6.1-1.8-7.6c-2.2,0-4.7,2.5-6.2,0.6c-0.2-1.6,1.9-3.2,2.4-5
					c-0.2-1.2-1.4-2.1-0.601-3.5c0.4,1.8,2.2,2.2,3.801,2.6c-0.601,1.8-3.601,1.1-3.2,3.8c1.1,0.4,2.7-0.2,3.6-0.9
					c1.2-1,0.601-3.2,0.5-4.6c0-0.7,0.2-1.9-0.399-2.3c-0.801-0.5-2.801,0.1-3.4,0.8c-0.3-0.9-1.4-1-1.1-2.7c0.6-1,2.3-0.4,3.6,0.1
					c0.3,0.1,0.6-0.8,0.7-1c0.2-0.4,0.3-0.8,0.399-1.2c0.2-0.7,0.2-1.7,0.9-2.1C182.3,2.2,182.8,2.2,183.1,2.3z"/>
				<path fill="#003D72" d="M238.5,2.9c1,0.5-0.4,4.4,0.3,6c1.3,1.2,4.3,0,4.9,1.3c0.3,3.7-4.8,2.2-5.5,4.5
					c-0.601,2,1.8,4.4,2.899,5.3c3.4,2.7,14,3,12.301,5.3c-1.2,2.2-5,1.601-7.4,1.2c-3.4-0.6-6.7-3.8-9.1-4.7
					C232.8,22.2,229.8,29,226,25.9c-1.9-1.4,8.8-5.7,8.4-9.601c-0.301-2.5-3.2-1.4-4.9-3.3c-1.2-1.8,3.9-1.4,5.3-2.6
					C236.1,7.9,234.5,0.4,238.5,2.9z"/>
				<path fill="#003D72" d="M109.7,11.6c1.9-0.8,4.1-1.2,4.8-2.2c0.6-0.8,0.6-1.9,0.5-2.9c-0.1-1.2-0.3-2.3-0.4-3.5
					c-0.1-0.7-0.1-1.3,0.8-0.9c0.6,0.3,1.5,1.7,1.9,2c0.7,0.5,1,0.2,1.8,0.5c0.3,1.9-1.8,1.5-2.4,2.6c0,0.8-0.1,1.7,0.3,2.1
					c2.6-0.4,7-1.3,7.9,1.5c-0.2,1.3-2.2,0.8-2.6,1.8c-0.9,0-0.4-1.4-0.9-1.8c-0.8-0.1-1.6,0-2.3,0.4c-0.6,0.3-1.5,1-0.8,1.8
					c0.6,0.6,1.8,0.4,2.3,1.1c0.3,1.8-1.8,1.1-1.5,2.9c0.3,0.7,2-0.1,2.4,0.6c0.9,1.1-1.5,1.1-1.5,2.4c1.7,2.3-0.5,6,2.5,6.3
					c1.5,0.101,2.1,0,3.2-0.1c0.6-0.101,0.9-0.2,1.1-0.5c1.4-1.3,0-3.8,1-3.5c1.2,0.3,1.6,2.2,1.4,3.399c-0.3,1.801-1.4,2.7-3.4,2.9
					c-1.6,0.2-3,0.2-4.5-0.1c-0.7-0.2-1.6-0.4-2.1-1c-0.6-0.801-0.4-2.301-0.4-3.2c0-0.2,0.1-3.3,0-3.3c-3.9,0.6-1.2,8.9-6,8.4
					c-0.8,0,1.2-1.899,1.5-3.8c0.4-2.5,0.4-5.6,2.5-6.7c-0.2-1.2-1.4-1.6-2.6-1.8c-2.3,7.5-6.1,11.2-6.5,10.3
					c-0.3-0.2-0.3-0.8-0.3-1.1c0.1-0.5,0.3-0.7,0.7-1.101c3.6-3.5,3.6-5.1,3.7-6.6c0-0.4-0.2-4.2,0.1-4.2c1.2-0.1,1.4,1.3,2.6,1.2
					c1.3-0.1,2-2,1.2-3.2c-0.2-0.4-1.4,0.2-1.6,0.2c-0.7,0.3-1.3,0.6-2,0.7c-1,0.2-2.1,0.4-3.1,0.3c-0.4,0-1.3-0.1-1.6-0.5
					c-0.4-0.5,0.3-0.7,0.6-0.9C107.8,12.1,108.9,11.9,109.7,11.6z"/>
				<path fill="#003D72" d="M152.3,3.3c1.9,1-0.399,2.6-0.899,3.6c-0.5,1.1,2,2.1,1.399,2.9c-0.3,0.5-1.399,0.5-1.9,0.7
					c-1,0.3-2.1,0.7-3.1,1.1c-1.4,0.6-2.6,1.3-3.7,2.3c-0.8,0.8-1.4,1.8-2.1,2.7s-1.3,1.8-1.9,2.8c-0.5,0.8-1,1.5-1.4,2.3
					c-0.2,0.399-0.1,1.3-0.5,1.6c-0.5,0.3-2.1-0.5-2.6-0.7c-0.6-0.399-0.4-0.8,0-1.2c2.8-3.1,3.1-3.2,6.9-8.9c1-1.5,2-3,3.8-3.8
					c1.3-0.6,3.9-1.8,3.1-2.7c-0.5-0.4-1.1-0.4-1.7-0.3c-0.8,0.5-2.7,1.1-2.5,0C145.5,4.7,148.7,2.5,152.3,3.3z"/>
				<path fill="#003D72" d="M174,5.2c-0.4,0.7-2.5,1.1-3.2,1.4c-0.3,0.1,1.601,2.2,1.8,2.4c0.4,0.3,0.801,0.6,1.301,0.9
					c0.3,0.2,1,0.3,1,0.8c0.1,0.9-0.9,2.2-1.4,2.9c-0.2,0.3-0.7,0.6-0.9,1c-0.199,0.5-0.199,2.7,0.101,4.2
					c0.2,1.4-0.101,2.8-0.101,4.2c0,0.4,0,0.9-0.5,1c-0.399,0.1-0.899-0.2-1.199-0.5c-0.601-0.7-0.7-1.2-0.9-2.3
					c-0.1-0.6-0.2-1.1-0.7-1.6c-0.2-0.2-0.7,0.6-1.6,0.5c-0.601-0.3-0.7-0.9-0.8-1.5c-0.101-0.7,0.1-1.1,0.6-1.6
					c0.2-0.2,1-0.9,0.8-1.3c-0.8-1.3-3.8,0.7-4.399-1.2c0.699-3.4,6-2.2,5.899-6.5c0-0.8-0.899-1-1.399-1.3
					c-0.5-0.3-1.301-1.4-0.5-1.9c0.399-0.3,1.199-0.4,1.699-0.5c0.5-0.2,1-0.4,1.601-0.5c0.7-0.2,2-0.8,2.6-0.1
					C173.8,4,174.2,4.9,174,5.2z"/>
				<path fill="#003D72" d="M151.9,11.7c0.3,0.3,0.3,0.2,0.699,0.9c0.101,1.8-2.1,0.7-2.5,2c0.2,0.6,0.7,1.3,0.9,1.6
					c0.1,0.1,0.6,0,0.9,0.1c0.6,0,0.399,0.5,0.6,1c-0.1,1-1.2,1.2-1.3,2.1c1,0.6,3.2,0,3.5,1.2c-0.101,2.2-3.5,1.2-4.1,2.9
					c-0.1,1.4,0.6,2.7,1.9,2.9c1.5,0.199,2,0.1,4.2,0.1c1.5-0.1,1.6-1,2-2c0.1-0.5,0.399-2.1,1.2-1.4C160.8,24,161,25.4,160.8,26.5
					c-0.2,1.4-1.399,2.1-2.8,2.3c-0.6,0.101-1.1,0.2-1.7,0.2c-1.1,0-2.2-0.1-3.3-0.3c-1.7-0.3-3.4-1-4.5-2.3
					c-0.6-0.801-1.1-1.9-1.4-2.9c-0.9-0.1-2.3,0.3-2.4-0.6c0.5-1.5,3.1-1.101,3.5-2.601c0.1-0.7-0.2-1.5-0.2-1.5s-1.3,0.1-1.5-0.1
					c0-0.3-0.1-0.8-0.1-0.8s2-0.8,2.2-1.7c0.1-0.5,0-1-0.4-1.2c-0.3-0.2-0.8,0.4-0.9,0.1c-0.1-0.2-0.4-0.6-0.3-0.8
					c0.2-0.2,0.7-0.4,1-0.6c0.5-0.2,1-0.4,1.5-0.7C150.1,12.5,151.6,11.3,151.9,11.7z"/>
				<path fill="#003D72" d="M69.2,6.8c0.7-0.1,2.1,0.8,2.6,1.3c1.3,1.4-0.6,2.8-1.8,3c-1,0.2-2.6,0-2.5-1.3
					C67.6,8.9,69.7,7.7,69.2,6.8z"/>
				<path fill="#003D72" d="M270.2,17.4c0.1,1.6-2.3,0.7-1.9,3.4c0,1.5,5.101,0,5.2,1.7c0.1,1.4-2.6,1.1-3.4,1.7
					c-2.199,1.8-0.699,8.2-3.5,6.899c-1.3-0.6-6.699-6.399-5.3-7.1c0.101-0.1,1.4-0.6,1.601-0.7c0.899-0.399,2.3-0.899,3.3-1.2
					c0.899-0.5,0.2-2,0.3-2.899c-0.5-0.9-3.3,0.7-3.4-0.4C263.8,16.9,268.9,15.9,270.2,17.4z M262.3,25.3c0.4,1.5,2.8,2.9,3.601,1.9
					c0.3-0.4,0.3-0.8,0.6-1.5C266.9,24.4,263.6,24.7,262.3,25.3z"/>
				<path fill="#003D72" d="M85.9,2.3c3.4-2.1,7.3,2.3,4.7,5.3c-2.8-0.3-4.2,0.7-5,2.4c2.1,1.8,6.3-3.4,8.2,0
					c-1.1,3.4-9.9,3.5-6.2,8.8c2.2-0.7,3.4-2.5,5.3-3.5c2.8,1,1.2,3.9,0.9,6.5c2.1,0.601,6.5-0.8,6.8,1.5c0.3,1.8-1.8,2.8-2.4,2.9
					c-1.1,0.5-14.1-0.4-10.3,0c3.8,0.399-4.9,2.3-5.3-0.601c-0.3-2.6,3.6-2.1,5.6-2.899c2.3-1,3.2-2.5,3.5-4.7
					c-2.7-0.8-2.7,4.2-5,4.1c-3.4-0.1-1-5.2-0.6-7.899c-0.5-1.2-2.9-0.5-3.2-1.8C85.1,9.6,89.2,6.2,85.9,2.3z"/>
			</g>
		</g>
	</g>
	<g>
		<g>
			<path fill="#003D72" stroke="#003D72" stroke-width="0.3627" d="M57.9,42.4v-5.7h1.4l5.5,4.5v-4.5h1.3v5.7h-1.4l-5.6-4.5v4.5
				H57.9z"/>
			<path fill="#003D72" stroke="#003D72" stroke-width="0.3627" d="M67.8,42.4l3.3-4.601h1.2l3.5,4.601h-1.3l-1-1.4h-3.6L69,42.4
				H67.8z M70.3,40.5h2.9l-0.9-1.3c-0.3-0.4-0.5-0.7-0.6-1c-0.1,0.3-0.3,0.6-0.5,0.899L70.3,40.5z"/>
			<path fill="#003D72" stroke="#003D72" stroke-width="0.3627" d="M78.3,42.4V38.3h-2.8v-0.5h6.8v0.5h-2.8V42.4H78.3z"/>
			<path fill="#003D72" stroke="#003D72" stroke-width="0.3627" d="M83.9,42.4V37.8H85V42.4H83.9z"/>
			<path fill="#003D72" stroke="#003D72" stroke-width="0.3627" d="M87,40.2c0-0.8,0.4-1.4,1.1-1.8c0.8-0.4,1.7-0.7,3-0.7
				c0.8,0,1.5,0.1,2.1,0.3c0.6,0.2,1.1,0.5,1.5,0.9c0.3,0.399,0.5,0.8,0.5,1.199c0,0.5-0.2,0.9-0.5,1.301
				c-0.4,0.399-0.8,0.699-1.5,0.8c-0.6,0.2-1.3,0.3-2.1,0.3c-0.8,0-1.5-0.1-2.2-0.3c-0.6-0.2-1.1-0.5-1.4-0.9
				C87.2,41,87,40.6,87,40.2z M88.2,40.2c0,0.6,0.3,1,0.8,1.3c0.6,0.3,1.3,0.5,2.1,0.5c0.9,0,1.6-0.2,2.1-0.5
				c0.6-0.3,0.8-0.8,0.8-1.4c0-0.399-0.1-0.699-0.4-1c-0.2-0.3-0.6-0.5-1-0.699c-0.5-0.2-1-0.2-1.5-0.2c-0.8,0-1.5,0.1-2.1,0.399
				C88.5,39,88.2,39.5,88.2,40.2z"/>
			<path fill="#003D72" stroke="#003D72" stroke-width="0.3627" d="M96.9,42.4V37.8h1.2l4.5,3.7v-3.7h1.1V42.4h-1.2L98,38.8v3.7
				h-1.1V42.4z"/>
			<path fill="#003D72" stroke="#003D72" stroke-width="0.3627" d="M104.9,42.4l3.3-4.601h1.2l3.5,4.601h-1.3l-1-1.4H107l-0.9,1.4
				H104.9z M107.4,40.5h2.9l-0.9-1.3c-0.3-0.4-0.5-0.7-0.6-1c-0.1,0.3-0.3,0.6-0.5,0.899L107.4,40.5z"/>
			<path fill="#003D72" stroke="#003D72" stroke-width="0.3627" d="M114.1,42.4V37.8h1.1V41.9h4.2v0.5H114.1z"/>
		</g>
		<g>
			<g>
				<path fill="#003D72" stroke="#003D72" stroke-width="0.3627" d="M124.8,42.4v-5.7h6.6v0.7h-5.3v1.8h4.6v0.7h-4.6v2.6h-1.3V42.4z
					"/>
				<path fill="#003D72" stroke="#003D72" stroke-width="0.3627" d="M132.5,40.2c0-0.8,0.4-1.4,1.1-1.8c0.7-0.4,1.6-0.7,2.7-0.7
					c0.7,0,1.4,0.1,2,0.3c0.6,0.2,1,0.5,1.3,0.9c0.3,0.399,0.5,0.8,0.5,1.199c0,0.5-0.2,0.9-0.5,1.301c-0.3,0.399-0.8,0.699-1.4,0.8
					c-0.6,0.2-1.2,0.3-1.9,0.3c-0.7,0-1.4-0.1-2-0.3c-0.6-0.2-1-0.5-1.3-0.9C132.7,41,132.5,40.6,132.5,40.2z M133.6,40.2
					c0,0.6,0.3,1,0.8,1.3s1.2,0.5,1.9,0.5c0.8,0,1.4-0.2,1.9-0.5s0.8-0.8,0.8-1.4c0-0.399-0.1-0.699-0.3-1c-0.2-0.3-0.5-0.5-1-0.699
					c-0.4-0.2-0.9-0.2-1.4-0.2c-0.7,0-1.4,0.1-1.9,0.399C133.9,39,133.6,39.5,133.6,40.2z"/>
				<path fill="#003D72" stroke="#003D72" stroke-width="0.3627" d="M141.5,42.4V37.8h3.5c0.7,0,1.2,0,1.6,0.101
					c0.4,0.1,0.7,0.199,0.9,0.399s0.3,0.4,0.3,0.7s-0.2,0.6-0.5,0.8c-0.4,0.2-0.9,0.4-1.7,0.4c0.3,0.1,0.5,0.2,0.6,0.2
					c0.3,0.199,0.6,0.399,0.9,0.6l1.4,1.3h-1.3l-1-1c-0.3-0.3-0.6-0.5-0.8-0.6c-0.2-0.101-0.4-0.3-0.5-0.3
					c-0.2-0.101-0.3-0.101-0.5-0.101c-0.1,0-0.3,0-0.6,0h-1.2V42.4H141.5z M142.5,39.8h2.2c0.5,0,0.9,0,1.1-0.1
					c0.3-0.101,0.5-0.2,0.6-0.3c0.1-0.101,0.2-0.301,0.2-0.4c0-0.2-0.1-0.4-0.4-0.5c-0.3-0.1-0.7-0.2-1.3-0.2h-2.5v1.5H142.5z"/>
				<path fill="#003D72" stroke="#003D72" stroke-width="0.3627" d="M149.4,42.4V37.8h1.6l1.9,3.3c0.199,0.301,0.3,0.5,0.399,0.7
					c0.101-0.2,0.2-0.399,0.4-0.7L155.6,37.9h1.4v4.6h-1v-3.9l-2.3,3.9h-0.9l-2.3-4v4h-1.1V42.4z"/>
				<path fill="#003D72" stroke="#003D72" stroke-width="0.3627" d="M158.3,40.2c0-0.8,0.4-1.4,1.101-1.8
					c0.699-0.4,1.6-0.7,2.699-0.7c0.7,0,1.4,0.1,2,0.3c0.601,0.2,1,0.5,1.301,0.9c0.3,0.399,0.5,0.8,0.5,1.199
					c0,0.5-0.2,0.9-0.5,1.301C165.1,41.8,164.6,42.1,164,42.2c-0.6,0.2-1.2,0.3-1.9,0.3c-0.699,0-1.399-0.1-2-0.3
					c-0.6-0.2-1-0.5-1.3-0.9C158.5,41,158.3,40.6,158.3,40.2z M159.4,40.2c0,0.6,0.3,1,0.8,1.3s1.2,0.5,1.899,0.5
					c0.801,0,1.4-0.2,1.9-0.5s0.8-0.8,0.8-1.4c0-0.399-0.1-0.699-0.3-1c-0.2-0.3-0.5-0.5-1-0.699c-0.4-0.2-0.9-0.2-1.4-0.2
					c-0.699,0-1.399,0.1-1.899,0.399C159.7,39,159.4,39.5,159.4,40.2z"/>
				<path fill="#003D72" stroke="#003D72" stroke-width="0.3627" d="M166.9,40.9l1-0.101c0,0.2,0.199,0.4,0.3,0.601
					c0.2,0.1,0.399,0.3,0.8,0.399c0.4,0.101,0.8,0.101,1.2,0.101c0.399,0,0.8,0,1.1-0.101c0.3-0.1,0.5-0.2,0.7-0.3
					c0.1-0.1,0.2-0.3,0.2-0.4c0-0.1-0.101-0.3-0.2-0.399c-0.1-0.101-0.4-0.2-0.7-0.3c-0.2,0-0.7-0.101-1.399-0.2
					c-0.7-0.101-1.2-0.2-1.5-0.3c-0.4-0.101-0.7-0.301-0.801-0.4c-0.199-0.2-0.3-0.4-0.3-0.6c0-0.2,0.101-0.5,0.3-0.7
					c0.2-0.2,0.601-0.4,1-0.5c0.4-0.101,0.9-0.2,1.5-0.2c0.601,0,1.101,0.1,1.601,0.2c0.399,0.1,0.8,0.3,1,0.5s0.399,0.5,0.399,0.7
					h-1c-0.1-0.301-0.199-0.5-0.5-0.7c-0.3-0.2-0.8-0.2-1.399-0.2c-0.601,0-1.101,0.1-1.4,0.2c-0.3,0.1-0.399,0.3-0.399,0.5
					s0.1,0.3,0.3,0.399c0.2,0.101,0.7,0.2,1.6,0.301c0.9,0.1,1.4,0.199,1.8,0.3c0.5,0.1,0.801,0.3,1,0.5
					c0.2,0.2,0.301,0.399,0.301,0.7c0,0.199-0.101,0.5-0.4,0.699c-0.2,0.2-0.6,0.4-1,0.5c-0.5,0.101-1,0.2-1.5,0.2
					c-0.7,0-1.3-0.1-1.8-0.2c-0.5-0.1-0.9-0.3-1.101-0.6C167,41.5,166.9,41.2,166.9,40.9z"/>
				<path fill="#003D72" stroke="#003D72" stroke-width="0.3627" d="M173.7,42.4l3-4.601h1.1L181,42.4h-1.2L179,41h-3.3l-0.9,1.4
					H173.7z M176,40.5h2.7l-0.8-1.3c-0.301-0.4-0.4-0.7-0.601-1c-0.1,0.3-0.2,0.6-0.399,0.899L176,40.5z"/>
			</g>
		</g>
		<g>
			<g>
				<path fill="#003D72" stroke="#003D72" stroke-width="0.3621" d="M192.5,36.5h1.4v3.4c0,0.6-0.101,1.1-0.4,1.399
					c-0.2,0.3-0.7,0.601-1.3,0.8c-0.601,0.2-1.4,0.301-2.4,0.301S188,42.3,187.4,42.1c-0.601-0.199-1.101-0.5-1.301-0.8
					c-0.3-0.399-0.399-0.899-0.399-1.5V36.4h1.399V39.8c0,0.5,0.101,0.9,0.301,1.101c0.199,0.199,0.5,0.399,0.899,0.6
					c0.4,0.1,0.9,0.2,1.5,0.2c1,0,1.7-0.101,2.2-0.4c0.4-0.3,0.6-0.8,0.6-1.5v-3.3H192.5z"/>
				<path fill="#003D72" stroke="#003D72" stroke-width="0.3621" d="M195.9,42.4v-4.7h1.1l4.3,3.7v-3.7h1v4.7h-1.1l-4.3-3.7v3.7
					H195.9z"/>
				<path fill="#003D72" stroke="#003D72" stroke-width="0.3621" d="M204.3,42.4v-4.7h1.101v4.7H204.3z"/>
				<path fill="#003D72" stroke="#003D72" stroke-width="0.3621" d="M209.7,42.4l-3.2-4.7h1.2l2.1,3.399
					c0.2,0.301,0.3,0.5,0.4,0.801c0.1-0.301,0.3-0.5,0.399-0.801l2.2-3.399h1.101l-3.2,4.7H209.7z"/>
				<path fill="#003D72" stroke="#003D72" stroke-width="0.3621" d="M215,42.4v-4.7h5.9v0.5H216.1V39.6h4.5v0.5h-4.5V41.7h5v0.5H215
					V42.4z"/>
				<path fill="#003D72" stroke="#003D72" stroke-width="0.3621" d="M222.6,42.4v-4.7h3.601c0.7,0,1.3,0,1.7,0.1
					C228.3,37.9,228.6,38,228.8,38.2s0.3,0.399,0.3,0.7c0,0.3-0.199,0.6-0.6,0.8s-1,0.399-1.7,0.399c0.3,0.101,0.5,0.2,0.7,0.2
					c0.3,0.2,0.6,0.4,0.9,0.601l1.399,1.3H228.4l-1.101-1c-0.3-0.3-0.6-0.5-0.8-0.601c-0.2-0.1-0.4-0.3-0.6-0.3
					c-0.2-0.1-0.301-0.1-0.5-0.1c-0.101,0-0.301,0-0.601,0h-1.3v2.1h-0.9V42.4z M223.7,39.8h2.3c0.5,0,0.9,0,1.2-0.1
					c0.3-0.101,0.5-0.2,0.6-0.3C227.9,39.3,228,39.1,228,39c0-0.2-0.1-0.4-0.4-0.5c-0.3-0.1-0.699-0.2-1.3-0.2h-2.6V39.8z"/>
				<path fill="#003D72" stroke="#003D72" stroke-width="0.3621" d="M230.5,40.9h1c0,0.199,0.2,0.399,0.3,0.6
					c0.2,0.1,0.5,0.3,0.8,0.4C233,42,233.4,42,233.9,42c0.399,0,0.8,0,1.1-0.1c0.3-0.101,0.6-0.2,0.7-0.301
					c0.2-0.1,0.2-0.3,0.2-0.399c0-0.101-0.101-0.3-0.2-0.4c-0.101-0.1-0.4-0.2-0.7-0.3c-0.2,0-0.7-0.1-1.5-0.2
					c-0.8-0.1-1.3-0.2-1.6-0.3c-0.4-0.1-0.7-0.3-0.9-0.4c-0.2-0.199-0.3-0.399-0.3-0.6s0.1-0.5,0.399-0.7c0.2-0.2,0.601-0.399,1-0.5
					c0.5-0.1,1-0.2,1.5-0.2c0.601,0,1.101,0.101,1.601,0.2c0.5,0.101,0.8,0.3,1.1,0.5c0.2,0.2,0.4,0.5,0.4,0.7h-1
					c-0.101-0.3-0.2-0.5-0.601-0.7c-0.3-0.2-0.8-0.2-1.399-0.2c-0.7,0-1.101,0.101-1.4,0.2c-0.3,0.101-0.399,0.3-0.399,0.5
					s0.1,0.3,0.3,0.4c0.2,0.1,0.8,0.2,1.6,0.3c0.9,0.1,1.5,0.2,1.8,0.3c0.5,0.101,0.801,0.3,1.101,0.5c0.2,0.2,0.3,0.4,0.3,0.7
					c0,0.2-0.1,0.5-0.4,0.7c-0.199,0.2-0.6,0.399-1.1,0.5c-0.5,0.1-1,0.2-1.6,0.2c-0.7,0-1.4-0.101-1.9-0.2
					c-0.5-0.101-0.9-0.3-1.2-0.601C230.6,41.5,230.5,41.2,230.5,40.9z"/>
				<path fill="#003D72" stroke="#003D72" stroke-width="0.3621" d="M238.7,42.4v-4.7h1.1v4.7H238.7z"/>
				<path fill="#003D72" stroke="#003D72" stroke-width="0.3621" d="M243.7,42.4V38.3H241v-0.5h6.5v0.5h-2.7V42.4H243.7z"/>
				<path fill="#003D72" stroke="#003D72" stroke-width="0.3621" d="M250.9,42.4v-2l-3.2-2.7h1.3l1.6,1.399
					C250.9,39.4,251.2,39.6,251.4,39.9c0.199-0.2,0.5-0.5,0.899-0.801L253.9,37.7h1.3l-3.3,2.7v2H250.9z"/>
			</g>
		</g>
	</g>
	<g>
		<polygon fill="#003D72" points="9,31.3 0,17.4 6.1,5.6 13.3,5.6 7.3,17.3 12.8,25.4 27,25.4 32.7,17.1 27,5.6 34.1,5.6 39.8,17.4 
			30.8,31.3 		"/>
		<g>
			<g>
				<path fill="#003D72" d="M26.2,16.2c0-3.3-2.7-6.1-6.1-6.1c-1,0-1.9,0.3-2.7,0.7l7.8,8.6C25.9,18.5,26.2,17.4,26.2,16.2z"/>
				<path fill="#003D72" d="M14.2,16.1c0,3.3,2.7,6,6.1,6c1,0,1.9-0.3,2.7-0.7l-7.8-8.6C14.6,13.8,14.2,14.9,14.2,16.1z"/>
			</g>
		</g>
	</g>
	<path fill="#040000" d="M177.9,9c0,0-1.801,1.4-0.7,2.2C177.2,11.2,175.4,10.1,177.9,9z"/>
</g>
</svg>
