<?xml version="1.0" encoding="utf-8"?>
<!-- Generator: Adobe Illustrator 16.0.0, SVG Export Plug-In . SVG Version: 6.00 Build 0)  -->
<!DOCTYPE svg PUBLIC "-//W3C//DTD SVG 1.1//EN" "http://www.w3.org/Graphics/SVG/1.1/DTD/svg11.dtd">
<svg version="1.1" id="layer_1" xmlns="http://www.w3.org/2000/svg" xmlns:xlink="http://www.w3.org/1999/xlink" x="0px" y="0px"
	 width="87px" height="43px" viewBox="0 0 87 43" enable-background="new 0 0 87 43" xml:space="preserve">
<g id="cm">
	<path fill="#3F3F3F" d="M23.6,17h-5.5v-0.9h2.4c-0.2-0.5-0.5-1-0.8-1.6l0.8-0.4c0.4,0.6,0.7,1.3,1,2h2.1V17z M23.3,19.4h-4.7v-0.9
		h4.7V19.4z M23.3,22.1h-4.7V21.2h4.7V22.1z M23.1,29.5H22.2v-0.9H19.6V29.9H18.7v-6H23.1V29.5z M22.2,27.7v-2.8H19.6v2.8H22.2z
		 M33.8,28.4L33.2,29.1c-2-1.6-3.3-3.1-4-4.8V29.9h-0.9V24.3C27.4,26,26,27.6,24.2,29.1L23.6,28.4c2-1.7,3.4-3.301,4.2-4.9H24v-0.9
		h4.3v-1.5h-3.6v-6.5h8.2v6.5h-3.7v1.5h4.3v0.9h-3.8C30.5,25.2,31.8,26.8,33.8,28.4z M28.3,17.4v-1.9h-2.7v1.9H28.3z M28.3,20.2
		v-1.9h-2.7v1.9H28.3z M32,17.4v-1.9h-2.8v1.9H32z M32,20.2v-1.9h-2.8v1.9H32z"/>
	<path fill="#3F3F3F" d="M42.2,23.1l-0.7,0.7c-0.4-0.8-0.9-1.6-1.5-2.3v8.3h-0.9v-8.4c-0.8,1.9-1.699,3.4-2.399,4.4L36.1,25.1
		c1.2-1.6,2.2-3.6,3-5.8H36.2v-0.9h3V16L37,16.4l-0.5-0.9c2.1-0.2,3.8-0.7,5.2-1.2l0.6,0.8c-0.899,0.3-1.6,0.5-2.1,0.7v2.9h2.1v0.9
		H40v0.7C41.1,21.5,41.8,22.4,42.2,23.1z M51.7,29.5H41.6v-0.9H46.2v-2.8h-4V25h4v-2.6C44.3,22.5,43.1,22.6,42.6,22.6L42.2,21.7
		c3.3-0.1,6.2-0.4,8.6-0.9l0.601,0.8c-1.2,0.3-2.601,0.5-4.2,0.8V25H51.1v0.9H47.2v2.8h4.6v0.8H51.7z M50.6,19.6H42.9v-4.9H50.6
		V19.6z M49.6,18.7v-3.1h-5.8v3.1H49.6z"/>
	<path fill="#3F3F3F" d="M59.4,26.3c-1.801,1-3.5,1.7-5.101,2.3L54,27.7c0.7-0.2,1.5-0.5,2.3-0.9v-7.1h-2.1v-0.9h2.1v-4.3h0.9v4.3h2
		v0.9h-2v6.7c1-0.5,1.7-0.801,2-1L59.4,26.3z M69.8,26.5c-0.1,1.2-0.2,2-0.5,2.4C69,29.3,68.7,29.6,68.4,29.6
		c-0.301,0-1.2,0.101-2.9,0.101c-2.2,0-3.5,0-3.9-0.101C61.2,29.5,60.9,29.4,60.7,29.2c-0.2-0.3-0.3-0.601-0.3-0.9V21L58.8,21.5
		l-0.1-0.9l1.7-0.6v-3.7H61.3v3.5l2.8-1v-4.5H65v4.2l3.9-1.4c0,2.4-0.301,4.9-0.9,7.6l-0.9-0.3c0.5-2.2,0.801-4.2,0.9-6.101l-3,1v7
		h-0.9v-6.7l-2.8,1v7.7c0,0.101,0,0.101,0.101,0.2c0.1,0.1,0.1,0.1,0.199,0.2c0.101,0,0.4,0,1.101,0.1c0.7,0,1.3,0,2,0
		c2,0,3.2-0.1,3.5-0.2c0.3-0.1,0.5-0.899,0.7-2.399L69.8,26.5z"/>
	<path fill="#3F3F3F" d="M87,29.9h-0.9v-1.2H73.8v1.2h-1V14.8H87V29.9z M86.1,27.9V15.6H73.8v12.3H86.1z M85.1,20.8H74.7V20h4.8
		v-0.9h-3.7v-2.5h8.3v2.5h-3.6V20h4.7v0.8H85.1z M84.3,27h-8.8v-5.3h8.8V27z M83.4,26.2v-3.9h-7v3.9H83.4z M83.2,18.4v-1h-6.5v1
		H83.2z M82,25.4h-4.2V23.1H82V25.4z M81.2,24.7v-0.9h-2.5v0.9H81.2z"/>
</g>
</svg>
