<?xml version="1.0" encoding="utf-8"?>
<!-- Generator: Adobe Illustrator 16.0.0, SVG Export Plug-In . SVG Version: 6.00 Build 0)  -->
<!DOCTYPE svg PUBLIC "-//W3C//DTD SVG 1.1//EN" "http://www.w3.org/Graphics/SVG/1.1/DTD/svg11.dtd">
<svg version="1.1" id="圖層_1" xmlns="http://www.w3.org/2000/svg" xmlns:xlink="http://www.w3.org/1999/xlink" x="0px" y="0px"
	 width="1600px" height="189px" viewBox="0 0 1600 189" enable-background="new 0 0 1600 189" xml:space="preserve">
<linearGradient id="SVGID_1_" gradientUnits="userSpaceOnUse" x1="41.9199" y1="-217.3203" x2="41.9199" y2="-406.3208" gradientTransform="matrix(1 0 0 -1 758.0801 -217.3203)">
	<stop  offset="0" style="stop-color:#36383B;stop-opacity:0"/>
	<stop  offset="0.9" style="stop-color:#27292B"/>
</linearGradient>
<path fill="url(#SVGID_1_)" d="M1600,0H0v104h5l1-18l5-1l3-2l4-5l9,1l8-10l8-1l1,8h17l4,2l5,1l1,5h11l5-7l6,3l1,12h22l3,2l2-8v8l8,4
	l8-3l1-5l4-1l6,11l3-1l4-9h7v-6l7-1l4,2v5h7v-5h2v5h6v-4h10l1-11l1,5l11,1l4,8h7l1-3l2-3h5v54h29l6-10l5-1l2-4l56,1v2l3,4h7l7-5
	l36,1v4l2,2l12,1v8l10,1v3h5v-2l12-1l1,2v15l5,1v17h2l1-17h2l2,4l4-2v-2h11l8-2v-17l3-2v-2l-3-1v-1h19l4-2v-5l41,1l1,5h9l4-5l3,6h6
	l2-6l52,1v13l-4,1l1,4l32-1l2-13l2-35l3-4h9l5-3l1-13l2-6l1,1l1,11l6,1l1-9h5l2,8h8l6-6l2,3l12-8v81l-3,10l8,1l2,14h5l-2-6l4-10h8
	l3,19l5-11l1-8l9,1l5,3l-1,9l3,1v11h9l2,1l2-1l-1-2v-9l2-1v-12l5-4l1,11h16l2,2l-2,5l4,1l2,10l3-9l3-1l4,7l3,3h2l5-10h12l2-2l-2-5h9
	v5l2,1l1,11h11l1-3v-8h2v-11l8-3h41l1-5l-3-8l1-81l6-3l1,4l12-1h7l5,3l5-4l4,2l7-2v5l3,3l1,9l2,3l65-1v17l3,1l2,10l2-6l2-3h31V94h7
	l2-5h7l-1,14h3V88l21-1l-1,16h3V88h38l5-7l1,3l6,1v8l-12,31l11,4l-1,26l14,12h-1l2,6l3,11l7,6l8-1l3-2h21l3,3h9l4-7l2-7l41-1v-7
	l69-4l11,10l9-7l4-2l10,9l6-6h6v6h2v-6l43-1v-6l20-2l2-5l9-5l3-11h8l3-15l-5-6v-3l11,5l5-3l-1,7v10l5-5v17h2v-17l6,4l-1-9l-3-4l-1-3
	l3,2l2-3l2,3l2-2l2-11l-3-5v-4l3,1l5,3l4-5l-3-8l10,5l18-9v-4h11l1,11l66-1V0z"/>
</svg>
