<?xml version="1.0" encoding="utf-8"?>
<!-- Generator: $$$/GeneralStr/196=Adobe Illustrator 27.6.0, SVG Export Plug-In . SVG Version: 6.00 Build 0)  -->
<svg version="1.1" id="logo" xmlns="http://www.w3.org/2000/svg" xmlns:xlink="http://www.w3.org/1999/xlink" x="0px" y="0px"
	 viewBox="0 0 512 512" style="enable-background:new 0 0 512 512;" xml:space="preserve">
<style type="text/css">
	.st0{fill:url(#SVGID_1_);}
	.st1{fill:url(#SVGID_00000096738587052859630650000012502694154055493005_);}
	.st2{fill:url(#SVGID_00000098208780417617330340000003308264657872569225_);}
	.st3{fill:url(#SVGID_00000083794414118650134860000002809258316923796629_);}
	.st4{fill:url(#SVGID_00000074433115041614199240000016807428071694473908_);}
	.st5{fill:url(#SVGID_00000025422009791679646450000006421281697915485606_);}
	.st6{fill:url(#SVGID_00000078010211389684302280000010981261631043784346_);}
	.st7{fill:url(#SVGID_00000016796089829799380440000006690129036817584571_);}
	.st8{fill:url(#SVGID_00000066508283355771047770000010234062658178463109_);}
	.st9{fill:url(#SVGID_00000080190006827735078210000010173327941609373872_);}
	.st10{fill:url(#SVGID_00000030477650622131782670000010943723296330995891_);}
	.st11{fill:url(#SVGID_00000174593138844029188470000004091011523259633840_);}
	.st12{fill:url(#SVGID_00000013912654394067506430000005416245634182547840_);}
	.st13{fill:url(#SVGID_00000033327452623916138220000003189298456127910322_);}
	.st14{fill:url(#SVGID_00000158711360891176653580000003942881456425426084_);}
	.st15{fill:url(#SVGID_00000167390398231551580530000015822372459694039185_);}
	.st16{fill:url(#SVGID_00000041292607542812623170000000470655872922477952_);}
	.st17{fill:url(#SVGID_00000023271487546431110740000005323271086221231278_);}
	.st18{fill:url(#SVGID_00000052105968107774739400000016345930742465412993_);}
	.st19{fill:#FFFFFF;}
	.st20{fill:#58B2DC;}
</style>
<rect x="0" y="-0.2" width="512" height="512.2"/>
<g>
	<g>
		
			<linearGradient id="SVGID_1_" gradientUnits="userSpaceOnUse" x1="275.4556" y1="1585.0907" x2="323.3384" y2="1585.0907" gradientTransform="matrix(0.9481 0.3181 -0.3181 0.9481 572.9067 -1378.6696)">
			<stop  offset="0" style="stop-color:#58B2DC"/>
			<stop  offset="1" style="stop-color:#000000"/>
		</linearGradient>
		<path class="st0" d="M312.8,413.1l-4.1,0.3l-6.6-88.7l-0.8-11.2c0-1.4-0.1-2.9-0.1-4.3l0-1.1c0-0.3,0-0.7,0-1l0.1-2l0.1-2
			c0-0.7,0.1-1.3,0.2-2c0.2-1.3,0.3-2.7,0.5-4c0.9-5.3,2.3-10.4,4.1-15.4c0.5-1.2,1-2.5,1.5-3.7c0.5-1.2,1.1-2.4,1.7-3.6
			c0.3-0.6,0.6-1.2,0.9-1.8l1-1.7c0.7-1.2,1.3-2.3,2-3.4c0.7-1.1,1.5-2.2,2.2-3.3c0.8-1.1,1.6-2.1,2.4-3.2c0.8-1.1,1.7-2.1,2.5-3.1
			c0.9-1,1.7-2,2.7-3c3.6-3.9,7.8-7.4,12.1-10.4l3.1-2.1c0.4-0.3,0.9-0.5,1.3-0.9c0.4-0.3,0.8-0.6,1.2-0.9l0.6-0.5l0.6-0.5
			c1.5-1.4,3-2.9,4.2-4.5c1.2-1.6,2.3-3.4,3.2-5.2c0.2-0.5,0.4-0.9,0.6-1.4c0.2-0.5,0.4-0.9,0.6-1.4l0.3-0.7l0.1-0.2l0.1-0.3
			l0.2-0.7l0.9-2.6l7-21l13.9-42.1l41.7-127.8l3.9,1.3L377,160.5l-13.9,42.1l-7,21l-0.9,2.6l-0.2,0.7l-0.1,0.3l-0.1,0.2l-0.3,0.8
			c-0.2,0.6-0.4,1.1-0.6,1.6c-0.2,0.5-0.5,1.1-0.7,1.6c-1,2.1-2.2,4.1-3.6,5.9c-1.4,1.9-3,3.6-4.7,5.1l-0.7,0.6l-0.7,0.5
			c-0.4,0.4-0.9,0.7-1.4,1.1c-0.5,0.4-1,0.6-1.4,1l-3,2c-4.1,2.9-8,6.2-11.5,9.9c-0.9,0.9-1.7,1.9-2.5,2.8c-0.8,1-1.7,1.9-2.4,2.9
			c-0.8,1-1.5,2-2.3,3l-2.1,3.2c-0.7,1-1.3,2.2-1.9,3.3l-0.9,1.7c-0.3,0.6-0.6,1.1-0.8,1.7c-0.5,1.1-1.1,2.3-1.6,3.4l-1.4,3.5
			c-1.8,4.7-3.1,9.6-3.9,14.6c-0.2,1.2-0.3,2.5-0.5,3.8c-0.1,0.6-0.2,1.3-0.2,1.9l-0.1,1.9l-0.1,1.9c0,0.3,0,0.6,0,1l0,1
			c0,1.3,0,2.7,0.1,4l0.8,11.2L312.8,413.1z"/>
		
			<linearGradient id="SVGID_00000000181095562089864740000018290775851423766422_" gradientUnits="userSpaceOnUse" x1="281.1129" y1="1583.9843" x2="328.5541" y2="1583.9843" gradientTransform="matrix(0.9481 0.3181 -0.3181 0.9481 572.9067 -1378.6696)">
			<stop  offset="0" style="stop-color:#58B2DC"/>
			<stop  offset="1" style="stop-color:#000000"/>
		</linearGradient>
		<path style="fill:url(#SVGID_00000000181095562089864740000018290775851423766422_);" d="M318.4,412.7l-4.1,0.3l-6.5-88.7
			l-0.8-11.2c0-1.3,0-2.6,0-3.9l0-1c0-0.3,0-0.6,0-0.9l0.1-1.9l0.1-1.9c0-0.6,0.1-1.2,0.2-1.8c0.2-1.2,0.3-2.5,0.5-3.7
			c0.8-4.9,2.1-9.7,3.8-14.3l1.4-3.4c0.5-1.1,1-2.2,1.6-3.4c0.3-0.6,0.5-1.1,0.8-1.7l0.9-1.6c0.6-1.1,1.2-2.2,1.9-3.2l2-3.1l2.2-3
			c0.7-1,1.6-1.9,2.4-2.9c0.8-0.9,1.6-1.9,2.5-2.8c3.4-3.6,7.2-6.8,11.2-9.7l2.9-2c0.5-0.4,1-0.7,1.5-1c0.5-0.4,1-0.7,1.4-1.1
			l0.7-0.6l0.7-0.6c1.8-1.6,3.5-3.4,4.9-5.3c1.5-1.9,2.7-4,3.8-6.2c0.2-0.6,0.5-1.1,0.7-1.7c0.2-0.6,0.5-1.1,0.7-1.7l0.3-0.9
			l0.1-0.2l0.1-0.3l0.2-0.7l0.9-2.6l7-21l13.9-42.1l41.7-127.8l3.9,1.3l-41.7,127.8l-13.9,42.1l-7,21l-0.9,2.6l-0.2,0.7l-0.1,0.3
			l-0.1,0.2l-0.3,1c-0.2,0.6-0.5,1.3-0.7,1.9c-0.3,0.6-0.6,1.2-0.8,1.8c-1.2,2.4-2.6,4.7-4.2,6.9c-1.6,2.2-3.5,4.1-5.5,5.9l-0.8,0.7
			l-0.8,0.6c-0.5,0.4-1.1,0.8-1.6,1.2c-0.5,0.4-1.1,0.8-1.7,1.1l-2.8,1.9c-3.8,2.7-7.4,5.7-10.6,9.2c-0.8,0.8-1.6,1.7-2.3,2.6
			c-0.8,0.9-1.5,1.8-2.2,2.7l-2.1,2.8l-1.9,2.9c-0.7,1-1.2,2-1.8,3l-0.9,1.5c-0.3,0.5-0.5,1-0.8,1.6c-0.5,1.1-1,2.1-1.5,3.2
			l-1.3,3.3c-1.6,4.4-2.9,8.9-3.6,13.6c-0.2,1.2-0.3,2.3-0.5,3.5c-0.1,0.6-0.2,1.2-0.2,1.7l-0.1,1.8l-0.1,1.8c0,0.3,0,0.6,0,0.9
			l0,0.9c0,1.2,0,2.5,0,3.7l0.8,11.1L318.4,412.7z"/>
		
			<linearGradient id="SVGID_00000078027802107784250870000010612388626997342857_" gradientUnits="userSpaceOnUse" x1="286.7701" y1="1582.8778" x2="333.7702" y2="1582.8778" gradientTransform="matrix(0.9481 0.3181 -0.3181 0.9481 572.9067 -1378.6696)">
			<stop  offset="0" style="stop-color:#58B2DC"/>
			<stop  offset="1" style="stop-color:#000000"/>
		</linearGradient>
		<path style="fill:url(#SVGID_00000078027802107784250870000010612388626997342857_);" d="M324.1,412.3l-4.1,0.3l-6.5-88.6
			l-0.8-11.1l0-3.6l0-0.9c0-0.3,0-0.6,0-0.9l0.1-1.7l0.1-1.7c0-0.6,0.1-1.1,0.2-1.7c0.1-1.1,0.3-2.3,0.4-3.4c0.7-4.5,2-9,3.5-13.3
			l1.3-3.2c0.4-1.1,1-2.1,1.5-3.1c0.3-0.5,0.5-1,0.8-1.5l0.8-1.5c0.6-1,1.1-2,1.7-3l1.9-2.9l2.1-2.8c0.7-0.9,1.4-1.8,2.2-2.7
			c0.7-0.9,1.5-1.7,2.3-2.6c3.1-3.4,6.7-6.3,10.4-9l2.7-1.9c0.6-0.4,1.2-0.8,1.7-1.2c0.6-0.4,1.1-0.8,1.7-1.3l0.8-0.7l0.8-0.7
			c2.1-1.9,4-3.9,5.7-6.2c1.7-2.2,3.2-4.6,4.4-7.2c0.3-0.6,0.6-1.3,0.9-1.9c0.2-0.7,0.5-1.3,0.8-2l0.4-1l0.1-0.2l0.1-0.3l0.2-0.7
			l0.9-2.6l7-21l13.9-42.1L425.5,35l3.9,1.3l-41.7,127.8l-13.9,42.1l-7,21l-0.9,2.6l-0.2,0.7l-0.1,0.3l-0.1,0.3l-0.4,1.1
			c-0.2,0.7-0.6,1.4-0.8,2.2c-0.3,0.7-0.6,1.4-0.9,2.1c-1.3,2.8-3,5.4-4.8,7.9c-1.8,2.5-4,4.7-6.3,6.8l-0.9,0.8l-0.9,0.7
			c-0.6,0.5-1.2,0.9-1.8,1.4c-0.6,0.5-1.3,0.9-1.9,1.3l-2.6,1.8c-3.5,2.5-6.8,5.3-9.8,8.4c-0.8,0.8-1.5,1.6-2.2,2.4
			c-0.7,0.8-1.4,1.6-2,2.5l-1.9,2.6l-1.8,2.7c-0.6,0.9-1.1,1.9-1.6,2.8l-0.8,1.4c-0.3,0.5-0.5,1-0.7,1.4c-0.5,1-1,1.9-1.4,2.9
			l-1.2,3c-1.5,4-2.6,8.2-3.3,12.5c-0.7,4.3-0.9,8.5-0.8,13l0.8,11.1L324.1,412.3z"/>
		
			<linearGradient id="SVGID_00000046308420766279432520000001512823807343675538_" gradientUnits="userSpaceOnUse" x1="292.4274" y1="1581.7714" x2="338.986" y2="1581.7714" gradientTransform="matrix(0.9481 0.3181 -0.3181 0.9481 572.9067 -1378.6696)">
			<stop  offset="0" style="stop-color:#58B2DC"/>
			<stop  offset="1" style="stop-color:#000000"/>
		</linearGradient>
		<path style="fill:url(#SVGID_00000046308420766279432520000001512823807343675538_);" d="M329.7,411.8l-4.1,0.3l-6.5-88.5
			l-0.8-11.1c-0.1-4.4,0.1-8.5,0.8-12.7c0.7-4.2,1.8-8.2,3.3-12.2l1.2-2.9c0.4-1,0.9-1.9,1.3-2.9c0.2-0.5,0.4-1,0.7-1.4l0.8-1.4
			c0.5-0.9,1-1.8,1.6-2.7l1.7-2.6l1.9-2.5c0.6-0.9,1.3-1.6,2-2.4c0.7-0.8,1.4-1.6,2.1-2.3c2.9-3.1,6.1-5.8,9.5-8.2l2.5-1.7
			c0.7-0.5,1.3-0.9,2-1.3c0.6-0.5,1.3-0.9,1.9-1.4l0.9-0.7l0.9-0.8c2.4-2.1,4.6-4.4,6.5-7c1.9-2.5,3.6-5.3,5-8.1
			c0.3-0.7,0.7-1.4,1-2.2c0.3-0.7,0.6-1.5,0.9-2.2l0.4-1.1l0.1-0.3l0.1-0.3l0.2-0.7l0.9-2.6l7-21l13.9-42.1l41.7-127.8l3.9,1.3
			l-41.7,127.8l-13.9,42.1l-7,21c-0.6,1.7-1.2,3.6-1.7,5.1c-0.3,0.8-0.6,1.6-0.9,2.4c-0.3,0.8-0.7,1.6-1.1,2.4
			c-1.5,3.1-3.3,6.1-5.4,8.8c-2.1,2.8-4.4,5.3-7,7.6l-1,0.9l-1,0.8c-0.7,0.6-1.4,1.1-2.1,1.6c-0.7,0.5-1.4,1-2.1,1.5l-2.4,1.6
			c-3.2,2.3-6.2,4.8-8.9,7.7c-0.7,0.7-1.3,1.4-2,2.2c-0.6,0.8-1.3,1.5-1.9,2.3l-1.8,2.4l-1.6,2.5c-0.6,0.8-1,1.7-1.5,2.5l-0.7,1.3
			c-0.2,0.4-0.4,0.9-0.7,1.3c-0.4,0.9-0.9,1.8-1.3,2.7l-1.1,2.7c-1.4,3.7-2.4,7.5-3,11.4c-0.6,3.9-0.9,7.8-0.7,11.8l0.8,11.1
			L329.7,411.8z"/>
		
			<linearGradient id="SVGID_00000134966820942891422100000012272525549549721745_" gradientUnits="userSpaceOnUse" x1="298.0846" y1="1580.6649" x2="344.2018" y2="1580.6649" gradientTransform="matrix(0.9481 0.3181 -0.3181 0.9481 572.9067 -1378.6696)">
			<stop  offset="0" style="stop-color:#58B2DC"/>
			<stop  offset="1" style="stop-color:#000000"/>
		</linearGradient>
		<path style="fill:url(#SVGID_00000134966820942891422100000012272525549549721745_);" d="M335.3,411.4l-4.1,0.3l-6.5-88.4
			l-0.8-11.1c-0.1-3.9,0.1-7.7,0.7-11.5c0.6-3.8,1.6-7.5,3-11.1l1.1-2.7c0.4-0.9,0.8-1.7,1.2-2.6c0.2-0.4,0.4-0.9,0.6-1.3l0.7-1.3
			c0.5-0.8,0.9-1.7,1.5-2.5l1.6-2.4l1.7-2.3c0.6-0.8,1.2-1.5,1.8-2.2c0.6-0.7,1.2-1.5,1.9-2.1c2.6-2.8,5.6-5.3,8.7-7.5l2.4-1.6
			c0.7-0.5,1.5-1,2.2-1.5c0.7-0.5,1.4-1,2.1-1.6l1-0.8l1-0.9c2.7-2.3,5.1-5,7.2-7.8c2.1-2.8,4-5.9,5.6-9.1c0.4-0.8,0.7-1.6,1.1-2.4
			c0.3-0.8,0.7-1.6,1-2.5c0.6-1.6,1.2-3.4,1.8-5.2l7-21l13.9-42.1l41.7-127.8l3.9,1.3l-41.7,127.8l-13.9,42.1l-7,21
			c-0.6,1.8-1.1,3.5-1.8,5.3c-0.3,0.9-0.7,1.8-1,2.7c-0.4,0.9-0.8,1.7-1.2,2.6c-1.7,3.4-3.7,6.7-6,9.8c-2.3,3.1-4.9,5.9-7.8,8.4
			l-1.1,0.9l-1.1,0.9c-0.7,0.6-1.5,1.2-2.3,1.7c-0.8,0.6-1.6,1.1-2.4,1.6l-2.2,1.5c-2.9,2.1-5.6,4.3-8.1,7c-0.6,0.6-1.2,1.3-1.8,2
			c-0.6,0.7-1.2,1.3-1.7,2.1l-1.6,2.1l-1.5,2.2c-0.5,0.7-0.9,1.5-1.4,2.3l-0.7,1.2c-0.2,0.4-0.4,0.8-0.6,1.2
			c-0.4,0.8-0.8,1.6-1.1,2.4l-1,2.5c-1.2,3.3-2.2,6.8-2.8,10.3c-0.5,3.5-0.8,7.1-0.7,10.6l0.8,11L335.3,411.4z"/>
		
			<linearGradient id="SVGID_00000120554815153525674810000007302835290177181834_" gradientUnits="userSpaceOnUse" x1="303.7418" y1="1579.5586" x2="349.4178" y2="1579.5586" gradientTransform="matrix(0.9481 0.3181 -0.3181 0.9481 572.9067 -1378.6696)">
			<stop  offset="0" style="stop-color:#58B2DC"/>
			<stop  offset="1" style="stop-color:#000000"/>
		</linearGradient>
		<path style="fill:url(#SVGID_00000120554815153525674810000007302835290177181834_);" d="M341,411l-4.1,0.3l-6.5-88.3l-0.8-11
			c-0.1-3.4,0.1-6.9,0.6-10.3c0.6-3.4,1.5-6.7,2.7-10l1-2.4c0.3-0.8,0.7-1.6,1.1-2.3c0.2-0.4,0.4-0.8,0.6-1.2l0.6-1.1
			c0.4-0.7,0.8-1.5,1.3-2.2l1.4-2.2l1.6-2.1c0.5-0.7,1.1-1.3,1.6-2c0.6-0.7,1.1-1.3,1.7-1.9c2.3-2.5,5-4.8,7.8-6.8l2.2-1.5
			c0.8-0.6,1.7-1.1,2.4-1.7c0.8-0.6,1.6-1.2,2.3-1.8l1.1-0.9l1.1-1c3-2.6,5.6-5.5,8-8.6c2.4-3.1,4.4-6.5,6.2-10
			c0.4-0.9,0.8-1.8,1.2-2.7c0.4-0.9,0.8-1.8,1.1-2.7c0.7-1.9,1.2-3.6,1.8-5.4l7-21l13.9-42.1l41.7-127.8l3.9,1.3l-41.7,127.8
			L390,211.5l-7,21l-0.9,2.6l-0.2,0.7l-0.1,0.3l-0.1,0.4l-0.5,1.5c-0.3,1-0.8,2-1.1,2.9c-0.4,1-0.9,1.9-1.3,2.9
			c-1.8,3.8-4,7.4-6.6,10.7c-2.5,3.4-5.4,6.4-8.6,9.2l-1.2,1l-1.2,1c-0.8,0.7-1.7,1.3-2.5,1.9c-0.8,0.6-1.7,1.2-2.6,1.8l-2,1.4
			c-2.6,1.8-5.1,3.9-7.2,6.2c-0.6,0.6-1.1,1.2-1.6,1.8c-0.5,0.6-1.1,1.2-1.5,1.8l-1.4,1.9l-1.3,2c-0.5,0.7-0.8,1.4-1.2,2.1l-0.6,1
			c-0.2,0.3-0.3,0.7-0.5,1.1c-0.3,0.7-0.7,1.4-1,2.2l-0.9,2.2c-1.1,3-1.9,6.1-2.5,9.2c-0.5,3.1-0.7,6.4-0.6,9.4l0.8,11L341,411z"/>
		
			<linearGradient id="SVGID_00000128446051448581507160000007648767233155300777_" gradientUnits="userSpaceOnUse" x1="309.399" y1="1578.4521" x2="354.6336" y2="1578.4521" gradientTransform="matrix(0.9481 0.3181 -0.3181 0.9481 572.9067 -1378.6696)">
			<stop  offset="0" style="stop-color:#58B2DC"/>
			<stop  offset="1" style="stop-color:#000000"/>
		</linearGradient>
		<path style="fill:url(#SVGID_00000128446051448581507160000007648767233155300777_);" d="M346.6,410.6l-4.1,0.3l-6.5-88.3l-0.8-11
			c-0.1-2.9,0.1-6,0.6-9.1c0.5-3,1.3-6,2.4-8.9l0.9-2.1c0.3-0.7,0.7-1.4,1-2.1c0.2-0.3,0.3-0.7,0.5-1l0.6-1c0.4-0.7,0.7-1.4,1.2-2
			l1.3-1.9l1.4-1.8c0.4-0.6,1-1.2,1.5-1.8c0.5-0.6,1-1.2,1.5-1.7c2.1-2.3,4.5-4.2,7-6l2-1.4c0.9-0.6,1.8-1.2,2.7-1.8
			c0.9-0.6,1.7-1.3,2.6-2l1.3-1l1.2-1.1c3.2-2.8,6.2-6,8.8-9.5c2.6-3.4,4.9-7.1,6.7-11c0.5-1,0.9-2,1.3-2.9c0.4-1,0.8-2,1.2-3
			l0.5-1.5l0.1-0.4l0.1-0.3l0.2-0.7l0.9-2.6l7-21l13.9-42.1L447,42.1l3.9,1.3l-41.7,127.8l-13.9,42.1l-7,21l-0.9,2.6l-0.2,0.7
			l-0.3,0.7l-0.6,1.6c-0.4,1.1-0.8,2.1-1.3,3.2c-0.4,1.1-0.9,2.1-1.4,3.1c-2,4.1-4.4,8-7.2,11.7c-2.8,3.7-5.9,7-9.3,10.1l-1.3,1.1
			l-1.3,1.1c-0.9,0.7-1.8,1.4-2.7,2.1c-0.9,0.7-1.9,1.3-2.8,1.9l-1.9,1.3c-2.3,1.6-4.5,3.4-6.4,5.5c-0.5,0.5-1,1-1.4,1.6
			c-0.4,0.5-0.9,1-1.3,1.6l-1.3,1.7l-1.1,1.8c-0.4,0.6-0.7,1.2-1.1,1.8l-0.5,0.9c-0.2,0.3-0.3,0.6-0.5,0.9c-0.3,0.6-0.6,1.3-0.9,1.9
			l-0.8,2c-1,2.6-1.7,5.3-2.2,8.1c-0.4,2.7-0.6,5.7-0.5,8.2l0.8,11L346.6,410.6z"/>
		
			<linearGradient id="SVGID_00000170971501016886285870000014413004342861910447_" gradientUnits="userSpaceOnUse" x1="315.0562" y1="1577.3457" x2="359.8496" y2="1577.3457" gradientTransform="matrix(0.9481 0.3181 -0.3181 0.9481 572.9067 -1378.6696)">
			<stop  offset="0" style="stop-color:#58B2DC"/>
			<stop  offset="1" style="stop-color:#000000"/>
		</linearGradient>
		<path style="fill:url(#SVGID_00000170971501016886285870000014413004342861910447_);" d="M352.3,410.2l-4.1,0.3l-6.5-88.2l-0.8-11
			c0-0.6,0-1.2,0-1.8l0-0.5c0-0.2,0-0.3,0-0.5l0.1-1l0.1-1c0-0.3,0.1-0.7,0.1-1c0.1-0.7,0.2-1.3,0.3-2c0.4-2.7,1.2-5.3,2.1-7.8
			l0.8-1.9c0.3-0.6,0.6-1.2,0.9-1.8c0.2-0.3,0.3-0.6,0.4-0.9l0.5-0.9c0.3-0.6,0.6-1.2,1-1.7l1.1-1.7l1.2-1.6c0.4-0.6,0.9-1,1.3-1.6
			c0.4-0.5,0.9-1,1.4-1.5c1.8-2,3.9-3.7,6.1-5.3l1.8-1.2c1-0.7,2-1.3,2.9-2c0.9-0.7,1.9-1.4,2.8-2.1l1.4-1.1l1.3-1.2
			c3.5-3.1,6.7-6.5,9.5-10.3c2.8-3.7,5.3-7.7,7.3-12c0.5-1.1,1-2.1,1.4-3.2c0.4-1.1,0.9-2.2,1.3-3.3l0.6-1.7l0.3-0.7l0.2-0.7
			l0.9-2.6l7-21l13.9-42.1l41.7-127.8l3.9,1.3L414.6,173L400.7,215l-7,21l-0.9,2.6l-0.2,0.7l-0.3,0.8l-0.6,1.7
			c-0.4,1.2-0.9,2.3-1.4,3.5c-0.5,1.1-1,2.3-1.5,3.4c-2.2,4.5-4.8,8.7-7.8,12.7c-3,4-6.4,7.6-10.1,10.9l-1.4,1.2l-1.4,1.2
			c-1,0.8-2,1.5-3,2.2c-1,0.7-2,1.4-3.1,2.1l-1.7,1.1c-2,1.4-3.9,2.9-5.5,4.7c-0.4,0.4-0.8,0.9-1.2,1.4c-0.4,0.5-0.8,0.9-1.2,1.4
			c-0.4,0.5-0.7,1-1.1,1.5c-0.3,0.5-0.7,1-1,1.5c-0.4,0.5-0.6,1-0.9,1.6l-0.5,0.8c-0.2,0.3-0.3,0.5-0.4,0.8
			c-0.3,0.6-0.5,1.1-0.8,1.6c-0.2,0.6-0.4,1.1-0.7,1.7c-0.8,2.3-1.5,4.6-1.9,7c-0.1,0.6-0.1,1.2-0.2,1.8c0,0.3-0.1,0.6-0.1,0.9
			l0,0.9l-0.1,0.9c0,0.1,0,0.3,0,0.4l0,0.4c0,0.5,0,1.1,0,1.6l0.8,10.9L352.3,410.2z"/>
		
			<linearGradient id="SVGID_00000114040373531955518240000017404945402522814340_" gradientUnits="userSpaceOnUse" x1="320.7134" y1="1576.2393" x2="365.0654" y2="1576.2393" gradientTransform="matrix(0.9481 0.3181 -0.3181 0.9481 572.9067 -1378.6696)">
			<stop  offset="0" style="stop-color:#58B2DC"/>
			<stop  offset="1" style="stop-color:#000000"/>
		</linearGradient>
		<path style="fill:url(#SVGID_00000114040373531955518240000017404945402522814340_);" d="M357.9,409.8l-4.1,0.3l-6.5-88.1
			l-0.8-10.9c0-0.5,0-1,0-1.5l0-0.4c0-0.1,0-0.3,0-0.4l0.1-0.9l0-0.9c0-0.3,0.1-0.6,0.1-0.9c0.1-0.6,0.1-1.2,0.2-1.7
			c0.4-2.3,1-4.5,1.8-6.7c0.2-0.5,0.4-1.1,0.7-1.6c0.2-0.5,0.5-1,0.7-1.6c0.1-0.3,0.2-0.5,0.4-0.8l0.4-0.8c0.3-0.5,0.5-1,0.9-1.5
			c0.3-0.5,0.6-1,0.9-1.5c0.4-0.5,0.7-0.9,1-1.4c0.3-0.5,0.7-0.9,1.1-1.3c0.4-0.4,0.7-0.9,1.2-1.3c1.6-1.7,3.4-3.2,5.3-4.5l1.6-1.1
			c1-0.7,2.1-1.4,3.1-2.1c1-0.7,2-1.5,3-2.3l1.5-1.2l1.4-1.2c3.8-3.3,7.3-7.1,10.3-11.1c3.1-4,5.7-8.4,7.9-12.9
			c0.5-1.1,1.1-2.3,1.6-3.5c0.5-1.2,1-2.3,1.4-3.5l0.6-1.8l0.3-0.8l0.2-0.7l0.9-2.6l7-21l13.9-42.1l41.6-127.8l3.9,1.3L420,174.7
			l-13.9,42.1l-7,21l-0.9,2.6l-0.2,0.7l-0.3,0.8l-0.7,1.9c-0.4,1.3-1,2.5-1.5,3.7c-0.5,1.2-1.1,2.4-1.6,3.6
			c-2.3,4.8-5.1,9.4-8.3,13.6c-3.2,4.3-6.9,8.2-10.9,11.7l-1.5,1.3l-1.6,1.3c-1,0.8-2.1,1.6-3.2,2.4c-1.1,0.8-2.2,1.5-3.3,2.3
			l-1.5,1c-1.7,1.2-3.3,2.5-4.6,4c-0.4,0.3-0.7,0.8-1,1.1c-0.3,0.4-0.7,0.8-1,1.2c-0.3,0.4-0.6,0.8-0.9,1.2
			c-0.3,0.4-0.5,0.9-0.8,1.3c-0.3,0.4-0.5,0.9-0.8,1.3l-0.4,0.7c-0.1,0.2-0.2,0.5-0.3,0.7c-0.2,0.5-0.5,0.9-0.7,1.4
			c-0.2,0.5-0.4,1-0.6,1.4c-0.7,1.9-1.3,3.9-1.6,5.9c-0.1,0.5-0.1,1-0.2,1.5c0,0.3-0.1,0.5-0.1,0.8l0,0.8l-0.1,0.8
			c0,0.1,0,0.3,0,0.4l0,0.3c0,0.4,0,0.8,0,1.2l0.8,10.9L357.9,409.8z"/>
		<g>
			
				<linearGradient id="SVGID_00000076587870444058728580000015470723598184126637_" gradientUnits="userSpaceOnUse" x1="273.9127" y1="1585.3976" x2="319.5449" y2="1585.3976" gradientTransform="matrix(0.9481 0.3181 -0.3181 0.9481 572.9067 -1378.6696)">
				<stop  offset="0" style="stop-color:#58B2DC"/>
				<stop  offset="1" style="stop-color:#000000"/>
			</linearGradient>
			<path style="fill:url(#SVGID_00000076587870444058728580000015470723598184126637_);" d="M308.7,413.4l-1.5,0.1l-6.6-88.8
				l-0.8-11.2c0-1.5-0.1-2.9-0.1-4.4l0-1.1c0-0.4,0-0.7,0-1l0.1-2l0.1-2c0-0.7,0.1-1.4,0.2-2c0.2-1.3,0.3-2.7,0.5-4
				c0.9-5.4,2.3-10.6,4.2-15.7c0.5-1.3,1-2.5,1.5-3.8c0.5-1.2,1.1-2.5,1.7-3.7c0.3-0.6,0.6-1.2,0.9-1.8l1-1.8
				c0.7-1.2,1.3-2.4,2.1-3.5c0.7-1.1,1.5-2.3,2.2-3.4c0.8-1.1,1.6-2.2,2.4-3.3c0.8-1.1,1.7-2.1,2.6-3.2c0.9-1,1.8-2.1,2.7-3
				c3.7-4,7.9-7.5,12.3-10.6l3.1-2.1c0.4-0.3,0.8-0.5,1.2-0.8c0.4-0.3,0.8-0.6,1.2-0.9l0.6-0.5l0.5-0.5c1.5-1.3,2.8-2.7,4-4.3
				c1.2-1.6,2.2-3.2,3.1-5l0.6-1.3c0.2-0.5,0.4-0.9,0.5-1.4l0.2-0.7l0.1-0.2l0.1-0.3l0.2-0.7l0.9-2.6l7-21l13.9-42.1L413.3,31
				l1.5,0.5l-41.7,127.8l-13.9,42.1l-7,21l-0.9,2.6l-0.2,0.7l-0.1,0.3l-0.1,0.2l-0.3,0.7c-0.2,0.5-0.4,1-0.6,1.4
				c-0.2,0.5-0.4,0.9-0.6,1.4c-0.9,1.8-2,3.6-3.2,5.2c-1.2,1.6-2.6,3.1-4.2,4.5l-0.6,0.5l-0.6,0.5c-0.4,0.3-0.8,0.6-1.2,0.9
				c-0.4,0.3-0.9,0.6-1.3,0.9l-3.1,2.1c-4.3,3.1-8.5,6.5-12.1,10.4c-0.9,0.9-1.8,2-2.7,3c-0.9,1-1.8,2-2.5,3.1
				c-0.8,1.1-1.6,2.1-2.4,3.2c-0.7,1.1-1.5,2.2-2.2,3.3c-0.7,1.1-1.4,2.3-2,3.4l-1,1.7c-0.3,0.6-0.6,1.2-0.9,1.8
				c-0.6,1.2-1.2,2.4-1.7,3.6c-0.5,1.2-1,2.5-1.5,3.7c-1.9,5-3.3,10.2-4.1,15.4c-0.2,1.3-0.4,2.6-0.5,4c-0.1,0.7-0.2,1.3-0.2,2
				l-0.1,2l-0.1,2c0,0.3,0,0.7,0,1l0,1.1c0,1.4,0,2.9,0.1,4.3l0.8,11.2L308.7,413.4z"/>
			
				<linearGradient id="SVGID_00000098219128697072616190000017464144636704416689_" gradientUnits="userSpaceOnUse" x1="279.57" y1="1584.2911" x2="324.7607" y2="1584.2911" gradientTransform="matrix(0.9481 0.3181 -0.3181 0.9481 572.9067 -1378.6696)">
				<stop  offset="0" style="stop-color:#58B2DC"/>
				<stop  offset="1" style="stop-color:#000000"/>
			</linearGradient>
			<path style="fill:url(#SVGID_00000098219128697072616190000017464144636704416689_);" d="M314.3,413l-1.5,0.1l-6.5-88.7
				l-0.8-11.2c0-1.3,0-2.7-0.1-4l0-1c0-0.3,0-0.6,0-1l0.1-1.9l0.1-1.9c0-0.6,0.1-1.3,0.2-1.9c0.2-1.3,0.3-2.5,0.5-3.8
				c0.8-5,2.2-9.9,3.9-14.6l1.4-3.5c0.5-1.2,1.1-2.3,1.6-3.4c0.3-0.6,0.5-1.1,0.8-1.7l0.9-1.7c0.6-1.1,1.2-2.2,1.9-3.3l2.1-3.2
				c0.7-1,1.5-2,2.3-3c0.7-1,1.6-2,2.4-2.9c0.8-1,1.6-1.9,2.5-2.8c3.4-3.7,7.4-7,11.5-9.9l3-2c0.5-0.3,1-0.6,1.4-1
				c0.5-0.3,0.9-0.7,1.4-1.1l0.7-0.5l0.7-0.6c1.7-1.5,3.3-3.2,4.7-5.1c1.4-1.9,2.6-3.8,3.6-5.9c0.2-0.5,0.5-1.1,0.7-1.6
				c0.2-0.5,0.5-1.1,0.6-1.6l0.3-0.8l0.1-0.2l0.1-0.3l0.2-0.7l0.9-2.6l7-21l13.9-42.1l41.7-127.8l1.5,0.5L378.5,161l-13.9,42.1
				l-7,21l-0.9,2.6l-0.2,0.7l-0.1,0.3l-0.1,0.2l-0.3,0.9c-0.2,0.6-0.5,1.1-0.7,1.7c-0.2,0.6-0.5,1.1-0.7,1.7
				c-1.1,2.2-2.3,4.3-3.8,6.2c-1.5,1.9-3.1,3.7-4.9,5.3l-0.7,0.6l-0.7,0.6c-0.5,0.4-1,0.7-1.4,1.1c-0.5,0.4-1,0.7-1.5,1l-2.9,2
				c-4,2.9-7.9,6.1-11.2,9.7c-0.9,0.9-1.7,1.8-2.5,2.8c-0.8,0.9-1.6,1.9-2.4,2.9l-2.2,3l-2,3.1c-0.7,1-1.3,2.1-1.9,3.2l-0.9,1.6
				c-0.3,0.5-0.6,1.1-0.8,1.7c-0.5,1.1-1.1,2.2-1.6,3.4l-1.4,3.4c-1.7,4.6-3,9.5-3.8,14.3c-0.2,1.2-0.3,2.5-0.5,3.7
				c-0.1,0.6-0.2,1.2-0.2,1.8l-0.1,1.9l-0.1,1.9c0,0.3,0,0.6,0,0.9l0,1c0,1.3,0,2.6,0,3.9l0.8,11.2L314.3,413z"/>
			
				<linearGradient id="SVGID_00000134970205316237271870000001702210887882562234_" gradientUnits="userSpaceOnUse" x1="285.2272" y1="1583.1848" x2="329.9767" y2="1583.1848" gradientTransform="matrix(0.9481 0.3181 -0.3181 0.9481 572.9067 -1378.6696)">
				<stop  offset="0" style="stop-color:#58B2DC"/>
				<stop  offset="1" style="stop-color:#000000"/>
			</linearGradient>
			<path style="fill:url(#SVGID_00000134970205316237271870000001702210887882562234_);" d="M320,412.6l-1.5,0.1l-6.5-88.6
				l-0.8-11.1c0-1.2,0-2.5,0-3.7l0-0.9c0-0.3,0-0.6,0-0.9l0.1-1.8l0.1-1.8c0-0.6,0.1-1.2,0.2-1.7c0.1-1.2,0.3-2.3,0.5-3.5
				c0.8-4.6,2-9.2,3.6-13.6l1.3-3.3c0.5-1.1,1-2.1,1.5-3.2c0.3-0.5,0.5-1.1,0.8-1.6l0.9-1.5c0.6-1,1.1-2.1,1.8-3l1.9-2.9l2.1-2.8
				c0.7-1,1.5-1.8,2.2-2.7c0.8-0.9,1.5-1.8,2.3-2.6c3.2-3.4,6.8-6.5,10.6-9.2l2.8-1.9c0.6-0.4,1.1-0.7,1.7-1.1
				c0.5-0.4,1.1-0.8,1.6-1.2l0.8-0.6l0.8-0.7c2-1.8,3.9-3.8,5.5-5.9c1.6-2.2,3-4.5,4.2-6.9c0.3-0.6,0.6-1.2,0.8-1.8
				c0.2-0.6,0.5-1.2,0.7-1.9l0.3-1l0.1-0.2l0.1-0.3l0.2-0.7l0.9-2.6l7-21l13.9-42.1L424,34.5l1.5,0.5l-41.7,127.8l-13.9,42.1l-7,21
				l-0.9,2.6l-0.2,0.7l-0.1,0.3l-0.1,0.2l-0.4,1c-0.2,0.7-0.5,1.3-0.8,2c-0.3,0.6-0.6,1.3-0.9,1.9c-1.2,2.5-2.7,4.9-4.4,7.2
				c-1.7,2.2-3.6,4.3-5.7,6.2l-0.8,0.7l-0.8,0.7c-0.5,0.5-1.1,0.9-1.7,1.3c-0.6,0.4-1.2,0.8-1.7,1.2l-2.7,1.9
				c-3.7,2.6-7.3,5.6-10.4,9c-0.8,0.8-1.6,1.7-2.3,2.6c-0.7,0.9-1.5,1.7-2.2,2.7l-2.1,2.8l-1.9,2.9c-0.6,0.9-1.2,2-1.7,3l-0.8,1.5
				c-0.3,0.5-0.5,1-0.8,1.5c-0.5,1-1,2.1-1.5,3.1l-1.3,3.2c-1.6,4.3-2.8,8.7-3.5,13.3c-0.2,1.1-0.3,2.3-0.4,3.4
				c-0.1,0.6-0.2,1.1-0.2,1.7l-0.1,1.7l-0.1,1.7c0,0.3,0,0.6,0,0.9l0,0.9l0,3.6l0.8,11.1L320,412.6z"/>
			
				<linearGradient id="SVGID_00000062879620513018118910000017409520907837401746_" gradientUnits="userSpaceOnUse" x1="290.8845" y1="1582.0784" x2="335.1925" y2="1582.0784" gradientTransform="matrix(0.9481 0.3181 -0.3181 0.9481 572.9067 -1378.6696)">
				<stop  offset="0" style="stop-color:#58B2DC"/>
				<stop  offset="1" style="stop-color:#000000"/>
			</linearGradient>
			<path style="fill:url(#SVGID_00000062879620513018118910000017409520907837401746_);" d="M325.6,412.1l-1.5,0.1l-6.5-88.5
				l-0.8-11.1c-0.2-4.5,0.1-8.7,0.8-13c0.7-4.3,1.8-8.4,3.3-12.5l1.2-3c0.4-1,0.9-1.9,1.4-2.9c0.2-0.5,0.5-1,0.7-1.4l0.8-1.4
				c0.5-0.9,1-1.9,1.6-2.8l1.8-2.7l1.9-2.6c0.6-0.9,1.4-1.7,2-2.5c0.7-0.8,1.4-1.6,2.2-2.4c2.9-3.2,6.3-5.9,9.8-8.4l2.6-1.8
				c0.6-0.4,1.3-0.8,1.9-1.3c0.6-0.5,1.2-0.9,1.8-1.4l0.9-0.7l0.9-0.8c2.3-2,4.4-4.3,6.3-6.8c1.9-2.5,3.5-5.1,4.8-7.9
				c0.3-0.7,0.6-1.4,0.9-2.1c0.3-0.7,0.6-1.4,0.8-2.2l0.4-1.1l0.1-0.3l0.1-0.3l0.2-0.7l0.9-2.6l7-21l13.9-42.1l41.7-127.8l1.5,0.5
				l-41.7,127.8l-13.9,42.1l-7,21l-0.9,2.6l-0.2,0.7l-0.1,0.3l-0.1,0.3l-0.4,1.1c-0.2,0.8-0.6,1.5-0.9,2.2c-0.3,0.7-0.6,1.5-1,2.2
				c-1.4,2.9-3.1,5.6-5,8.1c-1.9,2.5-4.1,4.9-6.5,7l-0.9,0.8l-0.9,0.7c-0.6,0.5-1.3,1-1.9,1.4c-0.6,0.5-1.3,0.9-2,1.3l-2.5,1.7
				c-3.4,2.4-6.7,5.1-9.5,8.2c-0.8,0.7-1.4,1.5-2.1,2.3c-0.7,0.8-1.4,1.6-2,2.4l-1.9,2.5l-1.7,2.6c-0.6,0.9-1.1,1.8-1.6,2.7
				l-0.8,1.4c-0.3,0.5-0.5,0.9-0.7,1.4c-0.4,1-0.9,1.9-1.3,2.9l-1.2,2.9c-1.5,3.9-2.6,8-3.3,12.2c-0.6,4.2-0.9,8.3-0.8,12.7
				l0.8,11.1L325.6,412.1z"/>
			
				<linearGradient id="SVGID_00000120528135841143002150000000184957849423835324_" gradientUnits="userSpaceOnUse" x1="296.5417" y1="1580.9719" x2="340.4085" y2="1580.9719" gradientTransform="matrix(0.9481 0.3181 -0.3181 0.9481 572.9067 -1378.6696)">
				<stop  offset="0" style="stop-color:#58B2DC"/>
				<stop  offset="1" style="stop-color:#000000"/>
			</linearGradient>
			<path style="fill:url(#SVGID_00000120528135841143002150000000184957849423835324_);" d="M331.2,411.7l-1.5,0.1l-6.5-88.4
				l-0.8-11.1c-0.1-4,0.1-7.9,0.7-11.8c0.6-3.9,1.7-7.7,3-11.4l1.1-2.7c0.4-0.9,0.8-1.8,1.3-2.7c0.2-0.4,0.4-0.9,0.7-1.3l0.7-1.3
				c0.5-0.8,0.9-1.7,1.5-2.5l1.6-2.5l1.8-2.4c0.6-0.8,1.2-1.5,1.9-2.3c0.6-0.7,1.3-1.5,2-2.2c2.7-2.9,5.7-5.4,8.9-7.7l2.4-1.6
				c0.7-0.5,1.5-0.9,2.1-1.5c0.7-0.5,1.4-1,2.1-1.6l1-0.8l1-0.9c2.6-2.3,5-4.8,7-7.6c2.1-2.8,3.9-5.7,5.4-8.8
				c0.4-0.8,0.7-1.6,1.1-2.4c0.3-0.8,0.7-1.6,0.9-2.4c0.6-1.6,1.2-3.4,1.7-5.1l7-21l13.9-42.1l41.7-127.8l1.5,0.5l-41.7,127.8
				l-13.9,42.1l-7,21c-0.6,1.7-1.2,3.5-1.8,5.2c-0.3,0.8-0.7,1.7-1,2.5c-0.3,0.8-0.7,1.6-1.1,2.4c-1.6,3.2-3.4,6.2-5.6,9.1
				c-2.1,2.8-4.6,5.5-7.2,7.8l-1,0.9l-1,0.8c-0.7,0.6-1.4,1.1-2.1,1.6c-0.7,0.5-1.5,1-2.2,1.5l-2.4,1.6c-3.1,2.2-6.1,4.7-8.7,7.5
				c-0.7,0.7-1.3,1.4-1.9,2.1c-0.6,0.7-1.3,1.4-1.8,2.2l-1.7,2.3l-1.6,2.4c-0.5,0.8-1,1.6-1.5,2.5l-0.7,1.3
				c-0.2,0.4-0.4,0.9-0.6,1.3c-0.4,0.9-0.8,1.7-1.2,2.6l-1.1,2.7c-1.3,3.6-2.3,7.3-3,11.1c-0.6,3.8-0.8,7.6-0.7,11.5l0.8,11.1
				L331.2,411.7z"/>
			
				<linearGradient id="SVGID_00000165215151208326535730000016730298247187913626_" gradientUnits="userSpaceOnUse" x1="302.1989" y1="1579.8655" x2="345.6243" y2="1579.8655" gradientTransform="matrix(0.9481 0.3181 -0.3181 0.9481 572.9067 -1378.6696)">
				<stop  offset="0" style="stop-color:#58B2DC"/>
				<stop  offset="1" style="stop-color:#000000"/>
			</linearGradient>
			<path style="fill:url(#SVGID_00000165215151208326535730000016730298247187913626_);" d="M336.9,411.3l-1.5,0.1l-6.5-88.4
				l-0.8-11c-0.1-3.5,0.1-7.1,0.7-10.6c0.6-3.5,1.5-7,2.8-10.3l1-2.5c0.3-0.8,0.8-1.6,1.1-2.4c0.2-0.4,0.4-0.8,0.6-1.2l0.7-1.2
				c0.4-0.8,0.8-1.6,1.4-2.3l1.5-2.2l1.6-2.1c0.5-0.7,1.1-1.4,1.7-2.1c0.6-0.7,1.1-1.4,1.8-2c2.4-2.6,5.2-4.9,8.1-7l2.2-1.5
				c0.8-0.5,1.6-1,2.4-1.6c0.8-0.6,1.6-1.1,2.3-1.7l1.1-0.9l1.1-0.9c2.9-2.5,5.5-5.3,7.8-8.4c2.3-3.1,4.3-6.3,6-9.8
				c0.4-0.9,0.8-1.7,1.2-2.6c0.3-0.9,0.7-1.8,1-2.7c0.7-1.8,1.2-3.5,1.8-5.3l7-21l13.9-42.1l41.7-127.8l1.5,0.5L400,168.1
				l-13.9,42.1l-7,21c-0.6,1.8-1.1,3.5-1.8,5.4c-0.3,0.9-0.7,1.8-1.1,2.7c-0.4,0.9-0.8,1.8-1.2,2.7c-1.7,3.5-3.8,6.9-6.2,10
				c-2.4,3.1-5.1,6-8,8.6l-1.1,1l-1.1,0.9c-0.8,0.6-1.6,1.2-2.3,1.8c-0.8,0.6-1.6,1.1-2.4,1.7l-2.2,1.5c-2.8,2-5.5,4.2-7.8,6.8
				c-0.6,0.6-1.2,1.3-1.7,1.9c-0.6,0.7-1.1,1.3-1.6,2l-1.6,2.1l-1.4,2.2c-0.5,0.7-0.9,1.5-1.3,2.2l-0.6,1.1
				c-0.2,0.4-0.4,0.8-0.6,1.2c-0.4,0.8-0.8,1.5-1.1,2.3l-1,2.4c-1.2,3.2-2.1,6.6-2.7,10c-0.5,3.4-0.7,6.9-0.6,10.3l0.8,11
				L336.9,411.3z"/>
			
				<linearGradient id="SVGID_00000169518489264480508510000013214300005985724326_" gradientUnits="userSpaceOnUse" x1="307.8561" y1="1578.759" x2="350.8401" y2="1578.759" gradientTransform="matrix(0.9481 0.3181 -0.3181 0.9481 572.9067 -1378.6696)">
				<stop  offset="0" style="stop-color:#58B2DC"/>
				<stop  offset="1" style="stop-color:#000000"/>
			</linearGradient>
			<path style="fill:url(#SVGID_00000169518489264480508510000013214300005985724326_);" d="M342.5,410.9L341,411l-6.5-88.3l-0.8-11
				c-0.1-3,0.1-6.3,0.6-9.4c0.5-3.1,1.4-6.2,2.5-9.2l0.9-2.2c0.3-0.7,0.7-1.4,1-2.2c0.2-0.4,0.3-0.7,0.5-1.1l0.6-1
				c0.4-0.7,0.7-1.4,1.2-2.1l1.3-2l1.4-1.9c0.5-0.7,1-1.2,1.5-1.8c0.5-0.6,1-1.2,1.6-1.8c2.2-2.3,4.6-4.4,7.2-6.2l2-1.4
				c0.9-0.6,1.8-1.1,2.6-1.8c0.8-0.6,1.7-1.2,2.5-1.9l1.2-1l1.2-1c3.2-2.8,6-5.9,8.6-9.2c2.5-3.4,4.7-7,6.6-10.7
				c0.4-1,0.9-1.9,1.3-2.9c0.4-1,0.8-1.9,1.1-2.9l0.5-1.5l0.1-0.4l0.1-0.3l0.2-0.7l0.9-2.6l7-21l13.9-42.1l41.7-127.8l1.5,0.5
				l-41.7,127.8L391.4,212l-7,21l-0.9,2.6l-0.2,0.7l-0.1,0.3l-0.1,0.4l-0.5,1.5c-0.3,1-0.8,2-1.2,3c-0.4,1-0.9,2-1.3,2.9
				c-1.9,3.9-4.1,7.6-6.7,11c-2.6,3.4-5.5,6.6-8.8,9.5l-1.2,1.1l-1.3,1c-0.8,0.7-1.7,1.3-2.6,2c-0.9,0.7-1.8,1.2-2.7,1.8l-2,1.4
				c-2.5,1.8-4.9,3.7-7,6c-0.6,0.5-1,1.1-1.5,1.7c-0.5,0.6-1,1.1-1.5,1.8l-1.4,1.8l-1.3,1.9c-0.4,0.6-0.8,1.3-1.2,2l-0.6,1
				c-0.2,0.3-0.3,0.7-0.5,1c-0.3,0.7-0.7,1.4-1,2.1l-0.9,2.1c-1.1,2.9-1.9,5.9-2.4,8.9c-0.5,3-0.7,6.2-0.6,9.1l0.8,11L342.5,410.9z"
				/>
			
				<linearGradient id="SVGID_00000103242068809179485040000000340217142189496760_" gradientUnits="userSpaceOnUse" x1="313.5134" y1="1577.6526" x2="356.0562" y2="1577.6526" gradientTransform="matrix(0.9481 0.3181 -0.3181 0.9481 572.9067 -1378.6696)">
				<stop  offset="0" style="stop-color:#58B2DC"/>
				<stop  offset="1" style="stop-color:#000000"/>
			</linearGradient>
			<path style="fill:url(#SVGID_00000103242068809179485040000000340217142189496760_);" d="M348.2,410.5l-1.5,0.1l-6.5-88.2
				l-0.8-11c-0.1-2.5,0.1-5.4,0.5-8.2c0.5-2.8,1.2-5.5,2.2-8.1l0.8-2c0.3-0.6,0.6-1.3,0.9-1.9c0.2-0.3,0.3-0.6,0.5-0.9l0.5-0.9
				c0.4-0.6,0.7-1.2,1.1-1.8l1.1-1.8l1.3-1.7c0.4-0.6,0.9-1.1,1.3-1.6c0.5-0.5,0.9-1.1,1.4-1.6c1.9-2.1,4.1-3.9,6.4-5.5l1.9-1.3
				c0.9-0.6,1.9-1.2,2.8-1.9c0.9-0.7,1.9-1.3,2.7-2.1l1.3-1.1l1.3-1.1c3.4-3,6.6-6.4,9.3-10.1c2.8-3.7,5.2-7.6,7.2-11.7
				c0.5-1,1-2.1,1.4-3.1c0.4-1.1,0.9-2.1,1.3-3.2l0.6-1.6l0.3-0.7l0.2-0.7l0.9-2.6l7-21l13.9-42.1l41.7-127.8l1.5,0.5l-41.7,127.8
				l-13.9,42.1l-7,21l-0.9,2.6l-0.2,0.7l-0.3,0.7l-0.6,1.7c-0.4,1.1-0.9,2.2-1.3,3.3c-0.5,1.1-1,2.1-1.4,3.2c-2,4.2-4.5,8.2-7.3,12
				c-2.8,3.7-6,7.2-9.5,10.3l-1.3,1.2l-1.4,1.1c-0.9,0.7-1.9,1.4-2.8,2.1c-0.9,0.7-1.9,1.3-2.9,2l-1.8,1.2c-2.2,1.6-4.3,3.3-6.1,5.3
				c-0.5,0.5-0.9,1-1.4,1.5c-0.4,0.5-0.9,1-1.3,1.6l-1.2,1.6l-1.1,1.7c-0.4,0.5-0.7,1.2-1,1.7l-0.5,0.9c-0.2,0.3-0.3,0.6-0.4,0.9
				c-0.3,0.6-0.6,1.2-0.9,1.8l-0.8,1.9c-0.9,2.5-1.6,5.1-2.1,7.8c-0.1,0.7-0.2,1.3-0.3,2c0,0.3-0.1,0.7-0.1,1l-0.1,1l-0.1,1
				c0,0.2,0,0.3,0,0.5l0,0.5c0,0.6,0,1.2,0,1.8l0.8,11L348.2,410.5z"/>
			
				<linearGradient id="SVGID_00000027569628325304729840000018379798095237319091_" gradientUnits="userSpaceOnUse" x1="319.1705" y1="1576.5463" x2="361.2719" y2="1576.5463" gradientTransform="matrix(0.9481 0.3181 -0.3181 0.9481 572.9067 -1378.6696)">
				<stop  offset="0" style="stop-color:#58B2DC"/>
				<stop  offset="1" style="stop-color:#000000"/>
			</linearGradient>
			<path style="fill:url(#SVGID_00000027569628325304729840000018379798095237319091_);" d="M353.8,410.1l-1.5,0.1l-6.5-88.1
				l-0.8-10.9c0-0.5,0-1.1,0-1.6l0-0.4c0-0.1,0-0.3,0-0.4l0.1-0.9l0-0.9c0-0.3,0.1-0.6,0.1-0.9c0.1-0.6,0.1-1.2,0.2-1.8
				c0.4-2.4,1.1-4.7,1.9-7c0.2-0.6,0.5-1.1,0.7-1.7c0.2-0.6,0.5-1.1,0.8-1.6c0.1-0.3,0.2-0.6,0.4-0.8l0.5-0.8
				c0.3-0.5,0.6-1.1,0.9-1.6c0.3-0.5,0.7-1,1-1.5c0.4-0.5,0.7-1,1.1-1.5c0.3-0.5,0.8-0.9,1.2-1.4c0.4-0.5,0.8-0.9,1.2-1.4
				c1.6-1.8,3.5-3.3,5.5-4.7l1.7-1.1c1-0.7,2.1-1.4,3.1-2.1c1-0.7,2-1.5,3-2.2l1.4-1.2l1.4-1.2c3.7-3.3,7.1-6.9,10.1-10.9
				c3-4,5.6-8.2,7.8-12.7c0.5-1.1,1-2.2,1.5-3.4c0.5-1.2,1-2.3,1.4-3.5l0.6-1.7l0.3-0.8l0.2-0.7l0.9-2.6l7-21l13.9-42.1l41.6-127.8
				l1.5,0.5l-41.6,127.8l-13.9,42.1l-7,21l-0.9,2.6l-0.2,0.7l-0.3,0.8l-0.6,1.8c-0.4,1.2-0.9,2.4-1.4,3.5c-0.5,1.2-1,2.3-1.6,3.5
				c-2.2,4.6-4.9,8.9-7.9,12.9c-3,4-6.5,7.8-10.3,11.1l-1.4,1.2l-1.5,1.2c-1,0.8-2,1.5-3,2.3c-1,0.8-2.1,1.4-3.1,2.1l-1.6,1.1
				c-1.9,1.4-3.7,2.8-5.3,4.5c-0.4,0.4-0.8,0.9-1.2,1.3c-0.4,0.4-0.8,0.9-1.1,1.3c-0.3,0.5-0.7,0.9-1,1.4c-0.3,0.5-0.6,1-0.9,1.5
				c-0.3,0.5-0.6,1-0.9,1.5l-0.4,0.8c-0.1,0.3-0.3,0.5-0.4,0.8c-0.2,0.5-0.5,1-0.7,1.6c-0.2,0.5-0.4,1.1-0.7,1.6
				c-0.8,2.2-1.4,4.4-1.8,6.7c-0.1,0.6-0.1,1.2-0.2,1.7c0,0.3-0.1,0.6-0.1,0.9l0,0.9l-0.1,0.9c0,0.1,0,0.3,0,0.4l0,0.4
				c0,0.5,0,1,0,1.5l0.8,10.9L353.8,410.1z"/>
			
				<linearGradient id="SVGID_00000164513005914158684060000009036552166212792963_" gradientUnits="userSpaceOnUse" x1="324.8276" y1="1575.4398" x2="366.488" y2="1575.4398" gradientTransform="matrix(0.9481 0.3181 -0.3181 0.9481 572.9067 -1378.6696)">
				<stop  offset="0" style="stop-color:#58B2DC"/>
				<stop  offset="1" style="stop-color:#000000"/>
			</linearGradient>
			<path style="fill:url(#SVGID_00000164513005914158684060000009036552166212792963_);" d="M359.5,409.6l-1.5,0.1l-6.5-88
				l-0.8-10.9c0-0.4,0-0.8,0-1.2l0-0.3c0-0.1,0-0.3,0-0.4l0.1-0.8l0-0.8c0-0.3,0.1-0.5,0.1-0.8c0.1-0.5,0.1-1,0.2-1.5
				c0.3-2,0.9-4,1.6-5.9c0.2-0.5,0.4-0.9,0.6-1.4c0.2-0.5,0.5-0.9,0.7-1.4c0.1-0.2,0.2-0.5,0.3-0.7l0.4-0.7c0.3-0.4,0.5-0.9,0.8-1.3
				c0.3-0.4,0.6-0.9,0.8-1.3c0.3-0.4,0.6-0.8,0.9-1.2c0.3-0.4,0.7-0.8,1-1.2c0.3-0.4,0.6-0.8,1-1.1c1.4-1.5,3-2.8,4.6-4l1.5-1
				c1.1-0.7,2.2-1.5,3.3-2.3c1.1-0.8,2.2-1.6,3.2-2.4l1.6-1.3l1.5-1.3c4-3.5,7.7-7.4,10.9-11.7c3.2-4.3,6-8.8,8.3-13.6
				c0.6-1.2,1.1-2.4,1.6-3.6c0.5-1.2,1-2.5,1.5-3.7l0.7-1.9l0.3-0.8l0.2-0.7l0.9-2.6l7-21l13.9-42.1L461.6,47l1.5,0.5l-41.6,127.8
				l-13.9,42.1l-7,21l-0.9,2.6l-0.2,0.7l-0.3,0.8l-0.7,1.9c-0.4,1.3-1,2.5-1.5,3.8c-0.5,1.3-1.1,2.5-1.7,3.7
				c-2.4,4.9-5.2,9.6-8.5,13.9c-3.3,4.3-7,8.3-11.1,11.9l-1.5,1.3l-1.6,1.3c-1.1,0.9-2.1,1.7-3.2,2.5c-1.1,0.8-2.2,1.5-3.4,2.3
				l-1.4,1c-1.6,1.1-3.1,2.4-4.4,3.8c-0.4,0.3-0.7,0.7-1,1.1c-0.3,0.4-0.7,0.7-0.9,1.1c-0.3,0.4-0.6,0.8-0.9,1.2
				c-0.3,0.4-0.5,0.8-0.8,1.2c-0.3,0.4-0.5,0.8-0.7,1.3l-0.4,0.6c-0.1,0.2-0.2,0.4-0.3,0.7c-0.2,0.4-0.4,0.9-0.6,1.3
				c-0.2,0.5-0.4,0.9-0.5,1.4c-0.7,1.8-1.2,3.7-1.5,5.6c-0.1,0.5-0.1,1-0.2,1.4c0,0.2-0.1,0.5-0.1,0.7l0,0.7l0,0.7
				c0,0.1,0,0.3,0,0.4l0,0.3c0,0.4,0,0.8,0,1.1l0.8,10.9L359.5,409.6z"/>
		</g>
	</g>
	<g>
		<path class="st19" d="M416.6,141.3c0-0.8-0.1-1.7-0.1-2.4l-0.3-3l-0.4-3c-0.3-2.1-0.8-4.2-1.2-6c-2-8.1-5.4-15.6-9.9-22.5
			c-4.6-6.9-10.2-12.9-16.8-17.8c-6.6-4.9-13.9-8.7-21.8-11.2c-7.8-2.5-16.1-3.5-24.4-3.2c-1.8,0.1-4,0.2-6.1,0.5L240,86.3l-1.5,0.2
			c-0.3,0-0.6,0.1-1,0.1c-0.1,0-0.2,0-0.3,0c-0.1,0-0.3,0-0.3,0c-0.1,0-0.3,0-0.4,0c-0.1,0-0.2,0-0.3,0c-0.3,0-0.6,0-0.8,0
			c-0.1,0-0.2,0-0.3,0l-0.4,0c-0.2,0-0.4,0-0.5,0l-0.2,0c-0.3-0.1-0.6-0.1-0.8-0.1l-0.6-0.1c-0.2-0.1-0.5-0.1-0.7-0.1
			c-0.3-0.1-0.5-0.2-0.8-0.2l-0.6-0.2c-0.2-0.1-0.3-0.1-0.5-0.2l-0.2-0.1c-0.3-0.1-0.5-0.2-0.8-0.4c-0.2-0.1-0.3-0.1-0.5-0.3
			c-0.1-0.1-0.3-0.1-0.4-0.2c-0.1,0-0.2-0.1-0.2-0.1c-0.2-0.1-0.4-0.2-0.6-0.4c-0.2-0.1-0.5-0.3-0.7-0.5c-0.1-0.1-0.2-0.2-0.4-0.2
			c-0.1,0-0.2-0.1-0.3-0.2c-0.2-0.2-0.5-0.4-0.7-0.6c-0.8-0.7-1.5-1.3-2.1-2.1l-0.5-0.5c-0.2-0.2-0.4-0.5-0.5-0.6
			c-0.2-0.2-0.3-0.5-0.5-0.7l-0.4-0.7c-0.5-0.8-0.9-1.6-1.3-2.6l0-0.1c-0.1-0.3-0.2-0.5-0.3-0.9c0,0,0-0.1-0.1-0.2
			c0-0.1-0.1-0.3-0.1-0.4c-0.1-0.3-0.2-0.5-0.2-0.8c0-0.2-0.1-0.4-0.1-0.5l-0.1-0.3c-0.2-0.9-0.3-1.7-0.3-2.7c0-0.2,0-0.5,0-0.7
			c0-0.2,0-0.5,0-0.7c0-0.1,0-0.2,0-0.3c0-0.1,0-0.3,0-0.3c0-0.1,0-0.2,0-0.4c0-0.1,0-0.2,0-0.3c2-7.4,6.9-21.6,7.8-24.5
			c0.1-0.3,0.1-0.6-0.1-0.9c-0.1-0.3-0.4-0.5-0.6-0.6l-1.5-0.5c-0.6-0.2-1.2,0.1-1.4,0.7c-0.2,0.7-0.6,1.7-1,3
			c-2.2,6.4-6.3,18.4-6.9,21.9c-0.1,0.3-0.1,0.5-0.1,0.8l0,0.3c0,0.1,0,0.2,0,0.3c0,0.2,0,0.4,0,0.7c0,0.2,0,0.4,0,0.6
			c0,0.4,0,0.8,0,1c0,1.1,0.2,2.2,0.4,3.3l0.1,0.4c0.1,0.2,0.1,0.4,0.1,0.6c0.1,0.4,0.2,0.8,0.3,1.2c0,0.1,0,0.2,0.1,0.2
			c0.1,0.2,0.1,0.5,0.2,0.6c0.1,0.2,0.2,0.5,0.3,0.8c0,0,0.1,0.1,0.1,0.2c0.5,1.1,0.9,2.2,1.6,3.1l0.2,0.4c0.1,0.1,0.1,0.2,0.3,0.4
			c0.2,0.2,0.3,0.5,0.5,0.8c0.2,0.2,0.4,0.4,0.5,0.6c0,0,0.1,0.1,0.1,0.1c0.1,0.1,0.1,0.2,0.2,0.3l0.3,0.3c0.8,1,1.7,1.8,2.7,2.6
			c0.2,0.2,0.4,0.3,0.6,0.5c0.2,0.2,0.4,0.3,0.6,0.4c0.1,0,0.1,0.1,0.2,0.1c0.3,0.2,0.7,0.5,1,0.7c0.2,0.1,0.4,0.2,0.6,0.3
			c0.2,0.1,0.3,0.2,0.5,0.3c0.1,0,0.2,0.1,0.4,0.2c0.3,0.1,0.5,0.3,0.8,0.4c0.2,0.1,0.5,0.2,0.8,0.4l1.7,0.6
			c0.3,0.1,0.5,0.1,0.7,0.2c0,0,0.2,0.1,0.3,0.1c0.2,0,0.4,0.1,0.6,0.1l0.9,0.2c0.3,0,0.5,0.1,0.9,0.1l1.2,0.1c0.1,0,0.2,0,0.4,0
			c0.3,0,0.7,0,1,0c0.2,0,0.4,0,0.6,0c0.1,0,0.2,0,0.4,0c0.3,0,0.7,0,0.9-0.1c0.3,0,0.6-0.1,0.8-0.1l0.2,0c0,0,0.2,0,0.2,0
			l92.3-13.3l4.2-0.6c2-0.3,4-0.4,5.8-0.5c7.9-0.3,15.7,0.7,23.1,3.1c7.5,2.4,14.4,5.9,20.7,10.6c6.3,4.7,11.6,10.4,16,16.9
			c4.3,6.5,7.5,13.7,9.4,21.3c0.4,1.7,0.9,3.7,1.2,5.7l0.2,1.4l0.5,4.3c0.1,0.7,0.1,1.5,0.1,2.2l0.1,3.5c0,0.7,0,1.4-0.1,2.1
			l-0.1,1.6c0,0.7-0.1,1.4-0.1,2.1c-0.7,7.8-2.8,15.6-6.1,22.7c-0.3,0.7-0.6,1.3-0.9,1.9l-0.6,1.2c-0.4,0.7-0.7,1.4-1.1,2l-2.3,3.8
			c-0.2,0.3-0.4,0.6-0.6,0.8l-2,2.7c-0.4,0.5-0.8,1.1-1.3,1.6l-1.1,1.4c-0.4,0.5-0.8,1-1.3,1.5l-2,2.1c-0.6,0.7-1.3,1.3-2.1,2
			c-0.7,0.7-1.4,1.3-2.1,1.9l-2.3,1.8c-0.7,0.6-1.5,1.2-2.3,1.7l-2.4,1.7c-0.5,0.4-1.1,0.7-1.7,1.1l-1.5,0.9c-0.6,0.3-1.1,0.7-1.7,1
			l-2.6,1.4c-0.8,0.4-1.7,0.8-2.6,1.2l-2.7,1.1l-2.8,1c-0.8,0.3-1.8,0.6-2.7,0.9l-2.9,0.8c-0.6,0.2-1.3,0.3-1.9,0.4l-1.7,0.4
			c-0.7,0.1-1.3,0.3-2,0.4l-2.9,0.4c-7.6,0.9-15.7,0.5-23.4-1.3l-1.5-0.3l-5.6-1.7l-4.1-1.6l-5.2-2.5c-0.7-0.4-1.3-0.8-2-1.1
			l-40.1-25.2c-0.3-0.2-0.4-0.2-0.6-0.3l-0.3-0.2c-0.3-0.2-0.7-0.4-1-0.6c-0.2-0.1-0.4-0.2-0.6-0.3c-0.1,0-0.1-0.1-0.2-0.1
			c-0.2-0.1-0.4-0.2-0.6-0.3c-0.4-0.2-0.7-0.3-1-0.4c-0.4-0.2-0.7-0.3-1.1-0.4c-0.2-0.1-0.4-0.1-0.7-0.2c-0.2,0-0.4-0.1-0.6-0.1
			c-0.4-0.1-0.8-0.2-1-0.2c-0.4-0.1-0.8-0.1-1.2-0.2c-0.2,0-0.4,0-0.7-0.1c-0.2,0-0.4,0-0.6,0c-0.4,0-0.8-0.1-1.1,0
			c-0.4,0-0.8,0-1.2,0c-0.2,0-0.4,0-0.7,0c-0.2,0-0.4,0-0.6,0.1c-0.4,0-0.8,0.1-1.2,0.2c-1.4,0.2-2.6,0.5-3.6,0.9
			c-1.1,0.4-2.3,0.8-3.4,1.5c-1.3,0.7-2.2,1.3-3.1,2c-1,0.9-1.9,1.6-2.6,2.5c-0.9,1-1.6,1.9-2.2,2.9c-0.6,1-1.2,2-1.6,3.1
			c-0.1,0.2-0.2,0.4-0.3,0.7c0,0.1-0.1,0.2-0.1,0.3l-0.1,0.2c-0.1,0.2-0.2,0.4-0.4,1l-0.3,0.9c-0.1,0.2-0.1,0.5-0.2,0.7l-0.1,0.2
			c-0.3,1.4-0.5,2.5-0.6,3.6c-0.1,1.2-0.1,2.4,0,3.6c0.1,1.1,0.3,2.3,0.7,3.6c0.6,2.3,1.7,4.5,3.1,6.6c1.3,1.9,3,3.6,5.1,5.2
			c2.2,1.5,4.3,2.5,6.5,3.1l5.6,1.7c0.3,0.1,0.6,0.2,0.8,0.3l4.4,1.6l3.9,1.8c0.7,0.3,1.4,0.7,2.1,1.1l2.8,1.6
			c6.5,3.8,12.4,8.6,17.5,14.5c5,5.7,9.1,12.1,12.1,19.1c3,6.9,4.9,14.2,5.7,21.7l0.2,1.4l0.2,4.3c0,0.6,0,1.3,0,1.9l0,1.6
			c0,0.7,0,1.4,0,2.1l-0.2,3.3c-0.1,0.8-0.1,1.6-0.2,2.4l-0.1,1.1c-0.2,1.5-0.4,3.1-0.8,4.6c-1.5,7.5-4.2,14.7-7.9,21.3
			c-3.6,6.4-8.4,12.4-14,17.6l-2.1,1.9l-4.8,4l-5.2,4.2c-0.7,0.6-1.5,1.1-2.2,1.6c-6.1,4.3-12.7,7.7-19.6,10
			c-7.1,2.4-14.4,3.8-21.6,4c-7.5,0.3-14.8-0.4-21.9-2.2c-7.3-1.8-14.1-4.6-20.4-8.3c-0.6-0.4-1.2-0.7-1.9-1.1l-4.5-3
			c-0.4-0.3-0.8-0.6-1.2-0.9L51.8,243.5c-0.5-0.4-1.2-0.3-1.6,0.1l-1,1.2c-0.2,0.2-0.3,0.5-0.3,0.8c0,0.3,0.2,0.6,0.4,0.8
			l125.1,107.4l2.1,1.8c0.5,0.4,0.9,0.8,1.5,1.2l1.7,1.2l3,1.9c0.7,0.4,1.3,0.8,2,1.2c6.5,3.9,13.7,6.8,21.4,8.7
			c6.3,1.6,12.9,2.4,19.5,2.4c1.1,0,2.3,0,3.4-0.1c7.6-0.3,15.2-1.7,22.7-4.2c7.2-2.4,14.1-5.9,20.6-10.5l0.2-0.1
			c0.7-0.5,1.4-1,2.1-1.6l8.3-6.7l4-3.5c6-5.5,10.9-11.7,14.8-18.5c3.9-7,6.8-14.5,8.4-22.4c0.4-1.6,0.6-3.3,0.8-4.9l0.1-1
			c0.1-0.8,0.2-1.7,0.3-2.6l0.2-3.4c0-0.8,0-1.5,0-2.3l0-1.6c0-0.7,0-1.4,0-2.1l-0.2-2.9l-0.3-2.9c-0.9-7.9-2.9-15.5-6-22.8
			c-3.2-7.3-7.5-14-12.7-20c-5.4-6.2-11.6-11.3-18.5-15.3l-2.9-1.6c-0.8-0.4-1.6-0.8-2.4-1.2l-4.1-1.9l-4.5-1.7
			c-0.3-0.1-0.7-0.2-1-0.3l-5.7-1.7c-1.8-0.5-3.6-1.3-5.4-2.6c-1.7-1.3-3.1-2.7-4.2-4.3c-1.2-1.7-2.1-3.6-2.6-5.5
			c-0.3-1.1-0.5-2-0.6-2.9c-0.1-1-0.1-2,0-3c0-0.9,0.2-1.8,0.5-2.9l0.1-0.3c0-0.1,0.1-0.3,0.1-0.5l0.3-0.9c0.2-0.5,0.2-0.7,0.3-0.8
			l0.1-0.2c0.1-0.1,0.1-0.3,0.1-0.4c0-0.1,0.1-0.2,0.2-0.4c0.4-0.9,0.9-1.8,1.4-2.7c0.5-0.7,1-1.5,1.8-2.3c0.6-0.6,1.3-1.3,2.2-2
			c0.8-0.7,1.7-1.2,2.5-1.7c0.9-0.5,1.9-0.9,2.8-1.2c0.8-0.3,1.8-0.5,3-0.7c0.3-0.1,0.6-0.1,0.9-0.1c0.2,0,0.4,0,0.5-0.1
			c0.2,0,0.5,0,0.7,0c0.3,0,0.6,0,1,0c0.3,0,0.5,0,0.8,0c0.2,0,0.4,0,0.6,0c0.2,0,0.4,0.1,0.6,0.1c0.3,0,0.6,0.1,1,0.2
			c0.3,0,0.5,0.1,0.8,0.2c0.2,0.1,0.4,0.1,0.6,0.1c0.2,0.1,0.4,0.1,0.6,0.2c0.3,0.1,0.5,0.2,0.9,0.3c0.2,0.1,0.5,0.2,0.7,0.3
			c0.2,0.1,0.4,0.2,0.6,0.3c0.2,0.1,0.4,0.2,0.6,0.3c0.2,0.1,0.5,0.2,0.8,0.4l0.5,0.3c0.1,0,0.1,0.1,0.4,0.2l37.3,23.6l2.9,1.7
			c0.7,0.4,1.4,0.8,2.2,1.3l4.1,2l5.7,2.3l4.4,1.4l3,0.8c8.2,1.9,16.8,2.4,24.8,1.4l3-0.4c0.7-0.1,1.5-0.3,2.2-0.4l1.8-0.4
			c0.7-0.1,1.4-0.3,2.1-0.5l2.9-0.8c1-0.3,1.9-0.6,3-1l2.9-1l2.8-1.2c0.9-0.4,1.9-0.8,2.8-1.3l2.7-1.4c0.6-0.3,1.3-0.7,1.9-1.1
			l1.5-0.9c0.6-0.4,1.2-0.7,1.8-1.2l2.5-1.7c0.9-0.6,1.7-1.3,2.5-1.9l2.4-1.9c0.8-0.7,1.5-1.3,2.3-2.1c0.7-0.7,1.5-1.3,2.1-2.1
			l2.1-2.2c0.5-0.5,1-1.1,1.4-1.6l1.2-1.4c0.5-0.6,1-1.1,1.4-1.7l2-2.8c0.2-0.3,0.4-0.6,0.7-1l2.4-3.9c0.4-0.7,0.8-1.4,1.2-2.2
			l0.7-1.3c0.4-0.7,0.7-1.4,1-2.1c3.5-7.5,5.7-15.7,6.4-23.9c0.1-0.8,0.1-1.5,0.1-2.3l0.1-1.6c0-0.8,0.1-1.5,0.1-2.3L416.6,141.3z"
			/>
		<path class="st19" d="M180.1,351.2c0.4,0.4,0.8,0.7,1.3,1l1.5,1l2.8,1.8c0.6,0.4,1.2,0.8,1.8,1.1c6.1,3.6,12.8,6.3,19.9,8.1
			c5.9,1.5,12,2.2,18.2,2.2c1.1,0,2.1,0,3.2-0.1c7.1-0.3,14.2-1.6,21.1-3.9c6.7-2.2,13.1-5.5,19.1-9.7l0.5-0.3
			c0.6-0.4,1.1-0.8,1.7-1.3l8.1-6.6l3.8-3.3c5.5-5.1,10.2-10.9,13.7-17.2c7.3-12.9,10.4-28,8.7-42.6c-0.8-7.3-2.7-14.4-5.6-21.1
			c-3-6.8-6.9-13-11.8-18.6c-5-5.7-10.7-10.5-17.1-14.1l-2.7-1.5c-0.7-0.4-1.4-0.8-2.1-1.1l-3.8-1.7l-4.2-1.6
			c-0.3-0.1-0.6-0.2-0.9-0.3l-5.5-1.6c-2.4-0.7-4.8-1.8-7.1-3.4c-2.3-1.7-4.1-3.6-5.6-5.6c-1.6-2.3-2.7-4.7-3.4-7.2
			c-0.4-1.4-0.6-2.7-0.7-3.9c-0.1-1.3-0.1-2.6,0-4c0.1-1.2,0.3-2.5,0.6-3.9l0.1-0.3c0-0.2,0.1-0.4,0.2-0.7l0.3-1.1
			c0.2-0.5,0.2-0.7,0.3-0.9l0.1-0.3c0.1-0.1,0.1-0.3,0.2-0.5c0-0.2,0.1-0.3,0.2-0.5c0.5-1.3,1.2-2.5,1.8-3.5c0.6-1,1.4-2,2.4-3.1
			c3.5-3.9,8.5-6.6,13.8-7.4c0.4-0.1,0.9-0.1,1.3-0.2l0.6-0.1c0.3,0,0.5,0,0.8,0c0.4,0,0.8,0,1.3,0c0.4,0,0.8,0,1.2,0.1
			c0.3,0,0.6,0,0.7,0c0.2,0,0.5,0.1,0.7,0.1c0.4,0.1,0.8,0.1,1.3,0.2c0.4,0.1,0.8,0.2,1.2,0.3c0.3,0.1,0.5,0.1,0.6,0.2
			c0.2,0.1,0.5,0.2,0.7,0.2c0.4,0.1,0.8,0.2,1.3,0.4c0.4,0.1,0.7,0.3,1.1,0.4c0.3,0.1,0.5,0.2,0.6,0.3c0.3,0.1,0.5,0.3,0.8,0.4
			c0.3,0.2,0.7,0.3,1.1,0.6l0.6,0.3c0.1,0.1,0.2,0.1,0.4,0.3l37.3,23.6l2.8,1.6c0.7,0.4,1.3,0.8,2,1.1l3.7,1.8l5.3,2.2l4,1.3
			l2.8,0.7c7.5,1.8,15.4,2.2,22.8,1.3l2.8-0.4c0.7-0.1,1.3-0.2,2-0.4l1.7-0.3c0.7-0.1,1.3-0.3,1.9-0.4l2.7-0.7
			c1-0.3,1.9-0.6,2.7-0.9l2.7-1l2.6-1.1c0.8-0.4,1.7-0.7,2.6-1.2l2.5-1.3c0.6-0.3,1.1-0.6,1.7-1l1.5-0.9c0.6-0.3,1.1-0.7,1.7-1.1
			l2.3-1.6c0.8-0.5,1.6-1.2,2.3-1.7l2.2-1.8l2.2-2c0.6-0.6,1.3-1.2,1.9-1.9l1.9-2c0.5-0.5,0.9-1,1.3-1.5l1.1-1.3
			c0.4-0.5,0.9-1,1.3-1.6l1.9-2.6c0.2-0.3,0.4-0.5,0.6-0.9l2.3-3.6c0.4-0.6,0.7-1.3,1.1-2l0.6-1.2c0.3-0.6,0.7-1.3,0.9-1.9
			c3.2-6.9,5.3-14.5,5.9-22c0.1-0.7,0.1-1.4,0.1-2.1l0.1-1.6c0-0.7,0.1-1.4,0.1-2.1l-0.1-3.4c0-0.8,0-1.5-0.1-2.2l-0.3-2.7l-0.4-2.8
			c-0.3-1.9-0.7-3.8-1.1-5.6c-1.9-7.4-4.9-14.4-9.1-20.7c-4.2-6.3-9.4-11.9-15.5-16.4c-6.1-4.6-12.9-8-20.1-10.3
			c-7.2-2.3-14.8-3.3-22.5-3c-1.8,0.1-3.7,0.2-5.6,0.5l-95.3,13.7l-1.6,0.2c-0.4,0-0.7,0.1-1.2,0.1c-0.2,0-0.3,0-0.5,0
			c-0.2,0-0.3,0-0.4,0c-0.2,0-0.3,0-0.5,0c-0.2,0-0.3,0-0.5,0c-0.4,0-0.7,0-1.1,0l-0.2,0c-0.1,0-0.1,0-0.2,0l-1.5-0.1
			c-0.4-0.1-0.7-0.1-1.1-0.2l-1.8-0.4c-0.3-0.1-0.7-0.2-1-0.3l-0.9-0.3c-4.9-1.7-9.3-5.3-12.1-9.9c-0.7-1.1-1.2-2.3-1.8-3.5
			c-0.1-0.3-0.2-0.7-0.4-1.1c-0.1-0.1-0.1-0.3-0.1-0.4c0-0.2-0.1-0.3-0.1-0.5c-0.1-0.4-0.2-0.8-0.3-1.2c-0.1-0.2-0.1-0.5-0.2-0.6
			c-0.2-1.3-0.5-2.6-0.5-4c0-0.4,0-0.7,0-1.1c0-0.3,0-0.6,0-0.8c0-0.2,0-0.3,0-0.5c0-0.2,0-0.3,0-0.4c0-0.1,0-0.3,0-0.4
			c0-0.2,0-0.3,0.1-0.6l0.1-0.6c0.1-0.4,0.1-0.9,0.3-1.3c1.8-6.4,5.9-18.3,7.6-23.2l0.1-0.3c0.2-0.6-0.1-1.2-0.7-1.4l-1.5-0.5
			c-0.3-0.1-0.6-0.1-0.8,0.1c-0.3,0.1-0.5,0.4-0.6,0.6c-0.8,2.3-1.6,4.6-2.4,6.9c-1.9,5.5-3.9,11.1-5.4,16.8
			c-0.2,0.6-0.2,1.1-0.3,1.7l-0.1,0.6c-0.1,0.3-0.1,0.6-0.1,0.9l0,0.4c0,0.1,0,0.3,0,0.4c0,0.3-0.1,0.5-0.1,0.8c0,0.3,0,0.5,0,0.8
			c0,0.5,0,1,0,1.4c0,1.5,0.2,2.9,0.6,4.6c0.1,0.2,0.1,0.5,0.2,0.7c0.1,0.5,0.2,1,0.4,1.5c0,0.1,0.1,0.2,0.1,0.3
			c0.1,0.3,0.2,0.5,0.2,0.7c0.1,0.3,0.3,0.7,0.4,1.1c0.6,1.4,1.2,2.8,2.1,4.1c3.3,5.4,8.4,9.5,14,11.5l1.1,0.4
			c0.3,0.1,0.7,0.2,1.1,0.3l2.2,0.5c0.3,0.1,0.7,0.1,1.1,0.2l1.6,0.1c0.2,0,0.3,0,0.5,0l0.2,0c0.4,0,0.7,0,1.1,0c0.3,0,0.5,0,0.8,0
			c0.1,0,0.3,0,0.5,0c0.1,0,0.2,0,0.4,0c0.3,0,0.6,0,0.8-0.1c0.4,0,0.7-0.1,1.1-0.1l0.3,0c0,0,0.1,0,0.2,0l92.3-13.3l4.1-0.6
			c1.7-0.2,3.3-0.3,5.3-0.4c7.2-0.3,14.4,0.7,21.2,2.8c6.9,2.2,13.2,5.4,19,9.7c5.7,4.3,10.7,9.5,14.7,15.5c4,6,6.9,12.6,8.6,19.6
			c0.4,1.7,0.8,3.5,1.1,5.3l0.6,5.3c0.1,0.7,0.1,1.3,0.1,2l0.1,3.3c0,0.6,0,1.2-0.1,1.8l-0.1,1.6c0,0.6-0.1,1.3-0.1,1.9
			c-0.6,7.1-2.6,14.3-5.6,20.8c-0.2,0.6-0.5,1.1-0.8,1.7l-0.7,1.3c-0.3,0.6-0.6,1.2-0.9,1.7l-2.2,3.5c-0.2,0.3-0.3,0.5-0.5,0.7
			l-1.8,2.5c-0.4,0.5-0.7,0.9-1.1,1.4l-0.5,0.6c-0.2,0.2-0.4,0.5-0.6,0.7c-0.4,0.5-0.7,0.9-1.2,1.3l-1.9,2c-0.6,0.6-1.2,1.1-1.8,1.7
			l-2.1,1.9l-2.1,1.7c-0.7,0.5-1.4,1.1-2.1,1.6l-2.2,1.5c-0.5,0.3-1,0.6-1.5,1l-1.4,0.9c-0.5,0.3-1,0.6-1.5,0.9l-2.4,1.2
			c-0.7,0.4-1.5,0.7-2.4,1.1l-2.4,1l-2.6,0.9c-0.8,0.3-1.6,0.6-2.5,0.8l-2.6,0.7c-0.6,0.2-1.2,0.3-1.7,0.4l-1.7,0.3
			c-0.6,0.1-1.2,0.2-1.8,0.3l-2.7,0.4c-6.9,0.9-14.3,0.4-21.5-1.2l-1.3-0.3l-5.1-1.6l-3.8-1.5l-4.8-2.3c-0.6-0.3-1.2-0.7-1.8-1
			l-40-25.1c-0.3-0.2-0.4-0.2-0.6-0.4l-0.4-0.3c-0.4-0.3-0.9-0.5-1.3-0.7c-0.2-0.1-0.5-0.2-0.9-0.4c-0.2-0.1-0.5-0.2-0.7-0.3
			c-0.5-0.2-0.9-0.4-1.3-0.5c-0.5-0.2-1-0.4-1.5-0.5c-0.2-0.1-0.4-0.1-0.8-0.2c-0.2-0.1-0.5-0.1-0.7-0.2c-0.5-0.1-1-0.3-1.4-0.3
			c-0.5-0.1-1-0.2-1.6-0.3c-0.2,0-0.5-0.1-0.8-0.1c-0.2,0-0.5,0-0.7,0c-0.5,0-1-0.1-1.5-0.1c-0.5,0-1,0-1.6,0c-0.2,0-0.5,0-0.8,0
			l-0.7,0.1c-0.5,0.1-1.1,0.1-1.6,0.2c-6.1,0.9-11.9,4.1-16,8.6c-1.1,1.3-2,2.4-2.8,3.6c-0.7,1.2-1.5,2.5-2.1,4
			c-0.1,0.2-0.2,0.5-0.3,0.8c0,0.1-0.1,0.2-0.1,0.4l-0.1,0.3c-0.1,0.2-0.2,0.5-0.4,1.1l-0.3,1.1c-0.1,0.3-0.2,0.6-0.2,0.9L232,191
			c-0.4,1.7-0.6,3.2-0.7,4.5c-0.1,1.5-0.1,3.1,0.1,4.6c0.1,1.4,0.4,2.9,0.9,4.5c0.8,2.9,2.1,5.7,3.9,8.3c1.7,2.4,3.8,4.6,6.5,6.6
			c2.7,1.8,5.4,3.2,8.3,3.9l5.4,1.6c0.3,0.1,0.5,0.2,0.8,0.3l4,1.5l3.6,1.7c0.7,0.3,1.3,0.6,2,1l2.6,1.5c6,3.5,11.4,8,16.1,13.4
			c4.6,5.3,8.4,11.2,11.2,17.6c2.7,6.4,4.5,13.1,5.3,20c1.6,13.8-1.3,28.2-8.3,40.4c-3.3,5.9-7.7,11.4-13,16.2l-1.9,1.7l-4.7,3.9
			l-5,4.1c-0.6,0.4-1.2,0.9-1.8,1.3l-0.3,0.2c-5.7,4-11.8,7.1-18.2,9.2c-6.6,2.2-13.3,3.5-20,3.7c-6.9,0.3-13.8-0.4-20.3-2
			c-6.8-1.7-13.1-4.3-18.9-7.7c-0.6-0.3-1.1-0.7-1.7-1l-4.1-2.8c-0.4-0.2-0.7-0.5-1.2-0.9l-127-109c-0.5-0.4-1.2-0.3-1.6,0.1l-1,1.2
			c-0.2,0.2-0.3,0.5-0.3,0.8c0,0.3,0.2,0.6,0.4,0.8L180.1,351.2z"/>
		<path class="st19" d="M164.4,330.2l19.3,16.6c0.4,0.3,0.8,0.7,1.2,0.9l3.9,2.6c0.5,0.3,1.1,0.7,1.6,1c5.6,3.3,11.8,5.8,18.4,7.5
			c5.4,1.4,11.1,2,16.8,2c1,0,2,0,2.9-0.1c13.2-0.5,26.4-5,37.2-12.7l0.5-0.4c0.5-0.4,1-0.7,1.5-1.1l7.9-6.4l3.6-3.1
			c5.1-4.7,9.4-10,12.6-15.8c6.7-11.9,9.6-25.8,8-39.2c-0.7-6.7-2.5-13.3-5.1-19.5c-2.7-6.2-6.4-12-10.9-17.1
			c-4.6-5.2-9.9-9.6-15.7-13l-2.5-1.4c-0.6-0.4-1.3-0.7-1.9-1l-3.5-1.6l-3.9-1.5c-0.3-0.1-0.6-0.2-0.8-0.3l-5.2-1.5
			c-3-0.8-6-2.3-8.8-4.2c-2.8-2-5.1-4.4-6.9-7c-1.9-2.8-3.4-5.8-4.2-8.9c-0.5-1.7-0.8-3.3-0.9-4.8c-0.2-1.6-0.2-3.3-0.1-4.9
			c0.1-1.5,0.3-3.1,0.8-4.8l0.1-0.3c0.1-0.3,0.1-0.5,0.2-0.9l0.4-1.3c0.2-0.5,0.3-0.7,0.4-1l0.1-0.3c0.1-0.2,0.1-0.3,0.2-0.5
			c0.1-0.2,0.1-0.4,0.3-0.7c0.5-1.3,1.2-2.7,2.3-4.4c0.8-1.3,1.8-2.6,3-3.9c4.3-4.8,10.6-8.2,17.1-9.2c0.6-0.1,1.2-0.2,1.8-0.2
			l0.6-0.1c0.3,0,0.5,0,0.8,0c0.6,0,1.1-0.1,1.7,0c0.5,0,1.1,0,1.6,0.1c0.3,0,0.6,0,0.7,0l0.8,0.1c0.6,0.1,1.1,0.1,1.7,0.3
			c0.5,0.1,1,0.2,1.5,0.3c0.3,0.1,0.6,0.1,0.7,0.2l0.8,0.2c0.5,0.2,1.1,0.3,1.7,0.6c0.5,0.2,1,0.4,1.4,0.6c0.3,0.1,0.6,0.3,0.7,0.3
			c0.3,0.2,0.6,0.3,0.9,0.5c0.4,0.2,0.9,0.5,1.4,0.8l0.7,0.4c0.1,0.1,0.2,0.1,0.5,0.3l37.3,23.6l2.7,1.6c0.5,0.3,1.1,0.6,1.7,1
			l3.4,1.7l4.9,2l3.7,1.2l2.6,0.7c6.9,1.6,14.1,2,20.8,1.2l2.5-0.3c0.6-0.1,1.2-0.2,1.8-0.3l1.6-0.3c0.6-0.1,1.2-0.2,1.8-0.4
			l2.4-0.7c0.9-0.2,1.7-0.5,2.5-0.8l2.5-0.9l2.3-1c0.8-0.3,1.6-0.7,2.4-1.1l2.2-1.2c0.5-0.3,1.1-0.6,1.6-0.9l1.4-0.8
			c0.5-0.3,1-0.6,1.5-1l2.1-1.4c0.8-0.5,1.5-1.1,2.1-1.6l2-1.6l2-1.8c0.6-0.6,1.2-1.1,1.7-1.7l1.7-1.8c0.4-0.4,0.8-0.9,1.2-1.4
			l1-1.2c0.4-0.5,0.8-0.9,1.1-1.4l1.7-2.4c0.2-0.2,0.4-0.5,0.5-0.8l2.1-3.3c0.3-0.6,0.6-1.1,0.9-1.7l0.7-1.2
			c0.3-0.6,0.6-1.2,0.8-1.7c2.9-6.3,4.8-13.2,5.4-20.1c0.1-0.6,0.1-1.2,0.1-1.8l0.1-1.6c0-0.6,0.1-1.2,0-1.8l-0.1-3.1
			c0-0.7,0-1.4-0.1-2l-0.3-2.5l-0.3-2.5c-0.3-1.8-0.7-3.5-1-5.1c-1.7-6.8-4.5-13.2-8.4-19c-3.9-5.8-8.6-10.8-14.2-15
			c-5.6-4.2-11.8-7.3-18.4-9.4c-6.6-2.1-13.5-3-20.6-2.7c-1.6,0.1-3.4,0.2-5.1,0.4l-95.2,13.6l-3,0.4c-0.2,0-0.4,0-0.7,0
			c-0.2,0-0.4,0-0.5,0c-0.2,0-0.4,0-0.6,0c-0.2,0-0.5,0-0.7,0l-1.5,0c0,0,0,0,0,0c-0.1,0-0.2,0-0.3,0l-1.8-0.2l-3.6-0.7l-1.2-0.4
			l-1.2-0.4c-6.1-2.1-11.5-6.6-15-12.3c-0.8-1.3-1.5-2.7-2.2-4.4l-0.5-1.3c-0.1-0.2-0.1-0.4-0.2-0.6c0-0.2-0.1-0.4-0.2-0.5
			c-0.2-0.5-0.3-1.1-0.4-1.6c-0.1-0.3-0.1-0.5-0.2-0.7c-0.3-1.5-0.6-3.2-0.6-4.9c0-0.5,0-1,0-1.5c0-0.3,0-0.6,0-0.9
			c0-0.2,0-0.4,0.1-0.7c0-0.2,0-0.4,0-0.5c0-0.2,0-0.3,0-0.5c0-0.2,0-0.5,0.1-0.7l0.1-0.7c0.1-0.6,0.2-1.2,0.3-1.8
			c0-0.2,0.1-0.4,0.1-0.5c0-0.2,0.1-0.4,0.2-0.7c1.6-5.4,3.5-10.8,5.3-16.1c0.8-2.2,1.5-4.5,2.3-6.7c0.2-0.6-0.1-1.2-0.7-1.4
			l-1.5-0.5c-0.3-0.1-0.6-0.1-0.8,0.1c-0.3,0.1-0.5,0.4-0.6,0.6c-0.8,2.3-1.6,4.7-2.4,7c-2,5.6-4,11.4-5.5,17.3
			c-0.2,0.7-0.3,1.4-0.4,2.1l-0.1,0.6c-0.1,0.3-0.1,0.7-0.1,1l0,0.4c0,0.2,0,0.3,0,0.5c0,0.3-0.1,0.6-0.1,0.9c0,0.3,0,0.6,0,0.9
			c0,0.6,0,1.2,0,1.8c0,1.8,0.3,3.5,0.7,5.6l0.2,0.8c0.1,0.6,0.3,1.3,0.5,1.9c0,0.1,0.1,0.3,0.1,0.4c0.1,0.3,0.2,0.6,0.3,0.9
			l0.5,1.3c0.7,1.6,1.5,3.4,2.5,5c3.9,6.4,10.1,11.5,17,13.9l0.7,0.3c0.1,0,0.3,0.1,0.4,0.1l1.6,0.5l1.3,0.3l2.8,0.5l2,0.2
			c0.2,0,0.4,0,0.5,0l1.6,0c0.3,0,0.6,0,0.9,0c0.2,0,0.3,0,0.5,0c0.1,0,0.3,0,0.4,0c0.3,0,0.7,0,1-0.1l94.2-13.5l4-0.6
			c1.6-0.2,3.3-0.3,4.8-0.4c6.6-0.2,13.1,0.6,19.3,2.6c6.2,2,12.1,4.9,17.3,8.9c5.2,3.9,9.7,8.7,13.3,14.1
			c3.6,5.4,6.2,11.4,7.8,17.8c0.3,1.4,0.7,3.1,1,4.8l0.6,4.8c0.1,0.6,0.1,1.2,0.1,1.8l0.1,3c0,0.5,0,1.1,0,1.6l-0.1,1.5
			c0,0.6,0,1.1-0.1,1.7c-0.6,6.5-2.3,13-5.1,18.9c-0.2,0.5-0.5,1-0.8,1.5l-0.6,1.2c-0.3,0.5-0.5,1-0.8,1.5l-2,3.1
			c-0.1,0.2-0.3,0.4-0.5,0.7l-1.7,2.3c-0.3,0.4-0.7,0.8-1,1.3l-0.5,0.6c-0.2,0.2-0.4,0.4-0.5,0.7c-0.3,0.4-0.7,0.8-1,1.2l-1.7,1.8
			c-0.5,0.5-1,1-1.6,1.5l-1.9,1.8l-1.9,1.5c-0.6,0.5-1.2,1-1.9,1.4l-2,1.4c-0.4,0.3-0.9,0.6-1.3,0.8l-0.7,0.4
			c-0.2,0.1-0.5,0.3-0.7,0.4c-0.4,0.3-0.9,0.5-1.4,0.8l-2.2,1.1c-0.7,0.4-1.4,0.7-2.2,1l-2.2,0.9l-2.4,0.8c-0.7,0.3-1.5,0.5-2.3,0.7
			L358,200c-0.5,0.1-1,0.2-1.5,0.4c-0.3,0.1-0.5,0.1-0.8,0.2l-0.8,0.2c-0.5,0.1-1.1,0.2-1.6,0.3l-2.5,0.3c-6.3,0.8-13,0.4-19.5-1.1
			l-1.2-0.3l-4.6-1.4l-3.4-1.4l-4.3-2.1c-0.5-0.3-1-0.6-1.6-0.9l-39.8-25.1c-0.2-0.2-0.4-0.2-0.6-0.3l-0.7-0.4
			c-0.5-0.3-1.1-0.6-1.6-0.9c-0.3-0.1-0.6-0.3-0.9-0.5c-0.3-0.1-0.5-0.2-0.8-0.4c-0.6-0.3-1.1-0.5-1.7-0.7c-0.6-0.3-1.3-0.5-1.9-0.7
			l-0.8-0.3c-0.3-0.1-0.5-0.1-0.8-0.2c-0.6-0.2-1.2-0.3-1.8-0.4c-0.6-0.1-1.3-0.2-2-0.3L261,164c-0.7,0-1.3-0.1-1.9-0.1
			c-0.7,0-1.3,0-2,0l-1.6,0.1c-0.7,0.1-1.4,0.1-2,0.3c-7.4,1.1-14.4,4.9-19.3,10.4c-1.3,1.5-2.4,2.9-3.4,4.4
			c-1.1,1.9-1.9,3.4-2.5,4.9c-0.1,0.3-0.3,0.6-0.4,0.9c-0.1,0.1-0.1,0.3-0.2,0.5l-0.1,0.4c-0.1,0.3-0.2,0.6-0.4,1.2l-0.4,1.3
			c-0.1,0.4-0.2,0.7-0.3,1.1l-0.1,0.3c-0.5,2-0.8,3.8-0.9,5.5c-0.1,1.9-0.1,3.7,0.1,5.5c0.2,1.8,0.5,3.6,1,5.5
			c1,3.5,2.5,6.9,4.7,10.1c2,3,4.7,5.6,7.8,7.9c3.2,2.2,6.6,3.8,10,4.8l5.1,1.5c0.2,0.1,0.5,0.2,0.7,0.2l2.6,1l4.4,1.9
			c0.6,0.3,1.2,0.6,1.7,0.9l2.5,1.4c5.4,3.2,10.4,7.3,14.7,12.2c4.2,4.8,7.7,10.2,10.2,16.1c2.5,5.8,4.2,12,4.8,18.4
			c1.5,12.7-1.2,25.8-7.6,37c-3.1,5.4-7.1,10.4-11.9,14.9l-1.8,1.6l-4.6,3.8l-4.8,3.9c-0.5,0.4-0.9,0.7-1.4,1l-0.5,0.4
			c-10.2,7.2-22.7,11.5-35.2,12c-6.4,0.3-12.7-0.4-18.7-1.9c-6.2-1.6-12.1-3.9-17.4-7.1c-0.5-0.3-1-0.6-1.5-0.9l-3.8-2.5
			c-0.3-0.2-0.6-0.5-1-0.8L59.1,234.9c-0.5-0.4-1.2-0.3-1.6,0.1l-1,1.2c-0.2,0.2-0.3,0.5-0.3,0.8c0,0.3,0.2,0.6,0.4,0.8L164.4,330.2
			z"/>
		<path class="st19" d="M187.3,342.4c0.3,0.3,0.7,0.6,1,0.8l3.5,2.3c0.5,0.3,1,0.6,1.5,0.9c5.1,3,10.8,5.3,16.9,6.9
			c5,1.2,10.2,1.9,15.4,1.9c0.9,0,1.8,0,2.7-0.1c12.1-0.5,24.3-4.6,34.2-11.6l1.8-1.3l7.7-6.3l3.3-2.9c4.7-4.3,8.6-9.2,11.5-14.4
			c6.1-10.8,8.7-23.6,7.3-35.8c-0.7-6.1-2.3-12.1-4.7-17.8c-2.5-5.7-5.8-10.9-9.9-15.6c-4.2-4.8-9-8.8-14.3-11.9l-2.3-1.3
			c-0.6-0.3-1.2-0.6-1.7-0.9l-3.2-1.5l-3.5-1.3c-0.3-0.1-0.5-0.2-0.8-0.3l-5-1.5c-3.7-1-7.2-2.7-10.6-5.1c-3.3-2.4-6.1-5.2-8.3-8.4
			c-4.5-6.4-6.8-14.6-6.2-22.3c0.1-1.8,0.4-3.7,0.9-5.8l0.1-0.4c0.1-0.3,0.2-0.7,0.3-1.1l0.5-1.5c0.1-0.4,0.3-0.8,0.4-1.1l0.2-0.4
			c0.1-0.2,0.1-0.4,0.2-0.6c0.1-0.3,0.2-0.5,0.3-0.8c0.7-1.6,1.5-3.3,2.7-5.2c1-1.6,2.2-3.1,3.6-4.7c5.2-5.8,12.6-9.8,20.4-11
			c0.7-0.1,1.5-0.2,2.2-0.3l1.5-0.1c0.7,0,1.4-0.1,2.2,0c0.7,0,1.4,0,2.1,0.1l1.6,0.2c0.7,0.1,1.4,0.2,2.2,0.3
			c0.7,0.1,1.3,0.3,2,0.4l1.6,0.4c0.7,0.2,1.4,0.4,2.1,0.7c0.6,0.2,1.2,0.5,1.8,0.7c0.3,0.1,0.6,0.3,0.8,0.4
			c0.3,0.2,0.6,0.3,0.9,0.5c0.6,0.3,1.1,0.6,1.7,0.9l0.8,0.5c0.2,0.1,0.3,0.2,0.5,0.3l37.3,23.6c0.1,0.1,0.3,0.2,0.5,0.3l2.1,1.2
			c0.5,0.3,0.9,0.5,1.5,0.8l3.1,1.5l4.4,1.8l3.3,1l2.3,0.6c6.4,1.5,12.7,1.9,18.9,1.1l2.3-0.3c0.5-0.1,1.1-0.2,1.6-0.3l0.8-0.2
			c0.2-0.1,0.5-0.1,0.7-0.2c0.5-0.1,1.1-0.2,1.6-0.4l2.2-0.6c0.8-0.2,1.5-0.5,2.3-0.7l2.2-0.8l2.2-0.9c0.7-0.3,1.4-0.6,2.1-1l2-1
			c0.5-0.2,0.9-0.5,1.4-0.8c0.2-0.1,0.4-0.3,0.7-0.4l0.7-0.4c0.5-0.3,0.9-0.5,1.4-0.9l1.9-1.3c0.7-0.4,1.3-0.9,1.9-1.4l1.8-1.5
			l1.9-1.7c0.5-0.5,1.1-1,1.6-1.5l1.6-1.7c0.4-0.4,0.7-0.8,1.1-1.2c0.2-0.2,0.3-0.4,0.5-0.6l0.5-0.6c0.3-0.4,0.7-0.8,1-1.3l1.6-2.2
			c0.2-0.2,0.3-0.5,0.5-0.7l1.9-3c0.3-0.5,0.5-0.9,0.8-1.4l0.7-1.2c0.3-0.5,0.5-1,0.8-1.5c2.7-5.8,4.3-11.9,4.9-18.2
			c0.1-0.5,0.1-1.1,0.1-1.6l0.1-1.5c0-0.5,0.1-1.1,0-1.7l-0.1-2.9c0-0.6,0-1.2-0.1-1.8l-0.2-2.3l-0.3-2.3c-0.2-1.6-0.6-3.1-0.9-4.6
			c-1.5-6.2-4.1-11.9-7.6-17.2c-3.5-5.3-7.8-9.8-12.9-13.6c-5.1-3.8-10.7-6.7-16.7-8.6c-6-1.9-12.3-2.7-18.7-2.5
			c-1.6,0.1-3.1,0.2-4.7,0.4l-95.1,13.6c-0.9,0.1-1.6,0.2-2.2,0.3c-0.3,0-0.7,0.1-1.1,0.1c-0.3,0-0.6,0-0.8,0.1c-0.2,0-0.4,0-0.5,0
			c-0.2,0-0.4,0-0.6,0c-0.3,0-0.6,0-0.9,0l-1.8,0c-0.1,0-0.3,0-0.4,0l-2.2-0.2l-1.5-0.2l-2.8-0.6l-1.5-0.4l-1.4-0.5
			c-7.3-2.5-13.8-7.9-18-14.7c-1.1-1.7-2-3.6-2.6-5.2l-0.6-1.5c-0.1-0.3-0.2-0.5-0.3-0.8c-0.1-0.2-0.1-0.4-0.2-0.6
			c-0.2-0.6-0.4-1.3-0.5-2l-0.2-0.8c-0.3-1.8-0.7-3.8-0.7-5.9c0-0.6,0-1.3,0-1.9c0-0.3,0-0.7,0-1c0-0.3,0-0.6,0.1-0.8
			c0-0.2,0-0.4,0.1-0.6l0-0.5c0-0.3,0-0.6,0.1-0.9l0.1-0.7c0.1-0.8,0.2-1.5,0.4-2.2c1.6-6,3.7-12,5.7-17.8c0.8-2.2,1.6-4.5,2.3-6.7
			c0.1-0.3,0.1-0.6-0.1-0.8c-0.1-0.3-0.4-0.5-0.6-0.6l-1.5-0.5c-0.6-0.2-1.2,0.1-1.4,0.7c-0.7,2.2-1.5,4.5-2.3,6.7
			c-2,5.9-4.2,12-5.8,18.1c-0.2,0.9-0.4,1.7-0.5,2.6l-0.1,0.6c-0.1,0.4-0.1,0.8-0.2,1.2l0,0.5c0,0.2,0,0.4-0.1,0.6
			c0,0.4-0.1,0.7-0.1,1.1c0,0.3,0,0.6,0,1c0,0.7,0,1.5,0,2.2c0,2.3,0.4,4.6,0.8,6.5l0.2,0.8c0.2,0.8,0.4,1.6,0.6,2.4
			c0.1,0.2,0.1,0.3,0.2,0.5c0.1,0.4,0.2,0.7,0.3,1l0.6,1.5c0.7,1.8,1.7,3.9,2.9,5.8c4.6,7.5,11.9,13.4,19.9,16.2l0.8,0.3
			c0.2,0.1,0.3,0.1,0.5,0.1l1.9,0.6l1.5,0.3l3.3,0.6l2.4,0.2c0.2,0,0.4,0,0.6,0l1.9,0c0.4,0,0.7,0,1.1,0l0.6,0c0.2,0,0.4,0,0.5,0
			c0.4,0,0.8,0,1.1-0.1l1-0.1c0.7-0.1,1.5-0.2,2.4-0.3L334,93.7l3.9-0.5c1.4-0.2,2.8-0.3,4.4-0.4c5.9-0.2,11.8,0.6,17.4,2.3
			c5.6,1.8,10.9,4.5,15.6,8c4.7,3.6,8.8,7.8,12,12.7c3.2,4.9,5.6,10.3,7.1,16c0.3,1.5,0.7,2.9,0.9,4.3l0.5,4.4
			c0.1,0.5,0.1,1.1,0.1,1.6l0.1,2.8c0,0.5,0,1,0,1.5l-0.1,1.4c0,0.5,0,1-0.1,1.5c-0.5,5.9-2.1,11.6-4.6,17c-0.2,0.5-0.4,0.9-0.7,1.3
			l-0.6,1.2c-0.2,0.5-0.5,0.9-0.7,1.3l-1.8,2.8c-0.1,0.2-0.3,0.4-0.4,0.6l-1.5,2.1c-0.3,0.4-0.6,0.7-0.9,1.1l-0.5,0.6
			c-0.2,0.2-0.3,0.4-0.5,0.6c-0.3,0.4-0.6,0.7-0.9,1l-1.6,1.6c-0.4,0.5-0.9,0.9-1.4,1.3l-1.8,1.6l-1.7,1.4c-0.6,0.4-1.1,0.9-1.7,1.3
			l-1.8,1.3c-0.4,0.3-0.8,0.5-1.2,0.7l-0.6,0.4c-0.2,0.1-0.4,0.3-0.7,0.4c-0.4,0.2-0.8,0.5-1.2,0.7l-2,1c-0.6,0.3-1.2,0.6-1.9,0.9
			l-2,0.9l-2.2,0.8c-0.6,0.2-1.3,0.5-2,0.6l-2.2,0.6c-0.4,0.1-0.9,0.2-1.3,0.3c-0.3,0.1-0.5,0.1-0.7,0.2l-0.8,0.2
			c-0.5,0.1-0.9,0.2-1.4,0.3l-2.2,0.3c-5.7,0.7-11.6,0.4-17.5-1c-5.6-1.3-11.1-3.7-16.1-6.8l-37.3-23.6c-0.2-0.1-0.4-0.3-0.6-0.4
			l-0.8-0.5c-0.6-0.4-1.3-0.8-2-1.1c-0.3-0.2-0.6-0.3-1-0.5c-0.3-0.1-0.6-0.3-0.9-0.4c-0.7-0.3-1.4-0.6-2-0.8
			c-0.8-0.3-1.6-0.6-2.3-0.8l-1.7-0.5c-0.7-0.2-1.5-0.4-2.3-0.5c-0.8-0.2-1.6-0.3-2.4-0.4l-1.7-0.2c-0.8-0.1-1.6-0.1-2.4-0.1
			c-0.8,0-1.7,0-2.5,0l-1.6,0.1c-0.8,0.1-1.7,0.2-2.5,0.3c-8.6,1.3-16.9,5.8-22.6,12.2c-1.5,1.7-2.8,3.4-3.9,5.2
			c-1.3,2.1-2.3,4-3,5.7c-0.2,0.3-0.3,0.7-0.4,1.1c-0.1,0.2-0.1,0.3-0.2,0.5l-0.2,0.4c-0.1,0.4-0.3,0.7-0.4,1.2l-0.2,0.8
			c-0.2,0.8-0.5,1.6-0.7,2.3c-0.6,2.3-0.9,4.4-1,6.4c-0.7,8.7,1.8,17.5,6.8,24.7c2.4,3.5,5.5,6.6,9.2,9.3c3.7,2.6,7.7,4.5,11.7,5.6
			l4.9,1.4c0.2,0.1,0.4,0.1,0.6,0.2l2.4,0.9l4,1.8c0.5,0.2,1,0.5,1.5,0.8l2.2,1.2c4.9,2.9,9.4,6.6,13.4,11.1c3.8,4.4,7,9.3,9.3,14.6
			c2.3,5.3,3.8,10.9,4.4,16.7c1.3,11.5-1.1,23.4-6.8,33.6c-2.8,4.9-6.4,9.5-10.8,13.5l-6.1,5.2l-4.7,3.8l-1.8,1.3
			c-9.3,6.6-20.7,10.5-32.2,10.9c-5.8,0.2-11.6-0.3-17.1-1.7c-5.7-1.4-11.1-3.6-15.9-6.5c-0.5-0.3-0.9-0.5-1.4-0.8l-3.4-2.2
			c-0.3-0.2-0.5-0.4-0.8-0.7L62.8,230.6c-0.2-0.2-0.5-0.3-0.8-0.3c-0.3,0-0.6,0.2-0.8,0.4l-1,1.2c-0.4,0.5-0.3,1.2,0.1,1.6
			L187.3,342.4z"/>
		<path class="st19" d="M190.7,337.9c0.4,0.4,0.9,0.7,1.4,1.1l2.7,1.8c0.4,0.3,0.9,0.6,1.3,0.8c4.7,2.8,9.9,4.9,15.4,6.3
			c4.5,1.1,9.3,1.7,14.1,1.7c0.8,0,1.6,0,2.5,0c11.1-0.4,22.1-4.2,31.2-10.6l1.7-1.2l7.6-6.2l3.1-2.7c4.3-3.9,7.8-8.3,10.4-13.1
			c5.5-9.8,7.9-21.3,6.6-32.4c-0.6-5.6-2-11-4.3-16.2c-2.3-5.1-5.3-9.9-9-14.1c-3.8-4.3-8.2-7.9-12.9-10.7l-2.1-1.2
			c-0.5-0.3-1-0.6-1.6-0.8l-1.9-0.9l-4.2-1.7c-0.2-0.1-0.5-0.2-0.7-0.2l-4.8-1.4c-4.3-1.2-8.4-3.2-12.3-5.9
			c-3.8-2.8-7.1-6.1-9.6-9.7c-5.3-7.5-7.9-17-7.2-26c0.1-2.2,0.5-4.4,1.1-6.8c0.2-0.8,0.4-1.7,0.7-2.5l0.2-0.8
			c0.1-0.4,0.3-0.8,0.4-1.2l0.2-0.4c0.1-0.2,0.2-0.4,0.2-0.6c0.1-0.3,0.2-0.6,0.4-1c0.8-1.9,1.8-3.9,3.1-6.1
			c1.2-1.8,2.6-3.7,4.1-5.5c6.1-6.7,14.7-11.4,23.8-12.8c0.9-0.2,1.8-0.2,2.8-0.3l1.4-0.1c0.9,0,1.8-0.1,2.7,0
			c0.8,0,1.7,0.1,2.6,0.1l1.5,0.2c0.9,0.1,1.8,0.2,2.7,0.4c0.8,0.1,1.6,0.3,2.4,0.5l1.6,0.4c0.9,0.3,1.7,0.5,2.6,0.9
			c0.7,0.3,1.5,0.6,2.2,0.9c0.3,0.1,0.6,0.3,0.9,0.4c0.3,0.2,0.7,0.3,1,0.5c0.7,0.4,1.4,0.7,2.1,1.1l0.6,0.4
			c0.3,0.2,0.6,0.4,0.9,0.6l37.3,23.6c4.7,3,10.1,5.3,15.5,6.6c5.7,1.3,11.4,1.7,16.9,1l2.1-0.3c0.5-0.1,0.9-0.2,1.4-0.3l0.7-0.1
			c0.2-0.1,0.5-0.1,0.7-0.1c0.5-0.1,0.9-0.2,1.4-0.3l2-0.5c0.7-0.2,1.3-0.4,2.1-0.7l2-0.7l2-0.9c0.6-0.3,1.3-0.5,1.9-0.9l1.8-0.9
			c0.4-0.2,0.8-0.5,1.3-0.7c0.2-0.1,0.4-0.2,0.6-0.4l0.6-0.4c0.4-0.2,0.8-0.5,1.2-0.8l1.7-1.2c0.6-0.4,1.2-0.8,1.7-1.3l1.7-1.3
			l1.7-1.5c0.5-0.4,1-0.9,1.4-1.3l1.4-1.5c0.3-0.3,0.7-0.7,1-1.1c0.1-0.2,0.3-0.4,0.5-0.6l0.4-0.5c0.3-0.4,0.6-0.7,0.9-1.1l1.4-2
			c0.1-0.2,0.3-0.4,0.4-0.6l1.7-2.7c0.2-0.4,0.5-0.9,0.7-1.3l0.6-1.1c0.2-0.5,0.5-0.9,0.7-1.4c2.4-5.2,3.9-10.7,4.4-16.3
			c0-0.5,0.1-0.9,0.1-1.4l0.1-1.4c0-0.5,0-1,0-1.5l-0.1-2.6c0-0.5,0-1.1-0.1-1.6l-0.2-2.1l-0.3-2.1c-0.2-1.4-0.5-2.7-0.8-4.2
			c-1.4-5.5-3.7-10.7-6.8-15.4c-3.1-4.7-7-8.8-11.6-12.3c-4.5-3.4-9.6-6-15-7.7c-5.4-1.7-11-2.4-16.7-2.2c-1.4,0.1-2.8,0.2-4.2,0.4
			l-95,13.6c-0.9,0.1-1.7,0.2-2.5,0.3l-1.1,0.1c-0.3,0-0.7,0.1-1,0.1c-0.2,0-0.4,0-0.6,0l-0.7,0c-0.4,0-0.7,0-1,0l-2.1,0
			c-0.2,0-0.3,0-0.5,0l-2.6-0.2l-1.7-0.3l-3.3-0.7l-2-0.6c-0.2,0-0.3-0.1-0.5-0.1l-0.8-0.3c-8.5-3-16.1-9.2-20.9-17
			c-1.1-1.7-2-3.5-3.1-6.1l-0.6-1.7c-0.1-0.3-0.2-0.6-0.3-1c-0.1-0.2-0.1-0.4-0.2-0.7c-0.3-0.8-0.5-1.6-0.7-2.5l-0.2-0.8
			c-0.4-1.9-0.8-4.3-0.8-6.9c-0.1-0.8,0-1.6,0-2.4c0-0.3,0-0.7,0-1c0-0.3,0-0.7,0.1-1c0-0.2,0-0.4,0.1-0.6l0.1-0.6
			c0-0.4,0.1-0.7,0.1-1.1l0.1-0.7c0.1-0.9,0.3-1.8,0.5-2.7c1.6-6.2,3.7-12.3,5.8-18.3c0.8-2.3,1.6-4.6,2.4-6.8
			c0.2-0.6-0.1-1.2-0.7-1.4l-1.5-0.5c-0.1,0-0.1,0-0.2,0c-1.1-0.1-1.2,0.3-2.5,4.6l-0.1,0.4c-0.5,1.5-1,3-1.5,4.5
			c-1.9,5.4-3.8,11.1-5.3,16.7c-0.3,1-0.4,2.1-0.6,3.1l-0.1,0.6c-0.1,0.5-0.1,0.9-0.2,1.4l-0.1,1.2c0,0.4-0.1,0.8-0.1,1.3l0,1
			c0,0.9-0.1,1.8,0,2.7c0,2.8,0.5,5.4,0.9,7.5l0.2,0.8c0.2,0.9,0.4,1.9,0.8,2.8c0.1,0.2,0.1,0.4,0.2,0.6c0.1,0.4,0.2,0.8,0.4,1.2
			l0.7,1.8c1.2,2.8,2.2,4.9,3.4,6.7c5.3,8.7,13.4,15.3,22.8,18.6l0.9,0.3c0.2,0.1,0.4,0.1,0.6,0.2l2.1,0.6l1.8,0.4l3.7,0.7l2.7,0.2
			c0.2,0,0.5,0,0.7,0l2.1,0c0.4,0,0.8,0,1.2,0l0.7,0c0.2,0,0.4,0,0.6,0c0.4,0,0.9,0,1.3-0.1l1-0.1c0.9-0.1,1.8-0.2,2.7-0.3
			l91.1-13.1l3.8-0.5c1.3-0.2,2.6-0.3,3.9-0.3c5.3-0.2,10.5,0.5,15.5,2c5,1.6,9.7,4,13.9,7.1c4.2,3.2,7.8,7,10.7,11.3
			c2.9,4.4,5,9.2,6.3,14.3c0.3,1.2,0.6,2.5,0.8,3.9l0.5,3.9c0.1,0.4,0.1,0.9,0.1,1.4l0.1,2.5c0,0.4,0,0.8,0,1.3l-0.1,1.4
			c0,0.4,0,0.8-0.1,1.3c-0.5,5.2-1.8,10.3-4.1,15.1c-0.2,0.4-0.4,0.8-0.6,1.1l-0.6,1.2c-0.2,0.4-0.4,0.8-0.6,1.1l-1.6,2.5
			c-0.1,0.2-0.2,0.3-0.4,0.5l-1.4,1.9c-0.2,0.3-0.5,0.6-0.8,1l-0.4,0.5c-0.2,0.2-0.3,0.4-0.5,0.6c-0.3,0.3-0.5,0.6-0.8,0.9l-1.4,1.5
			c-0.4,0.4-0.8,0.8-1.2,1.1l-1.6,1.5l-1.6,1.3c-0.5,0.4-1,0.8-1.5,1.2l-1.7,1.1c-0.3,0.2-0.7,0.4-1,0.6c-0.2,0.1-0.4,0.2-0.6,0.4
			c-0.2,0.1-0.4,0.2-0.6,0.4c-0.3,0.2-0.7,0.4-1.1,0.6l-1.8,0.9c-9.4,4.7-20.6,6-30.5,3.5c-5.1-1.2-9.9-3.2-14.3-6.1l-37.3-23.6
			c-0.4-0.2-0.7-0.4-1-0.6l-0.5-0.3c-0.8-0.5-1.6-0.9-2.3-1.3c-0.3-0.2-0.6-0.3-1-0.5l-0.9-0.4c-0.8-0.4-1.6-0.7-2.5-1
			c-0.9-0.4-1.9-0.7-2.8-1l-1.7-0.5c-0.9-0.2-1.8-0.5-2.7-0.6c-1-0.2-2-0.3-3-0.5l-1.6-0.2c-0.9-0.1-1.9-0.2-2.8-0.1
			c-1,0-2,0-2.9,0.1l-1.5,0.1c-1,0.1-2.1,0.2-3.1,0.4c-10,1.5-19.2,6.5-26,14c-1.7,2-3.3,4-4.5,6c-1.5,2.4-2.6,4.6-3.4,6.6
			c-0.2,0.4-0.3,0.8-0.5,1.2c-0.1,0.2-0.1,0.4-0.2,0.6l-0.2,0.5c-0.2,0.4-0.3,0.9-0.5,1.4l-0.2,0.8c-0.3,0.9-0.6,1.8-0.8,2.8
			c-0.6,2.6-1,5-1.2,7.4c-0.8,10,2,20.1,7.8,28.4c2.8,4,6.3,7.6,10.5,10.6c4.2,3,8.8,5.2,13.5,6.5l4.7,1.4c0.2,0.1,0.3,0.1,0.5,0.2
			l2.2,0.8l3.6,1.6c0.5,0.2,0.9,0.4,1.3,0.7l2.1,1.1c4.4,2.6,8.4,5.9,12,9.9c3.4,3.9,6.3,8.4,8.4,13.1c2.1,4.8,3.4,9.9,4,15.1
			c1.2,10.3-1,21-6.1,30.2c-2.5,4.4-5.7,8.5-9.7,12.1l-8.9,7.4l-3.1,2.4c-8.4,6-18.8,9.5-29.1,9.9c-5.3,0.2-10.5-0.3-15.5-1.6
			c-5.2-1.3-10-3.3-14.4-5.9c-0.4-0.2-0.8-0.5-1.2-0.7l-2.1-1.3c-0.2-0.1-0.3-0.2-0.5-0.4c-0.4-0.3-0.7-0.5-1.1-0.8L66.5,226.3
			c-0.5-0.4-1.2-0.3-1.6,0.1l-1,1.2c-0.2,0.2-0.3,0.5-0.3,0.8c0,0.3,0.2,0.6,0.4,0.8L190.7,337.9z"/>
		<path class="st19" d="M194.2,333.5c0.4,0.4,0.8,0.6,1.1,0.9l2.4,1.6c0.4,0.2,0.8,0.5,1.2,0.7c4.2,2.5,8.9,4.4,13.9,5.7
			c4.1,1,8.4,1.5,12.7,1.5c0.7,0,1.5,0,2.2,0c10-0.4,20-3.8,28.2-9.6l1.5-1.1l7.4-6l2.9-2.5c3.8-3.5,7-7.5,9.4-11.7
			c2.5-4.4,4.2-9.1,5.2-14c0.2-0.9,0.3-1.8,0.5-2.7c0-0.3,0.1-0.7,0.1-1c0.1-0.5,0.1-1,0.2-1.5l0.2-2.3c0-0.4,0-0.8,0-1.2l0-0.7
			c0-0.2,0-0.4,0-0.6c0-0.4,0-0.8,0-1.2l-0.1-1.8l-0.2-1.9c-0.6-5-1.8-9.9-3.8-14.5c-2-4.6-4.7-8.9-8-12.6
			c-3.4-3.9-7.3-7.1-11.6-9.6l-1.9-1c-0.5-0.3-0.9-0.5-1.4-0.7l-1.7-0.8l-3.8-1.5c-0.2-0.1-0.4-0.2-0.6-0.2l-2-0.6
			c-0.8-0.2-1.6-0.5-2.6-0.7c-4.9-1.4-9.6-3.6-14-6.7c-4.4-3.2-8.1-6.9-11-11.1c-6.1-8.7-9-19.2-8.2-29.6c0.3-4.9,1.6-10,3.7-15.1
			c0.9-2.2,2.1-4.5,3.6-6.9c1.3-2.1,2.9-4.2,4.7-6.2c7-7.8,16.6-12.9,27.1-14.6c1.1-0.2,2.2-0.3,3.4-0.4l1.2-0.1
			c1.1-0.1,2.1-0.1,3.2-0.1c1.1,0,2,0.1,3.1,0.2l1.4,0.1c1.1,0.1,2.2,0.3,3.3,0.5c1,0.2,1.9,0.4,3,0.7l1.5,0.4
			c1.1,0.3,2.1,0.6,3.1,1c0.9,0.3,1.8,0.7,2.7,1.1l0.9,0.4c0.3,0.2,0.7,0.4,1,0.5c0.9,0.4,1.7,0.8,2.5,1.3l0.6,0.4
			c0.4,0.2,0.7,0.4,1.1,0.7l37.3,23.6c4.3,2.7,8.9,4.7,13.8,5.8c9.7,2.4,20,1.2,29.2-3.4l1.6-0.8c0.4-0.2,0.7-0.4,1.1-0.6
			c0.2-0.1,0.4-0.2,0.6-0.3c0.2-0.1,0.4-0.2,0.5-0.3c0.4-0.2,0.7-0.4,1.1-0.7l1.5-1c0.5-0.4,1.1-0.8,1.5-1.2l1.5-1.2l1.5-1.4
			c0.4-0.4,0.8-0.8,1.2-1.2l1.2-1.3c0.3-0.3,0.6-0.6,0.8-1c0.1-0.2,0.3-0.3,0.4-0.5l0.4-0.5c0.3-0.3,0.5-0.6,0.8-1l1.3-1.7
			c0.1-0.2,0.3-0.3,0.4-0.6l1.5-2.4c0.2-0.3,0.4-0.7,0.6-1.1l0.6-1.1c0.2-0.4,0.4-0.8,0.6-1.2c2.1-4.6,3.4-9.4,3.9-14.4
			c0-0.4,0.1-0.8,0.1-1.2l0.1-1.3c0-0.4,0-0.8,0-1.3l-0.1-2.3c0-0.5,0-1-0.1-1.4l-0.2-1.8l-0.2-1.9c-0.2-1.2-0.5-2.4-0.7-3.7
			c-1.2-4.9-3.3-9.5-6-13.7c-2.8-4.2-6.2-7.8-10.3-10.9c-4-3-8.5-5.3-13.3-6.8c-4.7-1.5-9.7-2.2-14.8-2c0,0-0.2,0-0.2,0
			c-1.2,0.1-2.4,0.1-3.6,0.3L244,114.3c-0.9,0.1-1.9,0.3-2.9,0.4l-1,0.1c-0.4,0.1-0.8,0.1-1.2,0.1c-0.2,0-0.5,0-0.7,0l-0.7,0
			c-0.4,0-0.8,0-1.2,0l-2.4-0.1c-0.2,0-0.4,0-0.6,0l-1.7-0.1c-0.4,0-0.9-0.1-1.3-0.1l-2-0.3l-3.8-0.8l-2.3-0.7
			c-0.2-0.1-0.4-0.1-0.6-0.2l-1.6-0.6c-0.4-0.1-0.8-0.3-1.2-0.4l-1.9-0.8c-0.6-0.2-1.1-0.5-1.7-0.8l-0.6-0.3
			c-0.4-0.2-0.7-0.4-1.1-0.6l-0.8-0.5c-0.9-0.5-1.7-1-2.5-1.6c-0.2-0.1-0.4-0.3-0.6-0.4c-0.3-0.2-0.7-0.4-1-0.7l-1.5-1.2
			c-2.4-2-4.1-3.7-5.6-5.5l-0.7-0.7c-0.1-0.2-0.3-0.3-0.4-0.5l-1.4-1.8l-1.3-1.9c-0.1-0.2-0.2-0.3-0.3-0.5l-0.5-0.9
			c-1.2-1.9-2.3-4.1-3.5-6.9l-0.7-1.9c-0.1-0.4-0.3-0.7-0.4-1.1c-0.1-0.2-0.1-0.5-0.2-0.7c-0.3-1-0.6-2-0.8-3l-0.2-0.7
			c-0.6-3.1-0.9-5.5-0.9-7.8c-0.1-0.9,0-1.9,0-2.8l0-1.1c0-0.4,0.1-0.8,0.1-1.2l0.1-1.3c0-0.4,0.1-0.9,0.2-1.3l0.1-0.5
			c0.2-1.1,0.3-2.2,0.6-3.3c1.5-5.9,3.5-11.7,5.5-17.4c0.7-2,1.4-4,2.1-6.1l0.7-2.2c0.2-0.6-0.1-1.2-0.7-1.4l-1.5-0.5
			c-0.3-0.1-0.6-0.1-0.8,0.1c-0.3,0.1-0.5,0.4-0.6,0.6c-0.8,2.4-1.6,4.8-2.5,7.2c-2.2,6.1-4.4,12.4-5.9,18.8
			c-0.3,1.2-0.5,2.4-0.7,3.6l-0.1,0.5c-0.1,0.5-0.1,1-0.2,1.6l-0.1,1.3c0,0.5-0.1,0.9-0.1,1.4l0,1.1c0,1-0.1,2.1,0,3.1
			c0,2.4,0.4,5.1,1,8.5l0.2,0.7c0.3,1.1,0.5,2.2,0.9,3.4c0.1,0.2,0.1,0.4,0.2,0.7c0.1,0.5,0.3,0.9,0.4,1.4l0.7,2
			c1.3,3.1,2.5,5.5,3.8,7.5l0.5,0.9c0.1,0.2,0.3,0.4,0.4,0.6l1.4,2l1.5,1.9c0.1,0.2,0.3,0.4,0.5,0.6l0.7,0.8
			c1.6,1.9,3.5,3.8,6.1,5.9l1.6,1.3c0.4,0.3,0.8,0.6,1.2,0.9c0.2,0.1,0.4,0.3,0.6,0.4c0.9,0.7,1.9,1.2,2.8,1.8l0.8,0.5
			c0.4,0.2,0.8,0.5,1.3,0.7l0.6,0.3c0.6,0.3,1.3,0.7,1.9,0.9l1.9,0.9c0.4,0.2,0.9,0.3,1.4,0.5l1.6,0.6c0.2,0.1,0.5,0.1,0.7,0.2
			l2.4,0.7l2,0.5l4.2,0.7c0.5,0.1,1,0.1,1.4,0.1l1.7,0.1c0.3,0,0.5,0,0.8,0l2.4,0.1c0.5,0,0.9,0,1.4,0l0.7,0c0.2,0,0.4,0,0.7,0
			c0.5,0,1,0,1.5-0.1l0.9-0.1c1.1-0.1,2.2-0.2,3.1-0.4l91.1-13.1l3.7-0.5c1.1-0.1,2.1-0.2,3.2-0.3l0.2,0c4.6-0.2,9.2,0.4,13.5,1.8
			c4.4,1.4,8.5,3.5,12.2,6.2c3.7,2.8,6.8,6.1,9.4,9.9c2.5,3.8,4.4,8,5.5,12.5l0,0.2c0.2,1,0.5,2.1,0.6,3.2l0.4,3.5
			c0.1,0.4,0.1,0.8,0.1,1.2l0.1,2.2c0,0.3,0,0.7,0,1l-0.1,1.3c0,0.4,0,0.7-0.1,1.1c-0.4,4.6-1.6,9-3.6,13.2c-0.1,0.3-0.3,0.6-0.5,1
			l-0.6,1.1c-0.2,0.3-0.3,0.6-0.5,0.9l-1.4,2.2c-0.1,0.1-0.2,0.3-0.3,0.4l-1.2,1.7c-0.2,0.3-0.4,0.5-0.6,0.8
			c-0.1,0.2-0.3,0.3-0.4,0.5c-0.1,0.2-0.3,0.3-0.4,0.5c-0.2,0.3-0.4,0.5-0.7,0.8l-1.2,1.3c-0.3,0.3-0.7,0.7-1,1l-1.4,1.3l-1.4,1.1
			c-0.4,0.3-0.9,0.7-1.3,1l-1.5,1c-0.3,0.2-0.6,0.4-0.9,0.5c-0.2,0.1-0.4,0.2-0.5,0.3c-0.2,0.1-0.4,0.2-0.6,0.3
			c-0.3,0.2-0.6,0.4-0.9,0.5l-1.6,0.8c-8.4,4.2-17.9,5.3-26.7,3.1c-4.5-1.1-8.7-2.9-12.6-5.4l-37.3-23.6c-0.4-0.2-0.8-0.5-1.2-0.7
			l-0.6-0.3c-0.9-0.6-1.8-1-2.7-1.5l-2-1c-1-0.4-1.9-0.9-2.9-1.2c-1.1-0.4-2.2-0.8-3.3-1.1l-1.6-0.4c-1.1-0.3-2.2-0.6-3.2-0.7
			c-1.2-0.3-2.4-0.4-3.6-0.5l-1.5-0.1c-1.1-0.1-2.3-0.2-3.4-0.2c-1.2,0-2.4,0-3.5,0.1l-1.3,0.1c-1.2,0.1-2.5,0.2-3.7,0.4
			c-11.3,1.7-21.7,7.3-29.3,15.8c-2,2.2-3.7,4.5-5.1,6.8c-1.6,2.7-2.9,5.1-3.9,7.5c-2.3,5.5-3.6,11-4,16.3
			c-0.9,11.3,2.3,22.7,8.8,32c3.1,4.6,7.1,8.6,11.9,12c4.8,3.4,9.9,5.8,15.2,7.3l4.4,1.3c0.2,0,0.3,0.1,0.4,0.2l2,0.7l3.2,1.4
			c0.4,0.2,0.8,0.4,1.1,0.6l1.9,1c3.9,2.2,7.5,5.2,10.6,8.8c3.1,3.5,5.6,7.4,7.4,11.7c1.8,4.3,3,8.8,3.5,13.4l0.3,3.5
			c0,0.3,0,0.7,0,1c0,0.2,0,0.4,0,0.6l0,0.7c0,0.4,0,0.7,0,1l-0.2,2.2c0,0.4-0.1,0.8-0.1,1.3c-0.1,0.3-0.1,0.7-0.2,1
			c-0.1,0.8-0.2,1.6-0.4,2.4c-0.9,4.6-2.5,8.9-4.8,12.9c-2.2,3.9-5.1,7.5-8.6,10.8l-8.6,7.2l-2.8,2.1c-7.6,5.4-16.9,8.5-26.1,8.9
			c-4.8,0.2-9.4-0.3-13.9-1.4c-4.7-1.2-9-2.9-12.9-5.3c-0.4-0.2-0.7-0.4-1.1-0.6l-2.3-1.5c-0.3-0.2-0.5-0.4-0.8-0.6L70.2,222
			c-0.5-0.4-1.2-0.3-1.6,0.1l-1,1.2c-0.2,0.2-0.3,0.5-0.3,0.8c0,0.3,0.2,0.6,0.4,0.8L194.2,333.5z"/>
		<path class="st19" d="M132.6,273.1l65.4,56.2c0.2,0.2,0.4,0.3,0.5,0.4l2.3,1.5c0.3,0.2,0.7,0.4,1,0.6c3.7,2.2,7.9,3.9,12.4,5
			c3.6,0.9,7.5,1.4,11.4,1.4c0.7,0,1.3,0,2,0c8.9-0.4,17.8-3.4,25.1-8.6l1.4-1l7.2-5.9l2.6-2.3c3.4-3.1,6.2-6.6,8.3-10.3
			c2.2-3.8,3.7-8,4.6-12.3c0.2-0.8,0.3-1.6,0.4-2.3c0-0.3,0.1-0.6,0.1-0.9c0.1-0.5,0.1-0.9,0.1-1.4l0.1-2c0-0.4,0-0.7,0-1.1l0-0.6
			c0-0.2,0-0.4,0-0.6c0-0.4,0-0.8,0-1.1l-0.1-1.6l-0.2-1.7c-0.5-4.4-1.6-8.8-3.4-12.9c-1.8-4.1-4.2-7.8-7.1-11.2
			c-3-3.4-6.4-6.3-10.2-8.4l-1.7-0.9c-0.4-0.2-0.8-0.5-1.2-0.6l-1.5-0.7l-3.4-1.3c-0.2-0.1-0.4-0.1-0.6-0.2l-4.3-1.3
			c-5.5-1.5-10.8-4.1-15.8-7.6c-4.9-3.5-9-7.7-12.3-12.5c-6.8-9.7-10.1-21.5-9.2-33.3c0.4-5.4,1.8-11.3,4.1-16.9
			c1-2.5,2.3-5.1,4-7.8c1.5-2.4,3.3-4.7,5.3-7c1.9-2.1,4.1-4.1,6.4-6c2.2-1.7,4.6-3.3,7.4-4.8c2.3-1.3,4.9-2.4,8-3.5
			c2.6-0.9,5.5-1.6,8.5-2.1c1.3-0.2,2.7-0.4,4-0.5l1-0.1c1.2-0.1,2.5-0.1,3.8-0.1c1.2,0,2.5,0.1,3.7,0.2l1.2,0.1
			c1.3,0.2,2.6,0.3,3.8,0.6c1.2,0.2,2.3,0.5,3.5,0.8l1.4,0.4c1.2,0.4,2.4,0.7,3.6,1.2c1.1,0.4,2.1,0.8,3.1,1.3l1.9,0.9
			c1,0.5,1.9,1,2.9,1.6l1.1,0.7c0.3,0.2,0.5,0.3,0.7,0.4l37.3,23.6l2.9,1.7l1.4,0.7l3,1.3l3.1,1l1.6,0.4c8.4,2,17.4,1,25.4-3
			l1.4-0.7c0.3-0.2,0.7-0.4,1-0.6c0.2-0.1,0.3-0.2,0.5-0.3c0.2-0.1,0.3-0.2,0.5-0.3c0.3-0.2,0.6-0.4,0.9-0.6l1.3-0.9
			c0.5-0.3,0.9-0.7,1.4-1l1.3-1l1.4-1.2c0.4-0.3,0.7-0.7,1-1l1.1-1.1c0.3-0.3,0.5-0.6,0.7-0.8c0.1-0.1,0.2-0.3,0.4-0.5
			c0.1-0.1,0.2-0.3,0.4-0.4c0.2-0.3,0.5-0.6,0.7-0.8l1.1-1.5c0.1-0.1,0.2-0.3,0.3-0.5l1.3-2.1c0.2-0.3,0.3-0.6,0.5-0.9l0.5-1
			c0.2-0.4,0.4-0.7,0.5-1c1.8-4,3-8.2,3.4-12.5c0-0.3,0-0.7,0.1-1l0.1-1.2c0-0.4,0-0.7,0-1.1l-0.1-2c0-0.4,0-0.9-0.1-1.2l-0.2-1.6
			l-0.2-1.6c-0.1-1-0.4-2-0.6-2.9l-0.1-0.3c-1.1-4.3-2.8-8.3-5.3-11.9c-2.4-3.6-5.4-6.8-9-9.5c-3.5-2.6-7.4-4.6-11.6-5.9
			c-4.1-1.3-8.5-1.9-12.9-1.7l-0.4,0c-0.9,0.1-1.9,0.1-2.9,0.3l-94.8,13.6c-1,0.2-2.3,0.3-3.5,0.4l-0.7,0.1
			c-0.5,0.1-0.9,0.1-1.4,0.1c-0.3,0-0.5,0-0.7,0l-0.7,0c-0.5,0-1,0-1.4,0l-2.6-0.1c-0.2,0-0.4,0-0.7,0l-1.7-0.2
			c-0.5,0-1.1-0.1-1.6-0.1l-2.2-0.3l-4.3-0.9l-2.5-0.7c-0.2-0.1-0.5-0.1-0.7-0.2l-1.7-0.6c-0.5-0.2-1-0.4-1.4-0.5l-2.1-0.9
			c-0.7-0.3-1.3-0.6-1.9-0.9l-0.7-0.3c-0.4-0.2-0.9-0.4-1.3-0.7l-0.8-0.5c-1-0.6-2-1.2-3-1.9c-0.2-0.2-0.4-0.3-0.7-0.4
			c-0.4-0.3-0.8-0.5-1.1-0.8l-1.7-1.4c-2.6-2.2-4.6-4.1-6.3-6.1l-0.7-0.8c-0.2-0.2-0.3-0.4-0.4-0.6l-1.6-2l-1.5-2.1
			c-0.1-0.2-0.3-0.4-0.4-0.6l-0.6-1c-1.4-2.2-2.6-4.7-3.9-7.8l-0.8-2.1c-0.2-0.4-0.3-0.9-0.4-1.3c-0.1-0.3-0.2-0.5-0.2-0.8
			c-0.4-1.1-0.7-2.3-0.9-3.6l-0.2-0.7c-0.7-3.4-1-6.2-1.1-8.8c-0.1-1.1,0-2.2,0-3.4l0-1c0-0.5,0.1-1,0.1-1.4l0.1-1.4
			c0-0.5,0.1-1,0.2-1.5c1.5-8.4,4.4-16.7,7.2-24.7c0.7-2,1.4-3.9,2-5.9c0.1-0.3,0.1-0.6-0.1-0.9c-0.1-0.3-0.4-0.5-0.6-0.6l-1.5-0.5
			c-0.6-0.2-1.2,0.1-1.4,0.7l-4.9,14.6c-1.8,5.3-3.6,10.9-4.5,16.6c-0.1,0.6-0.2,1.2-0.2,1.8l-0.1,1.4c-0.1,0.5-0.1,1.1-0.1,1.6l0,1
			c0,1.2-0.1,2.4,0,3.6c0.1,2.8,0.4,5.8,1.1,9.4l0.2,0.7c0.3,1.3,0.6,2.6,1,3.9c0.1,0.2,0.1,0.5,0.2,0.7c0.2,0.5,0.3,1,0.5,1.5
			l0.8,2.2c1.4,3.4,2.7,6,4.2,8.4l0.6,1c0.1,0.2,0.3,0.5,0.5,0.7l1.6,2.2l1.7,2.1c0.2,0.2,0.3,0.4,0.5,0.7l0.7,0.9
			c1.8,2.1,4,4.2,6.8,6.6l1.8,1.4c0.4,0.3,0.9,0.6,1.3,1l0.6,0.4c1.1,0.8,2.2,1.4,3.2,2.1l0.8,0.5c0.5,0.3,1,0.5,1.4,0.8l0.6,0.3
			c0.7,0.4,1.4,0.7,2.2,1l2.2,0.9c0.5,0.2,1.1,0.4,1.7,0.6l1.7,0.6c0.3,0.1,0.5,0.2,0.8,0.2l2.6,0.8l2.3,0.5l4.7,0.8
			c0.6,0.1,1.2,0.1,1.8,0.2l1.7,0.1c0.3,0,0.6,0,0.8,0l2.7,0.1c0.5,0,1.1,0,1.6,0l1.5-0.1c0.6,0,1.1,0,1.6-0.1l0.5-0.1
			c1.4-0.1,2.8-0.3,3.8-0.5l91.1-13.1l3.6-0.5c0.9-0.1,1.7-0.2,2.6-0.2l0.4,0c4-0.1,7.9,0.4,11.6,1.5c3.8,1.2,7.3,3,10.5,5.4
			c3.2,2.4,5.9,5.3,8.1,8.5c2.2,3.3,3.8,6.9,4.7,10.7l0.1,0.4c0.2,0.8,0.4,1.7,0.5,2.6l0.4,3.1c0,0.3,0.1,0.6,0.1,1l0.1,2
			c0,0.3,0,0.6,0,0.9c0,0.2,0,0.4,0,0.6l0,0.6c0,0.3,0,0.6,0,0.9c-0.4,3.9-1.4,7.7-3.1,11.3c-0.1,0.3-0.2,0.5-0.4,0.8
			c-0.1,0.2-0.2,0.3-0.2,0.4l-0.3,0.6c-0.1,0.3-0.3,0.5-0.4,0.7l-1.2,1.9c-0.1,0.1-0.2,0.2-0.2,0.3l-1.1,1.5
			c-0.2,0.2-0.4,0.4-0.5,0.7c-0.1,0.2-0.3,0.3-0.4,0.4c-0.1,0.2-0.3,0.3-0.4,0.5c-0.2,0.2-0.3,0.4-0.6,0.7l-1.1,1.1
			c-0.3,0.3-0.5,0.5-0.8,0.8l-1.3,1.2l-1.2,1c-0.4,0.3-0.7,0.6-1.2,0.9l-1.3,0.9c-0.2,0.2-0.5,0.3-0.7,0.5c-0.2,0.1-0.4,0.2-0.5,0.3
			c-0.2,0.1-0.4,0.2-0.5,0.3c-0.2,0.1-0.5,0.3-0.8,0.4l-1.3,0.7c-7.2,3.6-15.4,4.5-22.9,2.7l-2.8-0.8l-2.8-1l-2.6-1.2l-2.7-1.6
			L288.4,150c-0.2-0.1-0.5-0.3-0.8-0.5l-1.1-0.7c-1-0.6-2.1-1.2-3.1-1.7l-2-1c-1.1-0.5-2.2-1-3.4-1.4c-1.3-0.5-2.6-0.9-3.9-1.3
			l-1.4-0.4c-1.2-0.3-2.5-0.6-3.8-0.9c-1.4-0.3-2.8-0.5-4.1-0.6l-1.3-0.1c-1.3-0.1-2.6-0.2-4-0.2c-1.4,0-2.7,0-4.1,0.1l-1,0.1
			c-1.4,0.1-2.9,0.3-4.4,0.5c-3.3,0.5-6.3,1.3-9.1,2.2c-3.3,1.1-6.1,2.4-8.6,3.7c-3,1.6-5.5,3.3-7.9,5.1c-2.6,2-4.9,4.2-6.9,6.4
			c-2.2,2.4-4.1,5-5.7,7.5c-1.8,2.9-3.2,5.7-4.3,8.4c-2.5,6-4,12.2-4.4,18.1c-1,12.6,2.5,25.3,9.9,35.7c3.5,5.1,8,9.6,13.2,13.4
			c5.3,3.7,11,6.5,16.9,8.1l4.2,1.2c0.1,0,0.3,0.1,0.4,0.1l1.8,0.7l2.8,1.2c0.3,0.1,0.7,0.3,1,0.5l1.6,0.9c3.4,1.9,6.5,4.5,9.2,7.6
			c2.7,3.1,4.9,6.5,6.5,10.2c1.6,3.7,2.6,7.7,3.1,11.8l0.2,3.1c0,0.3,0,0.6,0,0.9c0,0.2,0,0.4,0,0.6l0,0.7c0,0.3,0,0.6,0,0.8
			l-0.1,1.9c0,0.4,0,0.7-0.1,1.1c-0.1,0.3-0.1,0.7-0.1,1c-0.1,0.7-0.2,1.3-0.4,2c-0.8,4-2.2,7.8-4.2,11.3c-1.9,3.4-4.4,6.6-7.5,9.4
			l-8.3,7l-2.5,1.9c-6.7,4.7-14.9,7.5-23.1,7.9c-4.2,0.2-8.4-0.2-12.3-1.2c-4.1-1-8-2.6-11.5-4.7c-0.3-0.2-0.6-0.3-0.9-0.5l-2.2-1.4
			c-0.1-0.1-0.2-0.1-0.3-0.3L73.9,217.7c-0.5-0.4-1.2-0.3-1.6,0.1l-1,1.2c-0.2,0.2-0.3,0.5-0.3,0.8c0,0.3,0.2,0.6,0.4,0.8
			L132.6,273.1z"/>
		<path class="st19" d="M136.2,268.8l65.2,56c0.1,0.1,0.3,0.2,0.4,0.3l1.9,1.3c0.3,0.2,0.6,0.4,0.9,0.5c3.3,1.9,7,3.4,10.9,4.4
			c3.2,0.8,6.6,1.2,10,1.2c0.6,0,1.2,0,1.7,0c7.9-0.3,15.7-3,22.1-7.5l1.2-0.9l7-5.7l2.4-2.1c3-2.7,5.4-5.8,7.2-9
			c1.9-3.3,3.2-6.9,4-10.6c0.2-0.7,0.3-1.3,0.3-2c0-0.3,0.1-0.6,0.1-0.9c0.1-0.4,0.1-0.8,0.1-1.2l0.1-1.8c0-0.3,0-0.6,0-0.9l0-0.6
			c0-0.2,0-0.3,0-0.5c0-0.3,0-0.7,0-1l-0.1-1.4l-0.1-1.5c-0.4-3.9-1.4-7.6-2.9-11.2c-1.5-3.5-3.6-6.8-6.2-9.7
			c-2.6-3-5.6-5.4-8.8-7.3l-1.5-0.8c-0.4-0.2-0.7-0.4-1-0.5L250,255l-2.9-1.2c-0.2-0.1-0.4-0.1-0.5-0.2l-4.1-1.2
			c-6.2-1.7-12-4.6-17.5-8.4c-5.4-3.9-10-8.6-13.7-13.8c-7.6-10.8-11.2-23.9-10.2-36.9c0.5-7.6,2.7-14.3,4.5-18.6
			c1.1-2.8,2.6-5.6,4.5-8.7c1.7-2.7,3.7-5.3,5.9-7.8c2.1-2.3,4.5-4.6,7.2-6.7c2.4-1.9,5.1-3.7,8.2-5.3c2.6-1.4,5.5-2.7,8.9-3.9
			c2.4-0.8,4.9-1.5,7.7-2l5.2-0.7l1.9-0.2c1.4-0.1,2.9-0.1,4.4-0.1c1.5,0,2.9,0.1,4.3,0.2l1,0.1c1.5,0.2,3,0.4,4.5,0.7
			c1.3,0.2,2.7,0.6,4,0.9l1.1,0.3c1.4,0.4,2.8,0.9,4.2,1.4c1.2,0.4,2.4,1,3.6,1.5l1.8,0.9c1.1,0.6,2.2,1.1,3.3,1.8l1.3,0.8
			c0.3,0.2,0.6,0.3,0.7,0.5l37.3,23.6l2.5,1.5l1.2,0.6l2.6,1.1l2.6,0.9l1.4,0.3c2.4,0.6,4.8,0.9,7.2,0.9c4.9,0,9.8-1.2,14.4-3.4
			l1.2-0.6c0.3-0.1,0.6-0.3,0.9-0.5c0.1-0.1,0.3-0.2,0.4-0.3c0.1-0.1,0.3-0.2,0.4-0.2c0.3-0.2,0.6-0.3,0.8-0.5l1.1-0.8
			c0.4-0.3,0.8-0.6,1.2-0.9l1.1-0.9l1.2-1.1c0.3-0.3,0.6-0.6,0.9-0.9l0.9-0.9c0.2-0.2,0.4-0.5,0.6-0.7c0.1-0.1,0.2-0.2,0.3-0.4
			c0.1-0.1,0.2-0.3,0.3-0.4c0.2-0.2,0.4-0.5,0.6-0.7l0.9-1.3c0.1-0.1,0.2-0.3,0.3-0.4l1.1-1.7c0.1-0.2,0.3-0.5,0.4-0.7l0.5-0.9
			c0.2-0.3,0.3-0.6,0.4-0.9c1.5-3.4,2.5-6.9,2.9-10.6c0-0.3,0-0.6,0-0.9l0-0.5c0-0.2,0-0.3,0-0.5c0-0.3,0-0.6,0-0.9L377,143
			c0-0.4,0-0.8-0.1-1.1l-0.1-1.4l-0.2-1.4c-0.1-0.8-0.3-1.5-0.4-2.3l-0.1-0.5c-0.9-3.6-2.4-7-4.5-10.1c-2.1-3.1-4.6-5.8-7.6-8.1
			c-3-2.2-6.3-3.9-9.9-5.1c-3.5-1.1-7.2-1.6-11-1.5l-0.5,0c-0.8,0.1-1.5,0.1-2.3,0.2l-89,12.8c-1.6,0.2-2.8,0.3-3.9,0.5
			c-0.7,0.1-1.3,0.2-2,0.3l-4.3,0.5c-0.5,0.1-1.1,0.1-1.6,0.1l-1.6,0.1c-0.5,0-1.1,0-1.6,0l-2.9-0.1c-0.3,0-0.5,0-0.8,0l-1.8-0.2
			c-0.6-0.1-1.3-0.1-1.9-0.2l-2.5-0.4l-4.8-1l-2.8-0.8c-0.3-0.1-0.5-0.2-0.8-0.2l-1.8-0.6c-0.6-0.2-1.2-0.4-1.7-0.6l-2.3-1
			c-0.7-0.3-1.5-0.7-2.2-1l-0.7-0.4c-0.5-0.3-1-0.5-1.5-0.8l-0.7-0.4c-1.1-0.7-2.3-1.4-3.4-2.2l-0.7-0.5c-0.4-0.3-0.9-0.6-1.3-0.9
			l-1.9-1.5c-2.8-2.4-5.1-4.6-7-6.8l-0.8-0.9c-0.2-0.2-0.3-0.4-0.5-0.6l-1.8-2.2l-1.6-2.4c-0.2-0.2-0.3-0.4-0.4-0.7l-0.7-1.1
			c-1.5-2.4-3-5.3-4.4-8.7l-0.9-2.4c-0.2-0.5-0.3-1-0.5-1.5c-0.1-0.3-0.2-0.5-0.2-0.8c-0.4-1.3-0.8-2.8-1.1-4.1l-0.1-0.6
			c-0.7-3.7-1.1-6.8-1.2-9.8c-0.1-1.3,0-2.6,0-3.9l0-1c0-0.5,0.1-1.1,0.1-1.6l0.1-1.5c0.1-0.6,0.1-1.1,0.2-1.7
			c1.3-8.2,4.1-16.3,6.9-24.1c0.9-2.5,1.7-4.9,2.6-7.4c0.1-0.3,0.1-0.6-0.1-0.9c-0.1-0.3-0.4-0.5-0.6-0.6l-1.5-0.5
			c-0.3-0.1-0.6-0.1-0.8,0.1s-0.5,0.4-0.6,0.6c-0.7,2.1-1.4,4.2-2.2,6.3c-1.3,3.9-2.7,7.9-4,11.9c-1.6,5.2-2.7,9.7-3.5,14
			c-0.1,0.6-0.2,1.3-0.2,2l-0.1,1.5c-0.1,0.6-0.1,1.2-0.1,1.8l0,1c0,1.4-0.1,2.8,0,4.2c0.1,3.1,0.5,6.4,1.3,10.4l0.1,0.6
			c0.3,1.5,0.7,3,1.2,4.5l0.2,0.8c0.2,0.6,0.4,1.2,0.6,1.7l0.9,2.4c1.5,3.6,3,6.6,4.7,9.2l0.7,1.1c0.2,0.2,0.3,0.5,0.5,0.7l1.7,2.5
			l1.8,2.3c0.2,0.2,0.4,0.5,0.6,0.7l0.8,0.9c2,2.4,4.4,4.7,7.5,7.2l2,1.6c0.5,0.4,1,0.7,1.5,1.1l0.7,0.5c1.2,0.9,2.5,1.6,3.7,2.4
			l0.7,0.4c0.5,0.3,1.1,0.6,1.6,0.9l0.7,0.3c0.8,0.4,1.6,0.8,2.4,1.1l2.4,1c0.6,0.2,1.3,0.5,1.9,0.7l1.8,0.6
			c0.3,0.1,0.6,0.2,0.9,0.3l2.9,0.8l3.8,0.9l3.9,0.6c0.7,0.1,1.4,0.1,2.1,0.2l0.3,0c-1.2,0.5-2.3,1-3.5,1.5l-1.9-0.3l-2.6-0.5
			c-0.9-0.2-1.8-0.4-2.6-0.6l-3-0.9c-0.3-0.1-0.6-0.2-0.9-0.3l-1.8-0.7c-0.7-0.2-1.3-0.5-2-0.7l-2.5-1.1c-0.8-0.3-1.6-0.8-2.4-1.2
			l-0.7-0.4c-0.6-0.3-1.1-0.6-1.7-0.9l-0.6-0.4c-1.3-0.8-2.7-1.6-3.9-2.5l-0.7-0.5c-0.5-0.3-1-0.7-1.5-1.1l-2.1-1.7
			c-3.1-2.6-5.6-5-7.7-7.4l-0.9-1c-0.2-0.2-0.4-0.5-0.6-0.7l-1.9-2.4l-1.8-2.5c-0.2-0.3-0.4-0.5-0.5-0.8l-0.7-1.2
			c-1.7-2.7-3.3-5.8-4.8-9.5l-1-2.6c-0.2-0.6-0.4-1.1-0.6-1.7l-0.3-0.8c-0.5-1.5-0.9-3.2-1.2-4.7l-0.1-0.4c-0.8-4-1.2-7.5-1.3-10.7
			c-0.1-1.5,0-3,0-4.4l0-1c0-0.6,0.1-1.2,0.1-1.8l0.1-1.5c0.1-0.6,0.1-1.3,0.2-2c0.6-4,2.8-12.8,9.4-31.6l0.3-0.9
			c0.1-0.3,0.1-0.6-0.1-0.8c-0.1-0.3-0.4-0.5-0.6-0.6l-1.5-0.5c-0.3-0.1-0.6-0.1-0.8,0.1c-0.3,0.1-0.5,0.4-0.6,0.6
			c-2,6-7.7,23.1-8.4,25.7c0,0,0,0,0,0c-0.6,2.2-1,4.5-1.5,7.5c-0.1,0.7-0.2,1.4-0.3,2.2l-0.1,1.5c-0.1,0.7-0.1,1.4-0.2,2.1l0,0.9
			c0,1.6-0.1,3.2,0,4.7c0.1,3.4,0.5,7.1,1.4,11.4l0.1,0.4c0.4,1.7,0.8,3.4,1.3,5.1l0.3,0.8c0.2,0.6,0.4,1.3,0.6,1.9l1,2.7
			c1.6,3.9,3.3,7.2,5.1,10.1l0.7,1.2c0.2,0.3,0.4,0.6,0.6,0.9l1.8,2.6l2,2.5c0.2,0.3,0.4,0.5,0.6,0.8l0.9,1c2.2,2.6,4.9,5.2,8.1,7.9
			l2.2,1.7c0.5,0.4,1.1,0.8,1.6,1.2l0.7,0.5c1.4,1,2.8,1.8,4.2,2.7l0.6,0.4c0.6,0.3,1.2,0.7,1.8,1l0.7,0.4c0.8,0.4,1.7,0.9,2.6,1.3
			l2.6,1.1c0.7,0.3,1.5,0.6,2.2,0.8l1.8,0.7c0.3,0.1,0.7,0.2,1,0.3l3.1,0.9c0.9,0.2,1.8,0.4,2.7,0.6c-0.8,0.5-1.6,0.9-2.3,1.4
			c-0.3-0.1-0.6-0.1-0.9-0.2l-3.2-0.9c-0.4-0.1-0.7-0.2-1-0.3l-1.8-0.7c-0.8-0.3-1.6-0.6-2.3-0.9l-2.7-1.2c-0.9-0.4-1.8-0.8-2.6-1.3
			l-0.7-0.3c-0.6-0.3-1.3-0.7-1.9-1l-0.5-0.3c-1.5-0.9-3-1.8-4.4-2.8l-0.8-0.5c-0.5-0.4-1.1-0.7-1.6-1.2l-2.3-1.8
			c-3.3-2.8-6.1-5.4-8.3-8.1l-1-1.1c-0.2-0.3-0.4-0.5-0.6-0.8l-2.1-2.6l-1.9-2.8c-0.2-0.3-0.4-0.6-0.5-0.8l-0.8-1.3
			c-1.9-3-3.6-6.4-5.2-10.4l-1-2.8c-0.2-0.6-0.4-1.3-0.6-1.9l-0.3-0.9c-0.6-1.8-1-3.6-1.4-5.4l-0.1-0.2c-0.9-4.3-1.3-8.1-1.4-11.7
			c-0.1-1.7,0-3.4,0-5l0-0.9c0-0.7,0.1-1.4,0.2-2.1l0.1-1.5c0.1-0.7,0.1-1.5,0.3-2.2c1.3-8.6,6.7-24.4,9.8-33l0.2-0.6
			c0.1-0.3,0.1-0.6-0.1-0.8c-0.1-0.3-0.4-0.5-0.6-0.6l-1.5-0.5c-0.3-0.1-0.6-0.1-0.8,0.1c-0.3,0.1-0.5,0.4-0.6,0.6
			c-0.8,2.4-1.7,4.8-2.5,7.3c-3.1,8.7-6.2,17.7-7.6,27c-0.1,0.8-0.2,1.6-0.3,2.4l-0.1,1.6c-0.1,0.7-0.1,1.5-0.2,2.3l0,0.8
			c-0.1,1.8-0.1,3.6,0,5.4c0.1,3.7,0.6,7.8,1.5,12.4l0,0.2c0.4,1.9,0.9,3.9,1.5,5.8l0.3,0.9c0.2,0.7,0.4,1.4,0.7,2.1l1.1,2.9
			c1.7,4.2,3.5,7.8,5.5,11l0.8,1.3c0.2,0.3,0.4,0.6,0.6,1l2,2.9l2.2,2.8c0.2,0.3,0.4,0.6,0.7,0.8l1,1.1c2.4,2.8,5.3,5.6,8.8,8.5
			l2.4,1.9c0.6,0.5,1.2,0.9,1.8,1.3l0.7,0.5c1.5,1.1,3.2,2.1,4.8,3l0.4,0.3c0.7,0.4,1.3,0.7,2,1.1l0.7,0.4c0.8,0.4,1.8,0.9,2.8,1.4
			l2.8,1.2c0.8,0.3,1.7,0.6,2.6,1l1.8,0.6c0.4,0.1,0.7,0.2,1.1,0.3l1.1,0.3c-0.6,0.4-1.2,0.9-1.7,1.3c-3.3,2.6-6.4,5.5-9,8.4
			c-2.8,3.2-5.3,6.5-7.5,9.9c-2.3,3.7-4.2,7.4-5.6,10.9c-0.3,0.7-0.6,1.4-0.8,2l-0.3,0.8c-0.3,0.9-0.8,2.1-0.9,2.5l-0.9,2.8
			c-0.3,0.9-0.5,1.8-0.7,2.7l-0.1,0.3c-1,4.1-1.7,8.2-1.9,12.2c-0.3,4.1-0.2,8.3,0.2,12.4c0.4,4,1.2,8.1,2.3,12.1
			c2.2,7.9,5.7,15.3,10.4,22.2c4.6,6.7,10.4,12.6,17.3,17.5c6.8,4.8,14.4,8.5,22.1,10.6l2.1,0.6c0.3,0.1,0.6,0.2,1,0.3l0.8,0.2
			c0.3,0.1,0.6,0.2,0.9,0.3l0.7,0.3c0.3,0.1,0.6,0.3,0.9,0.4c0.2,0.1,0.3,0.1,0.4,0.2l0.2,0.1c0.3,0.2,0.5,0.3,0.8,0.4
			c1.8,1,3.5,2.4,5.1,4.2c1.5,1.7,2.7,3.7,3.7,5.7c0.9,2.2,1.5,4.5,1.8,6.9l0.1,0.8c0,0.3,0,0.6,0.1,1c0,0.1,0,0.2,0,0.4
			c0,0.2,0,0.3,0,0.4c0,0.2,0,0.3,0,0.5c0,0.1,0,0.3,0,0.3c0,0.3-0.1,0.6-0.1,0.9l0,0.3c0,0.2,0,0.3-0.1,0.5c0,0.3-0.1,0.5-0.1,0.8
			c0,0.3-0.1,0.6-0.2,1c-0.5,2.2-1.2,4.3-2.3,6.2c-1.1,1.9-2.5,3.6-4.3,5.3c-0.3,0.2-0.5,0.4-0.8,0.7l-6.8,5.6
			c-0.3,0.2-0.5,0.4-0.8,0.6l-0.8,0.6c-4.1,2.9-9,4.6-14.1,4.8c-5.1,0.2-10.1-1-14.5-3.6c-0.2-0.1-0.3-0.2-0.5-0.3l-0.9-0.6
			c0,0,0,0,0,0c0,0,0,0-0.1-0.1L84.9,204.9c-0.5-0.4-1.2-0.3-1.6,0.1l-1,1.2c-0.2,0.2-0.3,0.5-0.3,0.8c0,0.3,0.2,0.6,0.4,0.8
			l107.7,92.4l18.4,15.8c0,0,0,0,0,0l0,0c0,0,0.1,0,0.1,0.1c0,0,0,0,0,0c0,0,0,0,0,0c0,0,0.1,0,0.1,0.1c0,0,0,0,0,0c0,0,0,0,0,0
			l1,0.6c0.2,0.1,0.5,0.3,0.6,0.4c4.6,2.7,9.8,4.1,15.2,4.1c0.4,0,0.9,0,1.3,0c5.8-0.2,11.4-2.1,16.1-5.5l0.9-0.7
			c0.3-0.2,0.5-0.4,0.8-0.7l5.8-4.8l1.1-1c0.2-0.2,0.5-0.4,0.8-0.7c2.1-1.9,3.8-4,5-6.3c1.3-2.3,2.2-4.7,2.7-7.2
			c0.1-0.5,0.2-0.9,0.2-1.3c0-0.2,0.1-0.4,0.1-0.6c0.1-0.3,0.1-0.6,0.1-0.9l0-0.2c0-0.3,0-0.6,0.1-1c0-0.2,0-0.4,0-0.5v-0.5
			c0-0.1,0-0.2,0-0.3c0-0.3,0-0.5,0-0.7c0-0.3,0-0.6-0.1-0.9l-0.1-1.1c-0.3-2.7-1-5.4-2.1-7.9c-1.1-2.4-2.5-4.7-4.3-6.7
			c-1.9-2.1-3.8-3.7-6.1-5c-0.3-0.1-0.5-0.3-0.8-0.4l-0.2-0.1c-0.3-0.2-0.5-0.3-0.8-0.4c-0.3-0.1-0.6-0.2-0.8-0.4l-1-0.4
			c-0.3-0.1-0.6-0.2-1-0.4c-0.1-0.1-0.3-0.1-0.4-0.2l-0.5-0.1c-0.3-0.1-0.6-0.2-0.9-0.3l-0.2-0.1c0,0-0.2-0.1-0.2-0.1l-1.8-0.5
			c-7.3-2-14.5-5.5-21-10.1c-6.5-4.7-12-10.2-16.4-16.6c-4.5-6.5-7.8-13.6-9.9-21c-1.1-3.8-1.8-7.7-2.2-11.5
			c-0.4-3.9-0.4-7.8-0.2-11.7c0.2-3.7,0.9-7.6,1.8-11.5l0.1-0.4c0.2-0.8,0.4-1.6,0.7-2.4l0.8-2.7c0.1-0.5,0.5-1.5,0.8-2.4l0.3-0.9
			c0.2-0.6,0.4-1.2,0.7-1.9c1.4-3.4,3.2-6.9,5.4-10.4c2-3.2,4.4-6.3,7.1-9.3c2.5-2.8,5.4-5.5,8.6-8c1.4-1.1,3-2.2,4.6-3.3
			c0.6-0.4,1.2-0.8,1.8-1.1c0,0,0,0,0,0c1.1-0.7,2.2-1.3,3.3-1.9c0.8-0.4,1.6-0.8,2.4-1.2c0,0,0,0,0,0c0.9-0.4,1.8-0.9,2.7-1.3
			c1.8-0.8,3.6-1.5,5.6-2.2c2.9-1,6.1-1.8,9.6-2.5l5.6-0.8l11.9-1.7l73.5-10.6l3.5-0.5c0.7-0.1,1.3-0.1,2-0.2l0.5,0
			c3.3-0.1,6.6,0.3,9.7,1.3c3.2,1,6.1,2.5,8.8,4.5c2.6,2,4.9,4.4,6.8,7.2c1.8,2.7,3.1,5.8,3.9,8.9l0.1,0.5c0.1,0.7,0.3,1.3,0.4,2
			l0.3,2.6c0,0.3,0,0.5,0,0.8l0.1,1.7c0,0.2,0,0.5,0,0.7c0,0.2,0,0.4,0,0.5c0,0.2,0,0.4,0,0.6c0,0.2,0,0.5,0,0.7
			c-0.3,3.2-1.2,6.4-2.6,9.4c-0.1,0.2-0.2,0.4-0.3,0.6c-0.1,0.1-0.2,0.3-0.2,0.4c-0.1,0.2-0.2,0.3-0.3,0.5c-0.1,0.2-0.2,0.4-0.3,0.5
			l-1,1.6c-0.1,0.1-0.1,0.2-0.2,0.3l-0.9,1.3c-0.1,0.2-0.3,0.4-0.4,0.5c-0.1,0.1-0.2,0.3-0.3,0.4c-0.1,0.1-0.2,0.3-0.3,0.4
			c-0.1,0.2-0.3,0.3-0.5,0.5l-0.9,1c-0.2,0.2-0.4,0.4-0.7,0.6l-1.1,1l-1.1,0.8c-0.3,0.2-0.6,0.5-0.9,0.7l-1.1,0.8
			c-0.2,0.1-0.4,0.2-0.6,0.4c-0.2,0.1-0.3,0.2-0.4,0.3c-0.2,0.1-0.3,0.2-0.5,0.3c-0.2,0.1-0.4,0.2-0.6,0.3l-1.2,0.6
			c-0.3,0.2-0.6,0.3-0.9,0.4l-2.7,1.1c-0.3,0.1-0.6,0.2-1,0.3l-1.3,0.4c-0.2,0.1-0.4,0.1-0.6,0.1c-0.2,0-0.4,0.1-0.5,0.1
			c-0.2,0-0.4,0.1-0.5,0.1c-0.2,0-0.4,0.1-0.7,0.1l-1.3,0.2c-3.1,0.4-6.3,0.2-9.7-0.6c-1.6-0.3-3.2-0.9-4.7-1.5l-2.2-1l-2.3-1.3
			l-37.3-23.6c-0.2-0.1-0.5-0.3-0.8-0.5l-1.3-0.8c-1.2-0.7-2.4-1.3-3.6-1.9l-1.9-0.9c-1.3-0.6-2.6-1.2-3.9-1.6
			c-1.5-0.6-3-1.1-4.5-1.5l-1.1-0.3c-0.9-0.2-1.8-0.5-2.7-0.7l4.9-0.7c1.4,0.4,2.8,0.9,4.2,1.4c1.4,0.5,2.8,1.1,4.1,1.7l1.7,0.8
			c1.3,0.6,2.6,1.3,3.8,2l1.3,0.8c0.3,0.2,0.7,0.4,0.9,0.5l37.3,23.6l0.2,0.1c0,0,0.2,0.1,0.2,0.1l1.8,1.1c0.3,0.2,0.7,0.3,1,0.5
			l1.1,0.5c1.4,0.5,2.8,1.1,4.3,1.4c2,0.5,4,0.7,6,0.7c1,0,2-0.1,3-0.2c0.4-0.1,0.7-0.1,1-0.1c0.3,0,0.5-0.1,0.8-0.1
			c0.1,0,0.2-0.1,0.4-0.1c0.1,0,0.2,0,0.4-0.1c0.3,0,0.5-0.1,0.8-0.2c0.3-0.1,0.7-0.2,1-0.3c0.4-0.1,0.7-0.2,1.2-0.4
			c0.3-0.1,0.7-0.2,1.1-0.4c0.3-0.2,0.7-0.3,1-0.4l0.2-0.1c0.3-0.1,0.7-0.3,1-0.4c0.3-0.2,0.6-0.3,0.9-0.5c0.3-0.1,0.5-0.3,0.7-0.4
			c0.1-0.1,0.2-0.1,0.4-0.2c0.1-0.1,0.2-0.1,0.3-0.2c0.2-0.1,0.5-0.3,0.7-0.4c0.3-0.2,0.6-0.4,0.9-0.6c0.3-0.2,0.7-0.5,1-0.8
			c0.3-0.2,0.6-0.5,0.9-0.7l1-0.9c0.3-0.2,0.5-0.5,0.7-0.7c0.2-0.3,0.5-0.5,0.7-0.7c0.2-0.2,0.4-0.4,0.6-0.6
			c0.1-0.1,0.1-0.2,0.3-0.3c0.1-0.1,0.2-0.2,0.3-0.3c0.2-0.2,0.3-0.4,0.5-0.6c0.2-0.3,0.4-0.6,0.6-0.9l0.1-0.1
			c0.1-0.1,0.2-0.2,0.3-0.4l0.3-0.5c0.2-0.3,0.4-0.6,0.6-1c0.1-0.2,0.2-0.4,0.3-0.6l0.2-0.5c0-0.1,0.1-0.2,0.2-0.3
			c0.1-0.3,0.3-0.5,0.4-0.7c1.3-2.8,2.1-5.7,2.3-8.7c0-0.2,0-0.5,0-0.7c0-0.1,0-0.3,0-0.5c0-0.1,0-0.3,0-0.4c0-0.2,0-0.5,0-0.8
			c0-0.4,0-0.7,0-1.1l0-0.3c0-0.3,0-0.7-0.1-0.9l-0.3-2.3c-0.1-0.6-0.2-1.2-0.3-1.8l-0.1-0.5c-0.8-3-2-5.8-3.7-8.4
			c-1.7-2.6-3.8-4.8-6.3-6.7c-2.5-1.8-5.2-3.3-8.2-4.2c-2.9-0.9-5.9-1.3-9.1-1.2l-0.5,0c-0.6,0-1.2,0.1-1.7,0.2l-64.2,9.2l-4.1,0.6
			l-20.6,3c-1,0.1-2.4,0.2-3.8,0.5c-0.5,0.1-0.9,0.2-1.4,0.2l-0.4,0.1l0,0c-3.3,0.6-6.4,1.4-9.3,2.4c0,0,0,0,0,0
			c-3.2,1.1-6.3,2.4-9,3.8c0,0,0,0,0,0l-0.4,0.2c-0.3,0.1-0.6,0.3-0.9,0.4c-0.2,0.1-0.5,0.3-0.7,0.4l-0.4,0.2
			c-3.1,1.8-5.9,3.6-8.4,5.6c-3.1,2.4-5.9,5-8.3,7.8c-2.6,2.9-4.9,6-6.9,9.1c-2.1,3.4-3.9,6.8-5.2,10c-0.3,0.6-0.5,1.2-0.7,1.8
			l-0.3,0.8c-0.3,0.9-0.7,1.9-0.8,2.4l-0.8,2.6c-0.2,0.8-0.4,1.6-0.6,2.4l-0.1,0.4c-0.9,3.8-1.6,7.6-1.8,11.2
			c-0.3,3.8-0.2,7.6,0.1,11.4c0.4,3.7,1.1,7.4,2.1,11.2c2,7.2,5.2,14.1,9.6,20.4c4.3,6.1,9.6,11.6,15.9,16.1
			c6.3,4.5,13.2,7.8,20.4,9.8l3.8,1.1c0.1,0,0.1,0.1,0.2,0.1l1.3,0.5l0.9,0.4c0.3,0.2,0.7,0.3,1.1,0.5c0.2,0.1,0.4,0.2,0.6,0.3
			l0.2,0.1c0.3,0.2,0.7,0.4,1,0.5c2.3,1.3,4.5,3.1,6.5,5.4c1.9,2.2,3.4,4.6,4.6,7.2c1.1,2.7,1.9,5.5,2.2,8.5l0.2,2.2
			c0,0.2,0,0.4,0,0.5c0,0.2,0,0.3,0,0.5l0,0.5c0,0.2,0,0.4,0,0.5c0,0.4-0.1,0.8-0.1,1.1l0,0.3c0,0.2,0,0.5-0.1,0.7
			c0,0.3-0.1,0.6-0.1,0.9c-0.1,0.4-0.1,0.8-0.2,1.3c-0.6,2.8-1.6,5.5-2.9,7.9c-1.3,2.4-3.1,4.6-5.4,6.7l-7.8,6.5l-1.8,1.4
			c-5,3.5-10.9,5.6-17.1,5.8c-6.1,0.3-12.3-1.3-17.6-4.4c-0.2-0.1-0.4-0.2-0.6-0.4l-1.1-0.7c-0.1-0.1-0.2-0.2-0.3-0.2L81.3,209.2
			c-0.5-0.4-1.2-0.3-1.6,0.1l-1,1.2c-0.2,0.2-0.3,0.5-0.3,0.8c0,0.3,0.2,0.6,0.4,0.8l61.1,52.4l46.5,40l18.6,15.9
			c0.1,0.1,0.2,0.2,0.4,0.3l1.4,0.9c0.3,0.2,0.5,0.3,0.8,0.5c5.4,3.2,11.8,4.9,18.1,4.9c0.5,0,1,0,1.5,0c6.9-0.3,13.5-2.5,19.1-6.5
			l7.9-6.4l2.1-1.9c2.5-2.3,4.6-4.9,6.1-7.6c1.6-2.8,2.7-5.8,3.3-8.9c0.2-0.6,0.2-1.1,0.3-1.6c0-0.3,0.1-0.5,0.1-0.8
			c0.1-0.3,0.1-0.7,0.1-1l0.1-1.5c0-0.2,0-0.5,0-0.7l0-0.5c0-0.1,0-0.3,0-0.4c0-0.3,0-0.6,0-0.8l-0.1-1.2l-0.1-1.3
			c-0.4-3.3-1.2-6.5-2.5-9.6c-1.3-3-3.1-5.7-5.2-8.2c-2.2-2.5-4.7-4.6-7.4-6.1l-1.3-0.7c-0.3-0.2-0.6-0.3-0.9-0.4l-3.6-1.5
			c-0.2-0.1-0.3-0.1-0.5-0.2l-2-0.6c0,0-0.2,0-0.2-0.1l-1.6-0.5c-6.8-1.9-13.3-5-19.2-9.2c-5.9-4.3-11-9.4-15-15.2
			c-4.2-6-7.2-12.5-9.1-19.3c-1-3.5-1.6-7.1-2-10.5c-0.3-3.6-0.4-7.2-0.1-10.8c0.2-3.4,0.8-7,1.7-10.6l0.1-0.3
			c0.2-0.7,0.4-1.5,0.6-2.2l0.8-2.5c0.2-0.5,0.5-1.4,0.8-2.2l0.3-0.8c0.2-0.6,0.4-1.1,0.7-1.7c1.3-3.1,2.9-6.2,4.9-9.5
			c1.8-2.9,4-5.8,6.5-8.6c2.3-2.6,5-5,7.9-7.3c2.6-2.1,5.7-4,9-5.8c0.1-0.1,0.3-0.2,0.5-0.2l0.3-0.2c0,0,0,0,0,0c0,0,0,0,0,0
			c0.9-0.5,1.7-0.9,2.6-1.3c2-0.9,4.2-1.8,6.4-2.5c2.7-0.9,5.5-1.7,8.6-2.2l5.4-0.8l11.4-1.6l13.1-1.9l3.6-0.5l57.4-8.2l3.4-0.5
			c0.5-0.1,1-0.1,1.5-0.1l0.5,0c2.7-0.1,5.3,0.3,7.8,1c2.5,0.8,4.9,2,7.1,3.6c2.1,1.6,4,3.6,5.4,5.8c1.4,2.2,2.5,4.6,3.2,7.2
			l0.1,0.5c0.1,0.5,0.2,1,0.3,1.5l0.1,1c0,0.4,0.1,0.8,0.1,1.2c0,0.2,0,0.4,0,0.6l0,0.3c0,0.4,0,0.7,0,1l-0.1,2
			c-0.2,2.6-0.9,5.1-2,7.6c0,0.1-0.1,0.3-0.2,0.4c-0.1,0.1-0.1,0.2-0.2,0.3c-0.1,0.2-0.2,0.3-0.2,0.5c-0.1,0.1-0.1,0.3-0.2,0.4
			c-0.2,0.3-0.4,0.6-0.6,0.9l-0.5,0.8c-0.2,0.3-0.4,0.6-0.6,0.9c-0.1,0.1-0.2,0.3-0.3,0.4c-0.1,0.1-0.2,0.2-0.3,0.3
			c-0.1,0.1-0.2,0.2-0.3,0.4c-0.1,0.1-0.2,0.2-0.3,0.4c-0.3,0.3-0.5,0.5-0.8,0.8c-0.1,0.2-0.3,0.3-0.5,0.5l-0.9,0.8
			c-0.3,0.2-0.6,0.4-0.9,0.7c-0.2,0.2-0.4,0.4-0.7,0.5c-0.3,0.2-0.6,0.4-0.9,0.6c-0.1,0.1-0.3,0.2-0.4,0.3c-0.1,0.1-0.3,0.2-0.4,0.2
			c-0.1,0.1-0.3,0.2-0.4,0.3c-0.1,0.1-0.3,0.2-0.5,0.3c-0.3,0.2-0.7,0.3-1,0.5c-0.2,0.1-0.4,0.2-0.7,0.3l-0.2,0.1
			c-0.3,0.1-0.7,0.3-0.9,0.4c-0.3,0.1-0.7,0.2-1,0.4c0,0-0.1,0.1-0.2,0.1c-0.2,0.1-0.5,0.2-0.8,0.2c-0.3,0.1-0.7,0.2-1.1,0.3
			c-0.1,0-0.3,0.1-0.4,0.1c-0.2,0-0.3,0.1-0.4,0.1c-0.2,0-0.3,0.1-0.5,0.1c-0.2,0-0.3,0.1-0.5,0.1c-0.4,0-0.7,0.1-1,0.1
			c-2.4,0.3-5,0.2-7.7-0.5c-1.2-0.3-2.5-0.7-3.8-1.2l-0.9-0.4c-0.3-0.2-0.7-0.3-0.9-0.4l-39.2-24.7c-0.2-0.1-0.6-0.4-1.1-0.7
			l-1.2-0.7c-1.3-0.8-2.7-1.5-4-2.2l-1.8-0.9c-0.6-0.3-1.3-0.6-2-0.9l3.5-0.5l0.9,0.5c1.4,0.7,2.9,1.5,4.3,2.3l1.3,0.8
			c0.4,0.2,0.8,0.5,1,0.6l37.3,23.6l0.2,0.1c0,0,0.1,0.1,0.2,0.1l1.5,0.9c0.3,0.1,0.5,0.2,0.8,0.4l0.6,0.3c0,0,0.1,0,0.1,0.1
			l0.2,0.1c1.1,0.4,2.2,0.9,3.4,1.1c1.6,0.4,3.2,0.6,4.7,0.6c0.8,0,1.6-0.1,2.4-0.2c0.3,0,0.5-0.1,0.8-0.1c0.2,0,0.4-0.1,0.7-0.1
			c0.1,0,0.2,0,0.4-0.1c0.1,0,0.2,0,0.2,0c0.2,0,0.5-0.1,0.7-0.1c0.3-0.1,0.5-0.2,0.7-0.2c0.3-0.1,0.6-0.2,1-0.3
			c0.3-0.1,0.5-0.2,0.8-0.3c0.1,0,0.1,0,0.1-0.1c0.3-0.1,0.5-0.2,0.9-0.4c0.3-0.1,0.6-0.2,0.8-0.4c0.2-0.1,0.5-0.3,0.7-0.4
			c0.2-0.1,0.4-0.2,0.6-0.4c0.1-0.1,0.2-0.1,0.3-0.2c0.1-0.1,0.2-0.1,0.2-0.1c0.2-0.1,0.4-0.2,0.6-0.4c0.2-0.2,0.5-0.3,0.6-0.5
			c0.3-0.2,0.6-0.4,0.9-0.6c0.2-0.2,0.4-0.3,0.7-0.5c0,0,0.1-0.1,0.2-0.1c0.2-0.2,0.4-0.4,0.6-0.5l0.1-0.1c0.2-0.2,0.4-0.4,0.6-0.6
			c0.2-0.2,0.4-0.4,0.5-0.6c0.2-0.2,0.3-0.4,0.5-0.6c0-0.1,0.1-0.1,0.2-0.3c0.1-0.1,0.1-0.1,0.2-0.2c0.1-0.2,0.3-0.3,0.4-0.5
			c0.2-0.2,0.3-0.4,0.6-0.8c0.1-0.1,0.1-0.2,0.2-0.3l0.2-0.4c0.1-0.2,0.3-0.4,0.5-0.7c0.1-0.1,0.2-0.3,0.2-0.4l0.3-0.6
			c0.1-0.2,0.2-0.4,0.3-0.6c1-2.2,1.6-4.4,1.8-6.8c0-0.2,0-0.4,0-0.6c0-0.1,0-0.2,0-0.4c0-0.1,0-0.2,0-0.3c0-0.2,0-0.4,0-0.7
			c0-0.3,0-0.6,0-0.9l0-0.2c0-0.3,0-0.6,0-0.8c0-0.3-0.1-0.6-0.1-0.9l-0.1-1c-0.1-0.4-0.2-0.9-0.2-1.3l-0.1-0.5
			c-0.6-2.4-1.6-4.6-2.9-6.6c-1.4-2-3-3.8-5-5.3c-2-1.5-4.1-2.6-6.5-3.3c-2.3-0.7-4.7-1-7.1-0.9c0,0,0,0-0.1,0l-0.5,0
			c-0.4,0-0.9,0.1-1.2,0.1l-0.3,0c0,0-0.1,0-0.3,0l-64.7,9.3l-4,0.6l-19.7,2.8c-1.1,0.1-2.3,0.2-3.6,0.5c-0.5,0.1-1.1,0.2-1.6,0.3
			l-0.2,0c-3,0.6-5.7,1.3-8.3,2.1l-0.8,0.3c0,0,0,0,0,0c-3.3,1.2-6.1,2.4-8.7,3.8c-3.3,1.8-6.1,3.6-8.7,5.7
			c-2.8,2.2-5.4,4.6-7.6,7.1c-2.4,2.7-4.5,5.5-6.3,8.3c-2,3.2-3.5,6.2-4.7,9.2c-0.2,0.5-0.5,1.1-0.7,1.7l-0.3,0.9
			c-0.3,0.8-0.6,1.6-0.7,2.1l-0.7,2.4c-0.2,0.7-0.4,1.4-0.6,2.1l-0.1,0.4c-0.9,3.5-1.4,7-1.6,10.3c-1.1,13.9,2.8,27.9,10.9,39.4
			c3.9,5.6,8.8,10.6,14.6,14.7c5.8,4.1,12.1,7.1,18.7,9l4,1.2c0.1,0,0.2,0.1,0.3,0.1l1.5,0.6l2.4,1.1c0.3,0.1,0.5,0.3,0.8,0.4
			l1.4,0.8c2.8,1.6,5.5,3.8,7.8,6.5c2.3,2.6,4.2,5.5,5.5,8.7c1.4,3.2,2.3,6.6,2.7,10.1l0.2,2.7c0,0.2,0,0.5,0,0.7c0,0.2,0,0.4,0,0.5
			l0,0.6c0,0.2,0,0.5,0,0.7l-0.1,1.7c0,0.3,0,0.6-0.1,0.9c-0.1,0.3-0.1,0.6-0.1,0.9c-0.1,0.6-0.1,1.1-0.3,1.7
			c-0.7,3.4-1.9,6.6-3.6,9.6c-1.6,2.9-3.8,5.6-6.4,8.1l-8.1,6.8l-2.2,1.6c-5.8,4.1-13,6.5-20.1,6.8c-3.7,0.1-7.3-0.2-10.7-1.1
			c-3.6-0.9-7-2.3-10-4.1c-0.3-0.1-0.5-0.3-0.7-0.4l-1.4-0.9c-0.1-0.1-0.2-0.1-0.4-0.2L77.6,213.5c-0.5-0.4-1.2-0.3-1.6,0.1l-1,1.2
			c-0.2,0.2-0.3,0.5-0.3,0.8c0,0.3,0.2,0.6,0.4,0.8L136.2,268.8z M341.5,125.8l0.4,1.1l0.3,0c0.3-0.1,0.7-0.1,1-0.1l0.5,0
			c2-0.1,4,0.2,5.9,0.8c1.9,0.6,3.7,1.5,5.4,2.7c1.6,1.2,3,2.7,4.1,4.4c1.1,1.7,1.9,3.5,2.4,5.4l0.1,0.5c0.1,0.3,0.1,0.7,0.2,1.1
			l0.1,0.7c0,0.3,0.1,0.6,0.1,1c0,0.1,0,0.2,0,0.4l0,0.3c0,0.3,0,0.6,0,0.9c0,0.1,0,0.2,0,0.3c0,0.1,0,0.3,0,0.4c0,0.1,0,0.3,0,0.4
			c0,0.1,0,0.2,0,0.3c-0.2,2-0.7,3.8-1.5,5.7c0,0.1-0.1,0.1-0.1,0.2c-0.1,0.1-0.1,0.2-0.2,0.3c-0.1,0.1-0.1,0.3-0.2,0.4
			c0,0.1-0.1,0.2-0.1,0.2c-0.2,0.2-0.3,0.5-0.5,0.7l-0.4,0.5c-0.2,0.2-0.3,0.5-0.5,0.7c-0.1,0.1-0.1,0.2-0.2,0.2
			c-0.1,0.1-0.2,0.2-0.2,0.2c-0.1,0.1-0.2,0.2-0.3,0.3c-0.1,0.1-0.1,0.2-0.2,0.2c-0.2,0.2-0.4,0.4-0.7,0.7c-0.1,0.1-0.2,0.2-0.3,0.3
			l-0.1,0.1c-0.2,0.2-0.4,0.4-0.5,0.5c-0.2,0.2-0.5,0.4-0.8,0.6c-0.1,0.1-0.3,0.2-0.5,0.4c-0.2,0.2-0.5,0.3-0.7,0.5
			c-0.1,0.1-0.2,0.1-0.3,0.2c-0.1,0.1-0.3,0.1-0.3,0.2c-0.1,0.1-0.2,0.1-0.4,0.2c-0.1,0.1-0.2,0.1-0.3,0.2c-0.3,0.1-0.5,0.3-0.9,0.4
			c-0.1,0.1-0.3,0.1-0.4,0.2c0,0-0.1,0.1-0.1,0.1c-0.2,0.1-0.5,0.2-0.7,0.3c-0.3,0.1-0.5,0.2-0.9,0.3c-0.1,0.1-0.3,0.1-0.5,0.2
			c-0.3,0.1-0.6,0.2-0.9,0.3c-0.1,0-0.2,0-0.2,0c-0.1,0-0.3,0-0.3,0.1c-0.1,0-0.3,0.1-0.4,0.1c-0.1,0-0.2,0.1-0.3,0.1
			c-0.3,0-0.6,0.1-0.8,0.1c-1.8,0.2-3.6,0.1-5.7-0.3c-0.9-0.2-1.8-0.5-2.8-0.9l-0.1,0l-0.5-0.3c-0.3-0.1-0.5-0.3-0.7-0.3l-38.8-24.5
			c-0.2-0.1-0.7-0.5-1.2-0.7l-1.3-0.8c-0.3-0.2-0.5-0.3-0.8-0.5l47.5-6.8L341.5,125.8z"/>
	</g>
</g>
<g>
	<path class="st20" d="M61,432.4h8.5l12.1,22.2l4.2,9H86c-0.4-4.3-1.1-9.9-1.1-14.6v-16.6h7.9v41.7h-8.4l-12-22.3l-4.2-9h-0.3
		c0.4,4.5,1,9.7,1,14.5v16.7H61V432.4z"/>
	<path class="st20" d="M133.9,439.3h-11.7v-6.9h31.9v6.9h-11.8v34.7h-8.3V439.3z"/>
	<path class="st20" d="M183.1,455.3v-22.9h8.3V456c0,8.7,3,11.6,7.9,11.6c5,0,8.1-2.9,8.1-11.6v-23.7h8v22.9
		c0,13.9-5.9,19.5-16.1,19.5C189.2,474.8,183.1,469.2,183.1,455.3z"/>
	<path class="st20" d="M245.9,453.4c0-13.7,8.8-21.8,19.4-21.8c5.3,0,9.5,2.5,12.2,5.4l-4.4,5.3c-2.1-2-4.5-3.5-7.7-3.5
		c-6.3,0-11,5.4-11,14.4c0,9.1,4.3,14.5,10.9,14.5c3.5,0,6.4-1.7,8.6-4.1l4.4,5.2c-3.4,4-7.9,6.1-13.3,6.1
		C254.4,474.8,245.9,467.3,245.9,453.4z"/>
	<path class="st20" d="M327,463.4h-13.5l-2.9,10.7h-8.4l13.3-41.7h9.8l13.4,41.7h-8.7L327,463.4z M325.2,456.9l-1.2-4.6
		c-1.3-4.3-2.4-9.1-3.7-13.6h-0.2c-1.1,4.6-2.3,9.3-3.5,13.6l-1.2,4.6H325.2z"/>
	<path class="st20" d="M363.3,453.4c0-13.7,8.8-21.8,19.4-21.8c5.3,0,9.5,2.5,12.2,5.4l-4.4,5.3c-2.1-2-4.5-3.5-7.7-3.5
		c-6.3,0-11,5.4-11,14.4c0,9.1,4.3,14.5,10.9,14.5c3.5,0,6.4-1.7,8.6-4.1l4.4,5.2c-3.4,4-7.9,6.1-13.3,6.1
		C371.9,474.8,363.3,467.3,363.3,453.4z"/>
	<path class="st20" d="M424.9,432.4h25.6v6.9h-17.2v9.6h14.6v7h-14.6v11.2h17.8v7h-26.2V432.4z"/>
</g>
</svg>
