<?xml version="1.0" encoding="utf-8"?>
<!-- Generator: $$$/GeneralStr/196=Adobe Illustrator 27.6.0, SVG Export Plug-In . SVG Version: 6.00 Build 0)  -->
<svg version="1.1" id="圖層_1" xmlns="http://www.w3.org/2000/svg" xmlns:xlink="http://www.w3.org/1999/xlink" x="0px" y="0px"
	 viewBox="0 0 720 242" style="enable-background:new 0 0 720 242;" xml:space="preserve">
<style type="text/css">
	.st0{fill:#F2C395;}
	.st1{fill:#211D63;}
	.st2{fill:#9E332E;}
	.st3{fill:#F4A6A5;}
	.st4{fill:#EE7572;}
	.st5{fill:#E3935E;}
	.st6{fill:#284A8C;}
	.st7{fill:#232065;}
	.st8{fill:#FFFFFF;}
	.st9{fill:#6D89CF;}
	.st10{fill:#2B276A;}
	.st11{fill:#AB4E49;}
	.st12{fill:#ED6966;}
	.st13{fill:#2B5A90;}
	.st14{fill:#0E3664;}
	.st15{fill:#293861;}
	.st16{fill:#75A4D6;}
	.st17{fill:#082B49;}
	.st18{fill:#9CC7EA;}
	.st19{fill:#040000;}
	.st20{fill:#D7242E;}
	.st21{fill:#EE9248;}
	.st22{fill:#E2792F;}
	.st23{fill:#21365F;}
	.st24{fill:#B33F3D;}
	.st25{fill:#992D2D;}
	.st26{fill:#0B0754;}
	.st27{fill:#B76060;}
	.st28{fill:#A94141;}
</style>
<g>
	<g>
		<path class="st0" d="M22.3,40.3c0,0,1.9-1.8,2.4-3c0.5-1.2,0.4-3.3,0.4-4.6c0,0-0.6-0.2-0.7,0.4c-0.1,0.6-0.4,2.1-0.9,2.4
			c-0.5,0.3-1.8,0.3-2,1.8C21.1,38.8,22.3,40.3,22.3,40.3z"/>
		<path class="st0" d="M17.8,40.6c0,0-1.8-3.6-1.4-4.8c0.4-1.2,5.8-2.5,6.5-1.9c0.7,0.6,0,7.3,0,7.3L17.8,40.6z"/>
		<path class="st0" d="M75,149.7c0,0-0.3,3,0.8,4.4s1.6,2.7,2,2.1c0.3-0.6-0.6-2.9-0.3-2.9c0.3,0,1.1,2.7,1.6,3.5
			c0.4,0.8,1.3,2.1,1.9,1.5c0.6-0.7-0.6-6.8-1-7.6c-0.5-0.8-1.5-2.5-1.5-2.5L75,149.7z"/>
		<polygon class="st1" points="37.7,59.6 58.4,47.9 72.3,65.1 53.3,74.3 		"/>
		<path class="st2" d="M46.4,65c0,0-0.4,1.9-1.6,2.5c-1.2,0.7,0.7,2.4,0.2,3.8c-0.5,1.3,1.4,3,1.4,3l13.4,1.5c0,0,2-0.8,2.1-3.1
			c0.2-2.3,0.4-5.2,0.4-5.2l-5.8-4.5L48,63.5L46.4,65z"/>
		<g>
			<path class="st3" d="M1.5,42.8c0,0-0.6-1.5-1-3C0.2,39,0,38.3,0,37.6c0-0.4,0-0.7,0.1-1c0,0,17.2-3.6,18.9-4.2
				c1.7-0.7,16.5-5.7,16.5-5.7s0.5,1,1,2.4c0.2,0.5,0.3,1.1,0.5,1.7c0.2,1.1,0.4,2.3,0.2,3.3c0,0-17.5,2.1-19.3,2.9
				C16.1,37.9,1.5,42.8,1.5,42.8z"/>
			<path class="st4" d="M0.4,39.7C0.2,39,0,38.3,0,37.6c0-0.4,0-0.7,0.1-1c0,0,17.2-3.6,18.9-4.2c1.7-0.7,16.5-5.7,16.5-5.7
				s0.5,1,1,2.4c0.2,0.5,0.3,1.1,0.5,1.7C32,31.5,18.7,33.2,17,33.9C15.4,34.7,4.8,38.3,0.4,39.7z"/>
			<path class="st5" d="M21.9,31.3c0,0-4.6,0.4-6.3,1.9l1,4.3c0,0,4.2-0.4,6.3-1.5L21.9,31.3z"/>
		</g>
		<path class="st1" d="M26.1,231.9c0,0,0-2.8,0.4-3.7c0.4-0.9,1.8-4.7,1.8-4.7H34c0,0,1.1,3.4,1.1,4.5c0.1,1.1,0,3.8,0,3.8H26.1z"/>
		<path class="st1" d="M62,231.9c0,0,0-2.8-0.4-3.7c-0.4-0.9-1.8-4.7-1.8-4.7h-5.7c0,0-1.1,3.4-1.1,4.5c-0.1,1.1,0,3.8,0,3.8H62z"/>
		<path class="st0" d="M47.8,76.2c0,0-1.1,6.1-2.3,8.7l-6.8,3.4l9.6,18.9l13.1-11.9L57,86.8c0,0-0.4-8.4,0.9-11.3
			C59.3,72.6,47.8,76.2,47.8,76.2z"/>
		<path class="st5" d="M47.7,77c0,0,1.2,4.7,4.6,5.1c3.5,0.4,4.9-3.4,4.9-3.4L47.7,77z"/>
		<path class="st0" d="M52.2,80.4c-2.5-0.4-6.6-4.5-6-8.6l1-6.4c0.2-1.5,1.5-2.6,2.8-2.4l9.6,1.5c1.3,0.2,2.1,1.6,1.9,3.1l-0.9,6.1
			C59.8,77.9,55,80.9,52.2,80.4z"/>
		<path class="st6" d="M26.8,136.1c0-0.8,1,30-0.5,47.4c-1.5,17.2,0,41.2,0,41.2s4.7,2.6,9.9,0c0,0,5.6-33.3,5.6-41.2
			c0-8.4,6.1-46.1,6.1-46.1L26.8,136.1z"/>
		<path class="st6" d="M61.8,224.7c0,0-4.7,2.6-9.9,0c0,0-5.6-33.3-5.6-41.2c0-3.6-1.1-12.3-2.3-21.3c-1.7-12.2-3.8-24.8-3.8-24.8
			l21.9-1.4c0,0-1.8,30.2-0.3,47.5C63.3,200.8,61.8,224.7,61.8,224.7z"/>
		<g>
			<g>
				<path class="st7" d="M50.1,72.2c-0.9-0.1-2.8-0.6-2.8-2.3c0-0.5,0.1-0.9,0.5-1.2c0.4-0.3,0.9-0.5,1.5-0.4l2.9,0.4
					c0.5,0.1,0.9,0.3,1.1,0.6c0.3,0.6-0.1,1.3-0.3,1.6c-0.6,1-1.3,1.4-2.2,1.3C50.6,72.3,50.4,72.3,50.1,72.2z M49.2,68.5
					c-0.5-0.1-1,0-1.3,0.3c-0.3,0.3-0.4,0.6-0.4,1.1c0,0.9,0.6,1.5,1.6,1.9c0.8,0.3,1.6,0.3,1.6,0.3l0,0c0.8,0.1,1.4-0.3,2-1.2
					c0.1-0.2,0.5-0.9,0.3-1.4C52.8,69.2,52.5,69,52,69L49.2,68.5z"/>
			</g>
			<g>
				<path class="st7" d="M56.7,73.2c-0.3,0-0.5-0.1-0.5-0.1c-0.9-0.1-1.4-0.7-1.7-1.9c-0.1-0.3-0.2-1.2,0.2-1.6
					c0.3-0.3,0.7-0.4,1.2-0.3l2.9,0.4c0.6,0.1,1,0.4,1.3,0.8c0.2,0.4,0.2,0.8,0.1,1.3C59.6,73.5,57.7,73.4,56.7,73.2z M55.9,69.5
					c-0.5-0.1-0.8,0-1,0.2c-0.4,0.4-0.2,1.2-0.2,1.4c0.3,1.1,0.8,1.6,1.5,1.7l0,0c0,0,0.8,0.2,1.6,0.2c1.1-0.1,1.8-0.5,2.1-1.3
					c0.2-0.4,0.1-0.8-0.1-1.1c-0.2-0.4-0.6-0.6-1.1-0.7L55.9,69.5z"/>
			</g>
			<g>
				<path class="st7" d="M52.8,70.2C52.7,70.2,52.7,70.2,52.8,70.2c-0.1-0.1-0.1-0.2,0-0.2c0.1,0,1.3-0.3,2.2,0.3
					c0.1,0,0.1,0.1,0,0.2c0,0.1-0.1,0.1-0.2,0C54,69.9,52.8,70.2,52.8,70.2C52.8,70.2,52.8,70.2,52.8,70.2z"/>
			</g>
		</g>
		<path class="st8" d="M50.2,88.2l-6.5-2.8c0,0-3.3,26.6,1.1,28.2c0,0,12.7-22.6,11.9-25.5L50.2,88.2z"/>
		<path class="st9" d="M46.1,83.7c0,0-1.8,0.3-2.8,1.2c0,0,1.4,4.5,5.1,5.9l1.6-2.6C50,88.2,47,86.8,46.1,83.7z"/>
		<path class="st9" d="M50,88.2c0,0,6-0.2,6.9-3.1c0,0,1.2,1.3,1.2,3.3c0,0-1.9,2.9-6.7,2.9L50,88.2z"/>
		<path class="st8" d="M50.5,75.9c0,0,3.2,0.1,4.6,0.7c0,0-1,1.2-2.3,1C51.6,77.4,50.7,76.7,50.5,75.9z"/>
		<path class="st0" d="M27.8,66.4c-2.9,1.8-6.9,4.3-10.1,6.3c-0.2-0.5-0.3-1-0.3-1.5c-1.1-6.9,0.5-30.7,0.5-30.7s1.1-0.5,2.2-0.6
			c2.1-0.2,2.9,1.2,2.9,1.2S26.6,62.1,27.8,66.4z"/>
		<path class="st10" d="M79.3,149.2l-2.2,0.9c-3.5,1.2-7.3-0.4-8.4-4c-1.5-4.8-1.7-9.9-2.3-14.1c-0.3-2.1-0.6-6.4-1.9-9.7
			c0,0,0,0,0,0l2.2,74c-33,2.3-49.1-16.6-49.1-16.6c-0.9-20,7.2-65.2,10.1-80.8c-1.4-3.2-11.4-12.3-13.1-21.3
			c-0.8-4.2,1.7-7.1,4.6-9.1c3.7-2.5,8.2-3.5,8.2-3.5l10.7,14.3c0.5,0.5,0.8,0.9,0.9,1.2c0.8,1.7,5.1,4.5,5.1,4.5
			c0,0.1,0.5,24.1,1.3,24.8c1.3-0.5,9.7-17.3,11.5-23c2.7,0.7,5.6,1.7,8.6,3.1c0,0,5.8,3.1,6.6,16.5c0.7,11.4,7.7,26,9.2,39.2
			C81.7,147.1,80.8,148.6,79.3,149.2z"/>
		<path class="st11" d="M42.9,84.1c0,0,0.8,23.2,1.8,29.1l14.8-25.6l-2-0.8L45.8,108l-1.2-23.1L42.9,84.1z"/>
		<path class="st8" d="M46.1,83.2c0,0-1.8,0.3-2.8,1.2c0,0,1.4,4.5,5.1,5.9l1.6-2C50,88.2,47,86.2,46.1,83.2z"/>
		<path class="st8" d="M50,88.2c0,0,6-0.8,6.9-3.7c0,0,1.2,1.3,1.2,3.3c0,0-1.9,2.9-6.7,2.9L50,88.2z"/>
		<path class="st1" d="M41.2,115.6c0-0.6,0.5-1.1,1.1-1.1c0.6,0,1.1,0.5,1.1,1.1c0,0.6-0.5,1.1-1.1,1.1
			C41.7,116.7,41.2,116.2,41.2,115.6z"/>
		<path class="st1" d="M39.1,125.5c0-0.6,0.5-1.1,1.1-1.1c0.6,0,1.1,0.5,1.1,1.1c0,0.6-0.5,1.1-1.1,1.1
			C39.6,126.6,39.1,126.1,39.1,125.5z"/>
		<g>
			<g>
				<path class="st3" d="M39.2,70.5l0.4-0.3c-3.7-3.9-2-9-1.5-10.2c0.1-0.1,0-0.3-0.1-0.4l0,0c-0.1-0.1-0.3-0.1-0.4,0.1
					C37.1,61,35.3,66.4,39.2,70.5z"/>
			</g>
			<polygon class="st12" points="39.5,70.1 40.1,70.5 39.5,71 39.2,70.5 			"/>
			<path class="st3" d="M40.1,70.5c0,0,0.7,0.7,1,0.6c0,0-0.4,0.7-0.8,0.7c0,0-0.7-0.4-0.9-0.7L40.1,70.5z"/>
		</g>
		<path class="st2" d="M46.7,66.4c0,0,2.6,0.2,3.3-1.1c0,0,2.1,0.5,3-0.3c0,0,3.2,0.7,3.3-0.7c0,0,2.5,4.9,5.2,3.9
			c2.7-1-4.3-6-4.3-6l-9.9,1.3L46.7,66.4z"/>
		<path class="st10" d="M46.9,62.8L46.4,65c0,0,7.2-2.5,15.9,2.5l-0.1-3.7c0-0.7-0.3-1.4-0.9-1.9c-1.6-1.3-5.4-3.9-12.4-1.8
			C47.9,60.5,47.1,61.8,46.9,62.8z"/>
		<path class="st0" d="M15.6,34.6c0-0.1-0.5-1.1,0.1-2c0.6-0.9,4.9-2.3,5.3-1.6c0.4,0.7,0.1,3.3-1.2,3.9
			C18.5,35.4,15.7,35.2,15.6,34.6z"/>
		<path class="st1" d="M27.7,98.8c-1.4-3.2-11.4-12.3-13.1-21.3c-0.8-4.2,1.7-7.1,4.6-9.1c0,0-1.4,6.3,2.5,12S27.7,98.8,27.7,98.8z"
			/>
		<path class="st1" d="M77.1,150.1c-3.5,1.2-7.3-0.4-8.4-4c-1.5-4.8-1.7-9.9-2.3-14.1c-0.3-2.1-0.6-6.4-1.9-9.7
			c0.1,0.2,3.9,6.2,7.3,15.9C75.3,148.1,74.3,149.5,77.1,150.1z"/>
	</g>
	<g>
		<path class="st8" d="M532.2,143.5c1.8,0,3.6,0.4,5.6,1.1c1.9,0.8,3.8,1.7,5.6,3h-0.1c1.8,1.2,3.2,2.9,4.1,5c1,2.1,1.4,4.6,1.4,7.3
			v14.1c0,5.6-1.9,9.7-5.6,12.5c-1.8,1.3-3.6,2.3-5.5,3c-1.9,0.7-3.7,1.1-5.5,1.1h-22.4c-1.8,0-3.6-0.4-5.5-1.1
			c-1.9-0.7-3.7-1.7-5.5-3c-3.7-2.7-5.6-6.9-5.6-12.5v-6.8c0-3.2,2-4.8,6.1-4.8c4.1,0,6.2,1.6,6.2,4.8v6c0,1.8,0.5,3.4,1.5,4.8
			c1,1.4,2.8,2.2,5.4,2.2h17.3c2.5,0,4.3-0.7,5.4-2.2c1-1.4,1.5-3.1,1.5-4.8v-12.5c0-1.7-0.5-3.3-1.5-4.8c-1-1.5-2.8-2.2-5.4-2.2
			h-19.9c-3.6,0-7.2-1.3-11-3.9c-3.7-2.9-5.6-7-5.6-12.5v-12.3c0-2.7,0.5-5.2,1.4-7.3c1-2.1,2.3-3.8,4.1-5.1h-0.1
			c1.8-1.2,3.6-2.1,5.6-2.9c1.9-0.8,3.8-1.1,5.6-1.1h22.4c1.8,0,3.6,0.4,5.6,1.1c1.9,0.8,3.8,1.7,5.6,2.9h-0.1
			c1.8,1.3,3.2,3,4.1,5.1c1,2.1,1.4,4.5,1.4,7.3v6.1c0,3.2-2.1,4.8-6.2,4.8c-4.1,0-6.1-1.6-6.1-4.8v-5.1c0-1.7-0.5-3.3-1.5-4.7
			c-1-1.4-2.8-2.2-5.4-2.2h-17.3c-2.5,0-4.3,0.7-5.4,2.2c-1,1.4-1.5,3-1.5,4.7v10.5c0,1.8,0.5,3.4,1.5,4.8c1,1.4,2.8,2.1,5.4,2.1
			H532.2z"/>
		<path class="st8" d="M577.2,186.3c0,3.3-2.1,4.9-6.2,4.9c-4.1,0-6.1-1.6-6.1-4.9v-73c0-3.3,2-4.9,6.1-4.9c4.1,0,6.2,1.6,6.2,4.9
			V186.3z M601.3,148.1c0,2.4-0.8,4.4-2.5,6.1c-1.6,1.6-3.7,2.5-6.1,2.5c-2.3,0-4.3-0.8-6-2.5c-1.6-1.6-2.5-3.7-2.5-6.1
			c0-2.4,0.8-4.4,2.5-6.1c1.6-1.6,3.6-2.5,6-2.5c2.4,0,4.4,0.8,6.1,2.5C600.5,143.6,601.3,145.7,601.3,148.1z M608.5,113.3
			c0-3.3,2-4.9,6.1-4.9c4.1,0,6.2,1.6,6.2,4.9v73c0,3.3-2.1,4.9-6.2,4.9c-4.1,0-6.1-1.6-6.1-4.9V113.3z"/>
		<path class="st8" d="M648.5,186.3c0,3.3-2.1,4.9-6.2,4.9c-4.1,0-6.1-1.6-6.1-4.9v-73c0-3.3,2-4.9,6.1-4.9c4.1,0,6.2,1.6,6.2,4.9
			V186.3z"/>
		<path class="st8" d="M687.3,160.3c-1.2,0-2.1-0.5-2.7-1.4c-0.7-0.9-1-2.2-1-3.8c0-3.5,1.4-5.3,4.3-5.3h10.9c2.5,0,4.3-0.7,5.4-2.2
			c1.1-1.4,1.6-3,1.6-4.7v-16.9c0-1.7-0.5-3.3-1.6-4.7c-1.1-1.4-2.9-2.2-5.4-2.2h-21.6v67.2c0,3.3-2.1,4.9-6.2,4.9c-4,0-6-1.6-6-4.9
			V115c0-2.5,0.6-4.1,1.9-4.9c1.2-0.8,2.7-1.2,4.5-1.2h30.1c1.7,0,3.5,0.4,5.5,1.1c1.9,0.8,3.8,1.7,5.6,2.9h-0.1
			c1.8,1.3,3.2,3,4.1,5.1c1,2.1,1.4,4.5,1.4,7.3v18.6c0,5.6-1.9,9.7-5.6,12.5c-1.8,1.3-3.6,2.3-5.5,3c-1.9,0.7-3.7,1-5.5,1H687.3z"
			/>
	</g>
	<g>
		<path class="st8" d="M256.1,89.9c0-3.3,2-4.9,6.1-4.9c4,0,6.1,1.6,6.1,4.9v71.1c0,2.4-1.3,4.2-3.8,5.3h0.1
			c-1.1,0.5-2.3,0.9-3.5,1.1c-1.2,0.3-2.4,0.4-3.6,0.4c-0.9,0-1.8-0.1-2.8-0.3c-1-0.2-1.9-0.4-2.7-0.8c-0.9-0.4-1.6-0.9-2.4-1.5
			c-0.7-0.7-1.3-1.5-1.7-2.4L225.5,107l-2.8,0.3v55.6c0,3.3-2.1,4.9-6.2,4.9c-4.1,0-6.1-1.6-6.1-4.9v-71c0-2.8,1.2-4.7,3.7-5.7
			c2.3-0.9,4.7-1.3,7.2-1.3c1.8,0,3.6,0.4,5.4,1.1c1.8,0.7,3.2,2.1,4.2,4.1l22.2,55.8l2.9-0.3V89.9z"/>
	</g>
	<g>
		<path class="st8" d="M346.1,202.5c0,3.3-2.1,4.9-6.2,4.9c-4,0-6.1-1.6-6.1-4.9v-67.2h-18c-2.5,0-3.8-1.7-3.9-5.3
			c0-3.4,1.3-5.1,3.9-5.1h48.3c2.6,0,3.8,1.7,3.7,5.1c0,3.5-1.2,5.3-3.7,5.3h-18V202.5z"/>
	</g>
	<g>
		<path class="st8" d="M454.3,109.6h-7.9c-1.2,0-2.1-0.5-2.7-1.4c-0.7-0.9-1-2.2-1-3.8c0-3.5,1.4-5.3,4.3-5.3h12
			c2.5,0,4.3-0.7,5.4-2.2c1-1.4,1.5-3,1.5-4.7V79c0-1.7-0.5-3.3-1.5-4.7c-1-1.4-2.8-2.2-5.4-2.2h-21.7v67.1c0,3.3-2,4.9-6.1,4.9
			c-4.1,0-6.1-1.6-6.1-4.9V67.9c0-2.5,0.6-4.1,1.9-4.9c1.3-0.8,2.8-1.2,4.6-1.2h30c1.8,0,3.6,0.4,5.6,1.1s3.8,1.7,5.6,2.9h-0.1
			c1.8,1.3,3.2,3,4.1,5.1c1,2.1,1.4,4.5,1.4,7.3v15c0,5.6-1.9,9.7-5.6,12.5c-0.8,0.6-1.6,1.1-2.4,1.5c-0.9,0.5-1.7,1-2.6,1.4
			l16.5,27.2c0.2,0.3,0.4,0.8,0.6,1.3c0.2,0.5,0.3,1,0.3,1.3c0,1.6-1.2,3.2-3.5,4.7v-0.1c-1.6,1-2.9,1.4-4,1.4
			c-1.6,0-2.8-0.8-3.8-2.4l0.1,0.1L454.3,109.6z"/>
	</g>
	<g>
		<path class="st8" d="M505.8,224.8c-0.4,0-0.8-0.2-1-0.5c-0.2-0.3-0.4-0.8-0.4-1.4c0-1.3,0.5-1.9,1.6-1.9h4c0.9,0,1.6-0.3,2-0.8
			c0.4-0.5,0.6-1.1,0.6-1.7v-6.2c0-0.6-0.2-1.2-0.6-1.7c-0.4-0.5-1-0.8-2-0.8h-7.9v24.5c0,1.2-0.7,1.8-2.2,1.8
			c-1.5,0-2.2-0.6-2.2-1.8v-26c0-0.9,0.2-1.5,0.7-1.8c0.4-0.3,1-0.5,1.7-0.5h11c0.6,0,1.3,0.1,2,0.4c0.7,0.3,1.4,0.6,2,1h0
			c0.7,0.5,1.2,1.1,1.5,1.9c0.4,0.8,0.5,1.6,0.5,2.6v6.8c0,2-0.7,3.5-2,4.5c-0.7,0.5-1.3,0.8-2,1.1c-0.7,0.2-1.3,0.4-2,0.4H505.8z"
			/>
		<path class="st8" d="M539.3,223.5h-2.9c-0.4,0-0.8-0.2-1-0.5c-0.2-0.3-0.4-0.8-0.4-1.4c0-1.3,0.5-1.9,1.6-1.9h4.4
			c0.9,0,1.6-0.3,2-0.8c0.4-0.5,0.6-1.1,0.6-1.7v-4.8c0-0.6-0.2-1.2-0.6-1.7c-0.4-0.5-1-0.8-2-0.8h-7.9v24.5c0,1.2-0.7,1.8-2.2,1.8
			c-1.5,0-2.2-0.6-2.2-1.8v-26c0-0.9,0.2-1.5,0.7-1.8c0.5-0.3,1-0.5,1.7-0.5h10.9c0.7,0,1.3,0.1,2,0.4c0.7,0.3,1.4,0.6,2,1h0
			c0.6,0.5,1.2,1.1,1.5,1.9c0.4,0.8,0.5,1.6,0.5,2.6v5.5c0,2-0.7,3.5-2,4.5c-0.3,0.2-0.6,0.4-0.9,0.6c-0.3,0.2-0.6,0.4-1,0.5l6,9.9
			c0.1,0.1,0.1,0.3,0.2,0.5c0.1,0.2,0.1,0.4,0.1,0.5c0,0.6-0.4,1.2-1.3,1.7v0c-0.6,0.4-1.1,0.5-1.5,0.5c-0.6,0-1-0.3-1.4-0.9l0,0
			L539.3,223.5z"/>
		<path class="st8" d="M574.1,206c0.7,0,1.3,0.1,2,0.4c0.7,0.3,1.4,0.6,2,1h0c0.7,0.5,1.2,1.1,1.5,1.9c0.4,0.8,0.5,1.6,0.5,2.6v17.8
			c0,2-0.7,3.5-2,4.5c-0.7,0.5-1.3,0.8-2,1.1c-0.7,0.3-1.4,0.4-2,0.4h-8.2c-0.7,0-1.3-0.1-2-0.4c-0.7-0.3-1.4-0.6-2-1.1
			c-0.7-0.5-1.2-1.1-1.5-1.9c-0.4-0.7-0.5-1.6-0.5-2.7V212c0-1,0.2-1.9,0.5-2.6c0.3-0.8,0.8-1.4,1.5-1.9h0c0.7-0.4,1.3-0.8,2-1
			c0.7-0.3,1.4-0.4,2-0.4H574.1z M573.2,232.1c0.9,0,1.6-0.3,2-0.8c0.4-0.5,0.6-1.1,0.6-1.8v-17.2c0-0.6-0.2-1.2-0.6-1.7
			c-0.4-0.5-1-0.8-2-0.8h-6.3c-0.9,0-1.6,0.3-2,0.8c-0.4,0.5-0.6,1.1-0.6,1.7v17.2c0,0.7,0.2,1.2,0.6,1.8c0.4,0.5,1,0.8,2,0.8H573.2
			z"/>
		<path class="st8" d="M607.2,222.3c0-1.2,0.8-1.8,2.3-1.8c1.5,0,2.2,0.6,2.2,1.8v7.6c0,2-0.7,3.5-2,4.5c-0.7,0.5-1.3,0.8-2,1.1
			c-0.7,0.3-1.4,0.4-2,0.4h-7.8c-0.7,0-1.3-0.1-2-0.4c-0.7-0.3-1.4-0.6-2-1.1c-0.7-0.5-1.2-1.1-1.5-1.9c-0.4-0.7-0.5-1.6-0.5-2.7
			V212c0-1,0.2-1.9,0.5-2.7c0.4-0.8,0.9-1.4,1.5-1.8h0c0.7-0.4,1.3-0.8,2-1c0.7-0.3,1.4-0.4,2-0.4h7.4c0.7,0,1.3,0.1,2,0.4
			c0.7,0.3,1.4,0.6,2,1h0c1.3,1,2,2.5,2,4.5v2.6c0,1.2-0.7,1.8-2.2,1.8c-1.5,0-2.2-0.6-2.2-1.8v-2.3c0-0.6-0.2-1.2-0.6-1.7
			c-0.4-0.5-1-0.8-2-0.8h-5.5c-0.9,0-1.6,0.3-2,0.8c-0.4,0.5-0.6,1.1-0.6,1.7v17.2c0,0.3,0,0.6,0.1,0.9c0.1,0.3,0.2,0.6,0.4,0.8
			c0.2,0.2,0.5,0.4,0.8,0.6c0.3,0.1,0.7,0.2,1.2,0.2h5.9c0.9,0,1.6-0.3,2-0.8c0.4-0.5,0.6-1.1,0.6-1.8V222.3z M605.4,221.9
			c0,0.4-0.1,0.8-0.2,1.2s-0.4,0.7-0.7,1c-0.3,0.3-0.6,0.5-1,0.7c-0.4,0.2-0.8,0.2-1.2,0.2c-0.9,0-1.6-0.3-2.2-0.9
			c-0.6-0.6-0.9-1.3-0.9-2.2c0-0.9,0.3-1.6,0.9-2.2c0.6-0.6,1.3-0.9,2.2-0.9c0.4,0,0.9,0.1,1.2,0.2c0.4,0.2,0.7,0.4,1,0.7
			c0.3,0.3,0.5,0.6,0.7,1S605.4,221.4,605.4,221.9z"/>
		<path class="st8" d="M634,223.5h-2.9c-0.4,0-0.8-0.2-1-0.5c-0.2-0.3-0.4-0.8-0.4-1.4c0-1.3,0.5-1.9,1.6-1.9h4.4
			c0.9,0,1.6-0.3,2-0.8c0.4-0.5,0.6-1.1,0.6-1.7v-4.8c0-0.6-0.2-1.2-0.6-1.7c-0.4-0.5-1-0.8-2-0.8h-7.9v24.5c0,1.2-0.7,1.8-2.2,1.8
			c-1.5,0-2.2-0.6-2.2-1.8v-26c0-0.9,0.2-1.5,0.7-1.8c0.5-0.3,1-0.5,1.7-0.5h10.9c0.7,0,1.3,0.1,2,0.4c0.7,0.3,1.4,0.6,2,1h0
			c0.7,0.5,1.2,1.1,1.5,1.9c0.4,0.8,0.5,1.6,0.5,2.6v5.5c0,2-0.7,3.5-2,4.5c-0.3,0.2-0.6,0.4-0.9,0.6c-0.3,0.2-0.6,0.4-1,0.5l6,9.9
			c0.1,0.1,0.1,0.3,0.2,0.5c0.1,0.2,0.1,0.4,0.1,0.5c0,0.6-0.4,1.2-1.3,1.7v0c-0.6,0.4-1.1,0.5-1.5,0.5c-0.6,0-1-0.3-1.4-0.9l0,0
			L634,223.5z"/>
		<path class="st8" d="M664.5,209.7l-8.2,25.2v0c-0.1,0.4-0.4,0.7-0.6,0.9c-0.3,0.2-0.6,0.4-1,0.4c-0.2,0-0.4,0-0.6-0.1
			c-0.2,0-0.4-0.1-0.6-0.1h0c-1.4-0.4-2-1.2-1.6-2.4l8.6-26c0.1-0.4,0.3-0.7,0.7-1c0.3-0.3,0.7-0.4,1.1-0.5c0.4-0.1,0.8-0.1,1.2-0.2
			c0.4,0,0.7-0.1,0.9-0.1c0.2,0,0.5,0,0.9,0.1c0.4,0,0.8,0.1,1.2,0.1c0.4,0.1,0.7,0.2,1,0.6c0.3,0.3,0.6,0.7,0.8,1
			c1.4,4.3,2.8,8.6,4.3,13c1.4,4.4,2.9,8.7,4.3,13c0.4,1.2-0.2,2-1.6,2.4c-0.2,0.1-0.4,0.1-0.5,0.1c-0.2,0-0.3,0.1-0.5,0.1
			c-0.4,0-0.7-0.1-1-0.4c-0.3-0.2-0.5-0.5-0.6-0.9v0L664.5,209.7z M667.3,226.8c0,0.8-0.3,1.5-0.8,2c-0.6,0.6-1.2,0.8-2,0.8
			s-1.5-0.3-2-0.8c-0.6-0.6-0.8-1.2-0.8-2c0-0.8,0.3-1.5,0.8-2c0.5-0.6,1.2-0.8,2-0.8s1.5,0.3,2,0.8
			C667,225.3,667.3,226,667.3,226.8z"/>
		<path class="st8" d="M709.3,205.8c0.8,0,1.7,0.2,2.6,0.6c0.9,0.4,1.3,1,1.3,2v25.8c0,1.2-0.7,1.8-2.2,1.8c-1.5,0-2.2-0.6-2.2-1.8
			V215l-1.1-0.1l-1.5,4.9l-4.5,15c-0.3,0.9-0.9,1.3-2,1.3c-0.5,0-0.9-0.1-1.2-0.4c-0.4-0.2-0.6-0.6-0.7-1l-2.7-8.7
			c-0.6-1.7-1.1-3.5-1.7-5.3c-0.6-1.8-1.2-3.8-1.8-5.9l-1.1,0.1v19.4c0,1.2-0.7,1.8-2.2,1.8c-1.5,0-2.2-0.6-2.2-1.8v-25.8
			c0-0.9,0.4-1.6,1.3-2c0.9-0.4,1.8-0.6,2.7-0.5c0.4,0,0.8,0.1,1.2,0.1c0.4,0.1,0.8,0.2,1.1,0.4c0.3,0.2,0.7,0.4,0.9,0.7
			c0.3,0.3,0.5,0.6,0.6,1l5.9,20.1c0.4-1.5,0.9-3.1,1.4-4.8c0.5-1.7,1-3.5,1.5-5.3c0.5-1.8,1-3.5,1.5-5.3c0.5-1.7,0.9-3.4,1.4-4.9
			c0.1-0.4,0.4-0.7,0.6-0.9c0.3-0.3,0.6-0.5,0.9-0.7c0.4-0.2,0.7-0.3,1.1-0.4C708.6,205.9,709,205.8,709.3,205.8z"/>
	</g>
	<g>
		<g>
			<g>
				<g>
					<path class="st0" d="M424.7,66.2c0,0,0.2-0.7-0.1-1.4c-0.3-0.7-0.8-2.9,0.2-3.5c1-0.7,1,1.6,1.6,1.6c0.6,0,2.6-5.6,4.7-5.1
						c2.1,0.6,2.7,3.6-3,9.6L424.7,66.2z"/>
				</g>
			</g>
			<path class="st13" d="M384.2,89.7c0,0,28-4.6,39.6-24.1l4.6,1.8c0,0-11.5,26.2-35.5,32.8C364,108.1,384.2,89.7,384.2,89.7z"/>
			<polygon class="st14" points="378.2,229 389.7,152.7 394,124 377.5,124 373,229 			"/>
			<polygon class="st14" points="386.8,123.4 358.2,229 353.1,229 360.6,152.8 361.8,124 			"/>
			<g>
				<g>
					<g>
						<g>
							<g>
								<g>
									<path class="st0" d="M387.5,71.3v3.3l2.6,5.3h-2.6v5.9h-3.3v3.9l-4.5,2l-5.9-4.6l0.3-3.8l1.6-3.7l-0.5-4l0.8-2.9
										c0,0,2.1-1.4,2.3-1.4c0.3,0,4.9-0.5,4.9-0.5L387.5,71.3z"/>
									<path class="st15" d="M380,77.9c0,0-0.3-2.1-1.3-2.5c-1-0.4-2.2,0.7-1.9,2.2c0.3,1.5,1,2.2,1.9,2.7c0,0-2.3,2.4-4.6,3
										c0,0-5.4-2-6.2-9.2c-0.4-3.5,2-7.2,11.2-9.6c9.8-2.6,10.4,3.8,9.5,5.7c0,0-1.2,3.9-7.8,2.4C380.9,72.6,382.9,76.4,380,77.9
										z"/>
									<path class="st16" d="M374.1,83.3c2.3-0.6,4.6-3,4.6-3c-0.9-0.5-1.6-1.2-1.9-2.7c-0.3-1.5,0.8-2.6,1.9-2.2
										c1,0.4,1.3,2.5,1.3,2.5c2.9-1.5,0.8-5.3,0.8-5.3L369.4,79C371.3,82.3,374.1,83.3,374.1,83.3z"/>
								</g>
								<path class="st16" d="M388.7,121.7c0,0-8.7-7.4-9-8.8c-0.2-1.5-5.4-12.4-5.2-13.8c0.1-1.4,1.3-3.8,1.2-4.3
									c-0.1-0.5,1.2-2.3,1.2-2.3l1.7-1.3l4.5-1.3l1,0.4l0.2-0.6c0,0,3.4,3,4.1,4.9c0.8,1.9,3.6,4,3.6,4l2,14.8c0,0-0.5,8-1.9,8.8
									C390.7,123.1,388.7,121.7,388.7,121.7z"/>
								<path class="st14" d="M384.2,89.7c11.7,15,4.5,31.9,4.5,31.9c0.1-19.8-14.8-34.5-14.8-34.5l-17.3,10.5
									c-4.7,7.5,3.4,16.5,3.4,16.5l1.3,9.3l-0.6,29.3l29,0c0,0,4.9-15.3,7.2-34.8C399.3,98.5,384.2,89.7,384.2,89.7z"/>
								<path class="st17" d="M365.4,99c0,0-4.2,5.7-8.2,11.2c1.3,2.4,2.8,4,2.8,4l1.3,9.3C368.8,102.4,365.4,99,365.4,99z"/>
								<polygon class="st14" points="380.3,92.7 383.9,94.3 385,92 382.5,90.1 								"/>
								<path class="st14" d="M386.8,109.3L386.8,109.3c1.1,3.8,1.9,8,1.9,12.4c0,0,1.5-3.4,2.1-8.6c0-0.1-0.4-10.3-6.5-19.5
									l-1.5,0.2C382.8,93.8,387.2,100.9,386.8,109.3z"/>
								<path class="st18" d="M373.9,87.2c0,0,1.7,2,8.7,3l-3.3,3.7L373.9,87.2z"/>
								<path class="st13" d="M377,98.6l3.8,0.7l-1,4.9c0,0,5.5,5.3,8.9,17.5c0.1-15.9-9.6-28.6-13.3-32.9c-0.9-1-1.5-1.6-1.5-1.6
									S376.9,92.2,377,98.6z"/>
							</g>
						</g>
					</g>
				</g>
				<g>
					<g>
						<path class="st0" d="M357.1,143.6c0,0,0.7,0.3,1.4,0c0.7-0.2,2.9-0.4,3.5,0.7c0.5,1-1.7,0.7-1.8,1.4c-0.1,0.6,5.3,3.3,4.4,5.3
							c-0.9,2-3.9,2.2-9.1-4.3L357.1,143.6z"/>
					</g>
					<g>
						<path class="st13" d="M365.5,99.2c0.9,3.1-0.3,6.7-3.1,8.1c-11.3,5.9-11.6,13.1-11.6,13.1c-3.1,11.7,6.7,22.6,6.7,22.6
							l-2.2,4.5c-9.6-9-14.2-13.7-15.4-25.2c-0.6-5.6,2.8-14.2,5.6-17c11.8-11.2,17.6-10.7,19.5-7.3
							C365.2,98.3,365.4,98.9,365.5,99.2z"/>
					</g>
				</g>
			</g>
			<polygon class="st18" points="382.5,90.1 385.6,92.7 385.8,91.5 384.2,89.7 			"/>
			<path class="st13" d="M388.7,121.7c6.9-14.4,0.7-26.3,0.7-26.3l-1.4-0.7l0.7-0.6c-1.3-1.4-4.5-4.4-4.5-4.4
				C395.9,104.7,388.7,121.7,388.7,121.7z"/>
			<path class="st14" d="M358.2,229h-5.2c0,0-3.6-3.1-5.4,0c0,0-0.8,1.3-0.2,2.8h7v-0.9h1.4v0.9h2.4V229z"/>
			<path class="st14" d="M373,229h5.2c0,0,3.6-3.1,5.4,0c0,0,0.8,1.3,0.2,2.8h-7v-0.9h-1.4v0.9H373V229z"/>
		</g>
		<g>
			
				<rect x="419.2" y="-2" transform="matrix(0.9387 -0.3448 0.3448 0.9387 13.7571 146.9536)" class="st19" width="1.7" height="73.5"/>
			<path class="st20" d="M418.7,28.8c-3.1-8.5-6.2-16.9-9.3-25.4c-25.6-8.3-29.4,42.9-55.1,34.6C383.1,54.8,390,12.1,418.7,28.8z"/>
		</g>
	</g>
	<g>
		<path class="st8" d="M420.8,151.5c1.8,0,3.6,0.4,5.6,1.1c1.9,0.8,3.8,1.7,5.6,2.9h-0.1c1.8,1.3,3.2,3,4.1,5.1
			c1,2.1,1.4,4.5,1.4,7.3v48.9c0,5.6-1.9,9.7-5.6,12.5c-1.8,1.3-3.6,2.3-5.5,3c-1.9,0.7-3.7,1.1-5.5,1.1h-22.4
			c-1.8,0-3.6-0.4-5.5-1.1c-1.9-0.7-3.7-1.7-5.5-3c-1.8-1.4-3.2-3.1-4.1-5.1c-1-2-1.4-4.5-1.4-7.4v-48.9c0-2.7,0.5-5.2,1.4-7.3
			c1-2.1,2.3-3.8,4.1-5.1h-0.1c1.8-1.2,3.6-2.1,5.6-2.9c1.9-0.8,3.8-1.1,5.6-1.1H420.8z M418.3,222.9c2.5,0,4.3-0.7,5.4-2.2
			c1-1.4,1.5-3.1,1.5-4.8v-47.2c0-1.7-0.5-3.3-1.5-4.7c-1-1.4-2.8-2.2-5.4-2.2H401c-2.5,0-4.3,0.7-5.4,2.2c-1,1.4-1.5,3-1.5,4.7
			v47.2c0,1.8,0.5,3.4,1.5,4.8c1,1.4,2.8,2.2,5.4,2.2H418.3z"/>
	</g>
	<g>
		<path class="st0" d="M327.5,71.4c0,0-2.7-4.7,0-5.7c2.7-1,3.9-0.1,4,1c0.1,1.1-1,5.3-1,5.3L327.5,71.4z"/>
		<path class="st21" d="M329.6,101.7c-4.9,0.9-9.3,1.3-13.4,1.4c-3.8,0.1-7.3-0.1-10.3-0.5c-0.8-0.1-1.6-0.2-2.3-0.3
			c-7.9-1.2-12.2-3.3-12.2-3.3s7.2-15.1,13-14.5c6.8,0.7,18.4,6.8,19.5,5.1c1.3-1.9,2.4-18.5,2.4-18.5c3-2.1,4.8,0.1,4.8,0.1
			S337,100.4,329.6,101.7z"/>
		<path class="st22" d="M329.6,101.7c-4.9,0.9-9.3,1.3-13.4,1.4c-3.8,0.1-7.3-0.1-10.3-0.5c-1.8-5.8-3.1-11.7,0.5-8.1
			C312.9,100.8,329.6,101.7,329.6,101.7z"/>
		<path class="st23" d="M290.9,223.3c0,0-0.5,6,0.7,6.6l16.2,0c0,0,0-1.9-2.6-2.3c-2.6-0.4-7.2-1.9-7.9-5.3
			C296.5,218.9,290.9,223.3,290.9,223.3z"/>
		<path class="st6" d="M302.7,150.9c-0.1,3.9-0.3,8-0.6,11.6c-1.7,17.2-2.4,38-2.6,42c-0.4,7-1.8,18.1-1.8,18.1s-2.7,2.6-8,1.4
			c0,0-4.4-16-5.4-32.9c0-0.3,0-0.6,0-0.8c-0.1-2.2-0.2-4.8-0.4-7.5c-0.8-18.4-1.7-45.8-1.7-45.8l20.3-4.8
			C302.5,132.1,302.9,141.1,302.7,150.9z"/>
		<path class="st23" d="M302.7,150.9c-5.1,8.9-15,25.3-18.9,31.8c-0.8-18.4-1.7-45.8-1.7-45.8l20.3-4.8
			C302.5,132.1,302.9,141.1,302.7,150.9z"/>
		<path class="st0" d="M251.3,133.7c0,0-3.3,3.9-3.6,5c-0.3,1.1-0.8,5-0.5,6.1c0.3,1.2,2.5-3.3,3.3-3.7c0.8-0.5-0.6,1.8-0.3,2.1
			c0.3,0.4,1.9-1.3,2.5-1.9c0.6-0.6,0.6-3.6,1.3-5.4C254.6,134.1,251.3,133.7,251.3,133.7z"/>
		<path class="st23" d="M250.5,216.5c0,0-2.9,2.6-2.3,4.5c0.6,1.9,3.2,3.1,3.5,5.4c0.4,2.3,1.8,3.5,3,3.5c1.3,0,6,0,6,0
			s0.9-1.6-1.3-2.1c-2.2-0.5-3.1-3.2-3-5.7c0.1-2.5-0.2-5.8-0.2-5.8l-4.8-1.1L250.5,216.5z"/>
		<path class="st6" d="M299.3,137.3c0,0-19,40.7-29.1,58.6c-10.1,17.9-13.3,22.8-13.3,22.8s-5.8-2.3-6.3-3.8c0,0,3.9-34.5,10.6-42.9
			c3.8-4.7,8.3-19,8.5-24c0.2-5,4.7-16.9,4.7-16.9L299.3,137.3z"/>
		<path class="st21" d="M304.8,139.2c0,0-7.6,5.1-18.3,4.6c-4.7-0.2-14-1.5-15.5-5.3c-0.4-0.9-0.1-2,0.4-3.7
			c1.4-4.4,4.6-12.9,3.6-31.7c-0.1-1.7,0-3.4,0.1-4.9c1-9.2,6.3-14.7,11.4-16.5c12.5-4.4,16.6,1.7,16.6,1.7s5.5,4.4,6.3,13.5
			C311.3,115.2,304.8,139.2,304.8,139.2z"/>
		<path class="st0" d="M290.3,80.7c0,0,5.7,3.5,11.9,2.5c0,0,1.2-0.3,0.6-1.8c0.4-1.2,0.3-1.1,0.6-1.9c0.5-2,0.7-3.1,0.7-3.1
			l-3.5-3.7l-3.3-3.5C296.3,77.6,290.3,80.7,290.3,80.7z"/>
		<path class="st5" d="M296.7,72.4c0,0,1.9,5.1,6.7,7.2c0.5-2,0.9-4.1,0.9-4.1l-3.7-2.8L296.7,72.4z"/>
		<path class="st0" d="M308.1,76.2c0,0-10.9,1.4-11.7-5.3c-0.8-6.7-2.7-11.1,4.3-12.2c6.9-1.2,8.6,1.3,9.4,3.4
			C310.8,64.3,310.9,75.7,308.1,76.2z"/>
		<path class="st15" d="M292.9,57.6c-0.1-0.1-0.3-0.2-0.8-0.3c0,0,0.4-0.2,1-0.2c0.1-0.7,0.6-1.9,1.8-2.2c0,0-0.7,0.3-0.8,1.1
			c1.5-1.4,4.5-2.3,12.8-1.4c10.9,1.3,7.1,8.2,5.6,9c-1.5,0.8-4.9-1.6-7.6-1.5c-2.7,0.1-3.3,3.9-4.2,4.4c-0.9,0.5-0.5-0.4-1.7-1
			c-1.2-0.6-1.4,1.4-1.1,2.7c0.3,1.3-1.4,3-1.4,3s0,0-1.6-1.9c-1.6-1.9-2.9-9.6-2.1-11.2C292.8,57.9,292.9,57.7,292.9,57.6z"/>
		<g>
			<polygon class="st6" points="326.3,68.3 307.7,68.5 307.6,65.7 326.1,64.2 			"/>
			<polygon class="st6" points="340.3,68.8 320.1,69 319.9,64 340,62.4 			"/>
			<polygon class="st23" points="353.9,69.2 336.9,69.2 336.6,62.3 353.6,60.8 			"/>
			<path class="st23" d="M354.2,70.3L354.2,70.3c0.5,0,0.9-0.5,0.9-1l-0.4-8.8c0-0.5-0.5-0.9-1-0.9l0,0c-0.5,0-0.9,0.5-0.9,1
				l0.4,8.8C353.2,69.9,353.6,70.3,354.2,70.3z"/>
			<path class="st6" d="M307.7,69.1L307.7,69.1c-0.5,0-0.9-0.3-0.9-0.8l-0.1-2.3c0-0.5,0.3-0.9,0.8-0.9l0,0c0.5,0,0.9,0.3,0.9,0.8
				l0.1,2.3C308.5,68.6,308.2,69,307.7,69.1z"/>
		</g>
		<path class="st22" d="M271.5,134.8c1.4-4.4,4.6-12.9,3.6-31.7c-0.1-1.7,0-3.4,0.1-4.9l0,0c4.1-0.4,10.4,4.1,10.4,4.1
			S281.7,125.9,271.5,134.8z"/>
		<path class="st21" d="M290.3,80.7c0,0-10.5,1.8-16,8.5c-5.5,6.7-14.3,16.2-16.4,19.5c-2.1,3.3-7.9,25.8-7.9,25.8s0.4,0.7,2,1.1
			c1.5,0.4,2.6-0.2,2.6-0.2s7.7-13.1,10.6-19.7c1.2-2.7,22-13.5,29.8-12.4C298,103.8,290.3,80.7,290.3,80.7z"/>
		<path class="st0" d="M326.2,63.4c0,0,2.3,1.4,3.6,0.8c1.4-0.6,1.2-1.1,1.2-1.1S327,62,326.2,63.4z"/>
		<path class="st24" d="M300.5,88.1c0,0-4.6,29.2-37.4,37.7l-3.6,7l6.3,1.1c0,0,37.3-10.8,36.8-46.3L300.5,88.1z"/>
		<polygon class="st25" points="299.8,83.4 298.3,83.6 298.3,85.8 300.5,88.1 302.6,87.6 302.6,84.5 301.1,83.4 		"/>
		<path class="st22" d="M293.9,77.6c0,0-1.5,0.3-4.8,3.1c0,0,3.3,7.1,10.4,7.9c0,0-0.1-3.3,0.4-5.2
			C299.8,83.4,294.2,81.4,293.9,77.6z"/>
		<path class="st22" d="M299.8,83.4c0,0,3.4,1.8,3.7,4.7c0,0,1.3-2.1,0.9-3.5c-0.4-1.4-1.6-3.1-1.6-3.1S303,83.2,299.8,83.4z"/>
	</g>
	<g>
		<path class="st8" d="M164.3,212.9c-2.5,0-4.3-0.7-5.1-2c-0.9-1.3-1.3-2.7-1.3-4.3v-69.4c0-1.6,0.4-3,1.3-4.3
			c0.9-1.3,2.6-1.9,5.1-1.9h35.8c2.5,0,3.9,1.7,4,5.1c0.1,3.5-1.2,5.3-4,5.3h-30.2v61.1h32c2.5,0,3.8,1.7,3.9,5
			c0.1,3.6-1.2,5.4-3.9,5.4H164.3z M196.3,170.3c0,2.4-0.8,4.4-2.5,6.1c-1.7,1.6-3.7,2.5-6.1,2.5c-2.3,0-4.3-0.8-6-2.5
			c-1.6-1.6-2.5-3.7-2.5-6.1c0-2.4,0.8-4.4,2.5-6.1c1.6-1.6,3.6-2.5,6-2.5c2.4,0,4.4,0.8,6.1,2.5
			C195.4,165.8,196.3,167.9,196.3,170.3z"/>
	</g>
	<g>
		<g>
			<polygon class="st0" points="141.1,225.5 140.2,219.1 143.9,216 145.1,224.4 			"/>
			<path class="st23" d="M153.4,231.1h-15.1c0,0-0.4-2.3,0.4-4c0.8-1.7,1.9-2.7,2-4c1,1,2.1,1.6,4.3,1.3c0.3,0.4,1.7,2.8,2.6,3.4
				C148.7,228.5,153.1,228.3,153.4,231.1z"/>
			<path class="st21" d="M150.4,139.8c-1,7.9-1.8,15.4-2.4,22.4c-3.5,37.1-2.8,59.8-2.8,59.8s-0.3,0.7-2.4,0.7
				c-1.2,0-2.4-0.3-2.4-0.3s-7.9-24.3-7.3-38.1c0.1-1.7,0.3-3.2,0.6-4.5c1.9-7.1-7-34.1,2.7-44.1
				C145.9,125.8,150.8,136.2,150.4,139.8z"/>
			<path class="st22" d="M150.4,139.8c-1,7.9-1.8,15.4-2.4,22.4L133,184.4c0.1-1.7,0.3-3.2,0.6-4.5c1.9-7.1-7-34.1,2.7-44.1
				C145.9,125.8,150.8,136.2,150.4,139.8z"/>
			<path class="st0" d="M120.6,223.6c-0.2-2-0.3-7.4-0.3-7.4s5.4-1.7,5.2-0.5c-1,5.9-0.7,8.8-0.7,8.8l-2.2,1.3L120.6,223.6z"/>
			<path class="st21" d="M150.6,139.5c0,0-21.1,57.7-25.2,82.7c0,0-1,0.7-2.8,0.4c-2-0.2-2.6-1.7-2.6-1.7s-3.8-30,3.8-40.4
				c5.2-7.2-2.2-38.6,9.9-41.1C145.8,136.9,150.6,139.5,150.6,139.5z"/>
			<path class="st23" d="M133.2,231.1h-15.1c0,0-0.4-2.3,0.4-4c0.8-1.7,1.9-2.7,2-4c1,1,2.1,1.6,4.3,1.3c0.3,0.4,1.7,2.8,2.6,3.4
				C128.5,228.5,132.8,228.3,133.2,231.1z"/>
		</g>
		<path class="st0" d="M157.8,146.9c0,0,1.8,4,1.7,5.1c-0.1,1.1-1.7,4.5-1.7,4.5l-2-9.1L157.8,146.9z"/>
		<polygon class="st0" points="156.3,129.8 157.8,146.9 155.8,147.4 150.5,131.9 		"/>
		<polygon class="st1" points="113.5,74.8 133.3,63.2 146.9,72.7 128.1,83.7 		"/>
		<path class="st26" d="M123.7,80.2c0,0-0.5,2.9-3.3,4.4c-2.8,1.5-5.1,1.9-4.5,6.7c0.6,4.8-2.7,5.9-3.3,9c-0.6,3.2-0.5,8.9,7.4,7.2
			c7.9-1.7,26.1-0.5,28-3.1c2-2.6,0.6-7.9-2.8-11.9c-3.4-4,1.1-6.7-0.5-10.3c-1.6-3.6-4.6-7.2-4.6-7.2S127.2,72.5,123.7,80.2z"/>
		<path class="st0" d="M138,98c0,0-0.5,12.5-2.6,12.6c-0.4,0-3.8-8.8-4.2-8.9c-2.3-0.6-2.6-6.2-2.6-6.2c1-0.2,1.3-1.5,1.2-7.3
			l0.4,0.1l7.4,1.5c0,0-0.2,2.3-0.2,4.5C137.4,96.1,137.5,97.8,138,98z"/>
		<g>
			<g>
				<path class="st3" d="M108.1,85.5l-0.2-0.5c5.4-2.6,5.7-8.6,5.7-10c0-0.2,0.1-0.3,0.3-0.4l0,0c0.2-0.1,0.3,0,0.3,0.2
					C114.1,76.4,113.7,82.8,108.1,85.5z"/>
			</g>
			<polygon class="st12" points="107.9,85 107.1,85.1 107.6,85.9 108.1,85.5 			"/>
			<path class="st3" d="M107.1,85.1c0,0-1,0.5-1.3,0.2c0,0,0.1,0.9,0.5,1.1c0,0,0.8-0.1,1.2-0.4L107.1,85.1z"/>
		</g>
		<path class="st5" d="M137.6,89.7c0,0-0.2,2.3-0.2,4.5c-4.1-0.1-6.3-3.9-7.2-6L137.6,89.7z"/>
		<path class="st26" d="M128.7,88.5c0,0-2.8-2.9-3.9-5.7c-0.8-2-1.3-9.8,6.6-10.2c0,0,2.3-0.2,4.6,0.8c1.9,0.8,4.8,2.7,3.4,9.9
			l-0.2,2.4L128.7,88.5z"/>
		<path class="st0" d="M138.9,90.9c0,0-9.6,2.1-10.8-3.9c-1.2-6-3.3-9.7,2.8-11.3c6.1-1.6,7.7,0.4,8.6,2.3
			C140.4,79.9,141.4,90.2,138.9,90.9z"/>
		<path class="st26" d="M135.3,74.7c0,0-1.2,7.5-5,9.4c-3.8,1.8-5.8,1.1-5.8,1.1s2.6-3.1,2.4-7.5C126.8,77.7,132.6,71.7,135.3,74.7z
			"/>
		<path class="st26" d="M134.7,75.4c0,0,2.3,1.2,3.1,2.6c0.8,1.4,2.4,1.9,2.5,4.2c0,0,1-5.2-1.7-7.4
			C135.6,72.4,134.7,75.4,134.7,75.4z"/>
		<path class="st10" d="M155.9,134.7c-1,0.3-2.1,0.5-3.1,0.7c-1.7,0.3-3.4,0.4-4.5,0.9c-3.2,1.4-10.8-41-10.8-41s5.6,0.1,8.2,4.1
			c2.6,4,12.6,24,13.4,30.4C159.4,132.7,157.9,134,155.9,134.7z"/>
		<path class="st10" d="M161.9,192.3c0,0-0.5,1.3-1.9,3.1c-0.7,0.9-1.6,1.9-2.8,3c-3.1,2.8-2.6,5.4-10.4,6.9
			c-0.4,0.1-0.8,0.2-1.3,0.2c-2.3,0.4-4.6,0.7-6.7,0.8c-4.3,0.4-8.2,0.4-11.5,0.2c-2.3-0.1-4.3-0.3-5.9-0.5
			c-3.8-0.5-23.1-5.3-23.1-5.3s-2.6-22.6,20.3-56.9c7.1-10.6,7.6-48.4,7.6-48.4l2.9-0.4l7,15.6l1.4-15.3l3.2,1
			c1.6,0.5,2.8,1.8,3.2,3.4L161.9,192.3z"/>
		<g>
			<polygon class="st27" points="144.9,133 128.6,131.4 131.3,107.9 147.5,109.5 			"/>
			<polygon class="st28" points="131.3,107.9 130.2,107.8 127.8,131.3 128.6,131.4 			"/>
		</g>
		<path class="st0" d="M117.7,120c0,0,11.4,3.5,22.3,5c0,0,3.6,1.6,1.9,2c-0.4,0.1-22.2,4.9-25.5,1.8L117.7,120z"/>
		<path class="st10" d="M129.1,95c0,0-8.5,1-10,2.8c-4.5,5.4-8.6,28.7-5.1,34c4.2,6.4,10.8-3.6,12.8-9.6
			C127.9,119.1,129.6,100.6,129.1,95z"/>
		<path class="st0" d="M138.9,124.8c0,0,1.3-0.1,1.6-0.6c0.5-0.9,1.3-0.8,2-1c0.7-0.1,1.4-0.8,1.6-0.7c0.1,0.1-0.5,1-0.8,1.3
			c0,0,0.7,0,1.2-0.2c0.5-0.2,2.1-2.1,2.2-1.3c0,2-0.1,2.3-1.8,3.7c-1.4,1.1-6.1,1.6-6.1,1.6L138.9,124.8z"/>
		<path class="st1" d="M129,119.5l-0.3,3.3c-0.5-0.1-1.1-0.3-1.9-0.6c-4.7-1.9-2.8-11.2-2.8-11.2C124.7,114.8,127.1,117.6,129,119.5
			z"/>
		<path class="st10" d="M140.2,75c0,0-6.9-2.6-16.5,5.2l0.2-1.8c0.2-1.6,1-3.1,2.3-4c1.5-1.1,3.8-2.3,7.3-2.8
			c2.4-0.3,4.8,0.7,6.2,2.7L140.2,75z"/>
		<path class="st1" d="M155.9,134.7c-1,0.3-2.1,0.5-3.1,0.7l-4.5-19.8C148.3,115.6,155.8,130.8,155.9,134.7z"/>
		<path class="st8" d="M135.5,87.6c0,0,0.4,0.8,1.1,0.9c0.6,0,2.3-0.2,2.4-0.3c0.1-0.2,0.4-1.1,0.4-1.1S136.7,87.1,135.5,87.6z"/>
	</g>
	<g>
		<path class="st8" d="M112.5,109.8c2.2,0,4.6,0.5,7.2,1.5c2.4,1,3.6,2.8,3.6,5.5v71c0,3.3-2,4.9-6.1,4.9s-6.1-1.6-6.1-4.9v-52.9
			l-3-0.3l-4.1,13.4l-12.4,41.2c-0.8,2.4-2.6,3.6-5.6,3.5c-1.3-0.1-2.4-0.4-3.4-1c-1-0.6-1.6-1.5-2-2.7l-7.4-24
			c-1.5-4.7-3-9.6-4.5-14.5c-1.5-4.9-3.2-10.3-4.9-16.3l-3,0.4v53.2c0,3.3-2,4.9-6.1,4.9s-6.1-1.6-6.1-4.9v-71
			c0-2.6,1.2-4.4,3.6-5.5c2.5-1,5-1.5,7.3-1.4c1,0,2.1,0.1,3.2,0.4c1.1,0.3,2.1,0.7,3.1,1.2c1,0.5,1.8,1.2,2.6,2
			c0.8,0.8,1.3,1.7,1.8,2.7l16.2,55.1c1.2-4,2.4-8.4,3.7-13.2s2.6-9.5,4-14.4c1.4-4.9,2.7-9.7,4.1-14.5c1.3-4.8,2.6-9.2,3.8-13.3
			c0.4-1,1-1.8,1.8-2.6c0.8-0.8,1.6-1.4,2.6-1.9c1-0.5,2-0.9,3-1.2C110.4,109.9,111.4,109.8,112.5,109.8z"/>
	</g>
</g>
</svg>
