<?xml version="1.0" encoding="utf-8"?>
<!-- Generator: Adobe Illustrator 27.4.1, SVG Export Plug-In . SVG Version: 6.00 Build 0)  -->
<svg version="1.1" id="圖層_1" xmlns="http://www.w3.org/2000/svg" xmlns:xlink="http://www.w3.org/1999/xlink" x="0px" y="0px"
	 viewBox="0 0 320 120" style="enable-background:new 0 0 320 120;" xml:space="preserve">
<style type="text/css">
	.st0{fill-rule:evenodd;clip-rule:evenodd;fill:#2386D2;}
	.st1{fill-rule:evenodd;clip-rule:evenodd;fill:#1768A6;}
	.st2{opacity:0.6;}
	.st3{fill:#FFFFFF;}
</style>
<path class="st0" d="M56,120c0,0-56-16-56-56V0h64v16H16v47c0,28.6,40,41,40,41s40-12.6,40-41.2V16H72V0h40v64
	C112,104,56,120,56,120z M72,16h16v45c0,22.6-32,34-32,34S24,83.6,24,61V24h16v36.5C40,71.8,56,78,56,78s16-6.2,16-17.5V16z M56,69
	c0,0-8-3.6-8-9.2V16h16v43.8C64,65.4,56,69,56,69z"/>
<path class="st1" d="M56,120c0,0,56-16,56-56V0H72v16h24v46.8C96,91.4,56,104,56,104V120z M56,95c0,0,32-11.4,32-34V16H72v44.5
	C72,71.8,56,78,56,78V95z"/>
<g class="st2">
	<g>
		<path class="st3" d="M139,54.2c-1.5,0-3.3-0.2-5.2-0.8c-0.3,0-0.5,0.2-0.5,0.5c0.6,1.1,1,2.1,1.2,2.9c0,0.8,0.2,1.1,0.6,1.1
			l4.5,0.2c4.5,0,6.8-1.5,6.8-4.5V34.9c2-1,4-2.1,6-3.2c0.2-0.2,0.2-1.4,0.2-3.4c0-0.3-0.2-0.5-0.5-0.5c-0.1,0-0.2,0.1-0.3,0.2
			c-1.8,0.9-3.6,1.8-5.4,2.7V17.6h5.8c0.5,0,0.8-0.4,0.8-1.1v-1.9c0-0.7-0.2-1.1-0.8-1.1h-5.8V5c0-1.6,0.4-2.6,1.2-2.9
			c0.5,0,0.8-0.2,0.8-0.6c0-0.2-0.2-0.4-0.8-0.6l-5-0.7c-0.8,0-1.2,0.2-1.2,0.5s0.1,0.8,0.2,1.2c0.2,0.6,0.2,1.5,0.2,2.8v8.8h-7.2
			c-0.5,0-0.8,0.4-0.8,1.1v1.9c0,0.7,0.2,1.1,0.8,1.1h7.2v15.1c-3.4,1.4-6.3,2.5-8.8,3.2c1.3,3.5,2.1,5.2,2.5,5.2s0.9-0.6,1.5-1.8
			c1.6-0.7,3.2-1.4,4.8-2.1v14.9C141.8,53.5,140.8,54.2,139,54.2z M191.1,56.5c0.3-1,0.8-2.3,1.4-4c0-0.3-0.2-0.4-0.5-0.4
			c-6,0.6-12,0.9-18.2,0.9v-7H188c0.5,0,0.8-0.3,0.8-1v-2c0-0.7-0.2-1-0.8-1h-14.2v-5.9H186c0.7,0,1-0.4,1-1.1v-8h3.8
			c0.5,0,0.7-0.3,0.7-1v-2c0-0.7-0.2-1-0.7-1H187v-8c0-0.5-0.3-0.8-1-0.8h-12.2V9.1H190c0.5,0,0.8-0.4,0.8-1.1V6c0-0.7-0.3-1-0.8-1
			h-16.2V3c0-0.8,0.2-1.2,0.6-1.2c0.4-0.1,0.6-0.4,0.6-1c0-0.5-1.6-0.8-4.8-0.8c-0.7,0-1,0.2-1,0.8V5H154c-0.5,0-0.8,0.3-0.8,1v2
			c0,0.7,0.2,1.1,0.8,1.1h15.2v5.2h-11.8c-0.5,0-0.8,0.3-0.8,1v2.1c0,0.6,0.2,0.9,0.8,0.9h11.8V23h-14.8c-0.5,0-0.8,0.3-0.8,1v2
			c0,0.7,0.2,1,0.8,1h14.8v5h-11.8c-0.5,0-0.8,0.4-0.8,1.1V35c0,0.7,0.2,1.1,0.8,1.1h11.8v16.8c-1.8-0.1-3.3-0.4-4.4-0.8
			c-1.3-0.5-2.4-1.2-3.1-2.1c-0.6-0.7-1.1-1.7-1.6-2.9c0.4-1.5,0.6-3.1,0.8-4.8c0.1-0.6,0.4-1.1,0.7-1.3c0.5-0.1,0.8-0.4,0.8-0.9
			c0-0.2-0.2-0.5-0.6-0.7l-4.1-1.1c-0.5,0-0.8,0.2-0.8,0.8c0,2.3-0.2,4.4-0.6,6.1c-0.4,1.4-0.8,2.6-1.2,3.7
			c-0.6,1.1-1.3,2.2-2.2,3.1c-0.9,1-2,1.8-3.4,2.6c-0.3,0.1-0.4,0.2-0.4,0.5c0,0.2,0.1,0.5,0.4,0.8c0.5,0.5,1.2,1.2,1.9,1.9
			c0.2,0.2,0.5,0.4,0.9,0.4c2.6-1.5,4.6-3.6,6.1-6.1c0.1,0.1,0.2,0.2,0.2,0.4c0.8,1.1,1.9,2.1,3.3,2.9c1,0.7,2.6,1.2,4.8,1.6
			c1.8,0.3,4,0.5,6.6,0.5h17C190.8,57.3,191,57,191.1,56.5z M173.8,18.2h8.8V23h-8.8V18.2z M173.8,27h8.8v5h-8.8V27z M246.2,37.9
			c-1.3,1.6-1.9,2.6-1.9,2.8c1.1,0.7,2.5,1.9,4.2,3.5c2.1,2,4.1,4.1,6,6.5c0,0,0.7-0.9,1.9-2.7c0.2-0.3,0.3-0.5,0.3-0.6
			c-1.2-1.5-2.6-3.2-4.4-5.1c-1.5-1.5-3.3-3.1-5.6-4.9C246.6,37.5,246.4,37.6,246.2,37.9z M206.2,33.6h2.5c0.7,0,1-0.3,1-0.8v-3h34
			v3c0,0.5,0.3,0.8,1,0.8h2.5c0.7,0,1-0.3,1-0.8V3.2c0-0.5-0.3-0.8-1-0.8h-41c-0.7,0-1,0.3-1,1v29.2
			C205.2,33.3,205.6,33.6,206.2,33.6z M229,6.6h14.8v7.7H229V6.6z M229,18.2h14.8v7.5H229V18.2z M209.8,6.6h14.8v7.7h-14.8V6.6z
			 M209.8,18.2h14.8v7.5h-14.8V18.2z M227.5,34c-0.2,0-0.4,0.1-0.6,0.4c-1.3,1.7-1.9,2.6-1.9,2.8c1.1,0.6,2.5,1.6,4.2,3
			c2,1.8,4,3.7,5.8,5.8c0,0,0.7-0.9,1.9-2.8c0.2-0.2,0.3-0.4,0.3-0.5c-1.2-1.3-2.6-2.8-4.3-4.4C231.6,37,229.8,35.6,227.5,34z
			 M198.1,54.4c0.8,0.4,1.7,0.8,2.6,1.2c0.4,0.3,0.8,0.4,1.1,0.4c0.2,0,0.5-0.3,0.9-1c1.6-3,3.2-7.3,4.8-12.8
			c0.2-0.7,0.5-1.1,1.1-1.1c0.5-0.2,0.7-0.6,0.7-1.1c0-0.3-0.3-0.6-0.9-0.9l-3.8-1.6c-0.2,0-0.4,0.4-0.6,1.2
			c-0.5,2.5-1.4,5.1-2.6,7.8c-0.8,2-2,4.2-3.6,6.9c-0.2,0.3-0.2,0.5-0.2,0.7C197.5,54.1,197.7,54.2,198.1,54.4z M242.9,55.4
			c0.7-0.5,1.8-3,3.1-7.6c0-0.3-0.3-0.6-0.9-0.9c-1.2-0.8-2.1-1.5-2.6-2.4c-1,4.1-1.8,6.5-2.5,7.1c-0.5,0.8-2.2,1.1-5,1.1h-12
			c-2.3,0-3.5-0.9-3.5-2.8V37.8c0-0.4,0.2-0.7,0.6-0.8c0.2-0.1,0.4-0.3,0.4-0.7c0-0.2-0.2-0.4-0.8-0.5l-4.2-0.6
			c-0.3,0-0.5,0.3-0.5,0.8v16.4c0,3,2.5,4.5,7.5,4.5h15.8C240.6,57,242.2,56.5,242.9,55.4z M280.5,17.6h9c-1.8,0.9-2.7,1.4-2.7,1.7
			c1,1.3,1.9,2.6,2.5,3.9c0.5,1,0.9,1.8,1.1,2.6h-9.7c-0.3,0-0.5,0.2-0.5,0.8v2c0,0.7,0.2,1,0.5,1h16V34h-13c-0.3,0-0.5,0.2-0.5,0.8
			v2c0,0.7,0.2,1,0.5,1h13V42h-16c-0.3,0-0.5,0.2-0.5,0.8v2c0,0.7,0.2,1,0.5,1h16V51c0,0.5,0.3,0.8,1,0.8h2.5c0.7,0,1-0.3,1-0.8
			v-5.2h15.5c0.3,0,0.5-0.3,0.5-1v-2c0-0.5-0.2-0.8-0.5-0.8h-15.5v-4.2h12c0.3,0,0.5-0.3,0.5-1v-2c0-0.5-0.2-0.8-0.5-0.8h-12v-4.5
			h15.5c0.3,0,0.5-0.3,0.5-1v-2c0-0.5-0.2-0.8-0.5-0.8h-9.2c0.9-1.2,1.8-2.9,2.6-5.1c0.1-0.3,0.4-0.4,0.8-0.4
			c0.2-0.1,0.4-0.2,0.4-0.4c0-0.4-0.3-0.7-0.9-0.9l-3.4-1.4c-0.1,0-0.2,0.1-0.3,0.4c-0.3,1.2-0.8,2.3-1.5,3.4c-0.5,0.9-1.1,1.9-2,3
			c-0.1,0.1-0.2,0.2-0.2,0.3c0,0,0.2,0.1,0.5,0.3c0.5,0.2,1,0.4,1.5,0.7h-13.6c1.9-0.5,2.9-0.9,2.9-1c-0.5-1.2-1-2.4-1.6-3.5
			c-0.6-1.2-1.4-2.4-2.4-3.7H307h10.8c0.3,0,0.5-0.4,0.5-1.1v-1.9c0-0.5-0.2-0.8-0.5-0.8h-16.5V9.3h12.2c0.3,0,0.5-0.4,0.5-1.1v-2
			c0-0.5-0.2-0.8-0.5-0.8h-12.2V3c0-0.8,0.2-1.2,0.6-1.2c0.4-0.1,0.6-0.4,0.6-1c0-0.5-1.6-0.8-4.8-0.8c-0.7,0-1,0.2-1,0.8v4.8H285
			c-0.3,0-0.5,0.2-0.5,0.8v2c0,0.7,0.2,1.1,0.5,1.1h11.8v4.4h-16.2c-0.3,0-0.5,0.3-0.5,0.8v1.9C280,17.2,280.2,17.6,280.5,17.6z
			 M316.5,56.8c0.8,0,1.2-0.4,1.2-1.3c0.5-1.2,1.2-2.5,2-3.9c0-0.3-0.2-0.5-0.5-0.5c-0.2,0-0.5,0-0.8,0.1c-1.8,0.5-4.3,0.9-7.6,1.2
			c-3.6,0.3-6.1,0.5-7.6,0.5h-17.1c-3.3,0-5.8-0.6-7.4-1.8c-1.3-1.2-2.4-2.6-3.2-4.2c-0.1-1.2-0.1-2.2-0.1-3V29.8
			c0-0.5-0.4-0.8-1.2-0.8H263c-0.5,0-0.8,0.3-0.8,1v2c0,0.7,0.2,1.1,0.8,1.1h7.8v10.8c0,1.2-0.3,1.9-1,2.2c-4.4,4-7.1,6.1-8.1,6.2
			l3.2,4.6c0.4,0.4,0.6,0.6,0.8,0.6c0.2,0,0.4-0.4,0.4-1.1c0.1-0.9,0.6-1.6,1.4-2.3c1.5-1.8,3.1-3.6,4.9-5.7c1,2.1,2.1,3.8,3.2,5
			c2.6,2.2,6.1,3.3,10.5,3.3h30.4V56.8z M274.2,9.6c0.1,0,0.7-0.9,1.9-2.8c0.2-0.3,0.3-0.5,0.3-0.6c-1.1-0.8-2.5-1.8-4.1-2.8
			c-1.4-0.8-3.1-1.7-5.2-2.7c-0.2,0-0.3,0.2-0.5,0.5c-1.3,1.6-2,2.5-2,2.8c1.1,0.3,2.4,0.9,4,1.8C270.7,7,272.5,8.2,274.2,9.6z
			 M273.2,23.2c0,0,0.7-0.9,1.9-2.7c0.2-0.3,0.3-0.5,0.3-0.5c-1.2-0.9-2.6-1.8-4.4-2.8c-1.5-0.9-3.3-1.8-5.6-2.7
			c-0.2,0-0.4,0.1-0.6,0.4c-1.3,1.6-1.9,2.5-1.9,2.8c1.1,0.4,2.5,1,4.2,1.9C269.4,20.7,271.4,21.9,273.2,23.2z M145.1,69.8v2.7h-7.3
			V77h-3.3v1.6h3.3V83h7.3v2.6H137v6.2h17.8v-6.2h-8V83h7.7v-4.4h3.1V77h-3.1v-4.5h-7.7v-2.7H145.1z M145.1,90.2h-6.4v-3.1h6.4V90.2
			z M145.1,81.3h-5.6v-2.9h5.6V81.3z M145.1,76.9h-5.6v-3h5.6V76.9z M153,87.1v3.1h-6.2v-3.1H153z M152.8,81.3h-6v-2.9h6V81.3z
			 M152.8,74v3h-6v-3H152.8z M164,96.9c0.2-0.3,0.4-0.6,0.5-0.9c2-4.1,3.2-9.2,3.8-15.5h1.9v-1.6h-9.8c0.7-2.7,1.3-5.4,1.7-8.3
			l-1.7-0.5c-0.4,3-1.1,6.2-2,9.5c-0.9,3.4-1.9,6.3-3.2,8.9l1.4,1.3c0.7-1.5,1.3-3.1,1.9-4.9c1,4.9,2.1,8.8,3.5,11.7
			c-2.1,3.5-4.8,6.3-8.2,8.5l1.1,1.4c3.3-2.1,6-4.7,8.1-8c1.5,2.8,3.6,5.5,6.5,8.1l1.2-1.6C167.9,102.6,165.6,99.8,164,96.9z
			 M159.4,82.1c0.1-0.4,0.3-0.8,0.4-1.2c0-0.2,0.1-0.3,0.1-0.5h6.5c-0.5,5.8-1.7,10.6-3.4,14.4C161.6,91.6,160.4,87.3,159.4,82.1z
			 M149.3,101.2c1.3-1.3,2.3-3,2.9-5h4.8v-1.6h-13.5c0.3-0.6,0.5-1.2,0.7-1.9l-1.7-0.5c-0.3,0.8-0.6,1.6-0.9,2.4h-7.2v1.6h6.5
			c-0.9,1.8-2,3.4-3.2,5l1.4,1.2c0.5-0.7,1-1.4,1.5-2.1c1.7,0.4,3.5,0.9,5.3,1.5c-2.7,1.8-6.5,2.8-11.4,3.1l0.5,1.6
			c5.6-0.3,9.9-1.6,12.9-3.9c1.9,0.7,3.8,1.5,5.7,2.4l0.8-1.7C152.6,102.5,150.9,101.8,149.3,101.2z M147.5,100.6
			c-2.1-0.7-4.1-1.2-6.1-1.7c0.5-0.8,1-1.7,1.4-2.7h7.5C149.6,97.9,148.7,99.4,147.5,100.6z M193.2,69.9c-1,3.4-2.4,6.8-4.3,10.4
			c-1.6,3.1-3.4,6-5.5,8.9l1.4,1.1c1.6-2.1,3.1-4.4,4.5-6.8v23.1h1.9V79.9c1.3-2.6,2.6-5.7,3.9-9.4L193.2,69.9z M193.2,104.8h27.2
			v-1.9h-27.2V104.8z M219.3,78.8h-25v1.7h25V78.8z M204.4,70.1l-1.5,1.1c2,2.2,3.5,4.5,4.6,6.9l1.7-1.3
			C208,74.3,206.3,72.1,204.4,70.1z M210.8,100.2c2-5.3,3.5-10.6,4.4-15.7l-1.9-0.7c-0.9,4.9-2.3,10.1-4.3,15.5L210.8,100.2z
			 M202.2,100.4l1.9-0.7c-1.2-5.6-2.7-10.8-4.5-15.5l-1.4,0.9C199.8,89.6,201.2,94.7,202.2,100.4z M252.4,71.6V83h13v19.4
			c0,0.9-0.4,1.4-1.1,1.4c-1.3,0-2.6-0.1-4.1-0.3v1.8c1.6,0.1,2.9,0.2,4.1,0.2c1.9,0,2.8-0.8,2.8-2.5V71.6H255H252.4z M265.4,81.5
			h-11.2v-3.4h11.2V81.5z M265.4,76.5h-11.2v-3.2h11.2V76.5z M249.4,71.6H235v35h1.7V83.1h12.7V71.6z M247.7,81.5h-11v-3.4h11V81.5z
			 M247.7,76.5h-11v-3.2h11V76.5z M263.1,92.9h-7.3v-5h5.9v-1.6h-21.1v1.6h5.5v5h-7v1.6h6.9c-0.2,1.4-0.7,2.8-1.4,4.1
			c-1.1,1.9-2.8,3.6-5.1,5.1l1.4,1.1c2-1.2,3.6-2.9,4.8-4.8c1.1-1.7,1.7-3.5,2-5.5h6.4v10h1.7v-10h7.3L263.1,92.9L263.1,92.9z
			 M254.1,92.9h-6.2v-5h6.2V92.9z M312.7,78.8c1.1-1,2.1-2.1,3-3.3l-1.4-0.9c-0.8,1.1-1.6,2-2.7,2.9c-0.8,0.7-1.6,1.3-2.4,1.8
			c-0.3-0.2-0.5-0.4-0.8-0.6c-0.9-0.8-1.8-1.6-2.6-2.4c0.8-0.4,1.5-1,2.3-1.5c1.2-0.9,2.2-1.9,3-3l-1.2-0.9
			c-0.8,0.9-1.8,1.8-2.9,2.6c-0.8,0.6-1.6,1.1-2.3,1.6c-1.4-1.6-2.6-3.2-3.6-5l-1.4,1c2,3.6,4.5,6.6,7.5,9.1c0.7,0.5,1.3,1.1,2,1.6
			h-7.8c0,3.4-0.5,5.6-1.4,6.8c-0.6,0.8-1.7,1.5-3.4,1.9l0.6,1.7c2-0.4,3.5-1.4,4.5-2.8c0.8-1.2,1.3-3.2,1.5-6h5.7v5
			c0,0.8,0.1,1.3,0.4,1.6c0.2,0.5,1.2,0.7,2.9,0.7c1.9,0,3.5-0.2,4.8-0.5v-1.7c-1.8,0.3-3.4,0.5-4.8,0.5c-0.6,0-1.1-0.1-1.4-0.2
			c-0.1-0.2-0.2-0.7-0.2-1.3v-4.9c2.1,1.4,4.4,2.7,6.9,3.8l1.2-1.6c-3.2-1.4-5.8-2.9-7.9-4.3C311.4,80,312.1,79.4,312.7,78.8z
			 M313.6,92.2h-16v1.6h2c1.4,3,3.2,5.4,5.2,7.1c-2.6,1.8-5.8,3.2-9.6,4l0.6,1.7c4.2-0.9,7.7-2.4,10.5-4.6c3.2,2.2,7,3.7,11.7,4.4
			l0.5-1.6c-4.6-0.8-8.2-2.1-10.9-3.9C310,98.8,312,95.9,313.6,92.2z M306.1,99.9c-1.8-1.6-3.4-3.6-4.7-6.1h9.5
			C309.5,96.2,307.9,98.3,306.1,99.9z M287.4,94.6l1.2-4.7h7.7v-7.7h-5.6c0.1-0.1,0.3-0.2,0.4-0.3c3-2,5.8-4.6,8.5-7.8v-1.7h-14.8
			v1.7h12.5c-1.5,1.8-3.2,3.5-5.2,5c-1.1-1.4-2.3-2.7-3.4-3.8l-1.3,1.1c1.3,1.2,2.4,2.4,3.3,3.6c-2.8,2-5.7,3.5-8.8,4.5l0.9,1.7
			c1.7-0.7,3.5-1.5,5.4-2.5h6.4v4.6h-7.4l-1.8,7.8h8.7c-0.4,3.6-0.9,5.9-1.6,6.9c-0.4,0.7-1,1.1-1.7,1.1c-1.1,0-2.5-0.2-4.3-0.6v1.7
			c1.4,0.3,2.8,0.4,4.3,0.4c1.2,0,2.1-0.4,2.8-1.1c1.1-1.2,1.9-4.6,2.5-9.9C296.1,94.6,287.4,94.6,287.4,94.6z"/>
	</g>
</g>
</svg>
