<?xml version="1.0" encoding="utf-8"?>
<!-- Generator: $$$/GeneralStr/196=Adobe Illustrator 27.6.0, SVG Export Plug-In . SVG Version: 6.00 Build 0)  -->
<svg version="1.1" id="圖層_1" xmlns="http://www.w3.org/2000/svg" xmlns:xlink="http://www.w3.org/1999/xlink" x="0px" y="0px"
	 viewBox="0 0 342 32" style="enable-background:new 0 0 342 32;" xml:space="preserve">
<style type="text/css">
	.st0{fill:#FFFFFF;}
</style>
<g>
	<g>
		<path class="st0" d="M9.4,18.6c1.2-9,22-16.5,49.9-17c10.1-0.2,19.3,0.6,26.9,2.1C77.6,1.2,65.9-0.2,52.8,0
			C24.9,0.5,1.3,8.2,0.1,17.3C-0.7,23.1,7.8,28,21.4,30.7C11.7,27.9,8.7,23.4,9.4,18.6z"/>
		<path class="st0" d="M31.3,9.2c-2.9-0.1-3.9,1.2-4.7,1.9c-1.9,2.1-2,4.3-2.2,6.5c-0.4,4.9,9,3,8.5,6.3c-0.2,1.1-0.6,2.4-1.8,2.8
			c-0.8,0.3-2,0.4-3.4,0.4v0h-6.4l-0.7,2c-0.3,0.9,0.2,1.6,1,1.6h10.3c1.8-0.1,3-0.6,4.3-1.5c2.2-1.8,3.2-7.8,1.9-9.4
			c-1.7-1.9-4.7-2.1-6.5-2.6c-2.2-0.7-1.7-1.9-1.4-3.1c0.5-1.7,2-1.4,3.3-1.4h5c0.3,0.1,0.7,0,0.9-0.1c0.2-0.1,0.4-0.3,0.4-0.6
			l0.7-2.7H31.3z"/>
		<path class="st0" d="M76.4,10.1c-1-0.7-2-0.9-3.9-0.9h-11l-4.4,15.7L55.9,29h0l-0.1,0.4c-0.2,0.6,0.1,0.8,0.2,1
			c0.2,0.2,0.6,0.3,0.9,0.4h5.8c-0.5-0.1-0.9-0.1-1-0.4c-0.2-0.2-0.4-0.5-0.3-1l1.7-6H69c2.1,0,3.2-0.4,4.3-1
			C77,20.7,79,12.3,76.4,10.1z M70,19c-0.5,0.4-1.3,0.8-2.2,0.8h-3.5l2.1-7.4h3.5c0.6,0,1.1,0.1,1.5,0.5C71.9,13.5,71.5,17.8,70,19z
			"/>
		<path class="st0" d="M45.2,9.2H43c-0.2,0-0.5,0.1-0.7,0.1C42.2,9.4,42,9.6,42,9.8l-0.7,3h0.6c0.2,0,0.4,0,0.5,0h4.8l-4.7,17.1
			c0,0.3,0.2,0.5,0.3,0.5c0.1,0,0.4,0.2,0.5,0.2h5.8c0.2,0-0.6-0.1-0.7-0.3c0-0.1-0.2-0.3-0.2-0.5l4.5-17.1h5.3
			c0.4,0,0.6-0.1,0.8-0.2c0.2-0.1,0.2-0.3,0.4-0.5L60,9.2L45.2,9.2L45.2,9.2z"/>
		<path class="st0" d="M86.3,10.2L86.3,10.2l0.3-1h-1.2l0,0h-4.6l-0.2,0.7c0,0.1,0,0.2-0.1,0.3l-5.3,19.2c-0.2,0.8,0,0.7,0.2,0.9
			c0.2,0.1,0.6,0.3,0.8,0.3H82c-0.2,0-0.6-0.3-0.7-0.4c-0.2-0.2-0.2-0.1-0.2-0.8L86.3,10.2z"/>
	</g>
	<g>
		<g>
			<path class="st0" d="M283.3,27.5c0-0.5,0-0.8,0-1.2h1l0,0.6h0c0.2-0.3,0.7-0.7,1.4-0.7c0.6,0,1.1,0.3,1.3,0.7h0
				c0.2-0.2,0.4-0.4,0.6-0.5c0.3-0.2,0.6-0.2,0.9-0.2c0.8,0,1.6,0.4,1.6,1.7v2.3H289v-2.2c0-0.7-0.3-1.1-0.8-1.1
				c-0.4,0-0.7,0.2-0.8,0.5c0,0.1-0.1,0.2-0.1,0.3v2.4h-1.2V28c0-0.6-0.3-0.9-0.8-0.9c-0.4,0-0.7,0.3-0.8,0.6c0,0.1-0.1,0.2-0.1,0.3
				v2.3h-1.2V27.5z"/>
			<g>
				<path class="st0" d="M297.6,25v1.1h1.1v0.8h-1.1v1.8c0,0.5,0.2,0.7,0.6,0.7c0.2,0,0.4,0,0.5-0.1l0,0.8c-0.2,0.1-0.5,0.1-0.9,0.1
					c-0.4,0-0.8-0.1-1-0.3c-0.3-0.2-0.4-0.6-0.4-1.1v-1.9h-0.7v-0.8h0.7v-0.9L297.6,25z"/>
				<path class="st0" d="M300.8,25.1c0,0.3-0.3,0.5-0.7,0.5c-0.4,0-0.7-0.2-0.7-0.5c0-0.3,0.3-0.6,0.7-0.6
					C300.5,24.5,300.8,24.8,300.8,25.1z M299.5,30.2v-4h1.2v4H299.5z"/>
				<path class="st0" d="M306.3,28.2c0,1.5-1.2,2.1-2.4,2.1c-1.3,0-2.4-0.8-2.4-2.1c0-1.3,1-2.1,2.4-2.1
					C305.4,26.1,306.3,26.9,306.3,28.2z M302.8,28.2c0,0.8,0.4,1.4,1.2,1.4c0.7,0,1.2-0.6,1.2-1.4c0-0.6-0.3-1.3-1.1-1.3
					C303.1,26.8,302.8,27.5,302.8,28.2z"/>
				<path class="st0" d="M307.2,27.4c0-0.5,0-0.8,0-1.2h1l0.1,0.6h0c0.2-0.3,0.7-0.7,1.5-0.7c0.8,0,1.7,0.5,1.7,1.7v2.4h-1.2v-2.3
					c0-0.6-0.3-1-0.9-1c-0.5,0-0.8,0.3-0.9,0.6c0,0.1-0.1,0.2-0.1,0.3v2.4h-1.2V27.4z"/>
				<path class="st0" d="M294.7,30c-0.3,0.2-1,0.4-1.5,0.4c-0.2,0-0.4,0-0.7-0.1c-1-0.2-1.4-0.7-1.4-1.2c0-1,1.1-1.5,2.9-1.5v-0.1
					c0-0.3-0.1-0.7-1-0.7c-0.5,0-1,0.1-1.3,0.3l-0.2-0.7c0.4-0.2,1-0.4,1.7-0.4c1.6,0,2,0.8,2,1.7c0,0,0,0.6,0,1.1
					C295.2,29.3,295.1,29.7,294.7,30z M294,28.2c-0.9,0-1.7,0.1-1.7,0.8c0,0.4,0.3,0.6,0.7,0.6c0.5,0,0.7-0.2,0.8-0.3
					c0.1-0.1,0.2-0.3,0.2-0.5C294,28.6,294,28.2,294,28.2z"/>
			</g>
			<g>
				<path class="st0" d="M214.1,28.5c0,0.7,0.7,1.1,1.5,1.1c0.6,0,1-0.1,1.3-0.2l0.2,0.7c-0.4,0.1-1,0.3-1.7,0.3
					c-1.6,0-2.5-0.8-2.5-2.1c0-1.1,0.8-2.2,2.3-2.2c1.6,0,2.1,1.1,2.1,2c0,0.2,0,0.3,0,0.4H214.1z M216.2,27.8c0-0.4-0.2-1-1-1
					c-0.7,0-1.1,0.6-1.1,1H216.2z"/>
				<path class="st0" d="M218.1,29.3c0.3,0.1,0.8,0.3,1.2,0.3c0.5,0,0.8-0.2,0.8-0.5c0-0.3-0.2-0.4-0.8-0.6
					c-0.9-0.3-1.3-0.7-1.3-1.2c0-0.7,0.7-1.3,1.8-1.3c0.5,0,1,0.1,1.3,0.2l-0.2,0.7c-0.2-0.1-0.6-0.2-1-0.2c-0.4,0-0.7,0.2-0.7,0.4
					c0,0.3,0.2,0.4,0.8,0.6c0.9,0.3,1.3,0.6,1.3,1.2c0,0.7-0.7,1.3-1.9,1.3c-0.6,0-1.1-0.1-1.5-0.3L218.1,29.3z"/>
				<path class="st0" d="M223,28.5c0,0.7,0.7,1.1,1.5,1.1c0.6,0,1-0.1,1.3-0.2l0.2,0.7c-0.4,0.1-1,0.3-1.7,0.3
					c-1.6,0-2.5-0.8-2.5-2.1c0-1.1,0.8-2.2,2.3-2.2c1.5,0,2.1,1.1,2.1,2c0,0.2,0,0.3,0,0.4H223z M225.1,27.8c0-0.4-0.2-1-1-1
					c-0.7,0-1.1,0.6-1.1,1H225.1z"/>
				<path class="st0" d="M231.9,27.5c0-0.6,0-0.9,0-1.3h1.1l0,0.8h0c0.2-0.6,0.8-0.9,1.3-0.9c0.1,0,0.2,0,0.3,0v1
					c-0.1,0-0.2,0-0.4,0c-0.6,0-1,0.3-1.1,0.8c0,0.1,0,0.2,0,0.3v2.1h-1.2V27.5z"/>
				<path class="st0" d="M238.7,30.1c-0.3,0.1-0.8,0.2-1.4,0.2c-1.5,0-2.5-0.8-2.5-2.1c0-1.2,1-2.2,2.7-2.2c0.4,0,0.9,0.1,1.2,0.2
					l-0.2,0.8c-0.2-0.1-0.5-0.2-0.9-0.2c-0.9,0-1.5,0.6-1.5,1.3c0,0.8,0.6,1.3,1.5,1.3c0.4,0,0.7-0.1,0.9-0.2L238.7,30.1z"/>
				<path class="st0" d="M239.4,24.3h1.2v2.4h0c0.1-0.2,0.3-0.3,0.6-0.5c0.2-0.1,0.5-0.2,0.8-0.2c0.8,0,1.7,0.5,1.7,1.8v2.4h-1.2
					v-2.3c0-0.6-0.3-1-0.9-1c-0.5,0-0.8,0.3-0.9,0.6c0,0.1,0,0.2,0,0.3v2.4h-1.2V24.3z"/>
				<path class="st0" d="M230.4,30c-0.3,0.2-1,0.4-1.5,0.4c-0.2,0-0.5,0-0.7-0.1c-1-0.1-1.4-0.7-1.4-1.2c0-1,1.1-1.5,2.9-1.5v-0.1
					c0-0.3-0.1-0.7-1-0.7c-0.5,0-1,0.1-1.3,0.3l-0.2-0.7c0.4-0.2,1-0.4,1.8-0.4c1.6,0,2,0.8,2,1.7c0,0,0,0.6,0,1.1
					C230.9,29.3,230.7,29.7,230.4,30z M229.7,28.2c-0.9,0-1.7,0.1-1.7,0.8c0,0.4,0.3,0.6,0.7,0.6c0.5,0,0.7-0.2,0.8-0.3
					c0.1-0.1,0.2-0.3,0.2-0.5C229.7,28.5,229.7,28.2,229.7,28.2z"/>
				<path class="st0" d="M212.1,28.7c-0.2-0.5-0.5-0.9-0.9-1.1v0c0.6-0.2,1.2-0.7,1.2-1.4c0-0.5-0.2-0.9-0.6-1.1
					c-0.4-0.3-1.1-0.5-2-0.5c-0.7,0-1.4,0.1-1.8,0.1v5.6h1.2v-4.8c0.1,0,0.4-0.1,0.7-0.1c0.8,0,1.3,0.3,1.3,0.9
					c0,0.5-0.7,0.9-1.4,0.9c0.6,0.4,1,1.1,1.2,1.7c0.2,0.7,0.3,1.2,0.4,1.3h1.2C212.4,30,212.3,29.4,212.1,28.7z"/>
			</g>
			<path class="st0" d="M185.4,27.6l0.2-0.1c0.6-0.2,1.2-0.7,1.2-1.4c0-0.5-0.2-0.9-0.6-1.1c-0.4-0.3-1.1-0.4-2-0.4
				c-0.7,0-1.4,0.1-1.8,0.1v5.6h1.2v-4.8c0.1,0,0.4,0,0.7,0c0.8,0,1.3,0.3,1.3,0.9c0,0.5-0.8,0.9-2,0.7c-0.4,0.2-0.6,0.4-0.2,0.7
				C183.5,27.8,184.7,27.9,185.4,27.6z"/>
			<path class="st0" d="M129.4,30.3c-0.1-0.1-0.2-0.3-0.4-0.4c-0.4,0.3-0.8,0.5-1.5,0.5c-1.3,0-1.9-0.8-1.9-1.6c0-0.7,0.4-1.3,1-1.6
				v0c-0.2-0.3-0.4-0.7-0.4-1.1c0-0.7,0.5-1.5,1.6-1.5c0.8,0,1.5,0.5,1.5,1.3c0,0.6-0.3,1.1-1.1,1.4l0,0c0.3,0.4,0.6,0.8,0.9,1.1
				c0.2-0.4,0.4-0.9,0.5-1.4h1.1c-0.1,0.9-0.4,1.6-0.9,2.1c0.3,0.4,0.6,0.7,1,1.1H129.4z M128.5,29.2c-0.3-0.3-0.8-0.9-1.2-1.4
				c-0.2,0.2-0.4,0.4-0.4,0.8c0,0.5,0.3,0.9,0.9,0.9C128.1,29.5,128.3,29.3,128.5,29.2z M127.9,25.3c-0.3,0-0.5,0.3-0.5,0.6
				c0,0.3,0.1,0.5,0.4,0.8c0.4-0.3,0.6-0.5,0.6-0.8C128.4,25.6,128.2,25.3,127.9,25.3L127.9,25.3z"/>
			<path class="st0" d="M192.2,24.3h1.2v5.9h-1.2V24.3z"/>
			<path class="st0" d="M195.7,25.1c0,0.3-0.2,0.6-0.7,0.6c-0.4,0-0.6-0.3-0.6-0.6c0-0.4,0.3-0.6,0.7-0.6
				C195.5,24.4,195.7,24.7,195.7,25.1z M194.5,30.3v-4.1h1.2v4.1H194.5z"/>
			<path class="st0" d="M265.1,24.6v5.6h-1.2v-5.6H265.1z"/>
			<path class="st0" d="M106.1,28.6c0,0.7,0.7,1,1.4,1c0.5,0,0.9-0.1,1.3-0.2l0.2,0.7c-0.4,0.1-1,0.2-1.6,0.2c-1.5,0-2.4-0.8-2.4-2
				c0-1.1,0.8-2.1,2.3-2.1c1.5,0,2,1.1,2,1.9c0,0.2,0,0.3,0,0.4H106.1z M108.2,27.9c0-0.4-0.2-1-1-1c-0.7,0-1,0.6-1.1,1H108.2z"/>
			<path class="st0" d="M110,27.5c0-0.5,0-0.8,0-1.2h1l0.1,0.6h0c0.2-0.3,0.7-0.7,1.5-0.7c0.8,0,1.7,0.4,1.7,1.7v2.4h-1.2V28
				c0-0.6-0.2-1-0.9-1c-0.5,0-0.8,0.3-0.9,0.6c0,0.1,0,0.2,0,0.3v2.3H110V27.5z"/>
			<path class="st0" d="M101.7,30.2c-0.2,0.1-0.7,0.2-1.3,0.2c-1.5,0-2.4-0.8-2.4-2c0-1.2,1-2.1,2.6-2.1c0.4,0,0.9,0.1,1.1,0.2
				l-0.2,0.7c-0.2-0.1-0.5-0.2-0.9-0.2c-0.9,0-1.4,0.6-1.4,1.3c0,0.8,0.6,1.3,1.4,1.3c0.4,0,0.7-0.1,0.9-0.2L101.7,30.2z"/>
			<g>
				<path class="st0" d="M118.8,30.2c-0.2,0.1-0.7,0.2-1.3,0.2c-1.4,0-2.4-0.8-2.4-2c0-1.2,0.9-2.1,2.5-2.1c0.4,0,0.9,0.1,1.1,0.2
					l-0.2,0.7c-0.2-0.1-0.5-0.2-0.9-0.2c-0.9,0-1.4,0.6-1.4,1.3c0,0.8,0.6,1.3,1.4,1.3c0.4,0,0.7-0.1,0.9-0.2L118.8,30.2z"/>
				<path class="st0" d="M120.2,28.6c0,0.7,0.7,1,1.4,1c0.5,0,0.9-0.1,1.3-0.2l0.2,0.7c-0.4,0.1-0.9,0.2-1.6,0.2
					c-1.5,0-2.4-0.8-2.4-2c0-1.1,0.8-2.1,2.2-2.1c1.5,0,2,1,2,1.9c0,0.2,0,0.3,0,0.4H120.2z M122.2,27.9c0-0.4-0.2-0.9-0.9-0.9
					c-0.7,0-1,0.5-1.1,0.9H122.2z"/>
			</g>
			<path class="st0" d="M200.2,30.2c-0.2,0.1-0.7,0.2-1.3,0.2c-1.5,0-2.4-0.8-2.4-2c0-1.2,1-2.1,2.6-2.1c0.4,0,0.9,0.1,1.2,0.2
				l-0.2,0.8c-0.2-0.1-0.5-0.2-0.9-0.2c-0.9,0-1.5,0.6-1.4,1.3c0,0.8,0.6,1.3,1.4,1.3c0.4,0,0.7-0.1,0.9-0.2L200.2,30.2z"/>
			<g>
				<path class="st0" d="M103.9,25.1c0,0.3-0.3,0.6-0.7,0.6c-0.4,0-0.7-0.2-0.7-0.6c0-0.3,0.3-0.6,0.7-0.6
					C103.6,24.5,103.9,24.8,103.9,25.1z M102.6,30.3v-4.1h1.2v4.1H102.6z"/>
			</g>
			<path class="st0" d="M93.6,29.2c0.4,0.2,1,0.4,1.6,0.4c0.8,0,1.2-0.3,1.2-0.8c0-0.4-0.3-0.7-1.2-0.9c-1.1-0.3-1.8-0.8-1.8-1.6
				c0-0.9,0.9-1.6,2.3-1.6c0.7,0,1.2,0.1,1.6,0.3l-0.3,0.8c-0.2-0.1-0.7-0.3-1.3-0.3c-0.8,0-1.1,0.4-1.1,0.7c0,0.4,0.4,0.6,1.3,0.9
				c1.1,0.4,1.7,0.9,1.7,1.7c0,0.9-0.8,1.7-2.5,1.7c-0.7,0-1.4-0.2-1.8-0.4L93.6,29.2z"/>
			<path class="st0" d="M176.5,26.2l0.8,2.1c0.1,0.2,0.2,0.5,0.3,0.8h0c0.1-0.2,0.2-0.5,0.2-0.8l0.7-2.1h1.3l-1.2,2.7
				c-0.6,1.5-1.1,2.1-1.6,2.6c-0.5,0.4-0.9,0.5-1.2,0.5l-0.3-0.8c0.2,0,0.5-0.1,0.7-0.3c0.2-0.1,0.5-0.4,0.6-0.6
				c0-0.1,0.1-0.1,0.1-0.2c0,0,0-0.1-0.1-0.2l-1.7-3.6H176.5z"/>
			<path class="st0" d="M138.2,28.6c0,0.7,0.7,1,1.4,1c0.5,0,0.9-0.1,1.3-0.2l0.2,0.7c-0.4,0.1-1,0.2-1.6,0.2c-1.5,0-2.4-0.8-2.4-2
				c0-1.1,0.8-2.1,2.3-2.1c1.5,0,2,1.1,2,1.9c0,0.2,0,0.3,0,0.4H138.2z M140.3,27.9c0-0.4-0.2-1-1-1c-0.7,0-1,0.6-1.1,1H140.3z"/>
			<path class="st0" d="M152,27.5c0-0.5,0-0.8,0-1.2h1l0.1,0.6h0c0.2-0.3,0.7-0.7,1.5-0.7c0.8,0,1.7,0.4,1.7,1.7v2.4h-1.2v-2.2
				c0-0.6-0.2-1-0.9-1c-0.5,0-0.8,0.3-0.9,0.6c0,0.1,0,0.2,0,0.3v2.3H152V27.5z"/>
			<path class="st0" d="M174.5,26.2c0,0.2,0,0.5,0,1v2.1c0,0.8-0.2,1.3-0.6,1.6c-0.4,0.3-1.1,0.4-1.6,0.4c-0.5,0-1.1-0.1-1.5-0.3
				l0.2-0.7c0.3,0.1,0.7,0.3,1.2,0.3c0.7,0,1.2-0.3,1.2-1.1v-0.3h0c-0.2,0.3-0.7,0.5-1.2,0.5c-1.1,0-1.8-0.7-1.8-1.8
				c0-1.2,0.9-1.9,1.9-1.9c0.6,0,1,0.3,1.2,0.6h0l0-0.5H174.5z M173.4,27.7c0-0.1,0-0.2,0-0.2c-0.1-0.3-0.4-0.6-0.9-0.6
				c-0.6,0-1,0.4-1,1.2c0,0.6,0.4,1.1,1,1.1c0.4,0,0.8-0.2,0.9-0.5c0-0.1,0-0.2,0-0.3V27.7z"/>
			<path class="st0" d="M146,30.2c-0.3,0.1-0.8,0.2-1.4,0.2c-1.5,0-2.5-0.8-2.5-2.1c0-1.2,1-2.2,2.7-2.2c0.4,0,0.9,0.1,1.2,0.2
				l-0.2,0.8c-0.2-0.1-0.5-0.2-0.9-0.2c-0.9,0-1.5,0.6-1.5,1.3c0,0.8,0.6,1.3,1.5,1.3c0.4,0,0.7-0.1,1-0.2L146,30.2z"/>
			<path class="st0" d="M146.7,24.4h1.2v2.4h0c0.1-0.2,0.3-0.3,0.6-0.5c0.2-0.1,0.5-0.2,0.8-0.2c0.8,0,1.7,0.5,1.7,1.8v2.4h-1.2V28
				c0-0.6-0.3-1-0.9-1c-0.5,0-0.8,0.3-0.9,0.6c0,0.1,0,0.2,0,0.3v2.4h-1.2V24.4z"/>
			<path class="st0" d="M161.9,28.3c0,1.5-1.2,2.2-2.5,2.2c-1.4,0-2.4-0.8-2.4-2.1c0-1.3,1-2.2,2.5-2.2
				C161,26.2,161.9,27,161.9,28.3z M158.3,28.3c0,0.8,0.4,1.4,1.2,1.4c0.7,0,1.2-0.6,1.2-1.4c0-0.6-0.3-1.4-1.2-1.4
				C158.7,26.9,158.3,27.6,158.3,28.3z"/>
			<path class="st0" d="M169.5,28.3c0,1.5-1.2,2.2-2.5,2.2c-1.4,0-2.4-0.8-2.4-2.1c0-1.3,1-2.2,2.5-2.2
				C168.6,26.2,169.5,27,169.5,28.3z M165.9,28.3c0,0.8,0.5,1.4,1.2,1.4c0.7,0,1.2-0.6,1.2-1.4c0-0.6-0.3-1.4-1.2-1.4
				C166.3,26.9,165.9,27.6,165.9,28.3z"/>
			<path class="st0" d="M134.6,25.8h-1.5v-1.1h4.2v1.1h-1.5v4.6h-1.2V25.8z"/>
			<path class="st0" d="M162.6,24.4h1.2v5.9h-1.2V24.4z"/>
			<path class="st0" d="M191.5,28.3c0,1.5-1.2,2.2-2.5,2.2c-1.4,0-2.4-0.8-2.4-2.1c0-1.3,1-2.2,2.5-2.2
				C190.6,26.2,191.5,27,191.5,28.3z M187.9,28.3c0,0.8,0.5,1.4,1.2,1.4c0.7,0,1.2-0.6,1.2-1.4c0-0.6-0.3-1.4-1.2-1.4
				C188.3,26.9,187.9,27.6,187.9,28.3z"/>
			<path class="st0" d="M202.1,26.2l0.8,2.1c0.1,0.2,0.2,0.5,0.3,0.8h0c0.1-0.2,0.2-0.5,0.3-0.8l0.7-2.1h1.3l-1.2,2.7
				c-0.6,1.5-1.1,2.1-1.6,2.5c-0.5,0.4-0.9,0.5-1.2,0.5l-0.3-0.8c0.2,0,0.4-0.1,0.7-0.3c0.2-0.1,0.5-0.4,0.6-0.6
				c0-0.1,0.1-0.1,0.1-0.2c0,0,0-0.1-0.1-0.2l-1.7-3.6H202.1z"/>
			<path class="st0" d="M261.2,24.3v4.8c0,0.4,0,0.9,0,1.1h-1.1l0-0.6h0c-0.3,0.5-0.9,0.7-1.6,0.7c-1.1,0-2-0.8-2-2.1
				c0-1.4,1-2.2,2.1-2.2c0.7,0,1.1,0.2,1.3,0.5h0v-2.3H261.2z M260,27.8c0-0.1,0-0.2,0-0.3c-0.1-0.4-0.5-0.7-1-0.7
				c-0.8,0-1.2,0.6-1.2,1.3c0,0.7,0.4,1.3,1.2,1.3c0.5,0,0.9-0.3,1-0.7c0-0.1,0-0.2,0-0.3V27.8z"/>
			<path class="st0" d="M251.4,27.4c0-0.5,0-0.9,0-1.2h1.1l0.1,0.6h0c0.2-0.3,0.7-0.7,1.5-0.7c0.8,0,1.7,0.5,1.7,1.7v2.4h-1.2v-2.3
				c0-0.6-0.3-1-0.9-1c-0.5,0-0.8,0.3-0.9,0.6c0,0.1-0.1,0.2-0.1,0.3v2.4h-1.2V27.4z"/>
			<path class="st0" d="M266.6,27.4c0-0.5,0-0.9,0-1.2h1.1l0.1,0.6h0c0.2-0.3,0.7-0.7,1.5-0.7c0.8,0,1.7,0.5,1.7,1.7v2.4h-1.2v-2.3
				c0-0.6-0.3-1-0.9-1c-0.5,0-0.8,0.3-0.9,0.6c0,0.1,0,0.2,0,0.3v2.4h-1.2V27.4z"/>
			<path class="st0" d="M250.1,30c-0.4,0.2-1,0.4-1.5,0.4c-0.2,0-0.5,0-0.7-0.1c-1-0.2-1.4-0.7-1.4-1.2c0-1,1.1-1.6,2.9-1.5v-0.1
				c0-0.3-0.1-0.7-1-0.7c-0.5,0-1,0.1-1.3,0.3l-0.2-0.7c0.4-0.2,1-0.4,1.8-0.4c1.6,0,2,0.8,2,1.7c0,0,0,0.6,0,1.1
				C250.6,29.3,250.4,29.7,250.1,30z M249.4,28.2c-0.9,0-1.7,0.1-1.7,0.8c0,0.4,0.3,0.6,0.7,0.6c0.5,0,0.7-0.2,0.8-0.3
				c0.1-0.1,0.2-0.3,0.2-0.5C249.4,28.5,249.4,28.2,249.4,28.2z"/>
			<path class="st0" d="M280.1,27.5c0-0.5,0-0.9,0-1.3h1l0,0.8h0c0.2-0.6,0.8-0.8,1.3-0.8c0.1,0,0.2,0,0.3,0v0.9c-0.1,0-0.2,0-0.3,0
				c-0.6,0-0.9,0.3-1.1,0.8c0,0.1,0,0.2,0,0.3v2.1h-1.2V27.5z"/>
			<path class="st0" d="M279.4,28.2c0,1.5-1.2,2.2-2.5,2.2c-1.4,0-2.4-0.8-2.4-2.1c0-1.3,1-2.2,2.5-2.2
				C278.4,26.1,279.4,26.9,279.4,28.2z M275.8,28.2c0,0.8,0.5,1.4,1.2,1.4c0.7,0,1.2-0.6,1.2-1.4c0-0.6-0.3-1.4-1.2-1.4
				C276.1,26.8,275.8,27.5,275.8,28.2z"/>
			<path class="st0" d="M271.8,30.2v-3.2h-0.7v-0.9h0.7V26c0-0.5,0.1-1,0.5-1.4c0.3-0.3,0.7-0.4,1.1-0.4c0.3,0,0.5,0,0.6,0.1l0,1
				c-0.1,0-0.2-0.1-0.4-0.1c-0.4,0-0.6,0.3-0.6,0.7v0.2h1v0.9h-1v3.2H271.8z"/>
			<g>
				<path class="st0" d="M318.8,30.1c-0.3,0.1-0.9,0.2-1.7,0.2c-2,0-3.3-1.1-3.3-2.8c0-1.8,1.5-2.9,3.4-2.9c0.8,0,1.3,0.1,1.6,0.2
					l-0.3,0.8c-0.3-0.1-0.7-0.2-1.3-0.2c-1.3,0-2.3,0.7-2.3,2c0,1.2,0.8,2,2.3,2c0.5,0,1-0.1,1.3-0.2L318.8,30.1z"/>
				<path class="st0" d="M320.4,28.6c0,0.7,0.7,1,1.4,1c0.5,0,0.9-0.1,1.3-0.2l0.2,0.7c-0.4,0.1-1,0.2-1.6,0.2c-1.5,0-2.4-0.8-2.4-2
					c0-1.1,0.8-2.1,2.3-2.1c1.5,0,2,1.1,2,1.9c0,0.2,0,0.3,0,0.4H320.4z M322.4,27.9c0-0.4-0.2-1-1-1c-0.7,0-1,0.6-1.1,1H322.4z"/>
				<path class="st0" d="M324.3,27.5c0-0.5,0-0.8,0-1.2h1l0.1,0.6h0c0.2-0.3,0.7-0.7,1.5-0.7c0.8,0,1.7,0.4,1.7,1.7v2.4h-1.2v-2.2
					c0-0.6-0.2-1-0.9-1c-0.5,0-0.8,0.3-0.9,0.6c0,0.1,0,0.2,0,0.3v2.3h-1.2V27.5z"/>
				<path class="st0" d="M330.9,25.2v1.1h1.1v0.7h-1.1v1.8c0,0.5,0.2,0.7,0.6,0.7c0.2,0,0.4,0,0.5-0.1l0,0.8
					c-0.2,0.1-0.5,0.1-0.9,0.1c-0.4,0-0.8-0.1-1-0.3c-0.2-0.2-0.4-0.6-0.4-1.1v-1.9h-0.7v-0.7h0.7v-0.9L330.9,25.2z"/>
				<path class="st0" d="M333.5,28.6c0,0.7,0.7,1,1.4,1c0.5,0,0.9-0.1,1.3-0.2l0.2,0.7c-0.4,0.1-1,0.2-1.6,0.2c-1.5,0-2.4-0.8-2.4-2
					c0-1.1,0.8-2.1,2.3-2.1c1.5,0,2,1.1,2,1.9c0,0.2,0,0.3,0,0.4H333.5z M335.6,27.9c0-0.4-0.2-1-1-1c-0.7,0-1,0.6-1.1,1H335.6z"/>
				<path class="st0" d="M337.5,27.6c0-0.5,0-0.9,0-1.3h1l0,0.8h0c0.2-0.6,0.8-0.8,1.3-0.8c0.1,0,0.2,0,0.3,0v0.9
					c-0.1,0-0.2,0-0.3,0c-0.6,0-0.9,0.3-1.1,0.8c0,0.1,0,0.2,0,0.3v2.1h-1.2V27.6z"/>
			</g>
		</g>
		<g>
			<g>
				<path class="st0" d="M119.9,8.4c0.2,0,0.5-0.1,0.5-0.6c0-0.4-0.4-0.6-0.5-0.6h-1.5V3.8h-2.2v3.5H114v1.1h2.1v4.9
					c-0.3,0.1-2.4,1.2-2.4,1.2v1.9c0,0,2-1.1,2.4-1.3v4.3c0,0.7-0.1,0.6-0.8,0.6H115c-0.2,0-0.5,0.1-0.5,0.6c0,0.4,0.4,0.6,0.5,0.6
					h1.6c1.2,0,1.7-0.4,1.7-1.6v-5.8c0.5-0.3,1.3-0.8,1.8-1.2c0.2-0.1,0.2-0.2,0.2-0.4c0-0.3-0.2-0.5-0.4-0.5c-0.1,0-0.2,0-0.3,0.1
					c-0.2,0.1-0.9,0.4-1.3,0.6V8.4H119.9z"/>
				<path class="st0" d="M130.9,20.1c-1.3-0.5-2.4-0.9-3.5-2.3c2.4-2.7,3.2-5.8,3.2-6.1c0-0.6-0.3-1.2-1.2-1.2h-2.5V7.3h3.5
					c0.2,0,0.5-0.1,0.5-0.6c0-0.4-0.4-0.6-0.5-0.6h-3.5V3.8h-2.2v2.4h-4.3v1.1h4.3v3.2h-3.8v1.1h6.9c0.3,0,0.4,0.1,0.4,0.3
					c0,1-1.2,3.2-2,4.4c-0.9-1.3-1.6-3.2-1.9-4c-0.5,0-2.3,0-2.3,0s0.5,2.7,3.1,5.5c-1.4,1.4-2.7,1.8-4.1,2.2
					c-0.1,0-0.4,0.2-0.4,0.5c0,0.3,0.2,0.5,0.5,0.5c0.1,0,2.5,0,5.3-2.2c2.4,2,4.4,2.1,4.6,2.1c0.3,0,0.5-0.3,0.5-0.5
					C131.3,20.3,131.1,20.2,130.9,20.1z"/>
			</g>
			<g>
				<path class="st0" d="M170.2,10.6c0.2,0,0.5-0.1,0.5-0.6c0-0.4-0.4-0.6-0.5-0.6h-1.1c0,0-0.1,0-0.1,0H163V8.7h-2l0,0.8h-5.8
					c0,0-0.1,0-0.1,0h-1.8v1.1h7.6V12h-6.1v3.8h2.2v-2.9h3.1c-1,2.8-3.1,5-6.2,6.7c-0.2,0.1-0.4,0.2-0.4,0.5c0,0.3,0.2,0.5,0.4,0.5
					c0.1,0,4.2-1.1,6.9-5l0,4.1c0,0.3,0.1,1.2,1,1.2c0.9,0,1-0.9,1-1.2v-0.4c0-0.1,0-0.2,0-0.2v-3.5c3,4.3,6.7,5,6.9,5
					c0.2,0,0.4-0.2,0.4-0.5c0-0.3-0.2-0.4-0.4-0.5c-3.5-1.8-5.5-4.3-6.2-6.7h2.4c0.7,0,0.8,0.2,0.8,0.8v0.5c0,0.4-0.2,0.6-0.5,0.6
					c-0.3,0-0.4,0.1-0.4,0.5c0,0.4,0.4,0.5,0.5,0.5h0.9c1.1,0,1.7-0.4,1.7-1.6v-0.6c0-1.1-0.4-1.6-1.7-1.6H163v-1.4H170.2z"/>
				<path class="st0" d="M153.7,8.9c0.3,0,1.6-0.8,3.1-2.4h0.8c0.4,0.5,0.7,1.7,0.7,1.7s1.6,0,2,0c-0.3-0.7-0.8-1.4-1.1-1.7h2
					c0.1,0,0.5-0.1,0.5-0.6c0-0.4-0.4-0.5-0.5-0.5h-0.8h-3c0.2-0.3,0.8-1.9,0.8-1.9s-1,0-1.6,0c-0.6,0-0.6,0-0.9,0
					c-0.3,1-0.9,3.1-2.2,4.5c-0.2,0.2-0.3,0.3-0.3,0.4C153.3,8.7,153.5,8.9,153.7,8.9z"/>
				<path class="st0" d="M161.3,7.9c0,0.2,0.2,0.5,0.4,0.5c0.3,0,1.1-0.4,2.6-1.9h0.8c0.4,0.5,0.7,1.7,0.7,1.7s1.6,0,2,0
					c-0.2-0.7-0.8-1.4-1.1-1.7h3.3c0.1,0,0.5-0.1,0.5-0.6c0-0.4-0.4-0.5-0.5-0.5h-2.1h-3c0.2-0.3,0.8-1.9,0.8-1.9s-1,0-1.6,0
					c-0.6,0-0.6,0-0.9,0c0,0.4-0.4,2.6-1.8,4C161.4,7.7,161.3,7.8,161.3,7.9z"/>
			</g>
			<g>
				<path class="st0" d="M231.5,4.6c0.5,0.3,1.3,0.6,2.1,1.6c0.7,0,1.6,0,2.1,0c-0.2-0.7-2.1-2.2-4-2.4c-0.2,0-0.4,0.2-0.4,0.5
					C231.2,4.4,231.3,4.5,231.5,4.6z"/>
				<path class="st0" d="M247.4,9.7c-3.4-1.2-4.3-2.9-4.7-4h1.8c0.2,0,0.2,0.1,0.2,0.2c0,0.2-0.5,0.9-0.5,1.1c0,0.3,0.2,0.4,0.4,0.4
					c0.3,0,2.3-1.4,2.3-2.1c0-0.4-0.3-0.7-0.9-0.7H240c0.1-0.1,0.5-0.8,0.5-0.9c-0.9,0-1.7,0-2.3,0c-0.4,1.3-0.8,2-1.5,2.9
					c-0.2,0.2-0.2,0.3-0.2,0.4c0,0.3,0.2,0.5,0.4,0.5c0.3,0,1.4-0.8,2.3-1.8h1.3c-0.5,1.6-1.6,2.6-3.6,3.4c-0.2,0.1-0.4,0.2-0.4,0.5
					c0,0.2,0.2,0.4,0.4,0.5h0.1c0.3-0.1,2.9-0.6,4.6-2.5c2.1,2.3,5.6,3.2,5.9,3.2c0.3,0,0.4-0.2,0.4-0.5
					C247.8,9.8,247.6,9.8,247.4,9.7z"/>
				<path class="st0" d="M245.5,20.1c-0.1,0-0.1,0-0.2,0c-0.9-0.2-1.8-0.6-2.3-1h0.4c1.3,0,1.8-0.5,1.8-1.6v-5.5
					c0-1.1-0.6-1.6-1.8-1.6h-9.6c1.1-1,1.7-2.4,1.7-3.1c0-0.4-0.5-0.6-0.8-0.2c-0.1,0.2-0.2,0.3-0.5,0.6c-0.9,1.3-2.7,2.6-4.5,3.3
					c1.2,0,2.4,0,3,0v6.5c0,1.1,0.5,1.6,1.8,1.6h0.5c-0.5,0.4-1.4,0.8-2.3,1c-0.1,0-0.1,0-0.2,0c-0.4,0.1-0.9,0.2-0.9,0.5
					c0,0.3,0.2,0.5,0.6,0.5h0h0c1.3,0,2.5-0.3,3.3-0.6c1.1-0.4,1.7-1,2-1.5h2.5c0.3,0.4,0.9,1,2,1.5c0.8,0.3,2,0.6,3.3,0.6
					c0,0,0,0,0,0h0c0.3,0,0.6-0.2,0.6-0.5C246.4,20.2,246,20.2,245.5,20.1z M235.2,11.4h7.4c0.4,0,0.5,0.1,0.5,0.1
					c0.1,0.1,0.1,0.1,0.1,0.4v1h-7.9V11.4z M235.2,13.9h7.9v1.5h-7.9V13.9z M242.5,18h-6.8c-0.5,0-0.6-0.1-0.6-0.5v-1h7.9v0.9
					C243.1,17.8,243.1,18,242.5,18z"/>
			</g>
			<g>
				<path class="st0" d="M266.6,19.8c-0.3,0-0.5,0-0.6,0c0,0,0,0-0.1,0h0c-0.5,0-0.3-0.6-0.3-1c0-0.3,0-12.9,0-13.2
					c0-0.6-0.3-1.5-1.7-1.5h-7.1c0,0,0,0.1,0,0.5c0,0.4,0,0.5,0,0.5h2.4v3.2c0,0.9,0,2-0.1,2.9c-0.9,0.2-1.3,0.3-2.3,0.5
					c0,0.7,0,2.1,0,2.1s1.6-0.5,2.2-0.9c-0.1,2.1-0.3,5-2,7.1c-0.5,0.6,0.1,1.1,0.4,0.9c0.2-0.1,0.3-0.1,0.4-0.2
					c3.3-3,3.1-6.5,3.3-8.6c0.4-0.2,1.3-0.6,1.6-0.8c0.1-0.1,0.3-0.2,0.3-0.4c0-0.3-0.2-0.5-0.4-0.5c-0.1,0-0.9,0.3-1.3,0.4
					c0.1-0.9,0.1-1.6,0.1-2.2V5.2h1.4c0.4,0,0.5,0.2,0.5,0.7c0,0.2,0,11.1,0,12.1c0,1-0.2,2.9,2.1,2.9c0.8,0,1,0,1,0
					c0,0,0.1,0,0.1,0c0.4,0,0.9,0,0.9-0.5C267.4,19.8,267,19.8,266.6,19.8z"/>
				<path class="st0" d="M256,4.9c0-0.4-0.3-0.5-0.5-0.5h-5.2v1h5.2C255.6,5.4,256,5.3,256,4.9z"/>
				<path class="st0" d="M256.2,6.9h-6.6v1h6.6c0.1,0,0.5-0.1,0.5-0.5C256.7,7.1,256.3,6.9,256.2,6.9z"/>
				<path class="st0" d="M256,10.1c0-0.4-0.3-0.5-0.5-0.5h-5.2v1h5.2C255.6,10.6,256,10.5,256,10.1z"/>
				<path class="st0" d="M250.3,13.3h5.2c0.1,0,0.5-0.1,0.5-0.5c0-0.4-0.3-0.5-0.5-0.5h-5.2V13.3z"/>
				<path class="st0" d="M254.8,14.9h-4.6v4.3c0,0.9,0.3,1.5,1.6,1.5h3c1.1,0,1.6-0.4,1.6-1.5v-2.8C256.4,15.4,256,14.9,254.8,14.9z
					 M254.4,19c0,0.6-0.1,0.8-0.7,0.8H253c-0.6,0-0.7-0.2-0.7-0.8v-3.2h1.4c0.6,0,0.7,0.2,0.7,0.8V19z"/>
			</g>
			<g>
				<path class="st0" d="M142.8,16.7c-0.1-0.1-0.3-0.3-0.8-0.1c-0.2,0.1-0.9,0.4-2,0.7v-5.6h1.7c0.2,0,0.5-0.1,0.5-0.6
					c0-0.4-0.4-0.6-0.5-0.6H140V5.6h2c0.2,0,0.5-0.1,0.5-0.6c0-0.4-0.4-0.6-0.5-0.6h-0.9h-5.4h-1.6v1.1h3.7V18
					c-0.4,0.1-0.8,0.2-1.2,0.3V9.5h-1.7v9.3c-0.4,0.1-0.6,0.2-1,0.2v2c0,0,4.7-1.3,8.7-3.7C142.9,17.1,142.9,16.8,142.8,16.7z"/>
				<path class="st0" d="M151.3,19.9c-0.2-0.2-2-1-3.5-3.3c1.3-1.9,2.3-4.5,2.3-8.3h0.7c0.2,0,0.5-0.1,0.5-0.6
					c0-0.4-0.4-0.6-0.5-0.6h-5.5c0.4-1.1,1-2.3,1-3.4c-0.6,0-1.9,0-2.3,0c-0.1,1.5-0.2,3.7-1.1,5.6c0,0.1-0.1,0.2-0.1,0.4
					c0,0.2,0.2,0.4,0.4,0.4c0.4,0,0.8-0.4,1.5-2h3c0.1,0.8,0.2,3.6-1.1,6.4c-0.5-1.1-0.9-2.3-1.1-3.8h-2c0,0,0.2,2.6,2.1,5.5
					c-1.1,1.6-2.8,2.7-5.3,3.7c-0.4,0.2-0.3,0.5-0.1,0.6c0.1,0.1,0.3,0.2,0.9,0c0.4-0.1,3.2-0.4,5.6-2.9c1,1.2,2.4,2,4.2,3
					c0.4,0.2,0.6,0,0.7-0.2C151.7,20.4,151.7,20.2,151.3,19.9z"/>
			</g>
			<g>
				<path class="st0" d="M110.8,13.9h-1.3l0-10.2h-2.2l0,10.2h-5.8v1.1h5.8l0,4.7c0,0.4,0.1,1.3,1.1,1.3c1,0,1.1-1,1.1-1.3l0-4.7
					h1.3c0.2,0,0.5-0.1,0.5-0.6C111.3,14.1,111,13.9,110.8,13.9z"/>
				<path class="st0" d="M100.5,8.3h-1.8V5.6c0.9-0.4,1.7-1,2.2-1.8c0,0-2,0-2.8,0c-0.9,1-2.2,1.8-4.1,2.1c-0.4,0-0.5,0.3-0.4,0.5
					c0,0.2,0.2,0.4,0.6,0.4c0.5,0,1.2-0.1,2.2-0.3v1.9H94v1.1h2.4c-0.4,3.1-1.6,5.6-2.8,7.2c-0.1,0.2-0.2,0.3-0.2,0.4
					c0,0.3,0.2,0.5,0.4,0.5c0.3,0,1.4-1.3,2.7-3.5v5.8c0,0.4,0.1,1.3,1.1,1.3c1,0,1.1-1,1.1-1.3V13c0.3,0.5,1,1.7,1.5,1.7
					c0.2,0,0.4-0.2,0.4-0.5c0-0.1-0.1-0.3-0.2-0.4c-1.2-2.1-1.5-3.1-1.6-4.5h1.7c0.1,0,0.5-0.1,0.5-0.6C101,8.4,100.6,8.3,100.5,8.3
					z"/>
				<path class="st0" d="M104.1,7.3L104.1,7.3c0,0.1,1.8,0.1,2.2,0.1c-0.1-0.8-1.1-2.1-2.1-2.7c-0.3-0.1-0.7-0.1-0.8,0.1
					c-0.1,0.1-0.1,0.3-0.1,0.5C103.3,5.6,104.1,6.3,104.1,7.3z"/>
				<path class="st0" d="M102.7,9.8c0.6,0.7,1.3,1.5,1.4,2.3c0.3,0,2,0,2.3,0c-0.1-1.3-1.9-3.1-2.9-3.4c-0.4-0.1-0.7-0.1-0.8,0.1
					c-0.1,0.1-0.1,0.3-0.1,0.5C102.5,9.4,102.4,9.5,102.7,9.8z"/>
			</g>
			<g>
				<path class="st0" d="M228.2,15.2h-0.7V5.6c0-0.9-0.7-1.5-1.5-1.5h-3.2V5h1.8c0.4,0,0.6,0.2,0.6,0.6v1.9h-2.1v1.1h2.1v2.6h-2.1
					v1.1h2.1v2.9h-3.1v-5.1c0-0.9-0.6-1.4-1.4-1.4h-0.6c-0.5,0-0.5-0.4-0.5-0.6V7.2h2.1c0.1,0,0.5-0.1,0.5-0.6
					c0-0.4-0.4-0.5-0.5-0.5h-2.1v-2h-1.8v4.4c0,0.5,0.3,1.3,1.4,1.3h0.6c0.4,0,0.5,0.2,0.5,0.6v5h-1v-4.7h-1.5v4.7h-3.5v-2.9h1.9
					c0.1,0,0.5-0.1,0.5-0.6c0-0.4-0.4-0.5-0.5-0.5h-1.9V8.7h1.9c0.1,0,0.5-0.1,0.5-0.6c0-0.4-0.4-0.6-0.5-0.6h-1.9V5.6
					c0-0.4,0.2-0.6,0.6-0.6h1.8V4.1h-3.2c-0.8,0-1.5,0.6-1.5,1.5v9.7h-1.1v1.1h17.3c0.2,0,0.5-0.1,0.5-0.6
					C228.7,15.4,228.4,15.2,228.2,15.2z"/>
				<path class="st0" d="M211.9,20.2c-0.2,0.1-0.4,0.2-0.4,0.5c0,0.3,0.3,0.4,0.6,0.4c3.3-0.4,5.9-3.1,6.1-4c-0.6,0-2.2,0-2.6,0
					C214.9,18.8,213.5,19.5,211.9,20.2z"/>
				<path class="st0" d="M227.5,20.2c-1.7-0.9-3.1-1.9-3.7-3.1c-0.8,0-2,0-2.7,0c0.8,2.1,4.9,4,6.2,4c0.3,0,0.4-0.2,0.4-0.5
					C227.8,20.5,227.7,20.3,227.5,20.2z"/>
			</g>
			<g>
				<path class="st0" d="M194.6,6.2h2.8c-0.1,0.8-0.5,1.7-1,2.4c-0.4,0.6-0.9,1.1-1.5,1.4c-0.6,0.3-0.8,0.4-0.8,0.7
					c0,0.3,0.4,0.3,0.5,0.3c0.8,0,1.8-0.4,2.8-1.2c1.3-1,1.8-2.6,2.1-3.5h2.3v3.2c0,0.8,0.2,1.5,1.8,1.5h3.1c0.6,0,0.7-0.4,0.7-0.4
					c0-0.2,0-0.3-0.1-0.5c-0.1-0.1-0.4-0.2-0.7-0.2h-2.1c-0.6,0-0.6-0.1-0.6-0.6V6.2h2.1c0.6,0,0.7,0.1,0.7,0.7v0.9
					c0,0-0.1,1.1,0.8,1.3c0.1,0.1,0.3,0.1,0.4,0.1c0.5,0,1.2-0.2,1.2-1.2V7c0-1.6-1.1-1.8-2.1-1.8h-5V3.5h-2.3v1.7h-7.1v4h2.3
					C194.6,9.1,194.6,6.4,194.6,6.2z"/>
				<path class="st0" d="M207.9,19.7h-1.4c-0.6,0-0.7-0.1-0.7-0.7c0,0,0-4.4,0-4.7c0-0.2-0.1-0.6-0.4-0.9c-0.3-0.3-0.7-0.4-1.3-0.4
					h-3.8c0.2-0.9,0.2-1.7,0.3-2.4c0,0-1.4,0-2.4,0c0,0.8-0.1,1.6-0.2,2.4h-4.6v1.1h4.4c-0.3,1-0.7,2-1.2,2.8
					c-0.9,1.2-2,2.2-3.5,2.8c-0.2,0.1-0.7,0.2-0.7,0.7c0,0.2,0.2,0.5,0.6,0.5c0.4,0,2.8-0.6,5-2.9c1.1-1.1,1.7-2.5,2.1-3.8h3.2
					c0.2,0,0.3,0.1,0.4,0.3v4.5c0,1.7,1.1,1.9,2.1,1.9h2.3c0.3,0,0.7-0.2,0.7-0.6C208.6,20.1,208.5,19.7,207.9,19.7z"/>
			</g>
			<g>
				<path class="st0" d="M189.6,10.6h-1V5.4h0.7c0.4,0,0.7-0.2,0.7-0.6c0-0.4-0.2-0.6-0.7-0.6H181v1.1h1.2v5.3h-1.6v1.1h1.6
					c0,2.1-0.1,3.7-0.5,5c-0.3,1-0.7,1.9-1.4,2.6c-0.5,0.5-0.6,0.6-0.7,0.9c0,0.3,0.2,0.6,0.5,0.6c0.3,0,0.6-0.2,1.1-0.5
					c0.5-0.4,1.3-1.2,1.9-2.2c0.7-1.1,1.2-2.6,1.3-6.4h1.9v7.8c0,1.1,0.6,1.3,1.1,1.3c0.5,0,1.1-0.2,1.1-1.3v-7.8h1
					c0.4,0,0.7-0.2,0.7-0.6C190.2,10.8,189.9,10.6,189.6,10.6z M186.3,10.6h-1.9V5.4h1.9V10.6z"/>
				<path class="st0" d="M180,17.7v-6.2c0-1.1-0.5-1.6-1.8-1.6h-1.7c0.4-1.1,0.9-3,1.1-4.5l2.1,0c0.4,0,0.7-0.2,0.7-0.6
					c0-0.4-0.2-0.6-0.7-0.6h-6.4v1.1h1.7c-0.1,4.5-1.3,6.9-2.3,9c-0.2,0.3-0.4,0.6-0.3,0.8c0.1,0.2,0.3,0.2,0.5,0.2
					c0.2,0,0.8-0.2,1.7-1.4v3.6c0,1.1,0.5,1.6,1.8,1.6h1.9C179.5,19.3,180,18.8,180,17.7z M178.1,17.6c0,0.5-0.6,0.6-1.1,0.6h0.7
					c-0.5,0-1.1-0.1-1.1-0.6v-6.1c0-0.3,0-0.5,0-0.6h0.4c0.5,0,1.1,0.1,1.1,0.6V17.6z"/>
			</g>
			<g>
				<path class="st0" d="M299.7,19.8h-5.2c-0.7,0-0.9-0.2-0.9-0.9V7.8h-2V19c0,1.4,0.6,1.9,1.9,1.9h6.2c0.8,0,1.3,0,1.3-0.6
					C301,19.7,300.4,19.8,299.7,19.8z"/>
				<path class="st0" d="M289.4,9.8c-0.3,0-0.5,0.3-0.6,0.8c-0.1,1-0.3,2.1-0.8,3.5c-0.5,1.4-1.3,2.9-1.8,3.8c0.9,0,1.8,0,2.5,0
					c0.2-0.4,0.7-2.1,1-3.4c0.3-1.3,0.5-3.2,0.4-3.9C290,9.9,289.7,9.8,289.4,9.8z"/>
				<path class="st0" d="M302.4,11.3c-0.9-1.2-1.6-2-2.1-2c-0.3-0.1-0.6,0.1-0.6,0.5c0,0.3,0.3,0.6,0.5,1c0.8,1.5,1.6,3.3,1.7,5.5
					c1.3,0,1.3,0,2.5,0C304.3,14.6,303.4,12.8,302.4,11.3z"/>
				<path class="st0" d="M292.3,4.7c2,0.7,3.1,2.4,3.7,3.3c0.6,0,2.3,0,2.7,0c-0.4-1.1-2.8-3.9-6.3-4.2c-0.2,0-0.4,0.2-0.4,0.5
					C291.9,4.5,292.1,4.6,292.3,4.7z"/>
			</g>
			<path class="st0" d="M282.9,6.6h-4.7V3.8h-2.2v2.8h-4.7c-1.3,0-2.2,0-2.2,0v6.6c0,1.6,0.7,2.1,2.2,2.1h4.7v4.2
				c0,0.5,0.1,1.4,1.1,1.4c1,0,1.1-0.8,1.1-1.4v-4.2h4.7c1.3,0,2.2-0.3,2.2-2.1V8.7C285,7.1,284.3,6.6,282.9,6.6z M275.9,14.4h-3.7
				c-0.6,0-1-0.2-1-1V7.5h4.6V14.4z M282.8,13.4c0,0.9-0.4,1-1,1h-3.7V7.5h3.7c0.8,0,1,0.3,1,1V13.4z"/>
		</g>
	</g>
</g>
</svg>
