<?xml version="1.0" encoding="UTF-8"?>
<!-- Generator: Adobe Illustrator 16.0.3, SVG Export Plug-In . SVG Version: 6.00 Build 0)  -->
<!DOCTYPE svg PUBLIC "-//W3C//DTD SVG 1.1//EN" "http://www.w3.org/Graphics/SVG/1.1/DTD/svg11.dtd">
<svg version="1.1" id="圖層_1" xmlns="http://www.w3.org/2000/svg" xmlns:xlink="http://www.w3.org/1999/xlink" x="0px" y="0px" width="709.465px" height="100px" viewBox="0 50 709.465 100" enable-background="new 0 50 709.465 100" xml:space="preserve">
<g id="preline" display="none">
</g>
<g id="bg">
</g>
<g id="bg01" display="none">
</g>
<g id="bg01_拷貝">
</g>
<g id="inforBG" display="none">
</g>
<g id="inforBG-1" display="none">
</g>
<g id="inforBG-2">
</g>
<g id="inforBG-3" display="none">
</g>
<g id="newsBG" display="none">
</g>
<g id="newsBG-1">
</g>
<g id="newNav">
</g>
<g id="moreNews">
</g>
<g id="inforBG01">
</g>
<g id="lines">
</g>
<g id="newsPink">
</g>
<g id="moreNCTU">
</g>
<g id="nctu">
</g>
<g id="infor" display="none">
</g>
<g id="infor-1" display="none">
</g>
<g id="infor-2">
</g>
<g id="infor-3" display="none">
</g>
<g id="pics">
</g>
<g id="menu">
</g>
<g id="blacklayer">
</g>
<g id="textOnpics">
</g>
<g id="dots_x2F_arrow">
</g>
<g id="headerContent">
	<g>
		<g>
			<g>
				<path fill="#4D4D4D" d="M108.074,60.056c0,0,0.021,0.307,0.056,0.893c0.039,0.581,0.112,1.447,0.175,2.536      c0.131,2.189,0.301,5.301,0.439,9.044c0.073,1.876,0.15,3.898,0.2,6.055c0.057,2.139,0.128,4.4,0.157,6.741      c0.031,2.341,0.098,4.759,0.1,7.218c0.015,2.455,0.031,4.953,0.045,7.455c-0.015,2.492-0.028,4.982-0.039,7.445      c-0.006,2.459-0.073,4.877-0.104,7.22c-0.032,2.344-0.099,4.603-0.16,6.752c-0.05,2.14-0.126,4.172-0.197,6.043      c-0.144,3.741-0.313,6.864-0.442,9.056c-0.063,1.09-0.136,1.942-0.175,2.536c-0.035,0.58-0.057,0.894-0.057,0.894      s-0.027-0.312-0.069-0.894c-0.037-0.594-0.111-1.446-0.167-2.536c-0.13-2.189-0.304-5.314-0.443-9.056      c-0.072-1.871-0.149-3.903-0.202-6.043c-0.06-2.149-0.128-4.408-0.155-6.752c-0.031-2.343-0.104-4.761-0.104-7.22      c-0.015-2.463-0.023-4.953-0.036-7.445c0.011-2.502,0.021-5,0.039-7.455c0.006-2.459,0.068-4.877,0.102-7.218      c0.026-2.341,0.101-4.603,0.16-6.741c0.047-2.156,0.131-4.179,0.201-6.055c0.136-3.743,0.31-6.854,0.438-9.044      c0.059-1.089,0.131-1.955,0.17-2.536C108.046,60.362,108.074,60.056,108.074,60.056z"/>
				<path fill="#4D4D4D" d="M128.548,138.174c1.026-3.082,2.064-6.166,3.121-9.236l3.187-9.205l3.243-9.199l3.28-9.172      c1.099-3.055,2.195-6.11,3.316-9.161l3.345-9.155l6.784-18.259l1.104-2.967l1.1,2.967l6.784,18.259l3.343,9.155      c1.123,3.05,2.224,6.105,3.319,9.161l3.282,9.172l3.24,9.199l3.189,9.205c1.056,3.07,2.088,6.154,3.109,9.236      c-1.253-2.998-2.496-6.004-3.727-9.01l-3.655-9.035l-3.604-9.049l-3.56-9.078c-1.188-3.021-2.366-6.043-3.526-9.076l-3.5-9.094      L154.823,65.6h2.203l-6.907,18.221l-3.497,9.105c-1.162,3.032-2.344,6.054-3.524,9.076l-3.563,9.078l-3.604,9.049l-3.653,9.035      C131.05,132.17,129.809,135.176,128.548,138.174z"/>
				<g>
					<path fill="#4D4D4D" d="M78.465,100.149c0,18.314-14.857,33.173-33.186,33.173c-18.321,0-33.179-14.858-33.179-33.173       c0-18.332,14.856-33.18,33.179-33.18C63.607,66.97,78.465,81.817,78.465,100.149z"/>
					<g>
						<path fill="#4D4D4D" d="M8.756,87.229c0,0,0.063-0.195,0.195-0.581c0.146-0.374,0.313-0.953,0.606-1.68        c0.147-0.369,0.314-0.771,0.493-1.226c0.179-0.45,0.42-0.92,0.654-1.44c0.229-0.519,0.519-1.056,0.825-1.635        c0.302-0.582,0.665-1.18,1.045-1.805c1.524-2.521,3.714-5.396,6.73-8.217c3.007-2.805,6.915-5.497,11.634-7.441        c4.709-1.949,10.25-3.16,16.138-2.971c2.938,0.094,5.946,0.509,8.939,1.296c0.751,0.179,1.488,0.437,2.237,0.659l0.282,0.084        l0.064,0.027l0.097,0.021l0.131,0.051l0.54,0.207c0.356,0.129,0.72,0.268,1.083,0.391c0.728,0.314,1.479,0.621,2.204,0.961        c0.712,0.357,1.451,0.671,2.147,1.084c2.817,1.547,5.537,3.413,7.968,5.687l0.904,0.843c0.296,0.291,0.585,0.598,0.875,0.895        c0.595,0.592,1.126,1.239,1.687,1.865c1.068,1.285,2.092,2.637,2.997,4.071c3.691,5.677,5.918,12.435,6.339,19.317        c0.395,6.893-1.063,13.852-4.057,19.917l-0.566,1.14l-0.618,1.11c-0.396,0.742-0.872,1.441-1.313,2.15        c-0.945,1.391-1.939,2.732-3.031,3.977c-1.068,1.273-2.254,2.427-3.449,3.547c-1.23,1.072-2.479,2.117-3.811,3.021        c-2.631,1.859-5.431,3.375-8.321,4.48c-2.883,1.123-5.819,1.914-8.73,2.322c-2.907,0.418-5.78,0.516-8.528,0.317        c-2.754-0.207-5.384-0.704-7.839-1.392c-4.919-1.395-9.106-3.598-12.42-6.055c-0.847-0.594-1.604-1.24-2.351-1.85        c-0.718-0.637-1.416-1.246-2.035-1.883c-1.278-1.24-2.333-2.496-3.254-3.643c-0.439-0.586-0.878-1.135-1.242-1.672        c-0.362-0.548-0.72-1.043-1.017-1.535c-0.297-0.49-0.569-0.943-0.815-1.353c-0.229-0.426-0.441-0.81-0.621-1.162        c-0.39-0.683-0.621-1.243-0.804-1.603c-0.176-0.368-0.267-0.561-0.267-0.561s0.1,0.189,0.294,0.549        c0.208,0.353,0.463,0.887,0.881,1.553c0.784,1.353,2.074,3.263,3.945,5.49c0.955,1.105,2.038,2.291,3.346,3.463        c0.631,0.599,1.346,1.168,2.072,1.767c0.754,0.563,1.521,1.168,2.368,1.713c3.326,2.274,7.493,4.248,12.268,5.47        c4.774,1.213,10.198,1.561,15.745,0.647c2.776-0.451,5.563-1.263,8.282-2.39c1.363-0.549,2.693-1.227,4.018-1.924        c1.3-0.752,2.604-1.535,3.825-2.439c4.972-3.551,9.16-8.508,11.948-14.256c2.804-5.748,4.14-12.311,3.749-18.794        c-0.373-6.469-2.438-12.848-5.901-18.221c-3.427-5.407-8.176-9.831-13.518-12.779c-0.651-0.393-1.351-0.699-2.021-1.051        c-0.681-0.335-1.356-0.613-2.039-0.916c-0.359-0.146-0.724-0.279-1.083-0.419l-0.531-0.202l-0.134-0.049        c-0.042-0.021-0.018-0.012-0.042-0.021l-0.069-0.02l-0.263-0.088c-0.71-0.223-1.401-0.491-2.118-0.67        c-2.832-0.799-5.691-1.263-8.499-1.406c-5.617-0.277-10.967,0.729-15.569,2.477c-2.307,0.871-4.423,1.943-6.354,3.1        c-1.935,1.162-3.676,2.418-5.198,3.744c-3.058,2.624-5.325,5.379-6.923,7.802c-1.609,2.436-2.653,4.481-3.283,5.909        c-0.337,0.711-0.537,1.279-0.694,1.648C8.832,87.045,8.756,87.229,8.756,87.229z"/>
					</g>
				</g>
			</g>
		</g>
		<g>
			<g>
				<path fill="#4D4D4D" d="M226.378,122.689c0,1.754-0.207,3.334-0.62,4.742c-0.414,1.406-1.028,2.604-1.851,3.594      c-0.821,0.988-1.853,1.748-3.093,2.277c-1.239,0.531-2.688,0.799-4.34,0.799c-1.631,0-3.042-0.244-4.23-0.729      c-1.189-0.485-2.175-1.19-2.951-2.119c-0.774-0.929-1.354-2.078-1.732-3.453c-0.379-1.373-0.568-2.954-0.568-4.739      c0-1.711,0.207-3.265,0.62-4.658c0.413-1.396,1.032-2.584,1.859-3.563c0.824-0.978,1.859-1.729,3.099-2.26      c1.241-0.531,2.688-0.798,4.342-0.798c1.597,0,2.988,0.24,4.171,0.722c1.186,0.479,2.172,1.181,2.959,2.104      c0.788,0.92,1.375,2.063,1.758,3.418C226.185,119.379,226.378,120.936,226.378,122.689z M223.329,122.891      c0-1.229-0.108-2.371-0.327-3.43c-0.218-1.055-0.58-1.971-1.087-2.748c-0.507-0.773-1.188-1.381-2.034-1.816      c-0.848-0.436-1.896-0.651-3.146-0.651c-1.251,0-2.301,0.231-3.146,0.702c-0.846,0.47-1.538,1.095-2.066,1.877      c-0.529,0.783-0.909,1.695-1.139,2.738c-0.229,1.047-0.344,2.146-0.344,3.293c0,1.273,0.105,2.445,0.318,3.521      c0.212,1.073,0.567,1.998,1.07,2.774c0.502,0.773,1.174,1.379,2.016,1.81c0.844,0.431,1.899,0.646,3.173,0.646      c1.261,0,2.32-0.234,3.18-0.701c0.858-0.471,1.553-1.104,2.074-1.904c0.525-0.797,0.898-1.723,1.123-2.771      C223.216,125.174,223.329,124.063,223.329,122.891z"/>
				<path fill="#4D4D4D" d="M253.238,133.361c0,0.091-0.021,0.166-0.065,0.228c-0.043,0.062-0.118,0.115-0.227,0.16      c-0.104,0.045-0.249,0.078-0.427,0.101c-0.178,0.023-0.407,0.032-0.688,0.032c-0.255,0-0.478-0.01-0.661-0.032      c-0.187-0.021-0.33-0.056-0.437-0.101c-0.107-0.045-0.178-0.101-0.218-0.16c-0.038-0.062-0.061-0.137-0.061-0.228v-13.219      h-6.786v13.221c0,0.091-0.022,0.166-0.065,0.228c-0.045,0.062-0.122,0.113-0.229,0.16c-0.104,0.043-0.249,0.076-0.429,0.101      c-0.178,0.021-0.4,0.032-0.669,0.032s-0.491-0.012-0.671-0.032c-0.178-0.021-0.321-0.058-0.427-0.101      c-0.105-0.047-0.183-0.101-0.227-0.16c-0.044-0.062-0.066-0.137-0.066-0.228v-13.221h-6.771v13.221      c0,0.091-0.021,0.166-0.066,0.228c-0.044,0.062-0.119,0.113-0.229,0.16c-0.104,0.043-0.246,0.076-0.426,0.101      c-0.178,0.021-0.4,0.032-0.669,0.032c-0.27,0-0.492-0.012-0.671-0.032c-0.179-0.021-0.322-0.058-0.429-0.101      c-0.104-0.047-0.182-0.101-0.226-0.16c-0.046-0.062-0.068-0.137-0.068-0.228v-13.221h-2.127c-0.179,0-0.313-0.09-0.401-0.27      c-0.091-0.178-0.136-0.469-0.136-0.873c0-0.211,0.013-0.389,0.035-0.535c0.021-0.146,0.056-0.266,0.101-0.359      c0.044-0.096,0.1-0.16,0.166-0.201c0.066-0.039,0.146-0.057,0.235-0.057h2.127v-1.426c0-1.039,0.102-1.932,0.303-2.674      c0.2-0.742,0.503-1.354,0.905-1.836c0.401-0.479,0.901-0.834,1.5-1.063s1.292-0.347,2.084-0.347      c0.493,0,0.926,0.043,1.291,0.127c0.371,0.084,0.641,0.162,0.813,0.233c0.172,0.072,0.294,0.144,0.36,0.209      c0.065,0.068,0.122,0.154,0.168,0.261c0.045,0.106,0.075,0.235,0.093,0.388c0.017,0.149,0.023,0.331,0.023,0.545      c0,0.356-0.028,0.616-0.084,0.778c-0.058,0.16-0.155,0.242-0.302,0.242c-0.09,0-0.192-0.025-0.31-0.076      c-0.117-0.049-0.267-0.104-0.443-0.166c-0.179-0.062-0.383-0.119-0.612-0.168c-0.229-0.052-0.484-0.076-0.765-0.076      c-0.824,0-1.406,0.285-1.74,0.854c-0.336,0.57-0.505,1.48-0.505,2.73v1.459h6.771v-1.627c0-1.039,0.104-1.93,0.31-2.672      c0.207-0.742,0.507-1.355,0.896-1.836c0.392-0.479,0.881-0.834,1.466-1.063c0.587-0.23,1.26-0.345,2.021-0.345      c0.243,0,0.493,0.011,0.744,0.031c0.251,0.022,0.478,0.058,0.671,0.103c0.194,0.045,0.368,0.092,0.521,0.145      c0.15,0.049,0.254,0.104,0.31,0.158c0.057,0.054,0.103,0.113,0.135,0.176c0.035,0.063,0.065,0.137,0.094,0.229      c0.026,0.088,0.047,0.197,0.057,0.334c0.013,0.135,0.02,0.297,0.02,0.484c0,0.357-0.028,0.615-0.083,0.771      c-0.059,0.156-0.155,0.233-0.302,0.233c-0.079,0-0.169-0.021-0.271-0.06c-0.102-0.038-0.221-0.079-0.359-0.127      c-0.139-0.043-0.315-0.088-0.528-0.125c-0.211-0.039-0.47-0.059-0.771-0.059c-0.771,0-1.32,0.283-1.65,0.854      c-0.328,0.57-0.494,1.479-0.494,2.73v1.659h8.696c0.29,0,0.509,0.074,0.654,0.226c0.145,0.149,0.216,0.36,0.216,0.629v14.668      H253.238z M253.542,113.204c0,0.313-0.024,0.573-0.076,0.789c-0.051,0.211-0.139,0.381-0.267,0.508      c-0.129,0.131-0.304,0.224-0.521,0.276c-0.218,0.058-0.494,0.084-0.829,0.084c-0.324,0-0.596-0.026-0.813-0.084      c-0.22-0.055-0.393-0.146-0.521-0.276c-0.127-0.127-0.223-0.297-0.275-0.508c-0.056-0.216-0.083-0.478-0.083-0.789      s0.026-0.572,0.083-0.779c0.055-0.207,0.148-0.379,0.275-0.521c0.128-0.139,0.301-0.233,0.521-0.284      c0.217-0.05,0.487-0.074,0.813-0.074c0.335,0,0.611,0.024,0.829,0.074c0.217,0.051,0.392,0.146,0.521,0.284      c0.128,0.142,0.216,0.313,0.267,0.521C253.517,112.633,253.542,112.893,253.542,113.204z"/>
				<path fill="#4D4D4D" d="M269.174,131.066c0,0.189-0.005,0.354-0.016,0.494c-0.013,0.142-0.03,0.258-0.06,0.353      c-0.028,0.096-0.063,0.18-0.102,0.252c-0.039,0.071-0.129,0.181-0.27,0.315c-0.141,0.144-0.377,0.314-0.711,0.521      c-0.337,0.205-0.712,0.391-1.132,0.553c-0.418,0.16-0.874,0.293-1.366,0.395c-0.49,0.101-0.999,0.15-1.523,0.15      c-1.082,0-2.044-0.178-2.881-0.537c-0.839-0.356-1.539-0.879-2.104-1.565c-0.563-0.688-0.995-1.529-1.291-2.529      c-0.298-1-0.445-2.153-0.445-3.461c0-1.485,0.185-2.762,0.545-3.827c0.363-1.068,0.86-1.941,1.492-2.623      c0.631-0.683,1.375-1.188,2.229-1.519c0.854-0.328,1.778-0.494,2.771-0.494c0.479,0,0.947,0.045,1.398,0.136      c0.452,0.09,0.869,0.207,1.248,0.354c0.38,0.145,0.719,0.311,1.015,0.502c0.297,0.189,0.511,0.352,0.645,0.484      c0.135,0.135,0.227,0.239,0.276,0.317c0.051,0.08,0.094,0.172,0.125,0.274c0.035,0.107,0.059,0.229,0.067,0.361      c0.011,0.135,0.018,0.301,0.018,0.502c0,0.437-0.05,0.74-0.15,0.914s-0.225,0.26-0.369,0.26c-0.167,0-0.359-0.092-0.579-0.274      c-0.217-0.187-0.492-0.39-0.828-0.61c-0.336-0.226-0.74-0.429-1.217-0.613c-0.474-0.187-1.033-0.273-1.685-0.273      c-1.328,0-2.348,0.512-3.057,1.531c-0.708,1.021-1.063,2.506-1.063,4.447c0,0.975,0.092,1.826,0.276,2.559      c0.184,0.73,0.455,1.344,0.812,1.834c0.357,0.49,0.796,0.855,1.314,1.098c0.521,0.24,1.115,0.361,1.785,0.361      c0.637,0,1.195-0.102,1.676-0.305c0.479-0.197,0.896-0.42,1.248-0.66c0.354-0.238,0.648-0.457,0.889-0.652      s0.428-0.295,0.563-0.295c0.078,0,0.146,0.021,0.201,0.068c0.057,0.043,0.104,0.119,0.144,0.227      c0.038,0.104,0.066,0.24,0.084,0.4C269.167,130.65,269.174,130.844,269.174,131.066z"/>
				<path fill="#4D4D4D" d="M285.715,125.169c0,0.437-0.107,0.746-0.327,0.931c-0.221,0.186-0.471,0.274-0.75,0.274h-9.933      c0,0.838,0.083,1.594,0.253,2.262c0.167,0.673,0.447,1.246,0.842,1.729c0.394,0.48,0.903,0.852,1.532,1.104      c0.628,0.26,1.398,0.389,2.309,0.389c0.719,0,1.356-0.061,1.918-0.178c0.563-0.115,1.047-0.248,1.458-0.395      c0.41-0.146,0.745-0.275,1.009-0.393c0.267-0.117,0.466-0.177,0.599-0.177c0.08,0,0.149,0.021,0.212,0.06      s0.106,0.098,0.144,0.176c0.033,0.078,0.059,0.188,0.076,0.326c0.015,0.139,0.023,0.311,0.023,0.51      c0,0.146-0.005,0.271-0.018,0.379c-0.012,0.105-0.024,0.201-0.041,0.285c-0.019,0.082-0.045,0.158-0.085,0.225      c-0.039,0.068-0.087,0.133-0.149,0.193c-0.062,0.063-0.242,0.162-0.544,0.303s-0.693,0.275-1.173,0.41s-1.036,0.254-1.668,0.359      c-0.631,0.106-1.304,0.16-2.021,0.16c-1.239,0-2.324-0.175-3.258-0.521c-0.936-0.349-1.72-0.86-2.354-1.541      c-0.637-0.683-1.118-1.537-1.44-2.565c-0.324-1.025-0.486-2.224-0.486-3.586c0-1.296,0.167-2.459,0.505-3.494      c0.333-1.033,0.816-1.908,1.447-2.631c0.631-0.72,1.395-1.271,2.287-1.658c0.895-0.385,1.894-0.576,2.999-0.576      c1.185,0,2.193,0.188,3.025,0.568c0.832,0.379,1.517,0.891,2.054,1.532c0.535,0.644,0.929,1.396,1.181,2.265      c0.25,0.862,0.377,1.789,0.377,2.772L285.715,125.169L285.715,125.169z M282.933,124.35c0.032-1.453-0.291-2.596-0.97-3.422      c-0.683-0.824-1.688-1.238-3.025-1.238c-0.686,0-1.288,0.129-1.804,0.388c-0.52,0.256-0.952,0.596-1.3,1.021      c-0.35,0.424-0.619,0.918-0.81,1.483c-0.19,0.563-0.297,1.151-0.319,1.769H282.933L282.933,124.35z"/>
				<path fill="#4D4D4D" d="M311.704,125.652c0,1.23-0.16,2.361-0.484,3.396s-0.808,1.925-1.449,2.675      c-0.644,0.745-1.445,1.332-2.413,1.75c-0.967,0.418-2.088,0.629-3.36,0.629c-1.238,0-2.318-0.185-3.242-0.554      c-0.921-0.368-1.688-0.905-2.303-1.608c-0.616-0.703-1.074-1.56-1.373-2.563c-0.304-1.004-0.455-2.146-0.455-3.418      c0-1.229,0.159-2.36,0.479-3.394c0.318-1.033,0.799-1.926,1.441-2.674c0.644-0.748,1.442-1.328,2.403-1.742      s2.083-0.619,3.369-0.619c1.239,0,2.32,0.183,3.243,0.554c0.92,0.366,1.688,0.903,2.304,1.606      c0.613,0.705,1.075,1.56,1.382,2.563C311.552,123.258,311.704,124.393,311.704,125.652z M308.84,125.84      c0-0.816-0.076-1.588-0.229-2.314c-0.151-0.727-0.401-1.358-0.751-1.907c-0.349-0.55-0.821-0.979-1.422-1.3      c-0.594-0.317-1.34-0.479-2.23-0.479c-0.821,0-1.529,0.145-2.121,0.436s-1.079,0.703-1.463,1.23      c-0.384,0.531-0.667,1.16-0.854,1.887c-0.188,0.728-0.278,1.521-0.278,2.381c0,0.826,0.075,1.604,0.229,2.328      c0.15,0.728,0.404,1.359,0.759,1.9c0.356,0.543,0.832,0.973,1.43,1.291s1.342,0.479,2.231,0.479      c0.813,0,1.516-0.146,2.113-0.438c0.597-0.291,1.087-0.697,1.472-1.223c0.382-0.525,0.664-1.15,0.844-1.877      C308.749,127.507,308.84,126.708,308.84,125.84z"/>
				<path fill="#4D4D4D" d="M324.038,112.081c0,0.213-0.013,0.385-0.032,0.512c-0.023,0.13-0.046,0.231-0.075,0.31      s-0.065,0.133-0.11,0.16c-0.044,0.026-0.101,0.041-0.167,0.041c-0.077,0-0.176-0.021-0.293-0.074      c-0.115-0.049-0.26-0.104-0.427-0.168c-0.167-0.062-0.365-0.115-0.594-0.166c-0.23-0.051-0.496-0.074-0.796-0.074      c-0.416,0-0.769,0.064-1.059,0.201c-0.291,0.133-0.522,0.344-0.702,0.625c-0.181,0.285-0.309,0.654-0.387,1.107      c-0.077,0.45-0.118,1.002-0.118,1.649v1.644h3.368c0.09,0,0.166,0.02,0.228,0.057c0.061,0.041,0.117,0.106,0.168,0.201      c0.051,0.098,0.09,0.217,0.117,0.36c0.026,0.146,0.042,0.324,0.042,0.535c0,0.403-0.052,0.694-0.15,0.873      c-0.102,0.181-0.235,0.269-0.403,0.269h-3.368v13.221c0,0.092-0.021,0.166-0.063,0.229c-0.046,0.061-0.122,0.113-0.229,0.16      c-0.104,0.043-0.249,0.076-0.426,0.1c-0.179,0.021-0.404,0.033-0.67,0.033c-0.269,0-0.493-0.012-0.671-0.033      c-0.178-0.021-0.319-0.057-0.428-0.1c-0.105-0.047-0.184-0.102-0.229-0.16c-0.044-0.063-0.064-0.137-0.064-0.229v-13.221h-2.128      c-0.18,0-0.313-0.09-0.402-0.27c-0.089-0.178-0.134-0.469-0.134-0.873c0-0.211,0.011-0.389,0.032-0.535      c0.022-0.146,0.057-0.266,0.102-0.359c0.045-0.095,0.103-0.16,0.169-0.201c0.064-0.039,0.143-0.057,0.233-0.057h2.128v-1.563      c0-1.051,0.098-1.951,0.293-2.705c0.194-0.754,0.494-1.371,0.896-1.852c0.4-0.48,0.905-0.836,1.515-1.064      c0.608-0.229,1.327-0.344,2.154-0.344c0.392,0,0.771,0.037,1.14,0.109c0.37,0.071,0.652,0.149,0.854,0.233      s0.335,0.159,0.402,0.228c0.064,0.065,0.124,0.153,0.166,0.26c0.046,0.104,0.075,0.233,0.094,0.385      C324.03,111.689,324.038,111.868,324.038,112.081z"/>
				<path fill="#4D4D4D" d="M337.21,133.346c0,0.09-0.021,0.168-0.067,0.234c-0.045,0.066-0.125,0.121-0.234,0.158      c-0.11,0.039-0.261,0.074-0.444,0.102c-0.185,0.028-0.416,0.041-0.694,0.041c-0.271,0-0.498-0.014-0.688-0.041      c-0.19-0.025-0.342-0.063-0.453-0.102c-0.111-0.037-0.188-0.092-0.234-0.158c-0.045-0.066-0.066-0.146-0.066-0.234v-20.813      c0-0.09,0.023-0.168,0.074-0.233c0.05-0.067,0.136-0.12,0.253-0.159c0.116-0.037,0.269-0.072,0.451-0.101      c0.188-0.029,0.405-0.043,0.662-0.043c0.278,0,0.51,0.014,0.694,0.043c0.185,0.026,0.333,0.063,0.444,0.101      c0.109,0.039,0.189,0.092,0.234,0.159c0.045,0.065,0.066,0.146,0.066,0.233v20.814h0.002V133.346z"/>
				<path fill="#4D4D4D" d="M355.642,133.361c0,0.091-0.022,0.166-0.066,0.228c-0.045,0.062-0.117,0.115-0.218,0.16      c-0.1,0.045-0.239,0.078-0.42,0.101c-0.179,0.022-0.399,0.032-0.67,0.032c-0.278,0-0.507-0.01-0.688-0.032      c-0.179-0.021-0.317-0.056-0.418-0.101c-0.102-0.045-0.174-0.101-0.219-0.16s-0.066-0.137-0.066-0.228v-8.83      c0-0.86-0.066-1.555-0.201-2.077s-0.328-0.978-0.586-1.356c-0.256-0.38-0.589-0.671-0.997-0.871      c-0.407-0.201-0.879-0.302-1.415-0.302c-0.693,0-1.388,0.244-2.079,0.736c-0.691,0.489-1.419,1.213-2.178,2.159v10.541      c0,0.091-0.023,0.166-0.066,0.228c-0.045,0.062-0.117,0.115-0.219,0.16s-0.24,0.078-0.418,0.101      c-0.179,0.022-0.409,0.032-0.688,0.032c-0.269,0-0.492-0.01-0.671-0.032c-0.178-0.021-0.321-0.056-0.428-0.101      c-0.105-0.045-0.178-0.101-0.216-0.16c-0.04-0.062-0.063-0.137-0.063-0.228v-15.082c0-0.088,0.019-0.164,0.052-0.227      c0.033-0.061,0.101-0.115,0.201-0.166c0.103-0.051,0.229-0.084,0.387-0.102c0.155-0.018,0.363-0.023,0.621-0.023      c0.244,0,0.448,0.008,0.609,0.023c0.162,0.018,0.287,0.051,0.377,0.102c0.087,0.051,0.154,0.105,0.192,0.166      c0.04,0.063,0.061,0.139,0.061,0.227v1.994c0.849-0.949,1.694-1.645,2.539-2.086c0.843-0.44,1.694-0.66,2.557-0.66      c1.003,0,1.851,0.17,2.539,0.511c0.688,0.34,1.242,0.797,1.666,1.366c0.425,0.568,0.729,1.236,0.912,2      c0.187,0.767,0.277,1.687,0.277,2.759L355.642,133.361L355.642,133.361z"/>
				<path fill="#4D4D4D" d="M368.211,132.256c0,0.324-0.022,0.58-0.068,0.771c-0.044,0.188-0.112,0.33-0.201,0.418      c-0.089,0.09-0.223,0.176-0.4,0.252c-0.181,0.078-0.382,0.145-0.61,0.191c-0.229,0.051-0.474,0.092-0.729,0.127      c-0.257,0.032-0.515,0.051-0.771,0.051c-0.782,0-1.454-0.104-2.012-0.312c-0.561-0.207-1.018-0.521-1.374-0.938      c-0.356-0.42-0.616-0.951-0.779-1.592c-0.163-0.643-0.242-1.4-0.242-2.271v-8.811h-2.111c-0.168,0-0.303-0.09-0.402-0.27      c-0.1-0.178-0.15-0.469-0.15-0.873c0-0.211,0.015-0.389,0.042-0.535c0.028-0.146,0.063-0.266,0.107-0.359      c0.045-0.096,0.104-0.16,0.177-0.201c0.073-0.039,0.153-0.057,0.245-0.057h2.093v-3.588c0-0.078,0.021-0.15,0.059-0.219      c0.04-0.064,0.11-0.125,0.22-0.176c0.104-0.053,0.247-0.088,0.428-0.109c0.179-0.021,0.401-0.033,0.669-0.033      c0.278,0,0.508,0.014,0.688,0.033c0.178,0.021,0.318,0.059,0.418,0.109c0.101,0.051,0.173,0.109,0.219,0.176      c0.045,0.066,0.066,0.141,0.066,0.219v3.588h3.869c0.09,0,0.168,0.018,0.234,0.057c0.064,0.041,0.126,0.105,0.177,0.201      c0.051,0.097,0.088,0.215,0.109,0.359c0.021,0.146,0.033,0.324,0.033,0.535c0,0.404-0.052,0.695-0.151,0.873      c-0.104,0.18-0.233,0.27-0.402,0.27h-3.869v8.41c0,1.039,0.151,1.822,0.46,2.355c0.308,0.529,0.855,0.797,1.65,0.797      c0.258,0,0.484-0.025,0.686-0.076c0.203-0.049,0.382-0.104,0.538-0.16c0.157-0.057,0.292-0.107,0.401-0.158      c0.114-0.049,0.214-0.074,0.303-0.074c0.056,0,0.108,0.015,0.157,0.041c0.052,0.027,0.091,0.082,0.118,0.16      s0.055,0.185,0.076,0.316C368.199,131.889,368.211,132.057,368.211,132.256z"/>
				<path fill="#4D4D4D" d="M384.363,125.169c0,0.437-0.108,0.746-0.327,0.931c-0.22,0.186-0.472,0.274-0.749,0.274h-9.932      c0,0.838,0.083,1.594,0.25,2.262c0.166,0.673,0.45,1.246,0.843,1.729c0.395,0.48,0.908,0.852,1.531,1.104      c0.63,0.26,1.4,0.389,2.308,0.389c0.724,0,1.359-0.061,1.922-0.178c0.563-0.115,1.045-0.248,1.456-0.395      c0.41-0.146,0.745-0.275,1.01-0.393c0.267-0.117,0.464-0.177,0.6-0.177c0.082,0,0.148,0.021,0.209,0.06      c0.062,0.039,0.11,0.098,0.146,0.176c0.031,0.078,0.06,0.188,0.076,0.326c0.016,0.138,0.023,0.311,0.023,0.51      c0,0.146-0.007,0.271-0.018,0.379c-0.01,0.105-0.024,0.201-0.042,0.285c-0.019,0.082-0.046,0.158-0.086,0.225      c-0.037,0.068-0.088,0.133-0.149,0.193c-0.061,0.063-0.243,0.162-0.543,0.303c-0.301,0.141-0.694,0.275-1.174,0.41      s-1.035,0.254-1.667,0.359c-0.63,0.106-1.306,0.16-2.021,0.16c-1.237,0-2.325-0.175-3.259-0.521      c-0.932-0.349-1.718-0.86-2.354-1.541c-0.636-0.683-1.115-1.537-1.438-2.565c-0.326-1.025-0.486-2.224-0.486-3.586      c0-1.296,0.168-2.459,0.501-3.494c0.336-1.033,0.818-1.908,1.45-2.631c0.632-0.72,1.395-1.271,2.287-1.658      c0.895-0.385,1.895-0.576,3-0.576c1.185,0,2.192,0.188,3.024,0.568c0.832,0.379,1.516,0.891,2.052,1.532      c0.538,0.644,0.931,1.396,1.182,2.265c0.252,0.862,0.377,1.789,0.377,2.772L384.363,125.169L384.363,125.169z M381.581,124.35      c0.032-1.453-0.289-2.596-0.97-3.422c-0.678-0.824-1.688-1.238-3.021-1.238c-0.688,0-1.291,0.129-1.807,0.388      c-0.521,0.256-0.953,0.596-1.303,1.021c-0.345,0.424-0.616,0.918-0.809,1.483c-0.19,0.563-0.296,1.151-0.317,1.769H381.581      L381.581,124.35z"/>
				<path fill="#4D4D4D" d="M397.385,119.271c0,0.246-0.006,0.453-0.019,0.619c-0.011,0.168-0.033,0.299-0.066,0.393      c-0.033,0.097-0.074,0.171-0.125,0.22c-0.051,0.052-0.119,0.076-0.209,0.076c-0.091,0-0.2-0.024-0.327-0.076      c-0.131-0.049-0.273-0.101-0.437-0.149c-0.161-0.052-0.344-0.099-0.543-0.144c-0.203-0.045-0.421-0.065-0.654-0.065      c-0.279,0-0.554,0.057-0.82,0.168c-0.269,0.11-0.55,0.295-0.848,0.553c-0.296,0.258-0.605,0.598-0.931,1.021      c-0.323,0.427-0.681,0.943-1.07,1.56v9.92c0,0.09-0.021,0.166-0.066,0.227c-0.044,0.063-0.119,0.115-0.219,0.16      c-0.102,0.045-0.239,0.078-0.418,0.102c-0.18,0.021-0.407,0.031-0.688,0.031c-0.27,0-0.492-0.01-0.67-0.031      c-0.179-0.022-0.319-0.057-0.428-0.102c-0.105-0.045-0.179-0.1-0.219-0.16s-0.06-0.137-0.06-0.227v-15.086      c0-0.088,0.019-0.164,0.05-0.227c0.034-0.061,0.102-0.115,0.2-0.166c0.103-0.051,0.23-0.084,0.389-0.102      c0.155-0.018,0.362-0.023,0.619-0.023c0.246,0,0.449,0.008,0.611,0.023c0.159,0.018,0.287,0.051,0.376,0.102      c0.088,0.051,0.154,0.105,0.194,0.166c0.037,0.063,0.056,0.139,0.056,0.227v2.195c0.415-0.602,0.801-1.094,1.166-1.475      c0.363-0.379,0.707-0.68,1.029-0.896c0.326-0.217,0.646-0.367,0.964-0.451c0.321-0.084,0.641-0.125,0.964-0.125      c0.146,0,0.311,0.009,0.495,0.023c0.184,0.018,0.377,0.047,0.578,0.094c0.2,0.045,0.383,0.094,0.545,0.148      c0.161,0.059,0.276,0.113,0.345,0.168c0.066,0.057,0.11,0.107,0.133,0.16c0.022,0.049,0.042,0.113,0.061,0.191      c0.015,0.078,0.027,0.192,0.032,0.346C397.381,118.811,397.385,119.014,397.385,119.271z"/>
				<path fill="#4D4D4D" d="M413.521,133.361c0,0.091-0.022,0.166-0.066,0.228c-0.046,0.062-0.117,0.115-0.22,0.16      c-0.1,0.045-0.238,0.078-0.418,0.101c-0.178,0.022-0.401,0.032-0.67,0.032c-0.279,0-0.508-0.01-0.687-0.032      c-0.181-0.021-0.318-0.056-0.42-0.101c-0.101-0.045-0.173-0.101-0.219-0.16c-0.045-0.06-0.065-0.137-0.065-0.228v-8.83      c0-0.86-0.068-1.555-0.201-2.077c-0.136-0.522-0.328-0.978-0.586-1.356c-0.258-0.38-0.591-0.671-0.997-0.871      c-0.408-0.201-0.879-0.302-1.415-0.302c-0.694,0-1.387,0.244-2.079,0.736c-0.692,0.489-1.419,1.213-2.178,2.159v10.541      c0,0.091-0.023,0.166-0.067,0.228c-0.045,0.062-0.117,0.115-0.217,0.16s-0.24,0.078-0.42,0.101      c-0.178,0.022-0.406,0.032-0.688,0.032c-0.269,0-0.488-0.01-0.67-0.032c-0.179-0.021-0.322-0.056-0.428-0.101      s-0.179-0.101-0.219-0.16c-0.037-0.062-0.06-0.137-0.06-0.228v-15.082c0-0.088,0.019-0.164,0.052-0.227      c0.033-0.061,0.103-0.115,0.202-0.166c0.102-0.051,0.229-0.084,0.385-0.102c0.157-0.018,0.362-0.023,0.619-0.023      c0.247,0,0.448,0.008,0.612,0.023c0.162,0.018,0.286,0.051,0.376,0.102c0.091,0.051,0.152,0.105,0.192,0.166      c0.04,0.063,0.06,0.139,0.06,0.227v1.994c0.852-0.949,1.695-1.645,2.538-2.086c0.845-0.44,1.696-0.66,2.557-0.66      c1.006,0,1.853,0.17,2.539,0.511c0.688,0.34,1.242,0.797,1.667,1.366c0.424,0.568,0.729,1.236,0.912,2      c0.188,0.767,0.277,1.687,0.277,2.759L413.521,133.361L413.521,133.361z"/>
				<path fill="#4D4D4D" d="M429.926,133.379c0,0.135-0.045,0.232-0.136,0.303c-0.089,0.068-0.212,0.117-0.368,0.15      c-0.155,0.033-0.385,0.049-0.688,0.049c-0.289,0-0.521-0.016-0.695-0.049c-0.172-0.033-0.299-0.084-0.377-0.15      c-0.079-0.068-0.116-0.168-0.116-0.303v-1.51c-0.659,0.705-1.396,1.254-2.204,1.643c-0.813,0.393-1.667,0.59-2.572,0.59      c-0.792,0-1.511-0.104-2.151-0.313c-0.644-0.207-1.19-0.506-1.644-0.896c-0.452-0.392-0.806-0.871-1.057-1.439      c-0.251-0.57-0.377-1.221-0.377-1.943c0-0.85,0.174-1.588,0.521-2.213c0.344-0.625,0.842-1.146,1.49-1.561      c0.647-0.412,1.439-0.723,2.379-0.928c0.938-0.209,1.996-0.312,3.167-0.312h2.078v-1.173c0-0.581-0.063-1.094-0.188-1.543      c-0.121-0.444-0.319-0.815-0.594-1.112c-0.274-0.295-0.629-0.521-1.064-0.67s-0.972-0.228-1.607-0.228      c-0.682,0-1.292,0.082-1.835,0.244c-0.541,0.16-1.018,0.34-1.423,0.533c-0.408,0.195-0.75,0.375-1.023,0.537      s-0.478,0.242-0.609,0.242c-0.092,0-0.168-0.021-0.234-0.066c-0.069-0.045-0.125-0.111-0.175-0.199      c-0.051-0.092-0.089-0.205-0.11-0.346c-0.021-0.141-0.033-0.293-0.033-0.461c0-0.279,0.021-0.5,0.06-0.66      c0.041-0.162,0.136-0.316,0.285-0.461c0.15-0.146,0.411-0.316,0.778-0.512c0.368-0.197,0.794-0.375,1.273-0.539      c0.479-0.16,1.005-0.295,1.574-0.398c0.568-0.106,1.146-0.158,1.729-0.158c1.082,0,2.005,0.121,2.765,0.367      c0.761,0.246,1.374,0.605,1.844,1.082c0.469,0.473,0.809,1.063,1.021,1.767s0.318,1.524,0.318,2.463V133.379L429.926,133.379z       M427.177,126.493h-2.362c-0.759,0-1.418,0.063-1.978,0.19c-0.561,0.129-1.023,0.318-1.393,0.57      c-0.37,0.25-0.64,0.553-0.812,0.904c-0.172,0.35-0.259,0.758-0.259,1.215c0,0.783,0.246,1.402,0.742,1.869      c0.499,0.463,1.193,0.693,2.086,0.693c0.729,0,1.399-0.185,2.021-0.554c0.62-0.368,1.27-0.935,1.952-1.692L427.177,126.493      L427.177,126.493z"/>
				<path fill="#4D4D4D" d="M447.805,117.848c0.335,0,0.563,0.074,0.688,0.225c0.121,0.15,0.185,0.371,0.185,0.662v14.629      c0,0.091-0.022,0.166-0.067,0.228s-0.121,0.113-0.227,0.16c-0.106,0.043-0.249,0.076-0.429,0.101      c-0.178,0.021-0.396,0.032-0.649,0.032c-0.279,0-0.51-0.012-0.688-0.032c-0.178-0.021-0.32-0.058-0.428-0.101      c-0.105-0.047-0.182-0.101-0.227-0.16c-0.045-0.062-0.067-0.137-0.067-0.228v-13.221h-7.792v8.41      c0,1.039,0.153,1.822,0.462,2.355c0.306,0.529,0.856,0.797,1.649,0.797c0.258,0,0.486-0.025,0.687-0.076      c0.202-0.049,0.38-0.104,0.538-0.16c0.155-0.057,0.289-0.107,0.402-0.158c0.109-0.049,0.212-0.074,0.301-0.074      c0.055,0,0.11,0.015,0.161,0.041c0.049,0.027,0.088,0.082,0.115,0.16c0.026,0.078,0.053,0.185,0.075,0.316      c0.022,0.137,0.033,0.303,0.033,0.504c0,0.322-0.021,0.576-0.066,0.762c-0.045,0.187-0.112,0.324-0.201,0.42      c-0.089,0.094-0.225,0.183-0.402,0.26c-0.18,0.078-0.382,0.144-0.612,0.191c-0.228,0.051-0.473,0.092-0.728,0.127      c-0.258,0.033-0.515,0.051-0.771,0.051c-0.78,0-1.45-0.104-2.01-0.311c-0.559-0.207-1.018-0.521-1.375-0.938      c-0.356-0.42-0.617-0.95-0.78-1.594c-0.16-0.643-0.241-1.397-0.241-2.271v-8.813h-2.111c-0.167,0-0.303-0.09-0.402-0.268      c-0.102-0.18-0.149-0.469-0.149-0.873c0-0.213,0.015-0.391,0.042-0.535c0.027-0.146,0.063-0.266,0.107-0.361      c0.043-0.094,0.104-0.16,0.176-0.201c0.073-0.037,0.153-0.057,0.244-0.057h2.096v-3.588c0-0.078,0.02-0.15,0.06-0.217      c0.037-0.066,0.11-0.125,0.218-0.176c0.105-0.053,0.247-0.09,0.429-0.109c0.178-0.021,0.4-0.033,0.67-0.033      c0.277,0,0.507,0.012,0.687,0.033c0.178,0.021,0.318,0.059,0.419,0.109c0.102,0.051,0.173,0.107,0.218,0.176      c0.044,0.064,0.066,0.139,0.066,0.217v3.588H447.805L447.805,117.848z M448.995,113.189c0,0.646-0.125,1.088-0.367,1.32      c-0.247,0.236-0.7,0.354-1.359,0.354c-0.647,0-1.091-0.112-1.33-0.344c-0.242-0.229-0.36-0.662-0.36-1.301      c0-0.646,0.121-1.088,0.366-1.32c0.249-0.235,0.699-0.354,1.36-0.354c0.646,0,1.091,0.115,1.331,0.344      C448.876,112.115,448.995,112.551,448.995,113.189z"/>
				<path fill="#4D4D4D" d="M467.829,125.652c0,1.23-0.16,2.361-0.484,3.396c-0.323,1.033-0.81,1.925-1.451,2.675      c-0.642,0.745-1.446,1.332-2.412,1.75c-0.965,0.418-2.085,0.629-3.357,0.629c-1.24,0-2.321-0.185-3.243-0.554      c-0.92-0.368-1.69-0.905-2.307-1.608c-0.612-0.703-1.069-1.56-1.375-2.563c-0.301-1.004-0.45-2.146-0.45-3.418      c0-1.229,0.158-2.36,0.479-3.394c0.317-1.033,0.799-1.926,1.442-2.674c0.64-0.748,1.44-1.328,2.403-1.742      c0.959-0.414,2.081-0.619,3.365-0.619c1.241,0,2.323,0.183,3.243,0.554c0.922,0.366,1.689,0.903,2.305,1.606      c0.614,0.705,1.075,1.56,1.383,2.563C467.677,123.258,467.829,124.393,467.829,125.652z M464.966,125.84      c0-0.816-0.079-1.588-0.23-2.314c-0.148-0.727-0.399-1.358-0.751-1.907c-0.349-0.55-0.826-0.979-1.423-1.3      c-0.596-0.317-1.341-0.479-2.23-0.479c-0.821,0-1.528,0.145-2.123,0.436c-0.59,0.291-1.075,0.703-1.46,1.23      c-0.384,0.531-0.672,1.16-0.854,1.887c-0.184,0.728-0.28,1.521-0.28,2.381c0,0.826,0.076,1.604,0.229,2.328      c0.148,0.728,0.402,1.359,0.759,1.9c0.358,0.543,0.832,0.973,1.43,1.291c0.6,0.318,1.34,0.479,2.232,0.479      c0.812,0,1.516-0.146,2.115-0.438c0.597-0.291,1.084-0.697,1.469-1.223c0.386-0.525,0.665-1.15,0.846-1.877      C464.876,127.508,464.966,126.708,464.966,125.84z"/>
				<path fill="#4D4D4D" d="M484.889,133.361c0,0.091-0.023,0.166-0.067,0.228c-0.046,0.062-0.118,0.115-0.219,0.16      c-0.1,0.045-0.241,0.078-0.418,0.101c-0.178,0.022-0.402,0.032-0.672,0.032c-0.278,0-0.506-0.01-0.688-0.032      c-0.178-0.021-0.314-0.056-0.417-0.101c-0.1-0.045-0.173-0.101-0.217-0.16c-0.045-0.062-0.065-0.137-0.065-0.228v-8.83      c0-0.86-0.068-1.555-0.201-2.077c-0.138-0.522-0.329-0.978-0.586-1.356c-0.261-0.38-0.593-0.671-0.999-0.871      c-0.407-0.201-0.877-0.302-1.414-0.302c-0.695,0-1.389,0.244-2.079,0.736c-0.693,0.489-1.418,1.213-2.178,2.159v10.541      c0,0.091-0.023,0.166-0.067,0.228c-0.046,0.062-0.117,0.115-0.217,0.16c-0.104,0.045-0.243,0.078-0.42,0.101      c-0.18,0.022-0.406,0.032-0.688,0.032c-0.269,0-0.491-0.01-0.669-0.032c-0.179-0.021-0.322-0.056-0.428-0.101      c-0.106-0.045-0.179-0.101-0.218-0.16c-0.038-0.062-0.06-0.137-0.06-0.228v-15.082c0-0.088,0.019-0.164,0.05-0.227      c0.032-0.061,0.102-0.115,0.202-0.166c0.103-0.051,0.229-0.084,0.384-0.102c0.157-0.018,0.364-0.023,0.621-0.023      c0.245,0,0.449,0.008,0.61,0.023c0.164,0.018,0.289,0.051,0.377,0.102c0.09,0.051,0.154,0.105,0.194,0.166      c0.038,0.063,0.059,0.139,0.059,0.227v1.994c0.851-0.949,1.696-1.645,2.539-2.086c0.844-0.44,1.696-0.66,2.556-0.66      c1.006,0,1.854,0.17,2.539,0.511c0.688,0.34,1.242,0.797,1.666,1.366c0.425,0.568,0.73,1.236,0.915,2      c0.186,0.767,0.277,1.687,0.277,2.759v9.198H484.889z"/>
				<path fill="#4D4D4D" d="M501.294,133.379c0,0.135-0.047,0.232-0.135,0.303c-0.089,0.066-0.213,0.117-0.371,0.15      c-0.153,0.033-0.384,0.049-0.687,0.049c-0.289,0-0.522-0.016-0.694-0.049c-0.173-0.033-0.299-0.084-0.377-0.15      c-0.078-0.068-0.117-0.168-0.117-0.303v-1.51c-0.657,0.705-1.395,1.254-2.203,1.643c-0.812,0.393-1.669,0.59-2.571,0.59      c-0.792,0-1.511-0.104-2.153-0.313c-0.642-0.208-1.191-0.506-1.645-0.896c-0.45-0.392-0.805-0.871-1.056-1.439      c-0.253-0.57-0.377-1.221-0.377-1.943c0-0.85,0.173-1.588,0.52-2.213s0.846-1.146,1.492-1.561      c0.646-0.412,1.439-0.723,2.379-0.928c0.938-0.209,1.996-0.312,3.167-0.312h2.079v-1.173c0-0.581-0.063-1.094-0.188-1.543      c-0.121-0.444-0.319-0.815-0.594-1.112c-0.275-0.295-0.629-0.521-1.063-0.67c-0.437-0.149-0.972-0.228-1.607-0.228      c-0.683,0-1.292,0.082-1.837,0.244c-0.539,0.16-1.017,0.34-1.425,0.533c-0.405,0.195-0.749,0.375-1.021,0.537      c-0.274,0.162-0.479,0.242-0.611,0.242c-0.09,0-0.169-0.021-0.232-0.066c-0.068-0.045-0.126-0.111-0.179-0.199      c-0.05-0.092-0.086-0.205-0.106-0.346c-0.021-0.141-0.033-0.293-0.033-0.461c0-0.279,0.02-0.5,0.058-0.66      c0.039-0.162,0.136-0.316,0.286-0.461c0.151-0.146,0.41-0.316,0.777-0.512c0.371-0.195,0.795-0.375,1.273-0.539      c0.479-0.16,1.007-0.295,1.576-0.398c0.568-0.106,1.146-0.158,1.729-0.158c1.082,0,2.003,0.121,2.763,0.367      s1.375,0.605,1.843,1.082c0.472,0.473,0.812,1.063,1.022,1.767c0.212,0.704,0.317,1.524,0.317,2.463v10.172L501.294,133.379      L501.294,133.379z M498.547,126.493h-2.363c-0.759,0-1.418,0.063-1.979,0.19c-0.559,0.129-1.021,0.318-1.392,0.57      c-0.368,0.25-0.638,0.553-0.811,0.904c-0.176,0.352-0.261,0.758-0.261,1.215c0,0.783,0.247,1.402,0.744,1.869      c0.499,0.463,1.191,0.693,2.086,0.693c0.729,0,1.399-0.185,2.021-0.554c0.62-0.368,1.269-0.935,1.953-1.692L498.547,126.493      L498.547,126.493z"/>
				<path fill="#4D4D4D" d="M509.136,133.361c0,0.091-0.022,0.166-0.068,0.228c-0.043,0.062-0.117,0.115-0.219,0.16      s-0.24,0.078-0.417,0.101c-0.178,0.022-0.409,0.032-0.688,0.032c-0.268,0-0.49-0.01-0.669-0.032      c-0.179-0.021-0.32-0.056-0.428-0.101c-0.104-0.045-0.178-0.101-0.218-0.16s-0.061-0.137-0.061-0.228v-22.385      c0-0.092,0.021-0.168,0.061-0.233c0.041-0.066,0.113-0.123,0.218-0.169c0.106-0.045,0.25-0.077,0.428-0.1      c0.179-0.023,0.401-0.035,0.669-0.035c0.278,0,0.511,0.013,0.688,0.035c0.178,0.021,0.317,0.055,0.417,0.1      c0.102,0.046,0.176,0.103,0.219,0.169c0.045,0.065,0.068,0.146,0.068,0.233V133.361z"/>
				<path fill="#4D4D4D" d="M538.562,132.758c0.089,0.248,0.136,0.445,0.141,0.598c0.006,0.148-0.032,0.267-0.124,0.342      c-0.09,0.08-0.235,0.13-0.442,0.152c-0.208,0.021-0.485,0.031-0.829,0.031c-0.349,0-0.625-0.008-0.831-0.023      c-0.206-0.017-0.362-0.043-0.469-0.084c-0.107-0.037-0.187-0.092-0.235-0.16c-0.05-0.065-0.097-0.147-0.142-0.25l-1.861-5.278      h-9.015l-1.776,5.211c-0.032,0.103-0.078,0.188-0.134,0.263c-0.057,0.071-0.139,0.133-0.243,0.184      c-0.106,0.051-0.255,0.088-0.452,0.109c-0.194,0.021-0.449,0.032-0.76,0.032c-0.327,0-0.591-0.014-0.798-0.041      c-0.207-0.026-0.354-0.081-0.437-0.159c-0.084-0.078-0.125-0.191-0.119-0.345c0.009-0.149,0.058-0.351,0.146-0.594l7.271-20.144      c0.043-0.123,0.104-0.225,0.179-0.303c0.068-0.078,0.178-0.141,0.314-0.184c0.142-0.047,0.319-0.076,0.537-0.094      c0.219-0.019,0.495-0.025,0.831-0.025c0.356,0,0.654,0.008,0.888,0.025c0.234,0.017,0.422,0.047,0.568,0.094      c0.146,0.043,0.256,0.107,0.337,0.191c0.076,0.082,0.138,0.188,0.183,0.311L538.562,132.758z M529.227,114.98h-0.016      l-3.738,10.808h7.542L529.227,114.98z"/>
				<path fill="#4D4D4D" d="M559.675,112.064c0,0.357-0.028,0.613-0.083,0.771c-0.059,0.154-0.157,0.232-0.305,0.232      c-0.088,0-0.19-0.023-0.31-0.066c-0.118-0.045-0.264-0.098-0.434-0.158c-0.178-0.061-0.373-0.117-0.6-0.17      c-0.223-0.049-0.479-0.072-0.77-0.072c-0.827,0-1.41,0.283-1.751,0.854c-0.342,0.57-0.512,1.479-0.512,2.73v1.66h3.367      c0.09,0,0.168,0.02,0.235,0.057c0.063,0.041,0.126,0.106,0.176,0.201c0.05,0.096,0.087,0.215,0.109,0.36      c0.021,0.146,0.033,0.322,0.033,0.535c0,0.403-0.05,0.694-0.144,0.873c-0.095,0.178-0.231,0.269-0.412,0.269h-3.367v13.221      c0,0.091-0.022,0.166-0.065,0.228c-0.045,0.062-0.121,0.115-0.229,0.16c-0.104,0.045-0.249,0.078-0.427,0.101      c-0.178,0.023-0.401,0.032-0.669,0.032c-0.269,0-0.492-0.01-0.67-0.032c-0.18-0.021-0.322-0.056-0.427-0.101      c-0.108-0.045-0.184-0.101-0.228-0.16c-0.046-0.062-0.065-0.137-0.065-0.228v-13.219h-6.771v13.221      c0,0.091-0.021,0.166-0.063,0.228c-0.045,0.062-0.122,0.113-0.229,0.16c-0.104,0.043-0.25,0.076-0.428,0.101      c-0.178,0.023-0.403,0.032-0.669,0.032c-0.27,0-0.494-0.012-0.671-0.032c-0.181-0.021-0.321-0.058-0.429-0.101      c-0.105-0.047-0.183-0.101-0.228-0.16c-0.043-0.062-0.065-0.137-0.065-0.228v-13.221h-2.129c-0.178,0-0.312-0.09-0.4-0.27      c-0.091-0.178-0.135-0.469-0.135-0.873c0-0.211,0.011-0.389,0.032-0.535c0.022-0.146,0.06-0.266,0.104-0.359      c0.045-0.096,0.102-0.16,0.169-0.201c0.063-0.039,0.143-0.057,0.232-0.057h2.128v-1.426c0-1.039,0.102-1.932,0.303-2.674      c0.2-0.742,0.501-1.354,0.904-1.836c0.399-0.479,0.9-0.834,1.497-1.063c0.6-0.229,1.295-0.347,2.089-0.347      c0.489,0,0.922,0.043,1.289,0.127c0.368,0.084,0.67,0.177,0.905,0.276c0.113,0.046,0.201,0.101,0.27,0.166      c0.064,0.068,0.122,0.154,0.167,0.261c0.044,0.106,0.075,0.235,0.093,0.388c0.017,0.149,0.022,0.331,0.022,0.545      c0,0.356-0.027,0.616-0.083,0.778c-0.058,0.16-0.156,0.242-0.302,0.242c-0.09,0-0.193-0.025-0.312-0.076      c-0.116-0.049-0.267-0.104-0.443-0.166s-0.38-0.119-0.603-0.168c-0.226-0.052-0.48-0.076-0.771-0.076      c-0.827,0-1.409,0.285-1.743,0.854c-0.335,0.57-0.503,1.48-0.503,2.73v1.459h6.771v-1.627c0-1.039,0.104-1.93,0.31-2.672      c0.208-0.742,0.512-1.355,0.912-1.836c0.404-0.479,0.904-0.834,1.502-1.063c0.596-0.23,1.292-0.345,2.086-0.345      c0.48,0,0.907,0.041,1.279,0.126c0.376,0.083,0.681,0.176,0.914,0.274c0.1,0.045,0.188,0.103,0.26,0.168      c0.073,0.065,0.129,0.153,0.167,0.262c0.038,0.104,0.067,0.231,0.083,0.384C559.667,111.67,559.675,111.854,559.675,112.064z"/>
				<path fill="#4D4D4D" d="M572.578,133.379c0,0.135-0.044,0.232-0.135,0.303c-0.091,0.069-0.212,0.117-0.368,0.15      c-0.154,0.033-0.387,0.049-0.688,0.049c-0.291,0-0.523-0.016-0.696-0.049s-0.299-0.084-0.377-0.15      c-0.08-0.068-0.118-0.168-0.118-0.303v-1.51c-0.658,0.705-1.393,1.254-2.202,1.643c-0.811,0.393-1.668,0.59-2.57,0.59      c-0.794,0-1.514-0.104-2.154-0.313c-0.644-0.207-1.189-0.506-1.644-0.896c-0.452-0.392-0.805-0.871-1.057-1.439      c-0.25-0.57-0.376-1.221-0.376-1.943c0-0.85,0.175-1.588,0.521-2.213s0.842-1.146,1.489-1.561      c0.647-0.412,1.442-0.723,2.381-0.928c0.938-0.209,1.992-0.312,3.167-0.312h2.077v-1.173c0-0.581-0.061-1.094-0.185-1.543      c-0.125-0.444-0.322-0.815-0.594-1.112c-0.274-0.295-0.628-0.521-1.064-0.67c-0.434-0.149-0.972-0.228-1.608-0.228      c-0.684,0-1.292,0.082-1.834,0.244c-0.541,0.16-1.017,0.34-1.426,0.533c-0.405,0.195-0.749,0.375-1.02,0.537      c-0.276,0.162-0.48,0.242-0.613,0.242c-0.09,0-0.168-0.021-0.233-0.066c-0.067-0.045-0.128-0.111-0.18-0.199      c-0.049-0.092-0.083-0.205-0.104-0.346c-0.023-0.141-0.035-0.293-0.035-0.461c0-0.279,0.021-0.5,0.059-0.66      c0.04-0.162,0.135-0.316,0.285-0.461c0.151-0.146,0.41-0.316,0.778-0.512c0.37-0.195,0.792-0.375,1.272-0.539      c0.479-0.16,1.007-0.295,1.574-0.398c0.571-0.106,1.146-0.158,1.728-0.158c1.085,0,2.005,0.121,2.765,0.367      s1.375,0.605,1.846,1.082c0.467,0.473,0.811,1.063,1.021,1.767c0.212,0.704,0.317,1.524,0.317,2.463V133.379L572.578,133.379z       M569.828,126.493h-2.361c-0.759,0-1.418,0.063-1.979,0.19c-0.559,0.129-1.021,0.318-1.39,0.57      c-0.37,0.25-0.643,0.553-0.813,0.904c-0.172,0.35-0.261,0.758-0.261,1.215c0,0.783,0.249,1.402,0.748,1.869      c0.497,0.463,1.193,0.693,2.086,0.693c0.724,0,1.4-0.185,2.021-0.554c0.617-0.368,1.271-0.935,1.95-1.692L569.828,126.493      L569.828,126.493z"/>
				<path fill="#4D4D4D" d="M580.738,113.189c0,0.646-0.123,1.088-0.368,1.32c-0.247,0.236-0.698,0.354-1.356,0.354      c-0.646,0-1.091-0.112-1.331-0.344c-0.242-0.229-0.363-0.662-0.363-1.301c0-0.646,0.124-1.088,0.37-1.32      c0.246-0.235,0.7-0.354,1.358-0.354c0.646,0,1.091,0.115,1.332,0.344C580.616,112.115,580.738,112.551,580.738,113.189z       M580.42,133.361c0,0.091-0.022,0.166-0.067,0.228s-0.118,0.115-0.217,0.16c-0.103,0.045-0.239,0.078-0.419,0.101      s-0.407,0.032-0.688,0.032c-0.268,0-0.492-0.01-0.669-0.032c-0.18-0.021-0.32-0.056-0.428-0.101      c-0.106-0.045-0.178-0.101-0.217-0.16c-0.041-0.062-0.06-0.137-0.06-0.228v-15.082c0-0.075,0.019-0.149,0.06-0.217      c0.039-0.065,0.109-0.123,0.217-0.168c0.106-0.043,0.248-0.076,0.428-0.102c0.178-0.021,0.402-0.031,0.669-0.031      c0.28,0,0.509,0.01,0.688,0.031c0.18,0.023,0.316,0.059,0.419,0.102c0.1,0.045,0.172,0.103,0.217,0.168      c0.045,0.066,0.067,0.142,0.067,0.217V133.361z"/>
				<path fill="#4D4D4D" d="M594.344,119.271c0,0.246-0.005,0.453-0.017,0.619c-0.013,0.168-0.034,0.299-0.066,0.393      c-0.033,0.097-0.077,0.171-0.126,0.22c-0.05,0.052-0.122,0.076-0.21,0.076c-0.092,0-0.199-0.024-0.328-0.076      c-0.127-0.049-0.273-0.101-0.436-0.149c-0.164-0.052-0.344-0.099-0.546-0.144c-0.201-0.045-0.417-0.065-0.651-0.065      c-0.277,0-0.553,0.057-0.821,0.168c-0.269,0.11-0.55,0.295-0.844,0.553c-0.297,0.258-0.607,0.598-0.933,1.021      c-0.321,0.427-0.681,0.943-1.071,1.56v9.92c0,0.09-0.021,0.166-0.067,0.227c-0.044,0.063-0.117,0.115-0.216,0.16      c-0.103,0.045-0.242,0.078-0.422,0.102c-0.18,0.021-0.406,0.031-0.688,0.031c-0.266,0-0.49-0.01-0.669-0.031      c-0.179-0.022-0.32-0.057-0.428-0.102c-0.106-0.045-0.177-0.1-0.217-0.16c-0.039-0.061-0.06-0.137-0.06-0.227v-15.086      c0-0.088,0.018-0.164,0.05-0.227c0.033-0.061,0.103-0.115,0.201-0.166c0.102-0.051,0.229-0.084,0.384-0.102      c0.157-0.018,0.363-0.023,0.621-0.023c0.246,0,0.449,0.008,0.613,0.023c0.161,0.018,0.287,0.051,0.376,0.102      c0.09,0.051,0.153,0.105,0.192,0.166c0.037,0.063,0.058,0.139,0.058,0.227v2.195c0.414-0.602,0.803-1.094,1.165-1.475      c0.366-0.379,0.708-0.68,1.032-0.896c0.321-0.217,0.644-0.367,0.963-0.451c0.314-0.084,0.638-0.125,0.963-0.125      c0.146,0,0.31,0.009,0.495,0.023c0.185,0.018,0.376,0.047,0.577,0.094c0.199,0.045,0.383,0.094,0.545,0.148      c0.162,0.059,0.273,0.113,0.342,0.168c0.067,0.057,0.114,0.107,0.136,0.16c0.021,0.049,0.042,0.113,0.059,0.191      s0.026,0.192,0.032,0.346C594.342,118.811,594.344,119.014,594.344,119.271z"/>
				<path fill="#4D4D4D" d="M606.376,129.256c0,0.771-0.142,1.459-0.429,2.063c-0.285,0.604-0.688,1.109-1.212,1.523      c-0.525,0.412-1.149,0.729-1.878,0.939c-0.726,0.211-1.524,0.318-2.396,0.318c-0.535,0-1.047-0.043-1.532-0.127      c-0.486-0.084-0.922-0.189-1.308-0.318c-0.388-0.127-0.714-0.262-0.979-0.4c-0.268-0.141-0.465-0.268-0.587-0.379      c-0.122-0.109-0.212-0.268-0.268-0.469c-0.058-0.201-0.084-0.475-0.084-0.82c0-0.213,0.012-0.393,0.032-0.537      c0.022-0.145,0.052-0.262,0.082-0.352c0.036-0.09,0.083-0.152,0.145-0.193c0.063-0.037,0.132-0.059,0.209-0.059      c0.124,0,0.305,0.076,0.546,0.227c0.24,0.15,0.537,0.316,0.889,0.494c0.354,0.182,0.769,0.344,1.249,0.494      s1.033,0.229,1.657,0.229c0.471,0,0.895-0.053,1.271-0.15c0.381-0.1,0.71-0.248,0.99-0.442c0.28-0.196,0.495-0.444,0.646-0.746      c0.15-0.303,0.227-0.657,0.227-1.073c0-0.422-0.109-0.779-0.326-1.07c-0.219-0.291-0.506-0.549-0.862-0.771      c-0.358-0.225-0.762-0.422-1.208-0.596c-0.444-0.172-0.906-0.354-1.383-0.543c-0.475-0.189-0.938-0.406-1.391-0.646      s-0.857-0.533-1.214-0.879c-0.358-0.349-0.646-0.761-0.863-1.24c-0.217-0.48-0.328-1.058-0.328-1.728      c0-0.592,0.116-1.157,0.347-1.701c0.229-0.541,0.569-1.016,1.028-1.424c0.458-0.407,1.03-0.733,1.72-0.979      c0.687-0.246,1.486-0.367,2.403-0.367c0.402,0,0.806,0.033,1.206,0.1c0.402,0.066,0.767,0.15,1.088,0.252      c0.324,0.102,0.603,0.207,0.832,0.326c0.229,0.117,0.401,0.221,0.519,0.313c0.118,0.09,0.196,0.168,0.235,0.232      c0.038,0.066,0.066,0.145,0.082,0.229c0.019,0.082,0.032,0.188,0.052,0.31c0.018,0.123,0.021,0.272,0.021,0.453      c0,0.188-0.006,0.354-0.021,0.493c-0.02,0.142-0.047,0.254-0.083,0.345c-0.04,0.088-0.089,0.153-0.145,0.192      c-0.056,0.037-0.118,0.058-0.184,0.058c-0.103,0-0.248-0.062-0.438-0.185s-0.437-0.254-0.736-0.396      c-0.304-0.139-0.656-0.271-1.064-0.393c-0.408-0.123-0.876-0.185-1.397-0.185c-0.472,0-0.885,0.054-1.241,0.158      c-0.358,0.104-0.65,0.258-0.881,0.45c-0.229,0.197-0.401,0.429-0.52,0.695c-0.117,0.271-0.174,0.562-0.174,0.873      c0,0.437,0.109,0.803,0.333,1.098c0.224,0.298,0.515,0.556,0.873,0.779c0.355,0.224,0.765,0.424,1.222,0.603      c0.458,0.18,0.926,0.364,1.4,0.553c0.474,0.19,0.942,0.404,1.408,0.64c0.463,0.233,0.872,0.52,1.229,0.854      c0.358,0.334,0.646,0.738,0.864,1.209C606.267,128.051,606.376,128.607,606.376,129.256z"/>
				<path fill="#4D4D4D" d="M613.984,131.385c0,0.346-0.018,0.664-0.05,0.955c-0.033,0.289-0.088,0.564-0.167,0.82      c-0.079,0.258-0.182,0.512-0.311,0.762c-0.129,0.254-0.287,0.521-0.479,0.797l-2.296,3.453      c-0.055,0.078-0.119,0.145-0.191,0.199c-0.071,0.057-0.163,0.107-0.269,0.15c-0.106,0.047-0.229,0.076-0.369,0.094      s-0.315,0.025-0.527,0.025c-0.188,0-0.349-0.011-0.478-0.025c-0.127-0.018-0.22-0.045-0.277-0.084      c-0.056-0.039-0.087-0.092-0.091-0.16c-0.006-0.064,0.013-0.145,0.058-0.232l2.229-4.607v-2.145      c0-0.304,0.031-0.541,0.092-0.722c0.062-0.179,0.159-0.313,0.294-0.401c0.133-0.091,0.301-0.15,0.501-0.185      c0.201-0.033,0.447-0.052,0.737-0.052c0.279,0,0.519,0.019,0.722,0.052c0.201,0.032,0.367,0.094,0.494,0.185      c0.13,0.09,0.227,0.225,0.287,0.401S613.984,131.083,613.984,131.385z"/>
				<path fill="#4D4D4D" d="M643.358,132.592c0,0.223-0.038,0.414-0.112,0.568c-0.071,0.156-0.173,0.285-0.296,0.387      c-0.122,0.102-0.256,0.172-0.405,0.219c-0.152,0.045-0.297,0.066-0.447,0.066h-0.954c-0.303,0-0.564-0.031-0.79-0.094      c-0.229-0.063-0.439-0.172-0.641-0.334c-0.203-0.162-0.403-0.383-0.609-0.662c-0.202-0.279-0.414-0.637-0.646-1.072      l-6.61-12.334c-0.35-0.637-0.692-1.303-1.045-2.002c-0.354-0.699-0.684-1.377-0.982-2.035h-0.034      c0.022,0.805,0.039,1.623,0.053,2.465c0.01,0.836,0.016,1.67,0.016,2.494v13.088c0,0.078-0.024,0.152-0.074,0.227      c-0.042,0.072-0.121,0.13-0.231,0.168c-0.112,0.039-0.266,0.074-0.442,0.103c-0.183,0.027-0.42,0.041-0.699,0.041      c-0.282,0-0.519-0.014-0.702-0.041c-0.178-0.026-0.323-0.063-0.431-0.103c-0.107-0.038-0.185-0.096-0.229-0.168      c-0.052-0.071-0.072-0.146-0.072-0.227v-20.008c0-0.445,0.128-0.768,0.379-0.955c0.258-0.189,0.53-0.283,0.832-0.283h1.419      c0.336,0,0.615,0.025,0.838,0.084c0.224,0.055,0.423,0.146,0.604,0.275c0.178,0.127,0.351,0.307,0.52,0.535      c0.167,0.229,0.346,0.516,0.524,0.861l5.089,9.52c0.313,0.582,0.614,1.146,0.905,1.701c0.291,0.553,0.572,1.098,0.844,1.631      c0.268,0.539,0.537,1.064,0.804,1.586c0.263,0.52,0.524,1.041,0.781,1.566h0.018c-0.021-0.883-0.031-1.801-0.039-2.758      c-0.006-0.953-0.01-1.873-0.01-2.754v-11.763c0-0.078,0.021-0.151,0.073-0.22c0.044-0.065,0.122-0.125,0.232-0.176      c0.118-0.051,0.263-0.086,0.448-0.108c0.178-0.021,0.416-0.033,0.715-0.033c0.257,0,0.479,0.013,0.669,0.033      c0.19,0.022,0.334,0.06,0.441,0.108c0.105,0.051,0.184,0.109,0.229,0.176c0.052,0.066,0.073,0.142,0.073,0.22L643.358,132.592      L643.358,132.592z"/>
				<path fill="#4D4D4D" d="M663.601,130.715c0,0.182-0.005,0.334-0.018,0.471c-0.012,0.133-0.027,0.25-0.057,0.353      c-0.027,0.103-0.064,0.188-0.112,0.269c-0.045,0.077-0.122,0.174-0.231,0.284c-0.113,0.111-0.346,0.281-0.705,0.511      c-0.355,0.229-0.8,0.453-1.331,0.672c-0.528,0.219-1.136,0.399-1.825,0.553c-0.688,0.15-1.438,0.227-2.256,0.227      c-1.407,0-2.675-0.234-3.81-0.703c-1.134-0.471-2.102-1.16-2.899-2.076c-0.799-0.918-1.413-2.049-1.841-3.396      c-0.433-1.346-0.649-2.895-0.649-4.648c0-1.799,0.233-3.399,0.698-4.811c0.462-1.406,1.109-2.6,1.949-3.578      c0.838-0.977,1.843-1.723,3.011-2.234c1.166-0.516,2.457-0.771,3.877-0.771c0.625,0,1.232,0.059,1.826,0.174      c0.591,0.117,1.139,0.268,1.642,0.445c0.505,0.178,0.95,0.387,1.343,0.619c0.391,0.234,0.664,0.428,0.813,0.578      c0.149,0.149,0.245,0.268,0.291,0.346c0.044,0.076,0.083,0.17,0.11,0.275c0.027,0.104,0.052,0.229,0.066,0.377      c0.018,0.145,0.021,0.317,0.021,0.52c0,0.225-0.011,0.414-0.033,0.568c-0.021,0.156-0.057,0.289-0.102,0.395      c-0.044,0.105-0.102,0.186-0.162,0.234c-0.063,0.051-0.133,0.076-0.224,0.076c-0.159,0-0.382-0.109-0.658-0.328      c-0.278-0.217-0.644-0.457-1.093-0.721c-0.438-0.263-0.976-0.502-1.61-0.72c-0.637-0.219-1.396-0.327-2.283-0.327      c-0.966,0-1.846,0.192-2.638,0.577c-0.792,0.388-1.472,0.953-2.026,1.701c-0.564,0.748-1,1.662-1.307,2.739      c-0.312,1.078-0.467,2.31-0.467,3.695c0,1.373,0.151,2.588,0.449,3.646c0.295,1.058,0.727,1.938,1.278,2.646      c0.557,0.709,1.24,1.246,2.048,1.608c0.805,0.362,1.723,0.545,2.744,0.545c0.865,0,1.619-0.104,2.266-0.317      c0.649-0.213,1.197-0.449,1.649-0.713c0.458-0.263,0.833-0.5,1.123-0.714c0.289-0.211,0.523-0.315,0.69-0.315      c0.078,0,0.146,0.018,0.2,0.051c0.057,0.033,0.102,0.098,0.136,0.191c0.032,0.094,0.063,0.229,0.077,0.395      C663.596,130.247,663.601,130.458,663.601,130.715z"/>
				<path fill="#4D4D4D" d="M681.179,113.338c0,0.211-0.014,0.396-0.033,0.555c-0.023,0.154-0.056,0.279-0.104,0.377      c-0.053,0.094-0.111,0.164-0.188,0.207c-0.073,0.047-0.156,0.066-0.246,0.066h-6.099v18.803c0,0.09-0.021,0.168-0.067,0.234      c-0.045,0.066-0.123,0.121-0.234,0.158c-0.109,0.039-0.256,0.074-0.439,0.102c-0.184,0.028-0.42,0.041-0.699,0.041      c-0.268,0-0.496-0.014-0.686-0.041c-0.191-0.025-0.341-0.063-0.453-0.102c-0.111-0.037-0.189-0.092-0.234-0.158      s-0.064-0.146-0.064-0.234v-18.802h-6.103c-0.091,0-0.169-0.021-0.237-0.065c-0.072-0.043-0.137-0.115-0.182-0.209      c-0.043-0.097-0.078-0.222-0.104-0.377c-0.027-0.156-0.046-0.343-0.046-0.554c0-0.213,0.019-0.399,0.046-0.562      c0.025-0.164,0.062-0.295,0.104-0.395c0.045-0.104,0.107-0.174,0.182-0.219c0.068-0.043,0.146-0.066,0.237-0.066h15.081      c0.09,0,0.173,0.023,0.246,0.066c0.074,0.045,0.135,0.115,0.188,0.219c0.05,0.1,0.08,0.229,0.104,0.395      C681.167,112.939,681.179,113.126,681.179,113.338z"/>
				<path fill="#4D4D4D" d="M700.618,125.771c0,1.316-0.188,2.494-0.574,3.525c-0.389,1.035-0.938,1.908-1.654,2.625      c-0.713,0.713-1.586,1.256-2.613,1.623c-1.026,0.369-2.195,0.555-3.503,0.555c-1.194,0-2.284-0.174-3.267-0.52      c-0.984-0.348-1.828-0.857-2.533-1.533c-0.701-0.676-1.244-1.521-1.623-2.539c-0.379-1.016-0.57-2.189-0.57-3.52v-13.455      c0-0.09,0.022-0.168,0.066-0.233c0.044-0.067,0.125-0.12,0.236-0.159c0.108-0.037,0.257-0.072,0.435-0.101      c0.181-0.029,0.413-0.043,0.704-0.043c0.269,0,0.496,0.014,0.688,0.043c0.19,0.026,0.342,0.063,0.447,0.101      c0.105,0.039,0.178,0.092,0.221,0.159c0.047,0.065,0.07,0.146,0.07,0.233v13.105c0,1.006,0.121,1.881,0.367,2.629      c0.246,0.75,0.604,1.373,1.064,1.871c0.467,0.494,1.023,0.869,1.678,1.121c0.65,0.25,1.385,0.379,2.201,0.379      c0.838,0,1.588-0.123,2.238-0.369c0.654-0.246,1.205-0.615,1.659-1.106c0.45-0.49,0.797-1.101,1.039-1.826      c0.24-0.728,0.358-1.576,0.358-2.547v-13.257c0-0.09,0.021-0.168,0.063-0.233c0.046-0.067,0.123-0.12,0.236-0.159      c0.108-0.037,0.264-0.072,0.444-0.101c0.187-0.029,0.413-0.043,0.692-0.043c0.27,0,0.498,0.014,0.681,0.043      c0.188,0.026,0.329,0.063,0.438,0.101c0.107,0.039,0.186,0.092,0.234,0.159c0.051,0.065,0.072,0.146,0.072,0.233v13.238H700.618      z"/>
			</g>
			<g>
				<path fill="#4D4D4D" d="M208.337,66.661h25.787v27.104h-2.049v-1.499h-21.781v1.499h-1.957V66.661z M210.293,90.37h21.781      V68.558h-21.781V90.37z M211.792,85.659c2.388-0.396,5.938-1.07,9.482-1.711l0.093,1.375c-3.183,0.704-6.426,1.406-8.474,1.805      c-0.031,0.246-0.186,0.366-0.367,0.456L211.792,85.659z M223.57,74.431c0.275,2.816,0.704,5.446,1.257,7.588      c1.069-1.772,1.895-3.793,2.445-6.026l2.141,0.519c-0.062,0.217-0.243,0.309-0.611,0.309c-0.733,2.692-1.864,5.137-3.304,7.22      c0.734,1.835,1.774,3.18,2.813,3.18c0.46,0,0.768-1.313,0.979-3.271c0.336,0.333,0.979,0.764,1.347,0.977      c-0.338,2.813-1.07,4.129-2.233,4.129c-0.215,0-0.429-0.029-0.673-0.123c-1.469-0.273-2.568-1.469-3.457-3.304      c-1.254,1.501-2.723,2.755-4.374,3.735c-0.245-0.338-0.766-0.951-1.132-1.254c1.835-1.043,3.457-2.481,4.802-4.224      c-0.826-2.538-1.376-5.843-1.743-9.454h-9.728v-1.589h9.574c-0.092-1.132-0.186-2.295-0.246-3.457l2.447,0.123      c-0.029,0.245-0.243,0.396-0.61,0.458c0.03,0.979,0.092,1.926,0.183,2.876h6.977v1.589L223.57,74.431L223.57,74.431z       M213.262,76.511h6.911v6.059h-6.911V76.511z M218.614,81.224v-3.366h-3.854v3.366H218.614z M226.108,69.11      c1.224,0.52,2.691,1.375,3.428,2.11l-0.979,1.133c-0.733-0.704-2.204-1.654-3.428-2.234L226.108,69.11z"/>
				<path fill="#4D4D4D" d="M253.875,90.217h27.746v2.05h-27.746V90.217z M280.764,71.464v2.02h-25.819v-2.02h11.657v-6.238      l2.723,0.183c-0.03,0.214-0.184,0.368-0.612,0.43v5.626L280.764,71.464L280.764,71.464z M261.033,75.167      c1.591,4.129,2.69,9.391,2.876,12.91c-0.214,0-0.43,0.031-2.112,0.457c-0.121-3.457-1.223-8.779-2.722-12.877L261.033,75.167z       M277.152,75.563c-0.089,0.213-0.364,0.397-0.763,0.429c-0.918,4.039-2.631,10.003-4.069,13.37l-1.834-0.523      c1.347-3.484,2.905-9.635,3.699-13.916L277.152,75.563z"/>
				<path fill="#4D4D4D" d="M309.724,77.948c1.069,2.726,2.601,5.078,4.588,7.068c1.988-1.959,3.519-4.343,4.589-7.251l2.57,0.856      c-0.063,0.186-0.337,0.309-0.705,0.277c-1.191,2.996-2.844,5.443-4.894,7.493c3.272,2.661,7.523,4.435,12.725,5.293      c-0.458,0.458-1.072,1.376-1.375,1.958c-5.324-1.038-9.604-2.936-12.971-5.812c-3.396,2.784-7.74,4.649-12.939,5.903      c-0.245-0.52-0.796-1.407-1.193-1.866c5.077-1.104,9.332-2.815,12.636-5.446c-2.112-2.171-3.766-4.804-4.986-7.861      L309.724,77.948z M311.193,73.483c-0.093,0.246-0.367,0.275-0.674,0.246c-2.11,2.722-5.445,5.475-8.442,7.279      c-0.338-0.459-1.07-1.191-1.529-1.559c2.906-1.563,6.271-4.254,8.198-7.005L311.193,73.483z M327.832,69.354v2.019h-27.161      v-2.019h12.479v-4.158l2.691,0.149c-0.031,0.217-0.185,0.37-0.611,0.432v3.577H327.832z M326.303,80.733      c-1.651-2.049-5.261-5.046-8.259-7.126l1.682-1.224c2.938,1.958,6.606,4.863,8.383,6.912L326.303,80.733z"/>
				<path fill="#4D4D4D" d="M353.212,77.462v10.062c2.354,3.641,6.698,3.641,12.514,3.641c3.336,0,7.25-0.061,9.637-0.215      c-0.249,0.459-0.554,1.409-0.677,2.021c-2.079,0.063-5.381,0.123-8.439,0.123c-6.7,0-10.891,0-13.919-3.822      c-1.622,1.406-3.305,2.752-4.683,3.791c0,0.275-0.06,0.398-0.273,0.489l-1.16-2.201c1.496-0.979,3.361-2.325,5.015-3.672v-8.261      h-4.617v-1.955H353.212z M348.594,65.927c1.987,1.407,4.282,3.52,5.262,5.081l-1.529,1.406c-0.979-1.56-3.213-3.765-5.2-5.23      L348.594,65.927z M365.787,72.995c-1.927-0.948-4.282-1.987-6.271-2.723l1.347-1.192c1.346,0.489,2.904,1.101,4.403,1.774      c1.623-0.735,3.334-1.682,4.648-2.633h-13.397v-1.68h15.51l0.337-0.094l1.562,1.008c-0.091,0.125-0.305,0.216-0.488,0.248      c-1.562,1.346-3.914,2.873-6.271,4.006c0.948,0.429,1.806,0.887,2.51,1.285h3.946v13.918c0,2.018-0.643,2.234-5.2,2.234      c-0.094-0.551-0.338-1.255-0.583-1.743c0.888,0.03,1.746,0.058,2.354,0.058c1.317,0,1.471,0,1.471-0.549v-3.12h-5.753v5.169      h-1.862v-5.169h-5.541v5.292h-1.954v-16.09L365.787,72.995L365.787,72.995z M364.044,74.647h-5.541v2.907h5.541V74.647z       M358.504,82.173h5.541v-3.029h-5.541V82.173z M371.659,77.554v-2.907h-5.754v2.907H371.659z M365.906,82.173h5.754v-3.029      h-5.754V82.173z"/>
				<path fill="#4D4D4D" d="M420.964,76.329h-11.963c1.989,7.31,5.936,12.941,12.449,15.356c-0.521,0.458-1.189,1.315-1.527,1.928      c-6.396-2.632-10.278-8.049-12.545-15.418c-1.408,6.057-4.742,12.052-12.632,15.448c-0.307-0.551-0.948-1.284-1.47-1.742      c8.075-3.275,11.104-9.394,12.266-15.572h-11.806v-2.11h12.145c0.396-3.182,0.366-6.304,0.396-8.962l2.876,0.151      c-0.031,0.274-0.275,0.43-0.675,0.519c-0.029,2.418-0.062,5.294-0.427,8.292h12.91L420.964,76.329L420.964,76.329z"/>
				<path fill="#4D4D4D" d="M467.388,85.689v1.746h-12.576v3.975c0,2.204-0.916,2.234-6.179,2.234      c-0.089-0.52-0.43-1.256-0.704-1.774c1.135,0.032,2.231,0.06,3.031,0.06c1.649,0,1.834,0,1.834-0.579v-3.915h-12.573V85.69      h12.573v-1.864l1.592,0.091c1.347-0.58,2.721-1.346,3.854-2.11h-12.514v-1.591h14.714l0.337-0.122l1.529,1.04      c-0.09,0.122-0.306,0.215-0.459,0.245c-1.772,1.315-4.526,2.875-7.037,3.886v0.426h12.577L467.388,85.689L467.388,85.689z       M442.669,77.948v3.917h-1.955v-5.564h2.477l-0.611-9.731l1.65,0.431c1.439-0.431,3.091-1.042,4.131-1.501l1.348,1.408      c-0.093,0.093-0.216,0.123-0.336,0.123c-0.062,0-0.155,0-0.219-0.03c-1.128,0.396-3.025,0.915-4.557,1.284l0.096,1.407h4.708      v1.497h-4.588l0.091,1.807h4.649v1.467h-4.557l0.12,1.839h17.47l0.183-1.839h-4.68v-1.467h4.802l0.155-1.807h-4.805v-1.498      h4.893l0.123-1.808h-5.139v-1.467h7.158c-0.153,3.152-0.427,7.158-0.705,9.884h2.45v5.564h-2.021v-3.917L442.669,77.948      L442.669,77.948L442.669,77.948z M457.167,66.203c-0.061,0.185-0.271,0.277-0.58,0.245c-0.429,0.49-0.916,0.979-1.471,1.467      c0.705,0.492,1.318,0.98,1.747,1.408l-1.103,1.041c-0.427-0.46-1.069-0.979-1.805-1.529c-0.979,0.734-2.017,1.406-3.028,1.896      c-0.245-0.274-0.767-0.735-1.071-0.978c0.949-0.461,1.96-1.071,2.875-1.745c-0.673-0.458-1.375-0.856-2.049-1.224l1.074-0.916      c0.669,0.335,1.405,0.762,2.139,1.193c0.518-0.461,1.01-0.98,1.407-1.5L457.167,66.203z M452.003,71.157      c0.67,0.339,1.375,0.766,2.075,1.227c0.613-0.553,1.162-1.135,1.594-1.715l1.864,0.674c-0.061,0.185-0.334,0.246-0.61,0.215      c-0.462,0.55-1.01,1.1-1.622,1.65c0.733,0.551,1.406,1.104,1.863,1.593l-1.101,1.006c-0.457-0.487-1.132-1.069-1.926-1.649      c-0.979,0.766-2.082,1.439-3.089,1.926c-0.246-0.245-0.769-0.732-1.103-0.979c0.979-0.458,2.019-1.102,2.998-1.805      c-0.675-0.458-1.378-0.886-2.021-1.253L452.003,71.157z"/>
				<path fill="#4D4D4D" d="M487.443,66.661h25.789v27.104h-2.051v-1.499h-21.778v1.499h-1.96V66.661L487.443,66.661z       M489.403,90.37h21.778V68.558h-21.778V90.37z M490.9,85.659c2.385-0.396,5.936-1.07,9.486-1.711l0.087,1.375      c-3.183,0.704-6.424,1.406-8.474,1.805c-0.026,0.246-0.186,0.366-0.365,0.456L490.9,85.659z M502.678,74.431      c0.272,2.816,0.705,5.446,1.254,7.588c1.072-1.772,1.896-3.793,2.445-6.026l2.143,0.519c-0.061,0.217-0.242,0.309-0.613,0.309      c-0.732,2.692-1.862,5.137-3.303,7.22c0.735,1.835,1.773,3.18,2.814,3.18c0.459,0,0.764-1.313,0.979-3.271      c0.337,0.333,0.979,0.764,1.347,0.977c-0.339,2.813-1.068,4.129-2.229,4.129c-0.215,0-0.432-0.029-0.675-0.123      c-1.47-0.273-2.57-1.469-3.455-3.304c-1.254,1.501-2.726,2.755-4.376,3.735c-0.245-0.338-0.766-0.951-1.131-1.254      c1.833-1.043,3.455-2.481,4.802-4.224c-0.828-2.538-1.377-5.843-1.746-9.454h-9.728v-1.589h9.574      c-0.091-1.132-0.185-2.295-0.246-3.457l2.447,0.123c-0.03,0.245-0.242,0.396-0.609,0.458c0.027,0.979,0.093,1.926,0.183,2.876      h6.976v1.589L502.678,74.431L502.678,74.431z M492.368,76.511h6.912v6.059h-6.912V76.511z M497.719,81.224v-3.366h-3.854v3.366      H497.719z M505.217,69.11c1.224,0.52,2.689,1.375,3.427,2.11l-0.979,1.133c-0.73-0.704-2.2-1.654-3.425-2.234L505.217,69.11z"/>
				<path fill="#4D4D4D" d="M540.201,66.48l1.255,0.762c-0.027,0.092-0.122,0.214-0.213,0.276c-0.643,2.354-1.594,5.57-2.446,8.139      c1.868,2.631,2.569,4.83,2.569,6.82c0,4.252-2.021,4.314-4.19,4.191c-0.03-0.492-0.187-1.255-0.429-1.715      c0.396,0.031,0.767,0.031,1.103,0.031c0.947,0,1.742,0,1.742-2.63c-0.03-1.774-0.646-3.917-2.539-6.518      c0.766-2.321,1.528-5.229,2.049-7.401h-3.426v25.237h-1.834V66.569h6.058L540.201,66.48z M545.343,70.669      c0.764,0.43,1.649,1.041,2.324,1.594c0.397-0.891,0.73-1.807,1.009-2.787h-3.731c-0.949,1.896-2.17,3.613-3.488,4.805      c-0.305-0.277-0.889-0.764-1.312-1.012c2.017-1.772,3.729-4.832,4.708-8.073l2.141,0.581c-0.06,0.211-0.272,0.305-0.608,0.305      c-0.187,0.58-0.433,1.192-0.673,1.775h3.762l0.368-0.061c0.885,0.334,1.04,0.396,1.163,0.488      c-0.063,0.152-0.155,0.246-0.244,0.335c-1.349,5.874-4.651,10.37-8.476,12.758c-0.247-0.431-0.765-1.072-1.191-1.407      c1.436-0.826,2.845-2.05,4.067-3.581c-0.675-0.673-1.651-1.497-2.509-2.077l0.947-0.918c0.796,0.518,1.712,1.253,2.354,1.865      c0.4-0.551,0.738-1.131,1.073-1.714c-0.673-0.642-1.654-1.377-2.506-1.864L545.343,70.669z M546.507,86.974      c-1.074,2.051-2.816,4.223-4.471,5.632c-0.304-0.339-0.944-0.89-1.346-1.196c1.563-1.254,3.211-3.364,4.222-5.476      c1.621,0.552,1.928,0.644,2.201,0.767C547.052,86.881,546.84,86.974,546.507,86.974z M559.198,84.649h-7.188v6.852      c0,1.928-0.736,2.173-5.078,2.173c-0.094-0.519-0.399-1.286-0.675-1.772c1.559,0.027,2.903,0.027,3.305,0      c0.399-0.032,0.49-0.093,0.49-0.462v-6.79h-6.855v-1.773h16L559.198,84.649L559.198,84.649z M546.106,79.846v-1.71h9.973v1.71      H546.106z M559.565,67.765l1.319,0.793c-0.035,0.153-0.219,0.215-0.339,0.277c-0.857,2.322-2.354,5.107-3.917,7.035      c1.315,1.623,2.907,2.906,4.741,3.762c-0.428,0.368-1.009,1.042-1.286,1.561c-5.019-2.662-8.047-8.076-9.543-14.989l1.651-0.365      c0.705,3.272,1.835,6.209,3.426,8.624c1.04-1.406,2.019-3.273,2.659-4.986h-4.344v-1.619h5.294L559.565,67.765z M558.984,92.359      c-0.792-1.47-2.66-3.733-4.344-5.354l1.5-0.946c1.682,1.558,3.606,3.731,4.467,5.229L558.984,92.359z"/>
				<path fill="#4D4D4D" d="M607.4,83.274v1.68h-3.246v5.541h-2.076v-1.41h-7.771v2.08c0,1.377-0.4,1.928-1.317,2.232      c-0.947,0.305-2.569,0.305-5.168,0.305c-0.095-0.486-0.459-1.283-0.734-1.773c1.133,0.034,2.264,0.063,3.091,0.063      c1.864,0,2.049,0,2.049-0.796v-2.111h-10.188v-1.623h10.188v-2.508h-12.817v-1.68h12.816v-2.328h-9.911v-1.559h9.911v-2.049      h-8.995v-5.904h8.995v-1.927h-12.271v-1.743h12.271v-2.569l2.663,0.149c-0.032,0.246-0.188,0.4-0.582,0.432v1.988h12.512v1.743      h-12.512v1.927h9.42v5.904h-9.42v2.049h9.847v3.887H607.4z M585.219,75.838h7.007v-2.904h-7.007V75.838z M601.619,72.934h-7.312      v2.904h7.312V72.934z M594.308,80.946v2.328h7.771v-2.328H594.308z M602.078,87.462v-2.508h-7.771v2.508H602.078z"/>
				<path fill="#4D4D4D" d="M653.673,70.364h-2.569c-0.854,2.293-2.14,4.25-3.761,5.904c1.987,1.497,4.313,2.631,6.849,3.304      c-0.425,0.397-0.977,1.192-1.284,1.743c-2.6-0.797-4.957-2.08-6.973-3.732c-2.049,1.713-4.495,3.029-7.251,3.978      c-0.216-0.368-0.614-0.919-0.948-1.347c-0.459,1.375-0.978,2.662-1.531,3.671l-1.468-0.733c0.644-1.316,1.284-3.334,1.804-5.17      h-3.211v13.215c0,2.232-1.006,2.354-4.771,2.354c-0.088-0.519-0.366-1.377-0.669-1.927c0.792,0.031,1.559,0.062,2.138,0.062      c1.226,0,1.347,0,1.347-0.489v-10.71c-1.224,3.151-2.938,6.275-4.705,8.078c-0.223-0.55-0.737-1.375-1.108-1.865      c1.961-1.896,3.951-5.414,5.11-8.719h-4.864v-1.835h8.565c-1.528-1.438-4.526-3.305-7.033-4.437l1.281-1.314      c0.979,0.428,2.019,0.947,3.028,1.496c1.283-0.916,2.569-2.139,3.546-3.304h-9.021v-1.804h10.611l0.368-0.093l1.53,0.95      c-0.06,0.123-0.273,0.242-0.429,0.273c-1.19,1.623-3.151,3.52-5.043,4.896c1.065,0.672,1.98,1.346,2.655,1.957l-1.254,1.378      h3.122l1.102,0.061c0,0.397-0.768,2.874-0.979,3.61c2.507-0.828,4.771-1.991,6.635-3.517c-1.188-1.228-2.262-2.601-3.115-4.101      c-0.737,1.008-1.529,1.928-2.323,2.691c-0.403-0.368-1.134-0.919-1.625-1.223c2.171-1.896,4.16-5.139,5.26-8.474l2.509,0.731      c-0.062,0.217-0.302,0.338-0.643,0.309c-0.274,0.765-0.609,1.529-1.007,2.295h10.122v1.838H653.673z M651.226,83.089      l1.194,0.246c0,0.186-0.034,0.428-0.122,0.613c-0.556,5.719-1.102,7.979-1.96,8.838c-0.673,0.674-1.348,0.795-3.151,0.795      c-0.643,0-1.407,0-2.171-0.061c-0.059-0.582-0.241-1.406-0.582-1.929c1.38,0.124,2.665,0.154,3.157,0.154      c0.517,0,0.792-0.061,1.063-0.307c0.582-0.58,1.041-2.325,1.468-6.515h-4.985c-1.039,3.578-3.057,6.852-7.646,8.777      c-0.212-0.456-0.792-1.16-1.222-1.528c3.885-1.526,5.78-4.19,6.792-7.249h-4.743v-1.772h5.201      c0.244-1.07,0.396-2.205,0.52-3.306l2.632,0.246c-0.063,0.243-0.274,0.367-0.644,0.427c-0.123,0.889-0.247,1.743-0.425,2.633      h5.166L651.226,83.089z M642.567,70.364l-0.123,0.213c0.86,1.652,2.021,3.152,3.431,4.468c1.283-1.345,2.356-2.877,3.09-4.681      H642.567z"/>
				<path fill="#4D4D4D" d="M676.728,72.657v5.996c0,4.373-0.396,10.737-3.025,15.021c-0.344-0.365-1.164-1.008-1.625-1.224      c2.45-4.039,2.691-9.727,2.691-13.797v-7.678h10.248v-5.75l2.66,0.151c-0.028,0.245-0.213,0.368-0.609,0.431v1.435h10.771v1.593      h-10.771v2.141h11.775l1.158,0.094c0,0.458-1.282,3.793-2.139,5.199l-1.742-0.521c0.459-0.824,0.914-1.959,1.314-3.09h-9.973      c-0.09,0.092-0.245,0.185-0.491,0.215v1.865l7.953-0.519l0.124,1.438l-8.077,0.52v1.162c0,0.764,0.31,0.949,2.208,0.949h6.939      c1.285,0,1.531-0.277,1.652-1.987c0.426,0.272,1.189,0.487,1.709,0.579c-0.212,2.387-0.854,2.938-3.177,2.938h-7.226      c-3.211,0-4.064-0.43-4.064-2.479v-1.038l-6.395,0.427l-0.091-1.439l6.483-0.426v-2.205L676.728,72.657L676.728,72.657z       M685.995,81.407l1.013,0.366c0,0.152-0.089,0.245-0.149,0.308c-0.615,2.814-1.687,5.109-3.096,6.943      c2.269,2.051,5.354,2.507,9.088,2.507c0.917,0,6.67,0,7.859-0.03c-0.273,0.428-0.582,1.254-0.672,1.775h-7.275      c-4.285,0-7.653-0.584-10.102-2.969c-1.497,1.532-3.301,2.662-5.321,3.458c-0.214-0.429-0.644-1.1-0.979-1.47      c1.928-0.672,3.705-1.773,5.172-3.303c-0.703-0.978-1.316-2.201-1.863-3.699c-0.678,0.975-1.409,1.863-2.146,2.567      c-0.244-0.306-0.824-0.856-1.16-1.161c1.838-1.746,3.67-4.712,4.741-7.738l2.112,0.67c-0.063,0.186-0.273,0.275-0.615,0.275      c-0.212,0.521-0.424,1.039-0.703,1.562h3.764L685.995,81.407z M681.102,83.026l-0.366,0.645      c0.488,1.684,1.133,2.998,1.897,4.037c0.978-1.315,1.741-2.873,2.262-4.682H681.102z M696.245,87.097      c0,0.98,0.027,1.101,0.609,1.101c1.441,0,1.747,0,1.809-0.763c0.058-0.4,0.09-1.258,0.118-2.418      c0.34,0.307,0.948,0.58,1.407,0.733c-0.091,2.784-0.122,3.979-2.324,3.979h-1.374c-2.048,0-2.048-1.227-2.048-2.816v-3.824      H690.8v0.919c0,2.02-0.521,4.495-2.939,6.3c-0.246-0.336-0.916-0.978-1.283-1.223c2.111-1.561,2.506-3.488,2.506-5.137v-2.51      h7.162V87.097L696.245,87.097z"/>
			</g>
		</g>
	</g>
</g>
</svg>