<?xml version="1.0" encoding="UTF-8"?>
<!-- Generator: Adobe Illustrator 16.0.3, SVG Export Plug-In . SVG Version: 6.00 Build 0)  -->
<!DOCTYPE svg PUBLIC "-//W3C//DTD SVG 1.1//EN" "http://www.w3.org/Graphics/SVG/1.1/DTD/svg11.dtd">
<svg version="1.1" id="圖層_1" xmlns="http://www.w3.org/2000/svg" xmlns:xlink="http://www.w3.org/1999/xlink" x="0px" y="0px" width="709.465px" height="100px" viewBox="0 50 709.465 100" enable-background="new 0 50 709.465 100" xml:space="preserve">
<g id="preline" display="none">
</g>
<g id="bg">
</g>
<g id="bg01" display="none">
</g>
<g id="bg01_拷貝">
</g>
<g id="inforBG" display="none">
</g>
<g id="inforBG-1" display="none">
</g>
<g id="inforBG-2">
</g>
<g id="inforBG-3" display="none">
</g>
<g id="newsBG" display="none">
</g>
<g id="newsBG-1">
</g>
<g id="newNav">
</g>
<g id="moreNews">
</g>
<g id="inforBG01">
</g>
<g id="lines">
</g>
<g id="newsPink">
</g>
<g id="moreNCTU">
</g>
<g id="nctu">
</g>
<g id="infor" display="none">
</g>
<g id="infor-1" display="none">
</g>
<g id="infor-2">
</g>
<g id="infor-3" display="none">
</g>
<g id="pics">
</g>
<g id="menu">
</g>
<g id="blacklayer">
</g>
<g id="textOnpics">
</g>
<g id="dots_x2F_arrow">
</g>
<g id="headerContent_1_">
	<g>
		<g>
			<g>
				<path fill="#DDDDDD" d="M108.074,60.303c0,0,0.021,0.307,0.056,0.894c0.039,0.581,0.112,1.446,0.175,2.536      c0.131,2.188,0.301,5.301,0.439,9.043c0.071,1.877,0.148,3.898,0.198,6.056c0.059,2.14,0.128,4.399,0.157,6.741      c0.031,2.341,0.1,4.759,0.102,7.218c0.015,2.455,0.029,4.953,0.045,7.455c-0.017,2.49-0.028,4.982-0.039,7.443      c-0.006,2.461-0.073,4.877-0.104,7.222c-0.032,2.344-0.099,4.603-0.16,6.752c-0.05,2.14-0.126,4.172-0.195,6.043      c-0.146,3.739-0.313,6.864-0.442,9.056c-0.062,1.09-0.136,1.942-0.175,2.536c-0.034,0.58-0.059,0.896-0.059,0.896      s-0.025-0.313-0.067-0.896c-0.037-0.594-0.111-1.446-0.167-2.536c-0.13-2.189-0.307-5.313-0.443-9.056      c-0.072-1.871-0.147-3.903-0.202-6.043c-0.06-2.149-0.128-4.408-0.153-6.752c-0.031-2.345-0.104-4.761-0.104-7.222      c-0.015-2.461-0.022-4.953-0.036-7.443c0.013-2.502,0.021-5,0.039-7.455c0.006-2.459,0.068-4.877,0.104-7.218      c0.024-2.342,0.101-4.604,0.159-6.741c0.048-2.156,0.132-4.179,0.2-6.056c0.137-3.742,0.312-6.854,0.438-9.043      c0.059-1.09,0.131-1.955,0.17-2.536C108.046,60.61,108.074,60.303,108.074,60.303z"/>
				<path fill="#DDDDDD" d="M128.548,138.421c1.026-3.082,2.063-6.166,3.121-9.237l3.187-9.205l3.243-9.197l3.28-9.174      c1.099-3.052,2.195-6.107,3.314-9.157l3.347-9.155l6.784-18.259l1.104-2.967l1.1,2.967l6.784,18.259l3.343,9.155      c1.123,3.05,2.226,6.105,3.319,9.157l3.282,9.174l3.24,9.197l3.188,9.205c1.058,3.071,2.088,6.155,3.109,9.237      c-1.253-2.997-2.496-6.004-3.729-9.01l-3.653-9.035l-3.604-9.049l-3.562-9.078c-1.188-3.021-2.366-6.043-3.526-9.075l-3.5-9.094      l-6.901-18.232h2.203l-6.907,18.221l-3.495,9.105c-1.162,3.032-2.346,6.055-3.524,9.075l-3.562,9.078l-3.604,9.049l-3.653,9.035      C131.05,132.417,129.808,135.424,128.548,138.421z"/>
				<g>
					<path fill="#DDDDDD" d="M78.465,100.397c0,18.313-14.857,33.171-33.188,33.171c-18.319,0-33.179-14.856-33.179-33.171       c0-18.332,14.856-33.181,33.179-33.181C63.606,67.217,78.465,82.065,78.465,100.397z"/>
					<g>
						<path fill="#DDDDDD" d="M8.756,87.477c0,0,0.062-0.195,0.195-0.582c0.146-0.373,0.312-0.953,0.604-1.68        c0.147-0.369,0.314-0.771,0.494-1.226c0.178-0.45,0.419-0.921,0.653-1.438c0.229-0.521,0.519-1.056,0.823-1.635        c0.304-0.582,0.665-1.18,1.047-1.805c1.522-2.521,3.714-5.396,6.729-8.217c3.007-2.806,6.915-5.498,11.634-7.441        c4.709-1.949,10.25-3.16,16.14-2.971c2.938,0.094,5.944,0.509,8.938,1.295c0.751,0.18,1.488,0.438,2.237,0.66l0.282,0.084        l0.063,0.026l0.097,0.021l0.133,0.052l0.539,0.207c0.355,0.129,0.721,0.269,1.083,0.391c0.729,0.313,1.479,0.621,2.203,0.962        c0.713,0.356,1.451,0.67,2.147,1.084c2.816,1.547,5.537,3.412,7.968,5.687l0.904,0.843c0.296,0.291,0.585,0.598,0.875,0.895        c0.595,0.593,1.126,1.24,1.687,1.865c1.068,1.285,2.094,2.637,2.997,4.071c3.688,5.677,5.916,12.435,6.337,19.317        c0.396,6.893-1.062,13.852-4.057,19.916l-0.567,1.142l-0.615,1.108c-0.396,0.742-0.872,1.441-1.313,2.15        c-0.946,1.391-1.938,2.73-3.031,3.977c-1.066,1.273-2.254,2.429-3.447,3.55c-1.23,1.069-2.479,2.114-3.813,3.021        c-2.631,1.858-5.431,3.375-8.322,4.479c-2.882,1.12-5.816,1.913-8.729,2.321c-2.907,0.418-5.78,0.517-8.528,0.316        c-2.754-0.206-5.384-0.704-7.839-1.391c-4.919-1.396-9.104-3.6-12.42-6.057c-0.847-0.595-1.604-1.24-2.351-1.851        c-0.72-0.638-1.416-1.246-2.035-1.884c-1.278-1.239-2.333-2.495-3.254-3.643c-0.439-0.586-0.878-1.136-1.242-1.673        c-0.362-0.547-0.72-1.043-1.02-1.534c-0.296-0.49-0.566-0.943-0.813-1.354c-0.229-0.426-0.441-0.811-0.621-1.161        c-0.39-0.683-0.621-1.244-0.804-1.604c-0.179-0.367-0.269-0.562-0.269-0.562s0.102,0.188,0.294,0.55        c0.208,0.354,0.462,0.887,0.881,1.553c0.784,1.354,2.074,3.264,3.945,5.49c0.955,1.104,2.038,2.291,3.345,3.463        c0.634,0.6,1.349,1.168,2.073,1.768c0.754,0.563,1.521,1.168,2.368,1.713c3.326,2.273,7.493,4.248,12.267,5.47        c4.775,1.214,10.199,1.562,15.746,0.647c2.776-0.451,5.563-1.264,8.282-2.391c1.363-0.549,2.693-1.228,4.019-1.924        c1.301-0.753,2.604-1.535,3.824-2.438c4.974-3.553,9.16-8.51,11.948-14.258c2.804-5.748,4.139-12.312,3.749-18.794        c-0.373-6.469-2.438-12.848-5.902-18.221c-3.426-5.406-8.175-9.83-13.517-12.779c-0.651-0.393-1.352-0.698-2.021-1.051        c-0.682-0.334-1.355-0.613-2.039-0.916c-0.358-0.146-0.725-0.279-1.083-0.418l-0.53-0.203l-0.134-0.049        c-0.042-0.021-0.02-0.012-0.042-0.021l-0.069-0.021l-0.263-0.088c-0.71-0.223-1.401-0.49-2.118-0.67        c-2.832-0.799-5.691-1.263-8.499-1.406c-5.617-0.281-10.968,0.726-15.569,2.473c-2.307,0.871-4.423,1.943-6.354,3.101        c-1.937,1.162-3.679,2.418-5.197,3.744c-3.06,2.624-5.326,5.379-6.924,7.802c-1.609,2.436-2.653,4.481-3.283,5.909        c-0.337,0.711-0.537,1.278-0.694,1.647C8.832,87.292,8.756,87.477,8.756,87.477z"/>
					</g>
				</g>
			</g>
		</g>
		<g>
			<g>
				<path fill="#DDDDDD" d="M226.378,122.936c0,1.754-0.207,3.334-0.62,4.742c-0.414,1.407-1.028,2.604-1.851,3.594      c-0.821,0.988-1.854,1.748-3.095,2.279c-1.237,0.53-2.688,0.797-4.34,0.797c-1.631,0-3.042-0.244-4.229-0.729      c-1.189-0.484-2.177-1.191-2.951-2.119c-0.774-0.93-1.354-2.078-1.732-3.453c-0.379-1.373-0.566-2.953-0.566-4.74      c0-1.709,0.207-3.264,0.618-4.658c0.413-1.396,1.032-2.584,1.859-3.562c0.824-0.978,1.859-1.729,3.099-2.26      c1.241-0.531,2.688-0.798,4.344-0.798c1.597,0,2.986,0.24,4.171,0.722c1.186,0.479,2.172,1.181,2.959,2.104      c0.788,0.92,1.375,2.062,1.758,3.418C226.184,119.626,226.378,121.182,226.378,122.936z M223.329,123.137      c0-1.229-0.108-2.371-0.327-3.429c-0.218-1.056-0.58-1.972-1.087-2.748c-0.507-0.774-1.188-1.381-2.034-1.817      c-0.848-0.435-1.896-0.648-3.146-0.648c-1.251,0-2.301,0.23-3.146,0.699c-0.846,0.473-1.538,1.098-2.066,1.879      c-0.527,0.781-0.909,1.693-1.139,2.738c-0.23,1.045-0.344,2.146-0.344,3.291c0,1.274,0.104,2.447,0.316,3.521      c0.212,1.072,0.567,1.998,1.07,2.773c0.502,0.772,1.174,1.379,2.016,1.811c0.846,0.43,1.899,0.646,3.175,0.646      c1.261,0,2.318-0.235,3.18-0.703c0.856-0.471,1.553-1.104,2.074-1.903c0.523-0.797,0.896-1.722,1.123-2.772      C223.216,125.421,223.329,124.311,223.329,123.137z"/>
				<path fill="#DDDDDD" d="M253.237,133.609c0,0.091-0.021,0.166-0.063,0.228c-0.043,0.063-0.118,0.115-0.229,0.16      c-0.104,0.045-0.249,0.078-0.427,0.103c-0.178,0.021-0.407,0.03-0.688,0.03c-0.255,0-0.479-0.01-0.661-0.03      c-0.188-0.021-0.33-0.058-0.438-0.103c-0.105-0.045-0.178-0.101-0.218-0.16c-0.038-0.062-0.061-0.137-0.061-0.228v-13.221      h-6.786v13.221c0,0.094-0.022,0.166-0.065,0.229c-0.045,0.062-0.122,0.113-0.229,0.16c-0.104,0.043-0.249,0.076-0.431,0.101      c-0.178,0.021-0.398,0.032-0.669,0.032c-0.269,0-0.489-0.012-0.671-0.032c-0.178-0.021-0.32-0.058-0.427-0.101      c-0.106-0.047-0.183-0.103-0.228-0.16c-0.045-0.062-0.065-0.137-0.065-0.229v-13.221h-6.771v13.221      c0,0.094-0.021,0.166-0.064,0.229c-0.044,0.062-0.119,0.113-0.229,0.16c-0.104,0.043-0.246,0.076-0.426,0.101      c-0.178,0.021-0.398,0.032-0.669,0.032c-0.27,0-0.492-0.012-0.671-0.032s-0.322-0.058-0.429-0.101      c-0.104-0.047-0.184-0.103-0.228-0.16c-0.046-0.062-0.066-0.137-0.066-0.229v-13.221h-2.127c-0.181,0-0.313-0.088-0.401-0.269      c-0.091-0.179-0.136-0.47-0.136-0.873c0-0.211,0.013-0.39,0.034-0.535s0.057-0.267,0.102-0.36c0.044-0.094,0.1-0.16,0.166-0.201      c0.065-0.035,0.146-0.057,0.235-0.057h2.127v-1.425c0-1.039,0.102-1.933,0.303-2.674c0.2-0.742,0.503-1.354,0.905-1.836      c0.399-0.479,0.899-0.834,1.5-1.062c0.599-0.229,1.292-0.35,2.084-0.35c0.491,0,0.926,0.043,1.291,0.127      c0.37,0.084,0.641,0.162,0.812,0.232c0.171,0.072,0.294,0.145,0.36,0.209c0.063,0.068,0.122,0.154,0.168,0.262      c0.045,0.105,0.075,0.232,0.093,0.389c0.017,0.148,0.023,0.332,0.023,0.545c0,0.355-0.028,0.615-0.085,0.777      c-0.059,0.16-0.154,0.242-0.303,0.242c-0.09,0-0.189-0.023-0.31-0.076c-0.117-0.049-0.269-0.104-0.443-0.166      c-0.179-0.063-0.383-0.118-0.61-0.168c-0.229-0.051-0.484-0.075-0.767-0.075c-0.824,0-1.406,0.284-1.74,0.854      c-0.336,0.57-0.505,1.479-0.505,2.731v1.457h6.771v-1.627c0-1.039,0.104-1.93,0.31-2.672c0.207-0.742,0.507-1.354,0.896-1.836      c0.392-0.479,0.881-0.834,1.466-1.063c0.587-0.229,1.26-0.344,2.021-0.344c0.243,0,0.493,0.012,0.744,0.031      c0.251,0.023,0.479,0.059,0.671,0.104c0.194,0.043,0.368,0.09,0.521,0.146c0.148,0.049,0.254,0.104,0.31,0.155      c0.059,0.057,0.104,0.113,0.137,0.179c0.033,0.063,0.063,0.138,0.094,0.229c0.024,0.09,0.047,0.196,0.057,0.334      c0.014,0.135,0.021,0.297,0.021,0.483c0,0.356-0.028,0.614-0.083,0.771c-0.061,0.156-0.155,0.233-0.304,0.233      c-0.077,0-0.169-0.021-0.271-0.06c-0.104-0.039-0.221-0.08-0.359-0.129c-0.139-0.043-0.313-0.086-0.526-0.125      c-0.211-0.037-0.472-0.06-0.771-0.06c-0.771,0-1.32,0.284-1.648,0.854c-0.328,0.568-0.494,1.479-0.494,2.729v1.66h8.694      c0.29,0,0.511,0.074,0.654,0.227c0.146,0.149,0.216,0.359,0.216,0.629v14.668h0.006V133.609z M253.542,113.452      c0,0.313-0.024,0.573-0.076,0.786c-0.051,0.214-0.139,0.384-0.267,0.511c-0.131,0.131-0.306,0.226-0.521,0.276      c-0.218,0.058-0.494,0.084-0.829,0.084c-0.324,0-0.596-0.026-0.812-0.084c-0.222-0.055-0.395-0.146-0.521-0.276      c-0.127-0.127-0.223-0.297-0.273-0.511c-0.058-0.213-0.083-0.475-0.083-0.786s0.024-0.572,0.083-0.779      c0.055-0.207,0.146-0.379,0.273-0.521c0.128-0.139,0.301-0.233,0.521-0.284c0.217-0.052,0.485-0.074,0.812-0.074      c0.335,0,0.611,0.022,0.829,0.074c0.217,0.051,0.392,0.146,0.521,0.284c0.128,0.142,0.216,0.313,0.267,0.521      S253.542,113.139,253.542,113.452z"/>
				<path fill="#DDDDDD" d="M269.174,131.314c0,0.188-0.005,0.354-0.016,0.494c-0.015,0.142-0.03,0.256-0.062,0.353      c-0.028,0.096-0.062,0.18-0.102,0.252c-0.04,0.071-0.129,0.183-0.271,0.315c-0.141,0.144-0.377,0.313-0.711,0.521      c-0.337,0.205-0.712,0.393-1.132,0.555c-0.418,0.158-0.874,0.293-1.366,0.396c-0.49,0.1-0.999,0.149-1.521,0.149      c-1.082,0-2.044-0.18-2.883-0.537c-0.839-0.356-1.537-0.881-2.104-1.565c-0.563-0.688-0.995-1.529-1.291-2.529      c-0.298-1-0.445-2.151-0.445-3.461c0-1.483,0.187-2.762,0.545-3.827c0.363-1.066,0.86-1.941,1.492-2.621      c0.631-0.685,1.375-1.188,2.229-1.521c0.854-0.328,1.776-0.494,2.771-0.494c0.479,0,0.947,0.045,1.398,0.138      c0.452,0.09,0.869,0.207,1.248,0.353c0.38,0.146,0.719,0.312,1.015,0.502c0.297,0.19,0.511,0.354,0.646,0.485      c0.135,0.135,0.227,0.237,0.274,0.315c0.051,0.08,0.094,0.172,0.125,0.274c0.035,0.106,0.061,0.229,0.067,0.361      c0.011,0.135,0.018,0.301,0.018,0.502c0,0.437-0.05,0.738-0.148,0.914c-0.103,0.174-0.227,0.26-0.369,0.26      c-0.167,0-0.359-0.092-0.579-0.274c-0.217-0.187-0.492-0.392-0.828-0.608c-0.336-0.228-0.74-0.431-1.217-0.613      c-0.476-0.188-1.033-0.273-1.687-0.273c-1.328,0-2.348,0.514-3.057,1.53c-0.708,1.022-1.063,2.507-1.063,4.448      c0,0.975,0.094,1.824,0.276,2.559c0.186,0.73,0.455,1.344,0.813,1.834c0.355,0.49,0.796,0.855,1.313,1.1      c0.521,0.238,1.115,0.359,1.785,0.359c0.637,0,1.195-0.104,1.676-0.305c0.479-0.197,0.896-0.422,1.248-0.661      c0.354-0.237,0.648-0.457,0.889-0.651c0.241-0.193,0.43-0.295,0.563-0.295c0.078,0,0.146,0.021,0.201,0.066      c0.057,0.046,0.104,0.119,0.144,0.229c0.038,0.104,0.066,0.24,0.084,0.398C269.167,130.896,269.174,131.092,269.174,131.314z"/>
				<path fill="#DDDDDD" d="M285.715,125.416c0,0.438-0.107,0.746-0.327,0.932c-0.221,0.184-0.471,0.273-0.75,0.273h-9.933      c0,0.838,0.083,1.594,0.253,2.263c0.167,0.673,0.445,1.245,0.842,1.729c0.394,0.479,0.903,0.852,1.532,1.104      c0.628,0.262,1.396,0.391,2.309,0.391c0.719,0,1.356-0.063,1.918-0.176c0.563-0.117,1.047-0.25,1.458-0.396      c0.41-0.146,0.745-0.275,1.009-0.393c0.269-0.117,0.468-0.179,0.601-0.179c0.08,0,0.147,0.021,0.212,0.062      c0.062,0.039,0.104,0.098,0.144,0.176c0.033,0.078,0.061,0.188,0.076,0.326s0.023,0.311,0.023,0.51      c0,0.146-0.005,0.271-0.02,0.379c-0.012,0.105-0.022,0.199-0.041,0.285c-0.019,0.082-0.045,0.158-0.085,0.225      c-0.039,0.068-0.087,0.133-0.147,0.193c-0.063,0.063-0.242,0.162-0.544,0.303c-0.304,0.141-0.693,0.275-1.175,0.41      c-0.479,0.135-1.034,0.254-1.668,0.359c-0.631,0.104-1.304,0.16-2.021,0.16c-1.239,0-2.324-0.177-3.258-0.521      c-0.938-0.35-1.722-0.859-2.354-1.541c-0.637-0.684-1.118-1.537-1.438-2.564c-0.324-1.024-0.486-2.225-0.486-3.586      c0-1.297,0.167-2.459,0.505-3.494c0.333-1.033,0.816-1.908,1.447-2.631c0.631-0.721,1.395-1.271,2.287-1.658      c0.895-0.385,1.894-0.576,2.999-0.576c1.185,0,2.191,0.189,3.023,0.568s1.519,0.891,2.056,1.531      c0.533,0.645,0.929,1.396,1.181,2.266c0.25,0.861,0.377,1.789,0.377,2.771L285.715,125.416L285.715,125.416z M282.932,124.596      c0.032-1.453-0.291-2.595-0.97-3.42c-0.685-0.826-1.688-1.24-3.025-1.24c-0.686,0-1.288,0.129-1.804,0.391      c-0.521,0.256-0.952,0.596-1.3,1.021c-0.352,0.424-0.619,0.918-0.812,1.481c-0.188,0.563-0.297,1.151-0.317,1.771h8.228V124.596      L282.932,124.596z"/>
				<path fill="#DDDDDD" d="M311.703,125.9c0,1.229-0.16,2.361-0.483,3.396c-0.324,1.033-0.809,1.927-1.449,2.675      c-0.645,0.745-1.444,1.332-2.413,1.752c-0.967,0.418-2.088,0.629-3.359,0.629c-1.238,0-2.317-0.187-3.242-0.556      c-0.921-0.366-1.688-0.903-2.303-1.608c-0.615-0.701-1.073-1.56-1.372-2.563c-0.306-1.004-0.455-2.146-0.455-3.418      c0-1.229,0.159-2.359,0.479-3.395c0.318-1.033,0.799-1.926,1.44-2.674c0.645-0.748,1.441-1.328,2.401-1.742      c0.963-0.414,2.083-0.619,3.37-0.619c1.239,0,2.32,0.184,3.243,0.555c0.92,0.365,1.688,0.902,2.303,1.605      c0.614,0.705,1.076,1.561,1.384,2.563C311.551,123.505,311.703,124.639,311.703,125.9z M308.839,126.087      c0-0.817-0.075-1.588-0.229-2.313c-0.149-0.728-0.399-1.357-0.751-1.908c-0.35-0.549-0.82-0.979-1.422-1.301      c-0.595-0.314-1.34-0.478-2.229-0.478c-0.821,0-1.529,0.146-2.122,0.435c-0.591,0.291-1.078,0.703-1.462,1.231      c-0.385,0.531-0.667,1.16-0.854,1.886c-0.188,0.729-0.279,1.521-0.279,2.381c0,0.826,0.076,1.604,0.229,2.33      c0.149,0.729,0.403,1.358,0.759,1.899c0.354,0.543,0.832,0.974,1.429,1.291c0.6,0.317,1.344,0.478,2.232,0.478      c0.813,0,1.516-0.146,2.111-0.437c0.6-0.291,1.088-0.696,1.474-1.224c0.382-0.524,0.664-1.149,0.844-1.877      C308.747,127.754,308.839,126.956,308.839,126.087z"/>
				<path fill="#DDDDDD" d="M324.037,112.329c0,0.213-0.014,0.385-0.032,0.512c-0.022,0.13-0.046,0.231-0.074,0.312      c-0.029,0.078-0.063,0.133-0.11,0.16c-0.044,0.024-0.101,0.041-0.167,0.041c-0.076,0-0.176-0.021-0.293-0.076      c-0.114-0.049-0.26-0.104-0.427-0.166c-0.167-0.063-0.365-0.115-0.595-0.168c-0.23-0.051-0.495-0.072-0.796-0.072      c-0.416,0-0.77,0.064-1.06,0.199c-0.291,0.135-0.521,0.346-0.701,0.627c-0.182,0.285-0.31,0.654-0.388,1.105      c-0.077,0.45-0.118,1.004-0.118,1.649v1.646h3.368c0.09,0,0.166,0.019,0.228,0.057c0.063,0.041,0.118,0.107,0.169,0.201      c0.052,0.098,0.09,0.215,0.117,0.358c0.025,0.146,0.042,0.324,0.042,0.535c0,0.403-0.053,0.694-0.149,0.873      c-0.103,0.181-0.235,0.271-0.403,0.271h-3.368v13.221c0,0.092-0.021,0.166-0.063,0.229c-0.046,0.063-0.122,0.113-0.229,0.16      c-0.104,0.043-0.249,0.076-0.426,0.102c-0.18,0.021-0.402,0.031-0.67,0.031c-0.27,0-0.493-0.012-0.671-0.031      c-0.179-0.021-0.319-0.059-0.429-0.102c-0.104-0.047-0.185-0.102-0.229-0.16c-0.044-0.063-0.063-0.137-0.063-0.229v-13.223      h-2.128c-0.181,0-0.313-0.088-0.401-0.27c-0.09-0.18-0.135-0.471-0.135-0.873c0-0.211,0.012-0.391,0.032-0.535      c0.021-0.146,0.057-0.268,0.103-0.359c0.045-0.095,0.104-0.16,0.169-0.201c0.063-0.036,0.145-0.057,0.232-0.057h2.128v-1.563      c0-1.051,0.099-1.951,0.292-2.705c0.194-0.754,0.495-1.371,0.896-1.854c0.399-0.479,0.905-0.834,1.516-1.063      c0.607-0.229,1.328-0.344,2.153-0.344c0.393,0,0.771,0.035,1.141,0.109c0.37,0.069,0.651,0.147,0.854,0.231      s0.335,0.157,0.401,0.228c0.063,0.065,0.124,0.153,0.166,0.26c0.046,0.104,0.075,0.233,0.095,0.387      C324.029,111.936,324.037,112.116,324.037,112.329z"/>
				<path fill="#DDDDDD" d="M337.209,133.594c0,0.088-0.021,0.166-0.066,0.233c-0.045,0.065-0.125,0.12-0.233,0.157      c-0.11,0.039-0.262,0.074-0.444,0.103c-0.187,0.026-0.416,0.041-0.693,0.041c-0.271,0-0.498-0.015-0.688-0.041      s-0.342-0.062-0.453-0.103c-0.11-0.037-0.188-0.092-0.233-0.157c-0.045-0.067-0.065-0.146-0.065-0.233v-20.813      c0-0.09,0.022-0.17,0.073-0.234c0.051-0.066,0.137-0.119,0.254-0.158c0.115-0.039,0.269-0.072,0.45-0.102      c0.188-0.027,0.405-0.043,0.662-0.043c0.277,0,0.51,0.016,0.693,0.043c0.186,0.027,0.333,0.063,0.444,0.102      c0.108,0.039,0.188,0.092,0.233,0.158c0.045,0.064,0.065,0.146,0.065,0.234L337.209,133.594L337.209,133.594z"/>
				<path fill="#DDDDDD" d="M355.641,133.609c0,0.091-0.021,0.166-0.065,0.228c-0.046,0.063-0.116,0.115-0.219,0.16      c-0.101,0.045-0.238,0.078-0.42,0.103c-0.18,0.021-0.398,0.03-0.67,0.03c-0.278,0-0.507-0.01-0.688-0.03      c-0.18-0.021-0.316-0.058-0.418-0.103c-0.103-0.045-0.175-0.101-0.22-0.16s-0.065-0.137-0.065-0.228v-8.832      c0-0.858-0.065-1.553-0.201-2.075c-0.134-0.521-0.327-0.979-0.586-1.354c-0.257-0.382-0.589-0.673-0.997-0.873      c-0.406-0.199-0.879-0.302-1.414-0.302c-0.693,0-1.389,0.244-2.079,0.736c-0.691,0.489-1.419,1.213-2.179,2.159v10.541      c0,0.091-0.022,0.166-0.065,0.228c-0.045,0.063-0.117,0.115-0.22,0.16c-0.102,0.045-0.239,0.078-0.418,0.103      c-0.179,0.021-0.408,0.03-0.688,0.03c-0.27,0-0.491-0.01-0.671-0.03c-0.178-0.021-0.32-0.058-0.428-0.103      c-0.104-0.045-0.179-0.101-0.217-0.16c-0.04-0.062-0.063-0.137-0.063-0.228v-15.082c0-0.088,0.02-0.164,0.053-0.228      c0.032-0.062,0.102-0.116,0.2-0.166c0.104-0.052,0.229-0.084,0.388-0.103c0.154-0.018,0.362-0.022,0.621-0.022      c0.243,0,0.447,0.009,0.608,0.022c0.162,0.019,0.287,0.051,0.377,0.103c0.087,0.05,0.154,0.104,0.191,0.166      c0.04,0.062,0.062,0.14,0.062,0.228v1.994c0.851-0.949,1.694-1.646,2.539-2.086c0.844-0.44,1.693-0.66,2.558-0.66      c1.004,0,1.852,0.168,2.539,0.511c0.688,0.34,1.241,0.797,1.666,1.366c0.426,0.568,0.729,1.234,0.911,2      c0.188,0.767,0.277,1.687,0.277,2.759L355.641,133.609L355.641,133.609z"/>
				<path fill="#DDDDDD" d="M368.21,132.503c0,0.324-0.021,0.58-0.067,0.771c-0.044,0.189-0.112,0.332-0.201,0.42      c-0.089,0.091-0.223,0.177-0.398,0.25c-0.183,0.08-0.383,0.146-0.61,0.193c-0.229,0.051-0.474,0.092-0.729,0.127      c-0.257,0.031-0.516,0.049-0.771,0.049c-0.782,0-1.454-0.104-2.013-0.311c-0.562-0.207-1.019-0.52-1.374-0.938      c-0.355-0.42-0.615-0.951-0.778-1.594c-0.163-0.644-0.242-1.398-0.242-2.271v-8.813h-2.11c-0.168,0-0.304-0.091-0.402-0.271      c-0.099-0.181-0.148-0.472-0.148-0.873c0-0.212,0.016-0.392,0.042-0.535c0.027-0.146,0.063-0.269,0.105-0.358      c0.046-0.096,0.104-0.16,0.178-0.201c0.072-0.037,0.152-0.059,0.245-0.059h2.093v-3.587c0-0.079,0.021-0.149,0.061-0.219      c0.04-0.063,0.108-0.125,0.219-0.179c0.104-0.051,0.247-0.088,0.429-0.106c0.18-0.021,0.4-0.032,0.669-0.032      c0.277,0,0.508,0.014,0.688,0.032c0.179,0.021,0.317,0.062,0.418,0.106c0.102,0.054,0.173,0.109,0.22,0.179      c0.045,0.063,0.066,0.14,0.066,0.219v3.587h3.868c0.091,0,0.168,0.021,0.233,0.059c0.064,0.041,0.126,0.105,0.178,0.201      c0.051,0.098,0.088,0.217,0.108,0.358c0.021,0.146,0.032,0.323,0.032,0.535c0,0.401-0.052,0.692-0.15,0.873      c-0.104,0.18-0.232,0.271-0.401,0.271h-3.868v8.41c0,1.038,0.149,1.821,0.46,2.354c0.308,0.531,0.854,0.8,1.648,0.8      c0.259,0,0.483-0.025,0.688-0.076c0.203-0.049,0.381-0.104,0.538-0.16c0.156-0.056,0.292-0.106,0.399-0.157      c0.114-0.05,0.215-0.074,0.304-0.074c0.056,0,0.107,0.016,0.157,0.041c0.053,0.026,0.091,0.082,0.117,0.16      s0.056,0.186,0.075,0.315C368.198,132.137,368.21,132.303,368.21,132.503z"/>
				<path fill="#DDDDDD" d="M384.362,125.416c0,0.438-0.107,0.746-0.326,0.932c-0.221,0.184-0.473,0.273-0.749,0.273h-9.933      c0,0.838,0.083,1.594,0.25,2.263c0.166,0.673,0.45,1.245,0.843,1.729c0.396,0.479,0.908,0.852,1.531,1.104      c0.63,0.262,1.399,0.391,2.309,0.391c0.724,0,1.358-0.063,1.923-0.176c0.562-0.117,1.044-0.25,1.455-0.396      c0.41-0.146,0.745-0.275,1.01-0.393c0.268-0.117,0.465-0.179,0.601-0.179c0.082,0,0.147,0.021,0.209,0.062      c0.063,0.039,0.109,0.098,0.146,0.176c0.031,0.078,0.061,0.188,0.077,0.326c0.016,0.138,0.021,0.311,0.021,0.51      c0,0.146-0.007,0.271-0.019,0.379c-0.01,0.105-0.023,0.199-0.042,0.285c-0.02,0.082-0.046,0.158-0.085,0.225      c-0.038,0.068-0.089,0.133-0.149,0.193c-0.061,0.063-0.243,0.162-0.543,0.303c-0.302,0.141-0.693,0.275-1.175,0.41      c-0.479,0.135-1.034,0.254-1.667,0.359c-0.63,0.104-1.306,0.16-2.021,0.16c-1.235,0-2.323-0.177-3.259-0.521      c-0.933-0.35-1.718-0.859-2.354-1.541c-0.638-0.684-1.116-1.537-1.438-2.564c-0.326-1.024-0.485-2.225-0.485-3.586      c0-1.297,0.168-2.459,0.501-3.494c0.337-1.033,0.817-1.908,1.449-2.631c0.633-0.721,1.396-1.271,2.287-1.658      c0.896-0.385,1.896-0.576,3-0.576c1.187,0,2.191,0.189,3.023,0.568s1.517,0.891,2.053,1.531      c0.537,0.645,0.932,1.396,1.184,2.266c0.251,0.861,0.376,1.789,0.376,2.771L384.362,125.416L384.362,125.416z M381.58,124.596      c0.031-1.453-0.289-2.595-0.971-3.42c-0.678-0.826-1.688-1.24-3.021-1.24c-0.688,0-1.291,0.129-1.808,0.391      c-0.521,0.256-0.952,0.596-1.303,1.021c-0.345,0.424-0.616,0.918-0.81,1.481c-0.189,0.563-0.297,1.151-0.316,1.771h8.228      V124.596L381.58,124.596z"/>
				<path fill="#DDDDDD" d="M397.385,119.518c0,0.246-0.006,0.453-0.021,0.619c-0.01,0.168-0.031,0.299-0.063,0.396      c-0.033,0.096-0.074,0.17-0.125,0.219c-0.053,0.053-0.119,0.076-0.209,0.076c-0.093,0-0.2-0.023-0.327-0.076      c-0.131-0.049-0.272-0.104-0.438-0.148c-0.159-0.053-0.344-0.1-0.542-0.145c-0.203-0.045-0.422-0.064-0.654-0.064      c-0.278,0-0.554,0.057-0.819,0.168c-0.269,0.109-0.551,0.295-0.849,0.553c-0.295,0.259-0.604,0.599-0.931,1.021      c-0.322,0.426-0.682,0.942-1.07,1.559v9.921c0,0.091-0.021,0.166-0.065,0.228c-0.044,0.063-0.119,0.115-0.22,0.16      s-0.238,0.078-0.418,0.102c-0.18,0.022-0.406,0.031-0.688,0.031c-0.271,0-0.491-0.01-0.67-0.031s-0.318-0.057-0.428-0.102      c-0.104-0.045-0.18-0.102-0.22-0.16s-0.061-0.137-0.061-0.228v-15.087c0-0.088,0.02-0.163,0.051-0.227      c0.033-0.063,0.103-0.117,0.199-0.166c0.104-0.053,0.229-0.084,0.39-0.104c0.154-0.018,0.361-0.021,0.618-0.021      c0.246,0,0.449,0.008,0.611,0.021c0.159,0.02,0.287,0.051,0.376,0.104c0.088,0.049,0.153,0.104,0.193,0.166      c0.037,0.061,0.057,0.139,0.057,0.227v2.195c0.415-0.604,0.801-1.096,1.166-1.477c0.362-0.379,0.707-0.68,1.028-0.896      c0.326-0.217,0.646-0.367,0.965-0.451c0.32-0.084,0.641-0.125,0.964-0.125c0.146,0,0.312,0.01,0.495,0.022      c0.184,0.019,0.377,0.048,0.578,0.093c0.199,0.045,0.383,0.094,0.545,0.149c0.161,0.06,0.274,0.112,0.345,0.168      c0.066,0.058,0.11,0.108,0.134,0.16c0.021,0.049,0.042,0.114,0.062,0.192c0.015,0.078,0.025,0.189,0.031,0.344      C397.381,119.057,397.385,119.26,397.385,119.518z"/>
				<path fill="#DDDDDD" d="M413.52,133.609c0,0.091-0.022,0.166-0.066,0.228c-0.046,0.063-0.115,0.115-0.22,0.16      c-0.1,0.045-0.238,0.078-0.418,0.103c-0.178,0.021-0.401,0.03-0.67,0.03c-0.279,0-0.508-0.01-0.687-0.03      c-0.183-0.021-0.318-0.058-0.422-0.103c-0.101-0.045-0.174-0.101-0.219-0.16s-0.063-0.137-0.063-0.228v-8.832      c0-0.858-0.068-1.553-0.201-2.075c-0.136-0.521-0.328-0.979-0.586-1.354c-0.258-0.382-0.591-0.673-0.997-0.873      c-0.408-0.199-0.879-0.302-1.415-0.302c-0.694,0-1.387,0.244-2.079,0.736c-0.692,0.489-1.419,1.213-2.178,2.159v10.541      c0,0.091-0.023,0.166-0.067,0.228c-0.045,0.063-0.117,0.115-0.217,0.16c-0.102,0.045-0.24,0.078-0.42,0.103      c-0.18,0.021-0.406,0.03-0.688,0.03c-0.269,0-0.487-0.01-0.67-0.03c-0.179-0.021-0.322-0.058-0.428-0.103      s-0.179-0.101-0.219-0.16c-0.037-0.062-0.062-0.137-0.062-0.228v-15.082c0-0.088,0.021-0.164,0.052-0.228      c0.033-0.062,0.104-0.116,0.201-0.166c0.104-0.052,0.229-0.084,0.388-0.103c0.154-0.018,0.36-0.022,0.617-0.022      c0.246,0,0.448,0.009,0.612,0.022c0.162,0.019,0.286,0.051,0.376,0.103c0.09,0.05,0.152,0.104,0.192,0.166s0.06,0.14,0.06,0.228      v1.994c0.854-0.949,1.695-1.646,2.538-2.086c0.844-0.44,1.696-0.66,2.557-0.66c1.008,0,1.854,0.168,2.539,0.511      c0.688,0.34,1.242,0.797,1.667,1.366c0.426,0.568,0.729,1.234,0.912,2c0.188,0.767,0.277,1.687,0.277,2.759L413.52,133.609      L413.52,133.609z"/>
				<path fill="#DDDDDD" d="M429.926,133.626c0,0.134-0.045,0.231-0.138,0.302c-0.089,0.069-0.212,0.118-0.366,0.151      c-0.155,0.032-0.387,0.049-0.688,0.049c-0.289,0-0.521-0.017-0.695-0.049c-0.172-0.033-0.299-0.084-0.377-0.151      c-0.079-0.068-0.114-0.168-0.114-0.302v-1.51c-0.659,0.704-1.396,1.254-2.204,1.644c-0.813,0.393-1.667,0.588-2.572,0.588      c-0.792,0-1.511-0.104-2.151-0.312c-0.644-0.207-1.188-0.507-1.644-0.896c-0.452-0.395-0.807-0.871-1.059-1.44      c-0.251-0.57-0.377-1.22-0.377-1.943c0-0.85,0.176-1.588,0.521-2.213c0.344-0.625,0.842-1.146,1.49-1.56      c0.646-0.414,1.438-0.723,2.379-0.928c0.938-0.209,1.996-0.313,3.167-0.313h2.078v-1.173c0-0.582-0.063-1.096-0.188-1.543      c-0.121-0.444-0.319-0.815-0.594-1.112c-0.274-0.295-0.629-0.521-1.064-0.67s-0.972-0.229-1.605-0.229      c-0.684,0-1.292,0.082-1.835,0.244c-0.541,0.161-1.02,0.34-1.423,0.534c-0.408,0.194-0.75,0.375-1.023,0.536      c-0.273,0.162-0.478,0.242-0.609,0.242c-0.091,0-0.168-0.021-0.232-0.065c-0.069-0.045-0.125-0.112-0.175-0.2      c-0.053-0.09-0.091-0.203-0.11-0.345c-0.021-0.142-0.032-0.294-0.032-0.462c0-0.277,0.021-0.5,0.061-0.661      c0.041-0.161,0.136-0.315,0.283-0.459c0.15-0.146,0.411-0.315,0.778-0.513c0.368-0.198,0.795-0.375,1.273-0.539      c0.479-0.159,1.005-0.295,1.574-0.398c0.566-0.104,1.146-0.158,1.729-0.158c1.082,0,2.005,0.121,2.765,0.367      c0.763,0.246,1.374,0.605,1.846,1.082c0.469,0.475,0.809,1.063,1.021,1.768c0.212,0.703,0.318,1.523,0.318,2.464      L429.926,133.626L429.926,133.626z M427.177,126.738h-2.362c-0.759,0-1.418,0.066-1.978,0.193      c-0.563,0.129-1.023,0.316-1.395,0.568c-0.37,0.25-0.64,0.555-0.812,0.902c-0.172,0.349-0.261,0.76-0.261,1.217      c0,0.781,0.246,1.402,0.742,1.867c0.499,0.465,1.193,0.693,2.086,0.693c0.729,0,1.399-0.185,2.021-0.554      c0.62-0.367,1.27-0.935,1.952-1.69L427.177,126.738L427.177,126.738z"/>
				<path fill="#DDDDDD" d="M447.804,118.094c0.335,0,0.563,0.075,0.688,0.225c0.121,0.152,0.187,0.371,0.187,0.662v14.629      c0,0.094-0.022,0.166-0.067,0.229c-0.045,0.062-0.121,0.113-0.227,0.16c-0.106,0.043-0.249,0.076-0.431,0.101      c-0.178,0.021-0.396,0.032-0.647,0.032c-0.279,0-0.51-0.012-0.688-0.032c-0.178-0.021-0.318-0.058-0.428-0.101      c-0.104-0.047-0.182-0.103-0.227-0.16c-0.046-0.062-0.067-0.137-0.067-0.229v-13.221h-7.792v8.412      c0,1.038,0.153,1.821,0.462,2.354c0.306,0.531,0.856,0.8,1.649,0.8c0.258,0,0.484-0.024,0.687-0.076      c0.202-0.049,0.38-0.104,0.538-0.16c0.155-0.057,0.289-0.106,0.402-0.157c0.107-0.049,0.212-0.074,0.301-0.074      c0.055,0,0.11,0.016,0.161,0.041c0.049,0.027,0.088,0.082,0.115,0.16c0.024,0.078,0.053,0.186,0.073,0.315      c0.022,0.138,0.033,0.304,0.033,0.504c0,0.322-0.021,0.576-0.064,0.763c-0.046,0.188-0.112,0.324-0.201,0.42      s-0.227,0.184-0.402,0.261c-0.18,0.077-0.382,0.146-0.612,0.19c-0.228,0.051-0.473,0.092-0.728,0.127      c-0.258,0.032-0.515,0.051-0.771,0.051c-0.778,0-1.448-0.104-2.01-0.312c-0.559-0.207-1.018-0.521-1.375-0.938      c-0.354-0.42-0.617-0.949-0.778-1.594c-0.16-0.644-0.241-1.396-0.241-2.271v-8.813h-2.111c-0.167,0-0.303-0.09-0.402-0.27      c-0.102-0.18-0.147-0.471-0.147-0.873c0-0.213,0.015-0.391,0.042-0.534c0.027-0.146,0.062-0.267,0.105-0.36      c0.043-0.094,0.104-0.16,0.178-0.201c0.071-0.037,0.151-0.057,0.243-0.057h2.097v-3.591c0-0.077,0.02-0.149,0.06-0.218      c0.037-0.064,0.11-0.125,0.218-0.178c0.105-0.053,0.247-0.088,0.431-0.107c0.178-0.021,0.398-0.033,0.67-0.033      c0.277,0,0.507,0.014,0.687,0.033c0.181,0.021,0.318,0.059,0.419,0.107c0.104,0.053,0.175,0.108,0.221,0.178      c0.043,0.064,0.063,0.141,0.063,0.218v3.589H447.804L447.804,118.094z M448.993,113.436c0,0.646-0.125,1.088-0.365,1.322      c-0.247,0.235-0.7,0.352-1.359,0.352c-0.647,0-1.091-0.109-1.33-0.344c-0.242-0.228-0.36-0.66-0.36-1.299      c0-0.646,0.121-1.089,0.366-1.322c0.249-0.232,0.699-0.353,1.36-0.353c0.646,0,1.091,0.114,1.331,0.343      C448.874,112.363,448.993,112.798,448.993,113.436z"/>
				<path fill="#DDDDDD" d="M467.827,125.9c0,1.229-0.158,2.361-0.482,3.396c-0.323,1.033-0.812,1.927-1.451,2.675      c-0.642,0.745-1.446,1.332-2.412,1.752c-0.965,0.418-2.085,0.629-3.357,0.629c-1.238,0-2.319-0.187-3.241-0.556      c-0.92-0.366-1.69-0.903-2.309-1.608c-0.61-0.701-1.067-1.56-1.375-2.563c-0.301-1.004-0.447-2.146-0.447-3.418      c0-1.229,0.155-2.359,0.478-3.395c0.317-1.033,0.799-1.926,1.442-2.674c0.64-0.748,1.438-1.328,2.401-1.742      c0.959-0.414,2.081-0.619,3.365-0.619c1.241,0,2.323,0.184,3.243,0.555c0.922,0.365,1.688,0.902,2.305,1.605      c0.614,0.705,1.075,1.561,1.383,2.563C467.677,123.505,467.827,124.639,467.827,125.9z M464.966,126.087      c0-0.817-0.079-1.588-0.23-2.313c-0.146-0.728-0.397-1.357-0.751-1.908c-0.349-0.549-0.826-0.979-1.423-1.301      c-0.596-0.314-1.341-0.478-2.23-0.478c-0.819,0-1.526,0.146-2.121,0.435c-0.592,0.291-1.075,0.703-1.462,1.231      c-0.384,0.531-0.672,1.16-0.854,1.886c-0.184,0.729-0.28,1.521-0.28,2.381c0,0.826,0.076,1.604,0.229,2.33      c0.146,0.729,0.4,1.358,0.759,1.899c0.358,0.543,0.832,0.974,1.43,1.291c0.602,0.317,1.34,0.478,2.232,0.478      c0.812,0,1.516-0.146,2.115-0.437c0.597-0.291,1.084-0.696,1.469-1.224c0.386-0.524,0.665-1.149,0.846-1.877      C464.876,127.755,464.966,126.956,464.966,126.087z"/>
				<path fill="#DDDDDD" d="M484.888,133.609c0,0.091-0.023,0.166-0.067,0.228c-0.046,0.063-0.118,0.115-0.219,0.16      c-0.1,0.045-0.241,0.078-0.418,0.103c-0.178,0.021-0.402,0.03-0.672,0.03c-0.278,0-0.506-0.01-0.688-0.03      c-0.178-0.021-0.313-0.058-0.417-0.103c-0.1-0.045-0.173-0.101-0.217-0.16c-0.045-0.062-0.063-0.137-0.063-0.228v-8.832      c0-0.858-0.068-1.553-0.201-2.075c-0.14-0.521-0.329-0.979-0.586-1.354c-0.263-0.382-0.595-0.673-0.999-0.873      c-0.407-0.199-0.877-0.302-1.414-0.302c-0.695,0-1.391,0.244-2.079,0.736c-0.693,0.489-1.418,1.213-2.178,2.159v10.541      c0,0.091-0.023,0.166-0.067,0.228c-0.046,0.063-0.117,0.115-0.217,0.16c-0.104,0.045-0.243,0.078-0.42,0.103      c-0.182,0.021-0.406,0.03-0.688,0.03c-0.269,0-0.491-0.01-0.669-0.03c-0.179-0.021-0.322-0.058-0.428-0.103      c-0.106-0.045-0.179-0.101-0.218-0.16c-0.038-0.062-0.062-0.137-0.062-0.228v-15.082c0-0.088,0.021-0.164,0.05-0.228      c0.032-0.062,0.104-0.116,0.202-0.166c0.104-0.052,0.229-0.084,0.384-0.103c0.157-0.018,0.364-0.022,0.621-0.022      c0.245,0,0.449,0.009,0.61,0.022c0.164,0.019,0.289,0.051,0.377,0.103c0.09,0.05,0.154,0.104,0.194,0.166      c0.038,0.062,0.059,0.14,0.059,0.228v1.994c0.85-0.949,1.696-1.646,2.539-2.086c0.844-0.44,1.696-0.66,2.556-0.66      c1.005,0,1.854,0.168,2.539,0.511c0.688,0.34,1.242,0.797,1.666,1.366c0.425,0.568,0.73,1.234,0.915,2      c0.188,0.767,0.277,1.687,0.277,2.759v9.198H484.888z"/>
				<path fill="#DDDDDD" d="M501.294,133.626c0,0.134-0.048,0.231-0.137,0.302c-0.089,0.067-0.213,0.118-0.371,0.151      c-0.151,0.032-0.384,0.049-0.687,0.049c-0.289,0-0.522-0.017-0.694-0.049c-0.173-0.033-0.299-0.084-0.377-0.151      c-0.078-0.068-0.117-0.168-0.117-0.302v-1.51c-0.655,0.704-1.395,1.254-2.204,1.644c-0.811,0.393-1.668,0.588-2.568,0.588      c-0.792,0-1.512-0.104-2.153-0.312c-0.641-0.208-1.188-0.507-1.645-0.896c-0.45-0.395-0.807-0.871-1.058-1.44      c-0.253-0.57-0.377-1.22-0.377-1.943c0-0.85,0.173-1.588,0.521-2.213c0.347-0.625,0.846-1.146,1.488-1.56      c0.647-0.414,1.441-0.723,2.383-0.928c0.938-0.209,1.992-0.313,3.167-0.313h2.075v-1.173c0-0.582-0.062-1.096-0.187-1.543      c-0.121-0.444-0.319-0.815-0.594-1.112c-0.275-0.295-0.629-0.521-1.063-0.67c-0.437-0.149-0.972-0.229-1.605-0.229      c-0.685,0-1.292,0.082-1.837,0.244c-0.539,0.161-1.019,0.34-1.427,0.534c-0.403,0.194-0.749,0.375-1.021,0.536      c-0.274,0.162-0.479,0.242-0.611,0.242c-0.09,0-0.169-0.021-0.23-0.065c-0.068-0.045-0.126-0.112-0.181-0.2      c-0.05-0.09-0.086-0.203-0.104-0.345c-0.021-0.142-0.033-0.294-0.033-0.462c0-0.277,0.021-0.5,0.058-0.661      c0.039-0.161,0.138-0.315,0.286-0.459c0.151-0.146,0.41-0.315,0.777-0.513c0.371-0.194,0.795-0.375,1.271-0.539      c0.479-0.159,1.009-0.295,1.576-0.398c0.568-0.104,1.146-0.158,1.729-0.158c1.082,0,2.003,0.121,2.763,0.367      s1.375,0.605,1.843,1.082c0.474,0.475,0.813,1.063,1.022,1.768c0.212,0.703,0.315,1.523,0.315,2.464v10.172L501.294,133.626      L501.294,133.626z M498.547,126.738h-2.363c-0.759,0-1.418,0.066-1.979,0.193c-0.559,0.129-1.021,0.316-1.392,0.568      c-0.368,0.25-0.638,0.555-0.811,0.902c-0.178,0.354-0.263,0.76-0.263,1.217c0,0.781,0.247,1.402,0.744,1.867      c0.499,0.465,1.191,0.693,2.086,0.693c0.729,0,1.399-0.185,2.021-0.554c0.62-0.367,1.269-0.935,1.953-1.69L498.547,126.738      L498.547,126.738z"/>
				<path fill="#DDDDDD" d="M509.135,133.609c0,0.091-0.022,0.166-0.068,0.228c-0.043,0.063-0.117,0.115-0.219,0.16      c-0.104,0.045-0.24,0.078-0.417,0.103c-0.178,0.021-0.409,0.03-0.688,0.03c-0.268,0-0.488-0.01-0.669-0.03      c-0.179-0.021-0.318-0.058-0.428-0.103c-0.104-0.045-0.178-0.101-0.218-0.16s-0.063-0.137-0.063-0.228v-22.387      c0-0.09,0.021-0.168,0.063-0.232s0.112-0.121,0.218-0.168c0.106-0.047,0.25-0.076,0.428-0.102      c0.181-0.021,0.401-0.033,0.669-0.033c0.278,0,0.513,0.014,0.688,0.033c0.177,0.021,0.318,0.055,0.417,0.102      c0.102,0.047,0.176,0.104,0.219,0.168c0.045,0.064,0.068,0.146,0.068,0.232V133.609z"/>
				<path fill="#DDDDDD" d="M538.561,133.005c0.089,0.248,0.136,0.445,0.141,0.597c0.005,0.149-0.03,0.27-0.124,0.346      c-0.09,0.076-0.233,0.129-0.44,0.148c-0.208,0.022-0.485,0.032-0.829,0.032c-0.352,0-0.625-0.008-0.831-0.024      c-0.206-0.016-0.362-0.043-0.469-0.082c-0.107-0.039-0.188-0.094-0.235-0.162c-0.05-0.063-0.097-0.146-0.142-0.25l-1.861-5.275      h-9.015l-1.776,5.211c-0.032,0.104-0.078,0.188-0.134,0.264c-0.059,0.07-0.141,0.133-0.243,0.184      c-0.106,0.052-0.255,0.089-0.452,0.109c-0.194,0.021-0.449,0.031-0.76,0.031c-0.327,0-0.591-0.014-0.798-0.041      c-0.207-0.025-0.354-0.082-0.438-0.158s-0.125-0.191-0.119-0.346c0.011-0.148,0.06-0.35,0.146-0.594l7.271-20.146      c0.043-0.123,0.104-0.224,0.181-0.302c0.066-0.077,0.178-0.142,0.313-0.185c0.144-0.047,0.319-0.075,0.537-0.094      c0.219-0.02,0.495-0.024,0.831-0.024c0.356,0,0.654,0.008,0.888,0.024c0.234,0.018,0.422,0.047,0.568,0.094      c0.146,0.043,0.256,0.105,0.337,0.191c0.076,0.084,0.138,0.188,0.183,0.311L538.561,133.005z M529.226,115.227h-0.016      l-3.738,10.811h7.542L529.226,115.227z"/>
				<path fill="#DDDDDD" d="M559.675,112.313c0,0.355-0.028,0.612-0.083,0.771c-0.061,0.152-0.157,0.23-0.307,0.23      c-0.088,0-0.188-0.021-0.31-0.064c-0.118-0.045-0.264-0.1-0.437-0.156c-0.177-0.063-0.37-0.119-0.599-0.172      c-0.223-0.049-0.479-0.072-0.77-0.072c-0.827,0-1.41,0.285-1.751,0.854c-0.344,0.568-0.514,1.479-0.514,2.729v1.659h3.367      c0.09,0,0.168,0.021,0.235,0.058c0.063,0.041,0.126,0.106,0.176,0.201c0.05,0.096,0.087,0.217,0.109,0.36      c0.021,0.146,0.03,0.321,0.03,0.535c0,0.401-0.049,0.692-0.143,0.873c-0.095,0.179-0.232,0.269-0.412,0.269h-3.367v13.221      c0,0.092-0.021,0.166-0.063,0.229c-0.045,0.063-0.121,0.115-0.229,0.16c-0.104,0.045-0.249,0.078-0.427,0.102      c-0.178,0.022-0.401,0.031-0.669,0.031c-0.271,0-0.492-0.01-0.67-0.031c-0.182-0.021-0.322-0.057-0.427-0.102      c-0.108-0.045-0.186-0.102-0.229-0.16c-0.046-0.063-0.064-0.137-0.064-0.229v-13.219h-6.771v13.221      c0,0.093-0.021,0.166-0.063,0.229c-0.046,0.063-0.122,0.113-0.229,0.16c-0.104,0.043-0.25,0.076-0.428,0.103      c-0.18,0.021-0.403,0.03-0.669,0.03c-0.271,0-0.494-0.012-0.672-0.03c-0.182-0.021-0.32-0.06-0.43-0.103      c-0.104-0.047-0.183-0.103-0.228-0.16c-0.043-0.063-0.065-0.137-0.065-0.229v-13.221h-2.129c-0.178,0-0.313-0.088-0.4-0.269      c-0.091-0.179-0.135-0.47-0.135-0.873c0-0.211,0.011-0.39,0.032-0.535c0.021-0.146,0.06-0.267,0.104-0.36      c0.045-0.094,0.104-0.16,0.17-0.201c0.063-0.035,0.144-0.057,0.231-0.057h2.128v-1.425c0-1.039,0.104-1.933,0.303-2.674      c0.2-0.742,0.501-1.354,0.904-1.836c0.399-0.479,0.9-0.834,1.497-1.062c0.6-0.229,1.295-0.35,2.089-0.35      c0.489,0,0.922,0.043,1.289,0.127c0.368,0.084,0.67,0.18,0.905,0.273c0.111,0.049,0.201,0.104,0.27,0.168      c0.064,0.068,0.121,0.154,0.167,0.262c0.044,0.105,0.075,0.232,0.095,0.389c0.017,0.148,0.021,0.332,0.021,0.545      c0,0.355-0.027,0.615-0.083,0.777c-0.058,0.16-0.156,0.242-0.302,0.242c-0.09,0-0.192-0.023-0.313-0.076      c-0.115-0.049-0.267-0.104-0.441-0.166c-0.178-0.063-0.381-0.118-0.604-0.168c-0.225-0.051-0.479-0.075-0.771-0.075      c-0.827,0-1.409,0.284-1.743,0.854c-0.335,0.57-0.503,1.479-0.503,2.731v1.457h6.771v-1.627c0-1.039,0.104-1.93,0.312-2.672      c0.208-0.742,0.512-1.354,0.912-1.836c0.402-0.479,0.902-0.834,1.502-1.063c0.596-0.229,1.292-0.344,2.086-0.344      c0.479,0,0.905,0.041,1.277,0.127c0.376,0.082,0.683,0.174,0.914,0.273c0.102,0.045,0.188,0.102,0.262,0.168      c0.072,0.066,0.129,0.152,0.167,0.262c0.038,0.104,0.065,0.232,0.083,0.385C559.665,111.917,559.675,112.1,559.675,112.313z"/>
				<path fill="#DDDDDD" d="M572.576,133.626c0,0.134-0.044,0.231-0.135,0.302c-0.091,0.071-0.212,0.118-0.368,0.151      c-0.152,0.032-0.387,0.049-0.688,0.049c-0.291,0-0.523-0.017-0.696-0.049c-0.173-0.033-0.299-0.084-0.377-0.151      c-0.08-0.068-0.118-0.168-0.118-0.302v-1.51c-0.658,0.704-1.393,1.254-2.202,1.644c-0.811,0.393-1.668,0.588-2.568,0.588      c-0.794,0-1.516-0.104-2.154-0.312c-0.644-0.207-1.188-0.507-1.644-0.896c-0.452-0.395-0.807-0.871-1.059-1.44      c-0.25-0.57-0.376-1.22-0.376-1.943c0-0.85,0.175-1.588,0.521-2.213c0.346-0.625,0.842-1.146,1.487-1.56      c0.647-0.414,1.442-0.723,2.383-0.928c0.938-0.209,1.99-0.313,3.167-0.313h2.075v-1.173c0-0.582-0.061-1.096-0.185-1.543      c-0.125-0.444-0.322-0.815-0.594-1.112c-0.274-0.295-0.628-0.521-1.064-0.67c-0.434-0.149-0.972-0.229-1.606-0.229      c-0.686,0-1.292,0.082-1.834,0.244c-0.541,0.161-1.019,0.34-1.428,0.534c-0.403,0.194-0.749,0.375-1.02,0.536      c-0.276,0.162-0.48,0.242-0.613,0.242c-0.09,0-0.168-0.021-0.231-0.065c-0.067-0.045-0.13-0.112-0.182-0.2      c-0.049-0.09-0.083-0.203-0.104-0.345c-0.023-0.142-0.035-0.294-0.035-0.462c0-0.277,0.021-0.5,0.059-0.661      c0.04-0.161,0.137-0.315,0.285-0.459c0.151-0.146,0.41-0.315,0.778-0.513c0.37-0.194,0.792-0.375,1.271-0.539      c0.479-0.159,1.009-0.295,1.574-0.398c0.571-0.104,1.146-0.158,1.729-0.158c1.085,0,2.005,0.121,2.765,0.367      s1.375,0.605,1.846,1.082c0.47,0.475,0.813,1.063,1.021,1.768c0.212,0.703,0.315,1.523,0.315,2.464L572.576,133.626      L572.576,133.626z M569.826,126.738h-2.359c-0.761,0-1.418,0.066-1.979,0.193c-0.559,0.129-1.021,0.316-1.39,0.568      c-0.37,0.25-0.645,0.555-0.813,0.902c-0.169,0.349-0.261,0.76-0.261,1.217c0,0.781,0.249,1.402,0.748,1.867      c0.497,0.465,1.193,0.693,2.086,0.693c0.724,0,1.4-0.185,2.021-0.554c0.615-0.367,1.271-0.935,1.948-1.69L569.826,126.738      L569.826,126.738z"/>
				<path fill="#DDDDDD" d="M580.737,113.436c0,0.646-0.123,1.088-0.368,1.322c-0.247,0.235-0.696,0.352-1.354,0.352      c-0.646,0-1.091-0.109-1.331-0.344c-0.242-0.228-0.363-0.66-0.363-1.299c0-0.646,0.124-1.089,0.37-1.322      c0.246-0.232,0.7-0.353,1.358-0.353c0.646,0,1.091,0.114,1.332,0.343C580.615,112.363,580.737,112.798,580.737,113.436z       M580.42,133.609c0,0.091-0.022,0.166-0.067,0.228c-0.045,0.063-0.118,0.115-0.217,0.16c-0.104,0.045-0.239,0.078-0.419,0.103      c-0.182,0.021-0.407,0.03-0.688,0.03c-0.268,0-0.492-0.01-0.669-0.03c-0.18-0.021-0.32-0.058-0.428-0.103      c-0.106-0.045-0.178-0.101-0.217-0.16c-0.041-0.062-0.062-0.137-0.062-0.228v-15.082c0-0.075,0.021-0.149,0.062-0.217      c0.039-0.065,0.107-0.123,0.217-0.168c0.104-0.043,0.248-0.078,0.428-0.104c0.178-0.021,0.402-0.03,0.669-0.03      c0.28,0,0.509,0.011,0.688,0.03c0.18,0.021,0.314,0.061,0.419,0.104c0.1,0.045,0.172,0.103,0.217,0.168      c0.045,0.064,0.067,0.142,0.067,0.217V133.609z"/>
				<path fill="#DDDDDD" d="M594.344,119.518c0,0.246-0.005,0.453-0.019,0.619c-0.013,0.168-0.033,0.299-0.064,0.396      c-0.033,0.096-0.077,0.17-0.126,0.219c-0.05,0.053-0.122,0.076-0.21,0.076c-0.092,0-0.199-0.023-0.328-0.076      c-0.127-0.049-0.273-0.104-0.438-0.148c-0.164-0.053-0.344-0.1-0.546-0.145c-0.201-0.045-0.417-0.064-0.649-0.064      c-0.277,0-0.555,0.057-0.821,0.168c-0.269,0.109-0.55,0.295-0.844,0.553c-0.298,0.259-0.607,0.599-0.935,1.021      c-0.32,0.426-0.681,0.942-1.07,1.559v9.921c0,0.091-0.021,0.166-0.066,0.228c-0.044,0.063-0.117,0.115-0.216,0.16      c-0.104,0.045-0.242,0.078-0.422,0.102c-0.182,0.022-0.406,0.031-0.688,0.031c-0.266,0-0.49-0.01-0.669-0.031      s-0.32-0.057-0.428-0.102c-0.106-0.045-0.177-0.102-0.217-0.16c-0.039-0.062-0.062-0.137-0.062-0.228v-15.087      c0-0.088,0.02-0.163,0.05-0.227c0.033-0.063,0.104-0.117,0.201-0.166c0.104-0.053,0.229-0.084,0.384-0.104      c0.157-0.018,0.363-0.021,0.621-0.021c0.246,0,0.449,0.008,0.613,0.021c0.161,0.02,0.287,0.051,0.376,0.104      c0.09,0.049,0.153,0.104,0.192,0.166c0.037,0.061,0.058,0.139,0.058,0.227v2.195c0.414-0.604,0.803-1.096,1.165-1.477      c0.366-0.379,0.708-0.68,1.032-0.896c0.319-0.217,0.644-0.367,0.963-0.451c0.313-0.084,0.638-0.125,0.963-0.125      c0.146,0,0.31,0.01,0.495,0.022c0.185,0.019,0.376,0.048,0.577,0.093c0.197,0.045,0.383,0.094,0.545,0.149      c0.161,0.06,0.271,0.112,0.342,0.168c0.067,0.058,0.114,0.108,0.136,0.16c0.021,0.049,0.042,0.114,0.059,0.192      c0.019,0.078,0.026,0.189,0.032,0.344C594.342,119.057,594.344,119.26,594.344,119.518z"/>
				<path fill="#DDDDDD" d="M606.374,129.503c0,0.771-0.142,1.459-0.429,2.062c-0.285,0.604-0.688,1.111-1.212,1.523      c-0.523,0.412-1.147,0.729-1.878,0.939c-0.726,0.211-1.524,0.318-2.396,0.318c-0.535,0-1.05-0.043-1.532-0.129      c-0.486-0.084-0.922-0.188-1.311-0.316c-0.387-0.127-0.713-0.262-0.979-0.4c-0.269-0.141-0.465-0.268-0.587-0.379      c-0.122-0.109-0.212-0.268-0.271-0.469c-0.057-0.201-0.084-0.475-0.084-0.82c0-0.213,0.015-0.393,0.033-0.537      c0.022-0.145,0.052-0.262,0.082-0.352c0.036-0.09,0.083-0.152,0.146-0.193c0.062-0.037,0.132-0.059,0.209-0.059      c0.124,0,0.305,0.076,0.546,0.227c0.239,0.15,0.537,0.316,0.889,0.494c0.354,0.182,0.77,0.346,1.249,0.494      c0.479,0.15,1.033,0.229,1.657,0.229c0.471,0,0.895-0.053,1.271-0.15c0.383-0.1,0.71-0.246,0.99-0.44s0.495-0.442,0.646-0.746      c0.149-0.303,0.228-0.655,0.228-1.071c0-0.422-0.109-0.779-0.326-1.07c-0.219-0.291-0.506-0.549-0.861-0.771      c-0.357-0.225-0.763-0.422-1.208-0.596c-0.443-0.172-0.905-0.354-1.384-0.543c-0.475-0.189-0.938-0.406-1.391-0.646      s-0.857-0.533-1.214-0.879c-0.358-0.349-0.646-0.761-0.863-1.24c-0.217-0.479-0.328-1.058-0.328-1.728      c0-0.592,0.116-1.157,0.349-1.7c0.229-0.541,0.567-1.017,1.026-1.425c0.458-0.407,1.03-0.733,1.721-0.979      c0.688-0.246,1.485-0.365,2.402-0.365c0.402,0,0.807,0.031,1.206,0.1c0.402,0.066,0.769,0.15,1.088,0.252      c0.324,0.104,0.604,0.207,0.832,0.326c0.229,0.117,0.401,0.225,0.521,0.313c0.116,0.09,0.194,0.168,0.233,0.231      c0.038,0.065,0.066,0.146,0.082,0.229c0.021,0.082,0.032,0.188,0.053,0.311c0.019,0.123,0.021,0.271,0.021,0.452      c0,0.188-0.006,0.354-0.021,0.494c-0.021,0.142-0.048,0.254-0.084,0.345c-0.038,0.088-0.089,0.152-0.145,0.191      c-0.056,0.037-0.118,0.059-0.185,0.059c-0.104,0-0.247-0.063-0.438-0.186s-0.438-0.254-0.737-0.396      c-0.303-0.139-0.653-0.271-1.063-0.395s-0.876-0.185-1.397-0.185c-0.472,0-0.885,0.054-1.239,0.158      c-0.358,0.104-0.65,0.258-0.882,0.45c-0.229,0.197-0.4,0.429-0.521,0.695c-0.117,0.271-0.174,0.562-0.174,0.873      c0,0.437,0.107,0.803,0.333,1.098c0.224,0.298,0.515,0.556,0.873,0.779c0.354,0.224,0.765,0.424,1.222,0.603      c0.458,0.181,0.926,0.364,1.4,0.553c0.474,0.19,0.94,0.404,1.407,0.64c0.464,0.233,0.871,0.521,1.229,0.854      s0.646,0.737,0.864,1.209C606.266,128.298,606.374,128.855,606.374,129.503z"/>
				<path fill="#DDDDDD" d="M613.983,131.633c0,0.346-0.018,0.663-0.05,0.954c-0.033,0.289-0.088,0.563-0.167,0.819      c-0.079,0.259-0.183,0.513-0.311,0.763c-0.131,0.254-0.288,0.521-0.479,0.798l-2.296,3.452      c-0.055,0.078-0.119,0.146-0.191,0.199c-0.069,0.058-0.163,0.106-0.269,0.151c-0.106,0.045-0.229,0.072-0.369,0.092      c-0.14,0.019-0.315,0.025-0.527,0.025c-0.188,0-0.349-0.012-0.478-0.025c-0.127-0.019-0.22-0.045-0.277-0.084      c-0.056-0.039-0.087-0.09-0.091-0.159c-0.006-0.065,0.013-0.146,0.058-0.233l2.229-4.604v-2.146      c0-0.304,0.031-0.541,0.092-0.722c0.063-0.181,0.159-0.313,0.294-0.399c0.133-0.093,0.301-0.15,0.501-0.187      c0.201-0.033,0.447-0.054,0.737-0.054c0.279,0,0.519,0.021,0.722,0.054c0.201,0.03,0.367,0.094,0.494,0.187      c0.13,0.09,0.226,0.225,0.287,0.399C613.952,131.089,613.983,131.331,613.983,131.633z"/>
				<path fill="#DDDDDD" d="M643.357,132.839c0,0.224-0.038,0.414-0.112,0.567c-0.069,0.156-0.173,0.285-0.296,0.388      c-0.122,0.101-0.256,0.173-0.406,0.218c-0.149,0.045-0.296,0.067-0.444,0.067h-0.954c-0.303,0-0.564-0.03-0.79-0.095      c-0.229-0.063-0.439-0.172-0.641-0.334c-0.203-0.162-0.403-0.383-0.609-0.662c-0.202-0.278-0.414-0.637-0.646-1.071      l-6.609-12.334c-0.35-0.638-0.692-1.304-1.045-2.002c-0.354-0.698-0.686-1.377-0.982-2.035h-0.034      c0.022,0.804,0.039,1.623,0.055,2.464c0.01,0.838,0.016,1.67,0.016,2.495v13.089c0,0.077-0.022,0.151-0.074,0.225      c-0.042,0.074-0.12,0.133-0.229,0.17c-0.112,0.037-0.268,0.072-0.442,0.104c-0.183,0.027-0.42,0.041-0.698,0.041      c-0.28,0-0.52-0.014-0.702-0.041c-0.179-0.025-0.322-0.063-0.432-0.104c-0.104-0.037-0.185-0.096-0.229-0.17      c-0.055-0.068-0.073-0.146-0.073-0.225v-20.009c0-0.446,0.128-0.767,0.379-0.955c0.258-0.19,0.53-0.284,0.832-0.284h1.419      c0.336,0,0.615,0.026,0.838,0.084c0.225,0.055,0.423,0.146,0.604,0.276c0.179,0.127,0.352,0.308,0.521,0.535      c0.167,0.229,0.347,0.517,0.524,0.862l5.089,9.519c0.312,0.582,0.614,1.146,0.905,1.7c0.291,0.554,0.57,1.099,0.844,1.632      c0.268,0.539,0.537,1.065,0.804,1.586c0.264,0.521,0.524,1.041,0.781,1.567h0.018c-0.021-0.885-0.029-1.803-0.038-2.76      c-0.007-0.953-0.011-1.873-0.011-2.756V112.83c0-0.078,0.022-0.15,0.073-0.221c0.044-0.064,0.122-0.125,0.231-0.176      c0.117-0.052,0.264-0.086,0.447-0.107c0.179-0.021,0.416-0.033,0.716-0.033c0.258,0,0.479,0.014,0.669,0.033      c0.189,0.021,0.334,0.061,0.44,0.107c0.104,0.051,0.185,0.108,0.229,0.176c0.052,0.066,0.071,0.143,0.071,0.221L643.357,132.839      L643.357,132.839z"/>
				<path fill="#DDDDDD" d="M663.6,130.962c0,0.181-0.005,0.334-0.018,0.47c-0.014,0.135-0.027,0.252-0.059,0.354      c-0.025,0.103-0.063,0.188-0.112,0.269c-0.045,0.077-0.12,0.174-0.229,0.284c-0.113,0.111-0.347,0.281-0.705,0.513      c-0.355,0.229-0.8,0.453-1.331,0.67c-0.528,0.22-1.136,0.399-1.825,0.555c-0.688,0.148-1.438,0.229-2.256,0.229      c-1.407,0-2.675-0.234-3.81-0.703c-1.136-0.473-2.104-1.162-2.899-2.078c-0.799-0.916-1.413-2.049-1.841-3.396      c-0.433-1.348-0.649-2.896-0.649-4.646c0-1.799,0.233-3.399,0.698-4.813c0.462-1.404,1.109-2.602,1.949-3.578      c0.838-0.979,1.843-1.724,3.011-2.234c1.166-0.516,2.457-0.771,3.877-0.771c0.625,0,1.232,0.059,1.826,0.174      c0.591,0.117,1.139,0.27,1.642,0.445c0.504,0.178,0.95,0.387,1.345,0.617c0.391,0.234,0.663,0.43,0.813,0.578      c0.15,0.149,0.245,0.27,0.291,0.348c0.044,0.074,0.083,0.17,0.11,0.273c0.025,0.104,0.052,0.229,0.064,0.377      c0.02,0.146,0.021,0.317,0.021,0.521c0,0.225-0.012,0.414-0.033,0.568c-0.021,0.156-0.057,0.287-0.102,0.395      c-0.046,0.104-0.104,0.188-0.162,0.232c-0.063,0.053-0.134,0.076-0.226,0.076c-0.158,0-0.382-0.107-0.658-0.328      c-0.276-0.217-0.644-0.455-1.093-0.719c-0.438-0.265-0.976-0.502-1.608-0.722c-0.639-0.219-1.396-0.328-2.283-0.328      c-0.966,0-1.848,0.193-2.639,0.578c-0.793,0.388-1.473,0.953-2.025,1.701c-0.564,0.748-1,1.662-1.309,2.737      c-0.312,1.078-0.467,2.312-0.467,3.695c0,1.375,0.151,2.59,0.449,3.646c0.295,1.057,0.727,1.938,1.278,2.646      c0.557,0.709,1.238,1.245,2.048,1.606c0.805,0.362,1.723,0.545,2.744,0.545c0.864,0,1.619-0.104,2.266-0.315      c0.649-0.213,1.197-0.449,1.649-0.713c0.458-0.265,0.833-0.5,1.123-0.716c0.289-0.211,0.521-0.315,0.688-0.315      c0.078,0,0.146,0.02,0.2,0.053c0.057,0.031,0.104,0.098,0.136,0.191s0.063,0.229,0.077,0.395      C663.595,130.495,663.6,130.706,663.6,130.962z"/>
				<path fill="#DDDDDD" d="M681.178,113.585c0,0.211-0.014,0.396-0.033,0.554c-0.023,0.155-0.056,0.28-0.104,0.377      c-0.052,0.094-0.108,0.166-0.187,0.209c-0.073,0.045-0.156,0.065-0.246,0.065h-6.099v18.804c0,0.088-0.021,0.166-0.067,0.233      c-0.045,0.065-0.123,0.12-0.231,0.157c-0.11,0.039-0.259,0.074-0.44,0.103c-0.185,0.028-0.42,0.041-0.699,0.041      c-0.268,0-0.496-0.015-0.686-0.041c-0.191-0.026-0.341-0.062-0.453-0.103c-0.111-0.037-0.189-0.092-0.234-0.157      c-0.045-0.067-0.063-0.146-0.063-0.233V114.79h-6.104c-0.091,0-0.169-0.021-0.235-0.065c-0.072-0.043-0.139-0.115-0.184-0.209      c-0.043-0.097-0.078-0.222-0.104-0.377c-0.027-0.156-0.046-0.343-0.046-0.554c0-0.213,0.019-0.399,0.046-0.562      c0.023-0.164,0.062-0.295,0.104-0.396c0.045-0.104,0.107-0.174,0.184-0.219c0.066-0.043,0.146-0.066,0.235-0.066h15.081      c0.09,0,0.173,0.023,0.246,0.066c0.074,0.045,0.135,0.113,0.188,0.219c0.05,0.102,0.08,0.229,0.104,0.396      C681.165,113.186,681.178,113.374,681.178,113.585z"/>
				<path fill="#DDDDDD" d="M700.616,126.02c0,1.314-0.188,2.492-0.572,3.523c-0.391,1.035-0.938,1.908-1.654,2.625      c-0.713,0.714-1.586,1.257-2.613,1.623c-1.024,0.369-2.192,0.557-3.503,0.557c-1.192,0-2.284-0.176-3.267-0.521      c-0.984-0.351-1.828-0.854-2.533-1.533c-0.701-0.676-1.244-1.521-1.623-2.539c-0.379-1.017-0.57-2.188-0.57-3.521v-13.451      c0-0.09,0.022-0.17,0.066-0.234c0.044-0.066,0.125-0.119,0.233-0.158c0.109-0.039,0.26-0.072,0.438-0.102      c0.181-0.027,0.413-0.043,0.704-0.043c0.269,0,0.496,0.016,0.688,0.043c0.19,0.027,0.344,0.063,0.447,0.102      c0.104,0.039,0.178,0.092,0.221,0.158c0.049,0.064,0.07,0.146,0.07,0.234v13.104c0,1.006,0.121,1.881,0.367,2.631      s0.604,1.371,1.063,1.869c0.469,0.495,1.023,0.87,1.68,1.123c0.648,0.25,1.385,0.377,2.198,0.377      c0.841,0,1.591-0.123,2.239-0.369c0.654-0.246,1.205-0.615,1.659-1.104c0.45-0.49,0.797-1.104,1.039-1.826      c0.24-0.729,0.358-1.572,0.358-2.547v-13.257c0-0.091,0.021-0.171,0.062-0.234c0.046-0.065,0.123-0.118,0.236-0.157      c0.106-0.039,0.264-0.072,0.442-0.103c0.188-0.026,0.413-0.043,0.692-0.043c0.269,0,0.498,0.017,0.681,0.043      c0.188,0.026,0.329,0.063,0.438,0.103c0.104,0.039,0.186,0.092,0.232,0.157c0.053,0.063,0.072,0.146,0.072,0.234v13.237h0.009      V126.02z"/>
			</g>
			<g>
				<path fill="#DDDDDD" d="M208.337,66.909h25.787v27.104h-2.049v-1.498h-21.781v1.498h-1.957V66.909z M210.293,90.618h21.781      V68.805h-21.781V90.618z M211.792,85.907c2.388-0.396,5.938-1.07,9.48-1.711l0.095,1.375c-3.185,0.703-6.428,1.406-8.476,1.805      c-0.031,0.246-0.186,0.366-0.367,0.456L211.792,85.907z M223.569,74.678c0.275,2.816,0.704,5.446,1.259,7.588      c1.067-1.771,1.895-3.793,2.443-6.025l2.143,0.52c-0.063,0.218-0.243,0.31-0.611,0.31c-0.733,2.691-1.864,5.137-3.304,7.22      c0.732,1.835,1.772,3.18,2.812,3.18c0.46,0,0.77-1.313,0.979-3.271c0.336,0.333,0.979,0.764,1.347,0.979      c-0.338,2.813-1.07,4.129-2.233,4.129c-0.215,0-0.429-0.029-0.673-0.123c-1.469-0.272-2.566-1.469-3.457-3.304      c-1.254,1.501-2.723,2.755-4.374,3.735c-0.245-0.338-0.766-0.951-1.132-1.254c1.835-1.043,3.457-2.481,4.802-4.225      c-0.824-2.537-1.376-5.843-1.741-9.453h-9.729v-1.59h9.574c-0.092-1.132-0.188-2.295-0.246-3.457l2.447,0.123      c-0.029,0.245-0.243,0.396-0.61,0.458c0.03,0.979,0.092,1.927,0.183,2.876h6.979v1.59L223.569,74.678L223.569,74.678z       M213.261,76.758h6.911v6.059h-6.911V76.758z M218.613,81.471v-3.365h-3.854v3.365H218.613z M226.107,69.358      c1.226,0.52,2.691,1.375,3.43,2.109l-0.979,1.133c-0.731-0.703-2.204-1.653-3.428-2.233L226.107,69.358z"/>
				<path fill="#DDDDDD" d="M253.875,90.464h27.746v2.05h-27.746V90.464z M280.763,71.711v2.02h-25.819v-2.02h11.657v-6.238      l2.725,0.184c-0.03,0.214-0.186,0.367-0.612,0.43v5.626L280.763,71.711L280.763,71.711z M261.033,75.415      c1.591,4.129,2.688,9.391,2.876,12.91c-0.216,0-0.432,0.031-2.112,0.457c-0.121-3.457-1.223-8.779-2.722-12.877L261.033,75.415z       M277.151,75.811c-0.089,0.213-0.362,0.396-0.763,0.429c-0.918,4.039-2.631,10.003-4.069,13.37l-1.834-0.523      c1.349-3.484,2.905-9.635,3.699-13.916L277.151,75.811z"/>
				<path fill="#DDDDDD" d="M309.723,78.196c1.067,2.726,2.602,5.078,4.588,7.068c1.987-1.959,3.52-4.344,4.589-7.252l2.57,0.856      c-0.063,0.187-0.338,0.31-0.705,0.276c-1.19,2.996-2.845,5.443-4.895,7.494c3.271,2.66,7.522,4.435,12.726,5.293      c-0.458,0.457-1.072,1.375-1.375,1.957c-5.324-1.037-9.604-2.936-12.972-5.812c-3.396,2.784-7.739,4.649-12.938,5.903      c-0.245-0.521-0.796-1.407-1.192-1.866c5.076-1.104,9.332-2.813,12.636-5.446c-2.111-2.171-3.767-4.804-4.985-7.861      L309.723,78.196z M311.192,73.731c-0.093,0.246-0.366,0.274-0.674,0.246c-2.109,2.722-5.445,5.475-8.441,7.278      c-0.339-0.459-1.07-1.19-1.529-1.559c2.906-1.563,6.271-4.255,8.198-7.005L311.192,73.731z M327.831,69.602v2.019H300.67v-2.019      h12.479v-4.158l2.69,0.148c-0.03,0.217-0.186,0.37-0.61,0.432v3.578H327.831z M326.302,80.981      c-1.651-2.049-5.262-5.047-8.26-7.127l1.683-1.224c2.938,1.958,6.605,4.863,8.383,6.912L326.302,80.981z"/>
				<path fill="#DDDDDD" d="M353.211,77.709v10.063c2.354,3.641,6.698,3.641,12.515,3.641c3.336,0,7.25-0.061,9.637-0.215      c-0.249,0.459-0.554,1.408-0.677,2.021c-2.079,0.063-5.381,0.123-8.438,0.123c-6.7,0-10.892,0-13.919-3.821      c-1.622,1.405-3.306,2.752-4.684,3.791c0,0.274-0.061,0.397-0.272,0.488l-1.161-2.201c1.496-0.979,3.36-2.324,5.016-3.672      v-8.261h-4.617V77.71L353.211,77.709L353.211,77.709z M348.593,66.174c1.987,1.407,4.282,3.52,5.263,5.081l-1.528,1.406      c-0.979-1.56-3.214-3.765-5.199-5.229L348.593,66.174z M365.786,73.243c-1.928-0.948-4.282-1.987-6.271-2.723l1.347-1.192      c1.348,0.489,2.904,1.101,4.403,1.774c1.623-0.735,3.334-1.683,4.647-2.634h-13.396v-1.68h15.51l0.337-0.095l1.563,1.009      c-0.09,0.125-0.305,0.216-0.487,0.248c-1.562,1.346-3.914,2.873-6.271,4.006c0.947,0.429,1.805,0.887,2.509,1.285h3.946V87.16      c0,2.019-0.644,2.233-5.199,2.233c-0.095-0.551-0.338-1.254-0.583-1.742c0.888,0.029,1.746,0.058,2.354,0.058      c1.316,0,1.472,0,1.472-0.549v-3.12h-5.753v5.169h-1.862V84.04h-5.541v5.292h-1.954v-16.09L365.786,73.243L365.786,73.243z       M364.043,74.895h-5.541v2.906h5.541V74.895z M358.503,82.42h5.541v-3.029h-5.541V82.42z M371.658,77.801v-2.906h-5.755v2.906      H371.658z M365.905,82.42h5.755v-3.029h-5.755V82.42z"/>
				<path fill="#DDDDDD" d="M420.964,76.577H409c1.988,7.311,5.937,12.941,12.448,15.355c-0.521,0.459-1.188,1.315-1.525,1.928      c-6.396-2.631-10.278-8.049-12.545-15.418c-1.408,6.058-4.742,12.053-12.633,15.449c-0.308-0.552-0.948-1.285-1.471-1.742      c8.075-3.275,11.104-9.395,12.267-15.572h-11.807v-2.11h12.146c0.396-3.182,0.364-6.304,0.396-8.962l2.876,0.151      c-0.031,0.274-0.273,0.43-0.675,0.521c-0.03,2.418-0.062,5.295-0.427,8.292h12.91L420.964,76.577L420.964,76.577z"/>
				<path fill="#DDDDDD" d="M467.387,85.936v1.746h-12.576v3.976c0,2.204-0.916,2.233-6.179,2.233      c-0.089-0.52-0.432-1.256-0.704-1.773c1.135,0.031,2.229,0.061,3.031,0.061c1.647,0,1.834,0,1.834-0.58v-3.914H440.22v-1.746      h12.573v-1.864l1.592,0.091c1.347-0.58,2.721-1.346,3.854-2.109h-12.514v-1.592h14.714l0.337-0.122l1.529,1.04      c-0.09,0.122-0.307,0.215-0.459,0.245c-1.772,1.315-4.526,2.875-7.037,3.886v0.426h12.577L467.387,85.936L467.387,85.936z       M442.669,78.196v3.917h-1.955v-5.564h2.477l-0.611-9.731l1.65,0.432c1.439-0.432,3.091-1.042,4.131-1.501l1.348,1.408      c-0.093,0.093-0.216,0.123-0.336,0.123c-0.062,0-0.153,0-0.219-0.03c-1.128,0.396-3.023,0.915-4.557,1.284l0.096,1.407h4.708      v1.496h-4.588l0.091,1.808h4.649v1.467h-4.559l0.12,1.839h17.472l0.183-1.839h-4.68v-1.467h4.802l0.155-1.808h-4.807v-1.498      h4.895l0.123-1.808h-5.141v-1.467h7.158c-0.153,3.151-0.427,7.158-0.705,9.884h2.45v5.564h-2.021v-3.918L442.669,78.196      L442.669,78.196z M457.164,66.451c-0.06,0.185-0.271,0.276-0.577,0.245c-0.431,0.49-0.916,0.979-1.473,1.467      c0.705,0.492,1.318,0.98,1.747,1.408l-1.103,1.041c-0.429-0.461-1.069-0.979-1.806-1.529c-0.979,0.734-2.018,1.406-3.027,1.896      c-0.245-0.274-0.769-0.735-1.071-0.979c0.949-0.461,1.96-1.07,2.875-1.745c-0.673-0.458-1.375-0.856-2.049-1.224l1.074-0.916      c0.669,0.335,1.403,0.762,2.139,1.193c0.518-0.461,1.01-0.98,1.407-1.5L457.164,66.451z M452.003,71.405      c0.67,0.339,1.375,0.766,2.073,1.227c0.613-0.553,1.162-1.135,1.596-1.715l1.862,0.674c-0.061,0.186-0.334,0.246-0.608,0.215      c-0.462,0.551-1.011,1.101-1.622,1.65c0.731,0.551,1.404,1.104,1.864,1.593l-1.104,1.007c-0.457-0.488-1.132-1.07-1.926-1.649      c-0.979,0.766-2.082,1.438-3.089,1.926c-0.246-0.245-0.771-0.731-1.104-0.979c0.979-0.457,2.021-1.102,2.998-1.805      c-0.675-0.458-1.378-0.886-2.021-1.253L452.003,71.405z"/>
				<path fill="#DDDDDD" d="M487.442,66.909h25.789v27.104h-2.051v-1.498h-21.778v1.498h-1.96V66.909L487.442,66.909z       M489.402,90.618h21.778V68.805h-21.778V90.618L489.402,90.618z M490.899,85.907c2.385-0.396,5.937-1.07,9.486-1.711      l0.087,1.375c-3.184,0.703-6.424,1.406-8.474,1.805c-0.026,0.246-0.188,0.366-0.365,0.456L490.899,85.907z M502.677,74.678      c0.271,2.816,0.705,5.446,1.254,7.588c1.072-1.771,1.896-3.793,2.445-6.025l2.143,0.52c-0.061,0.218-0.242,0.31-0.613,0.31      c-0.73,2.691-1.86,5.137-3.303,7.22c0.735,1.835,1.773,3.18,2.814,3.18c0.459,0,0.764-1.313,0.979-3.271      c0.337,0.333,0.979,0.764,1.347,0.979c-0.339,2.813-1.066,4.129-2.229,4.129c-0.215,0-0.434-0.029-0.675-0.123      c-1.472-0.272-2.57-1.469-3.455-3.304c-1.254,1.501-2.728,2.755-4.376,3.735c-0.245-0.338-0.768-0.951-1.134-1.254      c1.836-1.043,3.456-2.481,4.805-4.225c-0.828-2.537-1.377-5.843-1.746-9.453h-9.729v-1.59h9.574      c-0.091-1.132-0.185-2.295-0.246-3.457l2.447,0.123c-0.03,0.245-0.242,0.396-0.609,0.458c0.027,0.979,0.095,1.927,0.185,2.876      h6.976v1.59L502.677,74.678L502.677,74.678z M492.366,76.758h6.912v6.059h-6.912V76.758z M497.719,81.471v-3.365h-3.854v3.365      H497.719z M505.217,69.358c1.224,0.52,2.688,1.375,3.427,2.109l-0.979,1.133c-0.729-0.703-2.198-1.653-3.425-2.233      L505.217,69.358z"/>
				<path fill="#DDDDDD" d="M540.199,66.727l1.254,0.763c-0.024,0.092-0.119,0.214-0.212,0.276      c-0.643,2.354-1.594,5.569-2.444,8.139c1.866,2.631,2.567,4.83,2.567,6.82c0,4.252-2.021,4.313-4.188,4.19      c-0.03-0.492-0.188-1.255-0.432-1.715c0.397,0.03,0.77,0.03,1.104,0.03c0.947,0,1.742,0,1.742-2.629      c-0.03-1.774-0.646-3.918-2.539-6.519c0.766-2.321,1.526-5.229,2.049-7.401h-3.426v25.237h-1.834V66.817h6.058L540.199,66.727z       M545.343,70.917c0.764,0.43,1.647,1.041,2.322,1.594c0.397-0.891,0.73-1.807,1.011-2.787h-3.731      c-0.949,1.896-2.17,3.613-3.486,4.806c-0.307-0.277-0.891-0.765-1.313-1.013c2.017-1.771,3.729-4.832,4.708-8.072l2.141,0.58      c-0.06,0.211-0.271,0.306-0.606,0.306c-0.188,0.58-0.435,1.192-0.673,1.774h3.762l0.368-0.061      c0.885,0.334,1.04,0.396,1.163,0.488c-0.063,0.152-0.155,0.246-0.244,0.335c-1.35,5.874-4.651,10.37-8.478,12.758      c-0.245-0.431-0.765-1.071-1.189-1.407c1.436-0.826,2.845-2.05,4.067-3.58c-0.677-0.674-1.651-1.498-2.511-2.078l0.947-0.918      c0.796,0.519,1.712,1.254,2.354,1.865c0.398-0.551,0.736-1.131,1.071-1.714c-0.673-0.642-1.651-1.377-2.506-1.864      L545.343,70.917z M546.507,87.221c-1.074,2.051-2.816,4.223-4.473,5.633c-0.304-0.34-0.942-0.891-1.346-1.196      c1.563-1.254,3.211-3.364,4.222-5.476c1.621,0.551,1.93,0.644,2.201,0.767C547.052,87.128,546.84,87.221,546.507,87.221z       M559.197,84.897h-7.188v6.852c0,1.928-0.736,2.173-5.078,2.173c-0.094-0.519-0.399-1.286-0.675-1.772      c1.559,0.027,2.901,0.027,3.305,0c0.399-0.031,0.49-0.092,0.49-0.461v-6.791h-6.855v-1.772h16L559.197,84.897L559.197,84.897z       M546.105,80.093v-1.71h9.973v1.71H546.105z M559.564,68.012l1.319,0.793c-0.035,0.153-0.221,0.215-0.339,0.277      c-0.857,2.322-2.354,5.107-3.917,7.035c1.313,1.623,2.905,2.906,4.739,3.762c-0.428,0.368-1.009,1.042-1.283,1.561      c-5.021-2.661-8.05-8.075-9.546-14.988l1.651-0.365c0.705,3.271,1.835,6.209,3.426,8.624c1.04-1.405,2.021-3.272,2.659-4.985      h-4.344v-1.619h5.294L559.564,68.012z M558.983,92.606c-0.792-1.469-2.66-3.732-4.344-5.354l1.5-0.945      c1.682,1.558,3.604,3.73,4.467,5.229L558.983,92.606z"/>
				<path fill="#DDDDDD" d="M607.399,83.522v1.68h-3.246v5.541h-2.076v-1.41h-7.771v2.08c0,1.377-0.4,1.928-1.317,2.232      c-0.945,0.305-2.567,0.305-5.168,0.305c-0.095-0.486-0.459-1.283-0.732-1.773c1.133,0.034,2.264,0.063,3.091,0.063      c1.864,0,2.049,0,2.049-0.796v-2.111H582.04V87.71h10.188v-2.508h-12.818v-1.68h12.816v-2.328h-9.911v-1.56h9.911v-2.049h-8.995      v-5.903h8.995v-1.928h-12.271v-1.742h12.271v-2.57l2.663,0.149c-0.032,0.246-0.188,0.4-0.582,0.433v1.988h12.512v1.742h-12.512      v1.928h9.42v5.903h-9.42v2.049h9.847v3.888H607.399z M585.219,76.085h7.007v-2.903h-7.007V76.085z M601.617,73.182h-7.312v2.903      h7.312V73.182z M594.307,81.194v2.328h7.771v-2.328H594.307z M602.076,87.709v-2.508h-7.771v2.508H602.076z"/>
				<path fill="#DDDDDD" d="M653.673,70.612h-2.569c-0.854,2.293-2.14,4.25-3.761,5.904c1.985,1.496,4.312,2.631,6.849,3.303      c-0.425,0.397-0.977,1.193-1.284,1.744c-2.6-0.797-4.957-2.08-6.973-3.732c-2.049,1.713-4.495,3.029-7.251,3.979      c-0.216-0.369-0.614-0.92-0.948-1.348c-0.459,1.375-0.978,2.662-1.531,3.671l-1.468-0.733c0.646-1.315,1.284-3.334,1.806-5.17      h-3.213v13.215c0,2.232-1.006,2.354-4.771,2.354c-0.088-0.519-0.366-1.377-0.669-1.927c0.792,0.031,1.559,0.063,2.138,0.063      c1.228,0,1.35,0,1.35-0.49v-10.71c-1.227,3.15-2.938,6.274-4.706,8.078c-0.225-0.551-0.737-1.375-1.108-1.865      c1.961-1.896,3.951-5.414,5.11-8.719h-4.864v-1.836h8.565c-1.528-1.438-4.526-3.305-7.033-4.437l1.279-1.313      c0.979,0.428,2.021,0.946,3.028,1.496c1.283-0.916,2.569-2.14,3.546-3.305h-9.021V67.03h10.609l0.368-0.093l1.53,0.949      c-0.062,0.123-0.273,0.242-0.429,0.273c-1.19,1.623-3.151,3.52-5.043,4.896c1.063,0.672,1.979,1.346,2.653,1.957l-1.254,1.377      h3.122l1.104,0.062c0,0.397-0.77,2.874-0.979,3.61c2.507-0.828,4.771-1.991,6.635-3.518c-1.188-1.229-2.262-2.602-3.114-4.102      c-0.736,1.009-1.528,1.929-2.322,2.691c-0.403-0.367-1.134-0.919-1.625-1.223c2.171-1.896,4.16-5.139,5.26-8.475l2.509,0.731      c-0.062,0.218-0.302,0.338-0.643,0.31c-0.274,0.765-0.609,1.528-1.007,2.295h10.123L653.673,70.612L653.673,70.612z       M651.225,83.336l1.194,0.246c0,0.186-0.034,0.428-0.122,0.613c-0.558,5.719-1.104,7.979-1.96,8.838      c-0.675,0.674-1.35,0.795-3.151,0.795c-0.643,0-1.407,0-2.171-0.061c-0.061-0.582-0.241-1.406-0.582-1.93      c1.38,0.124,2.665,0.154,3.157,0.154c0.517,0,0.792-0.061,1.063-0.307c0.582-0.58,1.041-2.326,1.468-6.516h-4.983      c-1.039,3.578-3.059,6.852-7.646,8.777c-0.212-0.456-0.792-1.16-1.222-1.528c3.885-1.526,5.78-4.19,6.792-7.249h-4.743v-1.771      h5.201c0.244-1.07,0.396-2.205,0.52-3.307l2.634,0.246c-0.063,0.243-0.274,0.367-0.646,0.428      c-0.123,0.889-0.247,1.742-0.425,2.633h5.166L651.225,83.336z M642.566,70.612l-0.123,0.213c0.86,1.652,2.021,3.152,3.43,4.468      c1.284-1.345,2.357-2.877,3.093-4.681H642.566z"/>
				<path fill="#DDDDDD" d="M676.727,72.905v5.996c0,4.373-0.396,10.736-3.025,15.021c-0.344-0.364-1.164-1.008-1.625-1.224      c2.45-4.039,2.691-9.727,2.691-13.797v-7.678h10.248v-5.75l2.66,0.15c-0.028,0.245-0.214,0.368-0.609,0.432v1.435h10.771v1.593      h-10.771v2.141h11.775L700,71.318c0,0.459-1.282,3.793-2.141,5.199l-1.742-0.521c0.459-0.824,0.914-1.959,1.314-3.09h-9.974      c-0.091,0.092-0.244,0.185-0.49,0.215v1.864l7.953-0.519l0.123,1.438l-8.076,0.521v1.162c0,0.765,0.31,0.949,2.208,0.949h6.938      c1.285,0,1.531-0.277,1.652-1.987c0.426,0.271,1.188,0.487,1.709,0.579c-0.212,2.388-0.854,2.938-3.177,2.938h-7.228      c-3.211,0-4.063-0.43-4.063-2.479v-1.039l-6.396,0.427l-0.091-1.438l6.482-0.427v-2.204L676.727,72.905L676.727,72.905z       M685.993,81.655l1.015,0.365c0,0.152-0.089,0.246-0.149,0.309c-0.615,2.814-1.687,5.109-3.096,6.943      c2.269,2.051,5.354,2.507,9.088,2.507c0.917,0,6.67,0,7.859-0.03c-0.273,0.428-0.582,1.254-0.674,1.775h-7.273      c-4.285,0-7.653-0.584-10.104-2.969c-1.497,1.531-3.301,2.661-5.319,3.457c-0.216-0.429-0.646-1.1-0.979-1.47      c1.928-0.672,3.705-1.772,5.172-3.303c-0.703-0.978-1.314-2.201-1.862-3.699c-0.679,0.976-1.408,1.862-2.146,2.567      c-0.244-0.307-0.824-0.856-1.16-1.161c1.838-1.746,3.67-4.712,4.741-7.738l2.112,0.67c-0.063,0.187-0.273,0.275-0.615,0.275      c-0.212,0.521-0.424,1.038-0.703,1.562h3.765L685.993,81.655z M681.101,83.274l-0.366,0.645      c0.488,1.684,1.133,2.998,1.897,4.037c0.978-1.314,1.739-2.873,2.262-4.682H681.101z M696.243,87.344      c0,0.98,0.027,1.102,0.609,1.102c1.441,0,1.747,0,1.809-0.764c0.06-0.399,0.092-1.258,0.118-2.418      c0.34,0.308,0.948,0.58,1.407,0.733c-0.091,2.784-0.122,3.979-2.324,3.979h-1.374c-2.048,0-2.048-1.228-2.048-2.816v-3.824      H690.8v0.919c0,2.021-0.521,4.495-2.939,6.3c-0.246-0.336-0.916-0.978-1.283-1.223c2.111-1.561,2.506-3.488,2.506-5.137v-2.51      h7.162L696.243,87.344L696.243,87.344z"/>
			</g>
		</g>
	</g>
</g>
</svg>