<?xml version="1.0" encoding="utf-8"?>
<!-- Generator: $$$/GeneralStr/196=Adobe Illustrator 27.6.0, SVG Export Plug-In . SVG Version: 6.00 Build 0)  -->
<svg version="1.1" id="圖層_1" xmlns="http://www.w3.org/2000/svg" xmlns:xlink="http://www.w3.org/1999/xlink" x="0px" y="0px"
	 viewBox="0 0 1800 1080" style="enable-background:new 0 0 1800 1080;" xml:space="preserve">
<style type="text/css">
	.st0{display:none;fill:#FFFFFF;}
	.st1{fill:#370796;}
	.st2{fill:#DB1E1E;}
</style>
<rect x="-180" y="-108" class="st0" width="2160" height="1296"/>
<rect x="-180" y="-108" class="st0" width="2160" height="1296"/>
<g>
	<g transform="translate(41.538743, 461.336658)">
		<g>
			<path class="st1" d="M45.4,153.8H130v-362.4h0.6l320.8,362.4h109.9v-447.7h-85.3V67.9h-0.6L155.3-293.9H45.4V153.8z"/>
		</g>
	</g>
</g>
<g>
	<g transform="translate(473.55375, 514.551491)">
		<g>
			<path class="st1" d="M189.4,171.5h87.2v-447.9h-87.2V171.5z"/>
		</g>
	</g>
</g>
<g>
	<g transform="translate(673.765835, 587.296704)">
		<g>
			<path class="st2" d="M227.9,195.8h120.3l67.2-128.6h368.4l67.2,128.6h121.1L668.5-392.5H534.1L227.9,195.8z M449.5-13.3
				l150.2-295.4h1.6L750.7-13.3H449.5z"/>
		</g>
	</g>
</g>
<g>
	<g transform="translate(466.353414, 764.124058)">
		<g>
			<path class="st1" d="M444.1,269.9c139.6,0,233.1-58.1,233.1-144c0-72-57.5-110.5-190.8-128.9L381.6-17.6
				C311.5-27,281.8-44.7,281.8-75c0-41.1,55.6-69.5,133.3-69.5c77.7,0,149.1,31.6,183.8,76.4l41.1-51.2
				c-39.8-52.4-126.3-89.1-225.5-89.1c-128.2,0-219.2,52.4-219.2,139c0,69.5,49.9,104.9,166.8,120l106.1,16.4
				c85.9,12,122.6,32.9,122.6,66.3c0,41.1-56.9,71.4-142.1,71.4c-104.2,0-200.2-44.2-233.1-108l-47.4,50.5
				C210.4,219.3,319.7,269.9,444.1,269.9z"/>
		</g>
	</g>
</g>
<g>
	<g transform="translate(1105.192692, 283.337545)">
		<g>
			<path class="st2" d="M495.8,15.5h61.5V-84.8h101.5v-51.3H557.3v-96.4h-61.5v96.4h-102v51.3h102V15.5z"/>
		</g>
	</g>
</g>
</svg>
