<?xml version="1.0" encoding="utf-8"?>
<!-- Generator: Adobe Illustrator 23.0.0, SVG Export Plug-In . SVG Version: 6.00 Build 0)  -->
<svg version="1.1" id="layer1" xmlns="http://www.w3.org/2000/svg" xmlns:xlink="http://www.w3.org/1999/xlink" x="0px" y="0px"
	 viewBox="0 0 56 50" style="enable-background:new 0 0 56 50;" xml:space="preserve">
<style type="text/css">
	.st0{fill:#333333;}
	.st1{fill:#333333;}
</style>
<g>
	<g>
		<g>
			<path class="st0" d="M48.91,48.94l-0.34-0.4c-0.13-0.15-0.24-0.25-0.34-0.31c-0.07-0.05-0.16-0.07-0.25-0.07v0.78h-0.54v-1.86
				h0.92c0.63,0,0.94,0.18,0.94,0.52c0,0.13-0.05,0.23-0.16,0.33c-0.11,0.1-0.27,0.16-0.47,0.19v0.01c0.1,0.05,0.19,0.09,0.25,0.15
				c0.07,0.06,0.16,0.16,0.27,0.31l0.29,0.36H48.91z M48.59,47.42c-0.08-0.02-0.2-0.03-0.38-0.03h-0.24v0.47h0.22
				c0.18,0,0.32-0.01,0.4-0.03c0.14-0.04,0.21-0.11,0.21-0.21C48.8,47.52,48.73,47.45,48.59,47.42z"/>
		</g>
		<g>
			<path class="st0" d="M48.32,49.93c-1.05,0-1.91-0.84-1.91-1.87c0-1.04,0.86-1.88,1.91-1.88c1.06,0,1.91,0.84,1.91,1.88
				C50.24,49.09,49.38,49.93,48.32,49.93z M48.32,46.51c-0.87,0-1.57,0.69-1.57,1.54c0,0.85,0.71,1.54,1.57,1.54
				c0.87,0,1.57-0.69,1.57-1.54C49.9,47.2,49.2,46.51,48.32,46.51z"/>
		</g>
	</g>
	<path class="st1" d="M56,16.13c-0.69,4.57-1.26,9.08-2.01,13.59c-0.15,0.91-0.37,1.74-0.76,2.37c-0.41,0.66-0.96,1.15-1.54,1.61
		c-2.3,1.84-4.65,3.74-6.97,5.61c-0.58,0.46-1.14,0.95-1.72,1.4c-0.6,0.48-1.21,0.94-1.33,1.81c-0.12,0.86,0.29,1.73,0.66,2.43
		c0.35,0.69,0.69,1.4,1.05,2.09c0.26,0.52,0.52,1.03,0.8,1.54c0.09,0.16,0.7,1.16,0.74,1.34c-4.23,0-8.97,0-13.19,0
		c-0.51-2.5-1.04-5.94-1.56-8.45c-0.13-0.65-0.26-1.31-0.31-1.99c-0.16-2.23,0.63-3.93,1.66-5.16c0.67-0.8,1.57-1.5,2.4-2.21
		c1.67-1.43,3.28-2.85,5.07-4.16c0.91-0.66,1.82-1.3,2.85-1.77c-3.86,1.33-8.47,2.21-13.71,2.21c-5.21,0-9.9-0.78-13.76-2.13
		c0.97,0.49,1.9,1.1,2.79,1.77c1.75,1.32,3.38,2.7,5.03,4.16c0.83,0.73,1.69,1.39,2.36,2.21c1.03,1.26,1.76,2.88,1.62,5.19
		c-0.04,0.67-0.2,1.32-0.33,1.95c-0.51,2.51-1.03,5.92-1.54,8.4c-4.22,0-8.95,0-13.17,0c-0.08-0.05,0.56-1.01,0.6-1.08
		c0.64-1.26,1.31-2.62,1.97-3.9c0.36-0.7,0.78-1.58,0.65-2.43c-0.12-0.86-0.73-1.33-1.33-1.81c-1.16-0.92-2.3-1.89-3.47-2.83
		c-1.75-1.41-3.52-2.76-5.25-4.18c-0.57-0.47-1.12-0.96-1.52-1.63c-0.38-0.63-0.6-1.45-0.76-2.37C1.27,25.26,0.69,20.77,0,16.13
		c1.63-0.05,2.46,0.82,3.24,1.57c-0.31-0.76-0.58-1.71-0.59-2.73c-0.04-3.24,1.5-5.22,3.08-6.88C5.75,8,5.85,7.99,5.91,7.93
		c3.02-2.78,7.18-4.74,12.1-5.85c2.39-0.54,5.13-0.93,7.98-1.05c2.84-0.11,5.85,0.03,8.51,0.42c2.59,0.38,5.01,0.95,7.26,1.75
		c3.35,1.19,6.2,2.7,8.49,4.94c0.75,0.73,1.45,1.6,1.95,2.51c0.53,0.97,0.97,2.11,1.07,3.38c0.11,1.37-0.15,2.62-0.63,3.8
		c-0.01,0.02-0.02,0.02-0.02,0.04C53.45,17.01,54.25,16.1,56,16.13z M28,2.88c0-0.32,0.06-0.93,0-1.26
		c-0.01-0.09,0.02-0.07-0.08-0.1c-0.03-0.01-0.05,0.02-0.08,0.02c-1.43,0.09-2.66,0.47-3.85,0.92c-2.3,0.88-4.37,2.02-6.18,3.36
		c-0.85,0.63-1.71,1.3-2.42,2.03c-0.04,0.04-0.15,0.13-0.08,0.14c0.3,0,0.6,0,0.91,0c0.08-0.3,0.23-0.55,0.49-0.66
		c0.53-0.23,1.2,0.03,1.52,0.24c0.14,0.09,0.37,0.39,0.51,0.42c0.13,0.03,0.35,0,0.53,0c1.14,0,2.21,0,3.32,0
		c0.19,0,0.43,0.04,0.55,0c0.08-0.02,0.16-0.15,0.22-0.22c0.07-0.08,0.15-0.16,0.23-0.22c0.5-0.41,1.1-0.77,1.79-0.94
		c0.36-0.09,0.81-0.08,0.76-0.52c-0.02-0.22-0.28-0.34-0.41-0.44c-0.16-0.13-0.34-0.3-0.43-0.44c-0.31-0.52-0.39-1.49-0.08-2.07
		c0.18-0.32,0.63-0.73,1.25-0.64c0.63,0.09,1.02,0.75,1.07,1.45c0.06,0.87-0.34,1.33-0.72,1.75c-0.11,0.11-0.28,0.24-0.29,0.4
		c-0.01,0.13,0.09,0.34,0.18,0.44c0.13,0.13,0.43,0.24,0.66,0.36c0.18,0.09,0.35,0.18,0.49,0.26c0.05,0.03,0.14,0.1,0.14,0.04
		C28,5.87,28,4.3,28,2.88z M28.53,1.62c0,1.66,0,3.55,0,5.24c0,0.26-0.05,0.58,0,0.76c0.02,0.09,0.26,0.35,0.31,0.36
		c0.21,0.07,0.7,0,0.9,0c0.29,0,0.66,0.05,0.9,0c0.13-0.03,0.28-0.15,0.41-0.2c0.63-0.23,1.53-0.34,1.64-1.02
		c-0.64-0.18-1.08-0.31-1.27-0.8c-0.15-0.38,0.04-0.95,0.25-1.37c0.17-0.35,0.42-0.7,0.61-0.89c0.15-0.14,0.43-0.3,0.62-0.32
		c0.41-0.05,0.64,0.15,0.86,0.36c0.36,0.35,0.56,0.71,0.74,1.2c0.08,0.24,0.2,0.53,0.16,0.8c-0.05,0.46-0.47,0.73-0.82,0.86
		c-0.13,0.05-0.46,0.05-0.55,0.18c-0.09,0.13-0.04,0.53,0.06,0.64c0.09,0.1,0.35,0.12,0.51,0.2c0.17,0.09,0.29,0.3,0.45,0.34
		c0.18,0.05,0.51,0,0.78,0c1.83,0,3.84,0,5.56,0c-1.5-1.53-3.3-2.85-5.29-3.94c-1.99-1.09-4.19-2.06-6.81-2.49
		C28.53,1.56,28.53,1.59,28.53,1.62z M45.7,5.52c-3.91-2.18-8.8-3.4-14.4-3.88c-0.07-0.01-0.03,0.04,0.02,0.02
		c2.08,0.74,3.85,1.59,5.58,2.67c1.45,0.9,2.86,1.95,4.04,3.16c0.16,0.16,0.4,0.46,0.53,0.5c0.23,0.06,0.64,0,0.96,0
		c2.29,0,4.58,0,6.81,0C48.23,7.01,47,6.24,45.7,5.52z M24.31,1.68c-3.65,0.26-7.01,1-9.99,2.03c-2.22,0.78-4.27,1.77-6.01,2.98
		C7.77,7.06,7.18,7.47,6.75,7.91c0,0-0.12,0.05-0.04,0.08c2.22,0,4.54,0,6.77,0c0.34,0,0.75,0.07,0.98,0
		c0.13-0.04,0.36-0.35,0.51-0.5c2.63-2.58,5.82-4.44,9.62-5.83C24.49,1.64,24.36,1.68,24.31,1.68z M3.18,14.42c2.74,0,5.48,0,8.23,0
		c0.11-1.99,0.82-3.47,1.68-4.72c0.25-0.36,0.56-0.72,0.82-1.05c0.04-0.04,0.14-0.13,0.06-0.14c-2.62,0-5.25,0-7.88,0
		C4.64,10.01,3.37,11.69,3.18,14.42z M14.77,8.51c-1.38,1.54-2.63,3.21-2.83,5.91c1.19,0,2.38,0,3.57,0
		c0.28-1.12,0.61-2.19,1.05-3.15c0.06-0.15,0.12-0.31,0.2-0.4c0.12-0.13,0.37-0.25,0.57-0.36c0.22-0.12,0.45-0.23,0.68-0.26
		c0.36-0.06,0.59,0.06,0.86,0.12c0.21,0.05,0.43,0.07,0.62,0.14c1.26,0.49,1.44,2.05,1.72,3.54c0.04,0.2,0.07,0.35,0.16,0.38
		c0.2,0.06,0.39-0.31,0.51-0.48c0.44-0.61,0.86-1.18,1.11-1.89c0.35-0.98,0.4-2.44,0.16-3.54c-1.39,0-2.78,0-4.16,0
		c0.25,0.86-0.25,1.42-1.13,1.33c-0.58-0.06-1.12-0.48-1.4-0.91c-0.1-0.15-0.14-0.3-0.25-0.42C15.74,8.51,15.25,8.51,14.77,8.51z
		 M29.91,8.51c-0.27,0.01-0.59-0.02-0.82,0.02C29.26,8.77,29.72,8.69,29.91,8.51z M42.99,11.05c-0.35-0.69-0.81-1.37-1.31-1.97
		c-0.14-0.17-0.4-0.52-0.55-0.57c-0.19-0.05-0.52,0-0.8,0c-1.89,0-3.91-0.02-5.7,0.02c0.21,0.39,0.41,0.89,0.59,1.43
		c0.34,1.01,0.55,1.98,0.86,3.05c0.13,0.44,0.33,1.1,0.82,1.15c0.53,0.05,0.74-0.42,1.09-0.63c0.27-0.15,0.5-0.22,0.78-0.28
		c0.09-0.02,0.19-0.01,0.29-0.08c0-0.09,0.03-0.16,0.02-0.26c-0.23-0.11-0.47-0.12-0.68-0.22c-0.34-0.16-0.67-0.43-0.76-0.8
		c-0.09-0.41,0.12-0.9,0.33-1.28c0.2-0.36,0.46-0.67,0.76-0.84c0.79-0.46,1.43,0.19,1.77,0.72c0.23,0.37,0.44,0.81,0.43,1.25
		c-0.01,0.6-0.43,0.98-0.94,1.12c-0.19,0.05-0.38,0.03-0.53,0.1c-0.01,0.11,0.02,0.18,0.04,0.26c0.78,0.08,1.43,0.3,1.83,0.76
		c0.12,0.14,0.15,0.31,0.29,0.44c0.79,0,1.59,0,2.38,0C43.94,13.04,43.5,12.03,42.99,11.05z M50.36,9.06
		c-0.11-0.13-0.43-0.51-0.57-0.54c-0.24-0.06-0.63,0-0.96,0c-2.3,0-4.72-0.02-6.92,0.02c1.3,1.55,2.45,3.24,2.63,5.89
		c2.73,0,5.47,0,8.21,0C52.58,12.03,51.59,10.45,50.36,9.06z M34.56,14.42c0.48,0,0.97,0,1.46,0c-0.39-0.68-0.72-1.42-1.05-2.17
		c-0.02,0-0.03,0-0.04,0C34.34,12.52,34.5,13.69,34.56,14.42z M28.92,13.38c-0.15,0.15-0.36,0.33-0.39,0.44
		c-0.05,0.19,0.04,0.44,0,0.6c0.88,0,1.75,0,2.63,0c0.13-0.52,0.26-1.05,0.29-1.67C30.56,12.15,29.47,12.84,28.92,13.38z
		 M3.18,15.03c0.19,2.25,1.08,3.81,2.24,5.15c0.14,0.16,0.4,0.48,0.55,0.52c0.25,0.06,0.64,0,0.97,0c2.33,0,4.62,0,6.89,0
		c-1.13-1.51-2.3-3.16-2.42-5.73c-2.73,0-5.47,0-8.2,0C3.17,14.97,3.18,15,3.18,15.03z M11.94,15.03c0.16,2.12,1.1,3.79,2.16,5.13
		c0.1,0.12,0.39,0.51,0.51,0.54c0.14,0.03,0.33,0,0.49,0c0.53,0,1.02,0,1.54,0c0.13-0.8-0.06-1.41-0.23-2.05
		c-0.32-1.26-0.65-2.41-0.92-3.68c-1.18,0-2.35,0-3.53,0C11.93,14.97,11.93,15,11.94,15.03z M27.47,17.72
		c0.08,0.99,0.09,2.03,0.14,2.98c0.13,0,0.26,0,0.39,0c0-1.91,0-3.82,0-5.73c-0.07,0-0.15,0-0.22,0
		C27.36,15.78,27.38,16.61,27.47,17.72z M28.53,20.7c0.56,0,1.12,0,1.68,0c-0.22-0.25-0.69-0.68-0.65-1.19
		c0.01-0.15,0.11-0.37,0.18-0.56c0.46-1.28,0.95-2.68,1.27-3.98c-0.82,0-1.64,0-2.46,0C28.5,16.83,28.55,18.79,28.53,20.7z
		 M36.8,15.11c-0.11-0.02-0.21-0.12-0.33-0.14c-0.26-0.05-0.6,0-0.9,0c-0.3,0-0.59,0-0.9,0c0.08,0.62,0.27,1.43,0.43,2.29
		c0.1,0.51,0.22,1.14,0.31,1.69c0.04,0.2,0.11,0.47,0.08,0.58c-0.03,0.13-0.26,0.25-0.39,0.34c-0.45,0.33-0.9,0.59-1.37,0.83
		c0.93,0,1.86,0,2.79,0c0.53-0.75,1.09-1.74,1.44-2.72c0.13-0.36,0.27-0.74,0.27-1.13c0-0.31-0.08-0.63-0.12-0.94
		c-0.04-0.32-0.08-0.62-0.12-0.95C37.54,14.92,37.25,15.18,36.8,15.11z M41.72,14.96c0.02,0.78-0.39,1.13-0.8,1.49
		c0.25,1.26,0.57,2.44,1.03,3.5c0.29-0.3,0.5-0.67,0.72-1.02c0.67-1.1,1.24-2.31,1.31-3.96C43.23,14.96,42.48,14.96,41.72,14.96z
		 M44.53,15.03c-0.17,2.25-1.04,3.86-2.11,5.24c-0.1,0.13-0.18,0.18-0.12,0.3c0.06,0.13,0.14,0.11,0.35,0.12c2.2,0.05,4.19,0,6.36,0
		c0.32,0,0.77,0.06,0.98,0c0.15-0.05,0.37-0.38,0.51-0.54c1.17-1.36,2.09-2.89,2.24-5.19c-2.73,0-5.46,0-8.19,0
		C44.53,14.97,44.53,15,44.53,15.03z M21.46,16.57c-0.3-0.2-0.53-0.47-1.03-0.46c-0.16,0.33-0.1,0.74-0.08,1.13
		c0.07,1.2,0.2,2.36,0.33,3.46c0.86-0.02,1.78,0.02,2.61-0.02c-0.13-0.78-0.27-1.73-0.31-2.65c-0.04-0.99,0.1-1.99-0.18-2.79
		c0-0.01,0-0.02-0.02-0.02c0-0.01,0-0.02-0.02-0.02C22.4,15.73,22.07,16.29,21.46,16.57z M25.09,20.7c0.35,0,0.7,0,1.04,0
		c0.01-1.15-0.14-2.15-0.55-2.88C25.38,18.74,25.18,19.66,25.09,20.7z M41.07,31.39c-0.29,0.28-0.55,0.48-0.92,0.84
		c-0.24,0.23-0.75,0.64-0.7,1.06c0.05,0.33,0.49,0.33,0.78,0.18c0.26-0.13,0.47-0.35,0.61-0.46c0.41-0.33,0.82-0.67,1.21-0.96
		c2.32-1.76,4.5-3.41,6.83-5.13c0.21-0.16,0.53-0.33,0.62-0.48c0.06-0.1,0.06-0.26,0.1-0.4c0.56-2.01,1.13-4.17,1.7-5.99
		c-2.1,2.64-5.1,4.39-8.49,5.77c1.12-0.41,3.23-0.52,3.74,0.5C44.77,27.96,42.88,29.68,41.07,31.39z M5.23,21.8
		c0.43,1.55,0.84,3.13,1.27,4.66c1.65,1.25,3.3,2.47,4.99,3.74c1.24,0.93,2.5,1.84,3.69,2.83c0.2,0.16,0.34,0.33,0.64,0.46
		c0.3,0.13,0.69,0.11,0.74-0.2c0.07-0.41-0.46-0.81-0.7-1.05c-0.94-0.91-1.84-1.72-2.75-2.55c-0.62-0.57-1.23-1.14-1.83-1.69
		c-0.62-0.57-1.23-1.12-1.83-1.71c0.37-0.68,1.48-0.86,2.55-0.75c0.33,0.04,0.64,0.13,0.92,0.16c-3.26-1.29-6.1-3.02-8.16-5.49
		c0-0.01-0.02-0.02-0.02,0C4.93,20.7,5.08,21.27,5.23,21.8z M23.06,27.61c0.09-0.1,0.16-0.23,0.23-0.36
		c-1.04-0.4-2.01-0.88-2.93-1.39c0.03,0.15,0.2,0.27,0.12,0.46c-0.26,0.12-0.51-0.04-0.7-0.14c-0.44-0.25-0.77-0.6-0.84-1.17
		c-0.46-0.26-0.96-0.61-1.37-0.9c-0.05-0.04-0.13-0.15-0.17-0.08c-0.04,0.12-0.06,0.29-0.04,0.46c0.02,0.22,0.33,1.09,0.02,1.17
		c-0.14,0.03-0.42-0.19-0.51-0.28c-0.16-0.15-0.26-0.3-0.37-0.44c-0.18-0.23-0.58-0.7-0.53-1.06c0.02-0.12,0.13-0.23,0.18-0.34
		c0.07-0.14,0.11-0.25,0.14-0.4c-0.52-0.48-1.05-0.88-1.54-1.4c-0.12-0.13-0.34-0.46-0.49-0.5c-0.22-0.06-0.62,0-0.96,0
		c-2.27,0-4.66-0.02-6.83,0.02C10.51,24.82,16.18,26.8,23.06,27.61z M16.26,22.38c0.05,0.04,0.13,0.16,0.16,0.1
		c0.06-0.41,0.14-0.82,0.17-1.27c-0.51,0.02-1.08-0.03-1.56,0.02C15.42,21.61,15.86,22.04,16.26,22.38z M18.56,21.56
		c-0.08-0.13-0.18-0.39-0.35-0.34c-0.27,0.69-0.48,1.43-0.68,2.19c0.36,0.28,0.8,0.6,1.17,0.85c0.05,0.03,0.15,0.12,0.16,0.06
		c0.01-0.71,0.18-1.25,0.43-1.73C19.06,22.29,18.79,21.92,18.56,21.56z M20.64,21.28c-0.2,1.24-0.67,2.37-0.47,3.86
		c1.08,0.63,2.22,1.19,3.45,1.67c0.24-0.48,0.46-1,0.45-1.63c0-0.34-0.09-0.65-0.17-0.99c-0.21-0.98-0.37-2.01-0.53-2.98
		c-0.9,0-1.79,0-2.69,0C20.65,21.22,20.65,21.26,20.64,21.28z M25.04,21.21c-0.02,0.01-0.02,0.03-0.02,0.06
		c-0.14,1.21,0.29,2.21,0.29,3.4c0,0.93-0.27,1.74-0.7,2.25c-0.05,0.06-0.21,0.19-0.14,0.2c0.79,0.27,1.68,0.55,2.59,0.64
		c-0.42-2.08-0.83-4.17-0.94-6.55C25.76,21.21,25.4,21.21,25.04,21.21z M27.63,21.28c0.01,1.08,0.07,2.18,0.08,3.28
		c0.02,1.02-0.01,2.11,0.02,3.12c0,0.05-0.04,0.15,0.04,0.18c0.09-0.02,0.12,0.03,0.2,0.02c0.05-2.18,0.01-4.44,0.02-6.65
		c-0.12,0-0.25,0-0.37,0C27.6,21.23,27.64,21.24,27.63,21.28z M28.53,21.28c0,2.18,0,4.37,0,6.55c1.18-0.12,2.16-0.43,3.12-0.77
		c-0.17-1.89-0.16-4.16,0.18-5.85c-1.1,0-2.19,0-3.28,0C28.53,21.22,28.53,21.25,28.53,21.28z M32.53,26.72
		c1.79-0.71,3.6-1.72,5.13-2.78c0.15-0.1,0.57-0.37,0.63-0.5c0.07-0.15,0.07-0.43,0.1-0.66c0.08-0.63,0.05-1.28-0.29-1.57
		c-1.57,0-3.13,0-4.7,0C32.98,22.92,32.58,24.64,32.53,26.72z M40.41,21.66c0.09-0.05,0.27-0.22,0.37-0.32
		c0.03-0.03,0.13-0.1,0.06-0.12c-0.14,0-0.28,0-0.41,0C40.45,21.38,40.41,21.5,40.41,21.66z M40.35,22.52
		c0,0.35-0.02,0.76-0.04,1.17c-0.02,0.34-0.02,0.91,0.08,1.15c0.07,0.17,0.3,0.33,0.43,0.4c0.06,0.03,0.15,0.02,0.19,0.1
		c-1.28,0.15-1.75-0.67-1.8-1.79c-0.31,0.82-0.63,1.76-1.6,1.91c0.22-0.36,0.53-0.65,0.58-1.19c-1.99,1.34-4.26,2.58-6.79,3.46
		c3.79-0.27,7.22-0.99,10.24-2.05c3.02-1.06,5.69-2.49,7.81-4.44c0.04,0,0.05-0.02,0-0.02c-2.6,0-5.2,0-7.79,0
		C41.23,21.67,40.78,22.08,40.35,22.52z M41.87,26.18c0.03-0.01,0.05-0.02,0.06-0.04C41.9,26.14,41.81,26.17,41.87,26.18z
		 M23.92,27.51c-0.07,0.07-0.19,0.1-0.27,0.16c0.31-0.01,0.62,0.09,0.91,0.04C24.32,27.66,24.14,27.56,23.92,27.51z"/>
</g>
</svg>
