<svg width="24" height="24" viewBox="0 0 24 24" fill="none" xmlns="http://www.w3.org/2000/svg">
<g clip-path="url(#clip0_8_505)">
<path d="M15 10C15 10.7956 14.6839 11.5587 14.1213 12.1213C13.5587 12.6839 12.7956 13 12 13C11.2044 13 10.4413 12.6839 9.87868 12.1213C9.31607 11.5587 9 10.7956 9 10C9 9.20435 9.31607 8.44129 9.87868 7.87868C10.4413 7.31607 11.2044 7 12 7C12.7956 7 13.5587 7.31607 14.1213 7.87868C14.6839 8.44129 15 9.20435 15 10Z" fill="white"/>
<path fill-rule="evenodd" clip-rule="evenodd" d="M4 12C4 9.87827 4.84285 7.84344 6.34315 6.34315C7.84344 4.84285 9.87827 4 12 4C14.1217 4 16.1566 4.84285 17.6569 6.34315C19.1571 7.84344 20 9.87827 20 12C20 14.1217 19.1571 16.1566 17.6569 17.6569C16.1566 19.1571 14.1217 20 12 20C9.87827 20 7.84344 19.1571 6.34315 17.6569C4.84285 16.1566 4 14.1217 4 12ZM12 5C10.6818 5.00007 9.39037 5.37236 8.2744 6.07403C7.15844 6.77569 6.26328 7.77821 5.69196 8.96619C5.12065 10.1542 4.89639 11.4793 5.045 12.7892C5.19361 14.099 5.70905 15.3402 6.532 16.37C7.242 15.226 8.805 14 12 14C15.195 14 16.757 15.225 17.468 16.37C18.2909 15.3402 18.8064 14.099 18.955 12.7892C19.1036 11.4793 18.8794 10.1542 18.308 8.96619C17.7367 7.77821 16.8416 6.77569 15.7256 6.07403C14.6096 5.37236 13.3182 5.00007 12 5Z" fill="white"/>
</g>
<defs>
<clipPath id="clip0_8_505">
<rect width="16" height="16" fill="white" transform="translate(4 4)"/>
</clipPath>
</defs>
</svg>
