<?xml version="1.0" encoding="utf-8"?>
<!-- Generator: Adobe Illustrator 24.0.1, SVG Export Plug-In . SVG Version: 6.00 Build 0)  -->
<svg version="1.1" id="圖層_1" xmlns="http://www.w3.org/2000/svg" xmlns:xlink="http://www.w3.org/1999/xlink" x="0px" y="0px"
	 viewBox="0 0 2560 204" style="enable-background:new 0 0 2560 204;" xml:space="preserve">
<style type="text/css">
	.st0{fill-rule:evenodd;clip-rule:evenodd;fill:#3AC34B;}
	.st1{fill-rule:evenodd;clip-rule:evenodd;fill:#C1F74D;}
	.st2{fill-rule:evenodd;clip-rule:evenodd;fill:#4DC9F7;}
</style>
<path class="st0" d="M0,0h2560v127c0,0-580.6-127-1434-127C546,0,0,129,0,129V0z"/>
<path class="st1" d="M1338,1c0,0,224.2,2.8,498,27c476.4,42.1,725,99,725,99v46c0,0-362.3-82.4-725-127C1533.2,8.7,1338,1,1338,1
	L1338,1z"/>
<path class="st2" d="M1393,4c0,0-369-17.9-668,11C277.9,58.2,0,128,0,128v76c0,0,342.5-117.7,725-161C1202-11,1393,4,1393,4L1393,4z
	"/>
</svg>
