<?xml version="1.0" encoding="utf-8"?>
<!-- Generator: $$$/GeneralStr/196=Adobe Illustrator 27.6.0, SVG Export Plug-In . SVG Version: 6.00 Build 0)  -->
<svg version="1.1" id="圖層_1" xmlns="http://www.w3.org/2000/svg" xmlns:xlink="http://www.w3.org/1999/xlink" x="0px" y="0px"
	 viewBox="0 0 256 256" style="enable-background:new 0 0 256 256;" xml:space="preserve">
<style type="text/css">
	.st0{fill:#FFFFFF;}
	.st1{fill:#00A1C7;}
	.st2{fill:#00B7DE;}
	.st3{fill:#A9CE52;}
	.st4{fill:#231815;}
</style>
<g>
	<circle class="st0" cx="128" cy="128" r="128"/>
	<g>
		<path class="st1" d="M208.4,128.4c0,44.5-36,80.7-80.4,80.7c-44.4,0-80.5-36.1-80.5-80.7c0-44.6,36-80.7,80.5-80.7
			C172.4,47.7,208.4,83.8,208.4,128.4z"/>
	</g>
	<g>
		<path class="st2" d="M107.7,49.7l-13.9,45H77.5L56.2,166c0,0,30.2,44.2,70.2,44.2c40,0,66.1-35.2,71-45l-22.9-70.4h-18.8L144.4,48
			C144.4,48,121.5,45.6,107.7,49.7z"/>
	</g>
	<g>
		<path class="st0" d="M117.5,48.9l-10.6,46.7H94.6l-25.3,87.6c0,0,27,27,56.4,27c29.4,0,53.9-17.2,59.6-27l-27-85.2H146l-11.4-48.3
			L117.5,48.9z"/>
	</g>
	<g>
		<g>
			<path class="st3" d="M73.1,185.8c14.5,14.4,34.5,23.3,56.5,23.3c20.7,0,39.5-7.8,53.8-20.7c-14.4-11-34.6-17.9-57-17.9
				C105.9,170.5,87.2,176.3,73.1,185.8z"/>
		</g>
		<g>
			<g>
				<path class="st3" d="M126.9,138.7c-4.4-6.8-14.1-17.7-31.1-17.7c0,0,6.8,30.7,29.7,34.1c0,0,0.6-0.3,1.4-1c0.8,0.7,1.3,1,1.3,1
					c23-3.4,29.8-34.1,29.8-34.1C141,120.9,131.3,131.8,126.9,138.7z"/>
			</g>
			<g>
				<rect x="123.2" y="147.9" class="st3" width="7.3" height="27"/>
			</g>
		</g>
	</g>
	<g>
		<path class="st0" d="M128,211.2c-45.6,0-82.6-37.2-82.6-82.9c0-45.7,37.1-82.9,82.6-82.9c45.6,0,82.6,37.2,82.6,82.9
			C210.6,174.1,173.6,211.2,128,211.2z M128,49.9c-43.2,0-78.3,35.2-78.3,78.5c0,43.3,35.1,78.5,78.3,78.5
			c43.2,0,78.3-35.2,78.3-78.5C206.3,85.1,171.2,49.9,128,49.9z"/>
	</g>
	<g>
		<g>
			<path class="st4" d="M40.2,160.2l5,9.1l-1,0.6c-0.2-0.3-0.5-0.7-0.8-1.2c-0.3-0.5-0.6-0.8-0.8-0.9c-0.4-0.2-0.7-0.3-1-0.3
				c-0.3,0-0.6,0.1-1,0.3L25.7,176l0.1,0.2l21.4-2.7l0.4,0.7l-14.2,16.6l0.1,0.2l12.3-6.8c1.2-0.7,2-1.2,2.6-1.7
				c0.5-0.5,0.9-1,0.9-1.4c0.1-0.3,0-0.9-0.1-1.6c-0.2-0.8-0.3-1.3-0.4-1.5l1-0.6l4.6,8.3l-1,0.6c-0.3-0.4-0.6-0.8-1-1.3
				c-0.4-0.4-0.7-0.7-1.1-0.8c-0.5-0.2-1-0.2-1.6,0c-0.6,0.2-1.6,0.6-2.9,1.4l-10.5,5.8c-0.6,0.3-1.1,0.7-1.4,1
				c-0.3,0.4-0.5,0.7-0.6,1.2c-0.1,0.4-0.1,0.9,0,1.4c0.1,0.5,0.3,1,0.5,1.4l-1,0.6l-3.9-7L42,175.5l-15.6,2.1
				c-0.6,0.1-1.2,0.2-1.7,0.4c-0.6,0.2-1,0.3-1.2,0.4l-3.7-6.7l1-0.6c0.2,0.3,0.4,0.6,0.7,1c0.3,0.4,0.5,0.6,0.7,0.8
				c0.3,0.3,0.6,0.4,0.9,0.3c0.3,0,0.7-0.1,1-0.3l14.8-8.2c0.3-0.2,0.6-0.4,0.8-0.6c0.2-0.2,0.2-0.6,0.2-1c0-0.2-0.1-0.6-0.2-1.1
				c-0.2-0.5-0.3-0.9-0.4-1.1L40.2,160.2z"/>
		</g>
		<g>
			<path class="st4" d="M37.7,148.1l2.9,10.2l-1.1,0.3c-0.1-0.3-0.3-0.7-0.4-1.2c-0.2-0.5-0.4-0.9-0.5-1.1c-0.2-0.3-0.5-0.5-0.8-0.6
				c-0.3-0.1-0.6-0.1-1.1,0l-16.4,4.6c-0.4,0.1-0.7,0.3-0.9,0.4c-0.2,0.2-0.3,0.5-0.4,1c0,0.4,0,0.8,0,1.3c0,0.5,0.1,0.9,0.1,1.2
				l-1.1,0.3l-2.9-10.2l1.1-0.3c0.1,0.3,0.2,0.7,0.4,1.1c0.2,0.4,0.4,0.8,0.6,1.1c0.2,0.4,0.5,0.6,0.9,0.6c0.3,0.1,0.7,0,1-0.1
				l16.3-4.6c0.4-0.1,0.6-0.3,0.9-0.5c0.2-0.2,0.4-0.6,0.4-1c0-0.2,0-0.6,0-1.2c0-0.5-0.1-1-0.2-1.3L37.7,148.1z"/>
		</g>
		<g>
			<path class="st4" d="M12.8,123.6c0,0.3,0.2,0.8,0.4,1.4c0.2,0.6,0.4,1.1,0.6,1.3c0.3,0.4,0.9,0.6,1.6,0.7c0.8,0.1,1.8,0.1,3,0
				l17.1-1.2l0.1,1.4l-18.2,15.5l12.1-0.8c1.3-0.1,2.4-0.3,3.1-0.5c0.7-0.2,1.2-0.5,1.5-0.9c0.2-0.3,0.4-0.8,0.6-1.6
				c0.2-0.8,0.2-1.3,0.2-1.6l1.2-0.1l0.7,9.6l-1.2,0.1c0-0.3-0.2-0.8-0.4-1.5c-0.2-0.7-0.4-1.1-0.6-1.3c-0.3-0.4-0.8-0.6-1.5-0.7
				c-0.6-0.1-1.7-0.1-3.3,0l-11.5,0.8c-0.5,0-1,0.2-1.5,0.4c-0.5,0.2-0.9,0.5-1.1,0.8c-0.3,0.4-0.6,1-0.8,1.7
				c-0.2,0.7-0.3,1.3-0.3,1.7l-1.2,0.1l-0.5-6.7l16.9-14.4l-11.1,0.8c-1.4,0.1-2.4,0.3-3.1,0.5c-0.7,0.2-1.2,0.5-1.4,0.9
				c-0.2,0.3-0.4,0.8-0.5,1.6c-0.1,0.7-0.2,1.2-0.2,1.6l-1.2,0.1l-0.7-9.5L12.8,123.6z"/>
		</g>
		<g>
			<path class="st4" d="M37.2,110.9l-1.4,10.5l-1.2-0.2c0-0.3,0-0.7,0.1-1.3c0-0.6,0-1,0-1.2c-0.1-0.4-0.3-0.7-0.5-0.9
				c-0.2-0.2-0.6-0.3-1-0.4l-16.8-2.3c-0.4-0.1-0.7,0-1,0.1c-0.3,0.1-0.5,0.3-0.8,0.8c-0.2,0.3-0.4,0.7-0.5,1.2
				c-0.2,0.5-0.3,0.9-0.4,1.2l-1.2-0.2l1.4-10.5l1.2,0.2c0,0.3,0,0.8,0,1.2c0,0.5,0,0.9,0.1,1.3c0.1,0.4,0.2,0.7,0.5,0.9
				c0.3,0.2,0.6,0.3,1,0.3l16.8,2.3c0.4,0,0.7,0,1-0.1c0.3-0.1,0.6-0.4,0.8-0.7c0.1-0.2,0.3-0.6,0.4-1.1c0.2-0.5,0.3-0.9,0.3-1.3
				L37.2,110.9z"/>
		</g>
		<g>
			<path class="st4" d="M31.6,91.4c0.7-0.3,1.4-0.5,2.1-0.5c0.7,0,1.5,0.1,2.3,0.3c2,0.6,3.4,1.9,4.2,3.7c0.8,1.9,0.9,3.9,0.2,6.1
				c-0.3,1-0.8,2-1.4,2.9c-0.6,0.9-1.3,1.7-1.9,2.2l0.9,1l-0.4,1.3l-7.7-2.2l0.4-1.3c1,0,2,0,2.9-0.1c0.9-0.1,1.7-0.4,2.6-0.7
				c0.8-0.4,1.5-0.8,2.1-1.5c0.6-0.6,1.1-1.4,1.3-2.4c0.2-0.7,0.3-1.4,0.3-2c0-0.6-0.1-1.1-0.4-1.6c-0.2-0.4-0.6-0.8-1-1.1
				c-0.4-0.3-0.9-0.6-1.5-0.7c-0.9-0.3-1.8-0.3-2.7,0c-0.9,0.3-1.7,0.8-2.5,1.7c-0.5,0.6-1,1.3-1.6,2.1c-0.6,0.8-1.2,1.4-1.7,2
				c-1,1.1-2,1.8-3.2,2.3c-1.1,0.4-2.5,0.4-3.9-0.1c-0.9-0.3-1.6-0.7-2.2-1.3c-0.6-0.6-1.1-1.3-1.5-2.1c-0.4-0.8-0.6-1.6-0.6-2.6
				c-0.1-0.9,0.1-1.8,0.3-2.8c0.3-1,0.8-1.9,1.4-2.6c0.6-0.7,1.2-1.3,1.8-1.9l-0.9-1l0.4-1.3l7.5,2.2l-0.4,1.3c-0.9,0-1.8,0-2.7,0
				c-0.9,0-1.7,0.2-2.5,0.5c-0.8,0.3-1.4,0.7-2,1.2c-0.6,0.5-1,1.3-1.3,2.2c-0.3,1-0.3,2,0.2,2.9c0.4,0.9,1.1,1.5,2,1.8
				c1,0.3,1.8,0.3,2.6,0.1c0.8-0.2,1.5-0.8,2.2-1.5c0.6-0.6,1.2-1.3,1.7-2c0.5-0.7,1-1.3,1.5-1.9c0.5-0.5,1-1.1,1.5-1.5
				C30.4,92.1,31,91.7,31.6,91.4z"/>
		</g>
		<g>
			<path class="st4" d="M37.4,66.3l-0.6,1c-0.4-0.1-0.9-0.2-1.5-0.2c-0.6,0-1.2,0-1.8,0c-0.6,0-1.2,0.1-1.7,0.3
				c-0.5,0.2-0.9,0.4-1.1,0.7c-0.2,0.3-0.4,0.6-0.7,1.1c-0.3,0.4-0.5,0.9-0.7,1.2l-0.5,0.8l16.4,9.2c0.3,0.2,0.6,0.3,1,0.3
				c0.3,0,0.7-0.1,1-0.4c0.2-0.1,0.5-0.4,0.9-0.9c0.4-0.5,0.7-0.9,0.9-1.2l1,0.6l-5.4,9.7l-1-0.6c0.1-0.3,0.3-0.7,0.6-1.3
				c0.3-0.6,0.4-1,0.4-1.3c0.1-0.4,0-0.7-0.1-1c-0.2-0.3-0.4-0.5-0.8-0.8l-16.5-9.3l-0.5,0.8c-0.2,0.3-0.4,0.7-0.6,1.1
				c-0.2,0.5-0.4,0.9-0.6,1.3c-0.1,0.3-0.1,0.8,0,1.3c0.2,0.5,0.4,1.1,0.6,1.6c0.3,0.5,0.6,1,1,1.5c0.4,0.5,0.7,0.9,0.9,1.1l-0.6,1
				l-5.5-3.1l10-17.9L37.4,66.3z"/>
		</g>
		<g>
			<path class="st4" d="M68.3,57.1L64,61.8c-2.6-0.5-4.8-0.8-6.7-1.1c-1.9-0.2-4-0.5-6.1-0.6l-1.6,1.8l5.5,5
				c0.3,0.3,0.6,0.4,0.9,0.6c0.3,0.1,0.6,0.1,1-0.1c0.2-0.1,0.5-0.3,0.9-0.6c0.4-0.3,0.7-0.6,0.9-0.8l0.9,0.8L52.8,74L52,73.2
				c0.2-0.2,0.4-0.5,0.7-0.9c0.3-0.4,0.5-0.7,0.5-0.9c0.1-0.3,0.1-0.7,0-1c-0.1-0.3-0.3-0.6-0.6-0.9L40.1,58
				c-0.3-0.3-0.6-0.5-0.9-0.6c-0.3-0.1-0.6-0.1-1,0.1c-0.3,0.1-0.6,0.3-0.9,0.6c-0.4,0.3-0.6,0.5-0.9,0.7l-0.9-0.8l7.3-8
				c0.7-0.7,1.4-1.4,2.1-1.9c0.7-0.5,1.5-0.9,2.3-1.1c0.8-0.2,1.6-0.2,2.4,0c0.8,0.2,1.6,0.6,2.3,1.3c0.7,0.6,1.2,1.3,1.5,1.9
				c0.3,0.7,0.5,1.4,0.5,2.1c0,0.7-0.1,1.4-0.3,2.2c-0.2,0.8-0.5,1.5-0.9,2.3c1.9,0.2,3.5,0.3,4.8,0.5c1.3,0.1,2.9,0.3,4.7,0.5
				c0.8,0.1,1.5,0.1,2,0c0.5-0.1,0.9-0.2,1.4-0.3c0.3-0.1,0.6-0.3,1-0.6c0.3-0.3,0.6-0.5,0.8-0.7L68.3,57.1z M49.5,51.7
				c-1-1-2.2-1.4-3.3-1.4c-1.2,0-2.3,0.6-3.3,1.7L41,54.1l7.4,6.8l1.5-1.6c1-1.1,1.5-2.4,1.5-3.8C51.4,54.1,50.7,52.8,49.5,51.7z"/>
		</g>
		<g>
			<path class="st4" d="M72.5,27.8c-0.1,0.1-0.4,0.3-0.6,0.7c-0.3,0.3-0.4,0.6-0.5,0.8c-0.2,0.5-0.3,0.8-0.4,1
				c0,0.2-0.1,0.7-0.1,1.4c0,1.5,0,3,0.1,4.4c0.1,1.4,0.2,3.3,0.4,5.5c0.1,0.8,0.2,1.4,0.3,1.9c0.1,0.4,0.4,1,0.9,1.7l2.5,3.7
				c0.2,0.3,0.5,0.6,0.8,0.7c0.3,0.2,0.7,0.2,1.1,0.1c0.2-0.1,0.6-0.2,1.2-0.4c0.6-0.2,1-0.4,1.3-0.6l0.7,1l-9.1,6.2l-0.7-1
				c0.2-0.2,0.6-0.5,1.1-0.9c0.5-0.4,0.8-0.7,0.9-0.9c0.2-0.4,0.3-0.7,0.3-1c0-0.3-0.2-0.7-0.4-1l-3.2-4.7c-0.1-0.1-0.4-0.4-0.8-0.6
				c-0.4-0.3-0.9-0.6-1.5-0.9c-1.3-0.7-2.6-1.4-4.2-2.2c-1.5-0.8-2.8-1.4-3.9-2c-0.7-0.3-1.2-0.5-1.6-0.6c-0.4-0.1-0.8-0.2-1.3-0.2
				c-0.3,0-0.6,0.1-1,0.2c-0.4,0.1-0.7,0.3-0.9,0.4l-0.7-1l8.3-5.6l0.7,1c-0.9,0.7-1.5,1.2-1.8,1.5C60,36.7,60,37,60.1,37.2
				c0,0.1,0.1,0.1,0.3,0.2c0.1,0.1,0.3,0.2,0.6,0.4c0.3,0.2,0.6,0.3,1,0.5c0.4,0.2,0.7,0.4,1.1,0.6c1,0.5,2,1,2.9,1.5
				c1,0.5,2.3,1.2,3.9,2c-0.1-3.3-0.3-5.8-0.4-7.6c-0.1-1.8-0.3-2.8-0.4-3.1c-0.1-0.2-0.3-0.3-0.6-0.3c-0.2,0-0.5,0-0.8,0.1
				c-0.3,0.1-0.6,0.3-1,0.4c-0.3,0.2-0.6,0.4-0.9,0.5l-0.7-1l6.7-4.6L72.5,27.8z"/>
		</g>
		<g>
			<path class="st4" d="M104.8,18c1.3,0.8,2.4,1.8,3.4,3.1c1,1.3,1.7,2.9,2.2,4.7c0.5,1.8,0.7,3.5,0.5,5.1c-0.2,1.6-0.6,3.1-1.3,4.4
				c-0.7,1.3-1.6,2.4-2.8,3.3c-1.2,0.9-2.5,1.6-3.9,2c-1.6,0.4-3.1,0.5-4.6,0.3c-1.5-0.2-2.9-0.7-4.1-1.5c-1.2-0.8-2.3-1.8-3.3-3.1
				c-1-1.3-1.7-2.8-2.1-4.5c-0.5-1.8-0.7-3.6-0.5-5.2c0.2-1.6,0.6-3.1,1.3-4.4c0.7-1.3,1.6-2.4,2.8-3.4c1.2-0.9,2.5-1.6,3.9-2
				c1.5-0.4,3-0.5,4.5-0.3C102.2,16.8,103.5,17.2,104.8,18z M106.8,34.7c0.3-1.1,0.5-2.4,0.4-3.7c-0.1-1.3-0.3-2.7-0.7-4.2
				c-0.4-1.6-1-2.9-1.6-4.2c-0.7-1.2-1.4-2.2-2.2-3c-0.8-0.7-1.8-1.2-2.8-1.5c-1-0.3-2.1-0.2-3.2,0.1c-1.3,0.4-2.3,1-3,1.8
				c-0.7,0.8-1.2,1.8-1.5,3c-0.3,1.1-0.4,2.3-0.3,3.6c0.1,1.3,0.3,2.7,0.7,4.1c0.4,1.5,0.9,2.9,1.6,4c0.6,1.2,1.4,2.1,2.2,2.9
				c0.8,0.8,1.8,1.3,2.8,1.6c1,0.3,2.1,0.3,3.3-0.1c1.1-0.3,2.1-0.9,2.9-1.7C106,36.8,106.5,35.8,106.8,34.7z"/>
		</g>
		<g>
			<path class="st4" d="M132.9,18.9l-1.2,0c-0.3-0.9-0.8-1.8-1.5-2.7c-0.8-1-1.5-1.5-2.2-1.6c-0.3,0-0.8-0.1-1.2-0.1
				c-0.5,0-1,0-1.6,0l-3.9,0.1l0.3,9.4l2.7-0.1c0.8,0,1.5-0.1,1.9-0.3c0.5-0.2,0.8-0.5,1.1-0.8c0.2-0.3,0.4-0.6,0.6-1.2
				c0.2-0.5,0.3-1.1,0.3-1.7l1.2,0l0.3,9.2l-1.2,0c-0.1-0.5-0.2-1-0.4-1.6c-0.2-0.6-0.4-1.1-0.7-1.3c-0.3-0.4-0.8-0.7-1.3-0.8
				c-0.5-0.1-1.1-0.2-1.8-0.2l-2.7,0.1l0.3,8.1c0,0.4,0.1,0.7,0.3,1c0.2,0.3,0.4,0.5,0.8,0.7c0.2,0.1,0.5,0.2,1.1,0.2
				c0.6,0.1,1,0.1,1.3,0.1l0,1.2l-10.2,0.3l0-1.2c0.3,0,0.8-0.1,1.3-0.2c0.5-0.1,0.9-0.1,1.1-0.2c0.3-0.2,0.6-0.4,0.7-0.7
				c0.1-0.3,0.2-0.6,0.2-1l-0.6-17c0-0.4-0.1-0.7-0.2-1c-0.1-0.3-0.4-0.5-0.8-0.7c-0.3-0.1-0.7-0.2-1.2-0.3
				c-0.5-0.1-0.9-0.1-1.2-0.2l0-1.2l18.4-0.6L132.9,18.9z"/>
		</g>
		<g>
			<path class="st4" d="M163.8,36.4l-2.3,6.5l-18.7-5.3l0.3-1.1c0.3,0.1,0.8,0.1,1.3,0.2c0.5,0.1,0.9,0.1,1.1,0.1
				c0.4-0.1,0.7-0.2,0.9-0.4c0.2-0.2,0.4-0.5,0.5-0.9l4.6-16.3c0.1-0.3,0.1-0.7,0.1-1c0-0.3-0.2-0.6-0.5-0.9c-0.2-0.2-0.6-0.5-1-0.7
				c-0.5-0.2-0.8-0.4-1.1-0.5l0.3-1.1l17.4,5l-1.5,5.5l-1.2-0.3c0-0.9-0.2-1.9-0.6-3c-0.4-1.1-1-1.8-1.6-2.1
				c-0.3-0.1-0.7-0.3-1.1-0.4c-0.5-0.2-1-0.3-1.5-0.5l-3.5-1l-2.5,9l2.5,0.7c0.8,0.2,1.4,0.3,1.8,0.3c0.4-0.1,0.8-0.2,1.2-0.5
				c0.3-0.2,0.6-0.6,0.9-1.1c0.3-0.5,0.6-0.9,0.7-1.4l1.2,0.3l-2.5,8.9l-1.2-0.3c0.1-0.5,0.1-1.1,0.1-1.7c0-0.6-0.1-1.1-0.2-1.4
				c-0.2-0.5-0.5-0.9-0.9-1.1c-0.4-0.2-0.9-0.5-1.6-0.7l-2.5-0.7l-1.9,6.8c-0.2,0.7-0.3,1.2-0.3,1.7c0,0.4,0.1,0.8,0.3,1
				c0.2,0.3,0.6,0.5,1,0.7c0.5,0.2,1.1,0.4,2,0.7c0.3,0.1,0.8,0.2,1.4,0.4c0.6,0.2,1.1,0.3,1.5,0.3c0.4,0.1,0.8,0.1,1.3,0.1
				c0.5,0,0.8-0.1,1-0.2c0.6-0.4,1.4-1,2.2-1.9c0.8-0.9,1.4-1.6,1.7-2L163.8,36.4z"/>
		</g>
		<g>
			<path class="st4" d="M188.3,44.7c-1,1.7-2.2,3-3.6,3.9c-1.4,0.9-2.8,1.4-4.3,1.7c-1.5,0.2-3,0.1-4.6-0.2c-1.5-0.4-3-0.9-4.4-1.7
				l-8.4-4.9l0.6-1c0.3,0.2,0.7,0.3,1.1,0.6c0.5,0.2,0.8,0.3,1,0.3c0.4,0,0.7,0,0.9-0.2c0.3-0.2,0.5-0.4,0.7-0.8l8.5-14.7
				c0.2-0.3,0.3-0.6,0.3-1c0-0.3-0.1-0.7-0.3-1c-0.2-0.3-0.5-0.6-0.8-0.9c-0.3-0.3-0.6-0.5-0.8-0.7l0.6-1l8.9,5.2
				c1.2,0.7,2.3,1.6,3.3,2.7c1,1.1,1.7,2.2,2.2,3.3c0.7,1.5,1,3.2,0.9,5C190,41.1,189.4,42.9,188.3,44.7z M184.9,42.7
				c0.8-1.4,1.3-2.7,1.6-4c0.3-1.3,0.3-2.6,0.1-3.8c-0.2-1.2-0.7-2.2-1.4-3.3c-0.7-1-1.6-1.9-2.8-2.5c-0.4-0.2-0.8-0.5-1.3-0.7
				c-0.5-0.3-0.9-0.5-1.1-0.6l-9,15.6c-0.5,0.9-0.6,1.6-0.3,2.2c0.3,0.6,1,1.3,2,1.9c1.2,0.7,2.4,1.1,3.5,1.2
				c1.2,0.1,2.2-0.1,3.2-0.5c1.1-0.5,2-1.1,2.9-2C183.2,45.2,184,44.1,184.9,42.7z"/>
		</g>
		<g>
			<path class="st4" d="M216.3,56.9c-0.2-0.2-0.6-0.5-1.1-0.8c-0.5-0.3-1-0.6-1.4-0.6c-0.4-0.1-1,0.1-1.7,0.6
				c-0.7,0.5-1.4,1.1-2.2,1.9l-7.2,7.2c-0.9,0.9-1.9,1.5-3,1.8c-1.1,0.3-2.1,0.3-3.2,0.2c-1-0.2-2-0.6-2.9-1.1
				c-0.9-0.5-1.6-1.1-2.2-1.7c-1-1-1.7-2-2.3-3.1c-0.5-1-0.8-2.1-0.9-3c-0.1-1,0-1.9,0.4-2.7c0.3-0.8,0.8-1.6,1.4-2.2l9.8-9.8
				c0.3-0.3,0.5-0.5,0.5-0.8c0.1-0.3,0.1-0.6,0-1.1c-0.1-0.3-0.3-0.6-0.5-1c-0.2-0.4-0.4-0.7-0.6-0.9l0.8-0.8l6.8,6.9l-0.8,0.8
				c-0.2-0.2-0.5-0.4-0.9-0.7c-0.4-0.3-0.7-0.4-0.9-0.5c-0.4-0.2-0.7-0.2-1-0.1c-0.3,0.1-0.6,0.3-0.9,0.6l-9.2,9.2
				c-0.4,0.4-0.9,1-1.3,1.5c-0.4,0.6-0.6,1.2-0.8,1.9c-0.1,0.7-0.1,1.5,0.2,2.3c0.3,0.8,0.8,1.7,1.7,2.6c0.9,0.9,1.7,1.5,2.6,1.8
				c0.9,0.3,1.7,0.4,2.5,0.3c0.7-0.1,1.4-0.3,2-0.6c0.6-0.3,1.1-0.7,1.6-1.2l6.8-6.8c0.9-0.9,1.5-1.6,1.9-2.3
				c0.4-0.7,0.6-1.2,0.5-1.6c-0.1-0.5-0.3-1-0.7-1.6c-0.4-0.6-0.7-1-0.9-1.3l0.8-0.8l6.7,6.8L216.3,56.9z"/>
		</g>
		<g>
			<path class="st4" d="M205.5,82.7c-0.7-1.2-1.2-2.5-1.3-3.9c-0.2-1.4-0.1-2.8,0.3-4.2c0.4-1.4,1.1-2.7,2.1-4
				c1-1.3,2.3-2.4,3.9-3.3c1.6-1,3.2-1.6,4.8-1.9c1.6-0.3,3.1-0.3,4.6,0c1.5,0.3,2.8,0.9,4,1.7c1.2,0.9,2.2,2,3,3.3
				c0.6,1,1,2,1.2,2.9c0.2,0.9,0.4,1.9,0.3,2.9l1.3,0l0.7,1.1l-7.1,4.4l-0.7-1.2c0.6-0.6,1.2-1.2,1.9-2c0.6-0.8,1.1-1.6,1.4-2.3
				c0.4-0.8,0.6-1.7,0.5-2.5c0-0.8-0.3-1.7-0.7-2.5c-0.5-0.9-1.3-1.6-2.1-2.2c-0.9-0.5-1.9-0.9-3-1c-1.1-0.1-2.3,0.1-3.7,0.5
				c-1.4,0.4-2.8,1-4.2,1.9c-1.3,0.8-2.4,1.6-3.3,2.6c-0.9,1-1.5,2-2,3.1c-0.5,1.1-0.7,2.2-0.6,3.3c0,1.1,0.4,2.2,1,3.2
				c0.5,0.8,1,1.4,1.6,1.9c0.6,0.5,1.3,0.9,2,1.1c0.7,0.2,1.4,0.4,2.2,0.4c0.7,0,1.5,0,2.3-0.2l0.1,1.4c-2.5,0.4-4.5,0.2-6.2-0.7
				C207.9,85.8,206.6,84.5,205.5,82.7z"/>
		</g>
		<g>
			<path class="st4" d="M217.7,112.2l-2.9-9.3l1.1-0.4c0.3,0.8,0.6,1.4,1,1.9c0.3,0.5,0.6,0.7,0.8,0.6c0.1,0,0.2-0.1,0.3-0.1
				c0.1-0.1,0.2-0.1,0.3-0.2l4.4-3.5l-2.5-7.9c-0.8-0.1-1.5-0.1-2.2-0.1c-0.6,0-1.2,0-1.7,0c-0.5,0-0.9,0-1.2,0.1
				c-0.3,0-0.5,0.1-0.7,0.1c-0.4,0.1-0.6,0.6-0.7,1.3c0,0.7,0.1,1.5,0.3,2.4l-1.1,0.4l-2.7-8.4l1.1-0.4c0.1,0.3,0.3,0.6,0.5,1
				c0.2,0.4,0.5,0.7,0.7,0.9c0.4,0.3,0.8,0.6,1.2,0.7c0.4,0.1,0.9,0.2,1.5,0.3c3.2,0.2,6.7,0.5,10.6,0.7c3.9,0.2,7.4,0.5,10.5,0.7
				l0.4,1.3L220,107.9c-0.4,0.3-0.6,0.6-0.8,0.9c-0.2,0.3-0.4,0.6-0.5,1.1c-0.1,0.3-0.1,0.6-0.1,1.1c0,0.4,0.1,0.8,0.1,1
				L217.7,112.2z M224,100.3l7.6-6.2l-9.8-0.6L224,100.3z"/>
		</g>
		<g>
			<path class="st4" d="M235.9,129.7l-0.1-1.1c0.4-0.1,0.8-0.4,1.4-0.7c0.5-0.3,1-0.6,1.5-1c0.5-0.4,0.9-0.8,1.2-1.2
				c0.3-0.4,0.5-0.8,0.6-1.2c0-0.3,0-0.8,0-1.3c0-0.5,0-1-0.1-1.4l-0.1-1l-18.7,1.5c-0.4,0-0.7,0.1-1,0.3c-0.3,0.2-0.5,0.5-0.6,0.9
				c-0.1,0.2-0.1,0.6-0.2,1.3c-0.1,0.6-0.1,1.1-0.1,1.5l-1.2,0.1l-0.9-11.1l1.2-0.1c0,0.3,0.1,0.8,0.2,1.4c0.1,0.6,0.2,1.1,0.4,1.3
				c0.2,0.4,0.4,0.6,0.7,0.8c0.3,0.1,0.7,0.2,1.1,0.2l18.9-1.5l-0.1-1c0-0.3-0.1-0.8-0.1-1.3c-0.1-0.5-0.1-1-0.2-1.4
				c-0.1-0.4-0.3-0.7-0.7-1.1c-0.4-0.4-0.9-0.7-1.4-1c-0.5-0.3-1.1-0.5-1.6-0.7c-0.6-0.2-1-0.3-1.4-0.4l-0.1-1.2l6.3-0.5l1.6,20.4
				L235.9,129.7z"/>
		</g>
		<g>
			<path class="st4" d="M217.3,142.8l1-10.5l1.2,0.1c0,0.3,0,0.7,0,1.3c0,0.6,0,1,0.1,1.2c0.1,0.4,0.3,0.7,0.5,0.9
				c0.2,0.2,0.6,0.3,1,0.4l16.9,1.7c0.4,0,0.7,0,1-0.1c0.3-0.1,0.5-0.4,0.7-0.8c0.2-0.3,0.3-0.7,0.5-1.2c0.2-0.5,0.3-0.9,0.3-1.2
				l1.2,0.1l-1.1,10.5l-1.2-0.1c0-0.3,0-0.8,0-1.2c0-0.5-0.1-0.9-0.1-1.3c-0.1-0.4-0.3-0.7-0.6-0.9c-0.3-0.2-0.6-0.3-1-0.3
				l-16.9-1.7c-0.4,0-0.7,0-1,0.1c-0.3,0.1-0.5,0.4-0.7,0.7c-0.1,0.2-0.2,0.6-0.4,1.1c-0.2,0.5-0.3,0.9-0.3,1.3L217.3,142.8z"/>
		</g>
		<g>
			<path class="st4" d="M231.6,169.3c-1.3,0.7-2.8,1.1-4.5,1.2c-1.6,0.1-3.3-0.1-5.1-0.7c-1.8-0.6-3.3-1.3-4.6-2.4
				c-1.3-1-2.3-2.2-3-3.5c-0.7-1.3-1.1-2.7-1.3-4.2c-0.1-1.5,0-2.9,0.5-4.4c0.5-1.6,1.2-2.9,2.2-4.1c1-1.1,2.2-2,3.5-2.7
				c1.3-0.6,2.8-1,4.4-1.1c1.6-0.1,3.3,0.1,4.9,0.6c1.8,0.6,3.4,1.4,4.6,2.4c1.3,1,2.2,2.2,3,3.5c0.7,1.3,1.2,2.7,1.3,4.2
				c0.1,1.5,0,2.9-0.5,4.4c-0.5,1.5-1.2,2.8-2.1,4C234,167.8,232.9,168.7,231.6,169.3z M216.4,162c0.8,0.9,1.7,1.7,2.9,2.3
				c1.1,0.7,2.4,1.2,3.9,1.7c1.5,0.5,3,0.8,4.4,0.9c1.4,0.1,2.6,0,3.7-0.3c1.1-0.3,2-0.8,2.8-1.5c0.8-0.7,1.3-1.6,1.7-2.8
				c0.4-1.3,0.4-2.4,0.1-3.5c-0.3-1.1-0.9-2-1.7-2.9c-0.8-0.8-1.7-1.5-2.9-2.2c-1.2-0.6-2.4-1.2-3.8-1.6c-1.5-0.5-2.9-0.8-4.2-0.9
				c-1.3-0.1-2.5,0-3.7,0.3c-1.1,0.3-2,0.8-2.8,1.5c-0.8,0.7-1.4,1.7-1.7,2.9c-0.4,1.1-0.4,2.2-0.2,3.3
				C215.1,160.2,215.6,161.1,216.4,162z"/>
		</g>
		<g>
			<path class="st4" d="M216,200.2c0.2-0.3,0.3-0.7,0.5-1.4c0.2-0.6,0.3-1.1,0.3-1.4c0-0.5-0.3-1-0.9-1.5c-0.6-0.5-1.4-1.1-2.4-1.8
				l-14.5-9.2l0.8-1.2l23.8-1.7l-10.2-6.5c-1.1-0.7-2.1-1.2-2.8-1.5c-0.7-0.2-1.3-0.3-1.7-0.2c-0.3,0.1-0.8,0.4-1.4,1
				c-0.6,0.6-1,0.9-1.1,1.2l-1-0.6l5.2-8.1l1,0.6c-0.1,0.3-0.3,0.7-0.5,1.5c-0.2,0.7-0.3,1.2-0.3,1.4c0,0.5,0.3,1,0.8,1.4
				c0.5,0.5,1.3,1.1,2.6,1.9l9.7,6.2c0.4,0.3,0.9,0.5,1.4,0.6c0.5,0.1,1,0.1,1.4,0c0.5-0.1,1.1-0.4,1.7-0.9c0.6-0.4,1-0.8,1.2-1.2
				l1,0.6l-3.6,5.7l-22.1,1.5l9.4,6c1.2,0.7,2.1,1.2,2.8,1.5c0.7,0.2,1.3,0.3,1.6,0.1c0.3-0.1,0.8-0.5,1.3-0.9
				c0.5-0.5,0.9-0.9,1.1-1.2l1,0.6l-5.1,8.1L216,200.2z"/>
		</g>
	</g>
	<g>
		<path class="st4" d="M128,256.7c-70.6,0-128-57.6-128-128.4C0,57.6,57.4,0,128,0c70.6,0,128,57.6,128,128.4
			C256,199.1,198.6,256.7,128,256.7z M128,2C58.5,2,2,58.7,2,128.4c0,69.7,56.5,126.4,126,126.4c69.5,0,126-56.7,126-126.4
			C254,58.7,197.5,2,128,2z"/>
	</g>
	<g>
		<g>
			<path class="st4" d="M73.9,198.4l1.1,0.7c0.8,0.9,0.7,1.9-0.3,3.1l3.8,2.5c0.4,0.2,0.5,0.7,0.2,1.4l2.7-1.2l0.7,0.4
				c0.4,1.6-1.8,3.1-6.6,4.6l2.2,1.4c-0.7,1.9-2,2.1-3.9,0.7l-1.8-1.2l-4,0.5l6.8,4.1c0.8,1.1,0,1.6-2.6,1.5l-5,0.7l0.3,2.8l3.9,1.7
				c0.4,1.7-1.1,1.9-4.4,0.5l-0.2,0.3c-0.4,1.7-1.6,3.8-3.6,6.1c-3.1,1.7-6.3,0.9-9.7-2.5l0.4-3.8l0.3,0l3,2.5
				c2.5,1.3,4.3,1.1,5.4-0.6l1.5-2.6c-1.4-0.6-5.2-1.4-11.4-2.6c-0.6-0.3-0.9-0.7-0.9-1.2l0.6-1.2c0.1-1.2,2.5-0.9,7.3,0.9l5.2,1.6
				c0.4-0.2,0-1.8-1.2-4.7l0.3-0.6l0.4-0.1c0.5,0.1,1.1,0.6,1.8,1.7l3.3-0.8l0.1-0.2c-2.7-2.5-6.3-3.9-11-4.2l-1.7-0.5
				c-1.2-0.9-1.7-2.3-1.6-4l0.4-0.7c0.2-0.2,1,0.3,2.4,1.4c2.3,1.6,5.5,2.3,9.8,2l0.3-0.2l-6.3-3.6l-2.9-1.2l-0.5-1l0.5-0.9
				c0.6-0.5,1.2-0.7,1.8-0.6c0.5,0.6,3,2.1,7.6,4.5l1.7-3.5l-5.6-2.5l-0.2-0.9l0.5-0.9l1.5-0.5l4.9,2.8l1.4-2L73.9,198.4z
				 M73.5,204.3l-2.2,3.3l1.3,0.8c1.5-0.3,3.1-0.8,4.9-1.7l0-0.1L73.5,204.3z M87,220.2l1,0.6c0.9,0.5,0,2.1-2.7,5
				c-0.9,1.3-2.6,3-5.2,5.1c1,3.4,2.8,6.4,5.3,8.9l1.5,1.5c-0.6,1.9-2.9,1.9-6.8,0.1c-0.8-0.3-1.8-3.3-3-8.9l-0.1-0.1
				c-1.2,0.6-3.1,1-5.6,1.3c-0.8,0-1.7-0.2-2.5-0.5c-1.4-1-2-2.7-1.9-5.2l0.6-1.1l0.2,0c2.6,2.2,5.5,2.8,8.8,1.9l-0.8-8.3l0.4-0.7
				c0.4-0.4,0.8-0.5,1.1-0.3l0.8,0.5c0.3,0,0.5,1.2,0.7,3.6l0.7,4c1.9-0.8,4.3-3.2,7-7.4L87,220.2z M88.1,208.6l0.9,0.5
				c0.7,0.9-0.5,2.3-3.6,4.2l2.2,1.5l8.1,4.6c-0.3,2-1.5,2.5-3.4,1.4c0.1-0.3-2.3-1.7-7.1-4.3l-2.8-1.1l-2.4,1.2
				c-1.6-0.5-2.3-1.7-2.3-3.6l0.4-0.8C80.9,212.8,84.2,211.5,88.1,208.6z"/>
		</g>
		<g>
			<path class="st4" d="M129.4,214.7h1.4c1.3-0.1,1.5,1.5,0.6,4.8l15.9-0.1l4.3-0.2c1,1.4-0.2,2.8-3.6,4.2l-10.5-1l3.6,5.3
				c0.1,1.3-0.5,1.8-1.7,1.7l-12.6,0.1c0-0.3-1.9-0.3-5.6,0c-1.3,0.3-2.2,0.1-2.8-0.7v-1c-0.3-0.4,1.1-1.4,4.1-3.2l2.5-2.5
				c-2-0.1-6.6,0.2-13.8,1.1c-1,0.4-1.9,0.3-3-0.3l-0.2-1.3l1.5-1.5c0.1,0.2,3.3,0.1,9.8-0.3l9.3-0.2l-0.7-3.3V216
				C128.4,215.2,128.8,214.8,129.4,214.7z M140.2,231.6h1.1c1.2-0.1,1.2,1.8,0,5.5l-0.1,7.2c0.4,1.1,0.4,2.7,0,5.1
				c-2.5,1.2-3.4-0.5-2.9-5.1c-4.9-0.2-10.5,0-16.9,0.7c-2,3-5,4.7-9,4.9c-1.8-0.6-3.2-1.7-4.3-3.3v-0.9c0-0.3,0.5-0.4,1.5-0.3
				c2.2,0.1,4.7-0.3,7.7-1.2c3.1-1,4-4.8,2.7-11.6l0.7-0.7c0.1,0.2,2.3,0.2,6.7,0l11.6,0L140.2,231.6z M138.6,239.1l-15.7,0.7
				l-0.3,2.2l15.8,0.1L138.6,239.1z M128.4,234.1l-5.3,0.6l-0.1,2.1l15.7,0.1v-2.4l-0.5-0.4H128.4z M129.5,222.1
				c-1.1,1.2-3.1,2.7-5.8,4.5v0.1c1.7,0.8,6,0.8,13.1,0l0.1-0.5l-2.9-4L129.5,222.1z"/>
		</g>
		<g>
			<path class="st4" d="M175.9,215l0.9-0.7c1-0.7,1.8,0.6,2.7,3.8l0.2,0.3l3.2-2.8c1.4,0.3,1.7,1.1,0.8,2.6l-6.3,4.9
				c-1.4,0.8-4.2,3.3-8.5,7.6c-0.5,0.2-0.8,0.2-1.1,0l-0.6-0.7c-0.2-0.7-0.1-1.4,0.3-1.9c0.5-0.3,1.9-1.4,4-3.2
				c0.1-0.2-0.7-0.7-2.4-1.3l-1.4-0.8c-0.1-0.5,0-0.9,0.3-1.2l1-0.8c0.5-0.8,1.8,0.1,3.9,2.6l0.2,0.3l5-4l-2.4-3.8L175.9,215z
				 M167.3,212.4l0.9-0.7c0.9-0.8,1.9,0.2,3.2,2.8l5.5-4.5c1.4,1.2,1.2,2.4-0.6,3.5l-9.3,7.5l-2,2.1l-0.9,0.1l-0.6-0.7
				c-0.2-0.7-0.1-1.2,0.1-1.7c0.8-0.4,2.8-1.9,5.8-4.7l-2.4-1.9C166.8,213.4,166.9,212.8,167.3,212.4z M173.1,229.1
				c0.2-0.4,1.1-0.9,2.7-1.4l6.7-5.2c0.1-0.4,0.5-0.9,1.1-1.2c0.8-0.6,2.2,0.8,4.4,4.3l2.3,2.7c0.6,0.6,0.6,1.3-0.1,2
				c-0.2-0.3-3,1.8-8.3,6.4l-1.6,1.2l-0.7-0.1c0.2-0.2-1.2-1.9-4.1-5L173,230L173.1,229.1z M176.7,229.3c-0.8,0.3-0.4,1.2,1,2.7
				l2.3,2.8l0.9-0.1l5.3-4.4l1.2-0.8c0.5-0.3-0.3-1.7-2.5-4l-1-1.2c-0.3-0.4-2.2,0.8-5.5,3.8L176.7,229.3z M179.2,206.2l10.2-8.2
				c1.9-0.6,2.4,1.3,1.5,5.5l-0.1,2.5c0.1,0.3,0.8,0.3,2.3,0c3.3-0.1,5.4,1.1,6.4,3.5c1,3.4-0.7,6.7-5.1,9.9l4.4,4.8
				c0.5,0.6,0.6,1.3,0.5,2.1c-0.7,1-1.5,1.1-2.6,0.2c-0.8-1.2-5.2-6.4-13.2-15.7l-2.5-2.6c-0.2,0.5-0.7,0.8-1.5,0.9l-0.8-0.9
				C178.3,207.6,178.5,207,179.2,206.2z M182.7,206.2l9.9,11.2c2-1.3,3.3-3.1,4-5.2l0.1-1.6l-0.9-1.3c-0.9-0.8-2.4-1-4.6-0.5
				c-0.4-0.2-1,0.7-1.8,2.6c-0.4,0.4-0.8,0.5-1.2,0.3l-0.6-0.7l0.4-8.9l-0.3,0L182.7,206.2z"/>
		</g>
	</g>
</g>
</svg>
