<?xml version="1.0" encoding="utf-8"?>
<!-- Generator: $$$/GeneralStr/196=Adobe Illustrator 27.6.0, SVG Export Plug-In . SVG Version: 6.00 Build 0)  -->
<svg version="1.1" id="圖層_1" xmlns="http://www.w3.org/2000/svg" xmlns:xlink="http://www.w3.org/1999/xlink" x="0px" y="0px"
	 viewBox="0 0 240 320" style="enable-background:new 0 0 240 320;" xml:space="preserve">
<style type="text/css">
	.st0{fill:#58B2DC;}
	.st1{fill:#F2F2F2;}
</style>
<rect id="bg" x="-136" y="-96" class="st0" width="512" height="512"/>
<path id="icon" class="st1" d="M151.4,158.5l-4-1.1c5.6-7.7,6.4-15.5,6.4-19.7c0-18.7-15.1-33.8-33.8-33.8S86.2,119,86.2,137.7
	c0,4.2,0.8,12,6.4,19.7l-4,1.1C76,162.1,72,173.6,72,180.5v4.8c0,8.1,6.6,14.6,14.6,14.6h66.9c8.1,0,14.6-6.6,14.6-14.6v-4.8
	C168,173.7,164.1,162.1,151.4,158.5L151.4,158.5z M120,112.9c13.7,0,24.8,11.1,24.8,24.8c0,13.7-11.1,24.8-24.8,24.8
	s-24.7-11.2-24.7-24.8S106.4,112.9,120,112.9z M159,185.4c0,3.1-2.5,5.6-5.6,5.6H86.6c-3.1,0-5.6-2.5-5.6-5.6v-4.8
	c0-6.2,4.1-11.7,10.1-13.4l8.7-2.4c2.8,2.1,9.9,6.8,20.3,6.8s17.5-4.7,20.3-6.8l8.7,2.4c6,1.7,10.1,7.1,10.1,13.4v4.8H159z"/>
</svg>
