<?xml version="1.0" encoding="utf-8"?>
<!-- Generator: Adobe Illustrator 23.0.1, SVG Export Plug-In . SVG Version: 6.00 Build 0)  -->
<svg version="1.1" id="圖層_1" xmlns="http://www.w3.org/2000/svg" xmlns:xlink="http://www.w3.org/1999/xlink" x="0px" y="0px"
	 viewBox="0 0 80 82" style="enable-background:new 0 0 80 82;" xml:space="preserve">
<style type="text/css">
	.st0{fill:#ffffff;}
</style>
<g>
	<g>
		<path class="st0" d="M13.7,11.6C5.8,19.1,0.1,29.8,0,41.8c-0.2,19.6,12,37.7,38.2,40.3V56.8L13.7,42.2l0-29.4L13.7,11.6z"/>
		<path class="st0" d="M66.5,11.6c7.9,7.5,13.3,18.2,13.4,30.2c0.2,19.6-11.7,37.7-38,40.3V56.8l24.5-14.6V12.8L66.5,11.6z"/>
	</g>
	<g>
		<path class="st0" d="M40.1,0L17.8,13.3v26.6l22.3,13.3l22.3-13.3V13.3L40.1,0z M40.1,40.8c-7.6,0-13.7-6.4-13.7-14.2
			c0-7.9,6.1-14.2,13.7-14.2c7.6,0,13.7,6.4,13.7,14.2C53.8,34.4,47.7,40.8,40.1,40.8z"/>
	</g>
</g>
</svg>
