<?xml version="1.0" encoding="utf-8"?>
<!-- Generator: Adobe Illustrator 23.0.0, SVG Export Plug-In . SVG Version: 6.00 Build 0)  -->
<svg version="1.1" id="圖層_1" xmlns="http://www.w3.org/2000/svg" xmlns:xlink="http://www.w3.org/1999/xlink" x="0px" y="0px"
	 viewBox="0 0 146 40" style="enable-background:new 0 0 146 40;" xml:space="preserve">
<style type="text/css">
	.st0{fill:#00689A;}
</style>
<g>
	<path class="st0" d="M12.65,32.93H0.48V7.95H12c5,0,7.52,2.59,7.52,6.77c0,2.09-0.9,3.78-2.45,4.9c2.12,1.12,3.42,3.13,3.42,5.97
		C20.49,30.05,17.47,32.93,12.65,32.93z M5.23,12.27v5.51H12c1.62,0,2.92-1.12,2.92-2.77S13.8,12.27,12,12.27H5.23z M11.89,22.13
		H5.23v6.44H12c1.84,0,3.64-0.72,3.64-3.17C15.63,23.32,14.3,22.13,11.89,22.13z"/>
	<path class="st0" d="M35.94,31.2c-1.22,1.3-3.1,2.09-5.69,2.09c-3.92,0-7.52-1.98-7.52-6.01c0-4.17,3.49-5.25,7.6-5.62
		c3.1-0.29,5.29-0.65,5.29-2.16c0-0.97-1.26-1.76-3.38-1.76c-1.69,0-3.64,0.76-4.07,2.34h-4.75c0.47-3.53,3.85-6.16,8.71-6.16
		c7.52,0,8.1,4.86,8.1,6.34v9.65c0,0.9,0.29,2.3,0.54,3.02h-4.36C36.19,32.46,36.05,31.89,35.94,31.2z M35.79,24
		c-1.01,0.65-2.56,0.97-4.5,1.19c-2.34,0.25-3.78,0.76-3.78,2.12c0,1.04,1.22,1.76,3.13,1.76c2.84,0,5.15-0.97,5.15-3.35V24z"/>
	<path class="st0" d="M53.22,33.36c-5.58,0-9.57-4.32-9.57-9.68s4-9.75,9.57-9.75c4.46,0,7.85,2.52,8.93,6.7h-5.08
		c-0.65-1.26-2.12-2.34-3.85-2.34c-2.63,0-4.75,2.45-4.75,5.44c0,2.92,2.12,5.33,4.75,5.33c1.76,0,3.28-1.08,3.89-2.38h5.08
		C61.1,30.88,57.72,33.36,53.22,33.36z"/>
	<path class="st0" d="M70.03,27.6v5.33h-4.75V6.15h4.75v14.97l6.08-6.73h6.55l-6.91,7.23l7.31,11.3h-6.05l-4.61-7.81L70.03,27.6z"/>
	<path class="st0" d="M89.11,25.51c0.61,2.27,2.41,3.67,4.64,3.67c1.58,0,3.13-0.68,3.92-2.16h5.08c-1.08,3.78-4.36,6.33-8.96,6.33
		c-5.22,0-9.5-4.32-9.5-9.68s4.28-9.75,9.5-9.75c5.47,0,10.01,4.25,9.32,11.59H89.11z M98.4,21.63c-0.58-2.16-2.38-3.53-4.64-3.53
		c-2.16,0-3.89,1.37-4.57,3.53H98.4z"/>
	<path class="st0" d="M122.98,32.93h-4.75V22.1c0-1.08-0.32-3.67-3.46-3.67c-2.12,0-3.6,1.58-3.6,3.67v10.83h-4.75V14.39h4.54v1.8
		c1.19-1.4,2.81-2.27,4.79-2.27c4.36,0,7.24,3.28,7.24,8.17V32.93z"/>
	<path class="st0" d="M145.16,32.93h-4.54v-1.98c-1.48,1.51-3.42,2.38-5.69,2.38c-4.82,0-8.82-4.17-8.82-9.65
		c0-5.51,4-9.68,8.82-9.68c2.16,0,4.03,0.79,5.47,2.16V6.15h4.75V32.93z M135.66,18.39c-2.63,0-4.75,2.3-4.75,5.33
		c0,2.95,2.12,5.22,4.75,5.22c2.63,0,4.75-2.34,4.75-5.22C140.41,20.76,138.28,18.39,135.66,18.39z"/>
</g>
</svg>
