<?xml version="1.0" encoding="utf-8"?>
<!-- Generator: $$$/GeneralStr/196=Adobe Illustrator 27.6.0, SVG Export Plug-In . SVG Version: 6.00 Build 0)  -->
<svg version="1.1" id="ssdlc" xmlns="http://www.w3.org/2000/svg" xmlns:xlink="http://www.w3.org/1999/xlink" x="0px" y="0px"
	 viewBox="0 0 640 640" style="enable-background:new 0 0 640 640;" xml:space="preserve">
<style type="text/css">
	.st0{fill:#C3CED5;}
	.st1{fill:#363B3D;}
	.st2{enable-background:new    ;}
	.st3{fill:#7E959C;}
	.st4{fill:#FFFFFF;}
	.st5{fill:#7E9C86;}
	.st6{fill:#FEFEFE;}
	.st7{fill:#909C7E;}
	.st8{fill:#9C847E;}
	.st9{fill:#9C7E8F;}
	.st10{fill:#7F7E9C;}
	.st11{fill:none;stroke:#CBD1D5;stroke-width:0.5;stroke-miterlimit:10;}
</style>
<g id="big_x5F_circle">
	<path class="st0" d="M320,97c30.1,0,59.3,5.9,86.8,17.5c26.6,11.2,50.4,27.3,70.9,47.8s36.6,44.3,47.8,70.9
		c11.6,27.5,17.5,56.7,17.5,86.8s-5.9,59.3-17.5,86.8c-11.2,26.6-27.3,50.4-47.8,70.9s-44.3,36.6-70.9,47.8
		C379.3,537.1,350.1,543,320,543s-59.3-5.9-86.8-17.5c-26.6-11.2-50.4-27.3-70.9-47.8s-36.6-44.3-47.8-70.9
		C102.9,379.3,97,350.1,97,320s5.9-59.3,17.5-86.8c11.2-26.6,27.3-50.4,47.8-70.9s44.3-36.6,70.9-47.8C260.7,102.9,289.9,97,320,97
		 M320,96C196.3,96,96,196.3,96,320s100.3,224,224,224s224-100.3,224-224S443.7,96,320,96L320,96z"/>
</g>
<g id="c01">
	<g>
		<circle class="st1" cx="544" cy="320" r="96"/>
	</g>
	<g class="st2">
		<path class="st3" d="M515.5,335.2v4.1h-2.3V328h4.5c1.3,0,2.4,0.3,3.1,1c0.7,0.7,1.1,1.5,1.1,2.6s-0.4,2-1.1,2.6
			c-0.7,0.7-1.8,1-3.1,1H515.5z M515.5,333.5h2.2c0.7,0,1.1-0.2,1.5-0.5c0.3-0.3,0.5-0.8,0.5-1.3c0-0.6-0.2-1-0.5-1.4
			s-0.8-0.5-1.5-0.5h-2.2V333.5z"/>
		<path class="st3" d="M525.9,339.3h-2.3v-12.2h2.3V339.3z"/>
		<path class="st3" d="M532.7,339.3c-0.1-0.2-0.1-0.3-0.2-0.5c-0.1-0.2-0.1-0.3-0.1-0.5c-0.3,0.4-0.6,0.6-1,0.9
			c-0.4,0.2-0.8,0.3-1.3,0.3c-0.8,0-1.5-0.2-2-0.7s-0.7-1.1-0.7-1.9s0.3-1.5,0.9-1.9c0.6-0.4,1.6-0.7,2.8-0.7h1.2v-0.7
			c0-0.4-0.1-0.7-0.3-1s-0.5-0.3-1-0.3c-0.4,0-0.7,0.1-0.9,0.3c-0.2,0.2-0.3,0.4-0.3,0.7h-2.3c0-0.8,0.3-1.4,1-1.9s1.5-0.8,2.6-0.8
			c1,0,1.9,0.2,2.5,0.8c0.6,0.5,0.9,1.2,0.9,2.2v3.5c0,0.4,0,0.8,0.1,1.1c0.1,0.3,0.2,0.7,0.3,1h-2.2V339.3z M530.7,337.8
			c0.3,0,0.7-0.1,0.9-0.2c0.3-0.1,0.5-0.3,0.7-0.6v-1.4h-1.2c-0.5,0-0.9,0.1-1.1,0.4c-0.2,0.2-0.4,0.5-0.4,0.9
			c0,0.3,0.1,0.5,0.3,0.7C530.1,337.7,530.4,337.8,530.7,337.8z"/>
		<path class="st3" d="M538.4,330.9l0.1,1.2l0,0c0.3-0.4,0.6-0.8,1-1s0.9-0.3,1.4-0.3c0.9,0,1.5,0.3,2,0.8s0.7,1.4,0.7,2.5v5.3h-2.3
			v-5.3c0-0.6-0.1-1-0.3-1.2s-0.6-0.3-1-0.3c-0.3,0-0.6,0.1-0.8,0.2s-0.4,0.3-0.6,0.5v6.1h-2.3v-8.5L538.4,330.9L538.4,330.9z"/>
		<path class="st3" d="M547.4,330.9l0.1,1.2l0,0c0.3-0.4,0.6-0.8,1-1s0.9-0.3,1.4-0.3c0.9,0,1.5,0.3,2,0.8s0.7,1.4,0.7,2.5v5.3h-2.3
			v-5.3c0-0.6-0.1-1-0.3-1.2s-0.6-0.3-1-0.3c-0.3,0-0.6,0.1-0.8,0.2s-0.4,0.3-0.6,0.5v6.1h-2.3v-8.5L547.4,330.9L547.4,330.9z"/>
		<path class="st3" d="M556.8,328.9h-2.3v-1.7h2.3V328.9z M556.8,339.3h-2.3v-8.5h2.3V339.3z"/>
		<path class="st3" d="M560.7,330.9l0.1,1.2l0,0c0.3-0.4,0.6-0.8,1-1s0.9-0.3,1.4-0.3c0.9,0,1.5,0.3,2,0.8s0.7,1.4,0.7,2.5v5.3h-2.3
			v-5.3c0-0.6-0.1-1-0.3-1.2s-0.6-0.3-1-0.3c-0.3,0-0.6,0.1-0.8,0.2s-0.4,0.3-0.6,0.5v6.1h-2.3v-8.5L560.7,330.9L560.7,330.9z"/>
		<path class="st3" d="M567.3,335.2c0-1.4,0.3-2.4,0.9-3.2s1.4-1.2,2.5-1.2c0.5,0,0.9,0.1,1.3,0.3c0.4,0.2,0.7,0.5,0.9,0.9l0.2-1.1
			h2v8.2c0,1.1-0.4,2-1.1,2.7c-0.7,0.7-1.7,1-2.9,1c-0.4,0-0.9-0.1-1.4-0.2s-0.9-0.3-1.4-0.5l0.4-1.6c0.4,0.2,0.7,0.3,1.1,0.4
			c0.4,0.1,0.7,0.1,1.1,0.1c0.6,0,1.1-0.2,1.4-0.5c0.3-0.3,0.5-0.8,0.5-1.4v-0.5l0,0c-0.2,0.3-0.5,0.5-0.9,0.7
			c-0.3,0.2-0.7,0.2-1.2,0.2c-1.1,0-1.9-0.4-2.4-1.1c-0.6-0.7-0.9-1.8-0.9-3L567.3,335.2L567.3,335.2z M569.6,335.3
			c0,0.8,0.1,1.3,0.4,1.8c0.2,0.4,0.7,0.6,1.2,0.6c0.4,0,0.6-0.1,0.9-0.2c0.2-0.1,0.4-0.3,0.6-0.6v-3.7c-0.2-0.3-0.3-0.5-0.6-0.6
			c-0.2-0.1-0.5-0.2-0.9-0.2c-0.6,0-1,0.2-1.2,0.7c-0.3,0.5-0.4,1.1-0.4,1.9V335.3z"/>
	</g>
	<g class="st2">
		<path class="st4" d="M527.7,311c-0.7-0.8-2.3-2.5-3.4-3.7c-0.6,2.5-1.8,4.9-4.3,6.7c-0.2-0.3-0.8-0.8-1.1-1
			c3.3-2.1,4.1-5.5,4.3-8.5H519v-1.3h4.2c0-0.3,0-0.7,0-1v-2.7h-3.7v-1.3h3.7v-3.4h1.6v3.4h3.6v1.3h-3.6v2.7c0,0.3,0,0.7,0,1h4.1
			v1.3h-4.1c0,0.5-0.1,0.9-0.1,1.4c1,0.9,3.7,3.4,4.3,4.1L527.7,311z M539.7,312.5c0.6,0,0.7-0.3,0.8-2.9c0.3,0.2,1,0.4,1.4,0.5
			c-0.2,2.9-0.6,3.6-2,3.6h-2.1c-1.6,0-2-0.4-2-1.9v-4.7h-2.4c-0.5,3.3-1.8,5.6-6,6.9c-0.2-0.3-0.6-0.8-1-1.1c3.9-1.1,5-3.1,5.4-5.8
			h-2.1v-11.9h10.7v11.9h-3v4.7c0,0.5,0.1,0.6,0.7,0.6L539.7,312.5L539.7,312.5z M531.3,299h7.5v-2.3h-7.5V299z M531.3,302.4h7.5
			v-2.3h-7.5V302.4z M531.3,306h7.5v-2.3h-7.5V306z"/>
		<path class="st4" d="M544,312.5c3.5-0.1,9.1-0.4,14.5-0.6v1.1c-5.2,0.3-10.7,0.5-14.3,0.7L544,312.5z M556.9,298h1.6v1h-1.6v2.2
			h-5v1h5.4v1h-5.4v1.1h6.4v1h-14.1v-1h6.2v-1.1h-5v-1h5v-1h-4.8v-1h4.8V299H544v-1h6.4v-1.1h-4.7V296h4.7v-1.4h1.5v1.4h5V298z
			 M556.8,306.3v4.7h-11.1v-4.7H556.8z M547.1,308.2h3.4v-1.1h-3.4V308.2z M547.1,310.2h3.4v-1.1h-3.4V310.2z M551.9,298h3.5v-1.1
			h-3.5V298z M555.4,299.1h-3.5v1.2h3.5V299.1z M555.4,307.1H552v1.1h3.4V307.1z M555.4,309.1H552v1.1h3.4V309.1z M561,308.9h-1.5
			v-11.8h1.5V308.9z M565.8,294.9v17.4c0,0.9-0.3,1.4-1,1.6s-1.8,0.3-3.8,0.3c0-0.4-0.3-1-0.5-1.4c1.5,0,2.8,0,3.2,0
			s0.6-0.1,0.6-0.5v-17.4H565.8z"/>
	</g>
</g>
<g id="c02_00000111179074494523057210000001988067526364303507_">
	<g>
		<circle class="st1" cx="432" cy="514" r="96"/>
	</g>
	<g class="st2">
		<path class="st5" d="M408.6,535.8h-4l-0.8,2.5h-2.3l3.9-11.4h2.3l3.9,11.4h-2.3L408.6,535.8z M405.1,534.1h2.9l-1.4-4.6l0,0
			L405.1,534.1z"/>
		<path class="st5" d="M414.3,529.9l0.1,1.2l0,0c0.3-0.4,0.6-0.8,1-1s0.9-0.3,1.4-0.3c0.9,0,1.5,0.3,2,0.8s0.7,1.4,0.7,2.5v5.3h-2.3
			v-5.3c0-0.6-0.1-1-0.3-1.2c-0.2-0.2-0.6-0.3-1-0.3c-0.3,0-0.6,0.1-0.8,0.2c-0.2,0.1-0.4,0.3-0.6,0.5v6.1h-2.3v-8.5H414.3z"/>
		<path class="st5" d="M426.2,538.3c-0.1-0.2-0.1-0.3-0.2-0.5s-0.1-0.3-0.1-0.5c-0.3,0.4-0.6,0.6-1,0.9c-0.4,0.2-0.8,0.3-1.3,0.3
			c-0.8,0-1.5-0.2-2-0.7s-0.7-1.1-0.7-1.9c0-0.8,0.3-1.5,0.9-1.9s1.6-0.7,2.8-0.7h1.2v-0.7c0-0.4-0.1-0.7-0.3-1s-0.5-0.3-1-0.3
			c-0.4,0-0.7,0.1-0.9,0.3c-0.2,0.2-0.3,0.4-0.3,0.7H421c0-0.8,0.3-1.4,1-1.9s1.5-0.8,2.6-0.8c1,0,1.9,0.2,2.5,0.8
			c0.6,0.5,0.9,1.2,0.9,2.2v3.5c0,0.4,0,0.8,0.1,1.1s0.2,0.7,0.3,1h-2.2V538.3z M424.3,536.8c0.3,0,0.7-0.1,0.9-0.2
			c0.3-0.1,0.5-0.3,0.7-0.6v-1.4h-1.2c-0.5,0-0.9,0.1-1.1,0.4c-0.2,0.2-0.4,0.5-0.4,0.9c0,0.3,0.1,0.5,0.3,0.7
			C423.7,536.7,423.9,536.8,424.3,536.8z"/>
		<path class="st5" d="M432.3,538.3H430v-12.2h2.3V538.3z"/>
		<path class="st5" d="M437.2,534.8l0.1,0.5l0,0l1.6-5.4h2.5l-3.4,9.7c-0.2,0.6-0.5,1.1-0.9,1.5s-1,0.6-1.9,0.6c-0.2,0-0.4,0-0.5,0
			s-0.4-0.1-0.6-0.1l0.3-1.7c0.1,0,0.1,0,0.2,0s0.1,0,0.2,0c0.4,0,0.7-0.1,0.9-0.2s0.3-0.4,0.5-0.7l0.3-0.7l-3-8.4h2.5L437.2,534.8z
			"/>
		<path class="st5" d="M446.9,536c0-0.3-0.1-0.5-0.4-0.6c-0.2-0.2-0.7-0.3-1.4-0.5c-1-0.2-1.8-0.5-2.3-0.9s-0.8-0.9-0.8-1.6
			c0-0.7,0.3-1.4,0.9-1.9s1.4-0.8,2.5-0.8s2,0.2,2.6,0.8c0.6,0.5,0.9,1.2,0.9,2h-2.3c0-0.3-0.1-0.6-0.3-0.8s-0.5-0.3-1-0.3
			c-0.4,0-0.7,0.1-0.9,0.3c-0.2,0.2-0.3,0.4-0.3,0.7s0.1,0.5,0.3,0.6c0.2,0.2,0.7,0.3,1.4,0.4c1.1,0.2,1.8,0.5,2.3,0.9
			s0.7,1,0.7,1.7c0,0.8-0.3,1.4-1,1.9c-0.6,0.5-1.5,0.7-2.6,0.7c-1.2,0-2-0.3-2.7-0.8c-0.6-0.6-1-1.2-1-2h2.2c0,0.5,0.2,0.8,0.4,1
			c0.3,0.2,0.6,0.3,1.1,0.3c0.4,0,0.8-0.1,1-0.2C446.8,536.5,446.9,536.3,446.9,536z"/>
		<path class="st5" d="M453,527.9h-2.3v-1.7h2.3V527.9z M453,538.3h-2.3v-8.5h2.3V538.3z"/>
		<path class="st5" d="M459.4,536c0-0.3-0.1-0.5-0.4-0.6c-0.2-0.2-0.7-0.3-1.4-0.5c-1-0.2-1.8-0.5-2.3-0.9s-0.8-0.9-0.8-1.6
			c0-0.7,0.3-1.4,0.9-1.9s1.4-0.8,2.5-0.8s2,0.2,2.6,0.8c0.6,0.5,0.9,1.2,0.9,2h-2.3c0-0.3-0.1-0.6-0.3-0.8s-0.5-0.3-1-0.3
			c-0.4,0-0.7,0.1-0.9,0.3c-0.2,0.2-0.3,0.4-0.3,0.7s0.1,0.5,0.3,0.6c0.2,0.2,0.7,0.3,1.4,0.4c1.1,0.2,1.8,0.5,2.3,0.9
			s0.7,1,0.7,1.7c0,0.8-0.3,1.4-1,1.9c-0.6,0.5-1.5,0.7-2.6,0.7c-1.2,0-2-0.3-2.7-0.8c-0.6-0.6-1-1.2-1-2h2.2c0,0.5,0.2,0.8,0.4,1
			c0.3,0.2,0.6,0.3,1.1,0.3c0.4,0,0.8-0.1,1-0.2C459.3,536.5,459.4,536.3,459.4,536z"/>
	</g>
	<g class="st2">
		<path class="st6" d="M416.9,494.8c-1.3,4.1-3.7,7.5-6.6,9.7c-0.3-0.3-1-0.9-1.3-1.2c2.9-2,5.1-5.2,6.2-8.9L416.9,494.8z
			 M427.4,502.7c0,0,0,0.6,0,0.8c-0.4,7.4-0.7,10.2-1.5,11.1c-0.5,0.6-1,0.7-1.8,0.8c-0.8,0-2.3,0-3.8-0.1c0-0.5-0.2-1.1-0.5-1.6
			c1.6,0.1,3.1,0.2,3.7,0.2c0.5,0,0.8,0,1-0.3c0.6-0.6,1-3,1.3-9.3h-6.5c-0.6,4.8-2.2,9.1-8.3,11.4c-0.2-0.4-0.7-1-1-1.4
			c5.7-1.9,7-5.8,7.6-10h-5.1v-1.6L427.4,502.7L427.4,502.7z M424.3,494.1c1.2,3.8,3.8,7.3,6.8,9c-0.4,0.3-0.9,1-1.2,1.4
			c-2.9-1.9-5.5-5.3-6.8-8.9h-4.3v-1.5H424.3z"/>
		<path class="st6" d="M441,507.3c-0.4-0.8-1.4-2.4-2.3-3.7v11.8h-1.5v-11.7c-0.9,2.8-2.2,5.6-3.5,7.2c-0.2-0.4-0.6-1.1-0.8-1.4
			c1.6-2.1,3.3-5.9,4.1-9.2h-3.5v-1.5h3.7v-5.2h1.5v5.2h3.5v1.5h-3.5v1.3c0.8,1,2.9,3.8,3.3,4.5L441,507.3z M454.8,503.3h-3.6v12.2
			h-1.6v-12.2H445v0.3c0,3.5-0.4,8.5-2.6,11.8c-0.3-0.3-0.9-0.7-1.3-0.8c2.2-3.2,2.4-7.6,2.4-10.9v-7.4c3-0.6,6.5-1.5,8.5-2.4
			l1.4,1.2c-2.2,0.9-5.4,1.7-8.3,2.2v4.4h9.7V503.3z"/>
	</g>
</g>
<g id="c03_00000018216733002792516650000007188060408504872630_">
	<g>
		<circle class="st1" cx="208" cy="514" r="96"/>
	</g>
	<g class="st2">
		<path class="st7" d="M184.2,538.3V527h3.7c1.6,0,2.8,0.5,3.8,1.4c0.9,0.9,1.4,2.1,1.4,3.6v1.5c0,1.5-0.5,2.7-1.4,3.6
			c-0.9,0.9-2.2,1.3-3.8,1.3L184.2,538.3L184.2,538.3z M186.5,528.7v7.9h1.2c1,0,1.8-0.3,2.3-0.8c0.5-0.6,0.7-1.3,0.7-2.3V532
			c0-1-0.2-1.8-0.7-2.3c-0.5-0.6-1.2-0.8-2.3-0.8h-1.2V528.7z"/>
		<path class="st7" d="M198.4,538.5c-1.2,0-2.2-0.4-2.9-1.1c-0.7-0.8-1.1-1.8-1.1-3V534c0-1.3,0.3-2.3,1-3.1s1.6-1.2,2.8-1.2
			s2.1,0.3,2.7,1c0.6,0.7,0.9,1.6,0.9,2.8v1.2h-5.1c0.1,0.6,0.3,1.1,0.6,1.4c0.3,0.4,0.8,0.5,1.4,0.5c0.5,0,0.9-0.1,1.3-0.1
			c0.3-0.1,0.7-0.3,1.1-0.5l0.5,1.5c-0.3,0.3-0.8,0.5-1.3,0.6C199.7,538.4,199.1,538.5,198.4,538.5z M198.2,531.5
			c-0.4,0-0.8,0.2-1,0.5s-0.4,0.8-0.5,1.3h2.9v-0.2c0-0.5-0.1-0.9-0.3-1.2C199,531.6,198.7,531.5,198.2,531.5z"/>
		<path class="st7" d="M207.7,536c0-0.3-0.1-0.5-0.4-0.6c-0.2-0.2-0.7-0.3-1.4-0.5c-1-0.2-1.8-0.5-2.3-0.9s-0.8-0.9-0.8-1.6
			c0-0.7,0.3-1.4,0.9-1.9c0.6-0.5,1.4-0.8,2.5-0.8s2,0.2,2.6,0.8c0.6,0.5,0.9,1.2,0.9,2h-2.3c0-0.3-0.1-0.6-0.3-0.8s-0.5-0.3-1-0.3
			c-0.4,0-0.7,0.1-0.9,0.3s-0.3,0.4-0.3,0.7s0.1,0.5,0.3,0.6c0.2,0.2,0.7,0.3,1.4,0.4c1.1,0.2,1.8,0.5,2.3,0.9s0.7,1,0.7,1.7
			c0,0.8-0.3,1.4-1,1.9c-0.6,0.5-1.5,0.7-2.6,0.7c-1.2,0-2-0.3-2.7-0.8c-0.6-0.6-1-1.2-1-2h2.2c0,0.5,0.2,0.8,0.4,1
			c0.3,0.2,0.6,0.3,1.1,0.3c0.4,0,0.8-0.1,1-0.2C207.6,536.5,207.7,536.3,207.7,536z"/>
		<path class="st7" d="M213.8,527.9h-2.3v-1.7h2.3V527.9z M213.8,538.3h-2.3v-8.5h2.3V538.3z"/>
		<path class="st7" d="M215.3,534.2c0-1.4,0.3-2.4,0.9-3.2s1.4-1.2,2.5-1.2c0.5,0,0.9,0.1,1.3,0.3c0.4,0.2,0.7,0.5,0.9,0.9l0.2-1.1
			h2v8.2c0,1.1-0.4,2-1.1,2.7c-0.7,0.7-1.7,1-2.9,1c-0.4,0-0.9-0.1-1.4-0.2c-0.5-0.1-0.9-0.3-1.4-0.5l0.4-1.6
			c0.4,0.2,0.7,0.3,1.1,0.4c0.4,0.1,0.7,0.1,1.1,0.1c0.6,0,1.1-0.2,1.4-0.5c0.3-0.3,0.5-0.8,0.5-1.4v-0.5l0,0
			c-0.2,0.3-0.5,0.5-0.9,0.7c-0.3,0.2-0.7,0.2-1.2,0.2c-1.1,0-1.9-0.4-2.4-1.1c-0.6-0.7-0.9-1.8-0.9-3v-0.2H215.3z M217.6,534.3
			c0,0.8,0.1,1.3,0.4,1.8c0.2,0.4,0.7,0.6,1.2,0.6c0.4,0,0.6-0.1,0.9-0.2c0.2-0.1,0.4-0.3,0.6-0.6v-3.7c-0.2-0.3-0.3-0.5-0.6-0.6
			c-0.2-0.1-0.5-0.2-0.9-0.2c-0.6,0-1,0.2-1.2,0.7c-0.3,0.5-0.4,1.1-0.4,1.9V534.3z"/>
		<path class="st7" d="M226.8,529.9l0.1,1.2l0,0c0.3-0.4,0.6-0.8,1-1s0.9-0.3,1.4-0.3c0.9,0,1.5,0.3,2,0.8s0.7,1.4,0.7,2.5v5.3h-2.3
			v-5.3c0-0.6-0.1-1-0.3-1.2s-0.6-0.3-1-0.3c-0.3,0-0.6,0.1-0.8,0.2c-0.2,0.1-0.4,0.3-0.6,0.5v6.1h-2.3v-8.5H226.8z"/>
	</g>
	<g class="st2">
		<path class="st6" d="M194.3,499h-9v-1.3h9V499z M187.6,514v1.2h-1.4v-8h7v6.9h-5.6V514z M193.3,500.8v1.3h-7v-1.3H193.3z
			 M186.3,503.9h7v1.3h-7V503.9z M187.6,508.5v4.2h4.2v-4.2H187.6z M189.7,497.3c-0.4-0.9-1.1-2.2-1.8-3.2l1.2-0.6
			c0.7,1,1.5,2.2,1.9,3.1L189.7,497.3z M205.6,504.6c-0.9,2.9-2.4,5.2-4.3,6.9c1.7,1.2,3.6,2,5.8,2.5c-0.3,0.3-0.8,1-1,1.4
			c-2.3-0.6-4.3-1.6-6-3c-1.8,1.4-3.9,2.3-6,3c-0.2-0.4-0.5-1.1-0.8-1.4c2-0.5,4-1.4,5.7-2.6c-1.6-1.5-2.8-3.3-3.7-5.4l0.9-0.3h-2
			v-1.5h10.3l0.3-0.1L205.6,504.6z M197.9,497.2c0,2.1-0.6,4.7-3.5,6.4c-0.2-0.3-0.8-0.9-1-1.2c2.6-1.5,3-3.5,3-5.3v-2.6h7.2v5.6
			c0,0.7,0,0.9,0.4,0.9h1.5c0.3,0,0.7,0,1-0.1c0,0.4,0.1,1,0.1,1.4c-0.2,0.1-0.7,0.1-1.1,0.1h-1.6c-1.5,0-1.8-0.6-1.8-2.3V496h-4.2
			L197.9,497.2L197.9,497.2z M196.5,505.7c0.8,1.8,2,3.5,3.5,4.8c1.5-1.3,2.7-2.9,3.5-4.8H196.5z"/>
		<path class="st6" d="M219.5,499h-9.8v-1.3h9.8V499z M210.7,500.8h7.8v1.3h-7.8V500.8z M218.4,505.2h-7.7v-1.3h7.7V505.2z
			 M218.4,514h-6.1v1.2h-1.4v-8h7.6v6.8H218.4z M212.3,508.5v4.2h4.7v-4.2H212.3z M214.3,497.3c-0.4-0.9-1.2-2.2-1.8-3.2l1.2-0.6
			c0.7,1,1.5,2.2,1.8,3L214.3,497.3z M230.8,503.5h-5v12h-1.6v-12h-4.8V502h4.8v-7.9h1.6v7.9h5V503.5z"/>
	</g>
</g>
<g id="c04">
	<g>
		<circle class="st1" cx="96" cy="320" r="96"/>
	</g>
	<g class="st2">
		<path class="st8" d="M49.7,339.3V328h3.7c1.6,0,2.8,0.5,3.8,1.4c0.9,0.9,1.4,2.1,1.4,3.6v1.5c0,1.5-0.5,2.7-1.4,3.6
			s-2.2,1.3-3.8,1.3h-3.7V339.3z M51.9,329.7v7.9h1.2c1,0,1.8-0.3,2.3-0.8c0.5-0.6,0.7-1.3,0.7-2.3V333c0-1-0.2-1.8-0.7-2.3
			c-0.5-0.6-1.2-0.8-2.3-0.8h-1.2V329.7z"/>
		<path class="st8" d="M63.9,339.5c-1.2,0-2.2-0.4-2.9-1.1c-0.7-0.8-1.1-1.8-1.1-3V335c0-1.3,0.3-2.3,1-3.1c0.7-0.8,1.6-1.2,2.8-1.2
			s2.1,0.3,2.7,1s0.9,1.6,0.9,2.8v1.2h-5.1c0.1,0.6,0.3,1.1,0.6,1.4c0.3,0.4,0.8,0.5,1.4,0.5c0.5,0,0.9-0.1,1.3-0.1
			c0.3-0.1,0.7-0.3,1.1-0.5l0.5,1.5c-0.3,0.3-0.8,0.5-1.3,0.6C65.1,339.4,64.5,339.5,63.9,339.5z M63.7,332.5c-0.4,0-0.8,0.2-1,0.5
			s-0.4,0.8-0.5,1.3H65v-0.2c0-0.5-0.1-0.9-0.3-1.2C64.5,332.6,64.1,332.5,63.7,332.5z"/>
		<path class="st8" d="M71.5,336.2l0.2,0.8l0,0l0.2-0.8l1.4-5.3h2.4l-2.9,8.5h-2.2l-2.9-8.5h2.4L71.5,336.2z"/>
		<path class="st8" d="M80.3,339.5c-1.2,0-2.2-0.4-2.9-1.1c-0.7-0.8-1.1-1.8-1.1-3V335c0-1.3,0.3-2.3,1-3.1c0.7-0.8,1.6-1.2,2.8-1.2
			c1.2,0,2.1,0.3,2.7,1s0.9,1.6,0.9,2.8v1.2h-5.1c0.1,0.6,0.3,1.1,0.6,1.4c0.3,0.4,0.8,0.5,1.4,0.5c0.5,0,0.9-0.1,1.3-0.1
			c0.3-0.1,0.7-0.3,1.1-0.5l0.5,1.5c-0.3,0.3-0.8,0.5-1.3,0.6C81.6,339.4,81,339.5,80.3,339.5z M80.1,332.5c-0.4,0-0.8,0.2-1,0.5
			s-0.4,0.8-0.5,1.3h2.9v-0.2c0-0.5-0.1-0.9-0.3-1.2C80.9,332.6,80.6,332.5,80.1,332.5z"/>
		<path class="st8" d="M87.4,339.3h-2.3v-12.2h2.3V339.3z"/>
		<path class="st8" d="M88.9,335c0-1.3,0.3-2.3,1-3.1c0.7-0.8,1.7-1.2,2.9-1.2c1.3,0,2.3,0.4,3,1.2c0.7,0.8,1,1.8,1,3.1v0.2
			c0,1.3-0.3,2.3-1,3.1c-0.7,0.8-1.7,1.2-2.9,1.2c-1.3,0-2.3-0.4-3-1.2c-0.7-0.8-1-1.8-1-3.1V335z M91.2,335.2
			c0,0.8,0.1,1.4,0.4,1.9s0.7,0.7,1.3,0.7c0.6,0,1-0.2,1.3-0.7s0.4-1.1,0.4-1.9V335c0-0.8-0.1-1.4-0.4-1.8c-0.3-0.5-0.7-0.7-1.3-0.7
			c-0.6,0-1,0.2-1.3,0.7s-0.4,1.1-0.4,1.8V335.2z"/>
		<path class="st8" d="M106,335.3c0,1.3-0.3,2.3-0.9,3s-1.4,1.1-2.4,1.1c-0.5,0-0.8-0.1-1.2-0.2c-0.3-0.2-0.6-0.4-0.9-0.7l0,0v4
			h-2.3v-11.7h2.1l0.1,1c0.3-0.4,0.6-0.7,0.9-0.9c0.3-0.2,0.8-0.3,1.2-0.3c1.1,0,1.9,0.4,2.5,1.2c0.6,0.8,0.9,1.9,0.9,3.2
			C106,335,106,335.3,106,335.3z M103.7,335.2c0-0.8-0.1-1.5-0.4-1.9c-0.3-0.5-0.7-0.7-1.2-0.7c-0.4,0-0.6,0.1-0.9,0.2
			c-0.2,0.1-0.4,0.3-0.6,0.6v3.7c0.1,0.2,0.3,0.4,0.6,0.6c0.2,0.1,0.5,0.2,0.9,0.2c0.6,0,1-0.2,1.2-0.6c0.3-0.4,0.4-1,0.4-1.8V335.2
			z"/>
		<path class="st8" d="M109.5,330.9l0.1,1.1l0,0c0.3-0.4,0.6-0.7,1-0.9c0.4-0.2,0.9-0.3,1.4-0.3c0.6,0,1,0.1,1.4,0.4
			c0.4,0.2,0.7,0.6,0.9,1.1c0.3-0.5,0.6-0.8,1-1.1c0.4-0.2,0.9-0.4,1.5-0.4c0.9,0,1.5,0.3,2,0.8c0.5,0.6,0.7,1.4,0.7,2.6v5.1h-2.3
			v-5.1c0-0.7-0.1-1.1-0.3-1.3c-0.2-0.2-0.5-0.4-0.9-0.4c-0.3,0-0.6,0.1-0.8,0.2c-0.2,0.1-0.4,0.3-0.6,0.6c0,0.1,0,0.2,0,0.3
			c0,0.1,0,0.1,0,0.2v5.6h-2.3v-5.1c0-0.6-0.1-1.1-0.3-1.3c-0.2-0.3-0.5-0.4-0.9-0.4c-0.3,0-0.6,0.1-0.8,0.2
			c-0.2,0.1-0.4,0.3-0.6,0.5v6.2h-2.3V331h2.1V330.9z"/>
		<path class="st8" d="M124.9,339.5c-1.2,0-2.2-0.4-2.9-1.1c-0.7-0.8-1.1-1.8-1.1-3V335c0-1.3,0.3-2.3,1-3.1
			c0.7-0.8,1.6-1.2,2.8-1.2c1.2,0,2.1,0.3,2.7,1s0.9,1.6,0.9,2.8v1.2h-5.1c0.1,0.6,0.3,1.1,0.6,1.4c0.3,0.4,0.8,0.5,1.4,0.5
			c0.5,0,0.9-0.1,1.3-0.1c0.3-0.1,0.7-0.3,1.1-0.5l0.5,1.5c-0.3,0.3-0.8,0.5-1.3,0.6C126.2,339.4,125.6,339.5,124.9,339.5z
			 M124.7,332.5c-0.4,0-0.8,0.2-1,0.5s-0.4,0.8-0.5,1.3h2.9v-0.2c0-0.5-0.1-0.9-0.3-1.2C125.6,332.6,125.2,332.5,124.7,332.5z"/>
		<path class="st8" d="M131.8,330.9l0.1,1.2l0,0c0.3-0.4,0.6-0.8,1-1s0.9-0.3,1.4-0.3c0.9,0,1.5,0.3,2,0.8s0.7,1.4,0.7,2.5v5.3h-2.3
			v-5.3c0-0.6-0.1-1-0.3-1.2s-0.6-0.3-1-0.3c-0.3,0-0.6,0.1-0.8,0.2s-0.4,0.3-0.6,0.5v6.1h-2.3v-8.5L131.8,330.9L131.8,330.9z"/>
		<path class="st8" d="M141.4,328.8v2.1h1.5v1.6h-1.5v4.3c0,0.3,0.1,0.6,0.2,0.7c0.1,0.1,0.3,0.2,0.5,0.2c0.1,0,0.2,0,0.3,0
			s0.2,0,0.3-0.1l0.2,1.6c-0.2,0.1-0.4,0.1-0.7,0.2c-0.2,0-0.5,0.1-0.8,0.1c-0.8,0-1.4-0.2-1.8-0.6c-0.4-0.4-0.6-1.1-0.6-2.1v-4.3
			h-1v-1.6h1.1v-2.1L141.4,328.8L141.4,328.8z"/>
	</g>
	<g class="st2">
		<path class="st4" d="M75.8,303.6v12.9h-1.6v-20.8h8.6v7.9H75.8z M75.8,296.9v2.1h5.5v-2.1H75.8z M81.3,302.4v-2.2h-5.5v2.2H81.3z
			 M87.1,310.6v5.4h-1.4v-5.4h-3.6c-0.2,1.6-0.9,4.2-3.3,5.7c-0.2-0.3-0.7-0.7-1.1-1c2.1-1.3,2.8-3.4,2.9-4.8h-3.1v-1.3h3.1v-2.7H78
			v-1.3h11.9v1.3h-2.8v2.7h3.4v1.3L87.1,310.6L87.1,310.6z M85.7,309.2v-2.7h-3.6v2.7H85.7z M93.9,314.3c0,1-0.2,1.5-0.9,1.8
			c-0.7,0.3-1.9,0.3-3.7,0.3c0-0.4-0.3-1.2-0.5-1.6c1.4,0,2.7,0,3,0c0.4,0,0.5-0.1,0.5-0.5v-10.7H85v-8h8.8L93.9,314.3L93.9,314.3z
			 M86.6,296.9v2.1h5.7v-2.1H86.6z M92.3,302.4v-2.2h-5.7v2.2H92.3z"/>
		<path class="st4" d="M106,309.7c0,0,0,0.5,0,0.6c-0.3,3.4-0.6,4.8-1.2,5.3c-0.4,0.4-0.8,0.5-1.5,0.6c-0.6,0-1.9,0-3.2,0
			c0-0.4-0.2-1-0.5-1.4c1.3,0.1,2.6,0.1,3.1,0.1c0.4,0,0.7,0,0.9-0.2c0.4-0.3,0.6-1.4,0.9-3.8h-5.6c0.3-1.4,0.6-3.5,0.8-5.2h4.8V303
			h-4.1v-0.3c-0.9,0.5-1.8,0.8-2.8,1.2c-0.2-0.4-0.6-0.9-0.9-1.2c1.6-0.5,3.3-1.3,4.8-2.3c-0.7-0.7-1.8-1.6-2.8-2.2l0.9-0.9
			c1,0.6,2.2,1.5,3,2.2c1-0.8,1.8-1.7,2.4-2.7h-5.7v-1.3h6.6l0.3-0.1l1,0.5c-1.1,2.4-3,4.3-5.1,5.8h3.8v5.2h-5.1
			c-0.1,0.9-0.3,1.8-0.4,2.6h5.6V309.7z M118.3,298c-1,1-2.4,2-3.5,2.7c1.3,0.8,2.7,1.4,4.2,1.8c-0.3,0.3-0.7,0.9-1,1.3
			c-1.2-0.4-2.4-0.9-3.6-1.5v3.4c0,0.5,0,0.7,0.4,0.7h1.9c0.3,0,0.8,0,1.1-0.1c0,0.3,0,0.8,0.1,1.1c-0.3,0.1-0.7,0.1-1.2,0.1h-2.1
			c-1.3,0-1.6-0.5-1.6-1.8v-2.5h-3.5v0.6c0,1.5-0.5,3.3-2.6,4.5c-0.2-0.3-0.7-0.8-1-1c1.9-1,2.3-2.3,2.3-3.5v-1.9h5.5
			c-2.6-1.7-4.7-4-5.9-6.7l1.3-0.4c0.5,1.1,1.2,2.1,1.9,3c1.1-0.8,2.4-2,3.2-2.8l1.2,0.8c-1.1,1-2.4,2.1-3.6,2.9
			c0.6,0.5,1.2,1,1.8,1.5c1.2-0.8,2.5-2,3.4-2.8L118.3,298z M116.5,309c-0.7,1.8-1.8,3.2-3.2,4.3c1.3,0.8,2.5,1.6,3.3,2.2l-0.8,1.1
			c-0.9-0.7-2.2-1.5-3.6-2.4c-1.7,1.1-3.5,1.8-5.5,2.4c-0.1-0.4-0.5-0.9-0.7-1.2c1.8-0.4,3.5-1.1,5-2c-1.3-0.8-2.7-1.6-3.9-2.3
			l0.8-0.9c1.3,0.7,2.8,1.5,4.2,2.4c1-0.8,1.8-1.7,2.5-2.8h-7.5v-1.2h8.3l0.3-0.1L116.5,309z"/>
	</g>
</g>
<g id="c05">
	<g>
		<circle class="st1" cx="208" cy="126" r="96"/>
	</g>
	<g class="st2">
		<path class="st9" d="M190.5,137.7h-3.6v9.6h-2.3v-9.6H181V136h9.5L190.5,137.7L190.5,137.7z"/>
		<path class="st9" d="M194.8,147.5c-1.2,0-2.2-0.4-2.9-1.1c-0.7-0.8-1.1-1.8-1.1-3V143c0-1.3,0.3-2.3,1-3.1s1.6-1.2,2.8-1.2
			s2.1,0.3,2.7,1s0.9,1.6,0.9,2.8v1.2h-5.1c0.1,0.6,0.3,1.1,0.6,1.4s0.8,0.5,1.4,0.5c0.5,0,0.9,0,1.3-0.1c0.3-0.1,0.7-0.3,1.1-0.5
			l0.5,1.5c-0.3,0.3-0.8,0.5-1.3,0.6C196.1,147.4,195.5,147.5,194.8,147.5z M194.6,140.5c-0.4,0-0.8,0.2-1,0.5s-0.4,0.8-0.5,1.3h2.9
			v-0.2c0-0.5-0.1-0.9-0.3-1.2C195.4,140.6,195.1,140.5,194.6,140.5z"/>
		<path class="st9" d="M204.1,145c0-0.3-0.1-0.5-0.4-0.6c-0.2-0.2-0.7-0.3-1.4-0.5c-1-0.2-1.8-0.5-2.3-0.9s-0.8-0.9-0.8-1.6
			c0-0.7,0.3-1.4,0.9-1.9c0.6-0.5,1.4-0.8,2.5-0.8s2,0.3,2.6,0.8s0.9,1.2,0.9,2H204c0-0.3-0.1-0.6-0.3-0.8s-0.5-0.3-1-0.3
			c-0.4,0-0.7,0.1-0.9,0.3s-0.3,0.4-0.3,0.7s0.1,0.5,0.3,0.6c0.2,0.2,0.7,0.3,1.4,0.4c1.1,0.2,1.8,0.5,2.3,0.9s0.7,1,0.7,1.7
			c0,0.8-0.3,1.4-1,1.9c-0.6,0.5-1.5,0.7-2.6,0.7c-1.2,0-2-0.3-2.7-0.8c-0.6-0.6-1-1.2-1-2h2.2c0,0.5,0.2,0.8,0.4,1
			c0.3,0.2,0.6,0.3,1.1,0.3c0.4,0,0.8-0.1,1-0.2S204.1,145.3,204.1,145z"/>
		<path class="st9" d="M210.5,136.8v2.1h1.5v1.6h-1.5v4.3c0,0.3,0.1,0.6,0.2,0.7c0.1,0.1,0.3,0.2,0.5,0.2c0.1,0,0.2,0,0.3,0
			s0.2,0,0.3-0.1l0.2,1.6c-0.2,0.1-0.4,0.1-0.7,0.2c-0.2,0-0.5,0.1-0.8,0.1c-0.8,0-1.4-0.2-1.8-0.6c-0.4-0.4-0.6-1.1-0.6-2.1v-4.3
			H207v-1.6h1.1v-2.1L210.5,136.8L210.5,136.8z"/>
		<path class="st9" d="M215.5,136.9h-2.3v-1.7h2.3V136.9z M215.5,147.3h-2.3v-8.5h2.3V147.3z"/>
		<path class="st9" d="M219.5,138.9l0.1,1.2l0,0c0.3-0.4,0.6-0.8,1-1s0.9-0.3,1.4-0.3c0.9,0,1.5,0.3,2,0.8s0.7,1.4,0.7,2.5v5.3h-2.3
			v-5.3c0-0.6-0.1-1-0.3-1.2s-0.6-0.3-1-0.3c-0.3,0-0.6,0.1-0.8,0.2c-0.2,0.1-0.4,0.3-0.6,0.5v6.1h-2.3v-8.5H219.5z"/>
		<path class="st9" d="M226.1,143.2c0-1.4,0.3-2.4,0.9-3.2s1.4-1.2,2.5-1.2c0.5,0,0.9,0.1,1.3,0.3s0.7,0.5,0.9,0.9l0.2-1.1h2v8.2
			c0,1.1-0.4,2-1.1,2.7c-0.7,0.7-1.7,1-2.9,1c-0.4,0-0.9-0.1-1.4-0.2c-0.5-0.1-0.9-0.3-1.4-0.5l0.4-1.6c0.4,0.2,0.7,0.3,1.1,0.4
			c0.4,0.1,0.7,0.1,1.1,0.1c0.6,0,1.1-0.2,1.4-0.5c0.3-0.3,0.5-0.8,0.5-1.4v-0.5l0,0c-0.2,0.3-0.5,0.5-0.9,0.7
			c-0.3,0.2-0.7,0.2-1.2,0.2c-1.1,0-1.9-0.4-2.4-1.1c-0.6-0.7-0.9-1.8-0.9-3v-0.2H226.1z M228.4,143.3c0,0.8,0.1,1.3,0.4,1.8
			c0.2,0.4,0.7,0.6,1.2,0.6c0.4,0,0.6-0.1,0.9-0.2c0.2-0.1,0.4-0.3,0.6-0.6v-3.7c-0.2-0.3-0.3-0.5-0.6-0.6c-0.2-0.1-0.5-0.2-0.9-0.2
			c-0.6,0-1,0.2-1.2,0.7c-0.3,0.5-0.4,1.1-0.4,1.9V143.3z"/>
	</g>
	<g class="st2">
		<path class="st4" d="M185.9,109.3c1.4,0.6,3.1,1.5,4,2.2l-0.9,1.3c-0.8-0.7-2.5-1.8-4-2.4L185.9,109.3z M188.9,115.7l1.3,0.8
			c-0.9,2.5-2.1,5.4-3.2,7.6l-1.4-0.9C186.5,121.5,187.9,118.3,188.9,115.7z M187,102.9c1.3,0.6,3,1.7,3.8,2.4l-1,1.3
			c-0.8-0.8-2.4-1.9-3.8-2.6L187,102.9z M194.1,119.6c-0.8,1.8-2.2,3.7-3.5,5c-0.3-0.2-0.9-0.7-1.3-0.9c1.3-1.1,2.5-2.8,3.3-4.4
			L194.1,119.6z M198.4,103.7v14.9h-6.9v-14.9H198.4z M193,108.2h4.1v-3.1H193V108.2z M193,112.7h4.1v-3.1H193V112.7z M193,117.2
			h4.1V114H193V117.2z M197,119.1c1,1.2,2.2,2.7,2.8,3.7l-1.2,0.8c-0.6-1-1.8-2.7-2.7-3.8L197,119.1z M201.8,105.1v13.6h-1.4v-13.6
			H201.8z M206,102.6v19.8c0,1-0.2,1.5-0.9,1.8s-1.8,0.3-3.7,0.3c-0.1-0.4-0.3-1.1-0.5-1.5c1.5,0,2.7,0,3.1,0c0.4,0,0.6-0.1,0.6-0.6
			v-19.8C204.6,102.6,206,102.6,206,102.6z"/>
		<path class="st4" d="M209.2,106.7h7.8v1.3h-7.8V106.7z M216.6,123h-5v1.2h-1.4v-8h6.4V123z M216.6,109.8v1.3h-6.3v-1.3H216.6z
			 M210.3,112.9h6.4v1.3h-6.4V112.9z M213.3,106.3c-0.4-0.9-1.2-2.2-1.8-3.2l1.2-0.6c0.7,1,1.5,2.2,1.8,3.1L213.3,106.3z
			 M211.6,117.5v4.2h3.6v-4.2H211.6z M221.5,120c1.1-0.3,2.3-0.6,3.5-0.9l0.1,1.3c-2.7,0.8-5.5,1.6-7.6,2.2l-0.5-1.5
			c0.8-0.2,1.8-0.5,3-0.8v-6.5h-2.6v-1.4h6.8v1.4h-2.7V120z M226.3,108.9c0.4,8.3,1.6,14.1,2.9,14.1c0.4,0,0.6-1.2,0.7-4
			c0.4,0.3,0.8,0.7,1.2,0.8c-0.2,3.5-0.7,4.7-2.1,4.7c-2.6,0-3.8-6.8-4.2-15.6h-7.1v-1.5h7c0-1.5-0.1-3.1-0.1-4.7h1.6
			c0,1.6,0,3.2,0,4.7h4.8v1.5H226.3z M229,106.9c-0.4-0.8-1.3-2.2-2.2-3.1l1.1-0.6c0.8,0.9,1.8,2.2,2.2,3L229,106.9z"/>
	</g>
</g>
<g id="c06">
	<g>
		<circle class="st1" cx="432" cy="126" r="96"/>
	</g>
	<g class="st2">
		<path class="st10" d="M389.5,136l2.9,8.4l0,0l2.9-8.4h3v11.4H396V144l0.2-5.1l0,0l-3.1,8.5h-1.5l-3.1-8.5l0,0l0.2,5.1v3.4h-2.3
			V136H389.5z"/>
		<path class="st10" d="M405.2,147.3c-0.1-0.2-0.1-0.3-0.2-0.5s-0.1-0.3-0.1-0.5c-0.3,0.4-0.6,0.6-1,0.9s-0.8,0.3-1.3,0.3
			c-0.8,0-1.5-0.2-2-0.7s-0.7-1.1-0.7-1.9c0-0.8,0.3-1.5,0.9-1.9s1.6-0.7,2.8-0.7h1.2v-0.7c0-0.4-0.1-0.7-0.3-1s-0.5-0.3-1-0.3
			c-0.4,0-0.7,0.1-0.9,0.3c-0.2,0.2-0.3,0.4-0.3,0.7H400c0-0.8,0.3-1.4,1-1.9s1.5-0.8,2.6-0.8c1,0,1.9,0.3,2.5,0.8s0.9,1.2,0.9,2.2
			v3.5c0,0.4,0,0.8,0.1,1.1s0.2,0.7,0.3,1L405.2,147.3L405.2,147.3z M403.3,145.8c0.3,0,0.7-0.1,0.9-0.2c0.3-0.1,0.5-0.3,0.7-0.6
			v-1.4h-1.2c-0.5,0-0.9,0.1-1.1,0.4s-0.4,0.5-0.4,0.9c0,0.3,0.1,0.5,0.3,0.7C402.7,145.7,402.9,145.8,403.3,145.8z"/>
		<path class="st10" d="M411.3,136.9H409v-1.7h2.3V136.9z M411.3,147.3H409v-8.5h2.3V147.3z"/>
		<path class="st10" d="M415.2,138.9l0.1,1.2l0,0c0.3-0.4,0.6-0.8,1-1s0.9-0.3,1.4-0.3c0.9,0,1.5,0.3,2,0.8s0.7,1.4,0.7,2.5v5.3
			h-2.3v-5.3c0-0.6-0.1-1-0.3-1.2c-0.2-0.2-0.6-0.3-1-0.3c-0.3,0-0.6,0.1-0.8,0.2c-0.2,0.1-0.4,0.3-0.6,0.5v6.1h-2.3v-8.5H415.2z"/>
		<path class="st10" d="M424.9,136.8v2.1h1.5v1.6h-1.5v4.3c0,0.3,0.1,0.6,0.2,0.7c0.1,0.1,0.3,0.2,0.5,0.2c0.1,0,0.2,0,0.3,0
			s0.2,0,0.3-0.1l0.2,1.6c-0.2,0.1-0.4,0.1-0.7,0.2c-0.2,0-0.5,0.1-0.8,0.1c-0.8,0-1.4-0.2-1.8-0.6c-0.4-0.4-0.6-1.1-0.6-2.1v-4.3
			h-1.1v-1.6h1.1v-2.1L424.9,136.8L424.9,136.8z"/>
		<path class="st10" d="M431.3,147.5c-1.2,0-2.2-0.4-2.9-1.1c-0.7-0.8-1.1-1.8-1.1-3V143c0-1.3,0.3-2.3,1-3.1s1.6-1.2,2.8-1.2
			c1.2,0,2.1,0.3,2.7,1s0.9,1.6,0.9,2.8v1.2h-5.1c0.1,0.6,0.3,1.1,0.6,1.4s0.8,0.5,1.4,0.5c0.5,0,0.9,0,1.3-0.1
			c0.3-0.1,0.7-0.3,1.1-0.5l0.5,1.5c-0.3,0.3-0.8,0.5-1.3,0.6C432.6,147.4,432,147.5,431.3,147.5z M431.1,140.5
			c-0.4,0-0.8,0.2-1,0.5s-0.4,0.8-0.5,1.3h2.9v-0.2c0-0.5-0.1-0.9-0.3-1.2C431.9,140.6,431.6,140.5,431.1,140.5z"/>
		<path class="st10" d="M438.1,138.9l0.1,1.2l0,0c0.3-0.4,0.6-0.8,1-1s0.9-0.3,1.4-0.3c0.9,0,1.5,0.3,2,0.8s0.7,1.4,0.7,2.5v5.3H441
			v-5.3c0-0.6-0.1-1-0.3-1.2c-0.2-0.2-0.6-0.3-1-0.3c-0.3,0-0.6,0.1-0.8,0.2c-0.2,0.1-0.4,0.3-0.6,0.5v6.1H436v-8.5H438.1z"/>
		<path class="st10" d="M450,147.3c-0.1-0.2-0.1-0.3-0.2-0.5s-0.1-0.3-0.1-0.5c-0.3,0.4-0.6,0.6-1,0.9s-0.8,0.3-1.3,0.3
			c-0.8,0-1.5-0.2-2-0.7s-0.7-1.1-0.7-1.9c0-0.8,0.3-1.5,0.9-1.9s1.6-0.7,2.8-0.7h1.2v-0.7c0-0.4-0.1-0.7-0.3-1s-0.5-0.3-1-0.3
			c-0.4,0-0.7,0.1-0.9,0.3c-0.2,0.2-0.3,0.4-0.3,0.7h-2.3c0-0.8,0.3-1.4,1-1.9s1.5-0.8,2.6-0.8c1,0,1.9,0.3,2.5,0.8s0.9,1.2,0.9,2.2
			v3.5c0,0.4,0,0.8,0.1,1.1s0.2,0.7,0.3,1L450,147.3L450,147.3z M448,145.8c0.3,0,0.7-0.1,0.9-0.2c0.3-0.1,0.5-0.3,0.7-0.6v-1.4
			h-1.2c-0.5,0-0.9,0.1-1.1,0.4s-0.4,0.5-0.4,0.9c0,0.3,0.1,0.5,0.3,0.7C447.5,145.7,447.7,145.8,448,145.8z"/>
		<path class="st10" d="M455.7,138.9l0.1,1.2l0,0c0.3-0.4,0.6-0.8,1-1s0.9-0.3,1.4-0.3c0.9,0,1.5,0.3,2,0.8s0.7,1.4,0.7,2.5v5.3
			h-2.3v-5.3c0-0.6-0.1-1-0.3-1.2c-0.2-0.2-0.6-0.3-1-0.3c-0.3,0-0.6,0.1-0.8,0.2c-0.2,0.1-0.4,0.3-0.6,0.5v6.1h-2.3v-8.5H455.7z"/>
		<path class="st10" d="M466.2,145.7c0.4,0,0.8-0.1,1-0.4c0.3-0.2,0.4-0.5,0.4-0.9h2.1c0,0.9-0.3,1.6-1,2.2
			c-0.7,0.6-1.5,0.9-2.5,0.9c-1.3,0-2.3-0.4-2.9-1.2c-0.7-0.8-1-1.8-1-3.1V143c0-1.3,0.3-2.3,1-3.1s1.6-1.2,2.9-1.2
			c1.1,0,1.9,0.3,2.6,0.9s1,1.4,1,2.4h-2.1c0-0.4-0.1-0.8-0.4-1.1s-0.6-0.4-1-0.4c-0.6,0-1,0.2-1.2,0.7s-0.3,1.1-0.3,1.8v0.2
			c0,0.8,0.1,1.4,0.3,1.8S465.5,145.7,466.2,145.7z"/>
		<path class="st10" d="M474.7,147.5c-1.2,0-2.2-0.4-2.9-1.1c-0.7-0.8-1.1-1.8-1.1-3V143c0-1.3,0.3-2.3,1-3.1s1.6-1.2,2.8-1.2
			c1.2,0,2.1,0.3,2.7,1s0.9,1.6,0.9,2.8v1.2H473c0.1,0.6,0.3,1.1,0.6,1.4s0.8,0.5,1.4,0.5c0.5,0,0.9,0,1.3-0.1
			c0.3-0.1,0.7-0.3,1.1-0.5l0.5,1.5c-0.3,0.3-0.8,0.5-1.3,0.6C476,147.4,475.4,147.5,474.7,147.5z M474.5,140.5
			c-0.4,0-0.8,0.2-1,0.5s-0.4,0.8-0.5,1.3h2.9v-0.2c0-0.5-0.1-0.9-0.3-1.2C475.3,140.6,475,140.5,474.5,140.5z"/>
	</g>
	<g class="st2">
		<path class="st4" d="M411.6,118.1c-0.3,2-0.7,4.3-1.2,5.8c-0.3-0.1-0.9-0.4-1.2-0.5c0.6-1.5,0.9-3.6,1.2-5.5L411.6,118.1z
			 M416.3,111.6c0.8,1.5,1.5,3.5,1.7,4.7l-1.2,0.5c-0.1-0.4-0.2-0.8-0.3-1.2c-5.6,0.8-6.3,1-6.7,1.2c-0.1-0.3-0.3-1-0.5-1.4
			c0.5-0.1,1-0.7,1.7-1.6c0.4-0.4,1.2-1.5,2.1-2.9c-2.6,0.3-3.2,0.4-3.5,0.6c-0.1-0.3-0.3-1-0.5-1.4c0.4-0.1,0.8-0.6,1.3-1.3
			c0.5-0.7,2.2-3.5,3.2-6.1l1.4,0.6c-1.1,2.3-2.4,4.7-3.7,6.6l2.7-0.3c0.6-1.1,1.3-2.2,1.8-3.3l1.3,0.7c-1.6,2.9-3.5,5.8-5.4,8
			l4.5-0.6c-0.3-0.8-0.6-1.7-1-2.4L416.3,111.6z M414,117.8c0.3,1.6,0.6,3.7,0.6,5.1l-1.2,0.3c0-1.4-0.3-3.5-0.6-5.1L414,117.8z
			 M416.5,117.2c0.6,1.5,1.2,3.4,1.5,4.6l-1.2,0.4c-0.2-1.3-0.8-3.2-1.4-4.7L416.5,117.2z M430.8,122.7h-9.7v1.8h-1.5v-14
			c-0.5,0.8-1,1.5-1.5,2.1c-0.2-0.4-0.6-1-0.8-1.4c1.9-2.2,3.5-5.7,4.3-8.4l1.5,0.4c-0.4,1.2-0.9,2.5-1.5,3.7h8.9v1.5h-4.2v3.2h3.8
			v1.5h-3.8v3.3h3.8v1.5h-3.8v3.5h4.6L430.8,122.7L430.8,122.7z M424.7,108.4H421v3.2h3.7V108.4z M424.7,113.1H421v3.3h3.7V113.1z
			 M421.1,121.3h3.7v-3.5h-3.7V121.3z M425.5,106.7c-0.3-0.9-1-2.4-1.6-3.4l1.3-0.6c0.6,1.1,1.3,2.4,1.7,3.3L425.5,106.7z"/>
		<path class="st4" d="M441.5,108h-8.4v-1.3h8.4V108z M434,111.1v-1.3h6.6v1.3H434z M440.6,114.2H434v-1.3h6.6V114.2z M440.7,123
			h-5.2v1.2h-1.4v-8h6.6V123z M435.4,117.5v4.2h3.8v-4.2H435.4z M437.5,106.3c-0.3-0.9-1.1-2.2-1.8-3.2l1.2-0.6
			c0.7,1,1.5,2.2,1.8,3.1L437.5,106.3z M443.3,111c-0.4,0.6-0.9,1.1-1.3,1.6c-0.2-0.3-0.6-0.9-0.9-1.2c1.3-1.2,2.5-3.1,3.1-5.1
			l1.3,0.4c-0.2,0.6-0.4,1.2-0.7,1.8h3.3c-0.2-0.5-0.4-1.1-0.6-1.6l1.4-0.4c0.3,0.6,0.6,1.4,0.8,2h4.6v1.1h-4.8v1.3h4.1v1h-4.1v1.3
			h4.1v1h-4.1v1.4h5.3v1.1h-10.1v0.5h-1.4L443.3,111L443.3,111z M453.6,118.1c-0.9,1.5-2.2,2.8-3.8,3.7c1.6,0.7,3.5,1.2,5.4,1.4
			c-0.4,0.3-0.7,0.9-0.9,1.3c-2.1-0.4-4.2-1-6-1.9c-2,0.9-4.3,1.6-6.6,1.9c-0.1-0.4-0.4-1-0.7-1.3c2-0.3,4-0.7,5.8-1.5
			c-1.2-0.8-2.2-1.7-3-2.7l0.8-0.3h-2.8v-1.2h10.5l0.2-0.1L453.6,118.1z M445.6,105.4h-4v-1.3h4v-1.5h1.4v4.2h-1.4V105.4z
			 M448.1,109.6h-3.4v1.3h3.4V109.6z M448.1,111.8h-3.4v1.3h3.4V111.8z M448.1,114.1h-3.4v1.4h3.4V114.1z M445.3,118.8
			c0.7,0.9,1.8,1.7,3,2.3c1.2-0.6,2.3-1.4,3.1-2.3H445.3z M451.1,106.8h-1.5v-4.2h1.5v1.5h3.7v1.3h-3.7V106.8z"/>
	</g>
</g>
<g id="inner_x5F_circle">
	<circle id="small_x5F_circle" class="st11" cx="320" cy="320" r="88"/>
	<g id="text" class="st2">
		<path d="M285.3,323.5c0-1-0.3-1.7-1-2.3c-0.7-0.6-1.9-1.1-3.7-1.6c-2.6-0.7-4.6-1.6-5.9-2.6c-1.3-1.1-2-2.5-2-4.3
			c0-1.9,0.7-3.4,2.2-4.6s3.5-1.8,5.9-1.8c2.5,0,4.6,0.7,6.1,2s2.3,3,2.3,5h-3.8c0-1.2-0.4-2.1-1.2-2.9c-0.8-0.7-1.9-1.1-3.4-1.1
			c-1.4,0-2.5,0.3-3.2,0.9s-1.1,1.4-1.1,2.4c0,0.9,0.4,1.6,1.2,2.2c0.8,0.6,2.1,1.1,4.1,1.6c2.5,0.7,4.4,1.6,5.6,2.7
			s1.9,2.6,1.9,4.4c0,1.9-0.7,3.4-2.2,4.5s-3.5,1.7-6,1.7c-2.4,0-4.5-0.6-6.3-1.9c-1.8-1.2-2.7-3-2.7-5.3h3.8c0,1.4,0.5,2.4,1.4,3.1
			s2.2,1,3.8,1c1.4,0,2.5-0.3,3.3-0.8C284.9,325.3,285.3,324.5,285.3,323.5z"/>
		<path d="M305.1,323.5c0-1-0.3-1.7-1-2.3c-0.7-0.6-1.9-1.1-3.7-1.6c-2.6-0.7-4.6-1.6-5.9-2.6c-1.3-1.1-2-2.5-2-4.3
			c0-1.9,0.7-3.4,2.2-4.6s3.5-1.8,5.9-1.8c2.5,0,4.6,0.7,6.1,2s2.3,3,2.3,5h-3.8c0-1.2-0.4-2.1-1.2-2.9c-0.8-0.7-1.9-1.1-3.4-1.1
			c-1.4,0-2.5,0.3-3.2,0.9s-1.1,1.4-1.1,2.4c0,0.9,0.4,1.6,1.2,2.2c0.8,0.6,2.1,1.1,4.1,1.6c2.5,0.7,4.4,1.6,5.6,2.7
			s1.9,2.6,1.9,4.4c0,1.9-0.7,3.4-2.2,4.5s-3.5,1.7-6,1.7c-2.4,0-4.5-0.6-6.3-1.9c-1.8-1.2-2.7-3-2.7-5.3h3.8c0,1.4,0.5,2.4,1.4,3.1
			s2.2,1,3.8,1c1.4,0,2.5-0.3,3.3-0.8C304.7,325.3,305.1,324.5,305.1,323.5z"/>
		<path d="M312.7,329.4v-22.8h7.2c3.1,0,5.6,0.9,7.4,2.7c1.8,1.8,2.7,4.2,2.7,7.2v3c0,3-0.9,5.4-2.7,7.2c-1.8,1.8-4.3,2.7-7.5,2.7
			L312.7,329.4L312.7,329.4z M316.5,309.6v16.7h3c2.3,0,3.9-0.6,5-1.8s1.6-2.9,1.6-5v-3c0-2.1-0.5-3.8-1.6-5s-2.7-1.8-4.8-1.8h-3.2
			V309.6z"/>
		<path d="M338,326.3h10.5v3h-14.2v-22.8h3.8L338,326.3L338,326.3z"/>
		<path d="M368.3,322c-0.2,2.4-1.1,4.3-2.6,5.6c-1.5,1.4-3.5,2.1-6.2,2.1s-4.8-0.9-6.4-2.6c-1.6-1.8-2.4-4.1-2.4-6.9v-4.3
			c0-2.8,0.8-5.1,2.4-6.9s3.7-2.7,6.4-2.7c2.7,0,4.8,0.7,6.2,2c1.4,1.3,2.3,3.3,2.5,5.8h-3.8c-0.2-1.6-0.7-2.8-1.4-3.6
			c-0.7-0.8-1.9-1.2-3.5-1.2s-2.8,0.6-3.7,1.8c-0.9,1.2-1.3,2.8-1.3,4.7v4.4c0,1.9,0.4,3.5,1.3,4.7s2.1,1.8,3.7,1.8s2.7-0.4,3.5-1.2
			c0.8-0.8,1.2-1.9,1.4-3.5L368.3,322L368.3,322z"/>
	</g>
</g>
</svg>
