<?xml version="1.0" encoding="utf-8"?>
<!-- Generator: $$$/GeneralStr/196=Adobe Illustrator 27.6.0, SVG Export Plug-In . SVG Version: 6.00 Build 0)  -->
<svg version="1.1" xmlns="http://www.w3.org/2000/svg" xmlns:xlink="http://www.w3.org/1999/xlink" x="0px" y="0px"
	 viewBox="0 0 492 492" style="enable-background:new 0 0 492 492;" xml:space="preserve">
<style type="text/css">
	.st0{fill:#FFFFFF;}
</style>
<g id="Layer_1">
	<g>
		<path class="st0" d="M414.3,103.9l-21.8,8.1L82.2,226.8l61.1,30.3l0,0c1.9,0.9,3,2.7,3.2,4.6l18.1,99.5l31.7-56.5l0,0
			c1.6-2.8,5.1-3.8,7.8-2.2c0.6,0.3,1.1,0.8,1.5,1.3l87.1,85.8L414.3,103.9L414.3,103.9z M388.6,101.1l33.9-12.6
			c1.4-0.6,3-0.7,4.5,0c2.9,1.2,4.3,4.6,3,7.6l0,0L300,401.5c-0.3,0.8-0.7,1.5-1.3,2.2c-2.2,2.3-5.9,2.3-8.1,0.1l0,0l-88-86.8
			l-35.6,63.5c-0.8,1.6-2.3,2.8-4.1,3.1c-3.1,0.6-6.1-1.5-6.7-4.6l0,0l-20.5-112.9l-70.1-34.7c-1.4-0.6-2.6-1.8-3.2-3.3
			c-1.1-3,0.4-6.3,3.4-7.4l0,0L388.6,101.1z"/>
		<path class="st0" d="M137.8,257.2c-2.7,1.6-3.6,5.1-2,7.9c1.6,2.7,5.1,3.6,7.9,2L427.7,98.8c2.7-1.6,3.6-5.1,2-7.9
			c-1.6-2.7-5.1-3.6-7.9-2L137.8,257.2z"/>
		<path class="st0" d="M428.8,98c2.3-2.2,2.4-5.8,0.2-8.1c-2.2-2.3-5.8-2.4-8.1-0.2L197.2,303.4c-2.3,2.2-2.4,5.8-0.2,8.1
			s5.8,2.4,8.1,0.2L428.8,98z"/>
	</g>
</g>
<g id="Master_Layer_4">
</g>
</svg>
