<?xml version="1.0" encoding="utf-8"?>
<!-- Generator: $$$/GeneralStr/196=Adobe Illustrator 27.6.0, SVG Export Plug-In . SVG Version: 6.00 Build 0)  -->
<svg version="1.1" id="圖層_1" xmlns="http://www.w3.org/2000/svg" xmlns:xlink="http://www.w3.org/1999/xlink" x="0px" y="0px"
	 viewBox="0 0 254 68" style="enable-background:new 0 0 254 68;" xml:space="preserve">
<style type="text/css">
	.st0{fill-rule:evenodd;clip-rule:evenodd;fill:#393D3E;}
	.st1{fill:#393D3E;}
</style>
<path class="st0" d="M32,68C32,68,0,59,0,36.3V0h36.6v9.1H9.1v26.6C9.1,51.9,32,59,32,59s22.9-7.2,22.9-23.4V9.1H41.2V0H64v36.3
	C64,59,32,68,32,68z M41.2,9.1h9.1v25.5C50.3,47.4,32,53.9,32,53.9s-18.3-6.5-18.3-19.3v-21h9.1v20.7c0,6.4,9.1,9.9,9.1,9.9
	s9.1-3.5,9.1-9.9V9.1z M32,39.1c0,0-4.6-2-4.6-5.2V9.1h9.1v24.8C36.6,37.1,32,39.1,32,39.1z"/>
<g>
	<path class="st1" d="M98.1,42.8l-2.6,7.8h-7.8l13.6-38.9h9.4l13.6,38.9h-7.8l-2.6-7.8H98.1z M105.9,19.9l-5.4,16h10.9L105.9,19.9z"
		/>
	<path class="st1" d="M156,50.6h-7.1v-3.1c-2.3,2.4-5.3,3.7-8.8,3.7c-7.5,0-13.7-6.5-13.7-15c0-8.6,6.2-15.1,13.7-15.1
		c3.4,0,6.3,1.2,8.5,3.4V8.9h7.4V50.6z M141.2,27.9c-4.1,0-7.4,3.6-7.4,8.3c0,4.6,3.3,8.1,7.4,8.1s7.4-3.6,7.4-8.1
		C148.6,31.6,145.3,27.9,141.2,27.9z"/>
	<path class="st1" d="M207,50.6h-7.4V33.7c0-1.7-0.6-5.7-5.4-5.7c-3.3,0-5.6,2.5-5.6,5.7v16.9h-7.4V33.7c0-1.7-0.5-5.7-5.4-5.7
		c-3.2,0-5.5,2.5-5.5,5.7v16.9h-7.4V21.7h7.1v2.8c1.8-2.2,4.3-3.5,7.4-3.5c3.6,0,6.6,1.5,8.6,4.1c2.1-2.5,5.1-4.1,8.8-4.1
		c7.7,0,12.2,5.2,12.2,12.7V50.6z"/>
	<path class="st1" d="M221.1,18.6h-7.4v-6.9h7.4V18.6z M221.1,50.6h-7.4V21.7h7.4V50.6z"/>
	<path class="st1" d="M253.8,50.6h-7.4V33.7c0-1.7-0.5-5.7-5.4-5.7c-3.3,0-5.6,2.5-5.6,5.7v16.9H228V21.7h7.1v2.8
		c1.8-2.2,4.4-3.5,7.4-3.5c6.8,0,11.3,5.1,11.3,12.7V50.6z"/>
</g>
</svg>
