<?xml version="1.0" encoding="utf-8"?>
<!-- Generator: Adobe Illustrator 27.5.0, SVG Export Plug-In . SVG Version: 6.00 Build 0)  -->
<svg version="1.1" id="圖層_1" xmlns="http://www.w3.org/2000/svg" xmlns:xlink="http://www.w3.org/1999/xlink" x="0px" y="0px"
	 viewBox="0 0 118 136" style="enable-background:new 0 0 118 136;" xml:space="preserve">
<style type="text/css">
	.st0{fill-rule:evenodd;clip-rule:evenodd;fill:#2386D2;}
	.st1{fill-rule:evenodd;clip-rule:evenodd;fill:#1768A6;}
	.st2{enable-background:new    ;}
	.st3{fill:#373B3F;}
</style>
<path class="st0" d="M59,85.7c0,0-40-11.4-40-40V0h45.7v11.4H30.4V45C30.4,65.4,59,74.3,59,74.3s28.6-9,28.6-29.4V11.4H70.4V0H99
	v45.7C99,74.3,59,85.7,59,85.7z M70.4,11.4h11.4v32.1C81.9,59.7,59,67.9,59,67.9s-22.9-8.1-22.9-24.3V17.1h11.4v26.1
	c0,8.1,11.4,12.5,11.4,12.5s11.4-4.4,11.4-12.5L70.4,11.4L70.4,11.4z M59,49.3c0,0-5.7-2.6-5.7-6.6V11.4h11.4v31.3
	C64.7,46.7,59,49.3,59,49.3z"/>
<path class="st1" d="M59,85.7c0,0,40-11.4,40-40V0H70.4v11.4h17.1v33.4C87.6,65.3,59,74.3,59,74.3V85.7z M59,67.9
	c0,0,22.9-8.1,22.9-24.3V11.4H70.4v31.8c0,8.1-11.4,12.5-11.4,12.5V67.9z"/>
<g class="st2">
	<path class="st3" d="M13,119.1c-1.4,0.4-2.8,0.9-4.1,1.3v11.2c0,1.8-0.4,2.8-1.4,3.4c-1.1,0.6-2.6,0.7-5.2,0.7
		c-0.1-0.9-0.5-2.5-1-3.4c1.6,0,3.1,0,3.5,0c0.5,0,0.7-0.1,0.7-0.7v-10.1c-1.6,0.5-3,0.9-4.4,1.4l-0.8-3.6c1.4-0.4,3.2-0.9,5.2-1.4
		v-7.6H0.8v-3.4h4.6V99h3.4v7.7h4v3.4h-4v6.6l3.6-1.1L13,119.1z M26.4,121.4v3h8.9v3h-8.9v4.6c1.1,0.1,2.3,0.2,3.5,0.2
		c1.1,0,6.2,0,7.7,0c-0.4,0.8-0.9,2.3-1,3.2h-6.8c-5.8,0-10.1-1.1-13-5.4c-1,2.4-2.2,4.4-3.8,5.9c-0.6-0.6-2-1.6-2.8-2.1
		c3-2.6,4.6-6.8,5.2-11.7l3.4,0.4c-0.2,1.3-0.4,2.6-0.7,3.8c1.2,2.5,2.8,4,5,4.8v-9.6h-7.8v-2.9H23v-2.8H12.8v-2.9H23v-2.5h-7.8
		v-2.8H23v-2.2h-9.5v-3H23v-3.3h3.4v3.3h10.3v3H26.4v2.2H35v5.4h2.6v2.9H35v5.6H26.4z M26.4,112.9h5.1v-2.5h-5.1V112.9z M26.4,118.5
		h5.1v-2.8h-5.1V118.5z"/>
	<path class="st3" d="M40.9,131.7c1.9-2.4,3.4-6.2,4.3-9.4l3.3,1.2c-1,3.2-2.4,7.3-4.3,10L40.9,131.7z M72.9,119H44.8v-18.2h28.1
		V119z M48.3,108.3h8.8V104h-8.8V108.3z M48.3,115.7h8.8v-4.4h-8.8V115.7z M63.5,131.5c1.8,0,2.1-0.6,2.4-4.9
		c0.8,0.6,2.4,1.2,3.4,1.4c-0.5,5.5-1.6,6.8-5.5,6.8h-7.4c-4.7,0-5.9-1-5.9-4.7v-7.3h3.8v7.3c0,1.1,0.4,1.3,2.5,1.3H63.5z
		 M62.3,127.3c-1.6-1.8-5.1-4.2-8-5.8l2.4-2.3c2.9,1.4,6.4,3.8,8.2,5.5L62.3,127.3z M69.2,104h-8.5v4.3h8.5V104z M69.2,111.3h-8.5
		v4.4h8.5V111.3z M71.7,122c2.2,3,4.6,7,5.4,9.7l-3.6,1.5c-0.8-2.7-3-6.8-5.2-9.8L71.7,122z"/>
	<path class="st3" d="M90.9,118.5c-0.4,3.1-1.1,5.9-2,8.3c2.5,4.4,7.3,5.1,14.4,5.1c4.2,0,10.3-0.2,14.6-0.6c-0.6,0.8-1,2.5-1.2,3.4
		c-3.9,0.2-8.9,0.4-13.4,0.4c-7.8,0-12.6-0.8-15.7-5.2c-1.3,2.6-2.9,4.5-4.7,5.9c-0.5-0.8-1.7-2-2.5-2.5c3.3-2.4,5.7-6.6,6.9-12.4
		H84c-0.9,0-2,0.3-2.4,0.6c-0.2-0.8-0.9-2.5-1.2-3.2c0.6-0.2,1.2-0.4,1.9-1.2c0.8-0.8,2.6-3.6,4.1-6H81v-3h7.6l0.4-0.2l2.4,0.9
		c-1.4,2.3-4,6.3-6,9h3.3l0.6-0.1L90.9,118.5z M86.9,107.1c-1-1.7-3.1-4.4-4.7-6.4L85,99c1.7,1.9,3.8,4.5,4.8,6.1L86.9,107.1z
		 M97.7,109.7h-6.1v-2.8h10.6v-2.5h-8.2v-2.7h8.2V99h3.7v2.7h8.3v2.7h-8.3v2.5h10.6v2.8h-6.2l1.7,0.4c-0.8,1.3-1.5,2.6-2.2,3.6h6.2
		v2.8h-10.2v2.3h8.6v2.7h-8.6v2.5h10.4v2.8h-10.4v4h-3.7v-4h-10V124h10v-2.5h-8.4v-2.7h8.4v-2.3h-9.7v-2.8h5
		c-0.2-1.1-0.8-2.6-1.5-3.6L97.7,109.7z M106.6,113.3c0.5-1,1.2-2.4,1.6-3.6h-8.8c0.8,1.1,1.4,2.6,1.6,3.6l-1.9,0.5h9.1L106.6,113.3
		z"/>
</g>
</svg>
