<?xml version="1.0" encoding="utf-8"?>
<!-- Generator: $$$/GeneralStr/196=Adobe Illustrator 27.6.0, SVG Export Plug-In . SVG Version: 6.00 Build 0)  -->
<svg version="1.1" id="圖層_1" xmlns="http://www.w3.org/2000/svg" xmlns:xlink="http://www.w3.org/1999/xlink" x="0px" y="0px"
	 viewBox="0 0 3840 2160" style="enable-background:new 0 0 3840 2160;" xml:space="preserve">
<style type="text/css">
	.st0{fill:#E0E6EA;}
	.st1{fill:#F0F4F6;}
	.st2{fill:#D3DDE1;}
	.st3{fill:#D7DCDE;}
</style>
<g id="end">
	<g id="a_00000136392396086756634170000005487259060745729435_">
		<rect x="3635" y="1691" class="st0" width="205" height="469"/>
		<polygon class="st1" points="3635,2160 3391.7,2160 3391.7,1633 3635,1691 		"/>
		<polygon class="st2" points="3635,1691 3391.7,1633 3697,1633 3840,1651 3840,1691 		"/>
	</g>
	<g id="b_00000163053081368347142010000014431879064076446102_">
		<polygon class="st1" points="3775,1659 3635,1633 3635,1408 3775,1414 		"/>
		<polygon class="st0" points="3775,1659 3840,1659 3840,1413 3775,1414 		"/>
		<polygon class="st3" points="3754.6,1407.3 3635,1408 3775,1414 3840,1413 3840,1409.1 		"/>
	</g>
</g>
<g id="start">
	<polygon class="st0" points="731.7,2159.9 731.7,2066.3 686.3,2066.3 686.3,1928.9 605,1928.9 605,1807.6 545,1807.6 545,1207.6 
		311.7,1194.3 270.3,1194.3 234.3,1194.3 51.7,1202.3 51.7,1328.9 19.7,1326.3 19.7,1776.9 0,1782 0,2160 	"/>
	<g>
		<polygon class="st1" points="231.9,1923.8 202.8,1932.9 202.8,1773.8 64.6,1768.1 19.7,1776.6 19.3,1326.6 50.7,1326.6 
			50.7,1201.9 227,1194.6 227,1326.9 231.9,1326.9 		"/>
		<polygon class="st1" points="268.3,1194.3 313.7,1194.6 313.7,1318.9 268.3,1318.9 		"/>
	</g>
	<g>
		<polygon class="st2" points="579.9,2159.9 731.7,2066.3 689,2067.6 531.2,2159.9 		"/>
		<polygon class="st2" points="160.3,2159.9 680.9,1927.3 607.3,1929.6 79,2159.9 		"/>
		<path class="st2" d="M1,2019.2l603.1-211.6H545l-0.9,3.6c0,0-92,40.4-156,54.7c-64,14.2-55.6,13.3-102.2,33.3s-54,24.9-54,24.9
			l-30,8.9c0,0-23.1,11.1-38.2,16c-15.1,4.9-19.6,4.9-19.6,4.9l-34.2,1.8L1,1991.6V2019.2z"/>
	</g>
	<polygon class="st2" points="0,1782 64.6,1768.1 202.8,1773.8 145,1792.3 106.3,1789.6 0,1814.9 	"/>
</g>
</svg>
