<?xml version="1.0" encoding="utf-8"?>
<!-- Generator: Adobe Illustrator 27.5.0, SVG Export Plug-In . SVG Version: 6.00 Build 0)  -->
<svg version="1.1" id="圖層_1" xmlns="http://www.w3.org/2000/svg" xmlns:xlink="http://www.w3.org/1999/xlink" x="0px" y="0px"
	 viewBox="0 0 3840 2160" style="enable-background:new 0 0 3840 2160;" xml:space="preserve">
<style type="text/css">
	.st0{fill:#798D99;}
	.st1{fill:#9EAEB6;}
	.st2{fill:#E2E7EA;}
	.st3{fill:#D2DCE2;}
	.st4{fill:#B8C9D2;}
	.st5{fill:#ECF0F2;}
	.st6{fill:#E0E6EA;}
	.st7{fill:#F0F4F6;}
	.st8{fill:#D3DDE1;}
	.st9{fill:#F7F7F7;}
	.st10{fill:#EFF1F3;}
	.st11{fill:#DEE8EE;}
	.st12{fill:#D5DFE5;}
</style>
<g id="c10">
	<rect x="3098" y="1070" class="st0" width="103" height="384.3"/>
	<polygon class="st1" points="3098,1454.3 3081,1454.3 3081,1077 3098,1070 	"/>
</g>
<g id="_x31_0_00000180328079963723093090000011512125608812396189_">
	<polygon class="st2" points="2903,1470.1 2722.6,1470.1 2722.6,1207 2809,1207 2809,1265.7 2903,1265.7 	"/>
	<rect x="2671.2" y="1080.7" class="st3" width="102.7" height="397.3"/>
	<g id="a_00000129167206222504143490000000928438887912762540_">
		<rect x="2312.1" y="1084" class="st4" width="102.6" height="442.6"/>
		<polygon class="st3" points="2312.1,1526.6 2273.7,1526.6 2273.7,1117.7 2312.1,1084 		"/>
	</g>
	<polygon class="st5" points="2903,1266 2809,1266 2809,1207 2903,1213 	"/>
</g>
<g id="_x31_0_00000132083202010710770020000014689990409919137461_">
	<g id="a_00000109746933110895452000000012762852976325580189_">
		<rect x="2059.4" y="1433" class="st6" width="87.3" height="106.3"/>
		<polygon class="st7" points="2026.7,1405.7 2059.4,1433 2059.4,1540 2026.7,1495.3 		"/>
		<polygon class="st8" points="2146.7,1433 2059.4,1433 2026.6,1405.7 2102.7,1405.7 		"/>
		<rect x="2076.1" y="1332.3" class="st6" width="70.6" height="100.7"/>
		<polygon class="st7" points="2076.1,1332.3 2039.7,1333.9 2039.7,1405.7 2076.1,1433 		"/>
	</g>
	<g id="b_00000025407330050279833070000006334822439620315534_">
		<polygon class="st9" points="2184.5,1126.3 2154.5,1151.7 2146.7,1169.4 2146.7,1539.3 2184.5,1539.3 		"/>
		<polygon class="st10" points="2221,1126.3 2184.5,1126.3 2184.5,1539.3 2232.3,1539.3 2232.3,1138.8 		"/>
		<polygon class="st10" points="2196.9,1080 2191.6,1080 2193.6,914.9 2194.9,914.9 		"/>
		<polygon class="st10" points="2205.4,1126.3 2205.4,1094.6 2193.9,1074.8 2193.9,1126.3 		"/>
		<polygon class="st9" points="2176.8,1132.8 2184.5,1126.3 2193.9,1126.3 2193.9,1074.8 2182.8,1094.8 		"/>
	</g>
</g>
<g id="_x31_0_00000064319369426013636240000000981724329211250574_">
	<rect x="807.7" y="1102.3" class="st11" width="136" height="742.7"/>
	<polygon class="st12" points="944,1845 979,1845 979,1109 944,1102.3 	"/>
</g>
<g id="_x31_0">
	<rect x="1595.8" y="1307.3" class="st11" width="180.7" height="219.2"/>
	<polygon class="st12" points="1776.6,1307.3 1817.6,1315 1817.6,1470.8 1776.6,1526.6 	"/>
</g>
</svg>
