<?xml version="1.0" encoding="utf-8"?>
<!-- Generator: Adobe Illustrator 27.5.0, SVG Export Plug-In . SVG Version: 6.00 Build 0)  -->
<svg version="1.1" xmlns="http://www.w3.org/2000/svg" xmlns:xlink="http://www.w3.org/1999/xlink" x="0px" y="0px"
	 viewBox="0 0 3840 2160" style="enable-background:new 0 0 3840 2160;" xml:space="preserve">
<style type="text/css">
	.st0{fill:#F6F2F0;}
	.st1{fill:#EAE4E0;}
	.st2{fill:#E1D7D3;}
	.st3{fill:#9EAEB6;}
	.st4{fill:#798D99;}
	.st5{fill:#DEE8EE;}
	.st6{fill:#D5DFE5;}
	.st7{fill:#CDD7DD;}
</style>
<g id="_x31_1_00000029747136034404413200000001651172739175846787_">
	<polygon class="st0" points="2009.9,1472.6 2026.6,1495.2 2026.6,1342.1 2009.9,1341.2 	"/>
	<rect x="2026.6" y="1342.1" class="st1" width="60" height="153.1"/>
	<polygon class="st2" points="2062.1,1341.2 2009.9,1341.2 2026.6,1342 2086.6,1342 	"/>
</g>
<g id="_x31_1_00000108267923471492872540000006128521250579586962_">
	<rect x="944" y="970.5" class="st3" width="88" height="873.5"/>
	<polygon class="st4" points="1091,1844 1032,1844 1032,970.5 1091,992 	"/>
	<path class="st3" d="M994.8,891.7c3.9-4.9,10.2-7.9,15.5-6.8c3.2,0.6,6,2.8,7.6,6.8c4.4,10.9,3.1,11.8,3.1,11.8l6.9,67.1h-73.6
		L994.8,891.7z"/>
	<path class="st4" d="M1021.2,884.6c19.3,0,53,101.3,53,101.3l-46.3-15.4l-6.9-67.1c0,0-2.7-14.3-6.7-16.8c-4.3-2.7-7.3-2-7.3-2
		L1021.2,884.6z"/>
	<polygon class="st4" points="1019.1,884.6 1009.5,884.6 1014.3,739.7 1016.3,739.7 	"/>
</g>
<g id="_x31_1">
	<rect x="1666.1" y="1385.7" class="st5" width="151.4" height="85.3"/>
	<polygon class="st6" points="1848,1367.3 1817.6,1385.7 1817.6,1471 1848,1428.3 	"/>
	<polygon class="st7" points="1848,1367.3 1725.6,1367.3 1666.1,1385.7 1817.6,1385.7 	"/>
</g>
</svg>
