<?xml version="1.0" encoding="utf-8"?>
<!-- Generator: Adobe Illustrator 27.5.0, SVG Export Plug-In . SVG Version: 6.00 Build 0)  -->
<svg version="1.1" xmlns="http://www.w3.org/2000/svg" xmlns:xlink="http://www.w3.org/1999/xlink" x="0px" y="0px"
	 viewBox="0 0 3840 2160" style="enable-background:new 0 0 3840 2160;" xml:space="preserve">
<style type="text/css">
	.st0{fill:#D5DFE5;}
	.st1{fill:#DEE8EE;}
	.st2{fill:#CDD7DD;}
	.st3{fill:#E0E6EA;}
	.st4{fill:#F7F7F7;}
	.st5{fill:#EFF1F3;}
	.st6{fill:#9EAEB6;}
	.st7{fill:#798D99;}
</style>
<g id="_x31_2_00000106111400057247627380000004602682792164291986_">
	<rect x="2015.4" y="1344.3" class="st0" width="55.2" height="125.8"/>
	<polygon class="st1" points="2015.4,1470.1 1983.7,1428.7 1983.7,1342.7 2015.4,1344.3 	"/>
	<polygon class="st2" points="2070.6,1344.3 2015.4,1344.3 1983.7,1342.7 2028,1342.7 	"/>
</g>
<g id="_x31_2_00000126291874165307119020000003654683372115773849_">
	<rect x="1055.7" y="1161" class="st3" width="161.3" height="564"/>
	<polygon class="st4" points="1414.3,1725 1287.7,1725 1287.7,663.7 1414.3,649.7 	"/>
	<polygon class="st5" points="1414.3,1725 1461.6,1725 1461.6,717.7 1414.3,649.7 	"/>
	<rect x="1202.2" y="1138" class="st4" width="86.8" height="587"/>
	<polygon class="st4" points="1410.6,650.1 1312.3,660.9 1324.6,621.4 1397.6,615.9 	"/>
</g>
<g id="_x31_2">
	<rect x="1734.6" y="1335.3" class="st6" width="113.4" height="93"/>
	<polygon class="st7" points="1860.5,1336.2 1848,1335.3 1848,1428.3 1860.5,1410.8 	"/>
</g>
</svg>
