<?xml version="1.0" encoding="utf-8"?>
<!-- Generator: Adobe Illustrator 27.5.0, SVG Export Plug-In . SVG Version: 6.00 Build 0)  -->
<svg version="1.1" xmlns="http://www.w3.org/2000/svg" xmlns:xlink="http://www.w3.org/1999/xlink" x="0px" y="0px"
	 viewBox="0 0 3840 2160" style="enable-background:new 0 0 3840 2160;" xml:space="preserve">
<style type="text/css">
	.st0{fill:#EFF1F3;}
	.st1{fill:#F7F7F7;}
	.st2{fill:#D7DCDE;}
	.st3{fill:#E0E6EA;}
	.st4{fill:#F0F4F6;}
	.st5{fill:#9EAEB6;}
	.st6{fill:#D3DDE1;}
</style>
<g id="_x31_3_00000161618580871437253170000005821756775113894060_">
	<rect x="2120.5" y="1194.3" class="st0" width="36.8" height="202.1"/>
	<polygon class="st1" points="2120.7,1194.3 2094,1214.3 2094,1396.4 2120.7,1396.4 	"/>
</g>
<g id="_x31_3_00000020381503533567166080000002194572538805361302_">
	<polygon class="st2" points="2062.3,1372.4 1969.6,1372.4 1956.6,1362.7 2031.3,1362.7 	"/>
	<rect x="1983.7" y="1329" class="st3" width="78.7" height="99.3"/>
	<polygon class="st4" points="1984.2,1428.3 1956.6,1387.7 1956.6,1362.7 1969.7,1372 1969.7,1330.1 1984.2,1329 	"/>
</g>
<g id="_x31_3_00000004543660376468463460000014671913574679904402_">
	<rect x="1451.7" y="1265.7" class="st5" width="80" height="366.7"/>
	<polygon class="st3" points="1635.2,1632.3 1522.3,1632.3 1522.3,1184.5 1564.6,1184.5 1572.6,1015.7 1580,952.6 1582.3,1015.7 
		1592.1,1017 1595.2,1166.8 1635.2,1167.2 1635.2,1217.9 	"/>
</g>
<g id="_x31_3">
	<rect x="1798.2" y="1375.4" class="st4" width="62.3" height="35.3"/>
	<polygon class="st3" points="1860.5,1375.4 1877.1,1362.7 1877.1,1387.6 1860.5,1410.8 	"/>
	<polygon class="st6" points="1877.1,1362.7 1834.1,1362.7 1798.2,1375.4 1860.5,1375.4 	"/>
</g>
</svg>
