<?xml version="1.0" encoding="utf-8"?>
<!-- Generator: Adobe Illustrator 27.5.0, SVG Export Plug-In . SVG Version: 6.00 Build 0)  -->
<svg version="1.1" xmlns="http://www.w3.org/2000/svg" xmlns:xlink="http://www.w3.org/1999/xlink" x="0px" y="0px"
	 viewBox="0 0 3840 2160" style="enable-background:new 0 0 3840 2160;" xml:space="preserve">
<style type="text/css">
	.st0{fill:#F1F9FD;}
	.st1{fill:#E9F1F5;}
	.st2{fill:#D8E6EC;}
	.st3{fill:#F5F8F9;}
</style>
<g id="_x32__00000051363528309499824740000001459250079416728497_">
	<g id="a_00000068674155847695809710000008452217653717596859_">
		<polygon class="st0" points="2814.7,2159.9 2714.7,2159.9 2714.7,1790 3274.8,2102 3274.7,2160.5 		"/>
		<polygon class="st1" points="3274.7,2160.5 3839.9,2160.5 3840.1,2102 3274.8,2102 		"/>
		<polygon class="st2" points="3840,2102 3274.8,2102 2715,1790 3183,1790 		"/>
	</g>
	<g id="b_00000047037116831442935220000011101695968630703503_">
		<rect x="3159.7" y="1324.2" class="st1" width="356.8" height="651.1"/>
		<polygon class="st0" points="3159.7,1975.3 2987,1886 2987,1324.2 3159.7,1324.2 		"/>
	</g>
	<g id="c_00000101797627146816083210000015216014031559730816_">
		<polygon class="st0" points="3307,2055 3155.7,1975.3 3155.7,1571.7 3307,1604.9 		"/>
		<polygon class="st1" points="3307,2055 3726,2055 3726,1603.7 3307,1604.9 		"/>
		<polygon class="st2" points="3724.3,1604.9 3307,1604.9 3159.7,1571.7 3516.5,1571.7 		"/>
	</g>
</g>
<g id="_x32_">
	<polygon class="st0" points="876.3,2159.9 911.7,2136.9 911.7,1956.3 894,1956.3 894,1782.3 612.3,1782.3 612.3,1730.3 
		480.1,1730.3 432.3,1730.3 293.7,1730.3 293.7,2159.9 	"/>
	<g>
		<polygon class="st2" points="508.1,1730.5 612.3,1730.3 545,1740.5 447.6,1738.7 		"/>
		<polygon class="st2" points="612.3,1782.3 894,1782.3 712.5,1853.2 293.7,1851.4 		"/>
		<polygon class="st3" points="911.7,1956.3 731.7,2067.7 710.8,2067.7 894,1956.3 		"/>
	</g>
	<g>
		<polygon class="st1" points="894,1782.3 894,1956.3 710.8,2067.7 710.8,1853.8 		"/>
		<path class="st1" d="M731.7,2159.9v-92.2l180-111.5v180.7c-11.8,7.7-35.3,23-35.3,23H731.7z"/>
	</g>
</g>
</svg>
