<?xml version="1.0" encoding="utf-8"?>
<!-- Generator: Adobe Illustrator 27.5.0, SVG Export Plug-In . SVG Version: 6.00 Build 0)  -->
<svg version="1.1" xmlns="http://www.w3.org/2000/svg" xmlns:xlink="http://www.w3.org/1999/xlink" x="0px" y="0px"
	 viewBox="0 0 3840 2160" style="enable-background:new 0 0 3840 2160;" xml:space="preserve">
<style type="text/css">
	.st0{fill:#B8C9D2;}
	.st1{fill:#D2DCE2;}
	.st2{fill:#9CACB5;}
	.st3{fill:#F0F4F6;}
	.st4{fill:#E0E6EA;}
	.st5{fill:#D3DDE1;}
</style>
<g id="_x33__00000042710817186544896890000011720541294142532253_">
	<polygon class="st0" points="3840,1947 3705,1947 3705,1261.7 3840,1265.7 	"/>
	<polygon class="st1" points="3705,1947 3570,1947 3570,1265.7 3705,1261.7 	"/>
</g>
<g id="_x33__00000152259487308200307220000002447849270488553871_">
	<g id="a_00000029732033562260531040000006070327213614758813_">
		<polygon class="st1" points="2657,2160 2641,2160 2546.3,2058.3 2546.3,1877 2657,1973 		"/>
		<rect x="2646.9" y="1973" class="st0" width="486.7" height="187"/>
		<polygon class="st2" points="3143.7,1973 2657,1973 2546.3,1877 2938.3,1877 		"/>
	</g>
	<g id="b_00000056395072968009737450000009192018897112044991_">
		<polygon class="st1" points="2759.6,1973 2639.7,1876.9 2639.7,1724.6 2759.6,1787.6 		"/>
		<rect x="2749.4" y="1787.6" class="st0" width="384.1" height="187"/>
		<polygon class="st2" points="3142.2,1787.6 2759.6,1787.6 2638.2,1724.6 2944,1724.6 		"/>
	</g>
	<g id="c_00000063609668399200080280000011250414619320352399_">
		<polygon class="st1" points="2879.4,1787.6 2759.6,1724.1 2759.6,1513.9 2879.4,1542 		"/>
		<rect x="2879.4" y="1542" class="st0" width="264.2" height="245.6"/>
		<polygon class="st2" points="3143.7,1542 2879.4,1542 2759.6,1513.9 2949,1513.9 		"/>
	</g>
</g>
<g id="_x33_">
	<polygon class="st3" points="1134,2033.9 1039,2129.9 487,2129.9 487,1454.9 708,1454.9 708,1179.9 929,1179.9 1067,1189.9 
		1067,1516.9 1134,1515.9 	"/>
	<g>
		<polygon class="st4" points="1134,2033.9 1039,2129.9 1039,1540.9 1134,1515.9 		"/>
		<polygon class="st4" points="1067,1515.9 1067,1189.9 944.2,1179.9 944.2,1541.9 		"/>
	</g>
	<polygon class="st5" points="1067,1515.9 1133,1515.9 1039,1540.9 944.2,1541.9 	"/>
</g>
</svg>
