<?xml version="1.0" encoding="utf-8"?>
<!-- Generator: Adobe Illustrator 27.5.0, SVG Export Plug-In . SVG Version: 6.00 Build 0)  -->
<svg version="1.1" xmlns="http://www.w3.org/2000/svg" xmlns:xlink="http://www.w3.org/1999/xlink" x="0px" y="0px"
	 viewBox="0 0 3840 2160" style="enable-background:new 0 0 3840 2160;" xml:space="preserve">
<style type="text/css">
	.st0{fill:#E0E6EA;}
	.st1{fill:#F0F4F6;}
	.st2{fill:#F7F7F7;}
	.st3{fill:#EFF1F3;}
	.st4{fill:#D3DDE1;}
	.st5{fill:#9EAEB6;}
	.st6{fill:#798D99;}
	.st7{fill:#476171;}
</style>
<g id="_x34__00000054228339873517486800000015650702758960584327_">
	<g id="b_00000124870222406165150410000007401626054359247253_">
		<polygon class="st0" points="3515.1,1221 3388.2,1221 3388.2,1140 3515.1,1145 		"/>
		<polygon class="st1" points="3388.2,1221 3293.2,1221 3293.2,1145 3388.2,1140 		"/>
		<polygon class="st0" points="3537.2,1763.2 3402.2,1763.2 3402.2,1217.5 3537.2,1221.5 		"/>
		<polygon class="st1" points="3402.2,1763.2 3267.2,1763.2 3267.2,1221.5 3402.2,1217.5 		"/>
	</g>
	<g id="a_00000090265059149514179150000017334199068529018506_">
		<polygon class="st0" points="3305.5,1821.1 3170.5,1821.1 3170.5,1275.4 3305.5,1279.4 		"/>
		<polygon class="st1" points="3170.5,1821.1 3035.5,1821.1 3035.5,1279.4 3170.5,1275.4 		"/>
	</g>
</g>
<g id="_x34__00000037692257982131442930000016003991530317830051_">
	<g id="c_00000066494464821556165680000015488807629861795503_">
		<polygon class="st2" points="2886.2,2067.4 2765,2067.4 2765,1160 2886.2,1145 		"/>
		<polygon class="st3" points="2886.2,2067.4 3106,2067.4 3106,1149 2886.2,1145 		"/>
	</g>
	<g id="a_00000088096503377803999230000014586502083147159191_">
		<polygon class="st1" points="2612,2067.4 2470,1926.5 2470,1399.2 2612,1420.2 		"/>
		<rect x="2612" y="1420.2" class="st0" width="199" height="647.1"/>
		<polygon class="st4" points="2811,1420.2 2612,1420.2 2470,1399.2 2657.4,1399.2 		"/>
	</g>
	<g id="b_00000132067656696967089750000002029634821520543932_">
		<polygon class="st1" points="2634,1413.1 2546.7,1402.5 2546.7,1341.9 2634,1348.5 		"/>
		<rect x="2634" y="1348.5" class="st0" width="87.3" height="64.6"/>
		<polygon class="st4" points="2721.3,1348.5 2634,1348.5 2546.7,1341.9 2621.1,1343.9 		"/>
	</g>
</g>
<g id="_x34_">
	<polygon class="st5" points="1215.7,2028.9 1326.3,1916.9 1326.3,1770.3 1277.7,1770.3 1277.7,1677.2 894,1677.2 894,2028.9 	"/>
	<g>
		<polygon class="st6" points="1326.3,1770.3 1326.3,1916.9 1215.7,2028.9 1213.1,1853.2 		"/>
		<polygon class="st6" points="1277.7,1677.2 1277.7,1770.3 1146.9,1853 1146.9,1738.3 		"/>
	</g>
	<polygon class="st7" points="1277.7,1770.3 1326.3,1770.3 1213.1,1853.2 1146.9,1853 	"/>
</g>
</svg>
