<?xml version="1.0" encoding="utf-8"?>
<!-- Generator: Adobe Illustrator 27.5.0, SVG Export Plug-In . SVG Version: 6.00 Build 0)  -->
<svg version="1.1" xmlns="http://www.w3.org/2000/svg" xmlns:xlink="http://www.w3.org/1999/xlink" x="0px" y="0px"
	 viewBox="0 0 3840 2160" style="enable-background:new 0 0 3840 2160;" xml:space="preserve">
<style type="text/css">
	.st0{fill:#9EAEB6;}
	.st1{fill:#476171;}
	.st2{fill:#798D99;}
	.st3{fill:#DEE8EE;}
	.st4{fill:#F0F4F6;}
	.st5{fill:#D3DDE1;}
	.st6{fill:#E0E6EA;}
</style>
<g id="_x35__00000003811330728012733710000016556580520677227415_">
	<g id="a_00000036972182517571367750000010140713403515023749_">
		<polygon class="st0" points="2470,1926.5 2381,1837.6 2381,1715.6 2470,1788.6 		"/>
		<polygon class="st1" points="2615.7,1715.6 2381,1715.6 2470,1788.6 2790,1788.6 		"/>
		<rect x="2470" y="1788.6" class="st2" width="320" height="138"/>
	</g>
	<g id="b_00000008832418749742365510000010631538350506882982_">
		<polygon class="st0" points="2516,1787.9 2419,1715.6 2419,1522.2 2516,1550 		"/>
		<rect x="2516" y="1550.3" class="st2" width="242.3" height="238.6"/>
		<polygon class="st1" points="2758.3,1550.3 2516,1550.3 2419,1522.2 2607.7,1522.2 		"/>
	</g>
</g>
<g id="_x35__00000048496597271325875340000018149459758635849893_">
	<rect x="1" y="1279.4" class="st3" width="354" height="573.7"/>
</g>
<g id="_x35_">
	<polygon class="st4" points="1417.3,1889.3 1487,1817.7 1487,1677.2 1453,1677.2 1453,1253.9 1375.2,1243.9 937.3,1243.9 
		937.3,1885.5 	"/>
	<polygon class="st5" points="1487,1677.2 1417.7,1730.3 1375.2,1730.3 1453,1677.2 	"/>
	<g>
		<polygon class="st6" points="1453,1253.9 1453,1677.2 1375.7,1730.3 1375.2,1243.9 		"/>
		<polygon class="st6" points="1487,1677.2 1487,1817.7 1417.3,1889.3 1417.7,1730.3 		"/>
	</g>
</g>
</svg>
