<?xml version="1.0" encoding="utf-8"?>
<!-- Generator: Adobe Illustrator 27.5.0, SVG Export Plug-In . SVG Version: 6.00 Build 0)  -->
<svg version="1.1" xmlns="http://www.w3.org/2000/svg" xmlns:xlink="http://www.w3.org/1999/xlink" x="0px" y="0px"
	 viewBox="0 0 3840 2160" style="enable-background:new 0 0 3840 2160;" xml:space="preserve">
<style type="text/css">
	.st0{fill:#E0E6EA;}
	.st1{fill:#F0F4F6;}
	.st2{fill:#D3DDE1;}
	.st3{fill:#F7F7F7;}
	.st4{fill:#EFF1F3;}
	.st5{fill:#F1F9FD;}
	.st6{fill:#D8E6EC;}
	.st7{fill:#E9F1F5;}
	.st8{fill:#A4ACB0;}
</style>
<g id="_x36__00000039111610695287516930000010331261161509078198_">
	<polygon class="st0" points="2609.7,1837 2271.7,1837 2271.7,1684.3 2314.3,1684.3 2314.3,1496.3 2609.7,1496.3 	"/>
	<polygon class="st1" points="2230,1771.3 2272,1837 2272,1685.3 2230,1647.7 	"/>
	<polygon class="st2" points="2315.3,1685 2271.7,1685 2230,1647.7 2269.3,1647.7 	"/>
	<polygon class="st1" points="2314.7,1496.3 2269.3,1484.3 2269.3,1647.7 2314.7,1684.3 	"/>
	<polygon class="st2" points="2609.7,1496.3 2314.7,1496.3 2269.3,1484.3 2465,1484.3 	"/>
</g>
<g id="_x36__00000058586516889240433870000009343956751652100248_">
	<polygon class="st3" points="355,1845 131,1845 131,469 355,449 	"/>
	<polygon class="st4" points="355,1845 514.3,1845 514.3,537 355,449 	"/>
</g>
<g id="_x36_">
	<g id="a">
		<polygon class="st5" points="1648,1589.9 1648,1696.3 1552,1818.3 1101,1818.3 1101,1682.3 1237.4,1589.9 		"/>
		<polygon class="st6" points="1648,1589.9 1549.9,1682.3 1101,1682.3 1237.4,1589.9 		"/>
		<polygon class="st7" points="1648,1589.9 1648,1696.3 1552,1818.3 1549.9,1682.3 		"/>
	</g>
	<g id="b">
		<polygon class="st8" points="1559,1589.9 1440.3,1682.3 1180,1682.3 1316.5,1589.9 		"/>
		<rect x="1180" y="1306.9" class="st5" width="263.6" height="375.3"/>
		<polygon class="st7" points="1559,1311.6 1443.7,1306.9 1443.7,1682.3 1559,1589.9 		"/>
	</g>
	<g id="c">
		<rect x="1520.9" y="1563.4" class="st5" width="59.2" height="56.2"/>
		<polygon class="st7" points="1580.1,1563.3 1615.6,1542.3 1615.6,1589.9 1580.1,1619.6 		"/>
		<polygon class="st6" points="1615.6,1542.3 1580.1,1563.4 1520.9,1563.4 1559,1542.3 		"/>
	</g>
</g>
</svg>
