<?xml version="1.0" encoding="utf-8"?>
<!-- Generator: Adobe Illustrator 27.5.0, SVG Export Plug-In . SVG Version: 6.00 Build 0)  -->
<svg version="1.1" id="圖層_1" xmlns="http://www.w3.org/2000/svg" xmlns:xlink="http://www.w3.org/1999/xlink" x="0px" y="0px"
	 viewBox="0 0 3840 2160" style="enable-background:new 0 0 3840 2160;" xml:space="preserve">
<style type="text/css">
	.st0{fill:#B8C9D2;}
	.st1{fill:#D2DCE2;}
	.st2{fill:#DEE8EE;}
	.st3{fill:#D5DFE5;}
	.st4{fill:#CDD7DD;}
	.st5{fill:#798D99;}
</style>
<g id="c7">
	<rect x="3512.7" y="1005.3" class="st0" width="66" height="30.6"/>
	<polygon class="st1" points="3512.7,1035.9 3483,1045.7 3483,1015.1 3512.7,1005.3 	"/>
	<rect x="3494.2" y="1035.9" class="st0" width="103" height="763.1"/>
	<polygon class="st1" points="3494.2,1799 3463.2,1799 3463.2,1042.9 3494.2,1035.9 	"/>
</g>
<g id="_x37__00000053547189575915577600000014212597617590446221_">
	<g id="a_00000152252707695229404480000013380435129167063178_">
		<polygon class="st2" points="2164.7,1669.7 2230,1770.7 2230,1647.4 2164.7,1588.3 		"/>
		<rect x="2230.2" y="1647.8" class="st3" width="184" height="123.1"/>
		<polygon class="st4" points="2414.2,1647.8 2230,1647.8 2164.7,1588.3 2309,1588.3 		"/>
	</g>
	<g id="b_00000047036635873757698330000004850487766744685498_">
		<rect x="2291.7" y="1295.7" class="st3" width="122.5" height="352.2"/>
		<polygon class="st2" points="2291.4,1647.8 2221.3,1588.8 2221.3,1295.3 2291.4,1295.7 		"/>
	</g>
	<g id="c_00000124143374031993446910000009983928410229578631_">
		<polygon class="st3" points="2370.3,1295.7 2342.1,1295.7 2312.1,1295.3 2312.1,1264.3 2370.3,1266.3 		"/>
		<polygon class="st2" points="2312.1,1295.3 2273.7,1295.6 2253.9,1295.5 2253.9,1266.3 2312.1,1264.3 		"/>
	</g>
	<g id="k">
		<polygon class="st1" points="2566.3,1729.7 2472.3,1729.7 2472.3,1286.7 2566.3,1283.7 		"/>
		<polygon class="st0" points="2698.3,1729.7 2566.3,1729.7 2566.3,1241.7 2698.3,1248.7 		"/>
	</g>
</g>
<g id="_x37__00000160176895748602135300000017028774446189427368_">
	<polygon class="st3" points="505,1163 607,1164.3 607,1096 505,1080 	"/>
	<polygon class="st5" points="505,1163 293,1164.3 293,1096 505,1080 	"/>
	<rect x="269" y="1153" class="st5" width="245.3" height="692"/>
	<polygon class="st3" points="514.3,1845 637,1845 637,1168 514.3,1153 	"/>
</g>
<g id="_x37_">
	<polygon class="st3" points="1658,1682.3 1658,1515.9 1688,1497.6 1688,1644.9 	"/>
	<polygon class="st2" points="1658,1682.3 1369.5,1682.3 1369.5,1516.6 1658,1515.9 	"/>
	<polygon class="st4" points="1688,1497.6 1658,1515.9 1435.3,1516.6 1465.7,1497.6 	"/>
	<polygon class="st3" points="1593.7,1498 1559,1516.6 1559,1288 1593,1293.3 	"/>
	<rect x="1374.5" y="1288.6" class="st2" width="184.1" height="228"/>
</g>
</svg>
