<?xml version="1.0" encoding="utf-8"?>
<!-- Generator: Adobe Illustrator 27.5.0, SVG Export Plug-In . SVG Version: 6.00 Build 0)  -->
<svg version="1.1" xmlns="http://www.w3.org/2000/svg" xmlns:xlink="http://www.w3.org/1999/xlink" x="0px" y="0px"
	 viewBox="0 0 3840 2160" style="enable-background:new 0 0 3840 2160;" xml:space="preserve">
<style type="text/css">
	.st0{fill:#EFF1F3;}
	.st1{fill:#F7F7F7;}
	.st2{fill:#E9F1F5;}
	.st3{fill:#F1F9FD;}
	.st4{fill:#D8E6EC;}
	.st5{fill:#798D99;}
	.st6{fill:#9EAEB6;}
	.st7{fill:#E0E6EA;}
	.st8{fill:#ECF0F2;}
	.st9{fill:#D3DDE1;}
</style>
<g id="_x38__00000140703879812931659220000015133281451222468529_">
	<rect x="2470" y="666.3" class="st0" width="169.7" height="978.6"/>
	<polygon class="st1" points="2470,1644.9 2428.7,1644.9 2428.7,752.3 2470,666.3 	"/>
	<path class="st1" d="M2547.2,323.7c0,0-59.1,104.9-87.1,216s-31.4,212.7-31.4,212.7l41.3-83.8c0,0,1.7-67.6,17.9-149.3
		C2509.6,410.3,2547.2,323.7,2547.2,323.7z"/>
	<path class="st0" d="M2547.2,323.7c0,0,35.1,72,61.8,176s30.7,166.7,30.7,166.7H2470c0,0,0-68.4,22.5-166.8
		C2518.4,386.7,2547.2,323.7,2547.2,323.7z"/>
</g>
<g id="_x38__00000044176992770184432640000008866963072326622906_">
	<rect x="2164.7" y="1376.5" class="st2" width="108" height="293.2"/>
	<polygon class="st3" points="2164.7,1376.6 2129.4,1372.4 2129.4,1613.6 2164.7,1668.8 	"/>
	<polygon class="st4" points="2272.7,1376.5 2164.7,1376.5 2130.8,1372.4 2201,1372.4 	"/>
</g>
<g id="_x38__00000146485631349337539590000001792866835755382157_">
	<rect x="637" y="1296" class="st5" width="136" height="549"/>
	<rect x="430" y="1296" class="st6" width="207" height="549"/>
</g>
<g id="_x38_">
	<g id="a_00000071560809267128961620000017013941431744874372_">
		<polygon class="st7" points="1749,1478.9 1688,1529.9 1688,1644.9 1749,1566.6 		"/>
		<polygon class="st8" points="1417.3,1644.9 1688,1644.9 1688,1528.9 1416.7,1528.9 		"/>
		<polygon class="st9" points="1416.7,1529.9 1688,1529.9 1749,1478.9 1477.7,1478.9 		"/>
	</g>
	<g id="b_00000088118223811258740920000003174154153998140829_">
		<polygon class="st8" points="1416.7,1324.2 1652.1,1324.2 1651.9,1529.9 1416.4,1529.9 		"/>
		<polygon class="st7" points="1652.1,1324.2 1718.3,1333.2 1718.3,1478.9 1652.1,1529.9 		"/>
	</g>
</g>
</svg>
