<?xml version="1.0" encoding="utf-8"?>
<!-- Generator: Adobe Illustrator 27.5.0, SVG Export Plug-In . SVG Version: 6.00 Build 0)  -->
<svg version="1.1" xmlns="http://www.w3.org/2000/svg" xmlns:xlink="http://www.w3.org/1999/xlink" x="0px" y="0px"
	 viewBox="0 0 3840 2160" style="enable-background:new 0 0 3840 2160;" xml:space="preserve">
<style type="text/css">
	.st0{fill:#E0E6EA;}
	.st1{fill:#F0F4F6;}
	.st2{fill:#DDE4E7;}
	.st3{fill:#D5DFE5;}
	.st4{fill:#DEE8EE;}
	.st5{fill:#F2F4F5;}
	.st6{fill:#E9F1F5;}
	.st7{fill:#D8E6EC;}
	.st8{fill:#F1F9FD;}
</style>
<g id="_x39__00000127745175444444396390000012628618108270507438_">
	<rect x="2382.1" y="784.7" class="st0" width="116.4" height="763.6"/>
	<polygon class="st1" points="2382.4,1548.2 2342.1,1548.2 2342.1,843.7 2382.4,784.7 	"/>
	<polygon class="st1" points="2419,698 2359.7,817.9 2382.4,784.7 	"/>
	<polygon class="st0" points="2489.7,784.7 2419,698 2382.4,784.7 	"/>
</g>
<g id="_x39__00000163778879664294130240000017651903550487047820_">
	<polygon class="st1" points="2094.7,1283.6 2059.4,1292.4 2059.4,1539.5 2113.8,1613.7 2113.8,1469.7 2094.7,1454.3 	"/>
	<rect x="2113.8" y="1469.7" class="st0" width="72.2" height="144"/>
	<polygon class="st2" points="2186,1469.7 2113.8,1469.7 2094.7,1454.3 2149.9,1454.3 	"/>
	<rect x="2094.7" y="1283.6" class="st0" width="55.2" height="170.8"/>
</g>
<g id="_x39__00000078744298944367436620000012291282673212897983_">
	<polygon class="st3" points="860.7,1023.7 773,1003.3 773,1845 860.7,1845 	"/>
	<polygon class="st4" points="624.5,1013.7 773,1003.3 773,1845 624.5,1845 	"/>
</g>
<g id="_x39_">
	<g id="a_00000059310983229788095390000008098377951370804872_">
		<rect x="1580.1" y="1479" class="st5" width="168.9" height="86.3"/>
		<polygon class="st6" points="1749,1479 1776.3,1452 1776.3,1527 1749,1565.3 		"/>
		<polygon class="st7" points="1653,1452 1776.3,1452 1749,1479 1580.1,1479 		"/>
	</g>
	<rect x="1580.1" y="1279.4" class="st8" width="138.2" height="199.6"/>
	<polygon class="st6" points="1718.3,1279.4 1754.2,1287.6 1754.2,1452 1718.3,1478.9 	"/>
</g>
</svg>
