<?xml version="1.0" encoding="UTF-8" standalone="no"?>
<!-- Generator: $$$/GeneralStr/196=Adobe Illustrator 27.6.0, SVG Export Plug-In . SVG Version: 6.00 Build 0)  -->

<svg
    version="1.1"
    id="ssdlc"
    x="0px"
    y="0px"
    viewBox="0 0 640 640"
    style="enable-background: new 0 0 640 640;"
    xml:space="preserve"
    sodipodi:docname="ssdlc.svg"
    inkscape:version="1.3.2 (091e20e, 2023-11-25)"
    xmlns:inkscape="http://www.inkscape.org/namespaces/inkscape"
    xmlns:sodipodi="http://sodipodi.sourceforge.net/DTD/sodipodi-0.dtd"
    xmlns:xlink="http://www.w3.org/1999/xlink"
    xmlns="http://www.w3.org/2000/svg"
    xmlns:svg="http://www.w3.org/2000/svg"
>
    <defs id="defs13"><inkscape:path-effect effect="offset" id="path-effect13" is_visible="true" lpeversion="1.2" linejoin_type="round" unit="mm" offset="0" miter_limit="4" attempt_force_join="false" update_on_knot_move="true" /></defs>
    <sodipodi:namedview
        id="namedview13"
        pagecolor="#ffffff"
        bordercolor="#000000"
        borderopacity="0.25"
        inkscape:showpageshadow="2"
        inkscape:pageopacity="0.0"
        inkscape:pagecheckerboard="0"
        inkscape:deskcolor="#d1d1d1"
        inkscape:zoom="0.52149125"
        inkscape:cx="331.74094"
        inkscape:cy="319.27669"
        inkscape:window-width="1280"
        inkscape:window-height="662"
        inkscape:window-x="0"
        inkscape:window-y="25"
        inkscape:window-maximized="0"
        inkscape:current-layer="ssdlc"
    />
    <style type="text/css" id="style1">
        .st0 {
            fill: none;
        }
        .st1 {
            fill: #363b3d;
        }
        .st2 {
            enable-background: new;
        }
        .st7 {
            fill: none;
            stroke: #cbd1d5;
            stroke-width: 0.5;
            stroke-miterlimit: 10;
        }
        .st8 {
            font-family: "Roboto";
            font-size: 36px;
            font-weight: 500;
            fill: #363b3d;
        }
        
        .cht {
            font-family: "NotoSansCJKtc-Light-B5pc-H";
            font-size: 24px;
            fill: #ffffff;
        }
        .en {
            font-family: "Roboto";
            font-weight: bold;
            font-size: 16px;
        }
        .group {
            display: inline-block;
            text-align: center;
        }
        #c01 .en { fill: #7e959c; }
        #c02 .en { fill: #7e9c86; }
        #c03 .en { fill: #909c7e; }
        #c04 .en { fill: #9c847e; }
        #c05 .en { fill: #9c7e8f; }
        #c06 .en { fill: #7f7e9c; }
    </style>

    <g id="big_circle">
        <path
            id="motionPath-6"
            class="st0"
            stroke="#c3ced5"
            d="m 553.35136,296.26313 c 3.1463,29.93511 0.33087,59.59187 -8.33106,88.15375 -8.35819,27.625 -21.88222,52.97753 -40.12708,75.50806 -18.24487,22.53053 -40.23158,41.03011 -65.51513,54.94922 -26.13684,14.41098 -54.56015,23.33089 -84.49526,26.4772 -29.93511,3.1463 -59.59187,0.33087 -88.15375,-8.33106 -27.62501,-8.35819 -52.97753,-21.88222 -75.50806,-40.12708 -22.53053,-18.24487 -41.03011,-40.23158 -54.94922,-65.51513 -14.41098,-26.13684 -23.33089,-54.56015 -26.4772,-84.49526 -3.14631,-29.93511 -0.33086,-59.59187 8.33106,-88.15375 8.35819,-27.62501 21.88222,-52.97754 40.12708,-75.50806 18.24487,-22.53053 40.23158,-41.03011 65.51513,-54.94922 26.13684,-14.41098 54.56015,-23.33089 84.49526,-26.477202 29.93511,-3.146311 59.59187,-0.330855 88.15375,8.331062 27.625,8.35819 52.97753,21.88222 75.50806,40.12708 22.53053,18.24487 41.03011,40.23158 54.94922,65.51513 14.41098,26.13683 23.33089,54.56015 26.4772,84.49526"
            inkscape:label="motionPath-6"
            style="fill: none;"
        />
        <path
            id="motionPath-5"
            class="st0"
            stroke="#c3ced5"
            d="m 422.27525,115.85234 c 27.49771,12.24278 51.77351,29.5094 72.17785,51.29179 19.74486,21.0509 34.93878,45.43932 45.32836,72.5051 10.38958,27.06578 15.41733,55.35662 14.82986,84.21238 -0.58815,29.84065 -7.07493,58.91592 -19.3177,86.41364 -12.24278,27.49771 -29.5094,51.77351 -51.29179,72.17785 -21.05091,19.74487 -45.43932,34.93878 -72.5051,45.32836 -27.06578,10.38958 -55.35662,15.41733 -84.21238,14.82986 -29.84065,-0.58815 -58.91592,-7.07493 -86.41364,-19.3177 -27.49772,-12.24277 -51.7735,-29.50941 -72.17785,-51.29178 -19.74487,-21.05092 -34.93879,-45.43934 -45.32836,-72.50511 -10.38958,-27.06578 -15.41733,-55.35662 -14.82986,-84.21238 0.58815,-29.84065 7.07493,-58.91592 19.3177,-86.41364 12.24277,-27.49772 29.50941,-51.7735 51.29179,-72.17785 21.0509,-19.74486 45.43932,-34.93878 72.5051,-45.32836 27.06578,-10.38958 55.35662,-15.417334 84.21238,-14.829856 29.84064,0.588133 58.91592,7.074926 86.41364,19.317696"
            inkscape:label="motionPath-5"
            style="fill: none;"
        />
        <path
            id="motionPath-4"
            class="st0"
            stroke="#c3ced5"
            d="m 200.49687,139.16219 c 24.35141,-17.69233 51.44264,-30.08247 80.50891,-36.86196 28.10305,-6.5741 56.821,-7.53821 85.45544,-3.00296 28.63445,4.53525 55.64891,14.32651 80.34499,29.26316 25.54869,15.42967 47.48522,35.58503 65.17756,59.93644 17.69233,24.35141 30.08247,51.44264 36.86196,80.50891 6.5741,28.10306 7.53821,56.821 3.00296,85.45544 -4.53525,28.63445 -14.32651,55.64891 -29.26316,80.34499 -15.42967,25.54869 -35.58503,47.48522 -59.93644,65.17756 -24.35141,17.69234 -51.44264,30.08246 -80.50891,36.86196 -28.10306,6.5741 -56.82101,7.53821 -85.45544,3.00296 -28.63445,-4.53525 -55.64891,-14.32651 -80.34499,-29.26316 -25.54869,-15.42967 -47.48522,-35.58503 -65.17756,-59.93644 -17.69234,-24.35141 -30.08246,-51.44264 -36.86196,-80.50891 -6.5741,-28.10305 -7.53821,-56.821 -3.00296,-85.45544 4.53525,-28.63445 14.32651,-55.64891 29.26316,-80.34499 15.42966,-25.54869 35.58503,-47.48522 59.93644,-65.17756"
            inkscape:label="motionPath-4"
            style="fill: none;"
        />
        <path
            id="motionPath-3"
            class="st0"
            stroke="#c3ced5"
            d="m 109.7946,342.88283 c -3.1463,-29.93511 -0.33087,-59.59187 8.33106,-88.15374 8.35819,-27.62501 21.88222,-52.97754 40.12708,-75.50807 18.24487,-22.53053 40.23158,-41.03011 65.51513,-54.94922 26.13684,-14.41098 54.56015,-23.33089 84.49526,-26.477202 29.93511,-3.146302 59.59187,-0.330863 88.15375,8.331062 27.62501,8.35819 52.97753,21.88222 75.50806,40.12708 22.53053,18.24487 41.03011,40.23158 54.94922,65.51513 14.41098,26.13684 23.33089,54.56015 26.4772,84.49526 3.14631,29.93511 0.33086,59.59187 -8.33106,88.15375 -8.35819,27.62501 -21.88222,52.97754 -40.12708,75.50806 -18.24487,22.53053 -40.23158,41.03011 -65.51513,54.94922 -26.13684,14.41098 -54.56015,23.33089 -84.49526,26.4772 -29.93511,3.14631 -59.59187,0.33086 -88.15375,-8.33106 -27.625,-8.35819 -52.97753,-21.88222 -75.50806,-40.12708 -22.53053,-18.24487 -41.03011,-40.23158 -54.94922,-65.51513 -14.41098,-26.13683 -23.33089,-54.56015 -26.4772,-84.49526"
            inkscape:label="motionPath-3"
            style="fill: none;"
        />
        <path
            id="motionPath-2"
            class="st0"
            stroke="#c3ced5"
            d="M 240.87071,523.29362 C 213.373,511.05084 189.0972,493.78422 168.69286,472.00183 148.948,450.95093 133.75408,426.56251 123.3645,399.49673 c -10.38958,-27.06578 -15.41733,-55.35662 -14.82986,-84.21238 0.58815,-29.84065 7.07493,-58.91592 19.3177,-86.41364 12.24278,-27.49771 29.5094,-51.77351 51.29179,-72.17785 21.05091,-19.74487 45.43932,-34.93878 72.5051,-45.32836 27.06578,-10.38958 55.35662,-15.417334 84.21238,-14.829856 29.84065,0.588142 58.91592,7.074926 86.41364,19.317696 27.49772,12.24277 51.7735,29.50941 72.17785,51.29179 19.74487,21.05091 34.93879,45.43933 45.32836,72.5051 10.38958,27.06578 15.41733,55.35662 14.82986,84.21238 -0.58815,29.84065 -7.07493,58.91592 -19.3177,86.41364 -12.24277,27.49772 -29.50941,51.7735 -51.29179,72.17785 -21.0509,19.74486 -45.43932,34.93878 -72.5051,45.32836 -27.06578,10.38958 -55.35662,15.41733 -84.21238,14.82986 -29.84064,-0.58814 -58.91592,-7.07493 -86.41364,-19.3177"
            inkscape:label="motionPath-2"
            style="fill: none;"
        />
        <path
            id="motionPath-1"
            class="st0"
            stroke="#c3ced5"
            d="m 462.64909,499.98377 c -24.35141,17.69233 -51.44264,30.08247 -80.50891,36.86196 -28.10305,6.5741 -56.821,7.53821 -85.45544,3.00296 -28.63445,-4.53525 -55.64891,-14.32651 -80.34499,-29.26316 -25.54869,-15.42967 -47.48522,-35.58503 -65.17756,-59.93644 -17.69233,-24.35141 -30.08247,-51.44264 -36.86196,-80.50891 -6.5741,-28.10306 -7.53821,-56.821 -3.00296,-85.45544 4.53525,-28.63445 14.32651,-55.64891 29.26316,-80.34499 15.42967,-25.54869 35.58503,-47.48522 59.93644,-65.17756 24.35141,-17.69234 51.44264,-30.08246 80.50891,-36.86196 28.10306,-6.574099 56.82101,-7.538211 85.45544,-3.002958 28.63445,4.535248 55.64891,14.326508 80.34499,29.263158 25.54869,15.42967 47.48522,35.58503 65.17756,59.93644 17.69234,24.35141 30.08246,51.44264 36.86196,80.50891 6.5741,28.10305 7.53821,56.821 3.00296,85.45544 -4.53525,28.63445 -14.32651,55.64891 -29.26316,80.34499 -15.42966,25.54869 -35.58503,47.48522 -59.93644,65.17756"
            inkscape:label="motionPath-1"
            style="fill: none;"
        />
    </g>
    <g id="c01" class="group" transform="translate(-558,-320)">
        <circle class="st1" cx="544" cy="320" r="96" id="circle1" />
        <g class="st2" id="g2">
            <text transform="matrix(1 0 0 1 512.1562 339.3335)" class="en" id="text1">Planning</text>
            <text transform="matrix(1 0 0 1 520 314.667)" class="cht" id="text2">規劃</text>
        </g>
        <animateMotion dur="120s" begin="0s" fill="freeze" repeatCount="indefinite"><mpath xlink:href="#motionPath-1" /></animateMotion>
    </g>
    <g id="c02" class="group" transform="translate(-446,-514)">
        <circle class="st1" cx="432" cy="514" r="96" id="circle2" />
        <g class="st2" id="g4">
            <text transform="matrix(1 0 0 1 401.418 538.3335)" class="en" id="text3">Analysis</text>
            <text transform="matrix(1 0 0 1 408 513.667)" class="cht" id="text4">分析</text>
        </g>
        <animateMotion dur="120s" begin="0s" fill="freeze" repeatCount="indefinite"><mpath xlink:href="#motionPath-2" /></animateMotion>
    </g>
    <g id="c03" class="group" transform="translate(-222,-514)">
        <circle class="st1" cx="208" cy="514" r="96" id="circle4" />
        <g class="st2" id="g6">
            <text transform="matrix(1 0 0 1 183.1445 538.3335)" class="en" id="text5">Design</text>
            <text transform="matrix(1 0 0 1 184 513.667)" class="cht" id="text6">設計</text>
        </g>
        <animateMotion dur="120s" begin="0s" fill="freeze" repeatCount="indefinite"><mpath xlink:href="#motionPath-3" /></animateMotion>
    </g>
    <g id="c04" class="group" transform="translate(-110,-320)">
        <circle class="st1" cx="96" cy="320" r="96" id="circle6" />
        <g class="st2" id="g8">
            <text transform="matrix(1 0 0 1 48.5898 339.3335)" class="en" id="text7">Development</text>
            <text transform="matrix(1 0 0 1 72 314.667)" class="cht" id="text8">開發</text>
        </g>
        <animateMotion dur="120s" begin="0s" fill="freeze" repeatCount="indefinite"><mpath xlink:href="#motionPath-4" /></animateMotion>
    </g>
    <g id="c05" class="group" transform="translate(-222,-126)">
        <circle class="st1" cx="208" cy="126" r="96" id="circle8" />
        <g class="st2" id="g10">
            <text transform="matrix(1 0 0 1 180.707 147.3335)" class="en" id="text9">Testing</text>
            <text transform="matrix(1 0 0 1 184 122.667)" class="cht" id="text10">測試</text>
        </g>
        <animateMotion dur="120s" begin="0s" fill="freeze" repeatCount="indefinite"><mpath xlink:href="#motionPath-5" /></animateMotion>
    </g>
    <g id="c06" class="group" transform="translate(-446,-126)">
        <circle class="st1" cx="432" cy="126" r="96" id="circle10" />
        <g class="st2" id="g12">
            <text transform="matrix(1 0 0 1 385.4453 147.3335)" class="en" id="text11">Maintenance</text>
            <text transform="matrix(1 0 0 1 408 122.667)" class="cht" id="text12">維護</text>
        </g>
        <animateMotion dur="120s" begin="0s" fill="freeze" repeatCount="indefinite"><mpath xlink:href="#motionPath-6" /></animateMotion>
    </g>
    <g id="inner_circle" style="display: inline;">
        <circle id="small_circle" class="st7" cx="320" cy="320" r="88" />
        <g id="text" class="st2">
            <text transform="translate(267.004,332.5002)" class="st8" id="text13">SSDLC</text>
        </g>
    </g>
</svg>
