<?xml version="1.0" encoding="utf-8"?>
<!-- Generator: Adobe Illustrator 23.0.1, SVG Export Plug-In . SVG Version: 6.00 Build 0)  -->
<svg version="1.1" id="圖層_1" xmlns="http://www.w3.org/2000/svg" xmlns:xlink="http://www.w3.org/1999/xlink" x="0px" y="0px"
	 viewBox="0 0 256 256" style="enable-background:new 0 0 256 256;" xml:space="preserve">
<style type="text/css">
	.st0{fill-rule:evenodd;clip-rule:evenodd;fill:#ffffff;}
</style>
<g>
	<path class="st0" d="M34.4,104.6H60V67.1h47.3V52.8h22.1v51.8h22.4l-73.6,56.7v-21.2C63.2,136.5,33.1,133.5,34.4,104.6L34.4,104.6z
		 M105.1,101L105.1,101c-1,0-1.6,1-1.6,2c0,1,0.6,1.6,1.6,1.6s1.9-0.7,1.9-1.6C107,101.9,106,101,105.1,101L105.1,101z M105.1,95.8
		L105.1,95.8c-1,0-1.6,0.7-1.6,1.6s0.6,2,1.6,2s1.9-1,1.9-2S106,95.8,105.1,95.8L105.1,95.8z M105.1,90.2L105.1,90.2
		c-1,0-1.6,1-1.6,2s0.6,1.6,1.6,1.6s1.9-0.7,1.9-1.6S106,90.2,105.1,90.2L105.1,90.2z M105.1,85L105.1,85c-1,0-1.6,0.7-1.6,1.6
		s0.6,2,1.6,2s1.9-1,1.9-2S106,85,105.1,85L105.1,85z M105.1,79.5L105.1,79.5c-1,0-1.6,1-1.6,2s0.6,1.6,1.6,1.6s1.9-0.7,1.9-1.6
		S106,79.5,105.1,79.5L105.1,79.5z M105.1,74.3L105.1,74.3c-1,0-1.6,0.7-1.6,1.6s0.6,2,1.6,2s1.9-1,1.9-2S106,74.3,105.1,74.3
		L105.1,74.3z M105.1,68.7L105.1,68.7c-1,0-1.6,1-1.6,2c0,1,0.6,1.6,1.6,1.6s1.9-0.7,1.9-1.6C107,69.7,106,68.7,105.1,68.7
		L105.1,68.7z M66.5,104.6L66.5,104.6h29.2V101H66.5V104.6L66.5,104.6z M111.6,71.3L111.6,71.3v4.6v5.9V86v5.9v4.2h3.9h7.8v-4.2
		h-7.8V86h7.8v-4.2h-7.8v-5.9h7.8v-4.6h-7.8H111.6L111.6,71.3z M66.5,95.8L66.5,95.8v3.6h29.2v-3.6H66.5L66.5,95.8z M66.5,90.2
		L66.5,90.2v3.6h29.2v-3.6H66.5L66.5,90.2z M66.5,85L66.5,85v3.6h29.2V85H66.5L66.5,85z M66.5,79.5L66.5,79.5v3.9h29.2v-3.9H66.5
		L66.5,79.5z M66.5,74.3L66.5,74.3v3.6h29.2v-3.6H66.5L66.5,74.3z M66.5,68.7L66.5,68.7v3.9h29.2v-3.9H66.5z"/>
	<path class="st0" d="M98.3,166.4H193v25.7h-92.7c-2.9-10.7-9.4-15-13.9-17.3C91.1,172.9,95.7,169,98.3,166.4L98.3,166.4z
		 M172.2,186L172.2,186c3.9,0,6.8-2,6.8-4.6c0-2.9-2.9-4.9-6.8-4.9c-1.3,0-2.3,0.3-3.6,0.7c0-0.3,0-0.3,0-0.7c0-1.6,1.6-2.9,3.6-2.9
		c1.6,0,2.6,0.7,3.2,1.6h3.6c-0.6-2.3-3.2-4.2-6.8-4.2s-6.5,2-6.5,4.9c0,2,0,3.3,0,5.5C165.7,184,168.6,186,172.2,186L172.2,186z
		 M172.2,183L172.2,183c1.9,0,3.6-0.7,3.6-2c0-1.3-1.6-2.3-3.6-2.3c-1.6,0-3.2,1-3.2,2.3C169,182.4,170.6,183,172.2,183L172.2,183z
		 M156.3,171L156.3,171c-3.6,0-6.5,2-6.5,4.9c0,2.6,2.9,4.6,6.5,4.6c1.3,0,2.6-0.3,3.6-0.7c0,0.3,0,0.7,0,0.7c0,1.6-1.6,2.9-3.6,2.9
		c-1.3,0-2.6-0.7-3.2-1.6h-3.2c0.3,2.6,3.2,4.2,6.5,4.2c3.6,0,6.5-2,6.5-4.6c0-2.3,0-3.6,0-5.5C162.8,172.9,159.9,171,156.3,171
		L156.3,171z M156.3,173.9L156.3,173.9c-1.9,0-3.2,1-3.2,2c0,1.3,1.3,2.3,3.2,2.3s3.2-1,3.2-2.3
		C159.6,174.9,158.3,173.9,156.3,173.9L156.3,173.9z M139.8,171L139.8,171c-3.6,0-6.5,2-6.5,4.6c0,1,0.3,2,1,2.6
		c-1.3,1-2.3,2-2.3,3.3c0,2.6,3.6,4.6,7.8,4.6c4.2,0,7.8-2,7.8-4.6c0-1.3-1-2.3-2.3-3.3c0.6-0.7,1.3-1.6,1.3-2.6
		C146.6,172.9,143.3,171,139.8,171L139.8,171z M139.8,179.1L139.8,179.1c-1.6,0-3.2,1-3.2,2.3c0,1,1.6,2,3.2,2c1.9,0,3.2-1,3.2-2
		C143,180.1,141.7,179.1,139.8,179.1L139.8,179.1z M139.8,174.2L139.8,174.2c-1.6,0-2.6,0.7-2.6,1.6c0,1,1,1.6,2.6,1.6
		c1.6,0,2.6-0.7,2.6-1.6C142.4,174.9,141.4,174.2,139.8,174.2L139.8,174.2z M122.3,171.6L122.3,171.6c-0.3,1.3-2.6,2.6-5.2,2.9
		c0,1,0,1.6,0,2.3h5.2v9.4h4.5v-14.7H122.3L122.3,171.6z M74.3,192.2L74.3,192.2h-12v-13.7C69.1,182.4,72.6,186.6,74.3,192.2z"/>
	<path class="st0" d="M200.1,104.6h18.2c0,5.9-5.8,10.7-11.4,15c1.6,0.3,2.9,2,2.9,3.6c0,1.3-0.6,2.3-1.6,2.9
		c2.3,0.7,3.9,2.6,3.9,4.9c0,2.6-1.3,4.6-3.6,5.2c1,0.7,1.6,2,1.6,2.9c0,2-1.6,3.6-3.6,3.6s-3.6-1.6-3.6-3.6c0-1,0.6-2.3,1.6-2.9
		c-1.9-0.7-3.6-2.6-3.6-5.2c0-2.3,1.3-3.9,3.6-4.9c-1-0.7-1.6-1.6-1.6-2.9h-0.3v0.3h-1c-9.4,2.3-42.8,16.6-16.9,35.8h-78.2
		l72.6-54.7L156.6,72v30.6h-24V52.8h24v10.1l19.1-13.4L209.5,98L200.1,104.6L200.1,104.6z M205.9,120.5L205.9,120.5
		c-0.6,0.7-1.3,1.3-1.9,1.6c0,0.3-0.3,0.7-0.3,1c0,1.3,1.3,2.6,2.6,2.6c1.6,0,2.6-1.3,2.6-2.6c0-1.3-1-2.6-2.6-2.6H205.9
		L205.9,120.5z M206.6,136.5L206.6,136.5c-1.3,0-2.6,1.3-2.6,2.6c0,1.6,1.3,2.6,2.6,2.6s2.6-1,2.6-2.6
		C209.2,137.8,207.9,136.5,206.6,136.5L206.6,136.5z M206.6,126.7L206.6,126.7c-2.6,0-4.5,1.6-4.5,4.2c0,2.6,1.9,4.9,4.5,4.9
		s4.5-2.3,4.5-4.9C211.1,128.3,209.2,126.7,206.6,126.7L206.6,126.7z M171.9,71.7L171.9,71.7l9.7,24.8l2.9-2.3l-2.3-5.9l3.2-2.6
		l4.9,4.2l2.9-2L174.1,70L171.9,71.7L171.9,71.7z M177.4,78.2L177.4,78.2l3.2,6.8l2.3-1.6L177.4,78.2L177.4,78.2z M144,81.8
		L144,81.8c-1.9-1.3-4.2-2.6-4.2-4.6c0-1.6,1.6-3.3,3.6-3.3c1.6,0,3.2,1.6,3.2,3.3h3.2c-0.3-3.9-3.2-6.8-6.5-6.8
		c-3.6,0-6.8,3.3-6.5,7.2c0,3.9,1.9,5.9,6.5,8.1c2.3,1,3.2,2.3,3.2,4.2s-1.6,3.6-3.2,3.6c-1.9,0-3.6-1.6-3.6-3.6h-2.9
		c0.3,4.2,2.9,7.2,6.5,7.2s6.2-2.9,6.5-7.2C149.8,85.7,148.5,84,144,81.8z"/>
	<path class="st0" d="M62.6,174.6c-3.6-1.6-4.9-12.1-1.6-19.5c0.6-1,2.3-1.6,3.2-0.7l12.3,15L169.6,98l4.5,5.5l-92.7,72l8.1,6.8
		c-3.6,2.9-8.1,6.5-11.7,9.4C74.6,181.7,68.8,177.2,62.6,174.6z"/>
	<polygon class="st0" points="91.5,185 97.6,192.8 84.6,202.3 79.5,194.1 	"/>
	<path class="st0" d="M126.8,26.4c55.5,0,100.5,45.6,100.5,101.6c0,56-45.1,101.6-100.5,101.6C71,229.6,25.9,184,25.9,128
		C25.9,72,71,26.4,126.8,26.4L126.8,26.4z M126.8,27.7L126.8,27.7c-55.1,0-99.9,44.9-99.9,100.3c0,55.4,44.8,100.3,99.9,100.3
		s99.9-44.9,99.9-100.3C226.7,72.6,181.9,27.7,126.8,27.7z"/>
	<path class="st0" d="M126.8,26.4c55.5,0,100.5,45.6,100.5,101.6c0,56-45.1,101.6-100.5,101.6C71,229.6,25.9,184,25.9,128
		C25.9,72,71,26.4,126.8,26.4L126.8,26.4z M126.8,27.7L126.8,27.7c-55.1,0-99.9,44.9-99.9,100.3c0,55.4,44.8,100.3,99.9,100.3
		s99.9-44.9,99.9-100.3C226.7,72.6,181.9,27.7,126.8,27.7z"/>
	<path class="st0" d="M132,0v13c1,0,2.3,0,3.6,0l1.3-12.7c3.2,0,5.2,0.3,8.1,0.7l-1.3,13c1.3,0,2.6,0.3,3.6,0.3L150.1,2
		c2.9,0.3,4.9,1,8.1,1.6l-2.6,12.7c1,0,2.3,0.3,3.2,0.7l3.9-12.1c3.2,1,4.9,1.6,8.1,2.6L167,19.5c1,0.3,2.3,1,3.2,1.3l5.2-11.7
		c2.9,1.3,4.5,2,7.5,3.6L178,24.1c1,0.7,2.3,1.3,3.2,1.6l6.2-10.7c2.9,1.3,4.5,2.3,7.1,3.9L188.4,30c1.3,0.7,2.3,1.3,3.2,2l7.1-10.1
		c2.6,1.6,4.2,2.6,6.8,4.6l-7.1,10.4c1,1,1.9,1.6,2.9,2.3l8.1-9.4c2.6,2,3.9,3.3,6.2,5.5l-8.1,9.4c1,1,1.6,2,2.6,2.6l9.4-8.5
		c2.3,2.6,3.2,3.9,5.5,6.2l-9.4,8.8c1,0.7,1.6,1.6,2.6,2.6l10.1-7.5c1.9,2.6,2.9,4.2,4.9,6.8l-10.1,7.5c0.6,1,1.3,2.3,1.9,3.3
		l11-6.5c1.6,2.9,2.6,4.6,3.9,7.2l-10.7,6.5c0.6,1,1.3,2.3,1.6,3.3l11.7-5.2c1.3,2.9,1.9,4.6,3.2,7.5l-11.4,5.2
		c0.3,1.3,1,2.3,1.3,3.6l12-3.9c1,2.9,1.6,4.6,2.6,7.8l-12,3.9c0.3,1,1,2.6,1.3,3.9l12-2.6c0.6,3.3,1.3,4.9,1.6,8.1l-12,2.6
		c0.3,1.3,0.3,2.6,0.6,3.9l12.3-1.3c0.3,3.3,0.6,4.9,1,8.1l-12.3,1.6c0,1.3,0,2.3,0,3.6h12.3c0.3,1.6,0.3,2.6,0.3,4.2
		c0,1.6,0,2.3,0,3.9l-12.6,0.3c0,1.3,0,2.3,0,3.6l12.3,1.3c-0.3,3.3-0.6,4.9-1,8.1l-12.3-1c-0.3,1.3-0.3,2.6-0.6,3.6l12,2.6
		c-0.3,3.3-0.6,5.2-1.6,8.1l-12-2.3c-0.3,1.3-0.6,2.3-1.3,3.6l12,3.9c-1,3.3-1.3,4.9-2.6,7.8l-12-3.6c-0.3,1.3-1,2.3-1.3,3.6
		l11.4,5.2c-1.3,2.9-1.9,4.6-3.6,7.5l-11.4-5.2c-0.3,1-1,2.3-1.6,3.3l10.7,6.2c-1.3,2.9-2.3,4.6-3.9,7.2l-11-6.2
		c-0.6,1-1.3,2.3-1.9,3.3l10.1,7.2c-1.6,2.9-2.9,4.2-4.9,6.8l-10.1-7.2c-1,1-1.6,2-2.6,2.6l9.4,8.5c-1.9,2.6-3.2,3.9-5.5,6.2
		l-9.4-8.1c-1,0.7-1.6,1.6-2.6,2.6l8.4,9.1c-2.3,2.3-3.9,3.6-6.2,5.5l-8.4-9.1c-1,0.7-1.9,1.3-2.9,2.3l7.5,10.4
		c-2.6,2-3.9,2.9-6.8,4.9l-7.5-10.4c-1,0.7-1.9,1.3-3.2,2l6.5,11.1c-2.6,1.6-4.2,2.6-7.1,4.2l-6.5-11.1c-1,0.3-2.3,1-3.2,1.6
		l5.2,11.4c-2.9,1.3-4.5,2.3-7.5,3.3l-5.5-11.4c-1,0.3-2.3,1-3.2,1.3l3.9,12.1c-2.9,1-4.9,1.6-7.8,2.6l-4.2-12.1
		c-1,0.3-2.3,0.7-3.2,0.7l2.6,12.7c-3.2,0.7-4.9,1.3-8.1,1.6l-2.9-12.4c-1,0-2.3,0.3-3.6,0.3l1.3,13c-2.9,0.3-4.9,0.7-8.1,0.7
		l-1.3-12.7c-1.3,0-2.6,0-3.6,0v13c-3.2,0-5.2,0-8.4,0v-13c-1.3,0-2.3,0-3.6,0l-1.3,12.7c-3.2,0-5.2-0.3-8.4-0.7l1.6-13
		c-1.3,0-2.6-0.3-3.9-0.3l-2.6,12.4c-3.2-0.3-4.9-1-8.1-1.6l2.6-12.7c-1,0-2.3-0.3-3.6-0.7l-3.9,12.1c-2.9-1-4.9-1.6-7.8-2.6
		l3.9-12.1c-1-0.3-2.3-1-3.2-1.3l-5.2,11.7c-2.9-1.3-4.9-2-7.8-3.6l5.2-11.4c-1-0.7-2.3-1.3-3.2-1.6L68.1,241
		c-2.9-1.3-4.5-2.3-7.1-3.9l6.2-11.1c-1-0.7-2.3-1.3-3.2-2l-7.1,10.1c-2.9-1.6-4.2-2.6-6.8-4.6l7.5-10.4c-1-0.7-1.9-1.6-2.9-2.3
		l-8.4,9.4c-2.6-2-3.9-3.3-6.2-5.5l8.4-9.4c-1-0.7-2.3-2-2.9-2.6l-9.4,8.5c-2.3-2.6-3.6-3.9-5.5-6.2l9.4-8.5c-1-1-1.6-2-2.6-2.9
		l-10.1,7.5c-1.9-2.6-2.9-4.2-4.9-6.8l10.1-7.5c-0.6-1-1.3-2.3-1.9-3.3l-11,6.5c-1.6-2.9-2.6-4.6-4.2-7.2l11-6.5
		c-0.6-1-1.3-2.3-1.9-3.3L13,184.3c-1.3-2.9-1.9-4.6-3.2-7.5l11.4-5.2c-0.6-1.3-1-2.3-1.3-3.6l-12,3.9c-1-2.9-1.6-4.6-2.6-7.8
		l12-3.9c-0.3-1-1-2.6-1.3-3.9l-12,2.6c-1-3.3-1.3-4.9-1.6-8.1l12-2.6c-0.3-1.3-0.6-2.6-0.6-3.9l-12.3,1.3c-0.3-3.3-0.6-4.9-1-8.1
		l12.3-1.3c0-1.3,0-2.6-0.3-3.9H0c0-1.6,0-2.6,0-4.2c0-1.6,0-2.3,0-3.9h12.3c0.3-1,0.3-2.6,0.3-3.9l-12.3-1.3c0.3-3.3,0.3-4.9,1-8.1
		l12.3,1.3c0-1.3,0.3-2.9,0.6-3.9l-12.3-2.6c0.6-3.3,1-5.2,1.9-8.1l12,2.6c0.3-1.3,0.6-2.6,1-3.9L5.2,92.2c1-3.3,1.3-4.9,2.6-7.8
		l11.7,3.9c0.6-1.3,1-2.6,1.6-3.9L9.7,79.1c1.3-2.9,1.9-4.6,3.2-7.5l11.4,5.2c0.6-1,1.3-2.3,1.9-3.3l-11-6.2
		c1.6-2.9,2.6-4.6,4.2-7.2l10.7,6.2c0.6-1,1.6-2.3,2.3-3.3L22.4,56c1.6-2.9,2.6-4.2,4.9-6.8l10.1,7.5c0.6-1,1.6-2.3,2.3-2.9
		l-9.1-8.5c1.9-2.6,3.2-3.9,5.5-6.2l9.4,8.5c0.6-1,1.6-2,2.6-2.9l-8.4-9.1c2.3-2.3,3.6-3.6,6.2-5.5l8.4,9.4c1-1,1.9-1.6,2.9-2.3
		L49.9,27c2.3-2,3.9-2.9,6.5-4.9l7.5,9.8c1-0.7,1.9-1.3,2.9-2l-6.2-11.1c2.6-1.6,4.2-2.6,7.1-4.2l6.2,11.4c1.3-0.7,2.3-1.3,3.6-1.6
		l-5.2-12.1c2.9-1.3,4.5-2,7.5-3.3L85,20.8c1-0.3,2.3-1,3.6-1.3L84.6,7.5c2.9-1,4.9-1.6,7.8-2.6l3.9,12.1c1.3-0.3,2.6-0.7,3.6-0.7
		L97.3,3.6c3.2-0.7,4.9-1.3,8.1-1.6l2.6,12.4c1.3,0,2.6-0.3,3.9-0.3l-1.6-13c3.2-0.3,5.2-0.7,8.4-0.7L120,13c1.3,0,2.3,0,3.6,0V0
		C126.8,0,128.7,0,132,0L132,0z M233.5,128L233.5,128c0-58.3-47-105.9-104.7-105.9c-0.3,0-0.6,0-1,0s-0.6,0-1,0
		C69.1,22.1,22.1,69.7,22.1,128c0,58.3,47,105.9,104.7,105.9c0.3,0,0.6,0,1,0s0.6,0,1,0C186.5,233.9,233.5,186.3,233.5,128z"/>
</g>
</svg>
