<?xml version="1.0" encoding="utf-8"?>
<!-- Generator: Adobe Illustrator 23.0.2, SVG Export Plug-In . SVG Version: 6.00 Build 0)  -->
<svg version="1.1" id="user" xmlns="http://www.w3.org/2000/svg" xmlns:xlink="http://www.w3.org/1999/xlink" x="0px" y="0px"
	 viewBox="0 0 512 512" style="enable-background:new 0 0 512 512;" xml:space="preserve">
<style type="text/css">
	.st0{fill:url(#bg_1_);}
	.st1{fill:#F2F2F2;}
</style>
<linearGradient id="bg_1_" gradientUnits="userSpaceOnUse" x1="0" y1="80" x2="512" y2="-432" gradientTransform="matrix(1 0 0 1 0 432)">
	<stop  offset="0" style="stop-color:#0B7CC0"/>
	<stop  offset="1" style="stop-color:#83B774"/>
</linearGradient>
<rect id="bg" class="st0" width="512" height="512"/>
<path id="icon" class="st1" d="M318.7,269.1l-7.9-2.3c11.1-15.4,12.7-31,12.7-39.4c0-37.3-30.2-67.5-67.5-67.5s-67.5,30.2-67.5,67.5
	c0,8.4,1.6,24,12.7,39.4l-7.9,2.3c-25.3,7.2-33.3,30.2-33.3,44.1v9.6c0,16.1,13.1,29.1,29.1,29.1h133.7c16.1,0,29.1-13.1,29.1-29.1
	v-9.6C352,299.6,344.2,276.4,318.7,269.1L318.7,269.1z M256,178c27.3,0,49.5,22.2,49.5,49.5S283.3,277,256,277s-49.5-22.2-49.5-49.5
	S228.7,178,256,178z M334,322.9c0,6.2-5,11.1-11.1,11.1H189.1c-6.2,0-11.1-5-11.1-11.1v-9.6c0-12.4,8.2-23.4,20.2-26.8l17.3-4.9
	c5.5,4.1,19.7,13.5,40.5,13.5s35-9.4,40.5-13.5l17.3,4.9c12,3.4,20.2,14.3,20.2,26.8V322.9z"/>
</svg>
