<?xml version="1.0" encoding="utf-8"?>
<!-- Generator: Adobe Illustrator 27.2.0, SVG Export Plug-In . SVG Version: 6.00 Build 0)  -->
<svg version="1.1" id="jesda" xmlns="http://www.w3.org/2000/svg" xmlns:xlink="http://www.w3.org/1999/xlink" x="0px" y="0px"
	 viewBox="0 0 162 60" style="enable-background:new 0 0 162 60;" xml:space="preserve">
<style type="text/css">
	.st0{fill-rule:evenodd;clip-rule:evenodd;fill:#2386D2;}
	.st1{fill-rule:evenodd;clip-rule:evenodd;fill:#1768A6;}
	.st2{fill:#41474C;}
</style>
<g id="logo_00000096752532704739011660000009084362731961037987_">
	<path id="m-l" class="st0" d="M28.37,60C28.37,60,0,52,0,32V0h32.43v8H8.11v23.5C8.11,45.8,28.37,52,28.37,52
		s20.27-6.32,20.27-20.63V8H36.48V0h20.27v32C56.74,52,28.37,60,28.37,60z M36.48,8h8.11v22.5c0,11.3-16.21,17-16.21,17
		s-16.21-5.7-16.21-17V12h8.11v18.25c0,5.65,8.11,8.75,8.11,8.75s8.11-3.1,8.11-8.75V8z M28.37,34.5c0,0-4.05-1.8-4.05-4.62l0-21.88
		h8.11v21.88C32.43,32.7,28.37,34.5,28.37,34.5z"/>
	<path id="m-j_00000171698720132986171800000006451507796447853708_" class="st1" d="M28.37,60c0,0,28.37-8,28.37-28V0H36.48v8
		h12.16v23.37C48.64,45.68,28.37,52,28.37,52V60z M28.37,47.5c0,0,16.21-5.7,16.21-17V8h-8.11v22.25c0,5.65-8.11,8.75-8.11,8.75
		V47.5z"/>
	<g id="t-s">
		<g>
			<path class="st2" d="M70.14,42.56h3.7v1.31h-4.1V47h9v-3.12h-4.04v-1.31h3.9v-2.21h1.58v-0.78h-1.58v-2.25h-3.9V36h-0.87v1.33
				h-3.7v2.25h-1.68v0.78h1.68V42.56z M73.84,46.21h-3.23v-1.56h3.23V46.21z M74.71,38.09h3.03v1.48h-3.03V38.09z M74.71,40.36h3.03
				v1.43h-3.03V40.36z M74.71,44.65h3.17v1.56h-3.17V44.65z M71.01,38.09h2.83v1.48h-2.83V38.09z M71.01,40.36h2.83v1.43h-2.83
				V40.36z M75.98,51.72c0.65-0.66,1.14-1.5,1.48-2.52h2.41v-0.78h-6.85c0.13-0.31,0.25-0.62,0.36-0.94l-0.87-0.25
				c-0.13,0.4-0.29,0.8-0.47,1.19H68.4v0.78h3.29c-0.45,0.89-0.99,1.72-1.62,2.5l0.71,0.62c0.26-0.33,0.52-0.68,0.77-1.05
				c0.87,0.21,1.77,0.46,2.69,0.76c-1.37,0.9-3.3,1.41-5.78,1.54l0.24,0.78c2.84-0.16,5.01-0.81,6.53-1.97
				c0.95,0.34,1.91,0.74,2.89,1.19l0.42-0.86C77.66,52.34,76.81,52.01,75.98,51.72z M75.07,51.39c-1.06-0.34-2.08-0.62-3.07-0.86
				c0.25-0.42,0.48-0.86,0.69-1.33h3.8C76.16,50.08,75.69,50.8,75.07,51.39z M83.44,49.54c0.09-0.14,0.18-0.3,0.26-0.47
				c1-2.03,1.64-4.62,1.92-7.77h0.97v-0.78h-4.97c0.36-1.34,0.65-2.72,0.87-4.14l-0.87-0.23c-0.21,1.5-0.55,3.09-1.03,4.77
				c-0.45,1.68-0.98,3.16-1.6,4.45L79.7,46c0.34-0.73,0.67-1.54,0.97-2.44c0.49,2.46,1.08,4.41,1.78,5.86
				c-1.04,1.75-2.43,3.16-4.16,4.24l0.53,0.7c1.68-1.03,3.04-2.36,4.1-3.98c0.75,1.39,1.85,2.75,3.29,4.06l0.63-0.78
				C85.39,52.39,84.26,51.02,83.44,49.54z M81.12,42.15c0.07-0.21,0.13-0.42,0.2-0.62c0.01-0.08,0.03-0.16,0.06-0.23h3.29
				c-0.26,2.92-0.84,5.32-1.74,7.21C82.2,46.89,81.6,44.77,81.12,42.15z M102.8,51.29l0.95-0.37c-0.62-2.8-1.38-5.38-2.28-7.73
				l-0.71,0.45C101.58,45.89,102.26,48.44,102.8,51.29z M98.23,53.5h13.77v-0.94H98.23V53.5z M106.37,39.5
				c-0.66-1.22-1.48-2.34-2.45-3.36l-0.77,0.57c0.99,1.09,1.77,2.24,2.36,3.44L106.37,39.5z M107.16,51.21
				c1.03-2.67,1.77-5.29,2.24-7.87l-0.95-0.33c-0.44,2.46-1.15,5.05-2.16,7.75L107.16,51.21z M111.43,40.51H98.77v0.86h12.67V40.51z
				 M98.23,36.06c-0.51,1.68-1.24,3.41-2.18,5.18c-0.79,1.54-1.73,3.02-2.81,4.45l0.71,0.53c0.82-1.07,1.58-2.2,2.28-3.4v11.54h0.97
				V41.08c0.65-1.3,1.31-2.87,1.98-4.71L98.23,36.06z M126.72,36.92h-7.3v17.52h0.87v-11.8h6.43V36.92z M125.85,41.86h-5.56v-1.72
				h5.56V41.86z M125.85,39.36h-5.56v-1.62h5.56V39.36z M128.23,36.92v5.72h6.57v9.69c0,0.46-0.18,0.68-0.55,0.68
				c-0.65,0-1.34-0.05-2.08-0.14v0.92c0.79,0.05,1.48,0.08,2.08,0.08c0.95,0,1.42-0.41,1.42-1.23V36.92h-6.12H128.23z M134.8,41.86
				h-5.7v-1.72h5.7V41.86z M134.8,39.36h-5.7v-1.62h5.7V39.36z M133.67,47.56h-3.7v-2.5h2.99v-0.78h-10.67v0.78h2.77v2.5h-3.56v0.78
				h3.5c-0.09,0.7-0.33,1.39-0.71,2.05c-0.55,0.95-1.41,1.8-2.57,2.54l0.73,0.57c0.99-0.62,1.8-1.43,2.43-2.4
				c0.55-0.83,0.88-1.75,0.99-2.75h3.23v5h0.87v-5h3.7V47.56z M129.1,47.56h-3.17v-2.5h3.17V47.56z M156.02,41.16
				c0.33,0.27,0.67,0.53,1.01,0.78h-3.96c0,1.69-0.24,2.82-0.73,3.38c-0.29,0.42-0.86,0.74-1.72,0.96l0.3,0.86
				c1.02-0.22,1.77-0.68,2.26-1.39c0.42-0.59,0.67-1.58,0.75-2.99h2.87v2.52c0,0.38,0.06,0.64,0.18,0.78
				c0.09,0.25,0.59,0.37,1.48,0.37c0.95,0,1.77-0.08,2.45-0.23v-0.86c-0.91,0.16-1.73,0.23-2.45,0.23c-0.32,0-0.55-0.03-0.69-0.1
				c-0.07-0.12-0.1-0.34-0.1-0.66v-2.45c1.06,0.7,2.22,1.33,3.48,1.9l0.63-0.78c-1.6-0.71-2.94-1.43-4.02-2.17
				c0.36-0.22,0.69-0.49,1.01-0.8c0.57-0.49,1.07-1.04,1.5-1.64l-0.73-0.45c-0.38,0.53-0.83,1.02-1.35,1.46
				c-0.4,0.34-0.8,0.63-1.23,0.88c-0.13-0.12-0.26-0.22-0.4-0.31c-0.47-0.38-0.92-0.78-1.33-1.21c0.4-0.22,0.78-0.48,1.17-0.76
				c0.59-0.46,1.11-0.95,1.54-1.48l-0.61-0.45c-0.42,0.47-0.91,0.91-1.46,1.31c-0.4,0.3-0.79,0.56-1.19,0.78
				c-0.71-0.78-1.31-1.61-1.8-2.5l-0.69,0.49C153.23,38.41,154.51,39.92,156.02,41.16z M159.25,47.23h-8.09v0.78h1.01
				c0.73,1.48,1.6,2.68,2.63,3.57c-1.33,0.91-2.96,1.58-4.89,1.99l0.3,0.86c2.11-0.46,3.89-1.22,5.34-2.29
				c1.6,1.12,3.57,1.86,5.92,2.21l0.24-0.78c-2.31-0.39-4.15-1.04-5.52-1.93C157.42,50.51,158.44,49.04,159.25,47.23z M155.43,51.06
				c-0.91-0.78-1.7-1.8-2.37-3.05h4.79C157.16,49.22,156.35,50.24,155.43,51.06z M145.95,48.42l0.61-2.34h3.9v-3.85h-2.83
				c0.07-0.04,0.13-0.08,0.2-0.14c1.5-1.02,2.94-2.32,4.29-3.91v-0.86h-7.52v0.86h6.33c-0.75,0.91-1.62,1.74-2.61,2.5
				c-0.57-0.72-1.15-1.35-1.74-1.89l-0.65,0.57c0.65,0.6,1.21,1.2,1.68,1.82c-1.42,1.02-2.9,1.76-4.43,2.25l0.46,0.86
				c0.88-0.33,1.79-0.75,2.71-1.27h3.25v2.29h-3.74l-0.93,3.91h4.41c-0.21,1.8-0.47,2.94-0.79,3.44c-0.2,0.36-0.49,0.55-0.87,0.55
				c-0.54,0-1.27-0.1-2.2-0.31v0.86c0.7,0.14,1.43,0.21,2.2,0.21c0.61,0,1.08-0.19,1.41-0.57c0.55-0.63,0.98-2.28,1.29-4.96H145.95z
				"/>
		</g>
	</g>
	<g id="t-j">
		<g>
			<path class="st2" d="M77.26,14.16c0-0.17-0.08-0.25-0.25-0.25c-0.04,0-0.1,0.03-0.16,0.09c-0.89,0.46-1.8,0.91-2.75,1.34V8.78
				h2.91c0.25,0,0.38-0.18,0.38-0.53V7.28c0-0.35-0.13-0.53-0.38-0.53H74.1V2.5c0-0.81,0.21-1.29,0.63-1.44
				c0.25,0,0.38-0.09,0.38-0.28c0-0.08-0.13-0.19-0.38-0.31L72.2,0.12c-0.42,0-0.63,0.08-0.63,0.25c0,0.17,0.04,0.38,0.13,0.62
				c0.08,0.31,0.13,0.77,0.13,1.38v4.38h-3.67c-0.25,0-0.38,0.18-0.38,0.53v0.97c0,0.35,0.13,0.53,0.38,0.53h3.67v7.53
				c-1.73,0.71-3.21,1.24-4.43,1.59c0.65,1.75,1.08,2.62,1.27,2.62s0.44-0.3,0.76-0.91c0.8-0.35,1.6-0.71,2.41-1.06v7.47
				c0,0.73-0.46,1.09-1.39,1.09c-0.78,0-1.67-0.12-2.66-0.38c-0.17,0-0.25,0.08-0.25,0.25c0.32,0.56,0.52,1.04,0.6,1.44
				c0,0.38,0.1,0.56,0.28,0.56l2.28,0.12c2.28,0,3.42-0.75,3.42-2.25v-9.41c1.01-0.5,2.03-1.03,3.04-1.59
				C77.22,15.77,77.26,15.2,77.26,14.16z M97.28,26.03c-3.02,0.31-6.1,0.47-9.25,0.47V23h7.22c0.25,0,0.38-0.17,0.38-0.5v-1
				c0-0.33-0.13-0.5-0.38-0.5h-7.22v-2.97h6.21c0.34,0,0.51-0.18,0.51-0.53v-4h1.93c0.23,0,0.35-0.17,0.35-0.5v-1
				c0-0.33-0.12-0.5-0.35-0.5h-1.93v-4c0-0.25-0.17-0.38-0.51-0.38h-6.21V4.53h8.23c0.27,0,0.41-0.18,0.41-0.53V3
				c0-0.33-0.14-0.5-0.41-0.5h-8.23v-1c0-0.4,0.11-0.6,0.32-0.62c0.21-0.04,0.32-0.21,0.32-0.5c0-0.25-0.8-0.38-2.41-0.38
				c-0.34,0-0.51,0.12-0.51,0.38V2.5h-7.73c-0.25,0-0.38,0.17-0.38,0.5v1c0,0.35,0.13,0.53,0.38,0.53h7.73v2.59H79.8
				c-0.25,0-0.38,0.17-0.38,0.5v1.03c0,0.31,0.13,0.47,0.38,0.47h5.95v2.38h-7.47c-0.25,0-0.38,0.17-0.38,0.5v1
				c0,0.33,0.13,0.5,0.38,0.5h7.47V16H79.8c-0.25,0-0.38,0.18-0.38,0.53v0.97c0,0.35,0.13,0.53,0.38,0.53h5.95v8.41
				c-0.93-0.06-1.67-0.19-2.22-0.38c-0.68-0.25-1.2-0.6-1.58-1.06c-0.32-0.35-0.58-0.84-0.79-1.47c0.19-0.75,0.33-1.55,0.41-2.41
				c0.06-0.31,0.18-0.53,0.35-0.66c0.27-0.04,0.41-0.2,0.41-0.47c0-0.12-0.11-0.24-0.32-0.34l-2.09-0.53
				c-0.25,0-0.38,0.12-0.38,0.38c-0.02,1.17-0.13,2.18-0.32,3.03c-0.19,0.71-0.4,1.32-0.63,1.84c-0.3,0.56-0.68,1.08-1.14,1.56
				c-0.44,0.48-1.02,0.92-1.74,1.31c-0.15,0.04-0.22,0.12-0.22,0.25c0,0.1,0.07,0.23,0.22,0.38c0.27,0.27,0.59,0.58,0.95,0.94
				c0.11,0.12,0.26,0.19,0.47,0.19c1.31-0.77,2.33-1.79,3.07-3.06c0.04,0.06,0.08,0.12,0.13,0.19c0.4,0.56,0.96,1.05,1.68,1.47
				c0.51,0.33,1.32,0.6,2.44,0.81c0.91,0.17,2.02,0.25,3.32,0.25h8.61c0.25,0,0.39-0.14,0.41-0.41c0.17-0.5,0.41-1.17,0.73-2
				C97.53,26.1,97.44,26.03,97.28,26.03z M88.03,9.12h4.43v2.38h-4.43V9.12z M88.03,13.5h4.43V16h-4.43V13.5z M105.54,19.53
				l-1.93-0.78c-0.11,0-0.21,0.2-0.32,0.59c-0.27,1.27-0.71,2.56-1.3,3.88c-0.4,0.98-1,2.12-1.8,3.44
				c-0.08,0.15-0.13,0.26-0.13,0.34c0,0.04,0.09,0.1,0.28,0.19c0.42,0.19,0.85,0.39,1.3,0.59c0.21,0.15,0.4,0.22,0.57,0.22
				c0.11,0,0.25-0.17,0.44-0.5c0.82-1.52,1.64-3.66,2.44-6.41c0.08-0.35,0.27-0.53,0.57-0.53c0.23-0.12,0.35-0.31,0.35-0.56
				C106.02,19.83,105.86,19.68,105.54,19.53z M123.49,16.38c0,0.27,0.17,0.41,0.51,0.41h1.27c0.34,0,0.51-0.14,0.51-0.41V1.62
				c0-0.25-0.17-0.38-0.51-0.38H104.5c-0.34,0-0.51,0.17-0.51,0.5v14.62c0,0.27,0.17,0.41,0.51,0.41h1.27
				c0.34,0,0.51-0.14,0.51-0.41v-1.5h17.23V16.38z M116.02,3.28h7.47v3.84h-7.47V3.28z M113.74,12.88h-7.47V9.12h7.47V12.88z
				 M113.74,7.12h-7.47V3.28h7.47V7.12z M116.02,12.88V9.12h7.47v3.75H116.02z M125.05,18.75c-0.11,0-0.21,0.07-0.32,0.22
				c-0.65,0.81-0.98,1.28-0.98,1.41c0.57,0.35,1.29,0.94,2.15,1.75c1.08,0.98,2.09,2.06,3.04,3.25c0.02,0,0.35-0.45,0.98-1.34
				c0.11-0.15,0.16-0.24,0.16-0.28c-0.59-0.75-1.33-1.59-2.22-2.53C127.13,20.47,126.19,19.65,125.05,18.75z M124.19,23.44
				c-0.61-0.38-1.06-0.77-1.33-1.19c-0.51,2.06-0.93,3.25-1.27,3.56c-0.27,0.38-1.12,0.56-2.53,0.56h-6.08
				c-1.18,0-1.77-0.46-1.77-1.38v-6.12c0-0.21,0.11-0.33,0.32-0.38c0.13-0.04,0.19-0.16,0.19-0.34c0-0.12-0.13-0.21-0.38-0.25
				l-2.15-0.28c-0.17,0-0.25,0.14-0.25,0.41v8.22c0,1.5,1.27,2.25,3.8,2.25h7.98c1.2,0,1.98-0.27,2.34-0.8
				c0.36-0.23,0.89-1.5,1.58-3.82C124.63,23.71,124.49,23.56,124.19,23.44z M115.26,17c-0.08,0-0.18,0.07-0.28,0.22
				c-0.65,0.83-0.98,1.3-0.98,1.41c0.57,0.29,1.28,0.79,2.12,1.5c1.03,0.88,2.02,1.83,2.94,2.88c0.02,0,0.35-0.46,0.98-1.38
				c0.11-0.12,0.16-0.21,0.16-0.25c-0.61-0.67-1.34-1.4-2.18-2.19C117.32,18.52,116.4,17.79,115.26,17z M142.11,8.78h4.56
				c-0.91,0.44-1.36,0.72-1.36,0.84c0.53,0.65,0.95,1.3,1.27,1.97c0.27,0.48,0.46,0.91,0.57,1.28h-4.91c-0.17,0-0.25,0.12-0.25,0.38
				v1c0,0.33,0.08,0.5,0.25,0.5h8.11V17h-6.59c-0.17,0-0.25,0.12-0.25,0.38v1c0,0.33,0.08,0.5,0.25,0.5h6.59V21h-8.11
				c-0.17,0-0.25,0.12-0.25,0.38v1c0,0.33,0.08,0.5,0.25,0.5h8.11v2.62c0,0.27,0.17,0.41,0.51,0.41h1.27c0.34,0,0.51-0.14,0.51-0.41
				v-2.62h7.85c0.17,0,0.25-0.17,0.25-0.5v-1c0-0.25-0.08-0.38-0.25-0.38h-7.85v-2.12h6.08c0.17,0,0.25-0.17,0.25-0.5v-1
				c0-0.25-0.08-0.38-0.25-0.38h-6.08v-2.25h7.85c0.17,0,0.25-0.17,0.25-0.5v-1c0-0.25-0.08-0.38-0.25-0.38h-4.69
				c0.44-0.62,0.89-1.47,1.33-2.53c0.06-0.15,0.19-0.22,0.38-0.22c0.13-0.04,0.19-0.11,0.19-0.22c0-0.19-0.15-0.33-0.44-0.44
				l-1.71-0.69c-0.06,0-0.12,0.07-0.16,0.22c-0.17,0.58-0.42,1.16-0.76,1.72c-0.23,0.44-0.57,0.94-1.01,1.5
				c-0.06,0.06-0.1,0.11-0.1,0.16c0,0.02,0.08,0.07,0.25,0.16c0.23,0.1,0.49,0.22,0.76,0.34h-6.9c0.97-0.27,1.46-0.44,1.46-0.5
				c-0.23-0.6-0.51-1.19-0.82-1.75c-0.32-0.58-0.73-1.2-1.23-1.84h8.52h5.45c0.17,0,0.25-0.18,0.25-0.53V7.28
				c0-0.27-0.08-0.41-0.25-0.41h-8.36V4.66h6.21c0.17,0,0.25-0.18,0.25-0.53v-1c0-0.25-0.08-0.38-0.25-0.38h-6.21V1.5
				c0-0.4,0.11-0.6,0.32-0.62c0.21-0.04,0.32-0.21,0.32-0.5c0-0.25-0.8-0.38-2.41-0.38c-0.34,0-0.51,0.12-0.51,0.38v2.38h-5.95
				c-0.17,0-0.25,0.12-0.25,0.38v1c0,0.35,0.08,0.53,0.25,0.53h5.95v2.22h-8.23c-0.17,0-0.25,0.14-0.25,0.41v0.97
				C141.86,8.6,141.94,8.78,142.11,8.78z M161.75,25.5c-0.13,0-0.25,0.01-0.38,0.03c-0.89,0.23-2.16,0.43-3.83,0.59
				c-1.82,0.17-3.1,0.25-3.86,0.25h-8.64c-1.67,0-2.92-0.29-3.77-0.88c-0.65-0.58-1.19-1.28-1.61-2.09
				c-0.04-0.62-0.06-1.12-0.06-1.5v-7.03c0-0.25-0.21-0.38-0.63-0.38h-5.7c-0.25,0-0.38,0.17-0.38,0.5v1c0,0.35,0.13,0.53,0.38,0.53
				h3.96v5.38c0,0.58-0.17,0.96-0.51,1.12c-2.22,2.02-3.58,3.06-4.08,3.12l1.61,2.31c0.19,0.21,0.33,0.31,0.41,0.31
				c0.13,0,0.19-0.19,0.19-0.56c0.04-0.44,0.28-0.82,0.73-1.16c0.74-0.88,1.57-1.82,2.5-2.84c0.51,1.06,1.06,1.9,1.65,2.5
				c1.33,1.1,3.1,1.66,5.32,1.66h15.33c0.38,0,0.59-0.22,0.63-0.66c0.27-0.58,0.61-1.24,1.01-1.97
				C162,25.58,161.92,25.5,161.75,25.5z M138.44,11.62c0.02,0,0.35-0.45,0.98-1.34c0.11-0.15,0.16-0.23,0.16-0.25
				c-0.59-0.44-1.33-0.91-2.22-1.41c-0.74-0.44-1.69-0.89-2.85-1.34c-0.08,0-0.18,0.07-0.28,0.22c-0.65,0.81-0.98,1.27-0.98,1.38
				c0.57,0.19,1.29,0.5,2.15,0.94C136.48,10.35,137.49,10.96,138.44,11.62z M138.95,4.78c0.04,0,0.37-0.46,0.98-1.38
				c0.11-0.15,0.16-0.24,0.16-0.28c-0.57-0.42-1.26-0.89-2.06-1.41c-0.7-0.4-1.57-0.84-2.63-1.34c-0.08,0-0.17,0.08-0.25,0.25
				c-0.68,0.79-1.01,1.26-1.01,1.41c0.55,0.17,1.22,0.47,2.03,0.91C137.13,3.5,138.06,4.11,138.95,4.78z"/>
		</g>
	</g>
</g>
</svg>
