<?xml version="1.0" encoding="utf-8"?>
<!-- Generator: $$$/GeneralStr/196=Adobe Illustrator 27.6.0, SVG Export Plug-In . SVG Version: 6.00 Build 0)  -->
<svg version="1.1" id="圖層_1" xmlns="http://www.w3.org/2000/svg" xmlns:xlink="http://www.w3.org/1999/xlink" x="0px" y="0px"
	 viewBox="0 0 128 128" style="enable-background:new 0 0 128 128;" xml:space="preserve">
<style type="text/css">
	.st0{fill:#EA6134;}
</style>
<path class="st0" d="M78.8,1.2c1.7,1.8,1.7,3.7,0,5.5l-3,3.2l0,0L118,52.3l0,0l3.2-3l0,0c1.8-1.7,3.7-1.7,5.5,0
	c1.7,1.8,1.7,3.7,0,5.5l-6,6l0,0l-24,24l0,0l-6,6l0,0c-1.8,1.7-3.7,1.7-5.5,0c-1.7-1.8-1.7-3.7,0-5.5l3-3.2l0,0L46,39.8l0,0l-3.3,3
	l0,0c-1.8,1.7-3.7,1.7-5.5,0c-1.7-1.8-1.7-3.7,0-5.5l6-6l0,0l24-24l0,0l6-6l0,0C75.1-0.4,76.9-0.4,78.8,1.2L78.8,1.2z M51.8,34
	L94,76.2L51.8,34L94,76.2L112.3,58l0,0L70,15.8l0,0L51.8,34L51.8,34z M36,80L8,108L36,80L8,108l12,12l0,0l28-28l0,0L36,80L36,80z
	 M30.3,74.3c1.7-1.5,3.6-2.2,5.7-2.2l0,0l0,0c2.2,0,4.1,0.7,5.8,2.2l3,3.2l0,0L57.2,65l0,0l5.8,5.8l0,0L50.5,83.2l0,0l3.3,3l0,0
	c1.5,1.7,2.2,3.6,2.2,5.8c0,2.2-0.7,4.1-2.2,5.8l-28,28l0,0c-1.7,1.5-3.6,2.2-5.8,2.2s-4.1-0.7-5.8-2.2l-12-12l0,0
	C0.8,112.1,0,110.2,0,108c0-2.2,0.8-4.1,2.2-5.8L30.3,74.3L30.3,74.3z"/>
</svg>
