<?xml version="1.0" encoding="utf-8"?>
<!-- Generator: $$$/GeneralStr/196=Adobe Illustrator 27.6.0, SVG Export Plug-In . SVG Version: 6.00 Build 0)  -->
<svg version="1.1" id="圖層_1" xmlns="http://www.w3.org/2000/svg" xmlns:xlink="http://www.w3.org/1999/xlink" x="0px" y="0px"
	 viewBox="0 0 128 128" style="enable-background:new 0 0 128 128;" xml:space="preserve">
<style type="text/css">
	.st0{fill:#EA6134;}
</style>
<path class="st0" d="M76.8,25.6c0,3.1-0.9,5.7-2.8,8l0,0l0,0c-1.7,2.1-4,3.6-6.8,4.4v70.8l0,0h38.4l0,0c2,0.1,3.1,1.2,3.2,3.2
	c-0.1,2-1.2,3.1-3.2,3.2H64H22.4c-2-0.1-3.1-1.2-3.2-3.2c0.1-2,1.2-3.1,3.2-3.2h38.4l0,0V38l0,0c-2.8-0.8-5.1-2.3-6.8-4.4
	c-1.9-2.3-2.8-4.9-2.8-8H22.4l0,0c-2-0.1-3.1-1.2-3.2-3.2c0.1-2,1.2-3.1,3.2-3.2H53l0,0c2.4-4,6.1-6.1,11-6.4
	c4.9,0.3,8.6,2.4,11,6.4h27.4l0,0c2,0.1,3.1,1.2,3.2,3.2c-0.1,2-1.2,3.1-3.2,3.2H76.8L76.8,25.6z M88.2,85.2
	c3.5,2.8,8.2,4.3,14.2,4.4c6-0.1,10.7-1.6,14.2-4.4c3.3-2.7,5-5.5,5-8.4H83.2l0,0v-0.4l0,0v0.2l0,0v0.2l0,0
	C83.2,79.7,84.9,82.5,88.2,85.2L88.2,85.2z M102.4,42.2L85.2,70.4L102.4,42.2L85.2,70.4h34.4l0,0L102.4,42.2L102.4,42.2z M76.8,76.8
	v-0.4V76.8v-0.4c0-2.9,0.8-5.7,2.4-8.2L97.6,38l0,0c1.1-1.9,2.7-2.8,4.8-2.8c2.1,0,3.7,0.9,4.8,2.8l18.4,30.2l0,0
	c1.6,2.5,2.4,5.3,2.4,8.2v0.4l0,0c-0.1,5.5-2.6,10-7.4,13.6c-4.9,3.6-11,5.5-18.2,5.6c-7.2-0.1-13.3-2-18.2-5.6
	C79.4,86.8,76.9,82.3,76.8,76.8L76.8,76.8z M6.4,76.8c0,2.9,1.7,5.7,5,8.4c3.5,2.8,8.2,4.3,14.2,4.4c6-0.1,10.7-1.6,14.2-4.4
	c3.3-2.7,5-5.5,5-8.4H6.4L6.4,76.8v-0.4l0,0v0.2l0,0V76.8L6.4,76.8z M8.4,70.4h34.4H8.4h34.4L25.6,42.2l0,0L8.4,70.4L8.4,70.4z
	 M25.6,96c-7.2-0.1-13.3-2-18.2-5.6l0,0l0,0C2.6,86.8,0.1,82.3,0,76.8v-0.4l0,0c0-2.9,0.8-5.7,2.4-8.2L20.8,38l0,0
	c1.1-1.9,2.7-2.8,4.8-2.8s3.7,0.9,4.8,2.8l18.4,30.2l0,0c1.6,2.5,2.4,5.3,2.4,8.2v0.4l0,0c-0.1,5.5-2.6,10-7.4,13.6
	C38.9,94,32.8,95.9,25.6,96L25.6,96z M64,32c1.9,0,3.4-0.6,4.6-1.8l0,0l0,0c1.2-1.2,1.8-2.7,1.8-4.6c0-1.9-0.6-3.4-1.8-4.6
	s-2.7-1.8-4.6-1.8s-3.4,0.6-4.6,1.8s-1.8,2.7-1.8,4.6c0,1.9,0.6,3.4,1.8,4.6C60.6,31.4,62.1,32,64,32L64,32z"/>
</svg>
