<?xml version="1.0" encoding="utf-8"?>
<!-- Generator: Adobe Illustrator 23.0.1, SVG Export Plug-In . SVG Version: 6.00 Build 0)  -->
<svg version="1.1" id="logo" xmlns="http://www.w3.org/2000/svg" xmlns:xlink="http://www.w3.org/1999/xlink" x="0px" y="0px"
	 viewBox="0 0 774 86" style="enable-background:new 0 0 774 86;" xml:space="preserve">
<style type="text/css">
	.st0{fill:#FFF9FC;}
	.st1{fill:#FFFFFF;}
</style>
<g>
	<path class="st0" d="M664.2,38.1c-0.9,5.8-2.2,10.5-4.4,14.3c1.8,3.1,4.1,5.5,6.9,7.1c-0.6,0.5-1.5,1.5-1.9,2.3
		c-2.7-1.6-4.9-3.9-6.7-6.8c-2.1,2.8-4.9,5.1-8.4,7c-0.3-0.6-1.1-1.8-1.6-2.4c3.7-1.8,6.5-4.1,8.6-7.2c-1.4-2.9-2.4-6.3-3.3-10
		c-0.7,1.6-1.5,3-2.4,4.2c-0.4-0.4-1.3-1.2-1.9-1.7c-1.5,1.7-3.5,3.5-5.4,4.8V51c2.3-0.3,4.7-0.6,7.1-0.9l0,2.3
		c-2.4,0.3-4.8,0.6-7.1,1v5.5c0,1.4-0.3,2-1.3,2.4c-1,0.4-2.5,0.4-4.8,0.4c-0.1-0.7-0.5-1.6-0.9-2.3c1.8,0.1,3.3,0,3.8,0
		c0.5,0,0.6-0.1,0.6-0.5v-5.1c-2.7,0.4-5.1,0.7-7.2,1l-0.3-2.4c2.1-0.3,4.6-0.6,7.5-0.9v-2.5c1.4-0.8,2.9-2.1,4.1-3.2h-5.6
		c-1.4,1.1-2.8,2.1-4.4,3c-0.4-0.5-1.4-1.5-1.9-2.1c2.9-1.5,5.6-3.4,7.8-5.7h-7.6v-2.4h6.2V35h-4.7v-2.3h4.7v-3.8h2.5v3.8h3.7v2.2
		c1-1.6,1.8-3.3,2.6-5.1l2.5,0.7c-1.2,3-2.7,5.6-4.5,8.1h4.4v2.4h-6.3c-0.8,0.9-1.7,1.8-2.6,2.6h5.3l0.5-0.1l1.3,0.9
		c2.7-3.7,4.6-9.5,5.6-15.4l2.7,0.4c-0.4,2.2-0.9,4.2-1.4,6.2h10.5v2.5H664.2z M642.3,38.5h1.1c0.9-1.1,1.8-2.3,2.6-3.6h-3.6V38.5z
		 M658.3,49.4c1.5-3.2,2.4-6.9,3.1-11.4h-6.3C655.8,42.2,656.9,46.1,658.3,49.4z"/>
	<path class="st0" d="M673.4,47.5h8.7v10.8h-8.7v2.4H671V34.3h3c0.6-1.7,1.2-3.8,1.5-5.4l2.9,0.4c-0.6,1.6-1.3,3.5-2,5h5.3v9.9h-8.3
		V47.5z M673.4,36.6v5.3h5.9v-5.3H673.4z M673.4,49.8V56h6.3v-6.2H673.4z M693.9,33.2v4.4h7.3v15.9c0,1.2-0.2,1.9-1,2.3
		c-0.8,0.4-2.1,0.4-4,0.4c-0.1-0.7-0.4-1.7-0.7-2.3c1.3,0,2.4,0,2.8,0c0.4,0,0.5-0.1,0.5-0.5V40.1h-4.8v21.6h-2.5V40.1H687v16.3
		h-2.4V37.6h6.9v-4.4h-8.2v-2.4h19.1v2.4H693.9z"/>
	<path class="st0" d="M718.8,37.2h-12.9V35h12.9V37.2z M707.2,39.7h10.1v2.1h-10.1V39.7z M707.2,44.4h10.1v2.1h-10.1V44.4z
		 M717.3,59.6h-7.9v1.7h-2.2V49.2h10.1V59.6z M709.4,51.4v5.9h5.7v-5.9H709.4z M712.1,34.6c-0.5-1.3-1.6-3.3-2.5-4.8l1.9-1.1
		c1,1.5,2.1,3.4,2.6,4.6L712.1,34.6z M738.6,48.9h-8.5v12.9h-2.6V48.9h-8.8v-2.5h8.8V33.4h-7.4v-2.5h17.7v2.5h-7.7v12.9h8.5V48.9z
		 M723.1,35.4c0.9,2.8,1.8,6.4,2,8.8l-2.3,0.6c-0.2-2.4-0.9-6-1.9-8.9L723.1,35.4z M732.3,44.1c0.8-2.4,1.9-6.3,2.3-9l2.6,0.6
		c-0.9,3-1.9,6.7-2.8,9L732.3,44.1z"/>
	<path class="st0" d="M772.9,57.8h1.5v2.3h-20.8v-1.9c-4,0.9-8.2,1.7-11.4,2.4l-0.6-2.4c1.5-0.3,3.5-0.6,5.5-1V46.2H742v-2.3h5.1
		v-3.7h-3.5v-1.2c-0.5,0.5-0.9,0.9-1.4,1.3c-0.1-0.5-0.6-2-0.9-2.6c2.7-2.2,5.5-5.4,7.1-8.9l2.1,0.7c-0.2,0.5-0.5,1.1-0.8,1.5
		c2,1.5,4.1,3.1,5.4,4.4V30h9.8v2.1h-3.2v2.8h2.9v6.7h-2.9v2.8h3.6v2.1h-10.2V35.7l-1.4,1.9c-1.3-1.2-3.3-3-5.2-4.5
		c-1.1,1.7-2.4,3.3-3.7,4.7h8.4v2.3h-3.7v3.7h4.4v2.3h-4.4v10.6c1.6-0.3,3.2-0.6,4.9-1l0.2,2h1.4v-8.7h17.1V57.8z M744.5,48.1
		c0.5,2.1,1.1,4.9,1.3,6.7l-1.9,0.4c-0.1-1.8-0.7-4.6-1.2-6.8L744.5,48.1z M750.4,54.2c0.5-1.7,1.2-4.6,1.4-6.4l2,0.5
		c-0.5,2.2-1.1,4.8-1.7,6.5L750.4,54.2z M757.1,32.1v2.8h2.6v-2.8H757.1z M762.7,36.7h-5.6v3h5.6V36.7z M759.8,41.5h-2.6v2.8h2.6
		V41.5z M758.1,57.8h2.9v-6.5h-2.9V57.8z M762.8,51.3v6.5h3v-6.5H762.8z M774.5,34.2v2.4h-6c-0.5,1.6-1.1,3.1-1.7,4.3
		c-0.5-0.3-1.5-0.9-2.1-1.2c1.5-2.6,2.5-6.7,3-10.6l2.4,0.4c-0.3,1.6-0.6,3.2-1,4.7H774.5z M774.1,45.1h-8v-2.3h8V45.1z M767.6,51.3
		v6.5h3v-6.5H767.6z"/>
</g>
<rect id="di" x="597" class="st1" width="2" height="83"/>
<g id="nfu_1_">
	<g>
		<g>
			<g>
				<path class="st1" d="M515.4,30c4,0.4,8.5-1.6,9.2-5.5c-2.5-0.2-1.4,3.3-4.1,2.9c-2.5-5-1.7-13.2-4.1-18.2
					c5.7-4.3,4.9,5.8,7.6,8.2c2.1-3.7-1.3-10.5,1.2-12.9c2.4-0.2,2.3,2,3.5,2.9c2.4-0.1,1.4-3.7,3.5-4.1c2.2,0.2,3.9,0.8,3.5,3.5
					c-1.4,1.8-4.2,2.1-4.1,5.3c0.6,1.7,2.5-0.2,3.5,0c0.4,1.8,0.9,3.4,2.9,3.5c3.3-2.6-2.1-4.6-2.9-5.3c0.1-3.6,3-1.1,4.7-2.4
					c0.5-2-0.9-2.3-0.6-4.1c2.1-2,5.2-0.7,6.5,1.2c0.4,7.6-3.6,15.9-1.8,21.2c5.6,0.8,13.8-0.8,16.5,2.9c-0.1,4.9-5.8,5.4-9.4,3.5
					c-0.4-1.8,1-1.7,0.6-3.5c-15.1-0.6-38.1,0.7-45.9,9.4c-2-4.1,6-10.6,8.2-9.4C514.5,29.4,514.8,30,515.4,30z M528.1,17.5
					c0.8,0.2,1.1,0.8,2.4,0.6c0-0.6,0-1.2,0-1.8C529.1,16.1,528.2,16.4,528.1,17.5z M528.1,26.9c0,0,2.1,0,2.3-0.1
					c0.8-0.2,1.2-0.5,1.6-1.2c1.1-1.9,2.5-4.8,1.4-7C530.7,20.5,529.2,23.5,528.1,26.9z M537.5,25.7c1.4-1.3,1.6-3.8,2.3-5.9
					c-0.8-0.2-1.1-0.8-2.3-0.6C536.9,20.8,534,25.5,537.5,25.7z"/>
				<path class="st1" d="M422.9,3.9c1.2,0.4,0.6,13.2,1.5,13.2c3.8,0.1,6.9-3.4,9-0.2c-0.2,2.1-1.7,3.3-3.5,4.1
					c-1.5,0.6-4.4,1-5.3,2.5c-0.6,1-0.7,2.4-0.9,3.5c-0.4,1.7-0.9,3.5-0.9,5.2c1.9,0,3.6-1.4,5.5-1.3c1.9,0,4.7,0.6,6,4.3
					c1.2,3.7-6,6.1-6.7,10c3.7,4.4,25.6,5.7,21.6,8.6c-7.5,6-19.1-0.5-23.9-2.1c-6.7-0.4-10.6,9.1-15.9,6.4
					c-0.7-0.6-0.5-1.4,0.1-2.2c1.1-1.5,3.5-3,4.5-3.9c1.3-1,3.8-2.1,4.6-3.6c1-1.7-3.9-5.2-6.5-8.2c-1.4-1.6-0.6-4.1-1.4-3.8
					c-1.5,0.5-3.4,1.6-3.8,3c-0.5,1.4-0.7,3.1-0.6,4.6c0.2,3.6,1,7.2,0.6,10.8c-0.1,0.7-0.8,4.8-2.1,4.6c-1.3-0.2-8.3-9.2-6.3-10.8
					c0.6-0.6,2.4-1,3-1.7c0,0-0.2-1.3-0.4-2.6c-0.5,0.3-5.3,4.3-7,3.8c-1.3-0.4-2.7-1.1-3.4-2.1c-1.8-2.8,2.6-4.1,5.3-5.8
					c2.7-1.6,4.6-4.5,4.6-4.5s0.4-7.2-0.2-8.8c-0.5-1.4-9.5,1.7-11.5-1c0.1-1.6-0.6-2.4,0.4-3.1c2.8-2.2,9.6-1.9,10.8-5.7
					c0.4-1.4,0-3.4,0.2-4.8c0.1-1.5,0.1-4.4,0.7-4.8c0.9-0.6,1.6-0.6,2.6-0.5c1.4,0.2,1.1,2.4,1.3,3.7c0.2,1.3,0.3,2.6,0.5,4
					c0.2,1.5,0.2,2.6,1.1,3.4c0.6,0.6,2.9,0,3.6,0.3c1.1,0.4,0.8,1.4,0.8,2.5c0,1.8-4.7,2.3-4.4,4.6c0.1,1.1-0.5,2.7-0.4,4
					c3.3,1.7,5.2-2.5,7.6-3.5c0-0.9-0.6-2.8-0.1-3.6c0.4-0.6,2-1.2,2.5-1.6c0.5-0.4,1.2-1.1,1.5-1.7c0.6-1.2,0.5-1.8,0.7-3.2
					c0.3-2.3,0.3-4.6,0.7-6.9c0.3-1.5,0-4.1,1.3-5C420.4,3.5,422.7,3.8,422.9,3.9z M412.2,34.5c3.7,0.1,4.2-2.9,4.7-5.9
					C413.9,29.1,412.6,31.4,412.2,34.5z M421.2,42.1c3.3,0.5,3.7-1.6,3.3-4.6C419,36.5,419.3,40.1,421.2,42.1z"/>
				<path class="st1" d="M140.6,57.1c-2.6-0.8-4.3-5.6-7.1-5.1c-5.6,1.9-12.1,2.5-15.7,0.2c-5.1-3.3-6.9-7.6-7.8-11.7
					c-1.4-7.2-1.4-11.9-1.1-20.8c0.1-3.4,3.6-10.5,8.1-10.7c2.3,5.1-3.7,6-3.5,11.4c0.3,8.8-0.6,24.9,7.3,28.1
					c2.8,1.1,3.7-0.1,5.6-1c4.9-2.9,9.1-6.2,8.8-10.9c-4.5-0.1-9.8,11.6-13.6,8.6c-3.7-3.6-7.7-7.7,0.8-12.7c-0.3-2.7-5,0.2-5.3-2.4
					c-0.5-3.5,4.5-5.2,4.9-7.8c0.8-3.3-4.3-0.9-4.3-3.4c2.7-1.6,7.2-3.1,7.5-8.2c0.2-3-6.9,0.1-7.4-2.1c4.8-4.7,13.2-7.8,19.3-6.1
					c6.1,1.6,14.9,8.2,15.5,15.8c0.5,6.2,0.5,12.4,0.2,18.8c-0.2,4-0.5,6.3-1.2,8.7C151,48,145.1,57.5,140.6,57.1z M147.7,16
					c-0.5-7.2-6.6-11.6-14.2-10.6c-1.9,0.2-3.6,1.3-4.7,3.5c-0.3,0.6,1.3,1.8,1.6,2c0.8,0.5,1.8,0.7,2.6,1.1c0.7,0.3,1.9,1,2,1.9
					c0.2,1.2-0.9,1.2-1.7,1.6c-8.4,4.2,0.5,12.4,4.9,15.7c1.5-1-0.5-5.6,2.4-5.3c5.4,1.2-3.8,15.9,4.8,16.9
					C147.6,42.8,148.3,24.4,147.7,16z M126.7,34.3c1.4,0,3.6,0.6,4.5-0.6c1-1.2,2-4.6-0.5-3.8c-0.9,0.3-2.3,0.8-2.7,1.6
					C128,31.8,126.7,34.3,126.7,34.3z M131.6,45.8c4.2,3,7.1,6.5,11.4,0.7C137.9,40.6,139,39.9,131.6,45.8z"/>
				<path class="st1" d="M366.2,4.6c0.7,0.2,1.2,0.7,1.4,1.4c0.4,1.3,0.4,2.8,0.4,4.1c0.1,3.8-0.2,7.5,0.1,11.3
					c0.1,0.9,0.2,1.9,0.4,2.8c0.1,0.3,0.4,2,0.7,2.1c3.1,1,4.1-2.1,5.9-0.6c0.3,5.6-4.5,6.1-5.9,10c-0.8,8.6,1.3,17.4,0,24.7
					c-5,0.4-3.2-5.7-3.5-9.4c-0.4-5.7-1-12.1-3.5-15.3c-4.5,0-9.4,4.9-12.3,1.2c-0.4-3.1,3.8-6.3,4.7-10c-0.5-2.5-2.8-4.2-1.2-7.1
					c0.7,3.6,4.3,4.3,7.6,5.3c-1.2,3.5-7.2,2.2-6.5,7.6c2.3,0.9,5.4-0.4,7.1-1.9c2.4-2.1,1.1-6.4,1.1-9.2c0-1.3,0.5-3.8-0.8-4.6
					c-1.7-1-5.6,0.3-6.8,1.6c-0.7-1.9-2.8-2-2.3-5.4c1.1-2,4.5-0.8,7.2,0.2c0.5,0.2,1.2-1.7,1.3-2c0.4-0.7,0.5-1.5,0.7-2.3
					c0.3-1.5,0.5-3.3,1.9-4.2C364.5,4.4,365.4,4.4,366.2,4.6z"/>
				<path class="st1" d="M476.9,5.7c2,1.1-0.9,8.8,0.7,12c2.6,2.5,8.6-0.1,9.8,2.6c0.5,7.5-9.7,4.5-11.1,9
					c-1.3,4.1,3.7,8.8,5.9,10.6c6.9,5.4,28,6,24.7,10.6c-2.5,4.3-10,3.2-14.7,2.4c-6.8-1.3-13.4-7.6-18.2-9.4
					c-8.2,0.8-14.2,14.4-21.8,8.2c-3.7-2.8,17.6-11.3,16.8-19.2c-0.5-5.1-6.4-2.8-9.7-6.7c-2.4-3.6,7.8-2.8,10.6-5.3
					C472.2,15.9,468.9,0.8,476.9,5.7z"/>
				<path class="st1" d="M219.4,23.1c3.9-1.5,8.2-2.5,9.6-4.4c1.2-1.7,1.1-3.8,1-5.7c-0.2-2.3-0.6-4.6-0.8-7
					c-0.1-1.4-0.1-2.5,1.6-1.7c1.3,0.7,3,3.4,3.8,4c1.4,1,1.9,0.5,3.7,1c0.5,3.8-3.6,3-4.7,5.3c0,1.6-0.2,3.4,0.6,4.1
					c5.3-0.7,14-2.6,15.9,2.9c-0.4,2.6-4.3,1.5-5.3,3.5c-1.8,0-0.8-2.8-1.8-3.5c-1.6-0.1-3.3,0-4.7,0.7c-1.2,0.6-3.1,2.1-1.7,3.5
					c1.2,1.2,3.5,0.7,4.6,2.2c0.6,3.5-3.7,2.2-2.9,5.9c0.5,1.5,4.1-0.2,4.7,1.2c1.7,2.3-3,2.2-2.9,4.7c3.3,4.5-1.1,12,5,12.5
					c2.9,0.3,4.2,0.1,6.3-0.2c1.1-0.2,1.7-0.4,2.2-0.9c2.8-2.6,0.1-7.6,2-7c2.4,0.7,3.3,4.5,2.9,6.8c-0.6,3.7-2.8,5.4-6.7,5.8
					c-3.1,0.4-5.9,0.4-9-0.3c-1.4-0.3-3.3-0.9-4.2-2c-1.3-1.6-0.9-4.5-0.8-6.5c0-0.5,0.3-6.6,0-6.6c-7.7,1.1-2.3,17.9-12,16.9
					c-1.6,0.1,2.5-3.8,3-7.5c0.9-5,0.8-11.1,4.9-13.5c-0.5-2.5-2.7-3.1-5.3-3.5c-4.5,15-12.1,22.4-13,20.6c-0.5-0.4-0.7-1.6-0.5-2.3
					c0.3-1.1,0.6-1.4,1.4-2.1c7.2-7,7.3-10.2,7.4-13.3c0-0.8-0.4-8.3,0.2-8.4c2.3-0.2,2.8,2.6,5.1,2.4c2.6-0.1,3.9-4,2.4-6.5
					c-0.5-0.7-2.8,0.3-3.2,0.5c-1.4,0.5-2.6,1.1-4,1.5c-2,0.5-4.2,0.9-6.2,0.7c-0.9-0.1-2.6-0.3-3.2-1c-0.8-0.9,0.5-1.4,1.2-1.8
					C215.6,24.3,217.6,23.8,219.4,23.1z"/>
				<path class="st1" d="M304.5,6.7c3.9,1.9-0.9,5.1-1.8,7.3c-0.9,2.1,4,4.2,2.7,5.9c-0.7,0.9-2.8,1-3.8,1.4
					c-2.1,0.7-4.1,1.4-6.1,2.3c-2.7,1.1-5.2,2.5-7.3,4.7c-1.6,1.6-2.9,3.5-4.3,5.3c-1.4,1.8-2.6,3.7-3.8,5.6
					c-0.9,1.5-1.9,3.1-2.9,4.6c-0.5,0.8-0.2,2.6-1,3.1c-1,0.6-4.3-0.9-5.2-1.5c-1.2-0.7-0.9-1.6-0.1-2.4c5.5-6.1,6.1-6.3,13.9-17.8
					c2.1-3.1,4.1-6,7.5-7.6c2.5-1.2,7.8-3.6,6.2-5.5c-1.1-0.9-2.3-0.8-3.4-0.6c-1.5,0.9-5.5,2.3-5.1,0
					C290.9,9.5,297.3,4.9,304.5,6.7z"/>
				<path class="st1" d="M348,10.5c-0.8,1.4-5,2.2-6.5,2.9c-0.5,0.2,3.2,4.5,3.6,4.8c0.8,0.7,1.6,1.2,2.5,1.7c0.6,0.4,1.9,0.7,2,1.5
					c0.1,1.8-1.7,4.5-2.7,5.8c-0.5,0.6-1.5,1.3-1.8,2c-0.5,0.9-0.4,5.3,0.1,8.4c0.5,2.7-0.2,5.6-0.2,8.4c0,0.8,0,1.8-1,2
					c-0.9,0.2-1.8-0.5-2.4-1.1c-1.2-1.4-1.5-2.5-1.9-4.5c-0.2-1.2-0.4-2.3-1.4-3.1c-0.4-0.3-1.5,1.3-3.2,1c-1.2-0.6-1.3-1.8-1.6-3
					c-0.3-1.3,0.2-2.3,1.1-3.2c0.4-0.4,2-1.7,1.5-2.5c-1.5-2.6-7.6,1.3-8.8-2.4c1.5-6.7,12.1-4.4,11.8-12.9c-0.1-1.5-1.7-2-2.8-2.7
					c-1-0.6-2.6-2.8-1.1-3.8c0.8-0.6,2.4-0.7,3.4-1.1c1-0.3,2.1-0.7,3.1-1.1c1.5-0.5,3.9-1.5,5.2-0.2C347.4,7.9,348.3,9.9,348,10.5z
					"/>
				<path class="st1" d="M303.6,23.3c0.5,0.7,0.5,0.4,1.4,1.8c0.2,3.5-4.1,1.4-4.9,4c0.4,1.2,1.4,2.7,1.7,3.1c0.1,0.2,1.2,0,1.8,0.1
					c1.2,0.1,0.9,1,1.1,2.1c-0.1,2-2.3,2.4-2.6,4.2c1.9,1.2,6.3,0,7.1,2.4c-0.3,4.4-6.9,2.5-8.2,5.9c-0.3,2.7,1.2,5.5,3.8,5.8
					c3.1,0.3,4.1,0.3,8.3,0.1c3-0.1,3.3-1.9,3.9-4c0.3-0.9,0.9-4.2,2.3-2.7c1.7,1.7,2.2,4.6,1.8,6.9c-0.4,2.9-2.9,4.1-5.6,4.5
					c-1.1,0.2-2.3,0.3-3.5,0.4c-2.2,0.1-4.5-0.1-6.7-0.5c-3.4-0.6-6.7-1.9-8.9-4.7c-1.3-1.6-2.2-3.8-2.7-5.8
					c-1.8-0.2-4.6,0.7-4.7-1.2c1-3.1,6.1-2.1,7.1-5.3c0.3-1.4-0.4-2.9-0.4-2.9s-2.5,0.3-3.1-0.3c0-0.6-0.3-1.6-0.3-1.6
					s4-1.6,4.4-3.4c0.2-1,0.1-2.1-0.7-2.5c-0.6-0.3-1.6,0.8-1.8,0.2c-0.2-0.4-0.8-1.3-0.6-1.5c0.3-0.4,1.3-0.8,2-1.1
					c1.1-0.5,2.1-0.9,3.1-1.4C300.1,25.1,303.1,22.6,303.6,23.3z"/>
				<path class="st1" d="M138.4,13.6c1.5-0.2,4.1,1.5,5.1,2.5c2.7,2.9-1.1,5.6-3.6,6.1c-1.9,0.3-5.3,0.1-5-2.6
					C135.1,17.7,139.4,15.4,138.4,13.6z"/>
				<path class="st1" d="M540.2,34.7c0.2,3.1-4.6,1.4-3.9,6.9c0,3,10.2,0.1,10.3,3.4c0.2,2.9-5.3,2.2-6.9,3.4
					c-4.5,3.7-1.5,16.5-6.9,13.9c-2.5-1.2-13.3-12.8-10.6-14.2c0.2-0.1,2.8-1.2,3.2-1.4c1.8-0.8,4.6-1.8,6.5-2.5
					c1.8-1,0.4-4,0.5-5.8c-1-1.8-6.7,1.3-6.7-0.8C527.4,33.7,537.7,31.7,540.2,34.7z M524.5,50.7c0.9,3.1,5.6,5.7,7.1,3.9
					c0.6-0.8,0.5-1.6,1.2-2.9C533.6,48.8,527,49.4,524.5,50.7z"/>
				<path class="st1" d="M171.8,4.5c6.8-4.3,14.6,4.5,9.4,10.6c-5.5-0.6-8.4,1.4-10,4.7c4.1,3.5,12.5-6.7,16.5,0
					c-2.2,6.9-19.7,6.9-12.3,17.6c4.5-1.4,6.8-4.9,10.6-7.1c5.6,1.9,2.4,7.9,1.8,12.9c4.2,1.3,13.1-1.7,13.5,2.9
					c0.6,3.6-3.7,5.5-4.7,5.9c-2.2,1-28.1-0.8-20.6,0c7.6,0.9-9.8,4.6-10.5-1.2c-0.7-5.1,7.1-4.1,11.2-5.9c4.5-2,6.3-5,7.1-9.4
					c-5.4-1.6-5.4,8.4-10,8.2c-6.8-0.3-2.1-10.4-1.2-15.9c-0.9-2.4-5.7-1-6.5-3.5C170.1,19.1,178.3,12.4,171.8,4.5z"/>
			</g>
		</g>
	</g>
	<g>
		<g>
			<path class="st1" d="M115.8,84.8V73.4h2.9l11.1,9v-9h2.7v11.5h-2.9l-11.1-9v9L115.8,84.8L115.8,84.8z"/>
			<path class="st1" d="M135.5,84.8l6.6-9.3h2.4l7,9.3H149l-2-2.8h-7.2l-1.9,2.8H135.5z M140.5,81h5.8l-1.8-2.6
				c-0.5-0.8-1-1.4-1.2-1.9c-0.2,0.6-0.5,1.2-0.9,1.8L140.5,81z"/>
			<path class="st1" d="M156.5,84.8v-8.2h-5.6v-1.1h13.6v1.1h-5.7v8.2H156.5z"/>
			<path class="st1" d="M167.8,84.8v-9.3h2.3v9.3H167.8z"/>
			<path class="st1" d="M173.9,80.3c0-1.5,0.8-2.8,2.3-3.6c1.5-0.9,3.5-1.3,5.9-1.3c1.6,0,3,0.2,4.3,0.6c1.3,0.4,2.2,1,2.9,1.7
				c0.7,0.7,1,1.6,1,2.5c0,0.9-0.4,1.8-1.1,2.5c-0.7,0.7-1.7,1.3-3,1.7c-1.3,0.4-2.7,0.6-4.2,0.6c-1.6,0-3.1-0.2-4.3-0.6
				c-1.3-0.4-2.2-1-2.9-1.7C174.3,81.9,173.9,81.1,173.9,80.3z M176.3,80.3c0,1.1,0.6,2,1.7,2.6c1.1,0.6,2.5,1,4.2,1
				c1.7,0,3.1-0.3,4.2-1c1.1-0.7,1.7-1.6,1.7-2.8c0-0.8-0.2-1.4-0.7-2c-0.5-0.6-1.2-1-2.1-1.3c-0.9-0.3-1.9-0.5-3.1-0.5
				c-1.6,0-3,0.3-4.1,0.9C176.9,77.9,176.3,78.9,176.3,80.3z"/>
			<path class="st1" d="M193.8,84.8v-9.3h2.3l9,7.3v-7.3h2.2v9.3H205l-9-7.3v7.3H193.8z"/>
			<path class="st1" d="M209.8,84.8l6.6-9.3h2.4l7,9.3h-2.6l-2-2.8h-7.2l-1.9,2.8H209.8z M214.7,81h5.8l-1.8-2.6
				c-0.5-0.8-0.9-1.4-1.2-1.9c-0.2,0.6-0.5,1.2-0.9,1.8L214.7,81z"/>
			<path class="st1" d="M228.1,84.8v-9.3h2.3v8.2h8.4v1.1H228.1z"/>
		</g>
		<g>
			<g>
				<path class="st1" d="M249.5,84.8V73.4h13.2v1.4h-10.6v3.6h9.2v1.4h-9.2v5.2H249.5z"/>
				<path class="st1" d="M265,80.3c0-1.5,0.7-2.8,2.1-3.6c1.4-0.9,3.2-1.3,5.5-1.3c1.5,0,2.8,0.2,3.9,0.6c1.2,0.4,2.1,1,2.7,1.7
					c0.6,0.7,0.9,1.6,0.9,2.5c0,0.9-0.3,1.8-1,2.5c-0.6,0.7-1.6,1.3-2.8,1.7S274,85,272.6,85c-1.5,0-2.8-0.2-4-0.6
					c-1.2-0.4-2.1-1-2.7-1.7C265.3,81.9,265,81.1,265,80.3z M267.2,80.3c0,1.1,0.5,2,1.5,2.6c1,0.6,2.3,1,3.9,1c1.6,0,2.9-0.3,3.9-1
					c1-0.7,1.5-1.6,1.5-2.8c0-0.8-0.2-1.4-0.7-2c-0.4-0.6-1.1-1-1.9-1.3c-0.8-0.3-1.8-0.5-2.8-0.5c-1.5,0-2.8,0.3-3.8,0.9
					C267.7,77.9,267.2,78.9,267.2,80.3z"/>
				<path class="st1" d="M282.9,84.8v-9.3h7c1.4,0,2.5,0.1,3.2,0.3c0.7,0.2,1.3,0.5,1.8,0.9c0.4,0.4,0.7,0.9,0.7,1.4
					c0,0.7-0.4,1.2-1.1,1.7c-0.7,0.5-1.9,0.7-3.4,0.9c0.6,0.2,1,0.3,1.3,0.5c0.6,0.3,1.2,0.7,1.7,1.2l2.7,2.5h-2.6l-2.1-1.9
					c-0.6-0.6-1.1-1-1.5-1.3c-0.4-0.3-0.8-0.5-1.1-0.6c-0.3-0.1-0.6-0.2-1-0.2c-0.2,0-0.6,0-1.2,0H285v4.1L282.9,84.8L282.9,84.8z
					 M285,79.6h4.5c1,0,1.7-0.1,2.2-0.2c0.5-0.1,0.9-0.3,1.2-0.6c0.3-0.3,0.4-0.5,0.4-0.8c0-0.4-0.3-0.8-0.8-1.1
					c-0.5-0.3-1.4-0.4-2.6-0.4h-5L285,79.6L285,79.6z"/>
				<path class="st1" d="M298.7,84.8v-9.3h3.1l3.7,6.6c0.3,0.6,0.6,1.1,0.8,1.4c0.2-0.3,0.5-0.8,0.8-1.5l3.8-6.5h2.8v9.3h-2v-7.8
					l-4.6,7.8h-1.9l-4.6-7.9v7.9C300.7,84.8,298.7,84.8,298.7,84.8z"/>
				<path class="st1" d="M316.6,80.3c0-1.5,0.7-2.8,2.1-3.6c1.4-0.9,3.2-1.3,5.5-1.3c1.5,0,2.8,0.2,3.9,0.6c1.2,0.4,2.1,1,2.7,1.7
					c0.6,0.7,0.9,1.6,0.9,2.5c0,0.9-0.3,1.8-1,2.5c-0.6,0.7-1.6,1.3-2.8,1.7s-2.5,0.6-3.8,0.6c-1.5,0-2.8-0.2-4-0.6
					c-1.2-0.4-2.1-1-2.7-1.7C316.9,81.9,316.6,81.1,316.6,80.3z M318.7,80.3c0,1.1,0.5,2,1.5,2.6c1,0.6,2.3,1,3.9,1
					c1.6,0,2.9-0.3,3.9-1c1-0.7,1.5-1.6,1.5-2.8c0-0.8-0.2-1.4-0.7-2c-0.4-0.6-1.1-1-1.9-1.3c-0.8-0.3-1.8-0.5-2.8-0.5
					c-1.5,0-2.8,0.3-3.8,0.9C319.2,77.9,318.7,78.9,318.7,80.3z"/>
				<path class="st1" d="M333.7,81.9l2-0.1c0.1,0.5,0.3,0.8,0.7,1.1c0.3,0.3,0.9,0.5,1.6,0.7c0.7,0.2,1.5,0.3,2.4,0.3
					c0.8,0,1.5-0.1,2.1-0.2c0.6-0.1,1.1-0.3,1.4-0.6c0.3-0.2,0.4-0.5,0.4-0.8c0-0.3-0.1-0.5-0.4-0.8c-0.3-0.2-0.8-0.4-1.4-0.6
					c-0.4-0.1-1.4-0.2-2.8-0.4c-1.5-0.2-2.5-0.4-3.1-0.6c-0.8-0.2-1.3-0.5-1.7-0.9c-0.4-0.3-0.6-0.7-0.6-1.2c0-0.5,0.2-0.9,0.7-1.3
					c0.5-0.4,1.1-0.7,2-0.9c0.9-0.2,1.8-0.3,2.9-0.3c1.2,0,2.2,0.1,3.1,0.3c0.9,0.2,1.6,0.6,2.1,1c0.5,0.4,0.7,0.9,0.8,1.5l-2,0.1
					c-0.1-0.6-0.5-1-1.1-1.3c-0.6-0.3-1.5-0.5-2.8-0.5c-1.3,0-2.2,0.1-2.8,0.4c-0.6,0.3-0.9,0.6-0.9,1c0,0.3,0.2,0.6,0.6,0.8
					c0.4,0.2,1.5,0.4,3.2,0.7c1.7,0.2,2.9,0.4,3.5,0.6c0.9,0.2,1.6,0.6,2,0.9s0.7,0.8,0.7,1.3c0,0.5-0.2,1-0.7,1.4
					c-0.5,0.4-1.2,0.8-2.1,1c-0.9,0.2-1.9,0.4-3,0.4c-1.4,0-2.6-0.1-3.6-0.4c-1-0.2-1.7-0.6-2.3-1.1C334,83,333.7,82.5,333.7,81.9z"
					/>
				<path class="st1" d="M347.4,84.8l6.1-9.3h2.3l6.5,9.3h-2.4l-1.8-2.8h-6.6l-1.7,2.8H347.4z M351.9,81h5.4l-1.7-2.6
					c-0.5-0.8-0.9-1.4-1.1-1.9c-0.2,0.6-0.5,1.2-0.9,1.8L351.9,81z"/>
			</g>
		</g>
		<g>
			<g>
				<path class="st1" d="M384.8,73h2.7v6.8c0,1.2-0.2,2.1-0.7,2.8s-1.3,1.3-2.5,1.7c-1.2,0.4-2.8,0.7-4.8,0.7
					c-1.9,0-3.5-0.2-4.8-0.6c-1.2-0.4-2.1-0.9-2.6-1.6c-0.5-0.7-0.8-1.7-0.8-2.9V73h2.7v6.8c0,1,0.2,1.8,0.5,2.3
					c0.3,0.5,0.9,0.9,1.7,1.1c0.8,0.3,1.8,0.4,3,0.4c2,0,3.4-0.3,4.3-0.8c0.9-0.5,1.3-1.5,1.3-3L384.8,73L384.8,73z"/>
				<path class="st1" d="M391.6,84.7v-9.3h2.2l8.6,7.3v-7.3h2.1v9.3h-2.2l-8.6-7.3v7.3C393.7,84.7,391.6,84.7,391.6,84.7z"/>
				<path class="st1" d="M408.5,84.7v-9.3h2.2v9.3C410.7,84.7,408.5,84.7,408.5,84.7z"/>
				<path class="st1" d="M419.2,84.7l-6.3-9.3h2.3l4.3,6.8c0.3,0.5,0.6,1,0.9,1.5c0.3-0.5,0.5-1,0.9-1.5l4.4-6.8h2.2l-6.4,9.3
					C421.4,84.7,419.2,84.7,419.2,84.7z"/>
				<path class="st1" d="M429.8,84.7v-9.3h11.8v1.1H432v2.8h9.1v1.1H432v3.2h10.1v1.1L429.8,84.7L429.8,84.7L429.8,84.7z"/>
				<path class="st1" d="M445.1,84.7v-9.3h7.3c1.5,0,2.6,0.1,3.3,0.3c0.8,0.2,1.4,0.5,1.8,0.9c0.5,0.4,0.7,0.9,0.7,1.4
					c0,0.7-0.4,1.2-1.1,1.7c-0.8,0.5-1.9,0.7-3.5,0.9c0.6,0.2,1,0.3,1.3,0.5c0.6,0.3,1.2,0.7,1.8,1.2l2.8,2.5h-2.7l-2.2-1.9
					c-0.6-0.6-1.2-1-1.6-1.3s-0.8-0.5-1.1-0.6c-0.3-0.1-0.7-0.2-1-0.2c-0.2,0-0.6,0-1.2,0h-2.5v4.1L445.1,84.7L445.1,84.7z
					 M447.2,79.5h4.7c1,0,1.8-0.1,2.3-0.2c0.6-0.1,1-0.3,1.3-0.6c0.3-0.3,0.4-0.5,0.4-0.8c0-0.4-0.3-0.8-0.8-1.1
					c-0.6-0.3-1.4-0.4-2.7-0.4h-5.2L447.2,79.5L447.2,79.5z"/>
				<path class="st1" d="M460.8,81.7l2-0.1c0.1,0.5,0.3,0.8,0.7,1.1c0.4,0.3,0.9,0.5,1.6,0.7c0.7,0.2,1.6,0.3,2.5,0.3
					c0.8,0,1.6-0.1,2.2-0.2c0.6-0.1,1.1-0.3,1.4-0.6s0.5-0.5,0.5-0.8c0-0.3-0.1-0.5-0.4-0.8c-0.3-0.2-0.8-0.4-1.5-0.5
					c-0.4-0.1-1.4-0.2-2.9-0.5c-1.5-0.2-2.6-0.4-3.2-0.6c-0.8-0.2-1.4-0.5-1.7-0.9c-0.4-0.3-0.6-0.7-0.6-1.2c0-0.5,0.2-0.9,0.7-1.3
					c0.5-0.4,1.2-0.7,2.1-0.9c0.9-0.2,1.9-0.3,3-0.3c1.2,0,2.3,0.1,3.2,0.3c0.9,0.2,1.6,0.5,2.1,1c0.5,0.4,0.8,0.9,0.8,1.5l-2.1,0.1
					c-0.1-0.6-0.5-1-1.1-1.3c-0.6-0.3-1.6-0.4-2.9-0.4c-1.3,0-2.3,0.1-2.9,0.4c-0.6,0.3-0.9,0.6-0.9,1c0,0.3,0.2,0.6,0.6,0.8
					c0.4,0.2,1.5,0.4,3.3,0.7c1.8,0.2,3,0.4,3.6,0.6c1,0.3,1.7,0.6,2.1,0.9c0.5,0.4,0.7,0.8,0.7,1.3c0,0.5-0.3,1-0.8,1.4
					c-0.5,0.4-1.2,0.8-2.1,1c-0.9,0.2-2,0.4-3.2,0.4c-1.5,0-2.7-0.1-3.7-0.4c-1-0.2-1.8-0.6-2.4-1.1
					C461.2,82.9,460.9,82.4,460.8,81.7z"/>
				<path class="st1" d="M477.2,84.7v-9.3h2.2v9.3C479.4,84.7,477.2,84.7,477.2,84.7z"/>
				<path class="st1" d="M487.3,84.7v-8.2h-5.4v-1.1h13v1.1h-5.4v8.2H487.3z"/>
				<path class="st1" d="M501.8,84.7v-3.9l-6.3-5.4h2.6l3.2,2.8c0.6,0.5,1.2,1.1,1.7,1.6c0.5-0.5,1.1-1,1.8-1.6l3.2-2.7h2.5
					l-6.5,5.4v3.9H501.8z"/>
			</g>
		</g>
	</g>
	<g>
		<polygon class="st1" points="18,62.6 0,34.9 12.2,11.2 26.7,11.2 14.6,34.7 25.5,50.8 54.1,50.8 65.4,34.2 54.1,11.2 68.1,11.2 
			79.5,34.9 61.6,62.6 		"/>
		<g>
			<g>
				<path class="st1" d="M52.4,32.4c0-6.7-5.4-12.1-12.1-12.1c-1.9,0-3.8,0.5-5.4,1.3l15.6,17.3C51.7,37,52.4,34.8,52.4,32.4z"/>
				<path class="st1" d="M28.5,32.2c0,6.7,5.4,12.1,12.1,12.1c1.9,0,3.8-0.5,5.4-1.3L30.4,25.7C29.2,27.5,28.5,29.8,28.5,32.2z"/>
			</g>
		</g>
	</g>
	<path class="st1" d="M355.8,17.9c0,0-3.5,2.8-1.4,4.4C354.4,22.4,350.7,20.2,355.8,17.9z"/>
</g>
</svg>
