<?xml version="1.0" encoding="utf-8"?>
<!-- Generator: $$$/GeneralStr/196=Adobe Illustrator 27.6.0, SVG Export Plug-In . SVG Version: 6.00 Build 0)  -->
<svg version="1.1" id="圖層_1" xmlns="http://www.w3.org/2000/svg" xmlns:xlink="http://www.w3.org/1999/xlink" x="0px" y="0px"
	 viewBox="0 0 448 480" style="enable-background:new 0 0 448 480;" xml:space="preserve">
<style type="text/css">
	.st0{fill:#393D3E;}
</style>
<g id="外框_4_1">
	<g>
		<path class="st0" d="M288,0v64l0,0v178c0,45.2-64,70-64,70s-64-24.8-64-70V96H96v148c0,90.4,128,136,128,136s128-45.6,128-136V64
			h32v187c0,114.4-160,165-160,165S64,366.4,64,252V64h128v175c0,22.6,32,37,32,37s32-14.4,32-37V64V0H0v256c0,160,224,224,224,224
			s224-64,224-224V0H288z"/>
	</g>
</g>
</svg>
