<?xml version="1.0" encoding="utf-8"?>
<!-- Generator: $$$/GeneralStr/196=Adobe Illustrator 27.6.0, SVG Export Plug-In . SVG Version: 6.00 Build 0)  -->
<svg version="1.1" id="圖層_1" xmlns="http://www.w3.org/2000/svg" xmlns:xlink="http://www.w3.org/1999/xlink" x="0px" y="0px"
	 viewBox="0 0 272 80" style="enable-background:new 0 0 272 80;" xml:space="preserve">
<style type="text/css">
	.st0{fill:#58B2DC;}
</style>
<g>
	<path class="st0" d="M0,0v80h272V0H0z M81.2,52c0,0.5-1.1,0.8-3.4,0.8c-2.3,0-3.5-0.2-3.7-0.5l-6-11.2v11.1c0,0.4-1.1,0.6-3.3,0.6
		c-2.2,0-3.3-0.2-3.3-0.6V28.1c0-0.4,0.9-0.5,2.8-0.5c0.7,0,1.6,0.1,2.6,0.2c1.1,0.1,1.7,0.4,1.9,0.7l5.8,11.1V28.3
		c0-0.5,1.1-0.7,3.3-0.7c2.2,0,3.3,0.2,3.3,0.7V52z M100.7,32.5c-0.1,1.1-0.4,1.7-0.8,1.7h-4.2v18.1c0,0.5-1.2,0.7-3.6,0.7
		c-2.4,0-3.6-0.2-3.6-0.7V34.2h-4.3c-0.4,0-0.7-0.6-0.9-1.7c-0.1-0.5-0.1-1.1-0.1-1.6c0-0.6,0-1.1,0.1-1.6c0.2-1.1,0.5-1.7,0.9-1.7
		h15.7c0.4,0,0.7,0.6,0.9,1.7c0.1,0.5,0.1,1.1,0.1,1.6C100.9,31.5,100.8,32,100.7,32.5z M122.5,44.9c0,2.4-0.9,4.4-2.6,6
		c-1.7,1.6-4.2,2.3-7.3,2.3c-3.1,0-5.6-0.8-7.5-2.4c-1.9-1.6-2.9-3.8-2.9-6.5V28.4c0-0.5,1.3-0.7,3.9-0.7c2.6,0,3.9,0.2,3.9,0.7
		v16.2c0,0.5,0.3,0.9,0.8,1.2c0.5,0.3,1.1,0.4,1.7,0.4c0.6,0,1.1-0.1,1.6-0.4s0.7-0.7,0.7-1.2V28.4c0-0.5,1.3-0.7,3.9-0.7
		s3.9,0.2,3.9,0.7L122.5,44.9L122.5,44.9z M147.5,52.4c-1.4,0.6-3.1,0.8-5.1,0.8c-3.2,0-5.8-1.1-7.8-3.3c-2-2.2-3.1-5.4-3.1-9.5
		s1-7.3,3.2-9.6c2.1-2.3,4.7-3.5,7.9-3.5c1.8,0,3.3,0.2,4.6,0.7s2,1.2,2,2c0,0.8-0.3,1.9-1,3.1c-0.6,1.2-1.2,1.9-1.6,1.9
		c-0.1,0-0.3-0.1-0.4-0.2c-0.2-0.1-0.5-0.3-1.1-0.4c-0.5-0.2-1-0.2-1.4-0.2c-1.4,0-2.5,0.5-3.4,1.5c-0.9,1-1.3,2.5-1.3,4.5
		s0.4,3.5,1.3,4.5c0.9,1,2,1.5,3.3,1.5c0.6,0,1.2-0.1,1.9-0.2c0.7-0.2,1.2-0.4,1.5-0.7c0,0,0.1-0.1,0.3-0.1c0.1,0,0.4,0.3,0.8,0.8
		c0.4,0.5,0.8,1.2,1.1,2.1c0.3,0.9,0.5,1.6,0.5,2C149.7,51.1,149,51.8,147.5,52.4z M172,52.8c-1.1,0.1-2,0.1-2.6,0.1
		c-2.1,0-3.2-0.3-3.4-1l-1.2-4.6h-5.7l-1,4.5c-0.1,0.7-1.3,1.1-3.5,1.1c-1.2,0-2-0.1-2.6-0.2c-0.6-0.1-0.8-0.2-0.8-0.3l6.4-24.4
		c0-0.2,1.6-0.3,4.9-0.3s4.9,0.1,4.9,0.3l6.2,24.4C173.7,52.5,173.1,52.7,172,52.8z M191.3,52.4c-1.4,0.6-3.1,0.8-5.1,0.8
		c-3.2,0-5.8-1.1-7.8-3.3c-2-2.2-3.1-5.4-3.1-9.5s1-7.3,3.2-9.6c2.1-2.3,4.7-3.5,7.9-3.5c1.8,0,3.3,0.2,4.6,0.7s2,1.2,2,2
		c0,0.8-0.3,1.9-1,3.1c-0.6,1.2-1.2,1.9-1.6,1.9c-0.1,0-0.3-0.1-0.4-0.2c-0.2-0.1-0.5-0.3-1.1-0.4c-0.6-0.2-1-0.2-1.5-0.2
		c-1.4,0-2.5,0.5-3.4,1.5c-0.9,1-1.3,2.5-1.3,4.5s0.4,3.5,1.3,4.5c0.9,1,2,1.5,3.3,1.5c0.6,0,1.2-0.1,1.9-0.2
		c0.7-0.2,1.2-0.4,1.5-0.7c0,0,0.1-0.1,0.3-0.1c0.1,0,0.4,0.3,0.8,0.8c0.4,0.5,0.8,1.2,1.1,2.1c0.3,0.9,0.5,1.6,0.5,2
		C193.5,51.1,192.8,51.8,191.3,52.4z M210.7,51.6c-0.1,0.8-0.4,1.2-0.7,1.2h-12.3c-0.9,0-1.4-0.4-1.4-1.1V28.6
		c0-0.6,0.3-0.9,0.8-0.9H210c0.5,0,0.8,1.1,0.8,3.2s-0.3,3.2-0.8,3.2h-6.7v3.6h4.6c0.5,0,0.7,0.8,0.7,2.5c0,0.5-0.1,1.1-0.2,1.8
		c-0.1,0.7-0.3,1-0.6,1h-4.6v3.6h6.6c0.4,0,0.7,0.5,0.8,1.6c0.1,0.5,0.1,0.9,0.1,1.5C210.7,50.3,210.8,50.8,210.7,51.6z"/>
	<polygon class="st0" points="161.9,35.2 160,42.7 163.8,42.7 162.2,35.2 	"/>
</g>
</svg>
