<?xml version="1.0" encoding="utf-8"?>
<!-- Generator: $$$/GeneralStr/196=Adobe Illustrator 27.6.0, SVG Export Plug-In . SVG Version: 6.00 Build 0)  -->
<svg version="1.1" id="svg_lead" xmlns="http://www.w3.org/2000/svg" xmlns:xlink="http://www.w3.org/1999/xlink" x="0px" y="0px"
	 viewBox="0 0 1600 1600" style="enable-background:new 0 0 1600 1600;" xml:space="preserve">
<style type="text/css">
	.st0{fill:none;stroke:#231815;stroke-width:9.9285;stroke-miterlimit:10;}
</style>
<g>
	<path class="st0" d="M-55.3,821.1L892,1213.9l1.8,0.7l0.9,0.4c0.3,0.2,0.6,0.1,0.9,0.3l3.7,1.3c2.7,0.8,6,1.7,7.6,2.1
		c1.9,0.5,3.9,1,5.9,1.4l2.9,0.7l2.9,0.6c7.9,1.6,16,2.7,24,3.4c8.1,0.7,16.2,0.8,24.4,0.5c8.1-0.3,16.2-1.1,24.2-2.3
		c32-5.1,62.7-17.7,89-36.8c6.6-4.7,12.8-9.9,18.8-15.4c3-2.7,5.9-5.7,8.7-8.5c2.7-2.9,5.6-5.9,8.2-9c5.4-6.2,10.1-12.6,14.7-19.4
		l3.3-5.1l2.2-3.6l4.3-7l4.3-7l0.5-0.9l0.3-0.5l0.4-0.7l1.5-2.6l3-5.4c2.1-3.5,3.8-7.3,5.7-10.9l2.6-5.6l2.3-5.8
		c6.3-15.4,10.5-31.8,12.6-48.5c2.1-16.7,1.8-33.6-0.5-50.2s-6.8-32.6-13.2-47.9c-12.7-30.5-33-57.7-59.2-78.5
		c-13-10.4-27.5-19.1-42.9-25.9c-15.4-6.8-31.7-11.5-48.3-13.9c-4.1-0.6-8.3-1-12.4-1.4c-1-0.1-2-0.2-3.1-0.3l-3.1-0.1l-6.2-0.2
		l-3.1-0.1h-1.5h-1.5l-6.2,0.2l-8.4,0.3c-4.8,0.3-9.6-0.3-14.2-1.4c-9.1-2.2-17.8-7.3-24.5-14.2c-1.6-1.7-3.1-3.6-4.6-5.6l-1-1.5
		l-0.5-0.7l-0.4-0.8l-0.9-1.5c-0.3-0.5-0.5-1-0.8-1.6c-0.3-0.5-0.5-1-0.8-1.6c-0.2-0.5-0.5-1-0.8-1.6c-0.4-1.1-0.9-2.1-1.3-3.3
		c-0.4-1.1-0.7-2.2-1.1-3.3c-0.2-0.6-0.3-1.1-0.4-1.7c-0.1-0.6-0.3-1.1-0.4-1.7c-0.1-0.6-0.2-1.2-0.3-1.7c-0.1-0.6-0.1-1.2-0.2-1.8
		c-0.2-1.2-0.2-2.4-0.4-3.6c-0.1-0.6,0-1.2,0-1.8V762v-0.2c0,0,0-0.2,0-0.4v-1l0.1-4.1c0.3-4.8,1.3-9.5,2.8-13.9
		c1.6-4.4,3.8-8.6,6.6-12.4c2.8-3.8,6.3-7.4,10-10.3c0.5-0.3,1-0.7,1.5-1.1c0.2-0.2,0.5-0.4,0.7-0.5l0.8-0.5c0.5-0.3,1-0.7,1.5-1
		s1-0.6,1.6-0.9l0.8-0.5c0.3-0.2,0.5-0.3,0.8-0.4c0.5-0.3,1.1-0.5,1.6-0.8s1.1-0.5,1.6-0.7s1.1-0.5,1.6-0.7c1.1-0.4,2.2-0.9,3.3-1.2
		c0.6-0.2,1.1-0.4,1.7-0.5c0.6-0.1,1.1-0.3,1.7-0.4c0.3-0.1,0.6-0.2,0.8-0.2l0.9-0.2c0.6-0.1,1.1-0.2,1.7-0.4
		c0.6-0.1,1.2-0.1,1.7-0.2c0.6-0.1,1.1-0.2,1.7-0.2c4.6-0.4,9.4-0.3,14.2,0.6c0.6,0.1,1.2,0.3,1.8,0.4l0.9,0.2c0,0,0.2,0,0.4,0.1
		l0.5,0.1l1,0.2l8,1.9l16.1,3.9l64.2,15.7l16.1,3.9l4,1l2,0.5l0.5,0.1l0.6,0.1l1.5,0.3c4.1,0.9,8.2,1.7,12.3,2.5
		c16.7,2.7,34.3,3.2,51.5,1.2c17.3-2,34.4-6.7,50.2-13.5c16-6.9,30.7-16.1,44-27c26.4-21.8,46.4-50.7,57.5-83.5
		c5.6-16.4,8.8-33.5,9.4-51c0.7-17.4-1.2-35-5.5-51.6c-1.1-4.1-2.3-8.3-3.6-12.3c-1.4-4-2.9-8-4.4-12c-1.7-3.8-3.4-7.7-5.2-11.5
		c-0.8-1.9-1.9-3.8-2.9-5.7s-2-3.8-3.1-5.7l-3.3-5.6c-1.1-1.8-2.3-3.6-3.5-5.4c-2.3-3.6-5-7.1-7.6-10.5
		c-5.4-6.8-11.1-13.2-17.4-19.2c-12.5-11.9-26.6-22.1-41.9-30c-7.6-3.9-15.5-7.5-23.6-10.3c-4-1.5-8.2-2.7-12.3-3.9
		c-4.1-1.1-8.3-2.2-12.5-3c-4.2-0.9-8.5-1.5-12.7-2.1c-4.2-0.5-8.6-1-12.8-1.2c-8.6-0.6-17.3-0.4-25.9,0.3c-8.6,0.6-17.2,2-25.6,3.9
		s-16.7,4.4-24.8,7.5l-6,2.4c-1,0.4-2,0.8-2.9,1.2l-2.9,1.3l-2.9,1.4l-2.7,1.3l-3.6,1.8l-14.8,7.4l-29.5,14.9l-59,29.7L823.6,509
		c-9.2,4.4-18.3,5.9-27.7,5c-9.3-1-18.7-5.1-26.4-11c-7.6-6.2-13.2-14-16.2-22.8c-1.5-4.4-2.3-9.1-2.6-14c0-0.6,0-1.2-0.1-1.9v-0.5
		v-0.2v-0.5v-2v-8.3v-16.5V0.4"/>
	<path class="st0" d="M-49.7,807.6l947,392.6l1.6,0.6l0.8,0.3c0.3,0.2,0.6,0.1,0.8,0.2c1.1,0.4,2.2,0.8,3.3,1.2
		c2.4,0.7,5.3,1.5,6.8,1.9c1.8,0.5,3.6,0.9,5.5,1.3l2.7,0.6l2.7,0.6c7.4,1.5,14.9,2.5,22.3,3.1c7.5,0.6,15.1,0.7,22.5,0.5
		c7.5-0.3,15.1-1,22.4-2.1c29.7-4.6,58.3-16.5,82.7-34.2c6.1-4.4,11.9-9.2,17.5-14.3c2.8-2.5,5.5-5.3,8.1-7.9
		c2.5-2.7,5.2-5.5,7.6-8.4c5-5.7,9.4-11.7,13.6-18l3-4.7l2.2-3.6l4.3-7l4.3-7l0.5-0.9l0.3-0.5l0.4-0.6l1.4-2.4l2.8-5
		c1.9-3.2,3.5-6.8,5.3-10.1l2.4-5.2l2.1-5.4c5.8-14.2,9.7-29.4,11.6-44.8c1.9-15.5,1.7-31.1-0.5-46.4c-2.1-15.3-6.3-30.2-12.2-44.4
		c-11.8-28.3-30.6-53.4-54.8-72.6c-12-9.6-25.5-17.7-39.6-23.9c-14.2-6.2-29.3-10.6-44.6-12.8c-3.8-0.6-7.7-0.9-11.4-1.3
		c-0.9-0.1-1.9-0.2-2.8-0.3l-2.8-0.1l-5.8-0.2l-2.8-0.1h-1.4H979l-5.7,0.2l-8.4,0.3c-6.3,0.3-12.3-0.4-18.3-1.8
		c-11.8-2.9-22.9-9.4-31.5-18.3c-8.6-8.9-14.4-20.2-16.9-32.2c-0.1-0.7-0.3-1.5-0.4-2.2c-0.1-0.7-0.2-1.5-0.3-2.3
		c-0.3-1.5-0.3-3-0.5-4.6c-0.1-0.8,0-1.5-0.1-2.3v-1.2v-0.3c0-0.1,0-0.2,0-0.4v-1l0.1-5.1c0.4-6.3,1.7-12.2,3.6-18
		c2-5.8,5-11.1,8.6-16.2c3.6-5,8-9.5,12.9-13.3c0.6-0.4,1.2-0.9,1.9-1.4c0.3-0.2,0.6-0.5,0.9-0.7l1-0.6c0.6-0.4,1.3-0.8,1.9-1.3
		c0.7-0.4,1.3-0.8,2-1.1l1-0.6c0.3-0.2,0.7-0.3,1-0.5c0.7-0.3,1.4-0.7,2-1.1c0.7-0.3,1.4-0.6,2.1-0.9c0.7-0.3,1.4-0.7,2.1-0.9
		c1.4-0.5,2.8-1.1,4.3-1.5c0.7-0.2,1.4-0.5,2.2-0.7c0.7-0.2,1.5-0.4,2.2-0.6c0.4-0.1,0.7-0.2,1.1-0.3l1.1-0.2
		c0.7-0.1,1.5-0.3,2.2-0.5l2.2-0.3c0.7-0.1,1.5-0.2,2.2-0.3c6.1-0.5,12.2-0.3,18.4,0.8l2.3,0.5l1.1,0.2c0.1,0,0.2,0,0.4,0.1l0.5,0.1
		l1,0.2l8,1.9l16.1,3.9l64.2,15.7l16.1,3.9l4,1l2,0.5l0.5,0.1l0.6,0.1l1.4,0.3c3.8,0.8,7.6,1.6,11.4,2.3c15.5,2.5,31.5,3,47.4,1.1
		s31.5-6.2,46.2-12.4c14.7-6.4,28.3-14.8,40.4-24.8c24.4-20.1,42.7-46.8,52.9-76.8c5.1-15.1,8.1-30.8,8.7-46.9
		c0.6-16-1.1-32.1-5.1-47.5c-1.1-3.8-2.1-7.7-3.3-11.4c-1.3-3.7-2.7-7.4-4-11c-1.5-3.5-3.1-7.1-4.7-10.6c-0.8-1.7-1.8-3.5-2.6-5.3
		c-0.9-1.7-1.8-3.5-2.8-5.2l-3-5.1c-1-1.7-2.1-3.3-3.2-5c-2.1-3.3-4.5-6.5-7-9.6c-5-6.2-10.2-12.1-16-17.7
		c-22.9-22-52-37.2-83.1-43.4c-3.8-0.8-7.8-1.4-11.7-2c-3.9-0.4-7.9-0.9-11.8-1.1c-7.9-0.5-15.9-0.4-23.7,0.2
		c-7.9,0.6-15.8,1.9-23.5,3.6c-7.8,1.7-15.4,4.1-22.7,6.9l-5.5,2.2c-0.9,0.4-1.8,0.7-2.7,1.1l-2.7,1.2l-2.6,1.3l-2.5,1.2l-3.6,1.8
		l-14.8,7.4l-29.5,14.9l-59,29.7l-117.3,59c-11.5,5.6-23.6,7.7-35.8,6.3c-12.1-1.3-24-6.5-33.8-14.1c-9.7-7.9-17.1-18.2-20.9-29.6
		c-1.9-5.8-3-11.8-3.3-18.2l-0.1-2.4v-0.6v-0.3v-0.5v-2v-8.3v-16.5V0.2"/>
	<path class="st0" d="M-44,794.1l946.7,392.4c1,0.4,1.9,0.8,2.9,1.1c1,0.4,1.9,0.7,2.9,1c2.1,0.6,4.5,1.3,6,1.7
		c1.7,0.4,3.3,0.8,5.1,1.2l2.5,0.6l2.5,0.5c6.8,1.4,13.7,2.3,20.6,2.9c7,0.6,13.8,0.7,20.8,0.5c7-0.3,13.8-1,20.7-2
		c27.5-4.3,53.9-15.2,76.3-31.5c5.7-4,11-8.5,16.2-13.2c2.6-2.3,5.1-4.8,7.5-7.3c2.3-2.5,4.7-5.1,7-7.8c4.5-5.3,8.7-10.8,12.5-16.6
		l2.8-4.3l2.2-3.5l4.3-7l4.3-7l0.5-0.9c0.1-0.1,0.2-0.3,0.3-0.5l0.3-0.6l1.3-2.2l2.6-4.5c1.8-2.9,3.2-6.2,4.8-9.3l2.2-4.7l2-5
		c5.3-13.1,8.9-27,10.7-41.1c3.5-28.3-0.8-57.3-11.6-83.3s-28.2-49.1-50.3-66.8c-11.1-8.8-23.3-16.3-36.4-21.9s-26.9-9.7-40.8-11.8
		c-3.5-0.5-7-0.8-10.5-1.2c-0.9-0.1-1.7-0.2-2.6-0.2l-2.6-0.1l-5.3-0.2l-2.6-0.1h-1.3h-1.3l-5.3,0.2l-8.3,0.3
		c-7.6,0.4-15.2-0.5-22.4-2.2c-14.5-3.6-28.2-11.5-38.6-22.4c-10.5-10.9-17.7-24.8-20.7-39.5l-0.5-2.7c-0.2-0.9-0.2-1.9-0.4-2.8
		c-0.3-1.8-0.4-3.7-0.5-5.7c-0.1-0.9,0-1.9-0.1-2.8v-1.4V762c0-0.1,0-0.2,0-0.4v-1v-0.5v-0.4V759v-1.4c0-0.9,0-1.9,0.1-2.8
		c0.5-7.6,2-15,4.5-22c2.5-7.1,6.2-13.7,10.5-19.8c4.4-6.1,9.8-11.5,15.8-16.3l2.3-1.7c0.4-0.3,0.7-0.6,1.1-0.8l1.2-0.8l2.3-1.6
		l2.4-1.4l1.2-0.7c0.4-0.2,0.8-0.4,1.2-0.6l2.5-1.3c0.8-0.4,1.7-0.8,2.6-1.2c0.9-0.4,1.7-0.8,2.6-1.1c1.7-0.6,3.5-1.4,5.4-1.9
		c0.9-0.3,1.8-0.6,2.7-0.8l2.7-0.7c0.5-0.1,0.9-0.3,1.3-0.3l1.4-0.3l2.7-0.6l2.8-0.4c0.9-0.1,1.8-0.3,2.8-0.3
		c7.5-0.7,15.1-0.4,22.5,1l2.8,0.6l1.4,0.3c0.1,0,0.2,0,0.4,0.1l0.5,0.1l1,0.2l8,1.9l16.1,3.9l64.2,15.7l16.1,3.9l4,1l2,0.5l0.5,0.1
		l0.6,0.1l1.3,0.3c3.4,0.7,7,1.5,10.5,2.1c14.1,2.3,28.8,2.7,43.2,1c14.4-1.7,28.7-5.6,42-11.3c13.3-5.8,25.8-13.4,36.9-22.6
		c22.2-18.3,39.1-42.7,48.4-70.2c4.6-13.7,7.4-28.1,7.9-42.7c0.6-14.5-1-29.2-4.5-43.2c-1-3.4-1.9-7-3-10.4
		c-1.2-3.3-2.4-6.8-3.7-10.1c-1.4-3.2-2.9-6.5-4.4-9.7c-0.7-1.6-1.6-3.2-2.4-4.7c-0.9-1.6-1.6-3.2-2.6-4.7l-2.8-4.6
		c-0.9-1.5-2-3-2.9-4.5c-1.9-3-4.2-5.9-6.4-8.8c-4.5-5.7-9.3-11.1-14.5-16.1c-20.9-20.1-47.5-33.9-75.9-39.6
		c-3.5-0.8-7.1-1.3-10.7-1.8c-3.6-0.4-7.2-0.8-10.8-1c-7.2-0.5-14.4-0.3-21.7,0.2s-14.3,1.7-21.4,3.3c-7.1,1.6-13.9,3.7-20.7,6.3
		l-5.1,2c-0.8,0.3-1.7,0.7-2.5,1l-2.4,1.1l-4.7,2.2l-3.6,1.8l-14.8,7.4l-29.5,14.9l-59,29.7L837.3,536c-13.8,6.8-28.9,9.4-43.9,7.7
		c-14.9-1.7-29.5-7.9-41.3-17.3c-11.8-9.6-20.9-22.2-25.7-36.4c-2.4-7.1-3.7-14.5-4.1-22.2l-0.1-2.9v-0.7v-0.4v-1.2v-2v-8.3v-16.5
		V0.2"/>
	<path class="st0" d="M-38.2,780.4l946.4,392.3c1.6,0.7,3.3,1.3,5.1,1.8l5.2,1.4c1.5,0.4,3.1,0.7,4.6,1.1l2.3,0.5l2.3,0.5
		c6.3,1.3,12.5,2.1,18.9,2.7c6.4,0.5,12.7,0.6,19.1,0.4c6.4-0.3,12.7-0.9,19-1.8c25.2-3.9,49.3-13.9,70-28.9
		c5.2-3.7,10.1-7.8,14.8-12.1c2.4-2.1,4.5-4.4,6.9-6.7c2.1-2.3,4.3-4.6,6.4-7.1c4.1-4.8,8-9.9,11.5-15.3l2.6-4l2.2-3.5l4.3-7l4.3-7
		c0.7-1.1,1.5-2.6,2.3-3.9l2.4-4.1c1.6-2.7,3-5.7,4.3-8.6l2.1-4.3l1.8-4.4c4.8-11.9,8.1-24.6,9.7-37.4c3.2-25.8-0.7-52.1-10.6-75.8
		s-25.8-44.9-45.9-60.9c-20.1-16.1-44.7-26.9-70.2-30.7c-3.2-0.5-6.4-0.7-9.6-1.1c-0.8-0.1-1.6-0.2-2.4-0.2l-2.4-0.1l-4.8-0.2
		l-2.4-0.1h-1.2h-1.2l-4.7,0.2l-8.3,0.3c-9,0.4-17.9-0.6-26.6-2.6c-17.3-4.2-33.3-13.5-45.8-26.5c-12.4-12.8-21-29.3-24.6-46.8
		l-0.6-3.3c-0.2-1.1-0.3-2.2-0.5-3.3c-0.4-2.2-0.4-4.4-0.6-6.7c-0.1-1.1-0.1-2.2-0.1-3.3c0-1.2-0.1-2.1-0.1-3.6c0-0.3,0-0.7,0-1
		v-0.8l0.1-1.7c0-1.1,0-2.2,0.1-3.3c0.6-9,2.4-17.7,5.4-26.2c3-8.4,7.3-16.3,12.4-23.5c5.3-7.2,11.5-13.6,18.6-19.2l2.7-2
		c0.4-0.3,0.9-0.7,1.3-1l1.4-0.9l2.8-1.8l2.9-1.7l1.4-0.8c0.5-0.3,1-0.5,1.5-0.8l2.9-1.5c1-0.5,2-0.9,3-1.4c1-0.4,2-0.9,3-1.3
		c2.1-0.8,4.1-1.6,6.3-2.2c1.1-0.3,2.1-0.7,3.2-1l3.2-0.8c0.5-0.1,1.1-0.3,1.6-0.4l1.6-0.3l3.2-0.7l3.3-0.5c1.1-0.2,2.2-0.3,3.3-0.4
		c8.9-0.8,17.8-0.5,26.7,1.2l3.3,0.7l1.6,0.3l1.9,0.5l8,1.9l16.1,3.9l64.2,15.7l16.1,3.9l4,1l2,0.5c0.3,0.1,0.6,0.2,1,0.2l1.2,0.2
		c3.1,0.6,6.4,1.3,9.5,1.9c12.8,2.1,26.1,2.4,39.1,0.9s25.9-5.1,37.9-10.2c12-5.3,23.2-12.1,33.3-20.4
		c20.1-16.6,35.5-38.8,43.9-63.6c4.1-12.4,6.7-25.5,7.2-38.6s-0.9-26.4-4.1-39c-0.9-3.1-1.7-6.3-2.7-9.4l-3.3-9.2
		c-1.3-2.9-2.6-5.9-4-8.9c-0.6-1.5-1.5-2.9-2.2-4.3c-0.8-1.4-1.5-2.9-2.3-4.2l-2.5-4.2c-0.8-1.4-1.8-2.7-2.7-4.1
		c-1.7-2.7-3.8-5.4-5.8-8c-4.1-5.2-8.4-10-13.1-14.5c-18.9-18.2-42.9-30.7-68.6-35.9c-3.2-0.7-6.5-1.1-9.7-1.6
		c-3.2-0.3-6.5-0.8-9.8-0.9c-6.6-0.4-13.1-0.3-19.6,0.2c-6.6,0.5-13,1.6-19.4,2.9c-6.4,1.4-12.6,3.4-18.8,5.7l-4.5,1.8
		c-0.7,0.3-1.5,0.6-2.2,0.9l-2.2,1l-4.3,2l-3.6,1.8l-14.8,7.4l-29.5,14.9l-59,29.7l-117.7,59.1c-16.3,7.9-34.3,11.1-51.9,9.1
		c-17.7-2-34.9-9.3-48.9-20.4c-13.9-11.2-24.7-26.3-30.4-43c-2.8-8.4-4.4-17.3-4.8-26.3l-0.1-3.3v-0.8c0-0.3,0-0.5,0-0.9v-2v-8.3
		v-16.5V0.2"/>
	<path class="st0" d="M-32.6,766.9l946,392.2c1.4,0.6,2.8,1.1,4.2,1.5l4.3,1.2c1.4,0.4,2.8,0.7,4.2,1l2.1,0.5l2.1,0.4
		c5.7,1.2,11.4,1.9,17.2,2.4s11.6,0.5,17.4,0.4c5.8-0.2,11.5-0.8,17.3-1.7c22.8-3.5,44.9-12.6,63.7-26.3c4.6-3.4,9.2-7.1,13.4-11
		c2.1-1.9,4.1-4,6.3-6.1c1.9-2.1,3.9-4.2,5.9-6.5c3.8-4.3,7.3-9,10.5-13.8l2.3-3.6l2.2-3.5l4.3-7l4.3-7c0.7-1.1,1.4-2.4,2.2-3.6
		l2.1-3.7c1.5-2.4,2.7-5.2,3.9-7.8l1.9-3.9l1.6-4c4.3-10.8,7.4-22.1,8.8-33.6c2.9-23.1-0.6-47-9.6-68.3
		c-8.9-21.4-23.3-40.6-41.5-55.1s-40.2-24.2-63.3-27.7c-2.8-0.4-5.8-0.7-8.7-1c-0.7-0.1-1.4-0.2-2.1-0.2l-2.2-0.1l-4.3-0.2l-2.2-0.1
		h-1.1h-1.1l-4.3,0.2l-8.3,0.3c-10.3,0.5-20.6-0.7-30.7-3c-20-5-38.5-15.7-52.8-30.6c-14.3-14.9-24.2-33.8-28.3-54.1l-0.7-3.8
		c-0.2-1.3-0.3-2.5-0.5-3.8c-0.4-2.5-0.5-5.2-0.7-7.7c-0.1-1.3-0.1-2.6-0.1-3.8c0-1.3-0.1-2.5-0.1-3.9s0.1-2.6,0.1-3.9
		s0.1-2.6,0.1-3.8c0.7-10.3,2.7-20.5,6.2-30.2c3.4-9.7,8.4-18.9,14.4-27.2c6.1-8.3,13.3-15.8,21.4-22.1l3.1-2.3
		c0.5-0.4,1-0.8,1.5-1.1l1.6-1.1l3.2-2.1l3.3-1.9l1.7-1c0.6-0.3,1.1-0.6,1.7-0.9l3.4-1.8c1.1-0.6,2.3-1,3.5-1.6
		c1.2-0.5,2.3-1.1,3.5-1.5c2.4-0.9,4.7-1.9,7.3-2.6c1.2-0.4,2.4-0.8,3.7-1.1l3.7-1c0.6-0.2,1.2-0.3,1.9-0.5l1.9-0.4l3.7-0.7l3.8-0.5
		c1.3-0.2,2.5-0.4,3.8-0.4c10.2-0.9,20.6-0.5,30.8,1.4l3.7,0.8l1.9,0.4l2,0.5l8,1.9l16.1,3.9l64.2,15.7l16.1,3.9l4,1
		c1.3,0.3,2.6,0.7,4,0.9c2.8,0.6,5.7,1.2,8.6,1.7c11.5,1.9,23.3,2.2,35,0.8c11.6-1.4,23-4.4,33.8-9.1c10.7-4.6,20.8-10.8,29.8-18.3
		c18-14.9,31.8-34.8,39.3-57c3.7-11.1,6-22.7,6.4-34.5c0.5-11.7-0.8-23.4-3.7-34.8c-0.8-2.8-1.5-5.7-2.4-8.4l-3-8.2l-3.6-8
		c-0.6-1.3-1.3-2.6-2-3.9c-0.7-1.3-1.3-2.6-2.1-3.8l-2.2-3.7c-0.7-1.2-1.6-2.4-2.4-3.6c-1.6-2.4-3.4-4.7-5.2-7.1
		c-3.6-4.5-7.6-9-11.8-13c-16.9-16.2-38.4-27.4-61.3-32c-2.8-0.6-5.8-1-8.7-1.5c-2.9-0.3-5.8-0.7-8.7-0.8
		c-5.9-0.4-11.7-0.3-17.5,0.2c-5.9,0.4-11.6,1.4-17.3,2.6c-5.8,1.3-11.3,3-16.8,5.1l-4,1.6c-0.7,0.3-1.3,0.5-2,0.8l-2,0.9l-3.9,1.9
		l-3.6,1.8l-14.8,7.4l-29.5,14.9l-59,29.7l-117.4,58.7c-9.3,4.5-19.2,7.8-29.3,9.5c-10.1,1.8-20.5,2.1-30.7,0.9
		c-20.5-2.3-40.2-10.7-56.4-23.5c-16.1-12.9-28.5-30.3-35.2-49.8c-3.3-9.8-5.2-20-5.7-30.3c-0.2-5.1-0.2-10.7-0.2-16.2v-16.5V0.2"/>
	<path class="st0" d="M-26.8,753.3l945.7,392c1.1,0.5,2.2,1,3.4,1.2l3.5,1c1.2,0.3,2.5,0.6,3.8,0.9l1.9,0.4l1.9,0.4
		c5.1,1.1,10.3,1.7,15.5,2.2c5.2,0.4,10.4,0.5,15.7,0.3s10.4-0.7,15.6-1.5c20.6-3.2,40.4-11.4,57.3-23.6c4.2-3,8.3-6.4,12.1-9.9
		c1.9-1.7,3.7-3.6,5.6-5.5c1.7-1.9,3.5-3.7,5.3-5.8c3.4-3.9,6.6-8.1,9.4-12.4l2.1-3.2l2.2-3.4l4.3-7l4.3-7c0.8-1.2,1.3-2.3,2-3.4
		l1.9-3.3c1.4-2.2,2.4-4.6,3.5-7l1.7-3.5l1.4-3.6c3.8-9.6,6.6-19.7,7.8-30c2.6-20.6-0.6-41.7-8.6-60.9c-8-19.2-20.8-36.3-37.1-49.2
		c-16.2-12.9-35.8-21.5-56.3-24.6c-2.5-0.4-5.2-0.6-7.7-0.9c-0.6-0.1-1.3-0.2-1.9-0.2l-1.9-0.1l-3.9-0.1l-1.9-0.1h-1h-1l-3.9,0.1
		l-3.9,0l-4.3,0.2c-11.7,0.5-23.4-0.7-34.8-3.4c-22.7-5.7-43.8-17.8-59.9-34.7c-16.3-16.8-27.5-38.4-32.1-61.3l-0.8-4.3
		c-0.3-1.4-0.4-2.9-0.6-4.3c-0.4-2.9-0.6-5.9-0.8-8.7c-0.1-1.4-0.1-2.9-0.2-4.3c0-1.4-0.1-2.9-0.1-4.3c0-1.3,0.1-2.9,0.1-4.3
		c0.1-1.4,0.1-2.9,0.2-4.3c0.8-11.6,3.1-23.2,7.1-34.3s9.6-21.4,16.4-30.9c6.9-9.4,15.2-17.9,24.4-25.1l3.5-2.6
		c0.6-0.4,1.2-0.9,1.8-1.3l1.8-1.2l3.6-2.4l3.7-2.2l1.9-1.1c0.6-0.4,1.3-0.7,1.9-1l3.9-2c1.3-0.6,2.6-1.2,3.9-1.8
		c1.3-0.6,2.6-1.2,4-1.7c2.7-1,5.5-2.1,8.3-2.9c1.4-0.4,2.7-0.9,4.1-1.3l4.2-1.1c0.7-0.2,1.4-0.4,2.1-0.5l2.1-0.4l4.3-0.8l4.3-0.6
		c1.4-0.2,2.9-0.4,4.3-0.5c11.6-1.1,23.4-0.6,35,1.6l4.2,0.9l2.1,0.5l2,0.5l8,1.9l16.1,3.9l64.2,15.7l16.1,3.9l4,1
		c1.3,0.3,2.7,0.7,3.9,0.9c2.5,0.5,5.1,1.1,7.6,1.5c10.2,1.7,20.6,1.9,30.8,0.7c20.4-2.4,40-10.9,56-24.1
		c16-13.1,28.1-30.8,34.8-50.3c3.3-9.8,5.3-20,5.6-30.2c0.4-10.3-0.7-20.6-3.2-30.6c-0.7-2.4-1.4-5-2.1-7.4l-2.6-7.3l-3.2-7.1
		c-0.5-1.2-1.2-2.3-1.7-3.4c-0.6-1.1-1.2-2.3-1.8-3.4l-2-3.3c-0.6-1.1-1.4-2.1-2.1-3.2c-1.4-2.2-3-4.1-4.5-6.3
		c-3.2-4-6.7-7.9-10.4-11.4c-14.9-14.2-33.8-24.1-54.1-28.3s-41.5-2.4-60.8,5l-3.5,1.5c-0.6,0.2-1.2,0.5-1.8,0.7l-1.7,0.8l-3.5,1.7
		l-3.6,1.8l-14.8,7.4l-29.5,14.9l-59,29.7l-118,59.3c-10.5,5.1-21.7,8.8-33.2,10.8s-23.3,2.3-35,1c-23.2-2.6-45.6-12.1-63.9-26.7
		c-18.2-14.7-32.3-34.4-39.9-56.6c-3.7-11.1-5.9-22.7-6.5-34.4c-0.3-6-0.2-11.3-0.2-16.9v-16.5V0.2"/>
	<path class="st0" d="M-21.2,739.8l945.3,391.9c0.9,0.4,1.7,0.7,2.6,1l2.7,0.8c1.1,0.3,2.2,0.5,3.3,0.8l1.7,0.4l1.7,0.3
		c4.5,1,9.1,1.5,13.7,1.9c4.6,0.4,9.3,0.4,13.8,0.3c4.6-0.2,9.2-0.6,13.8-1.3c18.3-2.8,36-10.1,50.9-21c3.7-2.7,7.4-5.7,10.7-8.8
		c1.7-1.5,3.3-3.2,5-4.8c1.5-1.7,3.2-3.3,4.6-5.2c3-3.5,5.8-7.3,8.4-11.1l1.9-2.9l2.1-3.4l4.3-7l4.3-7c0.8-1.2,1.2-2.1,1.8-3.1
		l1.7-3c1.2-1.9,2.1-4,3.1-6.2l1.5-3.1l1.2-3.2c3.4-8.5,5.8-17.3,6.9-26.3c2.2-18-0.5-36.6-7.6-53.4c-7.1-16.9-18.4-32-32.6-43.3
		s-31.3-18.9-49.3-21.5c-2.2-0.3-4.5-0.5-6.8-0.8c-0.6-0.1-1.1-0.1-1.7-0.2l-1.7-0.1l-3.4-0.1l-1.7-0.1h-0.9h-0.9l-3.4,0.1l-3.4,0.1
		l-4.7,0.2c-13,0.6-26.2-0.8-38.9-3.8c-25.5-6.3-48.9-19.9-67-38.8c-18.2-18.8-30.8-42.9-36-68.6l-0.9-4.8c-0.3-1.6-0.5-3.2-0.7-4.8
		c-0.5-3.2-0.7-6.5-0.9-9.7c-0.1-1.6-0.1-3.2-0.2-4.8c0-1.6-0.1-3.4-0.1-4.6v-1.1v-1.2l0.1-2.4c0.1-1.6,0.1-3.2,0.2-4.8
		c0.8-13,3.5-26,7.9-38.3s10.7-23.9,18.3-34.6c7.8-10.5,16.9-20,27.2-28.1l3.9-2.9c0.7-0.5,1.3-1,2-1.4l2-1.3l4-2.7l4.2-2.5l2.1-1.2
		c0.7-0.4,1.4-0.8,2.1-1.1l4.3-2.2c1.4-0.7,2.9-1.3,4.4-2c1.5-0.6,2.9-1.4,4.5-1.9c3-1.2,6.1-2.4,9.2-3.3c1.5-0.5,3.1-1,4.6-1.4
		l4.7-1.2c0.8-0.2,1.6-0.4,2.4-0.6l2.4-0.5l4.8-0.9l4.8-0.7c1.6-0.2,3.2-0.5,4.8-0.6c13-1.2,26.3-0.7,39.1,1.7l4.7,1l2.4,0.5l2,0.5
		l8,1.9l16.1,3.9l64.2,15.7l16.1,3.9l4,1l2,0.5c0.3,0.1,0.7,0.2,1,0.2l0.8,0.2l6.7,1.3c8.9,1.5,17.9,1.7,26.7,0.6
		c17.6-2,34.5-9.4,48.3-20.9c13.8-11.4,24.5-26.8,30.2-43.8c5.8-16.9,6.5-35.3,2-52.4c-0.6-2.1-1.2-4.3-1.9-6.5l-2.3-6.4l-2.8-6.2
		c-0.4-1-1-2-1.5-3s-1-2-1.6-2.9l-1.7-2.8c-0.6-1-1.2-1.8-1.8-2.8c-1.2-1.9-2.6-3.6-3.9-5.5c-2.8-3.4-5.8-6.9-9-9.9
		c-12.8-12.3-29.3-20.9-46.9-24.5c-17.5-3.6-36-2.1-52.6,4.2l-3.1,1.3c-0.5,0.2-1,0.4-1.5,0.6l-1.5,0.7l-3.1,1.5l-3.6,1.8l-14.8,7.4
		l-29.5,14.9l-59,29.7l-118.2,59.4c-11.6,5.7-24.2,9.8-37.1,12c-12.9,2.2-26.2,2.6-39.2,1.2c-26.1-2.9-50.9-13.5-71.3-29.8
		c-10.2-8.2-19.2-17.8-26.8-28.4c-7.6-10.7-13.6-22.4-17.9-34.9c-4.2-12.4-6.6-25.5-7.2-38.4l-0.2-4.8v-1.2c0-0.4,0-0.8,0-1.1v-2
		V453v-16.5V0.6"/>
	<path class="st0" d="M-15.5,726.2l945,391.8c0.6,0.3,1.2,0.5,1.9,0.7c0.6,0.1,0.8,0.2,2,0.6c1,0.3,2,0.5,2.9,0.7l1.5,0.4l1.5,0.3
		c3.9,0.9,8,1.3,12,1.7c4,0.3,8.1,0.4,12.1,0.3c4-0.2,8.1-0.6,12.1-1.2c16.1-2.5,31.4-8.9,44.6-18.4c3.2-2.4,6.5-5,9.4-7.7
		c1.5-1.3,2.9-2.8,4.3-4.2c1.3-1.5,2.8-2.9,4-4.5c2.6-3,5.1-6.4,7.4-9.7l1.7-2.5l2.1-3.4l4.3-7l4.3-7l0.5-0.9
		c0.1-0.2,0.2-0.3,0.2-0.4l0.2-0.3l0.7-1.3l1.5-2.6c1.1-1.7,1.8-3.5,2.7-5.4l1.3-2.6l1.1-2.7c2.9-7.3,5-14.9,5.9-22.5
		c1.9-15.4-0.4-31.4-6.5-46c-6.1-14.7-16-27.8-28.3-37.5c-12.3-9.8-26.9-16.2-42.3-18.5c-1.9-0.3-3.9-0.4-5.9-0.7
		c-0.5,0-1-0.1-1.5-0.2h-1.5l-2.9-0.1l-1.5-0.1h-0.7h-0.7l-3,0.1l-3,0.1l-4.9,0.1c-14.3,0.7-28.9-0.9-43-4.2
		c-14-3.5-27.7-8.9-40.1-16.3c-3.1-1.7-6.2-3.7-9.2-5.8c-1.5-1-2.9-2.1-4.4-3.1l-2.2-1.6c-0.7-0.5-1.4-1.1-2.1-1.7l-4.2-3.4l-4-3.5
		c-1.4-1.2-2.6-2.4-3.9-3.7c-1.3-1.3-2.6-2.5-3.8-3.8c-20-20.7-34.1-47.5-39.7-75.9l-1-5.4c-0.3-1.8-0.5-3.5-0.8-5.4
		c-0.5-3.5-0.7-7.2-1-10.8c-0.1-1.8-0.1-3.6-0.2-5.4l-0.1-2.7v-1.3v-1v-1.1v-1.3l0.1-2.7c0.1-1.8,0.1-3.6,0.2-5.4
		c0.9-14.3,3.8-28.7,8.7-42.3c5-13.6,11.8-26.6,20.3-38.3c8.6-11.6,18.7-22.1,30-31l4.3-3.2c0.7-0.5,1.4-1.1,2.2-1.6l2.2-1.5
		l4.5-2.9l4.6-2.7l2.3-1.3c0.8-0.4,1.6-0.8,2.4-1.2l4.8-2.4c1.6-0.8,3.3-1.5,5-2.2c1.6-0.7,3.3-1.5,5-2.1c3.3-1.3,6.8-2.6,10.2-3.6
		c1.7-0.5,3.4-1.1,5.2-1.6l5.3-1.3c0.9-0.2,1.7-0.5,2.6-0.6l2.6-0.5l5.4-1l5.4-0.8c1.8-0.2,3.6-0.5,5.4-0.6
		c14.4-1.3,29.1-0.7,43.2,1.9l5.3,1.1l2.6,0.6l2.1,0.5l8,1.9l16.1,3.9l64.2,15.7l16.1,3.9l4,1l2,0.5l0.5,0.1c0.2,0,0.3,0.1,0.4,0.1
		l0.7,0.1l5.7,1.2c7.6,1.2,15.2,1.4,22.5,0.5c14.8-1.7,28.9-7.9,40.6-17.6c11.7-9.7,20.8-22.8,25.6-37.1c4.8-14.3,5.5-29.5,1.7-44.2
		c-0.6-1.8-1-3.6-1.6-5.5c-0.7-1.8-1.3-3.5-2-5.4c-0.8-1.7-1.6-3.5-2.4-5.3c-0.4-0.9-0.9-1.7-1.3-2.5c-0.5-0.8-0.8-1.7-1.4-2.5
		l-1.4-2.4c-0.5-0.8-1-1.6-1.5-2.3c-1-1.6-2.2-3-3.3-4.5c-2.4-2.9-4.8-5.8-7.6-8.4c-10.8-10.4-24.8-17.7-39.6-20.7
		c-14.9-3-30.3-1.8-44.5,3.6l-2.6,1.1c-0.4,0.2-0.9,0.3-1.3,0.5l-1.3,0.6l-2.7,1.3l-3.6,1.8l-14.8,7.4l-29.5,14.9l-59,29.7
		l-117.9,59c-12.8,6.3-26.7,10.8-41,13.3s-29,2.9-43.4,1.3c-28.9-3.3-56.3-15-78.9-32.9c-11.2-9-21.2-19.6-29.6-31.4
		c-8.4-11.8-15.2-24.9-19.8-38.6c-4.6-13.7-7.3-28.2-8-42.4l-0.2-5.4v-1.3v-0.7v-0.5v-2V453v-16.5V0.2"/>
	<path class="st0" d="M-9.8,712.6l944.6,391.6c0.3,0.1,0.7,0.3,1.1,0.4c0.3,0,0.1,0,1.2,0.3c0.8,0.2,1.7,0.4,2.5,0.6l1.3,0.3
		l1.3,0.2c3.4,0.7,6.9,1.1,10.3,1.4c3.4,0.3,7,0.3,10.4,0.2c3.4-0.2,7-0.5,10.4-1c13.7-2.1,27-7.6,38.2-15.8c2.8-2,5.6-4.2,8.1-6.6
		c1.3-1.1,2.5-2.4,3.7-3.6c1.1-1.3,2.4-2.5,3.4-3.8c2.3-2.6,4.3-5.5,6.3-8.3l1.4-2.2l2.1-3.4l4.3-7l4.3-7l0.5-0.9
		c0.1-0.2,0.2-0.3,0.2-0.4l0.2-0.3l0.6-1.1l1.3-2.2c0.9-1.4,1.5-3,2.3-4.5l1.1-2.2l0.9-2.3c2.5-6.2,4.1-12.4,5-18.9
		c1.6-12.8-0.3-26.2-5.5-38.6c-5.2-12.3-13.5-23.4-23.8-31.6c-10.3-8.2-22.4-13.5-35.4-15.5c-1.6-0.2-3.3-0.3-5-0.5
		c-0.4,0-0.8-0.1-1.2-0.1h-1.2l-2.5-0.1l-1.2-0.1h-0.6h-0.6H978l-2.5,0.1l-5.6,0.3c-15.8,0.7-31.7-1-47.2-4.7
		c-15.4-3.8-30.3-9.8-44-17.8c-3.4-1.9-6.8-4.1-10.1-6.3c-1.6-1.1-3.2-2.3-4.8-3.4l-2.4-1.7c-0.8-0.6-1.5-1.2-2.3-1.8l-4.6-3.7
		l-4.5-4c-1.5-1.3-2.9-2.6-4.3-4c-1.4-1.4-2.8-2.7-4.1-4.1c-5.5-5.7-10.5-11.8-15.2-18.2c-1.1-1.6-2.2-3.2-3.3-4.8l-1.6-2.4
		l-1.5-2.5c-1-1.7-2-3.3-3-5.1l-2.8-5.3c-1-1.7-1.8-3.5-2.6-5.4c-0.8-1.8-1.7-3.5-2.5-5.4c-1.5-3.6-3.1-7.3-4.3-11.1
		c-1.4-3.7-2.5-7.6-3.6-11.3c-0.6-1.9-1-3.8-1.5-5.8c-0.5-1.9-0.9-3.8-1.3-5.9l-1.1-5.9c-0.3-1.9-0.6-3.9-0.8-5.9
		c-0.6-3.9-0.8-7.9-1.1-11.8c-0.1-1.9-0.1-3.9-0.2-5.9l-0.1-2.9v-1.3v-1v-1.1V758l0.1-2.9c0.1-1.9,0.1-3.9,0.2-5.9
		c1-15.8,4.2-31.4,9.6-46.5c5.4-15,12.9-29.1,22.2-41.9c9.4-12.7,20.4-24.2,32.9-33.9l4.7-3.5c0.8-0.6,1.6-1.2,2.4-1.7l2.4-1.6
		l5-3.2l5.2-3l2.5-1.5c0.9-0.5,1.7-0.9,2.6-1.4l5.3-2.7c1.8-0.9,3.6-1.6,5.4-2.4c1.8-0.8,3.6-1.6,5.5-2.3c3.7-1.4,7.4-2.8,11.2-4
		c1.9-0.6,3.7-1.2,5.7-1.7l5.8-1.5c1-0.2,1.9-0.5,2.9-0.7l2.9-0.6l5.9-1.1l5.9-0.8c1.9-0.3,3.9-0.5,6-0.7
		c15.9-1.5,31.9-0.8,47.4,2.1l5.8,1.2l2.8,0.6l2.1,0.5l8,1.9l16.1,3.9l64.2,15.7l16.1,3.9l4,1l2,0.5l0.5,0.1c0.2,0,0.3,0.1,0.4,0.1
		l0.6,0.1c1.6,0.3,3.1,0.6,4.7,1c6.3,1,12.4,1.1,18.4,0.4c6-0.7,11.8-2.3,17.4-4.6c5.6-2.4,10.8-5.7,15.7-9.6
		c9.7-7.9,17.2-18.9,21-30.5c3.9-11.7,4.4-23.8,1.4-35.8c-0.5-1.5-0.8-2.9-1.3-4.4c-0.6-1.5-1.1-2.9-1.6-4.4c-0.7-1.4-1.4-2.9-2-4.4
		c-0.3-0.8-0.7-1.4-1.1-2.1s-0.7-1.4-1.1-2c-0.4-0.7-0.8-1.3-1.2-2c-0.4-0.7-0.9-1.3-1.3-1.9c-0.8-1.3-1.8-2.5-2.7-3.7
		c-1.9-2.3-3.9-4.6-6.2-6.8c-8.8-8.5-20.2-14.4-32.3-16.9c-12.1-2.5-24.8-1.4-36.3,2.9c-0.7,0.3-1.4,0.6-2.1,0.9
		c-0.4,0.1-0.7,0.3-1.1,0.4l-1,0.5l-2.2,1.1l-3.6,1.8l-14.8,7.4l-29.5,14.9l-59,29.7L877,615.6c-14,6.9-29.2,11.8-45,14.5
		c-15.7,2.7-31.8,3.2-47.6,1.4c-15.9-1.7-31.2-6-45.8-12c-14.5-6.1-28.2-14.1-40.6-23.9c-12.3-9.9-23.2-21.4-32.4-34.5
		c-9.2-12.9-16.6-27.3-21.7-42.4c-5.2-15.1-8-30.9-8.8-46.5l-0.2-5.9v-1.5v-1.2v-0.5v-2v-8.3v-16.5V0.2"/>
	<path class="st0" d="M-4.1,699.1l944.3,391.4c0.1,0,0.2,0.1,0.3,0.1c0-0.1-0.7-0.2,0.4,0.1c0.7,0.2,1.4,0.3,2.1,0.5l1,0.3l1.1,0.2
		c2.8,0.6,5.7,0.9,8.6,1.2c2.8,0.3,5.8,0.2,8.7,0.2c2.9-0.1,5.8-0.4,8.6-0.8c11.4-1.8,22.5-6.4,31.8-13.1c2.3-1.7,4.6-3.5,6.7-5.5
		c1.1-0.9,2-2,3.1-3c0.9-1.1,2-2.1,2.9-3.2c1.9-2.1,3.6-4.5,5.3-7l1.2-1.8l2.1-3.3l4.3-7l4.3-7l0.5-0.9c0.1-0.2,0.2-0.3,0.2-0.3
		l0.1-0.2l0.5-0.9c0.3-0.6,0.7-1.2,1.1-1.8c0.8-1.2,1.3-2.5,1.9-3.7l0.9-1.8c0.2-0.6,0.5-1.2,0.7-1.9c2-5,3.3-10,4-15.2
		c1.3-10.2-0.3-21-4.4-31.1s-11.1-19.2-19.4-25.8c-4.1-3.3-8.7-6.1-13.4-8.1s-9.7-3.5-15-4.3c-1.3-0.2-2.6-0.2-4-0.4
		c-0.3,0-0.7-0.1-1-0.1h-1c-0.7,0-1.4,0-2-0.1l-1-0.1H981h-0.5c-0.7,0-1.4,0.1-2.1,0.1c-0.7,0-1.4,0-2.1,0l-6,0.3
		c-17.1,0.8-34.5-1.1-51.2-5.2c-16.8-4.2-32.9-10.6-47.8-19.3c-3.7-2.1-7.4-4.4-10.9-6.9c-1.8-1.2-3.5-2.5-5.3-3.7l-2.6-1.9
		c-0.8-0.6-1.7-1.3-2.5-2c-1.7-1.3-3.3-2.7-5.1-4l-4.8-4.2c-1.6-1.4-3.1-2.9-4.6-4.4s-3.1-3-4.5-4.5c-6-6.2-11.4-12.8-16.5-19.8
		c-1.2-1.7-2.4-3.5-3.6-5.4l-1.8-2.7l-1.7-2.7c-1.1-1.8-2.2-3.6-3.3-5.6l-3.1-5.7c-1-1.9-1.9-3.8-2.9-5.8c-0.9-1.9-1.9-3.8-2.7-5.9
		c-1.7-3.9-3.3-8-4.7-12c-1.5-4-2.7-8.2-3.9-12.3c-0.6-2.1-1.1-4.1-1.6-6.3c-0.5-2.1-1-4.2-1.4-6.4l-1.2-6.4
		c-0.4-2.1-0.6-4.2-0.9-6.4c-0.6-4.2-0.9-8.6-1.2-12.8c-0.1-2.1-0.2-4.2-0.2-6.4l-0.1-3.2v-1.4v-1v-1.1v-1.6l0.1-3.2
		c0.1-2.1,0.1-4.2,0.2-6.4c1.1-17.1,4.5-34.3,10.4-50.5c5.9-16.3,14.1-31.7,24.1-45.7c10.2-13.9,22.2-26.4,35.8-36.9l5.2-3.8
		c0.9-0.6,1.7-1.3,2.6-1.9l2.6-1.8l5.4-3.5l5.6-3.2l2.8-1.6c0.9-0.5,1.9-1,2.8-1.5l5.8-2.9c1.9-0.9,3.9-1.8,5.9-2.7s3.9-1.8,6-2.5
		c4-1.5,8.1-3.1,12.1-4.3c2-0.6,4.1-1.3,6.2-1.9l6.3-1.6c1-0.3,2.1-0.5,3.1-0.8l3.1-0.6l6.4-1.2l6.5-0.9c2.1-0.3,4.2-0.6,6.5-0.7
		c17.2-1.6,34.7-0.9,51.5,2.3l6.3,1.3l3.1,0.7l2.1,0.5l8,1.9l16.1,3.9l64.2,15.7l16.1,3.9l4,1l2,0.5l0.5,0.1c0.2,0,0.3,0.1,0.4,0.1
		l0.5,0.1c1.3,0.2,2.5,0.5,3.8,0.8c5,0.8,9.7,0.9,14.2,0.3c4.5-0.5,9-1.7,13.2-3.5s8.4-4.3,12.1-7.5c7.6-6.2,13.5-14.9,16.5-23.8
		c1.5-4.5,2.3-9.1,2.5-13.6s-0.3-9.1-1.4-13.7c-0.4-1.1-0.6-2.3-1-3.4c-0.5-1.1-0.9-2.3-1.3-3.5c-0.6-1.1-1.1-2.3-1.6-3.5
		c-0.2-0.6-0.6-1.1-0.8-1.6c-0.3-0.5-0.5-1.1-0.9-1.6c-0.3-0.5-0.6-1-0.9-1.5s-0.7-1-1-1.5c-0.6-1-1.4-1.9-2.1-2.9
		c-1.5-1.8-3-3.6-4.7-5.3c-6.8-6.6-15.7-11.2-25.2-13.1c-9.5-1.9-19.1-1.1-28.1,2.2c-0.5,0.2-1.1,0.5-1.6,0.7
		c-0.3,0.1-0.6,0.2-0.8,0.3l-0.8,0.4l-1.8,0.9l-3.6,1.8l-14.8,7.4l-29.5,14.9l-59,29.7l-118.7,59.7c-15.2,7.4-31.7,12.8-48.8,15.9
		c-17.1,3-34.7,3.5-51.8,1.5c-17.2-1.9-33.9-6.5-49.8-13c-15.8-6.7-30.6-15.4-44.1-26.1c-13.3-10.7-25.3-23.3-35.3-37.5
		c-10-14.1-18.1-29.7-23.6-46.2c-5.6-16.5-8.7-33.6-9.5-50.6l-0.2-6.4v-1.6v-1.3v-2v-8.3V437V0.2"/>
</g>
<g>
	<path class="st0" d="M1284.2,0.6l1,633.6l0.5,110.7l0.1,27.7v3.4v0.9v0.5v0.9v1.9c0,0.6-0.1,1.2-0.1,1.9c0,0.6,0,1.2-0.1,1.9
		l-0.2,1.8c-0.1,1.2-0.3,2.5-0.5,3.7c-1.5,9.9-5.1,19.5-10.1,28.1l-0.5,0.8l-0.5,0.8l-1,1.6c-0.7,1-1.4,2-2.1,3l-1.1,1.5l-1.3,1.8
		c-2,2.6-4,5.4-6.1,8.1c-7.8,10.9-15,22.4-20.5,34.8c-5.7,12.2-10.3,24.9-13.5,38l-1.2,4.8l-1,5l-0.9,5c-0.3,1.6-0.6,3.3-0.8,5
		c-0.4,3.3-0.9,6.7-1.2,10c-0.2,1.6-0.3,3.3-0.4,5.1l-0.3,5.1l-0.3,5.1c-0.1,1.7,0,3.3,0,5.1c0,3.3,0,6.8,0.1,10.1
		c0.2,3.3,0.4,6.7,0.7,10.1l0.2,2.5l0.3,2.5l0.7,5.1l0.7,5c0.2,1.7,0.6,3.3,0.9,5c0.6,3.3,1.3,6.6,2,9.9c0.8,3.2,1.7,6.5,2.6,9.7
		l0.7,2.4c0.1,0.4,0.2,0.8,0.3,1.2l0.4,1.3l1.7,5.2l1.8,5.2l0.9,2.5l0.7,1.6l2.7,6.4l5.4,12.8l10.8,25.7l235.6,565.4"/>
	<path class="st0" d="M1299,0.6l1,633.6l0.5,110.7l0.1,27.7v3.4v0.9v0.6v1.1v2.2c0,0.7-0.1,1.5-0.1,2.2c-0.1,0.7-0.1,1.5-0.1,2.2
		l-0.2,2.2c-0.1,1.5-0.4,2.9-0.6,4.4c-1.8,11.7-6,23.1-12,33.3l-0.5,1l-0.6,0.9l-1.2,1.9c-0.8,1.2-1.7,2.4-2.5,3.6l-2.9,3.7
		l-5.7,7.5c-7.3,10.2-13.8,20.9-19.1,32.3c-5.3,11.3-9.6,23.1-12.5,35.4l-1.1,4.5l-0.9,4.6l-0.9,4.6c-0.3,1.5-0.6,3-0.8,4.6
		l-1.2,9.3c-0.2,1.5-0.3,3.1-0.4,4.6l-0.3,4.6l-0.3,4.6c0,1.5,0,3.1,0,4.6c0,3.1,0,6.3,0.1,9.4l0.6,9.4l0.2,2.3l0.3,2.3l0.6,4.6
		l0.6,4.6c0.2,1.5,0.6,3,0.8,4.6c0.6,3,1.2,6.2,1.9,9.2l2.4,9.1l0.6,2.2c0.1,0.4,0.2,0.7,0.3,1.1l0.4,1.2l1.6,4.7l1.6,4.7l0.8,2.3
		l0.7,1.6l2.7,6.4l5.4,12.8l10.7,25.6l235.5,565.2"/>
	<path class="st0" d="M1313.6,0.5l1,633.6l0.5,110.7l0.1,27.7v3.4v0.9v0.7v1.3v2.6c0,0.9-0.1,1.7-0.1,2.5c-0.1,0.8-0.1,1.7-0.2,2.5
		l-0.3,2.5c-0.1,1.7-0.4,3.4-0.7,5.2c-2,13.6-7,26.8-13.9,38.6l-0.6,1.1l-0.7,1.1l-1.4,2.1c-0.9,1.4-2,2.8-2.9,4.2l-3.2,4.2l-5.3,7
		c-6.8,9.4-12.8,19.3-17.6,29.9c-4.8,10.5-8.9,21.4-11.6,32.6l-1.1,4.2l-0.8,4.2l-0.8,4.2c-0.3,1.4-0.6,2.8-0.7,4.2l-1.1,8.6
		c-0.2,1.4-0.3,2.8-0.4,4.3l-0.3,4.3l-0.2,4.3c0,1.4,0,2.9,0,4.3c0,2.9,0,5.8,0.1,8.7l0.6,8.7l0.2,2.1l0.3,2.1l0.6,4.3l0.6,4.3
		c0.2,1.4,0.5,2.8,0.8,4.2c0.6,2.8,1.1,5.7,1.7,8.5c1.5,5.7,2.8,11.1,5,16.9l1.5,4.3l0.8,2.1l0.7,1.6l2.7,6.4l5.4,12.8l10.7,25.6
		l235.5,565"/>
	<path class="st0" d="M1328.4,0.4l1,633.5l0.5,110.7l0.1,27.7v3.4v0.9v0.7v1.5v2.9c0,1-0.1,1.9-0.2,2.9s-0.1,1.9-0.2,2.9l-0.3,2.9
		c-0.2,1.9-0.5,3.8-0.8,5.9c-2.3,15.5-7.9,30.4-15.9,43.9l-0.7,1.3l-0.8,1.2l-1.6,2.4c-1.1,1.6-2.2,3.2-3.3,4.8l-3.6,4.7l-4.8,6.4
		c-6.2,8.7-11.8,17.8-16.2,27.5c-4.4,9.6-8.2,19.7-10.7,30l-1,3.8l-0.8,3.9l-0.7,3.9c-0.2,1.3-0.5,2.6-0.7,3.9l-1,7.9
		c-0.2,1.3-0.3,2.6-0.3,3.9l-0.2,3.9l-0.2,3.9c0,1.3,0,2.6,0,3.9c0,2.6,0,5.4,0.1,8l0.5,8l0.1,2l0.3,2l0.5,3.9l0.5,3.9
		c0.2,1.3,0.5,2.6,0.7,3.9l1.6,7.8c1.4,5.2,2.6,10.2,4.5,15.5l1.3,3.8l0.7,1.9l0.7,1.6l2.7,6.4l5.4,12.8l10.9,25.7l235.4,564.8"/>
	<path class="st0" d="M1343.1,0.3l1,633.5l0.5,110.7l0.1,27.7c0,2.3,0,4.6,0,6.8l-0.1,3.3c0,1.1-0.1,2.2-0.2,3.2
		c-0.1,1.1-0.1,2.2-0.2,3.2l-0.3,3.2c-0.2,2.2-0.5,4.3-0.8,6.5c-2.6,17.3-8.8,34.1-17.8,49.1l-0.8,1.4l-0.9,1.4l-1.8,2.7
		c-1.2,1.8-2.5,3.6-3.7,5.4l-4,5.3l-4.3,5.8c-5.7,7.9-10.8,16.2-14.8,25.1c-4,8.8-7.5,17.9-9.7,27.4l-0.9,3.5l-0.7,3.5l-0.7,3.5
		c-0.2,1.2-0.5,2.4-0.6,3.5l-0.9,7.2c-0.2,1.2-0.2,2.4-0.3,3.6l-0.2,3.6l-0.2,3.6c0,1.2,0,2.4,0,3.6c0,2.4,0,4.8,0.1,7.3l0.5,7.3
		l0.1,1.8l0.2,1.8l0.5,3.6l0.5,3.6c0.1,1.2,0.4,2.4,0.7,3.5l1.4,7.2c1.3,4.6,2.4,9.4,4.1,14l1.2,3.4l0.6,1.7l0.7,1.6l2.7,6.4
		l5.4,12.7l10.7,25.6l235.3,564.6"/>
	<path class="st0" d="M1357.8,0.3l1,633.5l0.5,110.7l0.1,27.7c0,2.3,0,4.5,0,7.1l-0.1,3.6c0,1.2-0.1,2.4-0.2,3.6
		c-0.1,1.2-0.1,2.4-0.2,3.6l-0.4,3.6c-0.2,2.4-0.6,4.8-0.9,7.2c-2.9,19.2-9.8,37.7-19.7,54.4l-0.9,1.6l-1,1.5l-1.9,3
		c-1.3,2-2.7,3.9-4.1,6l-4.4,5.8l-3.9,5.3c-5.1,7.2-9.7,14.5-13.3,22.6c-3.6,8-6.8,16.2-8.8,24.8l-0.8,3.1l-0.6,3.2l-0.6,3.2
		c-0.2,1.1-0.5,2.1-0.6,3.2l-0.8,6.6c-0.2,1.1-0.2,2.2-0.3,3.2l-0.2,3.2l-0.2,3.2c0,1.1,0,2.2,0,3.3c0,2.2,0,4.3,0.1,6.6l0.5,6.6
		l0.1,1.6l0.2,1.6l0.4,3.2l0.4,3.2c0.1,1.1,0.4,2.1,0.6,3.2l1.3,6.5c1.2,4.2,2.1,8.5,3.7,12.5l1,3l0.5,1.5l0.7,1.6l2.7,6.4l5.4,12.7
		l10.7,25.6l235.2,564.5"/>
	<path class="st0" d="M1372.5,0.2l1,633.5l0.5,110.7l0.1,27.7v3.4v0.9v1v2l-0.1,3.9c0,1.3-0.1,2.6-0.2,3.9c-0.1,1.3-0.1,2.6-0.3,3.9
		l-0.4,3.9c-0.2,2.6-0.7,5.3-1,7.9c-3.2,21-10.7,41.4-21.6,59.6l-1,1.7l-1.1,1.7l-2.1,3.3c-1.4,2.2-3,4.3-4.5,6.6
		c-0.8,1.1-1.6,2.1-2.4,3.1l-2.3,3l-3.5,4.6c-4.5,6.4-8.7,13-11.9,20.2c-3.2,7.1-6.1,14.4-7.9,22l-0.7,2.8l-0.5,2.9l-0.5,2.9
		c-0.2,1-0.4,1.9-0.5,2.9l-0.7,5.9c-0.2,1-0.2,1.9-0.2,2.9l-0.2,2.9l-0.2,2.9c0,1,0,1.9,0,2.9c0,1.9,0,3.9,0.1,5.9l0.4,5.9l0.1,1.4
		l0.2,1.4l0.4,2.9l0.4,2.9c0.1,1,0.4,1.9,0.5,2.9l1.1,5.8c1.1,3.7,1.9,7.7,3.2,11.1l0.9,2.6l0.4,1.3l0.7,1.6l2.6,6.4l5.4,12.7
		l10.7,25.5l235.2,564.3"/>
	<path class="st0" d="M1387.2,0.1l1,633.5l0.5,110.7l0.1,27.7v3.4v0.9v1v2.1l-0.1,4.3c-0.1,1.4-0.2,2.9-0.2,4.3
		c-0.1,1.4-0.2,2.9-0.3,4.3l-0.4,4.3c-0.3,2.9-0.7,5.8-1.1,8.6c-3.5,22.9-11.6,45.1-23.4,65l-1.1,1.9l-1.2,1.8l-2.3,3.6
		c-1.6,2.4-3.3,4.7-5,7.1c-0.9,1.2-1.7,2.3-2.6,3.4l-2.5,3.2l-3.1,4.1c-3.9,5.7-7.7,11.4-10.5,17.8c-2.8,6.3-5.4,12.7-6.9,19.4
		l-0.7,2.5l-0.5,2.5l-0.5,2.5c-0.2,0.8-0.4,1.7-0.4,2.5l-0.6,5.2c-0.1,0.8-0.2,1.7-0.2,2.5l-0.1,2.5l-0.2,2.5c0,0.9,0,1.7,0,2.6
		c0,1.7,0,3.4,0,5.2l0.4,5.2l0.1,1.3l0.2,1.3l0.3,2.5l0.3,2.5c0.1,0.8,0.3,1.7,0.5,2.5l1,5.1c1,3.2,1.7,6.8,2.8,9.6l0.7,2.2l0.4,1.1
		l0.7,1.6l2.6,6.4l5.4,12.7l10.7,25.5l235.1,564.1"/>
	<path class="st0" d="M1401.9,0.1l1,633.5l0.5,110.7l0.1,27.7v3.4v0.9v1.1v2.3l-0.1,4.6c-0.1,1.5-0.2,3.1-0.2,4.6
		c-0.1,1.5-0.2,3.1-0.3,4.6l-0.5,4.6c-0.3,3.1-0.8,6.2-1.2,9.3c-3.8,24.8-12.5,48.7-25.4,70.2l-1.2,2l-1.2,2l-2.5,3.9
		c-1.7,2.6-3.5,5.2-5.4,7.7c-0.9,1.2-1.9,2.5-2.8,3.7l-2.7,3.5c-0.9,1.2-1.7,2.4-2.6,3.5c-3.4,4.8-6.7,9.9-9,15.4
		c-2.4,5.4-4.6,11-6,16.8l-0.6,2.1l-0.4,2.2l-0.4,2.2c-0.1,0.7-0.3,1.4-0.4,2.2c-0.2,1.5-0.3,2.9-0.5,4.4c-0.1,0.7-0.1,1.5-0.2,2.2
		l-0.1,2.2l-0.2,2.2c0,0.7,0,1.5,0,2.2c0,1.5,0,2.9,0,4.4c0.1,1.5,0.2,2.9,0.3,4.4l0.1,1.1l0.2,1.1l0.3,2.2l0.3,2.2
		c0.1,0.7,0.3,1.4,0.4,2.2c0.3,1.4,0.6,2.9,0.9,4.3c0.8,2.8,1.5,6,2.4,8.2l0.6,1.8l0.3,0.9l0.7,1.6l2.6,6.4l5.4,12.7l10.7,25.5
		l235,563.9"/>
	<path class="st0" d="M1416.7,0l1,633.5l0.5,110.7l0.1,27.7v3.4v2v2.5l-0.1,5.1c-0.1,1.7-0.2,3.3-0.3,5.1c-0.1,1.7-0.2,3.3-0.3,5.1
		l-0.5,5.1c-0.3,3.3-0.8,6.7-1.3,10c-4.1,26.6-13.5,52.3-27.3,75.5l-1.3,2.1l-1.3,2.1l-2.7,4.2c-1.8,2.8-3.8,5.6-5.8,8.3
		c-1,1.3-2,2.6-3,4l-2.8,3.7c-0.7,1-1.5,2-2.2,3c-2.8,4.1-5.7,8.3-7.6,12.9c-2,4.5-3.9,9.2-5.1,14.1l-0.5,1.8l-0.3,1.8l-0.4,1.8
		c-0.1,0.6-0.3,1.2-0.3,1.8c-0.1,1.2-0.3,2.5-0.5,3.7c-0.1,0.6-0.1,1.2-0.2,1.9l-0.1,1.9l-0.1,1.9c0,0.6,0,1.2,0,1.9
		c0,1.2,0,2.5,0,3.7c0.1,1.2,0.2,2.5,0.3,3.7v0.9l0.1,0.9l0.3,1.8l0.2,1.8c0,0.6,0.3,1.2,0.4,1.8c0.3,1.2,0.5,2.4,0.7,3.6
		c0.4,1.2,0.7,2.4,1,3.6l0.2,0.9c0,0.1,0.1,0.3,0.1,0.4l0.1,0.3c0.2,0.5,0.3,0.9,0.5,1.4s0.3,0.9,0.4,1.4l0.2,0.7l0.7,1.6l2.6,6.4
		l5.4,12.7l10.7,25.5l235,563.7"/>
</g>
</svg>
