<?xml version="1.0" encoding="utf-8"?>
<!-- Generator: $$$/GeneralStr/196=Adobe Illustrator 27.6.0, SVG Export Plug-In . SVG Version: 6.00 Build 0)  -->
<svg version="1.1" id="圖層_1" xmlns="http://www.w3.org/2000/svg" xmlns:xlink="http://www.w3.org/1999/xlink" x="0px" y="0px"
	 viewBox="0 0 774 309" style="enable-background:new 0 0 774 309;" xml:space="preserve">
<style type="text/css">
	.st0{fill:url(#SVGID_1_);}
	.st1{fill:#FF5ACD;}
	.st2{fill:#A50082;}
</style>
<g>
	<linearGradient id="SVGID_1_" gradientUnits="userSpaceOnUse" x1="21.4116" y1="246.3033" x2="222.2638" y2="45.4511">
		<stop  offset="0" style="stop-color:#FF5ACD"/>
		<stop  offset="1" style="stop-color:#FBDA61"/>
	</linearGradient>
	<path class="st0" d="M141,308.4c-37.8-0.3-73.4-15.4-100.1-42.6C14.2,238.6-0.3,202.8,0,165c0.4-51.6,28.9-98.9,74.2-123.6
		c3-2.8,3.1-4.9,2.9-6.3c-1-7.9-15.8-17.8-24.9-22.3L26.2,0l28.9,3.3c31.2,3.6,54.6,14.6,68.8,23.1c14.4,8.7,21.9,16.5,22.2,16.8
		l8.1,8.5h-11.7C79.4,51.7,28.1,103,28.1,166c0,29.8,11.4,58.1,32.2,79.5c20.7,21.4,48.5,33.7,78.1,34.7c1.3,0,2.6,0.1,3.9,0.1
		c30.2,0,58.7-11.8,80.4-33.3c21.7-21.5,33.8-50.1,34-80.4c0.2-40.3-21.2-78.2-55.9-98.9l-0.2-0.1c-0.1-0.1-0.2-0.1-0.3-0.2
		l-0.2-0.1l-0.3-0.2c-6.3-4.2-8-12.7-3.9-19c2.6-3.9,6.9-6.2,11.5-6.2c2.7,0,5.3,0.8,7.5,2.2c0.4,0.3,0.7,0.5,1,0.7
		c20.3,12.4,37.4,29.9,49.3,50.6c12.3,21.4,18.8,45.9,18.8,70.7c0,78.4-63.7,142.1-142.1,142.1L141,308.4z"/>
	<circle class="st1" cx="174" cy="27.1" r="15.1"/>
	<g>
		<path class="st2" d="M59.1,157.5h9.7l-5.6,32.1h-9.7L59.1,157.5z M60.8,153c-1-0.8-1.4-1.9-1.4-3.3c0-1.8,0.7-3.4,2.1-4.7
			c1.4-1.3,3.1-1.9,5.1-1.9c1.6,0,2.9,0.4,3.9,1.2c1,0.8,1.4,1.9,1.4,3.3c0,1.8-0.7,3.4-2.1,4.7c-1.4,1.3-3.1,1.9-5.1,1.9
			C63,154.2,61.7,153.8,60.8,153z"/>
		<path class="st2" d="M109,178H85.7L78,189.6h-7.7l32-46.5h7.1l14.3,46.5h-11.3L109,178z M107.8,173.9l-6-20.5l-13.5,20.5H107.8z"
			/>
		<path class="st2" d="M134.1,185.6c-3.8-3.1-5.7-7.5-5.7-13.4c0-5.9,1.2-11,3.7-15.4c2.5-4.4,6-7.8,10.6-10.1
			c4.6-2.4,10-3.6,16.2-3.6c7.2,0,12.6,1.3,16.2,4c3.6,2.7,5.3,6.6,5.3,11.7h-8.7c0-3.8-1.2-6.7-3.5-8.7c-2.3-2-5.5-3-9.8-3
			c-3.7,0-7,1.1-9.9,3.3c-2.9,2.2-5.1,5.2-6.7,9.1c-1.6,3.9-2.4,8.3-2.4,13.3c0,4.4,1,7.7,3.1,10c2.1,2.3,5.1,3.4,9.1,3.4
			c4.2,0,7.8-1,10.8-3c2.9-2,5.1-4.9,6.5-8.7h8.7c-1.6,5.1-4.6,9-9.2,11.7c-4.6,2.7-10.5,4-17.7,4
			C143.4,190.2,137.9,188.7,134.1,185.6z"/>
		<path class="st2" d="M190.9,143.7h19.6c8,0,14.1,1.5,18.2,4.4c4.2,2.9,6.3,7.3,6.3,12.9c0,5.7-1.3,10.7-4,15s-6.4,7.6-11.2,10
			c-4.8,2.3-10.5,3.5-17,3.5h-20L190.9,143.7z M204.5,185.5c3.8,0,7.1-1.1,10-3.2c2.9-2.1,5.2-5.1,6.8-8.9c1.6-3.8,2.5-8.2,2.5-13
			c0-4.1-1.1-7.2-3.2-9.4c-2.1-2.1-5.3-3.2-9.5-3.2h-9.8l-6.6,37.7H204.5z"/>
	</g>
</g>
<g>
	<path class="st2" d="M323.4,123.7c-0.7-0.7-1-1.8-1-3.4V92c0-1.6,0.4-2.7,1.1-3.4c0.7-0.7,1.8-1.1,3.4-1.1h27.1
		c1.6,0,2.7,0.4,3.4,1.1c0.7,0.7,1,1.8,1,3.4v28.3c0,1.6-0.4,2.7-1.1,3.4c-0.7,0.7-1.8,1-3.4,1h-27.1
		C325.3,124.7,324.1,124.4,323.4,123.7z M354.9,119.3V92.9c0-1.5-0.8-2.2-2.3-2.2h-24.6c-1.5,0-2.3,0.7-2.3,2.2v26.4
		c0,1.5,0.8,2.3,2.3,2.3h24.6C354.2,121.6,354.9,120.8,354.9,119.3z M327,117.2c-0.2-0.3-0.3-0.7-0.3-1.2c0-0.6,0.2-1,0.6-1.2
		c0.4-0.2,1.6-0.5,3.7-0.8c0.6-0.1,1.3-0.2,2.1-0.4c0.8-0.2,1.4-0.3,1.7-0.4l2.1-0.5l2-0.4l1-0.2c0.4-0.1,0.7,0,0.9,0.3
		c0.2,0.3,0.3,0.6,0.3,1.1c0,0.3-0.1,0.5-0.3,0.8s-0.4,0.4-0.7,0.4l-0.6,0.2c-0.3,0.1-1.1,0.3-2.3,0.7c-0.3,0.1-0.8,0.2-1.5,0.4
		c-0.7,0.1-1.2,0.3-1.6,0.4l-2.2,0.5c-2.4,0.5-3.7,0.8-4,0.8C327.5,117.6,327.2,117.5,327,117.2z M336.8,118.8c0-0.3,0.2-0.6,0.6-1
		c0.4-0.4,0.8-0.7,1.4-1c2-1,3.7-2.3,5.1-3.9c-1.5-3.6-2.4-8.1-2.6-13.7h-12.5c-0.7,0-1.1-0.1-1.5-0.3c-0.3-0.2-0.5-0.6-0.5-1.2
		c0-0.5,0.2-0.9,0.5-1.2c0.3-0.3,0.8-0.4,1.5-0.4h12.3v-2.3c0-1.3,0.5-1.9,1.6-1.9c0.5,0,0.9,0.2,1.2,0.6c0.3,0.4,0.4,1,0.4,1.7v1.9
		h7.6c0.7,0,1.1,0.1,1.5,0.4c0.3,0.3,0.5,0.7,0.5,1.2c0,0.5-0.2,0.9-0.5,1.2c-0.3,0.2-0.8,0.3-1.5,0.3h-7.4c0.1,2.7,0.2,4.9,0.5,6.5
		c0.3,1.6,0.7,3,1.2,4c0.8-1.4,1.8-3.6,2.8-6.5c0.3-1,0.9-1.5,1.5-1.5c0.6,0,1,0.1,1.3,0.3c0.3,0.2,0.4,0.6,0.4,1.1
		c0,0.4-0.5,1.7-1.5,4c-1.1,2.5-2.1,4.4-3.2,5.8v0c0.5,1,1.1,1.8,1.6,2.4c0.5,0.6,1,0.9,1.3,0.9c0.3,0,0.5-0.3,0.8-0.8
		c0.2-0.5,0.4-1.3,0.5-2.2c0.1-0.4,0.2-0.7,0.4-0.9c0.2-0.2,0.5-0.3,0.8-0.3c0.9,0,1.3,0.5,1.3,1.4c0,1.6-0.3,3.1-0.9,4.5
		c-0.7,1.5-1.5,2.3-2.5,2.3c-1.8,0-3.6-1.5-5.4-4.5h-0.1c-0.5,0.7-1.1,1.3-1.7,1.8c-0.6,0.5-1.3,1-2.1,1.5c-0.9,0.5-1.6,0.9-2.1,1.1
		s-0.8,0.3-1.1,0.3C337.3,120.3,336.8,119.8,336.8,118.8z M328.2,108v-3.7c0-1.9,1-2.9,3.1-2.9h5.3c1,0,1.7,0.2,2.2,0.7
		c0.5,0.5,0.7,1.2,0.7,2.2v3.7c0,2-1,3-3,3h-5.3C329.3,110.9,328.2,109.9,328.2,108z M336.6,107.2V105c0-0.4-0.1-0.6-0.2-0.8
		c-0.1-0.2-0.4-0.2-0.8-0.2h-3.4c-0.7,0-1,0.3-1,1v2.2c0,0.7,0.3,1,1,1h3.4C336.3,108.3,336.6,107.9,336.6,107.2z M349,95.3
		c-0.2-0.2-0.5-0.6-0.9-1.1c-0.6-0.7-0.9-1.3-0.9-1.6c0-0.4,0.1-0.7,0.4-0.9c0.3-0.2,0.6-0.3,1-0.3s1,0.4,1.7,1.2s1,1.4,1,1.8
		c0,0.9-0.5,1.3-1.5,1.3C349.5,95.6,349.2,95.5,349,95.3z"/>
	<path class="st2" d="M418.7,121.2c0,1.1-0.7,1.7-2.1,1.7H382c-1.4,0-2.1-0.6-2.1-1.7c0-0.6,0.2-1,0.5-1.3c0.3-0.3,0.9-0.4,1.6-0.4
		h20.8c2-6.6,3.5-12.2,4.5-16.8c0.3-1.7,0.6-2.8,0.9-3.2c0.4-0.5,1-0.8,1.7-0.8c1.4,0,2.1,0.6,2.1,1.8c0,0.8-0.8,3.9-2.5,9.3
		l-3.1,9.6h10.2C418,119.5,418.7,120,418.7,121.2z M382,95.9c-0.4-0.3-0.5-0.7-0.5-1.3s0.2-1,0.5-1.3c0.4-0.3,0.9-0.4,1.7-0.4h13.5
		v-4.5c0-1.4,0.6-2.1,1.9-2.1c0.6,0,1.1,0.2,1.4,0.5c0.3,0.3,0.4,0.9,0.4,1.6v4.5h14c0.7,0,1.3,0.1,1.7,0.4c0.4,0.3,0.5,0.7,0.5,1.3
		s-0.2,1-0.5,1.3c-0.4,0.3-0.9,0.4-1.7,0.4h-31.2C382.9,96.3,382.4,96.2,382,95.9z M389.7,101.1c0.5,1,1.2,3.4,2.2,7.2
		c1.1,4,1.6,6.3,1.6,6.9c0,1.3-0.7,1.9-2,1.9c-1.1,0-1.8-1.1-2.3-3.2c-0.4-2-0.8-3.8-1.2-5.3c-0.2-0.7-0.5-1.6-0.9-3l-0.4-1.3
		c-0.1-0.2-0.1-0.4-0.2-0.6c-0.1-0.2-0.1-0.4-0.2-0.7c-0.3-0.8-0.4-1.3-0.4-1.5c0-1.1,0.6-1.6,1.9-1.6
		C388.7,99.9,389.3,100.3,389.7,101.1z"/>
	<path class="st2" d="M438.9,89.7c0-0.9,0.5-1.3,1.5-1.3h16.1v-0.9c0-0.5,0.1-0.9,0.4-1.1c0.3-0.2,0.7-0.4,1.3-0.4
		c1.1,0,1.7,0.5,1.7,1.5v0.9h16.3c1,0,1.5,0.4,1.5,1.3s-0.5,1.3-1.5,1.3h-16.3v1.5h13.7c1,0,1.5,0.4,1.5,1.2c0,0.8-0.5,1.2-1.5,1.2
		H443c-1,0-1.5-0.4-1.5-1.2c0-0.8,0.5-1.2,1.5-1.2h13.4v-1.5h-16.1C439.4,90.9,438.9,90.5,438.9,89.7z M477.5,123
		c0,0.9-0.5,1.3-1.6,1.3h-35.4c-1,0-1.5-0.4-1.5-1.3c0-0.9,0.5-1.3,1.5-1.3h15.9v-1.9h-13.1c-0.9,0-1.4-0.4-1.4-1.3
		c0-0.8,0.5-1.2,1.4-1.2h13.1v-1.9l-1.1,0h-1.1l-11,0.3c-1,0-1.5-0.4-1.5-1.4c0-0.9,0.5-1.3,1.4-1.4l7,0l1.3-2.4h-6.6
		c-0.9,0-1.4-0.4-1.4-1.2c0-0.8,0.5-1.2,1.4-1.2h26.6c0.9,0,1.4,0.4,1.4,1.2c0,0.8-0.5,1.2-1.4,1.2H467c0.6,0.2,2,0.8,4.1,1.8
		c2.6,1.2,3.9,2.2,3.9,2.9c0,1-0.5,1.5-1.5,1.5c-0.3,0-1-0.4-2-1.1l-1-0.7l-10.7,0.4v2.1h13.2c0.9,0,1.4,0.4,1.4,1.2
		c0,0.9-0.5,1.3-1.4,1.3h-13.2v1.9h16.1C477,121.7,477.5,122.1,477.5,123z M474,109.7v-2.2c0-0.8-0.4-1.2-1.2-1.2h-29.1
		c-0.4,0-0.7,0.1-0.9,0.3s-0.3,0.5-0.3,0.8v2.2c0,1.1-0.5,1.7-1.6,1.7c-1.1,0-1.7-0.6-1.7-1.7v-2.5c0-1.2,0.3-2,0.8-2.6
		c0.5-0.5,1.4-0.8,2.5-0.7H474c1.2,0,2.1,0.3,2.6,0.8c0.5,0.5,0.8,1.4,0.7,2.5v2.5c0,1.1-0.6,1.7-1.7,1.7S474,110.8,474,109.7z
		 M442.2,100.1v-1.4c0-0.7,0.2-1.3,0.7-1.7c0.4-0.4,1.1-0.6,2-0.6h26.7c1.8,0,2.7,0.8,2.7,2.4v1.4c0,1.6-0.9,2.4-2.6,2.4h-26.7
		C443.1,102.6,442.2,101.8,442.2,100.1z M445.7,98.9c-0.1,0.1-0.2,0.3-0.2,0.6c0,0.3,0.1,0.5,0.2,0.6c0.1,0.1,0.3,0.2,0.6,0.2h23.9
		c0.3,0,0.5-0.1,0.6-0.2c0.1-0.1,0.2-0.3,0.2-0.6c0-0.3-0.1-0.5-0.2-0.6c-0.1-0.1-0.3-0.2-0.6-0.2h-23.9
		C446,98.7,445.8,98.7,445.7,98.9z M467,112.7l-0.6-0.3c-1.1-0.5-1.7-1-1.7-1.5c0-0.3,0.2-0.6,0.5-0.7h-10.4l-0.5,0.6l-1.2,1.8H467z
		"/>
	<path class="st2" d="M508.8,123v-6.3l-0.5,0.3c-5.2,2.8-8.2,4.3-9,4.3c-1.1,0-1.7-0.7-1.7-2.1c0-0.6,0.2-1,0.5-1.3
		c0.5-0.4,1.3-0.8,2.5-1.2c2.4-0.9,5.1-2.1,8.1-3.6V101h-8.9c-1.5,0-2.2-0.6-2.2-1.8s0.7-1.8,2.2-1.8h8.9v-8.9
		c0-1.5,0.6-2.3,1.8-2.3s1.8,0.8,1.8,2.3V123c0,1.5-0.6,2.2-1.8,2.2S508.8,124.5,508.8,123z M521.5,123.7c-1.5-0.4-2.3-1.5-2.3-3.3
		V88.6c0-1.5,0.6-2.3,1.8-2.3c1.2,0,1.8,0.8,1.8,2.3v11.1c2.9-1.4,5.7-3.1,8.6-4.9c0.8-0.5,1.4-0.8,1.9-0.8c1.4,0,2.1,0.6,2.1,1.9
		c0,0.3-0.2,0.7-0.7,1.1c-0.4,0.4-1.1,0.9-2,1.5c-1.7,1-5,2.6-9.8,4.8v15c0,1.3,0.5,2,1.6,2.2h3.7c2.2,0,3.6-0.3,4.1-0.9
		c0.4-0.5,0.6-1.8,0.6-4c0-1.2,0.7-1.8,1.9-1.8c1.3,0,2,0.7,2,2c0,4.5-1,7.1-3.1,7.8c-0.9,0.3-2.9,0.5-6,0.5
		C524.3,124,522.3,123.9,521.5,123.7z"/>
	<path class="st2" d="M558.4,123.1v-21.4c0-1.4,0.3-2.5,0.9-3.1c0.6-0.6,1.6-0.9,3-0.8h4.3l-0.8-4.8h-7.3c-1.3,0-1.9-0.5-1.9-1.6
		c0-1.1,0.6-1.6,1.9-1.6h15.5v-1.9c0-1.1,0.7-1.7,2-1.7c1.3,0,1.9,0.6,1.9,1.7v1.9h15.9c1.3,0,2,0.5,2,1.6c0,1.1-0.7,1.6-2,1.6h-7.6
		l-1.2,4.8h4.9c1.4,0,2.4,0.3,3.1,0.9c0.6,0.6,0.9,1.6,0.8,3v19c0.2,3.1-1.2,4.6-4.4,4.3h-2.8c-1.2,0-1.8-0.6-1.8-1.8
		s0.6-1.8,1.8-1.8h2.1c1.1,0,1.6-0.6,1.6-1.7v-17.4c0-1-0.5-1.5-1.5-1.5h-8.5v3.8c0,1,0.7,1.5,2.2,1.5c1.3,0,2.2-0.1,2.8-0.3
		c0.4-0.1,0.6-0.6,0.6-1.3c0-0.5,0.2-0.9,0.4-1.1c0.2-0.2,0.6-0.4,1-0.4c0.9,0,1.4,0.4,1.4,1.3c0,1.4-0.3,2.5-0.9,3.4
		c-0.5,0.8-2.1,1.2-4.8,1.2h-1.4c-1.8,0-3-0.2-3.5-0.6c-0.5-0.3-0.8-1-0.9-1.9v-5.5h-4.1c-0.3,3.3-1.8,5.8-4.5,7.6
		c-1.7,1.1-2.8,1.6-3.5,1.6c-0.5,0-0.9-0.1-1.2-0.4s-0.4-0.7-0.4-1.2c0-0.6,0.5-1.2,1.6-1.6c2.7-1.2,4.3-3.2,4.8-6h-6.5
		c-1,0-1.5,0.5-1.5,1.5v20.8c0,1.4-0.6,2.1-1.7,2.1C559,125.1,558.4,124.5,558.4,123.1z M567.2,120.7c-0.5-0.5-0.8-1.4-0.7-2.6V114
		c0-1.2,0.3-2,0.8-2.6s1.3-0.8,2.5-0.8h12.5c1.2,0,2.1,0.3,2.6,0.8c0.5,0.5,0.8,1.4,0.7,2.5v4.1c0,1.2-0.3,2.1-0.8,2.6
		c-0.5,0.6-1.4,0.8-2.5,0.8h-12.5C568.6,121.5,567.7,121.2,567.2,120.7z M582.6,93h-13.4c0.3,1.5,0.6,3.1,0.8,4.8h11.5
		C582,95.8,582.4,94.2,582.6,93z M582.2,117.5v-2.8c0-0.7-0.4-1.1-1.2-1.2h-10.2c-0.8,0-1.2,0.4-1.2,1.2v2.8c0,0.7,0.4,1.1,1.2,1.2
		h10.2C581.8,118.6,582.2,118.2,582.2,117.5z"/>
	<path class="st2" d="M654.7,122.3c0,0.6-0.1,1.1-0.4,1.4c-0.3,0.3-0.7,0.4-1.1,0.4c-1-0.1-3-0.7-6.1-1.7c-4.4-1.5-7.9-3.5-10.5-6v7
		c0,1.3-0.6,2-1.7,2c-1.1,0-1.7-0.7-1.7-2v-6.9c-2.3,1.9-5.2,3.6-8.7,5.3c-3.5,1.7-6,2.5-7.5,2.5c-1,0-1.5-0.6-1.5-1.8
		c0-0.8,0.6-1.3,1.8-1.6c2.7-0.7,5.3-1.6,7.8-2.8c2.5-1.2,4.9-2.6,7.1-4.1h-15c-0.6,0-1-0.1-1.3-0.3c-0.3-0.2-0.4-0.6-0.4-1.1
		c0-0.5,0.1-0.8,0.4-1.1c0.3-0.2,0.7-0.3,1.3-0.3h16v-2.7h-12.5c-1.1,0-1.6-0.5-1.6-1.4s0.5-1.4,1.6-1.4h12.5v-2.8h-14.4
		c-1.1,0-1.6-0.5-1.6-1.5c0-0.9,0.5-1.4,1.6-1.4h7.8l-1.2-4.3h-8c-1.1,0-1.7-0.5-1.7-1.5c0-1,0.6-1.5,1.7-1.5h11.6v-4.6
		c0-1.3,0.5-2,1.6-2c1.1,0,1.7,0.7,1.7,2v4.6h5v-4.6c0-1.3,0.5-2,1.6-2c1.1,0,1.7,0.7,1.7,2v4.6h12.2c1.1,0,1.7,0.5,1.7,1.5
		c0,1-0.6,1.5-1.7,1.5h-8.5l-1.4,4.3h8.6c1.1,0,1.7,0.5,1.7,1.4c0,1-0.6,1.5-1.7,1.5h-14.7v2.8h12.8c1,0,1.5,0.5,1.5,1.4
		s-0.5,1.4-1.5,1.4h-12.8v2.7h16.2c1.1,0,1.7,0.5,1.7,1.4c0,1-0.6,1.5-1.7,1.5h-15.1c1.8,1.5,4,2.8,6.6,4s5.3,2,8.4,2.5
		C653.9,120.7,654.7,121.3,654.7,122.3z M621.4,90.6c-0.8-1.1-1.2-1.8-1.2-2.1c0-0.9,0.6-1.4,1.7-1.4c0.8,0,1.5,0.5,2.3,1.5
		c0.8,1,1.2,1.7,1.2,2.1c0,1-0.6,1.5-1.7,1.5C622.9,92.2,622.2,91.7,621.4,90.6z M628.7,95.7l1.2,4.3h9.5l1.2-4.3H628.7z
		 M644.2,90.8c0-0.1,0.1-0.4,0.4-0.8c0.3-0.4,0.5-0.8,0.6-1.1c0.7-1.4,1.5-2.1,2.4-2.1c1.1,0,1.6,0.5,1.6,1.4c0,0.6-0.4,1.5-1.2,2.5
		c-0.8,1.1-1.6,1.6-2.2,1.6C644.7,92.3,644.2,91.8,644.2,90.8z"/>
	<path class="st2" d="M674.5,122.9c0-0.4,0.2-0.7,0.5-1.1c0.4-0.3,0.9-0.7,1.7-1.1c8.6-4.2,13.4-10.9,14.4-20.3h-14
		c-0.7,0-1.3-0.1-1.7-0.4c-0.4-0.3-0.5-0.7-0.5-1.3s0.2-1,0.5-1.3c0.4-0.3,0.9-0.4,1.7-0.4h14.4c0.1-1.3,0.2-4.1,0.2-8.5
		c0-1.5,0.6-2.2,1.8-2.2c0.6,0,1.1,0.2,1.4,0.6c0.3,0.4,0.5,0.9,0.5,1.6c0,1.7-0.1,4.6-0.2,8.5h15.6c1.5,0,2.2,0.6,2.2,1.7
		c0,1.2-0.7,1.8-2.2,1.8h-15.1c1,4.2,2.9,8,5.7,11.4c2.8,3.5,6.3,6.3,10.4,8.6c1.1,0.6,1.6,1.3,1.6,2.1c0,1.4-0.6,2.1-1.9,2.1
		c-0.3,0-0.9-0.2-1.7-0.7c-0.8-0.5-2.1-1.3-3.8-2.4c-2.8-1.9-5.3-4.3-7.3-7.2c-2.2-3-3.7-6-4.6-8.9c-2,7.6-6.3,13.4-12.9,17.4
		c-2.2,1.3-3.7,2-4.7,2C675.1,124.8,674.5,124.2,674.5,122.9z"/>
	<path class="st2" d="M772.2,116.6c0,0.9-0.6,1.4-1.8,1.4h-16.3v3.1c0,1.5-0.3,2.7-1,3.4c-0.7,0.7-1.7,1-3.1,0.9h-2.6
		c-0.7,0-1.2-0.1-1.6-0.4c-0.3-0.3-0.5-0.7-0.5-1.2c0-1.1,0.7-1.6,2.1-1.6h1.7c1.1,0,1.6-0.6,1.7-1.7V118h-15.5
		c-1.1,0-1.7-0.5-1.7-1.4s0.6-1.4,1.7-1.4h15.5V114c0-0.7,0.2-1.1,0.7-1.4c0.5-0.3,1.6-0.6,3.4-1.1l4.5-1.2v-0.1h-19
		c-1.1,0-1.7-0.4-1.7-1.3c0-0.5,0.1-0.8,0.4-1c0.3-0.2,0.7-0.3,1.3-0.3h23c1.1,0,1.9,0.1,2.5,0.4c0.6,0.2,0.9,0.6,0.9,1.1
		c0,0.5-1,1.1-3,1.9c-2,0.8-4.7,1.7-8.3,2.8c-0.9,0.3-1.4,0.7-1.4,1.2v0.3h16.3C771.6,115.2,772.2,115.6,772.2,116.6z M734.1,109.3
		V106c0-1.2,0.2-2,0.7-2.6c0.5-0.5,1.2-0.8,2.2-0.9h0.6l-0.9-12.3c0-0.7,0.1-1.3,0.5-1.8c0.4-0.5,0.9-0.8,1.7-1l4.4-0.7l1.4-0.3
		c0.1,0,0.3-0.1,0.5-0.1c0.2-0.1,0.4-0.1,0.5-0.1c0.9,0,1.3,0.5,1.3,1.5c0,0.5-0.4,0.8-1.2,1.1c-0.8,0.3-2.1,0.6-4,0.8
		c-0.6,0.1-1.1,0.2-1.4,0.5c-0.3,0.2-0.4,0.5-0.4,0.9l0,1.2h5.2c1.1,0,1.6,0.4,1.6,1.3c0,0.9-0.5,1.3-1.6,1.3h-5l0.2,2.4h4.9
		c1.1,0,1.6,0.5,1.6,1.4c0,0.9-0.5,1.3-1.6,1.3h-4.7l0.2,2.6h24.2l0.2-2.6h-5.2c-1,0-1.5-0.4-1.5-1.3c0-0.9,0.5-1.4,1.5-1.4h5.4
		l0.1-2.4h-5.5c-0.5,0-0.9-0.1-1.1-0.3c-0.2-0.2-0.3-0.6-0.3-1c0-0.9,0.5-1.3,1.5-1.3h5.8v-0.9c0-0.5-0.1-0.8-0.3-1
		c-0.2-0.2-0.5-0.3-0.9-0.3h-4.9c-0.9,0-1.4-0.4-1.4-1.2c0-0.5,0.1-0.8,0.3-1s0.6-0.3,1.1-0.3h6.1c2.2,0,3.4,0.9,3.4,2.6l-0.9,12.5
		h0.5c2.1,0,3.1,1.1,2.9,3.4v3.5c0,1.3-0.6,2-1.7,2c-0.6,0-1-0.2-1.3-0.5c-0.3-0.3-0.4-0.8-0.4-1.5v-2.7c0-0.9-0.5-1.4-1.4-1.4H739
		c-0.9,0-1.4,0.5-1.5,1.4v2.5c0,1.3-0.6,2-1.7,2C734.7,111.4,734.1,110.7,734.1,109.3z M747.5,93c0-0.5,0.8-1.2,2.5-2.2l0.9-0.5
		c-1.8-1.3-2.7-2.1-2.7-2.4c0-0.3,0.1-0.6,0.3-0.8c0.2-0.2,0.5-0.3,0.9-0.3c0.3,0,1.5,0.7,3.4,2l1.2-1.3c0.6-0.7,1.1-1,1.6-1
		c0.4,0,0.8,0.1,1,0.3c0.2,0.2,0.3,0.5,0.3,0.8c0,0.5-0.7,1.4-2.1,2.6l0.5,0.3c1.2,0.9,1.8,1.6,1.8,2.1c0,0.4-0.1,0.8-0.3,1
		c-0.2,0.2-0.5,0.3-0.9,0.3c-0.4,0-0.9-0.3-1.5-0.8l-1.5-1.4c-2.2,1.7-3.6,2.6-4.3,2.6C747.9,94.2,747.5,93.8,747.5,93z M750.3,98.8
		l0.9-0.5l-0.5-0.3c-1.5-0.9-2.2-1.6-2.2-2c0-0.7,0.4-1.1,1.2-1.1c0.3,0,0.7,0.2,1.4,0.6l1.3,0.8l0.7,0.5l1.2-1.1
		c0.7-0.6,1.2-0.9,1.5-0.9c0.9,0,1.3,0.4,1.3,1.2c0,0.5-0.7,1.3-2,2.3c1.7,1.1,2.5,2,2.5,2.6c0,0.9-0.4,1.3-1.3,1.3
		c-0.3,0-0.8-0.3-1.5-0.8l-1.8-1.5c-1,0.8-1.9,1.4-2.7,1.9c-0.8,0.4-1.3,0.7-1.6,0.7c-0.8,0-1.2-0.4-1.2-1.2
		C747.6,100.5,748.5,99.8,750.3,98.8z"/>
	<path class="st2" d="M325.7,178.3c-0.6-0.6-0.8-1.4-0.7-2.6v-9.2c-1.1,2.5-2.1,3.7-2.8,3.7c-1,0-1.5-0.6-1.5-1.9
		c0-0.5,0.2-1.1,0.6-1.8c2.9-4.5,4.7-10,5.5-16.6h-3.8c-1.4,0-2.1-0.5-2.1-1.6c0-1.2,0.7-1.8,2.1-1.8h11.2c1.4,0,2.1,0.6,2.1,1.8
		c0,1.1-0.7,1.6-2.1,1.6h-3.9c-0.7,3.6-1.6,6.9-2.6,9.8h4.2c1.3,0,2.2,0.3,2.8,0.8c0.6,0.6,0.8,1.4,0.7,2.6v12.5
		c0,1.2-0.3,2.1-0.8,2.7c-0.6,0.6-1.5,0.8-2.7,0.8h-3.4C327.2,179.1,326.3,178.9,325.7,178.3z M332.3,174.7V164
		c0-0.8-0.4-1.2-1.2-1.2h-2.1c-0.5,0-0.8,0.3-0.9,0.9v11c0,0.8,0.4,1.2,1.3,1.3h1.7C331.8,176,332.2,175.5,332.3,174.7z M351.6,181
		v-17h-6.7c-0.3,5.7-1.4,10.2-3.4,13.6c-1.9,3.3-3.5,4.9-4.9,4.9c-1.1,0-1.7-0.6-1.7-1.9c0-0.5,0.4-1.2,1.1-1.8
		c3.4-3.4,5.3-8.3,5.6-14.7h-3.9c-0.5,0-0.9-0.1-1.2-0.4s-0.4-0.7-0.4-1.2c0-0.6,0.1-1,0.4-1.2s0.7-0.4,1.2-0.4h4.1v-11h-2.9
		c-1.1,0-1.6-0.5-1.6-1.6c0-0.6,0.1-1,0.4-1.2s0.7-0.4,1.2-0.4h19c0.5,0,1,0.1,1.2,0.4c0.3,0.3,0.4,0.7,0.4,1.3
		c0,1.1-0.5,1.6-1.6,1.6h-3.2v11h3.4c1.1,0,1.6,0.5,1.6,1.6c0,1.1-0.5,1.6-1.6,1.6h-3.4v17c0,1.3-0.5,2-1.6,2
		C352.1,183,351.6,182.3,351.6,181z M351.6,149.8h-6.4v2.7c0,2.7,0,5.3-0.1,7.9v0.3h6.6V149.8z"/>
	<path class="st2" d="M365.4,180.8c0-0.8,0.5-1.3,1.5-1.6c3.7-0.9,6.5-2.2,8.5-4.1c2-1.9,3.2-4.2,3.7-7.1h-9.6c-1,0-1.5-0.5-1.5-1.6
		c0-1,0.6-1.5,1.8-1.5h9.6c0.1-1.4,0.2-2.5,0.2-3.4c0-0.5,0.2-0.9,0.5-1.2c0.3-0.3,0.7-0.5,1.3-0.5c1.1,0,1.7,0.6,1.7,1.7
		c0,1.3-0.1,2.5-0.2,3.4h7.4c1,0,1.8,0.3,2.3,0.9c0.5,0.6,0.8,1.4,0.8,2.4v8.9c0,0.6,0.1,1.1,0.2,1.4c0.1,0.3,0.4,0.5,0.9,0.6
		c0.4,0.1,1.2,0.2,2.2,0.2c1.2,0,2.1-0.1,2.6-0.4c0.5-0.2,0.8-0.7,0.9-1.3c0.1-0.6,0.2-1.8,0.2-3.4c0-1.1,0.6-1.7,1.7-1.7
		c0.5,0,0.9,0.2,1.2,0.5c0.3,0.3,0.4,0.7,0.4,1.3c0,2,0,3.5-0.2,4.5s-0.5,1.7-0.9,2.2c-0.7,0.8-2.3,1.3-4.8,1.3h-1.5
		c-1.7,0-2.9-0.1-3.8-0.3s-1.6-0.5-2-1c-0.5-0.5-0.7-1.3-0.7-2.3V169c0-0.3-0.1-0.6-0.3-0.8c-0.2-0.2-0.5-0.3-0.8-0.3h-6.3
		c-0.5,3.1-1.5,5.7-3,7.7c-1.5,2.1-3.7,3.7-6.5,5c-2.6,1.2-4.6,1.8-6.1,1.8C365.9,182.5,365.4,181.9,365.4,180.8z M369.6,161.6
		c-0.2-0.3-0.4-0.6-0.4-1c0-0.5,0.1-0.8,0.4-1.1c0.3-0.2,0.7-0.4,1.3-0.6c2.8-0.7,4.8-1.9,5.8-3.6c0.3-0.5,0.6-1.2,0.7-1.9
		c0.2-0.8,0.3-1.5,0.3-2.3h-6.8c-1.1,0-1.7,0.6-1.7,1.7v3.4c0,1.5-0.6,2.2-1.8,2.2s-1.8-0.7-1.8-2.2v-4.4c0-2.6,1.3-3.9,3.9-3.9
		h12.7V146c0-1.3,0.7-1.9,2-1.9c1.3,0,1.9,0.6,1.9,1.9v1.9h13.1c2.6,0,3.9,1.3,3.9,3.9v4.2c0,1.4-0.6,2.1-1.8,2.1
		c-1.2,0-1.8-0.7-1.8-2.1v-3.2c0-1.2-0.6-1.7-1.7-1.7h-8.6v5.5c0,0.5,0.1,0.9,0.2,1.1c0.1,0.2,0.4,0.4,0.8,0.5
		c0.4,0.1,1,0.1,1.9,0.1c1,0,1.8-0.1,2.3-0.2c0.5-0.1,0.8-0.3,0.9-0.6c0.2-0.3,0.2-0.7,0.3-1.4c0-0.4,0.2-0.8,0.5-1
		c0.3-0.3,0.7-0.4,1.2-0.4c0.5,0,0.8,0.1,1.1,0.4c0.3,0.3,0.4,0.7,0.4,1.2c0,1.4-0.2,2.5-0.6,3.2c-0.4,0.7-1,1.1-1.9,1.3
		c-1.2,0.2-2.7,0.3-4.5,0.3c-1,0-1.8,0-2.5-0.1c-1.3-0.1-2.2-0.4-2.6-0.8c-0.5-0.4-0.7-1.2-0.7-2.3v-6.7h-4.8
		c-0.2,2.3-0.7,4.2-1.6,5.8c-0.9,1.5-2.2,2.7-4.2,3.7c-1.7,0.9-3.2,1.3-4.6,1.3C370.2,162,369.8,161.9,369.6,161.6z"/>
	<path class="st2" d="M425.2,173.9c0,2.7-0.4,5-1.2,6.8c-0.3,0.8-0.9,1.4-1.6,1.8c-0.8,0.4-1.7,0.6-2.9,0.7l-3.6,0
		c-1.3,0-1.9-0.5-1.9-1.6c0-1.2,0.7-1.7,2.2-1.7l1.3,0c1.9,0.1,3.1-0.2,3.4-0.9c0.3-0.5,0.4-1.1,0.6-1.6c0.1-0.6,0.2-1.3,0.2-2.2
		c0-0.8-0.4-1.2-1.2-1.2h-6.4c-1.9,0-2.9-0.8-2.9-2.3l0.1-1.2l0.6-3.7c0.1-0.7,0.4-1.3,0.9-1.6c0.5-0.4,1.2-0.6,2-0.6h6.2
		c0.8,0,1.2-0.4,1.2-1.2V162c0-0.8-0.4-1.2-1.2-1.2h-5.9c-0.5,0-0.9-0.1-1.2-0.4c-0.3-0.2-0.4-0.6-0.4-1.1v-0.2
		c-0.9,0.4-1.7,0.7-2.3,0.9c-0.4,0.1-0.7,0.2-0.8,0.2c-0.7,0-1.2-0.4-1.4-1.2c-0.1-0.1-0.1-0.3-0.1-0.6c0-0.8,0.5-1.3,1.6-1.6
		c2.3-0.6,4.4-1.4,6.3-2.4c-1.2-0.9-2.3-1.7-3.4-2.4c-0.5-0.3-0.8-0.8-0.8-1.2c0-0.2,0.1-0.5,0.3-0.7c0.3-0.4,0.7-0.6,1.1-0.6
		c0.3,0,0.6,0.1,0.9,0.3c1.6,0.9,3.1,2,4.5,3.1c1.5-1.1,2.9-2.3,4.2-3.9c0.1-0.1,0.1-0.1,0.1-0.3c0-0.1,0-0.1-0.1-0.2
		c-0.1-0.1-0.1-0.1-0.3-0.1h-9.9c-1.3,0-2-0.5-2-1.5c0-0.5,0.2-0.8,0.5-1.1s0.8-0.4,1.5-0.4H425c0.8,0,1.4,0.2,2,0.6
		c0.5,0.4,0.8,0.8,0.8,1.4c0,0.3-0.1,0.7-0.4,1.1c-2.5,3.8-6.2,6.9-10.9,9.2h5.8c1,0,1.8,0.3,2.3,0.8c0.5,0.5,0.8,1.3,0.8,2.4v3
		c0,1.1-0.3,1.9-0.8,2.4c-0.5,0.5-1.3,0.8-2.3,0.8H416c-0.3,0-0.6,0.1-0.8,0.3l-0.4,1.6l-0.2,1.2v0.1c0,0.4,0.3,0.6,0.9,0.6h6.5
		C424.2,171.2,425.2,172.1,425.2,173.9z M447.2,181.4c0,1.1-0.6,1.7-1.8,1.7c-3.4,0-6.8-1-10.4-3.1c-3.9,2.2-6.9,3.3-8.9,3.3
		c-1.1,0-1.6-0.5-1.6-1.6c0-0.9,0.9-1.5,2.7-1.8c2.1-0.5,3.8-1,5.1-1.8c-2.2-1.9-3.4-3.3-3.4-4.4c0-0.4,0.1-0.7,0.4-0.9
		c0.3-0.2,0.7-0.3,1.2-0.3c0.6,0,1.2,0.3,1.6,1c0.9,1.4,1.9,2.4,2.8,3.1c1.1-0.8,2.1-1.7,3.1-2.7c0.9-1,1.4-1.5,1.4-1.6
		c0-0.2-0.2-0.3-0.5-0.3h-10.7c-1.1,0-1.7-0.5-1.7-1.4s0.6-1.4,1.7-1.4H441c2,0,3,0.6,3,1.8c0,0.7-0.7,1.8-2.1,3.4
		c-1.3,1.5-2.7,2.8-4.2,3.9c2,0.9,4.5,1.5,7.4,1.8C446.5,179.9,447.2,180.5,447.2,181.4z M440.3,160.7v3.3c0,0.7,0.3,1,1,1h1.4
		c0.8,0,1.2-0.5,1.3-1.5c0.1-1,0.6-1.5,1.5-1.5c1,0,1.5,0.5,1.5,1.5c0,2.8-1.2,4.3-3.5,4.3h-3.4c-0.9,0-1.7-0.2-2.2-0.6
		c-0.5-0.4-0.8-0.9-0.9-1.6v-4c0-0.8-0.4-1.2-1.2-1.2h-2.8c-0.7,0-1.1,0.5-1.2,1.5c-0.2,2.1-0.8,3.8-2,5c-1,1-2,1.5-2.9,1.5
		c-1,0-1.5-0.5-1.5-1.6c0-0.7,0.3-1.2,1-1.6c0.9-0.5,1.5-1.1,1.8-1.8c0.4-0.6,0.5-1.4,0.5-2.4c0-2.3,1-3.5,3.1-3.5h5.1
		C439.2,157.5,440.3,158.6,440.3,160.7z M447.1,156.8c0.3,0.3,0.5,0.7,0.5,1.1c0,0.3,0,0.5-0.1,0.8c-0.3,0.8-0.9,1.2-1.8,1.2
		c-0.4,0-0.8-0.1-1.2-0.2c-3.3-0.9-6-2.3-8.2-4c-1.7-1.3-3.2-2.7-4.6-4.3c-1.4-1.6-2.5-3.2-3.3-4.8c-0.2-0.4-0.3-0.8-0.3-1.1
		c0-0.6,0.3-1,0.9-1.2c0.2-0.1,0.5-0.2,0.7-0.2c0.6,0,1.1,0.4,1.5,1.2c0.7,1.3,1.6,2.7,2.8,4c1.1-1.2,2.1-2.4,3.1-3.8
		c0.4-0.6,0.9-0.9,1.4-0.9c0.3,0,0.7,0.1,1,0.4c0.5,0.3,0.7,0.7,0.7,1.2c0,0.4-0.2,0.8-0.6,1.2c-1.1,1.4-2.4,2.6-3.9,3.8
		c0.8,0.8,1.6,1.4,2.2,1.8c1.7-1.3,3.1-2.5,4.3-3.7c0.5-0.5,1-0.8,1.5-0.8c0.4,0,0.7,0.2,1.1,0.5s0.5,0.7,0.5,1.1
		c0,0.5-0.3,0.9-0.9,1.4c-1.2,1.1-2.5,2-4,3c0.7,0.3,1.5,0.6,2.5,0.8c0.9,0.3,1.8,0.5,2.7,0.7C446.3,156.3,446.7,156.5,447.1,156.8z
		"/>
	<path class="st2" d="M492,181.4c0,1.3-0.7,1.9-2.1,1.9c-1,0-2.7-0.5-5-1.5c-5.6-2.5-9.6-6.6-11.7-12.3h-5.7v9.1l7.9-1.9
		c1,0,1.5,0.5,1.5,1.6c0,0.8-0.4,1.3-1.2,1.6c-2.4,0.8-6.4,1.9-12,3.1l-2.6,0.4c-0.5,0.1-1,0-1.3-0.4c-0.3-0.3-0.5-0.8-0.5-1.4
		c0-1,0.7-1.6,2.2-1.8l2.6-0.5v-9.8H459c-0.1,2-0.4,4-0.9,6c-0.5,2-1.1,3.6-1.7,4.8s-1.3,1.9-1.9,1.9c-1.2,0-1.8-0.6-1.8-1.9
		c0-0.5,0.2-1.3,0.7-2.3c1.6-3.6,2.4-10.9,2.4-21.7l-0.1-6.2c0-1.4,0.3-2.5,1-3.2c0.7-0.7,1.8-1.1,3.2-1.1h25.8
		c1.5,0,2.5,0.3,3.2,0.9c0.7,0.6,1,1.6,0.9,3v2.2c0,1.4-0.3,2.4-1,3.1c-0.7,0.6-1.7,0.9-3.1,0.9h-4v3.7h6c1.1,0,1.6,0.5,1.6,1.5
		c0,0.9-0.5,1.4-1.6,1.4h-6v4.3h7.7c1.1,0,1.7,0.5,1.7,1.5c0,1-0.6,1.5-1.7,1.5h-13c0.7,1.7,1.9,3.4,3.4,5c2-1.1,3.5-2,4.4-2.8
		c1.3-1,2.1-1.5,2.6-1.5c1.4,0,2.1,0.5,2.1,1.6c0,1-2.3,2.5-6.9,4.4c2,1.5,4.4,2.5,7.3,3.1C491.1,179.8,492,180.5,492,181.4z
		 M460.2,160.8c0-1,0.5-1.5,1.6-1.5h4.8v-3.7h-7.3l-0.2,10.8h7.5v-4.3h-4.8C460.7,162.2,460.2,161.7,460.2,160.8z M459.3,152.7h25.6
		c1,0,1.5-0.4,1.5-1.3V150c0-0.8-0.5-1.3-1.5-1.3H461c-1.1,0-1.6,0.7-1.7,2V152.7z M478.6,159.3v-3.7h-8.9v3.7H478.6z M469.8,166.5
		h8.9v-4.3h-8.9V166.5z"/>
	<path class="st2" d="M503.4,160.6c0,3.8-0.2,7.2-0.6,10.2c-0.4,3-0.9,5.4-1.5,7.2c-0.5,1.5-1,2.7-1.4,3.4c-0.4,0.7-0.9,1.1-1.4,1.1
		c-1.1,0-1.7-0.6-1.7-1.8c0-0.3,0.2-0.7,0.5-1.4c0.8-1.5,1.5-3.8,2-6.7c0.5-3,0.8-6.1,0.8-9.4l0-8.3c0-2.5,1.3-3.7,4-3.7h9.8v-5.5
		c0-1,0.6-1.5,1.8-1.5s1.8,0.5,1.8,1.5v0.9h12.6c1,0,1.5,0.5,1.5,1.4c0,0.9-0.5,1.4-1.5,1.4h-12.6v1.9h14c1.3,0,2.2,0.3,2.8,0.8
		c0.6,0.6,0.8,1.4,0.8,2.6v1.6c0,1.2-0.6,1.8-1.7,1.8c-1.1,0-1.7-0.6-1.7-1.7v-0.9c0-0.9-0.5-1.3-1.4-1.3h-13.3v2.1l10.9-0.6
		c1.1-0.1,1.6,0.3,1.6,1.2c0,0.9-0.5,1.3-1.6,1.4l-10.9,0.6v0.9c0,0.3,0.3,0.5,0.8,0.7c0.5,0.1,1.4,0.2,2.6,0.3c0.7,0,1.9,0,3.7,0
		h1.6c1.8-0.1,2.9-0.2,3.1-0.3c0.1-0.1,0.2-0.3,0.3-0.5c0.1-0.3,0.1-0.5,0.2-0.6c0.2-0.7,0.7-1,1.6-1c1.2,0,1.8,0.6,1.8,1.9
		c0,1.2-0.4,2-1.3,2.5c-0.5,0.3-1.4,0.5-2.7,0.6s-3,0.2-5,0.2l-1.5,0c-0.5,0-0.9,0-1.2,0c-1.7,0-2.9-0.1-3.8-0.1
		c-0.8-0.1-1.5-0.2-2-0.3c-1.2-0.4-1.8-1.1-1.8-2.1V159l-7.2,0.4c-1,0.1-1.5-0.4-1.5-1.2c0-0.9,0.5-1.3,1.6-1.4l7-0.4v-2.3h-8.1
		c-0.8,0-1.3,0.1-1.6,0.4c-0.3,0.3-0.4,0.8-0.4,1.6V160.6z M536,180.7c0,1.2-0.7,1.8-2.2,1.8c-5.9,0-10.8-0.4-14.8-1.3
		c-2.3-0.5-4.4-1.5-6.3-3.1c-1.5,1.5-3.1,2.7-4.7,3.5c-1.9,1.1-3.4,1.6-4.2,1.6c-1,0-1.5-0.5-1.5-1.5c0-0.3,0.1-0.6,0.4-0.9
		s0.7-0.5,1.2-0.7c3.1-1.2,5.4-2.5,6.9-4.1c-1-1.4-1.8-3.2-2.4-5.4c-1.4,3.1-2.7,4.6-3.7,4.6c-0.9,0-1.4-0.5-1.4-1.4
		c0-0.3,0.3-0.9,0.9-1.8c1.6-2.3,2.8-4.9,3.6-8c0.4-1.6,1-2.4,1.8-2.4c1,0,1.5,0.5,1.5,1.4l-0.6,2.2l-0.1,0.4h5.6
		c1.7,0,2.6,0.7,2.6,2c0,2-1.3,4.8-4,8.3c1.4,1.1,3.2,1.8,5.5,2.3c2.2,0.5,6.7,0.7,13.5,0.7C535.2,179,536,179.5,536,180.7z
		 M514.9,170.2c0.4-0.7,0.6-1.2,0.6-1.4c0-0.3-0.2-0.4-0.6-0.4h-4.4c0.4,2.3,1.1,4.2,2.1,5.5C513.6,172.7,514.3,171.5,514.9,170.2z
		 M534.5,169.6c1,0,1.5,0.6,1.5,1.7c0,0.2,0,0.7,0,1.4s0,1.3-0.1,1.8c-0.1,0.5-0.2,0.8-0.4,1.1c-0.7,0.9-2.1,1.4-4.2,1.4
		c-1.4,0-2.4-0.1-3-0.4c-0.6-0.3-0.9-1-0.9-2v-5.5c0-0.7-0.4-1.1-1.1-1.2h-1.8c-0.7,0-1.1,0.6-1.1,1.8c0,2.2-0.5,3.9-1.4,5.3
		c-1.1,1.6-2.1,2.4-3,2.4c-0.5,0-0.9-0.1-1.2-0.4c-0.3-0.2-0.4-0.6-0.4-1.1c0-0.3,0.1-0.5,0.2-0.7c0.1-0.2,0.3-0.4,0.5-0.6
		c0.2-0.2,0.3-0.3,0.4-0.4c0.8-0.8,1.3-1.6,1.5-2.3c0.3-0.8,0.4-2.1,0.4-3.8c0-2,1.1-3,3.2-3h3.6c2.1,0,3.1,1.1,3.1,3.2v4.9
		c0,0.7,0.4,1,1.2,1c0.5,0,0.9-0.1,1.1-0.3c0.2-0.2,0.3-0.6,0.4-1.1l0-1.6C533.2,170.1,533.7,169.6,534.5,169.6z"/>
	<path class="st2" d="M564.3,167.5c0,4.3-0.4,8-1.3,11.1c-0.5,1.6-0.9,2.8-1.4,3.5c-0.5,0.7-1,1.1-1.6,1.1c-0.6,0-1-0.1-1.3-0.4
		c-0.3-0.3-0.5-0.6-0.5-1c0-0.4,0.1-0.7,0.2-1.1c0.2-0.4,0.3-0.6,0.3-0.7c1.3-3,2-6,2.1-9.1c0.1-2.8,0.2-5.3,0.2-7.5
		c0-1.3,0.3-2.3,0.9-2.9c0.6-0.6,1.6-0.9,2.9-0.9h29.7c0.6,0,1.1,0.1,1.4,0.4c0.3,0.3,0.5,0.7,0.5,1.2c0,1-0.6,1.5-1.8,1.5h-28.8
		c-0.9,0-1.4,0.5-1.4,1.4V167.5z M559.8,148.9c0-1.1,0.7-1.6,2-1.6H576v-1.5c0-1.2,0.6-1.8,1.8-1.8c1.2,0,1.8,0.6,1.8,1.8v1.5h14.1
		c1.3,0,1.9,0.5,1.9,1.6c0,1.1-0.6,1.6-1.9,1.6h-32C560.5,150.5,559.8,150,559.8,148.9z M595.8,179.6c0.3,0.2,0.4,0.6,0.4,1.1
		s-0.1,0.9-0.4,1.1c-0.3,0.2-0.7,0.4-1.3,0.4h-28.9c-1.1,0-1.6-0.5-1.6-1.5c0-1,0.5-1.5,1.6-1.5h13.1v-3.7h-9
		c-1.1,0-1.6-0.5-1.6-1.5c0-0.5,0.1-0.9,0.4-1.1c0.3-0.2,0.7-0.4,1.2-0.4h9v-3.2h-8.3c-2.1,3-3.7,4.6-4.8,4.6
		c-0.9,0-1.4-0.5-1.4-1.6c0-0.5,0.3-1,1-1.7c1.1-1.1,2-2.1,2.8-3.1s1.4-2,2-3.2c0.5-0.9,1-1.4,1.6-1.4c0.5,0,0.9,0.1,1.2,0.3
		c0.3,0.2,0.4,0.5,0.4,1c0,0.3-0.3,1-0.9,2.1h6.3V165c0-0.6,0.2-1,0.5-1.3c0.3-0.3,0.7-0.5,1.2-0.5c0.5,0,0.9,0.2,1.2,0.5
		c0.3,0.3,0.4,0.8,0.4,1.3v1.4h11c0.6,0,1,0.1,1.3,0.4c0.3,0.2,0.4,0.6,0.4,1.1s-0.1,0.9-0.4,1.1c-0.3,0.2-0.7,0.4-1.3,0.4h-11v3.2
		h8.8c0.6,0,1,0.1,1.2,0.4c0.3,0.2,0.4,0.6,0.4,1.1c0,0.5-0.1,0.9-0.4,1.1c-0.3,0.2-0.7,0.4-1.2,0.4H582v3.7h12.5
		C595.1,179.2,595.5,179.4,595.8,179.6z M575.3,155l0.9-0.2c-0.2-0.1-0.7-0.1-1.4-0.2l-1.3-0.2c-2.9-0.5-4.7-0.8-5.4-0.9
		c-0.5-0.1-0.9-0.2-1.2-0.5c-0.3-0.3-0.5-0.6-0.5-1c0-0.4,0.1-0.7,0.4-0.9c0.3-0.2,0.7-0.3,1.4-0.3c0.4,0,1.6,0.2,3.6,0.7
		c2,0.4,4.5,1.1,7.5,1.9c1.2-0.3,2.5-0.7,3.9-1.1s2.5-0.8,3.3-1.1c0.4-0.1,0.7-0.2,0.9-0.3c0.2-0.1,0.4-0.1,0.5-0.2
		c0.1-0.1,0.3-0.1,0.6-0.1c0.3,0,0.6,0.1,0.8,0.2c0.2,0.1,0.4,0.3,0.5,0.5c0.1,0.2,0.1,0.4,0.1,0.6c0,0.5-0.2,0.8-0.7,1.1
		c-0.4,0.2-1.1,0.5-2.1,0.7c-1,0.2-1.9,0.4-2.9,0.6l-1,0.2l-0.8,0.1l-0.6,0.1l3.4,0.5c1.6,0.2,2.6,0.3,2.9,0.4
		c0.5,0.1,0.9,0.2,1.3,0.3c0.2,0.1,0.5,0.1,0.7,0.2c0.2,0,0.5,0.1,0.7,0.2c0.5,0.2,0.8,0.4,1.1,0.6c0.2,0.3,0.4,0.5,0.4,0.9
		c0,0.5-0.1,0.8-0.4,1.1c-0.3,0.2-0.7,0.4-1.2,0.4c-0.3,0-0.6,0-0.8-0.1l-2.5-0.7l-1.4-0.4c-4.1-1.1-6.3-1.7-6.7-1.7
		c-1.9,0.5-3.7,1-5.5,1.4c-1.8,0.4-4.1,0.8-6.8,1.3c-0.4,0.1-0.7,0.1-0.9,0.1c-1.1,0-1.6-0.5-1.6-1.4c0-0.4,0.2-0.7,0.5-1
		c0.3-0.3,0.8-0.4,1.4-0.5C568.8,156,571.8,155.6,575.3,155z"/>
	<path class="st2" d="M640.2,174.6c0,0.9-0.6,1.4-1.8,1.4h-16.3v3.1c0,1.5-0.3,2.7-1,3.4c-0.7,0.7-1.7,1-3.1,0.9h-2.6
		c-0.7,0-1.2-0.1-1.6-0.4c-0.3-0.3-0.5-0.7-0.5-1.2c0-1.1,0.7-1.6,2.1-1.6h1.7c1.1,0,1.6-0.6,1.7-1.7V176h-15.5
		c-1.1,0-1.7-0.5-1.7-1.4s0.6-1.4,1.7-1.4h15.5V172c0-0.7,0.2-1.1,0.7-1.4c0.5-0.3,1.6-0.6,3.4-1.1l4.5-1.2v-0.1h-19
		c-1.1,0-1.7-0.4-1.7-1.3c0-0.5,0.1-0.8,0.4-1c0.3-0.2,0.7-0.3,1.3-0.3h23c1.1,0,1.9,0.1,2.5,0.4c0.6,0.2,0.9,0.6,0.9,1.1
		c0,0.5-1,1.1-3,1.9c-2,0.8-4.7,1.7-8.3,2.8c-0.9,0.3-1.4,0.7-1.4,1.2v0.3h16.3C639.6,173.2,640.2,173.6,640.2,174.6z M602.1,167.3
		V164c0-1.2,0.2-2,0.7-2.6c0.5-0.5,1.2-0.8,2.2-0.9h0.6l-0.9-12.3c0-0.7,0.1-1.3,0.5-1.8c0.4-0.5,0.9-0.8,1.7-1l4.4-0.7l1.4-0.3
		c0.1,0,0.3-0.1,0.5-0.1c0.2-0.1,0.4-0.1,0.5-0.1c0.9,0,1.3,0.5,1.3,1.5c0,0.5-0.4,0.8-1.2,1.1c-0.8,0.3-2.1,0.6-4,0.8
		c-0.6,0.1-1.1,0.2-1.4,0.5c-0.3,0.2-0.4,0.5-0.4,0.9l0,1.2h5.2c1.1,0,1.6,0.4,1.6,1.3c0,0.9-0.5,1.3-1.6,1.3h-5l0.2,2.4h4.9
		c1.1,0,1.6,0.5,1.6,1.4c0,0.9-0.5,1.3-1.6,1.3h-4.7l0.2,2.6h24.2l0.2-2.6h-5.2c-1,0-1.5-0.4-1.5-1.3c0-0.9,0.5-1.4,1.5-1.4h5.4
		l0.1-2.4h-5.5c-0.5,0-0.9-0.1-1.1-0.3c-0.2-0.2-0.3-0.6-0.3-1c0-0.9,0.5-1.3,1.5-1.3h5.8v-0.9c0-0.5-0.1-0.8-0.3-1
		c-0.2-0.2-0.5-0.3-0.9-0.3h-4.9c-0.9,0-1.4-0.4-1.4-1.2c0-0.5,0.1-0.8,0.3-1s0.6-0.3,1.1-0.3h6.1c2.2,0,3.4,0.9,3.4,2.6l-0.9,12.5
		h0.5c2.1,0,3.1,1.1,2.9,3.4v3.5c0,1.3-0.6,2-1.7,2c-0.6,0-1-0.2-1.3-0.5c-0.3-0.3-0.4-0.8-0.4-1.5v-2.7c0-0.9-0.5-1.4-1.4-1.4H607
		c-0.9,0-1.4,0.5-1.5,1.4v2.5c0,1.3-0.6,2-1.7,2C602.7,169.4,602.1,168.7,602.1,167.3z M615.5,151c0-0.5,0.8-1.2,2.5-2.2l0.9-0.5
		c-1.8-1.3-2.7-2.1-2.7-2.4c0-0.3,0.1-0.6,0.3-0.8c0.2-0.2,0.5-0.3,0.9-0.3c0.3,0,1.5,0.7,3.4,2l1.2-1.3c0.6-0.7,1.1-1,1.6-1
		c0.4,0,0.8,0.1,1,0.3c0.2,0.2,0.3,0.5,0.3,0.8c0,0.5-0.7,1.4-2.1,2.6l0.5,0.3c1.2,0.9,1.8,1.6,1.8,2.1c0,0.4-0.1,0.8-0.3,1
		c-0.2,0.2-0.5,0.3-0.9,0.3c-0.4,0-0.9-0.3-1.5-0.8l-1.5-1.4c-2.2,1.7-3.6,2.6-4.3,2.6C615.9,152.2,615.5,151.8,615.5,151z
		 M618.3,156.8l0.9-0.5l-0.5-0.3c-1.5-0.9-2.2-1.6-2.2-2c0-0.7,0.4-1.1,1.2-1.1c0.3,0,0.7,0.2,1.4,0.6l1.3,0.8l0.7,0.5l1.2-1.1
		c0.7-0.6,1.2-0.9,1.5-0.9c0.9,0,1.3,0.4,1.3,1.2c0,0.5-0.7,1.3-2,2.3c1.7,1.1,2.5,2,2.5,2.6c0,0.9-0.4,1.3-1.3,1.3
		c-0.3,0-0.8-0.3-1.5-0.8l-1.8-1.5c-1,0.8-1.9,1.4-2.7,1.9c-0.8,0.4-1.3,0.7-1.6,0.7c-0.8,0-1.2-0.4-1.2-1.2
		C615.6,158.5,616.5,157.8,618.3,156.8z"/>
	<path class="st2" d="M645.8,160.8c-0.3-0.3-0.4-0.8-0.4-1.4c0-0.7,0.2-1.1,0.7-1.4l3-1.5c5-2.6,9.4-6.1,13.1-10.7
		c0.8-1.1,1.7-1.6,2.6-1.6c0.6,0,1.1,0.1,1.4,0.3s0.5,0.6,0.5,1c0,0.1-0.1,0.4-0.2,0.7l0.4,0.4c2,2,4.3,3.8,6.9,5.5
		c2.7,1.7,5.6,3.2,8.9,4.4c1.2,0.4,1.8,1.1,1.8,2c0,1.4-0.6,2.1-1.8,2.1c-1.5,0-4.2-1.3-8-3.9c-4-2.8-7.3-5.4-9.9-8
		c-1.5,1.7-3.5,3.7-6,5.7c-2.3,1.9-4.7,3.6-7.1,4.9c-2.3,1.3-3.8,2-4.5,2C646.4,161.3,646,161.1,645.8,160.8z M649.9,177v-6.3
		c0-1.7,0.4-2.9,1.1-3.7s1.9-1.1,3.6-1h20.5c1.7-0.1,2.9,0.2,3.7,1c0.8,0.8,1.1,2,1,3.7v6.3c0.2,3.3-1.3,4.9-4.7,4.7h-20.5
		C651.3,181.9,649.8,180.4,649.9,177z M653.1,159.8c0-1.1,0.6-1.6,1.8-1.6h20.3c1.2,0,1.8,0.5,1.8,1.6c0,1-0.6,1.5-1.8,1.5h-20.3
		C653.7,161.3,653.1,160.8,653.1,159.8z M676.2,176.2v-4.6c0-1.5-0.8-2.3-2.3-2.3h-18c-1.5,0-2.3,0.8-2.3,2.3v4.6
		c0,1.5,0.8,2.3,2.3,2.3h18C675.4,178.5,676.2,177.7,676.2,176.2z"/>
	<path class="st2" d="M698.6,153.8v27.4c0,1.4-0.6,2.1-1.8,2.1c-1.1,0-1.7-0.7-1.7-2.1v-20.2c-0.9,1.8-1.8,3.2-2.5,4.1
		c-0.7,0.9-1.3,1.4-1.7,1.4c-1.1,0-1.6-0.6-1.6-1.9c0-0.5,0.5-1.6,1.5-3.1c2.8-4.3,5.1-9.4,7-15.3c0.2-0.7,0.5-1.3,0.8-1.6
		c0.3-0.4,0.7-0.5,1.2-0.5c1.3,0,2,0.6,2,1.7C701.8,146.5,700.7,149.2,698.6,153.8z M715.5,153.7v6.3h8.7c1.3,0,2,0.6,2,1.7
		s-0.7,1.7-2,1.7h-8.7v6.4h10.1c1.4,0,2.1,0.6,2.1,1.7s-0.7,1.7-2.1,1.7h-10.1v8.1c0,1.5-0.6,2.2-1.8,2.2s-1.8-0.7-1.8-2.2v-27.5
		h-3.6c-1.4,2.6-2.6,4.6-3.7,6c-1.1,1.3-1.9,2-2.6,2c-1.1,0-1.7-0.6-1.7-1.9c0-0.5,0.3-1.1,0.9-1.8c1.3-1.5,2.4-3.4,3.6-5.4
		c1.1-2.1,2.1-4.3,3-6.6c0.4-1.1,1.1-1.7,1.9-1.7c1.3,0,1.9,0.5,1.9,1.5c0,0.6-0.6,2.1-1.7,4.6h16.4c0.7,0,1.2,0.1,1.5,0.4
		c0.4,0.3,0.5,0.7,0.5,1.2c0,0.5-0.2,1-0.5,1.2c-0.4,0.3-0.9,0.4-1.5,0.4H715.5z"/>
	<path class="st2" d="M733.2,177.6c0-0.3,0.2-0.9,0.6-1.9c0.8-1.9,1.3-4.1,1.5-6.7c0.1-1,0.6-1.5,1.5-1.5c0.5,0,0.9,0.1,1.2,0.4
		c0.2,0.2,0.4,0.6,0.4,1.1c0,1.7-0.3,3.8-0.9,6.2c-0.7,2.7-1.5,4-2.5,4C733.7,179.1,733.2,178.6,733.2,177.6z M740.6,181.5v-16.4
		c-3.1,0.3-4.8,0.4-5,0.5l-0.6,0c-1.1,0.1-1.6-0.5-1.6-1.7c0-0.9,0.6-1.5,1.7-1.6l2.7-0.2l2.5-3.6l-0.3-0.3l-5.5-4.2
		c-0.5-0.4-0.8-0.9-0.8-1.5c0-1.1,0.5-1.6,1.5-1.6c0.4,0,1,0.3,2,1c1.1-1.7,2.3-3.9,3.5-6.6c0.4-0.8,1-1.2,1.7-1.2
		c1.2,0,1.8,0.6,1.8,1.7c0,1-1.6,3.6-4.7,7.8l2.8,2.1c1.5-2.3,2.6-4,3.2-5.2c0.6-1.1,1.2-1.6,1.9-1.6c1.1,0,1.7,0.6,1.7,1.8
		c0,0.5-0.8,1.9-2.4,4.2c-1.7,2.4-3.4,4.7-5.2,6.9l5.8-0.4c-0.5-1.3-0.8-2-0.8-2.2c0-0.4,0.1-0.7,0.4-0.9c0.2-0.2,0.6-0.3,1.1-0.3
		c0.8,0,1.6,1,2.3,2.9c0.8,2,1.2,3.2,1.2,3.7c0,1-0.5,1.5-1.5,1.5c-0.7,0-1.3-0.7-1.7-2l-4,0.6v16.7c0,1.3-0.6,1.9-1.7,1.9
		C741.1,183.4,740.6,182.8,740.6,181.5z M747.3,174.7c-0.2-1.5-0.6-3.3-1.1-5.4l-0.1-0.7c0-0.4,0.1-0.8,0.3-1
		c0.2-0.2,0.6-0.3,1.1-0.3c1.2,0,2.1,2.3,2.9,6.8l0.2,1.2c0.1,0.5,0,0.9-0.3,1.1s-0.7,0.4-1.3,0.4
		C748.1,176.8,747.5,176.1,747.3,174.7z M747.7,181.4c-0.2-0.3-0.4-0.7-0.4-1.2c0-1,0.5-1.5,1.5-1.5h3.7v-28.5
		c0-1.3,0.3-2.3,0.9-2.9c0.6-0.6,1.5-0.9,2.8-0.8h8.7c1.4,0,2.4,0.3,3.1,0.9c0.6,0.6,0.9,1.5,0.8,2.9v28.4h1.8c1,0,1.5,0.5,1.5,1.5
		s-0.5,1.5-1.5,1.5h-21.8C748.4,181.8,748,181.7,747.7,181.4z M765.6,151.1c0-0.9-0.5-1.4-1.4-1.4h-6.8c-0.5,0-0.8,0.1-1.1,0.4
		c-0.3,0.2-0.4,0.6-0.4,1.1v5.7h9.7V151.1z M765.6,167.2v-7.4h-9.7v7.4H765.6z M765.6,178.7v-8.4h-9.7v8.4H765.6z"/>
</g>
<g>
	<path class="st2" d="M319.8,205.4h3.4l7.2,9.5v-9.5h3.2v14h-2.3l-8.3-11v11h-3.2V205.4z"/>
	<path class="st2" d="M337.3,218.8c-0.7-0.5-1.1-1.3-1.1-2.2c0-1,0.4-1.8,1.3-2.3s2.1-0.8,3.7-0.8h2.6v-0.7c0-0.7-0.2-1.3-0.6-1.7
		c-0.4-0.4-1-0.6-1.8-0.6c-0.8,0-1.4,0.2-1.8,0.6c-0.5,0.4-0.7,1-0.8,1.7h-2.2c0.1-1.1,0.7-1.9,1.6-2.5c0.9-0.6,2.1-0.8,3.6-0.8
		c1.7,0,2.9,0.3,3.8,0.9s1.3,1.5,1.3,2.7v3.2c0,1.2,0.1,2.3,0.3,3.3h-2.8c-0.1-0.5-0.2-1-0.3-1.3c-0.4,0.5-0.9,0.9-1.5,1.2
		s-1.3,0.4-2,0.4C339.1,219.6,338,219.3,337.3,218.8z M343.1,217.9c0.5-0.4,0.7-1,0.7-1.8v-1.7H342c-0.9,0-1.6,0.2-2.1,0.6
		c-0.5,0.4-0.7,0.9-0.7,1.5c0,0.7,0.2,1.2,0.5,1.5c0.3,0.3,0.8,0.5,1.5,0.5C342,218.6,342.6,218.4,343.1,217.9z"/>
	<path class="st2" d="M351,218.9c-0.5-0.5-0.8-1.2-0.8-2.2v-6h-1.8l0.4-1h1.5l0.7-2.8h2.2v2.8h2.7l-0.3,1h-2.4v6.2
		c0,0.5,0.1,1,0.3,1.2s0.6,0.4,1,0.4c0.5,0,1-0.1,1.5-0.4v1.1c-0.6,0.3-1.5,0.4-2.7,0.4C352.3,219.6,351.5,219.4,351,218.9z"/>
	<path class="st2" d="M358.2,208.1c-0.4-0.3-0.5-0.7-0.5-1.2s0.2-0.9,0.5-1.2c0.4-0.3,0.8-0.5,1.4-0.5s1,0.2,1.4,0.5
		c0.4,0.3,0.5,0.7,0.5,1.2s-0.2,0.9-0.5,1.2c-0.4,0.3-0.8,0.5-1.4,0.5S358.6,208.4,358.2,208.1z M358.1,209.6h3v9.8h-3V209.6z"/>
	<path class="st2" d="M366.6,219c-0.9-0.4-1.6-1-2.1-1.8c-0.5-0.8-0.7-1.7-0.7-2.7s0.2-1.9,0.7-2.7c0.5-0.8,1.2-1.4,2.1-1.8
		s2-0.6,3.3-0.6s2.4,0.2,3.3,0.6s1.6,1,2.1,1.8c0.5,0.8,0.7,1.7,0.7,2.7s-0.2,1.9-0.7,2.7c-0.5,0.8-1.2,1.4-2.1,1.8s-2,0.6-3.3,0.6
		S367.6,219.4,366.6,219z M372.3,217.5c0.6-0.7,0.8-1.7,0.8-3c0-1.3-0.3-2.2-0.8-3s-1.3-1.1-2.3-1.1s-1.8,0.4-2.3,1.1
		s-0.8,1.7-0.8,3c0,1.3,0.3,2.2,0.8,3s1.3,1.1,2.3,1.1S371.7,218.2,372.3,217.5z"/>
	<path class="st2" d="M378.5,209.6h3v1.6c0.3-0.6,0.8-1,1.4-1.3c0.6-0.3,1.4-0.5,2.1-0.5c1.3,0,2.4,0.3,3.1,1
		c0.8,0.7,1.1,1.6,1.1,2.8v6.2h-3V213c0-1.7-0.7-2.5-2.1-2.5c-0.8,0-1.5,0.3-2,0.9s-0.7,1.4-0.7,2.5v5.6h-3V209.6z"/>
	<path class="st2" d="M392.6,218.8c-0.7-0.5-1.1-1.3-1.1-2.2c0-1,0.4-1.8,1.3-2.3s2.1-0.8,3.7-0.8h2.6v-0.7c0-0.7-0.2-1.3-0.6-1.7
		c-0.4-0.4-1-0.6-1.8-0.6c-0.8,0-1.4,0.2-1.8,0.6c-0.5,0.4-0.7,1-0.8,1.7h-2.2c0.1-1.1,0.7-1.9,1.6-2.5c0.9-0.6,2.1-0.8,3.6-0.8
		c1.7,0,2.9,0.3,3.8,0.9s1.3,1.5,1.3,2.7v3.2c0,1.2,0.1,2.3,0.3,3.3h-2.8c-0.1-0.5-0.2-1-0.3-1.3c-0.4,0.5-0.9,0.9-1.5,1.2
		s-1.3,0.4-2,0.4C394.4,219.6,393.4,219.3,392.6,218.8z M398.4,217.9c0.5-0.4,0.7-1,0.7-1.8v-1.7h-1.8c-0.9,0-1.6,0.2-2.1,0.6
		c-0.5,0.4-0.7,0.9-0.7,1.5c0,0.7,0.2,1.2,0.5,1.5c0.3,0.3,0.8,0.5,1.5,0.5C397.3,218.6,398,218.4,398.4,217.9z"/>
	<path class="st2" d="M405.5,205.7h3v13.7h-3V205.7z"/>
	<path class="st2" d="M432,206.6h-5.9v-1.2h15.1v1.2h-5.9v12.8H432V206.6z"/>
	<path class="st2" d="M442.4,218.8c-0.7-0.5-1.1-1.3-1.1-2.2c0-1,0.4-1.8,1.3-2.3s2.1-0.8,3.7-0.8h2.6v-0.7c0-0.7-0.2-1.3-0.6-1.7
		c-0.4-0.4-1-0.6-1.8-0.6c-0.8,0-1.4,0.2-1.8,0.6c-0.5,0.4-0.7,1-0.8,1.7h-2.2c0.1-1.1,0.7-1.9,1.6-2.5c0.9-0.6,2.1-0.8,3.6-0.8
		c1.7,0,2.9,0.3,3.8,0.9s1.3,1.5,1.3,2.7v3.2c0,1.2,0.1,2.3,0.3,3.3h-2.8c-0.1-0.5-0.2-1-0.3-1.3c-0.4,0.5-0.9,0.9-1.5,1.2
		s-1.3,0.4-2,0.4C444.2,219.6,443.1,219.3,442.4,218.8z M448.2,217.9c0.5-0.4,0.7-1,0.7-1.8v-1.7h-1.8c-0.9,0-1.6,0.2-2.1,0.6
		c-0.5,0.4-0.7,0.9-0.7,1.5c0,0.7,0.2,1.2,0.5,1.5c0.3,0.3,0.8,0.5,1.5,0.5C447.1,218.6,447.7,218.4,448.2,217.9z"/>
	<path class="st2" d="M455.2,208.1c-0.4-0.3-0.5-0.7-0.5-1.2s0.2-0.9,0.5-1.2c0.4-0.3,0.8-0.5,1.4-0.5c0.6,0,1,0.2,1.4,0.5
		c0.4,0.3,0.5,0.7,0.5,1.2s-0.2,0.9-0.5,1.2c-0.4,0.3-0.8,0.5-1.4,0.5C456.1,208.6,455.6,208.4,455.2,208.1z M455.1,209.6h3v9.8h-3
		V209.6z"/>
	<path class="st2" d="M461.2,209.6h3v1.5c0.4-0.5,0.9-0.9,1.5-1.2s1.3-0.5,2.1-0.5c1.7,0,3,0.4,3.9,1.3s1.4,2.1,1.4,3.7
		c0,1.1-0.2,2-0.6,2.8c-0.4,0.8-1,1.4-1.8,1.8s-1.7,0.6-2.8,0.6c-1.7,0-2.9-0.6-3.6-1.9v5.5h-3V209.6z M469.2,217.5
		c0.5-0.8,0.8-1.8,0.8-3.1c0-1.3-0.3-2.3-0.8-2.9c-0.5-0.7-1.2-1-2.1-1c-0.9,0-1.6,0.4-2.1,1.1c-0.5,0.7-0.8,1.7-0.8,3
		c0,1.3,0.3,2.3,0.8,3.1c0.5,0.7,1.2,1.1,2.1,1.1S468.7,218.3,469.2,217.5z"/>
	<path class="st2" d="M483.3,218c0.5-0.4,0.8-1,1-1.8h2.2c-0.2,1.1-0.8,2-1.8,2.5c-1,0.6-2.3,0.9-3.8,0.9c-1.2,0-2.3-0.2-3.1-0.6
		c-0.9-0.4-1.6-1-2-1.8s-0.7-1.7-0.7-2.7c0-1.1,0.2-2,0.7-2.7s1.2-1.4,2-1.8s1.9-0.6,3.1-0.6c1.9,0,3.3,0.4,4.3,1.3s1.5,2.2,1.5,3.8
		h-8.7v0.1c0,2.6,1.1,3.9,3.3,3.9C482.1,218.6,482.8,218.4,483.3,218z M479,211.2c-0.5,0.5-0.8,1.3-0.9,2.3h5.7
		c-0.1-1-0.4-1.8-0.9-2.3c-0.5-0.5-1.1-0.8-1.9-0.8C480.1,210.4,479.5,210.7,479,211.2z"/>
	<path class="st2" d="M489.4,208.1c-0.4-0.3-0.5-0.7-0.5-1.2s0.2-0.9,0.5-1.2c0.4-0.3,0.8-0.5,1.4-0.5s1,0.2,1.4,0.5
		c0.4,0.3,0.5,0.7,0.5,1.2s-0.2,0.9-0.5,1.2c-0.4,0.3-0.8,0.5-1.4,0.5S489.8,208.4,489.4,208.1z M489.3,209.6h3v9.8h-3V209.6z"/>
	<path class="st2" d="M512.7,218c-1-1.1-1.6-2.6-1.6-4.4v-8.2h3.4v8.6c0,1.3,0.3,2.4,0.8,3.2c0.5,0.8,1.5,1.2,3,1.2
		c1.4,0,2.4-0.4,2.9-1.1c0.5-0.8,0.8-1.8,0.8-3.2v-8.6h3.4v8.2c0,1.8-0.5,3.3-1.6,4.4c-1,1.1-2.9,1.7-5.6,1.7
		C515.7,219.6,513.8,219.1,512.7,218z"/>
	<path class="st2" d="M528.4,209.6h3v1.6c0.3-0.6,0.8-1,1.4-1.3c0.6-0.3,1.4-0.5,2.1-0.5c1.3,0,2.4,0.3,3.1,1
		c0.8,0.7,1.1,1.6,1.1,2.8v6.2h-3V213c0-1.7-0.7-2.5-2.1-2.5c-0.8,0-1.5,0.3-2,0.9s-0.7,1.4-0.7,2.5v5.6h-3V209.6z"/>
	<path class="st2" d="M542.2,208.1c-0.4-0.3-0.5-0.7-0.5-1.2s0.2-0.9,0.5-1.2c0.4-0.3,0.8-0.5,1.4-0.5s1,0.2,1.4,0.5
		c0.4,0.3,0.5,0.7,0.5,1.2s-0.2,0.9-0.5,1.2c-0.4,0.3-0.8,0.5-1.4,0.5S542.5,208.4,542.2,208.1z M542.1,209.6h3v9.8h-3V209.6z"/>
	<path class="st2" d="M546.9,209.6h3.1l3.7,7l3.7-7h1.8l-5,10h-1.8L546.9,209.6z"/>
	<path class="st2" d="M568,218c0.5-0.4,0.8-1,1-1.8h2.2c-0.2,1.1-0.8,2-1.8,2.5c-1,0.6-2.3,0.9-3.8,0.9c-1.2,0-2.3-0.2-3.1-0.6
		c-0.9-0.4-1.6-1-2-1.8s-0.7-1.7-0.7-2.7c0-1.1,0.2-2,0.7-2.7s1.2-1.4,2-1.8s1.9-0.6,3.1-0.6c1.9,0,3.3,0.4,4.3,1.3s1.5,2.2,1.5,3.8
		h-8.7v0.1c0,2.6,1.1,3.9,3.3,3.9C566.8,218.6,567.5,218.4,568,218z M563.6,211.2c-0.5,0.5-0.8,1.3-0.9,2.3h5.7
		c-0.1-1-0.4-1.8-0.9-2.3c-0.5-0.5-1.1-0.8-1.9-0.8C564.8,210.4,564.1,210.7,563.6,211.2z"/>
	<path class="st2" d="M573.5,209.6h3v2c0.3-0.7,0.7-1.3,1.2-1.6s1.2-0.6,2-0.6c0.3,0,0.5,0,0.7,0.1l-0.2,1.7
		c-0.2-0.1-0.5-0.2-0.8-0.2c-1,0-1.7,0.4-2.2,1.2c-0.5,0.8-0.7,1.7-0.7,2.8v4.3h-3V209.6z"/>
	<path class="st2" d="M581.4,216.6h2.2c0.1,0.7,0.4,1.1,0.9,1.5s1.1,0.5,2,0.5c0.8,0,1.4-0.2,1.9-0.5c0.5-0.3,0.7-0.7,0.7-1.3
		c0-0.4-0.2-0.7-0.7-1c-0.5-0.3-1.1-0.5-1.9-0.6c-1.7-0.3-3-0.6-3.7-1.1c-0.8-0.5-1.2-1.1-1.2-1.9c0-0.9,0.4-1.5,1.3-2
		s2.1-0.7,3.7-0.7c1.6,0,2.8,0.2,3.7,0.7s1.4,1.2,1.6,2.2h-2.2c-0.1-0.6-0.4-1.1-0.9-1.4c-0.5-0.3-1.1-0.5-1.8-0.5
		c-1.5,0-2.2,0.4-2.2,1.3c0,0.3,0.1,0.5,0.2,0.6c0.1,0.2,0.4,0.3,0.8,0.5c0.4,0.1,0.9,0.3,1.7,0.4c1.7,0.3,2.9,0.7,3.7,1.2
		s1.2,1.2,1.2,2.1c0,2.1-1.9,3.1-5.6,3.1C583.6,219.6,581.9,218.6,581.4,216.6z"/>
	<path class="st2" d="M594.9,208.1c-0.4-0.3-0.5-0.7-0.5-1.2s0.2-0.9,0.5-1.2c0.4-0.3,0.8-0.5,1.4-0.5c0.6,0,1,0.2,1.4,0.5
		c0.4,0.3,0.5,0.7,0.5,1.2s-0.2,0.9-0.5,1.2c-0.4,0.3-0.8,0.5-1.4,0.5C595.8,208.6,595.3,208.4,594.9,208.1z M594.8,209.6h3v9.8h-3
		V209.6z"/>
	<path class="st2" d="M602.2,218.9c-0.5-0.5-0.8-1.2-0.8-2.2v-6h-1.8l0.4-1h1.5l0.7-2.8h2.2v2.8h2.7l-0.3,1h-2.4v6.2
		c0,0.5,0.1,1,0.3,1.2c0.2,0.3,0.6,0.4,1,0.4c0.5,0,1-0.1,1.5-0.4v1.1c-0.6,0.3-1.5,0.4-2.7,0.4
		C603.5,219.6,602.8,219.4,602.2,218.9z"/>
	<path class="st2" d="M607.7,222.7l0.6-1.1c0.1,0.2,0.4,0.3,0.7,0.5c0.3,0.1,0.6,0.2,0.9,0.2c0.8,0,1.5-0.2,2-0.7s0.8-1.1,0.8-1.8
		c0-0.6-0.1-1-0.3-1.4l-4.7-8.7h3.1l3.8,7.3l3.5-7.3h1.8l-4.9,10.1c-0.6,1.3-1.3,2.2-2,2.8c-0.7,0.6-1.6,0.9-2.5,0.9
		C609.2,223.4,608.3,223.2,607.7,222.7z"/>
	<path class="st2" d="M639.6,219c-0.9-0.4-1.6-1-2.1-1.8c-0.5-0.8-0.7-1.7-0.7-2.7s0.2-1.9,0.7-2.7c0.5-0.8,1.2-1.4,2.1-1.8
		s2-0.6,3.3-0.6c1.3,0,2.4,0.2,3.3,0.6s1.6,1,2.1,1.8c0.5,0.8,0.7,1.7,0.7,2.7s-0.2,1.9-0.7,2.7c-0.5,0.8-1.2,1.4-2.1,1.8
		s-2,0.6-3.3,0.6C641.6,219.6,640.5,219.4,639.6,219z M645.2,217.5c0.6-0.7,0.8-1.7,0.8-3c0-1.3-0.3-2.2-0.8-3
		c-0.6-0.7-1.3-1.1-2.3-1.1c-1,0-1.8,0.4-2.3,1.1s-0.8,1.7-0.8,3c0,1.3,0.3,2.2,0.8,3s1.3,1.1,2.3,1.1
		C643.9,218.6,644.6,218.2,645.2,217.5z"/>
	<path class="st2" d="M652.2,210.6h-2l0.2-1h1.7v-1.1c0-0.9,0.3-1.6,0.9-2s1.5-0.7,2.7-0.7c0.9,0,1.7,0.1,2.3,0.4l-0.3,1.1
		c-0.3-0.3-0.6-0.4-1.1-0.4c-0.5,0-0.9,0.1-1.2,0.4c-0.3,0.3-0.4,0.7-0.4,1.3v1h2.7l-0.2,1h-2.4v8.8h-3V210.6z"/>
	<path class="st2" d="M675,205.4h7.1c1.2,0,2.3,0.1,3.2,0.4c0.9,0.3,1.6,0.7,2.1,1.2c0.5,0.5,0.8,1.1,0.8,1.7c0,0.7-0.3,1.4-0.9,2
		c-0.6,0.6-1.4,1-2.5,1.3c2.8,0.4,4.2,1.6,4.2,3.5c0,1.2-0.6,2.2-1.7,2.8s-2.7,1-4.8,1H675V205.4z M681.4,211.5c1.1,0,2-0.2,2.6-0.7
		s0.9-1.1,0.9-2c0-0.7-0.3-1.3-0.9-1.7c-0.6-0.4-1.4-0.6-2.5-0.6h-3v4.9H681.4z M682.8,218.2c0.9,0,1.6-0.2,2.1-0.7s0.7-1.1,0.7-2
		c0-0.9-0.4-1.5-1.1-2s-1.8-0.7-3.2-0.7h-2.8v5.4H682.8z"/>
	<path class="st2" d="M691.9,218.6c-0.8-0.7-1.1-1.6-1.1-2.8v-6.2h3v6.4c0,1.7,0.7,2.5,2.1,2.5c0.8,0,1.5-0.3,2-0.9s0.7-1.4,0.7-2.5
		v-5.6h3v9.8h-3v-1.6c-0.3,0.6-0.8,1-1.4,1.3c-0.6,0.3-1.4,0.5-2.1,0.5C693.7,219.6,692.7,219.3,691.9,218.6z"/>
	<path class="st2" d="M704,216.6h2.2c0.1,0.7,0.4,1.1,0.9,1.5c0.5,0.3,1.1,0.5,2,0.5c0.8,0,1.4-0.2,1.9-0.5s0.7-0.7,0.7-1.3
		c0-0.4-0.2-0.7-0.7-1c-0.5-0.3-1.1-0.5-1.9-0.6c-1.7-0.3-3-0.6-3.7-1.1c-0.8-0.5-1.2-1.1-1.2-1.9c0-0.9,0.4-1.5,1.3-2
		c0.8-0.5,2.1-0.7,3.7-0.7c1.6,0,2.8,0.2,3.7,0.7s1.4,1.2,1.6,2.2h-2.2c-0.1-0.6-0.4-1.1-0.9-1.4c-0.5-0.3-1.1-0.5-1.8-0.5
		c-1.5,0-2.2,0.4-2.2,1.3c0,0.3,0.1,0.5,0.2,0.6c0.1,0.2,0.4,0.3,0.8,0.5c0.4,0.1,0.9,0.3,1.7,0.4c1.7,0.3,2.9,0.7,3.7,1.2
		s1.2,1.2,1.2,2.1c0,2.1-1.9,3.1-5.6,3.1C706.2,219.6,704.5,218.6,704,216.6z"/>
	<path class="st2" d="M717.6,208.1c-0.4-0.3-0.5-0.7-0.5-1.2s0.2-0.9,0.5-1.2c0.4-0.3,0.8-0.5,1.4-0.5s1,0.2,1.4,0.5
		c0.4,0.3,0.5,0.7,0.5,1.2s-0.2,0.9-0.5,1.2c-0.4,0.3-0.8,0.5-1.4,0.5S717.9,208.4,717.6,208.1z M717.4,209.6h3v9.8h-3V209.6z"/>
	<path class="st2" d="M723.5,209.6h3v1.6c0.3-0.6,0.8-1,1.4-1.3c0.6-0.3,1.4-0.5,2.1-0.5c1.3,0,2.4,0.3,3.1,1
		c0.8,0.7,1.1,1.6,1.1,2.8v6.2h-3V213c0-1.7-0.7-2.5-2.1-2.5c-0.8,0-1.5,0.3-2,0.9s-0.7,1.4-0.7,2.5v5.6h-3V209.6z"/>
	<path class="st2" d="M744.8,218c0.5-0.4,0.8-1,1-1.8h2.2c-0.2,1.1-0.8,2-1.8,2.5c-1,0.6-2.3,0.9-3.8,0.9c-1.2,0-2.3-0.2-3.1-0.6
		c-0.9-0.4-1.6-1-2-1.8s-0.7-1.7-0.7-2.7c0-1.1,0.2-2,0.7-2.7s1.2-1.4,2-1.8c0.9-0.4,1.9-0.6,3.1-0.6c1.9,0,3.3,0.4,4.3,1.3
		s1.5,2.2,1.5,3.8h-8.7v0.1c0,2.6,1.1,3.9,3.3,3.9C743.6,218.6,744.3,218.4,744.8,218z M740.5,211.2c-0.5,0.5-0.8,1.3-0.9,2.3h5.7
		c-0.1-1-0.4-1.8-0.9-2.3c-0.5-0.5-1.1-0.8-1.9-0.8C741.6,210.4,741,210.7,740.5,211.2z"/>
	<path class="st2" d="M750.5,216.6h2.2c0.1,0.7,0.4,1.1,0.9,1.5c0.5,0.3,1.1,0.5,2,0.5c0.8,0,1.4-0.2,1.9-0.5s0.7-0.7,0.7-1.3
		c0-0.4-0.2-0.7-0.7-1c-0.5-0.3-1.1-0.5-1.9-0.6c-1.7-0.3-3-0.6-3.7-1.1c-0.8-0.5-1.2-1.1-1.2-1.9c0-0.9,0.4-1.5,1.3-2
		c0.8-0.5,2.1-0.7,3.7-0.7c1.6,0,2.8,0.2,3.7,0.7s1.4,1.2,1.6,2.2h-2.2c-0.1-0.6-0.4-1.1-0.9-1.4c-0.5-0.3-1.1-0.5-1.8-0.5
		c-1.5,0-2.2,0.4-2.2,1.3c0,0.3,0.1,0.5,0.2,0.6c0.1,0.2,0.4,0.3,0.8,0.5c0.4,0.1,0.9,0.3,1.7,0.4c1.7,0.3,2.9,0.7,3.7,1.2
		s1.2,1.2,1.2,2.1c0,2.1-1.9,3.1-5.6,3.1C752.6,219.6,751,218.6,750.5,216.6z"/>
	<path class="st2" d="M763.2,216.6h2.2c0.1,0.7,0.4,1.1,0.9,1.5c0.5,0.3,1.1,0.5,2,0.5c0.8,0,1.4-0.2,1.9-0.5s0.7-0.7,0.7-1.3
		c0-0.4-0.2-0.7-0.7-1c-0.5-0.3-1.1-0.5-1.9-0.6c-1.7-0.3-3-0.6-3.7-1.1c-0.8-0.5-1.2-1.1-1.2-1.9c0-0.9,0.4-1.5,1.3-2
		c0.8-0.5,2.1-0.7,3.7-0.7c1.6,0,2.8,0.2,3.7,0.7s1.4,1.2,1.6,2.2h-2.2c-0.1-0.6-0.4-1.1-0.9-1.4c-0.5-0.3-1.1-0.5-1.8-0.5
		c-1.5,0-2.2,0.4-2.2,1.3c0,0.3,0.1,0.5,0.2,0.6c0.1,0.2,0.4,0.3,0.8,0.5c0.4,0.1,0.9,0.3,1.7,0.4c1.7,0.3,2.9,0.7,3.7,1.2
		s1.2,1.2,1.2,2.1c0,2.1-1.9,3.1-5.6,3.1C765.4,219.6,763.7,218.6,763.2,216.6z"/>
	<path class="st2" d="M320.5,235.4h3.4v14h-3.4V235.4z"/>
	<path class="st2" d="M327.5,239.6h3v1.6c0.3-0.6,0.8-1,1.4-1.3c0.6-0.3,1.4-0.5,2.1-0.5c1.3,0,2.4,0.3,3.1,1
		c0.8,0.7,1.1,1.6,1.1,2.8v6.2h-3V243c0-1.7-0.7-2.5-2.1-2.5c-0.8,0-1.5,0.3-2,0.9s-0.7,1.4-0.7,2.5v5.6h-3V239.6z"/>
	<path class="st2" d="M343.1,248.9c-0.8-0.4-1.5-1-1.9-1.8s-0.7-1.7-0.7-2.7c0-1,0.2-1.9,0.6-2.7c0.4-0.8,1-1.4,1.8-1.8
		c0.8-0.4,1.7-0.6,2.7-0.6c0.8,0,1.6,0.2,2.2,0.5c0.6,0.3,1.1,0.8,1.5,1.4v-5.5h3v13.7h-3v-1.5c-0.7,1.1-1.9,1.7-3.5,1.7
		C344.8,249.6,343.9,249.4,343.1,248.9z M348.5,247.5c0.5-0.7,0.8-1.7,0.8-3c0-1.3-0.3-2.3-0.8-3c-0.5-0.7-1.3-1.1-2.2-1.1
		c-0.9,0-1.6,0.3-2.1,1s-0.7,1.7-0.7,3c0,1.3,0.3,2.3,0.8,3c0.5,0.7,1.2,1.1,2.1,1.1C347.2,248.6,348,248.2,348.5,247.5z"/>
	<path class="st2" d="M355.9,248.6c-0.8-0.7-1.1-1.6-1.1-2.8v-6.2h3v6.4c0,1.7,0.7,2.5,2.1,2.5c0.8,0,1.5-0.3,2-0.9s0.7-1.4,0.7-2.5
		v-5.6h3v9.8h-3v-1.6c-0.3,0.6-0.8,1-1.4,1.3c-0.6,0.3-1.4,0.5-2.1,0.5C357.7,249.6,356.7,249.3,355.9,248.6z"/>
	<path class="st2" d="M368,246.6h2.2c0.1,0.7,0.4,1.1,0.9,1.5s1.1,0.5,2,0.5c0.8,0,1.4-0.2,1.9-0.5c0.5-0.3,0.7-0.7,0.7-1.3
		c0-0.4-0.2-0.7-0.7-1c-0.5-0.3-1.1-0.5-1.9-0.6c-1.7-0.3-3-0.6-3.7-1.1c-0.8-0.5-1.2-1.1-1.2-1.9c0-0.9,0.4-1.5,1.3-2
		s2.1-0.7,3.7-0.7c1.6,0,2.8,0.2,3.7,0.7s1.4,1.2,1.6,2.2h-2.2c-0.1-0.6-0.4-1.1-0.9-1.4c-0.5-0.3-1.1-0.5-1.8-0.5
		c-1.5,0-2.2,0.4-2.2,1.3c0,0.3,0.1,0.5,0.2,0.6c0.1,0.2,0.4,0.3,0.8,0.5c0.4,0.1,0.9,0.3,1.7,0.4c1.7,0.3,2.9,0.7,3.7,1.2
		s1.2,1.2,1.2,2.1c0,2.1-1.9,3.1-5.6,3.1C370.2,249.6,368.5,248.6,368,246.6z"/>
	<path class="st2" d="M382.4,248.9c-0.5-0.5-0.8-1.2-0.8-2.2v-6h-1.8l0.4-1h1.5l0.7-2.8h2.2v2.8h2.7l-0.3,1h-2.4v6.2
		c0,0.5,0.1,1,0.3,1.2s0.6,0.4,1,0.4c0.5,0,1-0.1,1.5-0.4v1.1c-0.6,0.3-1.5,0.4-2.7,0.4C383.7,249.6,382.9,249.4,382.4,248.9z"/>
	<path class="st2" d="M389,239.6h3v2c0.3-0.7,0.7-1.3,1.2-1.6s1.2-0.6,2-0.6c0.3,0,0.5,0,0.7,0.1l-0.2,1.7c-0.2-0.1-0.5-0.2-0.8-0.2
		c-1,0-1.7,0.4-2.2,1.2c-0.5,0.8-0.7,1.7-0.7,2.8v4.3h-3V239.6z"/>
	<path class="st2" d="M396.1,252.7l0.6-1.1c0.1,0.2,0.4,0.3,0.7,0.5s0.6,0.2,0.9,0.2c0.8,0,1.5-0.2,2-0.7c0.5-0.5,0.8-1.1,0.8-1.8
		c0-0.6-0.1-1-0.3-1.4l-4.7-8.7h3.1l3.8,7.3l3.5-7.3h1.8l-4.9,10.1c-0.6,1.3-1.3,2.2-2,2.8c-0.7,0.6-1.6,0.9-2.5,0.9
		C397.5,253.4,396.6,253.2,396.1,252.7z"/>
	<path class="st2" d="M409.4,243.7h7.2v1.1h-7.2V243.7z"/>
	<path class="st2" d="M429.2,245.9H422l-1.7,3.5h-2.4l7.3-14.2h2.2l6.9,14.2h-3.5L429.2,245.9z M428.6,244.6l-2.9-6.3l-3,6.3H428.6z
		"/>
	<path class="st2" d="M436.4,248.3c-1.1-0.9-1.6-2.1-1.6-3.8c0-1.7,0.5-2.9,1.6-3.8c1.1-0.9,2.6-1.3,4.5-1.3c1.7,0,3,0.3,3.9,0.9
		c1,0.6,1.5,1.4,1.7,2.6h-2.2c-0.1-0.8-0.5-1.4-1-1.8s-1.2-0.6-2.1-0.6c-1.1,0-1.9,0.3-2.5,1s-0.9,1.7-0.9,3c0,1.3,0.3,2.3,0.9,3
		s1.4,1,2.5,1c0.8,0,1.5-0.2,2.1-0.6s0.9-1,1-1.8h2.2c-0.1,1.1-0.7,2-1.7,2.6s-2.3,0.9-3.9,0.9C438.9,249.6,437.4,249.2,436.4,248.3
		z"/>
	<path class="st2" d="M449.7,248.8c-0.7-0.5-1.1-1.3-1.1-2.2c0-1,0.4-1.8,1.3-2.3s2.1-0.8,3.7-0.8h2.6v-0.7c0-0.7-0.2-1.3-0.6-1.7
		c-0.4-0.4-1-0.6-1.8-0.6c-0.8,0-1.4,0.2-1.8,0.6s-0.7,1-0.8,1.7h-2.2c0.1-1.1,0.7-1.9,1.6-2.5c0.9-0.6,2.1-0.8,3.6-0.8
		c1.7,0,2.9,0.3,3.8,0.9c0.9,0.6,1.3,1.5,1.3,2.7v3.2c0,1.2,0.1,2.3,0.3,3.3h-2.8c-0.1-0.5-0.2-1-0.3-1.3c-0.4,0.5-0.9,0.9-1.5,1.2
		c-0.6,0.2-1.3,0.4-2,0.4C451.5,249.6,450.4,249.3,449.7,248.8z M455.5,247.9c0.5-0.4,0.7-1,0.7-1.8v-1.7h-1.8
		c-0.9,0-1.6,0.2-2.1,0.6c-0.5,0.4-0.7,0.9-0.7,1.5c0,0.7,0.2,1.2,0.5,1.5c0.3,0.3,0.8,0.5,1.5,0.5
		C454.4,248.6,455,248.4,455.5,247.9z"/>
	<path class="st2" d="M464.3,248.9c-0.8-0.4-1.5-1-1.9-1.8s-0.7-1.7-0.7-2.7c0-1,0.2-1.9,0.6-2.7c0.4-0.8,1-1.4,1.8-1.8
		c0.8-0.4,1.7-0.6,2.7-0.6c0.8,0,1.6,0.2,2.2,0.5c0.6,0.3,1.1,0.8,1.5,1.4v-5.5h3v13.7h-3v-1.5c-0.7,1.1-1.9,1.7-3.5,1.7
		C466,249.6,465.1,249.4,464.3,248.9z M469.7,247.5c0.5-0.7,0.8-1.7,0.8-3c0-1.3-0.3-2.3-0.8-3c-0.5-0.7-1.3-1.1-2.2-1.1
		c-0.9,0-1.6,0.3-2.1,1s-0.7,1.7-0.7,3c0,1.3,0.3,2.3,0.8,3c0.5,0.7,1.2,1.1,2.1,1.1C468.4,248.6,469.2,248.2,469.7,247.5z"/>
	<path class="st2" d="M484.2,248c0.5-0.4,0.8-1,1-1.8h2.2c-0.2,1.1-0.8,2-1.8,2.5c-1,0.6-2.3,0.9-3.8,0.9c-1.2,0-2.3-0.2-3.1-0.6
		c-0.9-0.4-1.6-1-2-1.8s-0.7-1.7-0.7-2.7c0-1.1,0.2-2,0.7-2.7s1.2-1.4,2-1.8s1.9-0.6,3.1-0.6c1.9,0,3.3,0.4,4.3,1.3s1.5,2.2,1.5,3.8
		h-8.7v0.1c0,2.6,1.1,3.9,3.3,3.9C483,248.6,483.7,248.4,484.2,248z M479.8,241.2c-0.5,0.5-0.8,1.3-0.9,2.3h5.7
		c-0.1-1-0.4-1.8-0.9-2.3c-0.5-0.5-1.1-0.8-1.9-0.8C481,240.4,480.3,240.7,479.8,241.2z"/>
	<path class="st2" d="M489.8,239.6h3v1.5c0.2-0.5,0.6-0.9,1.2-1.2c0.6-0.3,1.2-0.5,2-0.5c1,0,1.8,0.2,2.4,0.5
		c0.6,0.4,1.1,0.9,1.3,1.5c0.3-0.7,0.7-1.3,1.3-1.6c0.6-0.3,1.3-0.5,2-0.5c2.8,0,4.2,1.2,4.2,3.7v6.3h-3v-6.5c0-0.8-0.2-1.4-0.5-1.8
		s-0.8-0.6-1.4-0.6c-0.8,0-1.3,0.3-1.7,1c-0.4,0.7-0.6,1.7-0.6,3v4.9h-2.9v-5.6c0-1.1-0.2-1.9-0.5-2.5c-0.4-0.6-0.9-0.8-1.5-0.8
		c-0.7,0-1.3,0.3-1.6,0.9c-0.4,0.6-0.6,1.4-0.6,2.5v5.6h-3V239.6z"/>
	<path class="st2" d="M510.3,238.1c-0.4-0.3-0.5-0.7-0.5-1.2s0.2-0.9,0.5-1.2c0.4-0.3,0.8-0.5,1.4-0.5c0.6,0,1,0.2,1.4,0.5
		c0.4,0.3,0.5,0.7,0.5,1.2s-0.2,0.9-0.5,1.2c-0.4,0.3-0.8,0.5-1.4,0.5C511.1,238.6,510.7,238.4,510.3,238.1z M510.2,239.6h3v9.8h-3
		V239.6z"/>
	<path class="st2" d="M517.1,248.8c-0.7-0.5-1.1-1.3-1.1-2.2c0-1,0.4-1.8,1.3-2.3s2.1-0.8,3.7-0.8h2.6v-0.7c0-0.7-0.2-1.3-0.6-1.7
		c-0.4-0.4-1-0.6-1.8-0.6c-0.8,0-1.4,0.2-1.8,0.6s-0.7,1-0.8,1.7h-2.2c0.1-1.1,0.7-1.9,1.6-2.5c0.9-0.6,2.1-0.8,3.6-0.8
		c1.7,0,2.9,0.3,3.8,0.9c0.9,0.6,1.3,1.5,1.3,2.7v3.2c0,1.2,0.1,2.3,0.3,3.3h-2.8c-0.1-0.5-0.2-1-0.3-1.3c-0.4,0.5-0.9,0.9-1.5,1.2
		c-0.6,0.2-1.3,0.4-2,0.4C518.9,249.6,517.8,249.3,517.1,248.8z M522.9,247.9c0.5-0.4,0.7-1,0.7-1.8v-1.7h-1.8
		c-0.9,0-1.6,0.2-2.1,0.6c-0.5,0.4-0.7,0.9-0.7,1.5c0,0.7,0.2,1.2,0.5,1.5c0.3,0.3,0.8,0.5,1.5,0.5
		C521.8,248.6,522.4,248.4,522.9,247.9z"/>
	<path class="st2" d="M541.4,247.7c-1.4-1.2-2.1-3-2.1-5.4c0-2.3,0.7-4.1,2-5.3c1.4-1.2,3.3-1.8,5.9-1.8c2.2,0,4,0.4,5.3,1.2
		c1.3,0.8,2,2,2.2,3.6h-2.7c-0.2-1.2-0.7-2-1.5-2.6c-0.8-0.6-1.9-0.9-3.2-0.9c-1.5,0-2.7,0.5-3.4,1.5c-0.8,1-1.2,2.5-1.2,4.4
		c0,2,0.4,3.5,1.2,4.5c0.8,1,1.9,1.5,3.5,1.5c1.3,0,2.4-0.3,3.2-0.9c0.8-0.6,1.3-1.5,1.5-2.6h2.7c-0.2,1.6-0.9,2.8-2.2,3.6
		c-1.3,0.8-3,1.2-5.2,1.2C544.8,249.6,542.8,249,541.4,247.7z"/>
	<path class="st2" d="M559.4,249c-0.9-0.4-1.6-1-2.1-1.8c-0.5-0.8-0.7-1.7-0.7-2.7s0.2-1.9,0.7-2.7c0.5-0.8,1.2-1.4,2.1-1.8
		s2-0.6,3.3-0.6s2.4,0.2,3.3,0.6s1.6,1,2.1,1.8c0.5,0.8,0.7,1.7,0.7,2.7s-0.2,1.9-0.7,2.7c-0.5,0.8-1.2,1.4-2.1,1.8s-2,0.6-3.3,0.6
		S560.3,249.4,559.4,249z M565,247.5c0.6-0.7,0.8-1.7,0.8-3c0-1.3-0.3-2.2-0.8-3s-1.3-1.1-2.3-1.1s-1.8,0.4-2.3,1.1s-0.8,1.7-0.8,3
		c0,1.3,0.3,2.2,0.8,3s1.3,1.1,2.3,1.1S564.5,248.2,565,247.5z"/>
	<path class="st2" d="M573.7,249c-0.9-0.4-1.6-1-2.1-1.8c-0.5-0.8-0.7-1.7-0.7-2.7s0.2-1.9,0.7-2.7c0.5-0.8,1.2-1.4,2.1-1.8
		c0.9-0.4,2-0.6,3.3-0.6c1.3,0,2.4,0.2,3.3,0.6c0.9,0.4,1.6,1,2.1,1.8c0.5,0.8,0.7,1.7,0.7,2.7s-0.2,1.9-0.7,2.7
		c-0.5,0.8-1.2,1.4-2.1,1.8c-0.9,0.4-2,0.6-3.3,0.6C575.7,249.6,574.6,249.4,573.7,249z M579.3,247.5c0.6-0.7,0.8-1.7,0.8-3
		c0-1.3-0.3-2.2-0.8-3c-0.6-0.7-1.3-1.1-2.3-1.1c-1,0-1.8,0.4-2.3,1.1c-0.6,0.7-0.8,1.7-0.8,3c0,1.3,0.3,2.2,0.8,3
		c0.6,0.7,1.3,1.1,2.3,1.1C578,248.6,578.7,248.2,579.3,247.5z"/>
	<path class="st2" d="M585.5,239.6h3v1.5c0.4-0.5,0.9-0.9,1.5-1.2c0.6-0.3,1.3-0.5,2.1-0.5c1.7,0,3,0.4,3.9,1.3s1.4,2.1,1.4,3.7
		c0,1.1-0.2,2-0.6,2.8c-0.4,0.8-1,1.4-1.8,1.8s-1.7,0.6-2.8,0.6c-1.7,0-2.9-0.6-3.6-1.9v5.5h-3V239.6z M593.6,247.5
		c0.5-0.8,0.8-1.8,0.8-3.1c0-1.3-0.3-2.3-0.8-2.9c-0.5-0.7-1.2-1-2.1-1c-0.9,0-1.6,0.4-2.1,1.1c-0.5,0.7-0.8,1.7-0.8,3
		c0,1.3,0.3,2.3,0.8,3.1s1.2,1.1,2.1,1.1S593,248.3,593.6,247.5z"/>
	<path class="st2" d="M607.6,248c0.5-0.4,0.8-1,1-1.8h2.2c-0.2,1.1-0.8,2-1.8,2.5c-1,0.6-2.3,0.9-3.8,0.9c-1.2,0-2.3-0.2-3.1-0.6
		c-0.9-0.4-1.6-1-2-1.8s-0.7-1.7-0.7-2.7c0-1.1,0.2-2,0.7-2.7s1.2-1.4,2-1.8c0.9-0.4,1.9-0.6,3.1-0.6c1.9,0,3.3,0.4,4.3,1.3
		s1.5,2.2,1.5,3.8h-8.7v0.1c0,2.6,1.1,3.9,3.3,3.9C606.4,248.6,607.1,248.4,607.6,248z M603.3,241.2c-0.5,0.5-0.8,1.3-0.9,2.3h5.7
		c-0.1-1-0.4-1.8-0.9-2.3c-0.5-0.5-1.1-0.8-1.9-0.8C604.5,240.4,603.8,240.7,603.3,241.2z"/>
	<path class="st2" d="M613.1,239.6h3v2c0.3-0.7,0.7-1.3,1.2-1.6s1.2-0.6,2-0.6c0.3,0,0.5,0,0.7,0.1l-0.2,1.7
		c-0.2-0.1-0.5-0.2-0.8-0.2c-1,0-1.7,0.4-2.2,1.2c-0.5,0.8-0.7,1.7-0.7,2.8v4.3h-3V239.6z"/>
	<path class="st2" d="M622.3,248.8c-0.7-0.5-1.1-1.3-1.1-2.2c0-1,0.4-1.8,1.3-2.3s2.1-0.8,3.7-0.8h2.6v-0.7c0-0.7-0.2-1.3-0.6-1.7
		c-0.4-0.4-1-0.6-1.8-0.6c-0.8,0-1.4,0.2-1.8,0.6c-0.5,0.4-0.7,1-0.8,1.7h-2.2c0.1-1.1,0.7-1.9,1.6-2.5c0.9-0.6,2.1-0.8,3.6-0.8
		c1.7,0,2.9,0.3,3.8,0.9c0.9,0.6,1.3,1.5,1.3,2.7v3.2c0,1.2,0.1,2.3,0.3,3.3h-2.8c-0.1-0.5-0.2-1-0.3-1.3c-0.4,0.5-0.9,0.9-1.5,1.2
		s-1.3,0.4-2,0.4C624.1,249.6,623,249.3,622.3,248.8z M628.1,247.9c0.5-0.4,0.7-1,0.7-1.8v-1.7H627c-0.9,0-1.6,0.2-2.1,0.6
		c-0.5,0.4-0.7,0.9-0.7,1.5c0,0.7,0.2,1.2,0.5,1.5c0.3,0.3,0.8,0.5,1.5,0.5C627,248.6,627.6,248.4,628.1,247.9z"/>
	<path class="st2" d="M636,248.9c-0.5-0.5-0.8-1.2-0.8-2.2v-6h-1.8l0.4-1h1.5l0.7-2.8h2.2v2.8h2.7l-0.3,1h-2.4v6.2
		c0,0.5,0.1,1,0.3,1.2c0.2,0.3,0.6,0.4,1,0.4c0.5,0,1-0.1,1.5-0.4v1.1c-0.6,0.3-1.5,0.4-2.7,0.4C637.3,249.6,636.5,249.4,636,248.9z
		"/>
	<path class="st2" d="M643.2,238.1c-0.4-0.3-0.5-0.7-0.5-1.2s0.2-0.9,0.5-1.2c0.4-0.3,0.8-0.5,1.4-0.5s1,0.2,1.4,0.5
		c0.4,0.3,0.5,0.7,0.5,1.2s-0.2,0.9-0.5,1.2c-0.4,0.3-0.8,0.5-1.4,0.5S643.5,238.4,643.2,238.1z M643.1,239.6h3v9.8h-3V239.6z"/>
	<path class="st2" d="M651.6,249c-0.9-0.4-1.6-1-2.1-1.8c-0.5-0.8-0.7-1.7-0.7-2.7s0.2-1.9,0.7-2.7c0.5-0.8,1.2-1.4,2.1-1.8
		s2-0.6,3.3-0.6c1.3,0,2.4,0.2,3.3,0.6s1.6,1,2.1,1.8c0.5,0.8,0.7,1.7,0.7,2.7s-0.2,1.9-0.7,2.7c-0.5,0.8-1.2,1.4-2.1,1.8
		s-2,0.6-3.3,0.6C653.6,249.6,652.5,249.4,651.6,249z M657.2,247.5c0.6-0.7,0.8-1.7,0.8-3c0-1.3-0.3-2.2-0.8-3
		c-0.6-0.7-1.3-1.1-2.3-1.1c-1,0-1.8,0.4-2.3,1.1s-0.8,1.7-0.8,3c0,1.3,0.3,2.2,0.8,3s1.3,1.1,2.3,1.1
		C655.9,248.6,656.7,248.2,657.2,247.5z"/>
	<path class="st2" d="M663.5,239.6h3v1.6c0.3-0.6,0.8-1,1.4-1.3c0.6-0.3,1.4-0.5,2.1-0.5c1.3,0,2.4,0.3,3.1,1
		c0.8,0.7,1.1,1.6,1.1,2.8v6.2h-3V243c0-1.7-0.7-2.5-2.1-2.5c-0.8,0-1.5,0.3-2,0.9s-0.7,1.4-0.7,2.5v5.6h-3V239.6z"/>
	<path class="st2" d="M687,235.4h6.1c2.8,0,4.9,0.6,6.4,1.7s2.2,2.8,2.2,5c0,2.4-0.7,4.2-2.2,5.4c-1.4,1.2-3.5,1.8-6.3,1.8H687
		V235.4z M693.5,248.2c1.6,0,2.7-0.5,3.5-1.5s1.2-2.5,1.2-4.5c0-1.8-0.4-3.2-1.2-4.1c-0.8-0.9-2-1.4-3.5-1.4h-3v11.5H693.5z"/>
	<path class="st2" d="M704.6,238.1c-0.4-0.3-0.5-0.7-0.5-1.2s0.2-0.9,0.5-1.2c0.4-0.3,0.8-0.5,1.4-0.5s1,0.2,1.4,0.5
		c0.4,0.3,0.5,0.7,0.5,1.2s-0.2,0.9-0.5,1.2c-0.4,0.3-0.8,0.5-1.4,0.5S705,238.4,704.6,238.1z M704.5,239.6h3v9.8h-3V239.6z"/>
	<path class="st2" d="M709.3,239.6h3.1l3.7,7l3.7-7h1.8l-5,10h-1.8L709.3,239.6z"/>
	<path class="st2" d="M723.5,238.1c-0.4-0.3-0.5-0.7-0.5-1.2s0.2-0.9,0.5-1.2c0.4-0.3,0.8-0.5,1.4-0.5s1,0.2,1.4,0.5
		c0.4,0.3,0.5,0.7,0.5,1.2s-0.2,0.9-0.5,1.2c-0.4,0.3-0.8,0.5-1.4,0.5S723.9,238.4,723.5,238.1z M723.4,239.6h3v9.8h-3V239.6z"/>
	<path class="st2" d="M729.1,246.6h2.2c0.1,0.7,0.4,1.1,0.9,1.5c0.5,0.3,1.1,0.5,2,0.5c0.8,0,1.4-0.2,1.9-0.5s0.7-0.7,0.7-1.3
		c0-0.4-0.2-0.7-0.7-1c-0.5-0.3-1.1-0.5-1.9-0.6c-1.7-0.3-3-0.6-3.7-1.1c-0.8-0.5-1.2-1.1-1.2-1.9c0-0.9,0.4-1.5,1.3-2
		c0.8-0.5,2.1-0.7,3.7-0.7c1.6,0,2.8,0.2,3.7,0.7s1.4,1.2,1.6,2.2h-2.2c-0.1-0.6-0.4-1.1-0.9-1.4c-0.5-0.3-1.1-0.5-1.8-0.5
		c-1.5,0-2.2,0.4-2.2,1.3c0,0.3,0.1,0.5,0.2,0.6c0.1,0.2,0.4,0.3,0.8,0.5c0.4,0.1,0.9,0.3,1.7,0.4c1.7,0.3,2.9,0.7,3.7,1.2
		s1.2,1.2,1.2,2.1c0,2.1-1.9,3.1-5.6,3.1C731.3,249.6,729.6,248.6,729.1,246.6z"/>
	<path class="st2" d="M742.7,238.1c-0.4-0.3-0.5-0.7-0.5-1.2s0.2-0.9,0.5-1.2c0.4-0.3,0.8-0.5,1.4-0.5s1,0.2,1.4,0.5
		c0.4,0.3,0.5,0.7,0.5,1.2s-0.2,0.9-0.5,1.2c-0.4,0.3-0.8,0.5-1.4,0.5S743,238.4,742.7,238.1z M742.5,239.6h3v9.8h-3V239.6z"/>
	<path class="st2" d="M751.1,249c-0.9-0.4-1.6-1-2.1-1.8c-0.5-0.8-0.7-1.7-0.7-2.7s0.2-1.9,0.7-2.7c0.5-0.8,1.2-1.4,2.1-1.8
		s2-0.6,3.3-0.6c1.3,0,2.4,0.2,3.3,0.6s1.6,1,2.1,1.8c0.5,0.8,0.7,1.7,0.7,2.7s-0.2,1.9-0.7,2.7c-0.5,0.8-1.2,1.4-2.1,1.8
		s-2,0.6-3.3,0.6C753.1,249.6,752,249.4,751.1,249z M756.7,247.5c0.6-0.7,0.8-1.7,0.8-3c0-1.3-0.3-2.2-0.8-3
		c-0.6-0.7-1.3-1.1-2.3-1.1c-1,0-1.8,0.4-2.3,1.1s-0.8,1.7-0.8,3c0,1.3,0.3,2.2,0.8,3s1.3,1.1,2.3,1.1
		C755.4,248.6,756.1,248.2,756.7,247.5z"/>
	<path class="st2" d="M762.9,239.6h3v1.6c0.3-0.6,0.8-1,1.4-1.3c0.6-0.3,1.4-0.5,2.1-0.5c1.3,0,2.4,0.3,3.1,1
		c0.8,0.7,1.1,1.6,1.1,2.8v6.2h-3V243c0-1.7-0.7-2.5-2.1-2.5c-0.8,0-1.5,0.3-2,0.9s-0.7,1.4-0.7,2.5v5.6h-3V239.6z"/>
</g>
</svg>
