<?xml version="1.0" encoding="utf-8"?>
<!-- Generator: $$$/GeneralStr/196=Adobe Illustrator 27.6.0, SVG Export Plug-In . SVG Version: 6.00 Build 0)  -->
<svg version="1.1" id="圖層_1" xmlns="http://www.w3.org/2000/svg" xmlns:xlink="http://www.w3.org/1999/xlink" x="0px" y="0px"
	 viewBox="0 0 512 512" style="enable-background:new 0 0 512 512;" xml:space="preserve">
<style type="text/css">
	.st0{fill-rule:evenodd;clip-rule:evenodd;fill:#A40081;}
	.st1{fill:#FFFFFF;}
	.st2{fill:#A40081;}
</style>
<g>
	<path class="st0" d="M409.3,366.6L409,367L409.3,366.6L409.3,366.6z M408.9,367.1c-33.7,45.9-88.7,75.8-150.8,75.8
		c-62,0-117-29.8-150.7-75.7c16.2-3.8,79.8-14.9,150.5,27v0l0,0l0,0v0C327.7,352.9,391.5,363.1,408.9,367.1L408.9,367.1z
		 M107.1,366.9L107.1,366.9L107.1,366.9z"/>
	<path class="st1" d="M300.8,429.2v-4.4c1.8,0,2.9-0.1,3.4-0.2c0.8-0.1,1.4-0.5,1.9-1c0.5-0.6,0.7-1.3,0.7-2.2c0-0.8-0.2-1.5-0.6-2
		c-0.4-0.6-0.9-1-1.7-1.2c-0.6-0.2-1.9-0.3-3.9-0.4v-4.4c1.1,0,1.9,0,2.2-0.1c0.9-0.1,1.6-0.4,2.1-0.9c0.5-0.5,0.8-1.2,0.8-2.1
		c0-0.8-0.2-1.5-0.7-2c-0.5-0.5-1.1-0.8-2-0.9c-0.4,0-1.2-0.1-2.5-0.1v-4.4h0.1c2.1,0,3.6,0.1,4.7,0.3c1,0.2,1.9,0.5,2.7,1.1
		c0.8,0.6,1.5,1.3,2,2.2c0.5,0.9,0.8,1.9,0.8,3.1c0,1.2-0.3,2.4-1,3.4c-0.7,1-1.6,1.8-2.7,2.3c1.6,0.5,2.8,1.3,3.7,2.4
		c0.9,1.1,1.3,2.5,1.3,4c0,1.2-0.3,2.4-0.8,3.5c-0.6,1.1-1.3,2-2.3,2.7c-1,0.7-2.2,1.1-3.6,1.2C305,429.1,303.4,429.2,300.8,429.2z
		 M208.7,429.2v-26.3h5.2l10.8,17.6v-17.6h4.9v26.3h-5.3L213.7,412v17.2H208.7L208.7,429.2z M300.8,402.9v4.4c-0.6,0-1.3,0-2.1,0
		h-3.1v6.1h3.5c0.6,0,1.2,0,1.6,0v4.4c-0.3,0-0.5,0-0.8,0h-4.3v7h4.9l0.2,0v4.4c-0.5,0-1,0-1.5,0h-9v-26.3H300.8L300.8,402.9z
		 M243.2,429.2v-21.9h-7.8v-4.5h20.9v4.5h-7.8v21.9H243.2L243.2,429.2z M261.7,402.9h5.3v14.2c0,2.3,0.1,3.7,0.2,4.4
		c0.2,1.1,0.8,1.9,1.6,2.6c0.9,0.7,2,1,3.5,1c1.5,0,2.6-0.3,3.4-0.9c0.8-0.6,1.2-1.4,1.4-2.3c0.2-0.9,0.2-2.4,0.2-4.5v-14.6h5.3
		v13.8c0,3.2-0.1,5.4-0.4,6.7c-0.3,1.3-0.8,2.4-1.6,3.3c-0.8,0.9-1.8,1.6-3.1,2.1c-1.3,0.5-3,0.8-5.1,0.8c-2.5,0-4.4-0.3-5.7-0.9
		c-1.3-0.6-2.3-1.3-3.1-2.3c-0.8-0.9-1.2-1.9-1.5-2.9c-0.3-1.5-0.5-3.7-0.5-6.7V402.9z"/>
	<path class="st0" d="M419.9,171.9c15.1,26.3,23.7,56.7,23.7,89.1c0,17.7-2.6,34.8-7.4,51c-5.6-0.1-11,0-16.3,0.2V171.9L419.9,171.9
		z M419.9,350L419.9,350L419.9,350L419.9,350z M257.9,78.9c69.6,0,130.2,37.5,162,93v140.3c-109.3,3.7-160.7,57.9-162.4,59.4l0,0
		v-84.8h0h14.3c4.8,19.9,9.6,19,9.6,19h75.9c-36.5-84-26.2-146.2-26.2-146.2h-30.8c0.7-9,1.6-13.5,2.2-19.7h30.7l3.3-19.7h-54.8
		l2.1-8.4h-26.2V78.9C257.6,78.9,257.7,78.9,257.9,78.9L257.9,78.9z M419.9,350L419.9,350L419.9,350L419.9,350L419.9,350L419.9,350z
		 M257.5,158.9l18.6,0c0,0,0.9-10.9,2.2-19.2h-20.8V158.9z M257.5,371.5c-2.3-2.1-57.9-61.1-178-59.5c-4.8-16.2-7.4-33.3-7.4-51
		c0-100.4,83-181.9,185.4-182.1v32.7h-26l2.4,8.4h-55.6l4.4,19.7h29.9c0.8,4.8,1.6,10.4,2.4,19.7h-30.9c0,0,11.4,59.4-26.4,146.2
		h75.9c0,0,4.8,0.8,9.6-19h14.3h0V371.5L257.5,371.5z M257.5,139.8h-20.7c0.6,4,1.5,9.1,2.3,19.2h18.4V139.8z"/>
	<path class="st0" d="M264.4,167.2c28.2,3.3,50,26.9,50,55.4c0,28.5-21.8,52-50,55.4v-9.5c22.5-3.4,39.8-22.4,39.8-45.5
		c0-23-17.3-42.1-39.8-45.5V167.2z"/>
	<path class="st0" d="M264.4,184.9c18.5,3.2,32.6,19.1,32.6,38.2c0,19.1-14.1,35-32.6,38.2v-10c13-3,22.7-14.5,22.7-28.1
		c0-13.7-9.7-25.1-22.7-28.1V184.9z"/>
	<path class="st0" d="M250.8,167.2c-28.2,3.3-50,26.9-50,55.4c0,28.5,21.8,52,50,55.4v-9.5C228.3,265,211,246,211,222.9
		c0-23,17.3-42.1,39.8-45.5V167.2z"/>
	<path class="st0" d="M250.8,184.9c-18.5,3.2-32.6,19.1-32.6,38.2c0,19.1,14.1,35,32.6,38.2v-10c-13-3-22.7-14.5-22.7-28.1
		c0-13.7,9.7-25.1,22.7-28.1V184.9z"/>
	<path class="st2" d="M485.8,361.3v-4l4.7,2l-1.5,3.4L485.8,361.3L485.8,361.3z M485.8,345.9v-4l10.2,4.3l-1.5,3.4L485.8,345.9
		L485.8,345.9z M485.8,336.2V332c0.2,0.1,0.5,0.2,0.8,0.3l3.2-11.8c-1.6-0.3-2.9-0.2-3.9,0.1v-3.6c2-0.5,4.3-0.5,7,0.2
		c0.2,0.1,0.5,0.2,1,0.3l-4.2,15.8c2.4,0.5,4.3,0.3,5.9-0.5c1.6-0.9,2.6-2.2,3-3.9c0.4-1.3,0.3-2.5-0.1-3.7
		c-0.4-1.1-1.3-2.2-2.7-3.1l1.5-3.6c2,1.2,3.4,2.7,4.2,4.6c0.8,1.9,0.8,4.1,0.2,6.6c-0.8,3.1-2.4,5.3-4.8,6.6
		c-2.4,1.3-5.3,1.5-8.8,0.6C487.1,336.6,486.4,336.4,485.8,336.2L485.8,336.2z M485.8,309.6v-11.7c0.7-1.2,1.5-2,2.4-2.4
		c0.9-0.5,2.1-0.7,3.6-0.7l-0.1,3.7c-1.1,0-2.1,0.3-2.9,1c-0.8,0.7-1.3,1.7-1.5,3.1c-0.3,1.7-0.2,2.9,0.2,3.7c0.4,0.8,1,1.3,1.8,1.4
		c0.5,0.1,0.9,0,1.4-0.2c0.4-0.2,0.9-0.6,1.2-1.2c0.2-0.3,0.7-1.4,1.5-3.1c1.2-2.5,2-4.2,2.7-5.1c0.6-1,1.4-1.6,2.4-2.1
		c0.9-0.4,2-0.5,3.3-0.3c1.2,0.2,2.3,0.8,3.3,1.7c1,0.9,1.6,2.1,2,3.5c0.4,1.4,0.4,3,0.1,4.7c-0.5,2.8-1.5,4.9-2.9,6.1
		c-1.4,1.3-3.3,1.9-5.7,1.9l0.1-3.7c1.5,0.1,2.7-0.3,3.6-1.1c0.9-0.8,1.6-2,1.8-3.7c0.3-1.7,0.2-3-0.4-3.9c-0.5-0.9-1.3-1.5-2.2-1.6
		c-0.8-0.1-1.5,0.1-2.2,0.7c-0.4,0.4-1,1.6-1.9,3.5c-1.2,2.6-2.1,4.3-2.8,5.3c-0.7,0.9-1.5,1.6-2.5,2c-1,0.4-2,0.5-3,0.3
		c-1-0.2-1.8-0.5-2.6-1.1C486.3,310.1,486.1,309.8,485.8,309.6L485.8,309.6z M502.3,291l-0.3-3.7c1.5-0.1,2.7-0.6,3.5-1.5
		c0.8-0.9,1.3-2.2,1.5-3.9c0.1-1.7-0.1-3-0.8-3.9c-0.6-0.9-1.4-1.3-2.4-1.4c-0.8-0.1-1.5,0.3-2.1,1c-0.4,0.5-0.9,1.7-1.5,3.7
		c-0.9,2.7-1.6,4.5-2.2,5.5c-0.6,1-1.3,1.8-2.3,2.2c-0.9,0.5-1.9,0.7-3,0.6c-1-0.1-1.9-0.4-2.7-0.9c-0.8-0.5-1.5-1.2-1.9-2
		c-0.4-0.6-0.7-1.4-0.9-2.4c-0.2-1-0.3-2.1-0.2-3.2c0.1-1.7,0.5-3.2,1.1-4.5c0.6-1.3,1.3-2.2,2.2-2.7c0.9-0.6,2.1-0.9,3.5-1l0.2,3.7
		c-1.1,0.1-2.1,0.5-2.7,1.3c-0.7,0.7-1.1,1.8-1.2,3.3c-0.1,1.7,0.1,2.9,0.6,3.7c0.5,0.8,1.1,1.2,1.9,1.2c0.5,0,0.9-0.1,1.3-0.4
		c0.4-0.3,0.8-0.7,1.1-1.4c0.2-0.4,0.6-1.4,1.2-3.2c0.9-2.6,1.6-4.4,2.1-5.4c0.5-1,1.2-1.8,2.1-2.3c0.9-0.5,2-0.8,3.2-0.7
		c1.2,0.1,2.4,0.5,3.4,1.3c1,0.8,1.8,1.9,2.3,3.3c0.5,1.4,0.7,3,0.6,4.7c-0.2,2.9-0.9,5-2.2,6.4C506.4,290,504.6,290.8,502.3,291z
		 M485.8,297.9v11.7c-0.4-0.4-0.8-1-1-1.5c-0.3-0.6-0.5-1.5-0.7-2.5c-0.1-1-0.1-2.1,0.1-3.2C484.6,300.6,485.1,299.2,485.8,297.9
		L485.8,297.9L485.8,297.9z M485.8,316.9v3.6c-0.2,0.1-0.3,0.1-0.4,0.2c-1.7,0.8-2.8,2.1-3.3,3.9c-0.4,1.6-0.3,3.2,0.5,4.6
		c0.7,1.2,1.7,2.1,3.2,2.8v4.2c-2.6-1-4.4-2.4-5.6-4.4c-1.5-2.4-1.8-5-1-7.9c0.8-2.8,2.3-4.9,4.8-6.2
		C484.5,317.4,485.2,317.1,485.8,316.9L485.8,316.9z M485.8,341.9v4l-3.5-1.5c-1.4-0.6-2.5-0.9-3.3-0.9c-0.8,0-1.6,0.2-2.3,0.7
		c-0.7,0.5-1.2,1.2-1.6,2.1c-0.6,1.5-0.7,2.9-0.2,4.4c0.5,1.5,2,2.7,4.6,3.8l6.3,2.7v4l-14.4-6.1v-3.6l1.6,0.7
		c-1.6-2.4-1.8-5-0.6-7.8c0.5-1.2,1.2-2.2,2.1-3.1c0.9-0.8,1.8-1.4,2.7-1.6c0.9-0.2,1.9-0.2,3,0c0.7,0.1,1.8,0.6,3.4,1.2
		L485.8,341.9L485.8,341.9z M471.4,392.1v-3.7c1.1-0.4,2-1.3,2.8-2.7c0.9-1.5,1.2-2.7,1.1-3.8c-0.2-1.1-0.7-1.8-1.5-2.3
		c-0.7-0.4-1.5-0.5-2.3-0.1c0,0-0.1,0-0.1,0.1v-4.2c0.3-0.1,0.6-0.1,0.9-0.1c1-0.1,2.1,0.2,3.2,0.9c1.1,0.6,1.9,1.6,2.4,2.7
		c0.6,1.2,0.8,2.5,0.6,4c-0.2,1.5-0.7,3-1.6,4.4c-1.5,2.4-3.1,4-4.9,4.7C471.8,392,471.6,392,471.4,392.1L471.4,392.1z M471.4,366.5
		v-4.2l14.1,7.2l-1.7,3.3L471.4,366.5z M471.4,351.5v3.6l-2.5-1.1l1.3-3.1L471.4,351.5L471.4,351.5z M471.4,362.4v4.2l-7.1-3.6
		l1.7-3.3L471.4,362.4L471.4,362.4z M471.4,375.3v4.2c-0.6,0.3-1.5,1.2-2.9,2.5c-2,2-3.5,3.3-4.5,3.9c-0.8,0.5-1.7,0.9-2.5,1v-4
		c0.3-0.1,0.6-0.3,1-0.6c0.3-0.3,1.1-1,2.5-2.3c2-1.9,3.4-3.2,4.3-3.8C470,375.8,470.7,375.5,471.4,375.3L471.4,375.3z M471.4,388.4
		v3.7c-1.6,0.5-3.5,0.3-5.4-0.4l1.4-3.5c1.4,0.6,2.6,0.7,3.8,0.3C471.2,388.4,471.3,388.4,471.4,388.4L471.4,388.4z M461.5,410.2
		v-14.1l6.3,4.4l-1.9,2.7l-2.6-1.9c1.1,2.8,0.7,5.4-1,7.8C462,409.6,461.8,409.9,461.5,410.2L461.5,410.2z M461.5,375.3v-3.8
		c0.5-0.2,1-0.3,1.5-0.4c1.1-0.1,2.2,0.1,3.6,0.7l-1.4,3.4c-1.1-0.4-2.1-0.5-3-0.1C461.9,375,461.7,375.1,461.5,375.3L461.5,375.3z
		 M461.5,359.4v-2.1l0.8,0.4L461.5,359.4z M461.5,357.3v2.1l-0.8,1.7l-3.8-1.9l1.7-3.3L461.5,357.3L461.5,357.3z M461.5,371.4v3.8
		c-0.7,0.4-1.3,1.1-1.9,2.1c-0.9,1.5-1.3,2.7-1.2,3.6c0.1,0.9,0.5,1.6,1.1,2c0.4,0.3,0.9,0.3,1.4,0.3c0.2,0,0.4-0.1,0.6-0.1v4
		c-0.2,0-0.3,0-0.5,0c-1,0-2-0.3-2.9-0.8c-0.8-0.5-1.5-1.2-2-2c-0.5-0.8-0.8-1.7-0.8-2.6c-0.1-0.7,0-1.6,0.3-2.6c0.3-1,0.7-2,1.3-3
		c0.9-1.5,1.9-2.6,3-3.5C460.4,372,460.9,371.7,461.5,371.4L461.5,371.4z M461.5,396.1v14.1c-0.6,0.6-1.2,1.2-1.9,1.6
		c-1,0.6-2,1-3,1c-0.9,0-1.9-0.2-2.9-0.6c-0.7-0.3-1.7-0.9-3-1.8l-6.2-4.4v-4.5l7.2,5c1.6,1.1,2.7,1.8,3.4,2.1
		c0.9,0.4,1.8,0.4,2.7,0.1c0.9-0.3,1.7-0.9,2.3-1.8c0.6-0.9,1-1.9,1.1-3.1c0.1-1.1-0.2-2.1-0.7-3c-0.6-0.9-1.6-1.9-3.2-3l-9.6-6.8
		l2.1-3L461.5,396.1L461.5,396.1z M444.5,429.9v-5.6c0.5-0.8,0.8-1.5,0.9-2.2c0.1-0.7,0.1-1.5-0.2-2.3c-0.2-0.4-0.4-0.8-0.7-1.2
		v-5.3c0.7,0.3,1.3,0.8,1.9,1.3c1.1,0.9,1.8,2.1,2.3,3.3c0.5,1.3,0.7,2.4,0.6,3.5c-0.1,1.1-0.5,2.3-1.1,3.5c-0.6,1.2-1.6,2.5-2.9,4
		L444.5,429.9z M444.5,401.4v4.5l-4.9-3.4l2.1-3L444.5,401.4L444.5,401.4z M444.5,413.3v5.3c-0.2-0.3-0.5-0.6-0.8-0.9
		c-0.8-0.8-1.8-1.2-2.8-1.3c-1-0.1-2,0.1-2.9,0.6c-0.1,0.1-0.2,0.1-0.3,0.2v-3.5c1.5-0.8,2.9-1.1,4.3-1
		C442.9,412.7,443.7,412.9,444.5,413.3L444.5,413.3z M444.5,424.3v5.6l-6.8,7.6v-5.3l5-5.6C443.6,425.5,444.2,424.8,444.5,424.3
		L444.5,424.3z M437.7,413.6v3.5c-0.9,0.6-1.9,1.5-3.1,2.8l-2.4,2.7v-5.4c0.9-1,1.5-1.9,1.8-2.5c0.5-1,0.6-1.9,0.4-2.7
		c-0.2-0.9-0.7-1.6-1.4-2.3c-0.2-0.2-0.5-0.4-0.7-0.6v-4.3c1.2,0.3,2.2,0.9,3,1.6c1,0.9,1.6,1.9,2,3.2c0.4,1.3,0.4,2.7-0.1,4.2
		C437.3,413.8,437.5,413.7,437.7,413.6L437.7,413.6z M437.7,432.1v5.3l0,0l-5.5-4.9v-5.4L437.7,432.1L437.7,432.1z M432.2,404.8v4.3
		c-0.5-0.3-1.1-0.6-1.7-0.7c-0.9-0.2-1.7,0-2.6,0.5c-0.1,0.1-0.3,0.2-0.5,0.3v-4.2c1.3-0.5,2.6-0.7,4-0.4
		C431.7,404.7,431.9,404.7,432.2,404.8L432.2,404.8z M432.2,417.2v5.4l-2.3,2.5l2.3,2v5.4l-4.7-4.3v-5.8l4.2-4.7
		C431.8,417.6,432,417.4,432.2,417.2z M427.5,405.1v4.2c-0.8,0.6-1.7,1.5-2.9,2.8l-4.1,4.5l6.8,6.1l0.2-0.2v5.8l-8.3-7.5v-8l3.6-4
		c1.5-1.7,3-2.9,4.4-3.5C427.2,405.1,427.3,405.1,427.5,405.1L427.5,405.1z M419.1,451.6V446l4,4.6l-2.8,2.4L419.1,451.6z
		 M419.1,412.7v8l-4-3.6L419.1,412.7L419.1,412.7z M419.1,446v5.6l-11.3-13l-1.3,1.1v-8.4c0.2,0.4,0.5,0.7,0.8,1.1l1.3,1.5l3.2-2.8
		l1.9,2.2l-3.2,2.8L419.1,446L419.1,446z M406.5,464.2c1.5-1.1,2.7-2.5,3.4-4.2c0.8-1.7,1-3.4,0.8-5.2c-0.3-1.8-1.2-3.9-2.9-6.1
		c-0.4-0.6-0.9-1.1-1.3-1.6v6.9c0.5,1.2,0.7,2.4,0.6,3.4c-0.1,0.8-0.3,1.6-0.6,2.3V464.2L406.5,464.2z M406.5,428.9v-4.5
		c0.3-0.2,0.7-0.4,1-0.6l1.7,2.8c-0.7,0.4-1.3,0.8-1.8,1.3C407.1,428.2,406.8,428.5,406.5,428.9z M406.5,424.4v4.5
		c-0.3,0.4-0.4,0.7-0.4,1.1c0,0.4,0.1,0.8,0.4,1.4v8.4l-1.2,1l-1.9-2.2l2.5-2.2l-1.5-1.8c-1-1.1-1.6-2-1.9-2.7c-0.4-1-0.4-2-0.1-3
		c0.3-1,1-2.1,2.3-3.2C405.2,425.3,405.8,424.8,406.5,424.4L406.5,424.4z M406.5,447v6.9c-0.4-0.9-0.9-1.9-1.7-2.9
		c-1.6-2.2-3.3-3.5-5.1-3.9l0,0v-3.6c0.3,0,0.7,0.1,1,0.1C402.9,444.1,404.8,445.2,406.5,447L406.5,447z M406.5,459.6v4.6l-0.1,0
		c-2.2,1.6-4.4,2.3-6.8,2.1v-3.6c1.8,0.4,3.5,0.1,5-1C405.5,461.1,406.1,460.4,406.5,459.6z M399.7,443.6v3.6
		c-1.8-0.4-3.4-0.1-4.9,1c-1.5,1.1-2.3,2.6-2.5,4.4c-0.2,1.8,0.6,3.9,2.2,6.2c1.7,2.3,3.4,3.6,5.2,4l0,0v3.6c-0.3,0-0.7-0.1-1-0.1
		c-2.7-0.5-5.1-2.2-7.3-5.2c-2.4-3.3-3.2-6.4-2.6-9.3c0.6-2.4,2-4.4,4.2-6C395.1,444.1,397.4,443.4,399.7,443.6L399.7,443.6z
		 M361.8,489.5v-3.7c0.2,0,0.3-0.1,0.5-0.2c0.4-0.2,0.9-0.4,1.4-0.8l1.8,2.8c-0.9,0.6-1.7,1.1-2.4,1.4
		C362.7,489.2,362.2,489.4,361.8,489.5L361.8,489.5z M361.8,470.9l14.4,11.8c0.1,0.4,0.1,0.7,0.2,1c0.3,1.5,0.4,2.5,0.4,3
		c0,0.6-0.2,1.1-0.5,1.6c-0.3,0.5-0.8,0.9-1.5,1.4c-0.5,0.3-1.2,0.6-2,0.8l2.1,2.8c0.9-0.2,1.7-0.4,2.3-0.8c1-0.6,1.8-1.4,2.2-2.3
		c0.5-0.9,0.7-2.1,0.6-3.5c0-1-0.3-2.8-0.7-5.4l-3.9-23.5l-3.2,1.9l2.3,13.4c0.3,1.7,0.7,3.4,1.2,5.1c-1.3-1.3-2.6-2.5-3.9-3.6
		l-10-8.5V470.9z M361.8,466.1v4.8l-3.8-3.1l3.5-2L361.8,466.1L361.8,466.1z M361.8,485.8c-0.3,0.1-0.5,0.1-0.8,0.1
		c-0.3,0-0.6-0.2-0.9-0.4c-0.2-0.2-0.6-0.8-1-1.8l-5.2-11.7l3.4-1.5l-1.2-2.6l-3.4,1.5l-3.1-7l-1.1,1.5v5.2l0.8,1.8l-0.8,0.4v3.2
		l2-0.9l5.1,11.5c0.9,2,1.6,3.3,2.2,3.8c0.6,0.5,1.3,0.8,2.1,0.9c0.5,0.1,1.1,0,1.8-0.2V485.8L361.8,485.8z M348.6,495.2v-4.9
		l1.7,4.2L348.6,495.2z M348.6,463.8v5.2l-1.4-3.2L348.6,463.8L348.6,463.8z M348.6,471.2v3.2l-0.5,0.2l-1.2-2.6L348.6,471.2
		L348.6,471.2z M348.6,490.3l-6.5-16.2l-3.4,1.4v0.1l8.2,20.3l1.8-0.7V490.3L348.6,490.3z M338.7,494.8v-1.4
		C338.7,493.9,338.7,494.3,338.7,494.8L338.7,494.8z M338.7,471.1v-4.6l0.3-0.1l1.6,4L338.7,471.1z M338.7,466.5v4.6l-1.6,0.6
		l-1.6-4L338.7,466.5L338.7,466.5z M338.7,475.5v0.1V475.5L338.7,475.5L338.7,475.5z M338.7,493.4v1.4c0,0.3-0.1,0.7-0.2,1
		c-0.3,1.3-1,2.4-2.1,3.4c-1.1,1-2.5,1.8-4.1,2.4c-2.7,0.9-5,1.1-6.8,0.4c-1.8-0.6-3.3-2-4.4-4.1l3.3-1.7c0.7,1.3,1.6,2.2,2.7,2.6
		c1.1,0.4,2.5,0.4,4.1-0.2c1.6-0.6,2.7-1.3,3.3-2.2c0.6-0.9,0.7-1.8,0.4-2.7c-0.3-0.8-0.8-1.3-1.7-1.5c-0.6-0.1-1.9-0.1-4,0.1
		c-2.8,0.2-4.8,0.3-6,0.2c-1.2-0.1-2.1-0.5-3-1.2c-0.8-0.7-1.4-1.5-1.7-2.5c-0.3-0.9-0.4-1.9-0.2-2.8c0.1-0.9,0.5-1.8,1.1-2.6
		c0.4-0.6,1-1.2,1.9-1.8c0.9-0.6,1.8-1.1,2.9-1.5c1.6-0.6,3.1-0.8,4.5-0.8c1.4,0,2.5,0.4,3.4,1c0.9,0.6,1.6,1.5,2.3,2.8l-3.3,1.7
		c-0.5-1-1.3-1.7-2.2-2c-1-0.3-2.1-0.3-3.5,0.2c-1.6,0.6-2.7,1.2-3.2,2c-0.5,0.8-0.6,1.5-0.4,2.2c0.2,0.5,0.4,0.8,0.9,1.1
		c0.4,0.3,1,0.4,1.7,0.5c0.4,0,1.5-0.1,3.4-0.2c2.7-0.2,4.6-0.2,5.8-0.2c1.1,0.1,2.1,0.4,3,1c0.8,0.6,1.5,1.5,1.9,2.7
		C338.5,492.5,338.6,493,338.7,493.4L338.7,493.4z M290.1,510.1v-3.1c0.5,0.1,1,0.1,1.6,0c1.4-0.2,2.5-0.7,3.3-1.5
		c0.9-0.8,1.5-2.1,1.9-3.7l3.9,0c-0.3,2.3-1.2,4.2-2.7,5.6c-1.5,1.4-3.5,2.3-6,2.6C291.3,510,290.7,510.1,290.1,510.1L290.1,510.1z
		 M290.1,499.6v-3.1l6.1-0.7c-0.4-1.8-1-3.1-1.9-3.9c-1.2-1.1-2.6-1.7-4.2-1.6v-3.1c2.5-0.1,4.6,0.6,6.4,2.2c2.1,1.8,3.4,4.4,3.8,8
		c0,0.2,0.1,0.6,0.1,1L290.1,499.6L290.1,499.6z M308.2,506.5l-4.6-21.5l3.3-0.7l0.7,3.3c0.5-1.7,1.1-2.9,1.7-3.5
		c0.6-0.6,1.3-1,2.2-1.2c1.2-0.3,2.6-0.1,4,0.4l-0.5,3.7c-1-0.3-1.9-0.4-2.8-0.2c-0.8,0.2-1.5,0.6-2,1.2c-0.5,0.6-0.8,1.4-0.9,2.3
		c-0.1,1.4,0,2.8,0.3,4.4l2.4,11.2L308.2,506.5z M290.1,487.1v3.1c-0.2,0-0.4,0-0.6,0c-1.7,0.2-3.1,1-4.1,2.2
		c-1,1.3-1.5,2.9-1.4,4.8l6.1-0.7v3.1l-5.9,0.7c0.4,2.4,1.3,4.1,2.7,5.3c1,0.8,2,1.2,3.2,1.4v3.1c-2.3,0-4.3-0.7-6-2.1
		c-2.1-1.7-3.4-4.4-3.8-7.9c-0.4-3.7,0.1-6.6,1.8-8.9c1.6-2.3,4-3.6,7-3.9C289.4,487.1,289.7,487.1,290.1,487.1L290.1,487.1z
		 M159.5,492.5v-3.6c0.9-0.4,1.8-1,2.7-1.9l3.3,2.1c-1.5,1.8-3.3,2.9-5.3,3.3C160,492.5,159.7,492.5,159.5,492.5L159.5,492.5z
		 M159.5,482.6v-3.4l5.2,2.4c0.6-1.7,0.8-3.2,0.5-4.4c-0.5-1.8-1.6-3.1-3.3-3.9c-0.8-0.4-1.6-0.6-2.5-0.6v-3.2
		c1.2,0.1,2.5,0.4,3.7,1c2.7,1.2,4.4,3.2,5.3,5.8c0.8,2.6,0.5,5.5-1,8.8c-0.1,0.2-0.2,0.5-0.4,0.9L159.5,482.6L159.5,482.6z
		 M177.1,472.6l1.3-4.1l3.5,1.2l-1.3,4.1L177.1,472.6L177.1,472.6z M169.1,497.4l3.5,1.2l6.8-20.9l-3.5-1.2L169.1,497.4L169.1,497.4
		z M216.1,478.5l3.9,0.9l-3.9,17.1c-0.7,3-1.6,5.2-2.6,6.8c-1.1,1.6-2.6,2.7-4.6,3.4c-2,0.7-4.4,0.7-7.3,0.1c-2.8-0.6-4.9-1.6-6.5-3
		c-1.5-1.4-2.5-3-2.8-5c-0.3-2-0.1-4.5,0.6-7.7l3.9-17.1l3.9,0.9l-3.9,17.1c-0.6,2.6-0.8,4.5-0.6,5.8c0.2,1.3,0.8,2.5,1.8,3.4
		c1,0.9,2.4,1.6,4,2c2.9,0.7,5.1,0.5,6.6-0.5c1.5-1,2.7-3.4,3.6-7.1L216.1,478.5L216.1,478.5z M221.6,509.9l1.9-21.9l3.3,0.3
		l-0.3,3.1c1.8-2.3,4.2-3.3,7.3-3c1.3,0.1,2.5,0.5,3.6,1c1.1,0.6,1.8,1.3,2.3,2.1c0.5,0.8,0.8,1.8,0.9,2.8c0.1,0.7,0,1.9-0.1,3.6
		l-1.2,13.5l-3.7-0.3l1.2-13.3c0.1-1.5,0.1-2.6-0.1-3.4c-0.2-0.8-0.7-1.4-1.4-1.9c-0.7-0.5-1.5-0.8-2.5-0.9c-1.6-0.1-3,0.2-4.2,1.1
		c-1.2,0.9-2,2.8-2.2,5.6l-1,11.9L221.6,509.9L221.6,509.9z M248.5,485.9l0.1-4.3l3.7,0.1l-0.1,4.3L248.5,485.9L248.5,485.9z
		 M247.5,511.9l0.8-21.9l3.7,0.1l-0.8,21.9L247.5,511.9L247.5,511.9z M265.4,511.9l-9.1-21.7l3.9-0.1l5.2,13
		c0.6,1.4,1.1,2.9,1.6,4.4c0.3-1.2,0.7-2.6,1.2-4.2l4.4-13.6l3.8-0.1l-7.5,22.2L265.4,511.9z M159.5,469.5v3.2
		c-0.7,0-1.5,0.1-2.2,0.3c-1.5,0.5-2.8,1.7-3.7,3.3l5.9,2.7v3.4l-7.4-3.4c-0.9,2.2-1.1,4.2-0.5,5.9c0.6,1.7,1.7,2.9,3.3,3.7
		c1.2,0.6,2.4,0.7,3.6,0.5c0.3-0.1,0.6-0.1,0.9-0.3v3.6c-1.8,0.2-3.8-0.1-5.8-1.1c-2.9-1.4-4.8-3.3-5.7-5.9c-0.9-2.6-0.6-5.5,1-8.7
		c1.6-3.4,3.6-5.5,6.2-6.6C156.6,469.6,158.1,469.4,159.5,469.5L159.5,469.5z M136.1,481.4v-3.5c0.1,0,0.3-0.1,0.4-0.1
		c1.7-0.6,3.3-2.2,4.8-4.7c1.4-2.4,1.9-4.5,1.6-6.3c-0.3-1.8-1.1-3.1-2.5-3.9c-1.3-0.7-2.7-0.8-4.4-0.3v-2.7
		c0.9-0.3,1.7-0.4,2.5-0.4c1.1,0,2.3,0.4,3.6,1.1c1.6,0.9,2.8,2.2,3.6,3.7c0.8,1.6,1,3.3,0.8,5.2c-0.2,1.9-0.9,3.7-1.9,5.6
		c-1.1,1.9-2.5,3.5-4.1,4.7C139.1,480.6,137.6,481.2,136.1,481.4L136.1,481.4z M136.1,458.3v-0.8l0.3,0.2L136.1,458.3z M136.1,457.5
		v0.8l-1.1,1.9c0.4-0.2,0.7-0.3,1.1-0.4v2.7c-0.1,0-0.3,0.1-0.4,0.1c-1.8,0.7-3.4,2.2-4.8,4.7c-1.4,2.4-2,4.5-1.6,6.3
		c0.3,1.7,1.2,3,2.6,3.8c1.3,0.8,2.7,0.9,4.3,0.4v3.5c-0.2,0-0.5,0-0.7,0c-1.8,0.1-3.4-0.3-4.9-1.2c-1.1-0.6-1.9-1.4-2.5-2.3
		c-0.6-0.9-1-1.9-1.1-2.9l-3.8,6.5V474l10.4-18L136.1,457.5L136.1,457.5z M123.1,459.8l4.8-7.4l-3.1-2l-1.7,2.6V459.8L123.1,459.8z
		 M127,447l2.3-3.6l3.1,2l-2.3,3.6L127,447z M123.1,453v6.8l-7.2,11l-0.9-0.6v-4.8L123.1,453L123.1,453z M123.1,474v7.4l-1.6,2.7
		l-3.2-1.9L123.1,474L123.1,474z M115,452.6v-9.4c0.5,0.5,0.9,1,1.2,1.5c0.6,1.1,1,2,1,2.9c0,0.9-0.2,1.8-0.6,2.7
		C116.3,450.8,115.8,451.6,115,452.6z M115,443.2v9.4c-0.1,0.2-0.3,0.4-0.4,0.6l-3.1,3.9c-2.1,2.7-3.4,4.5-3.9,5.3
		c-0.4,0.8-0.7,1.7-0.9,2.7l-3.1-2.4c0.2-0.8,0.5-1.7,1.1-2.6c-0.9,0-1.7,0-2.5-0.1v-2.6c0.1,0,0.2,0,0.2,0c1.3,0.2,2.4,0,3.5-0.5
		c0.8-0.4,1.8-1.3,2.8-2.6l0.8-1.1c-1.4-0.4-3.3-1.3-5.7-2.6c-0.7-0.4-1.2-0.7-1.7-0.9v-3.5c0.1,0,0.1,0.1,0.2,0.1
		c0.7,0.3,1.7,0.8,2.9,1.6c2.6,1.6,4.6,2.6,6,3.1c0.3-0.4,0.5-0.6,0.6-0.7c0.9-1.2,1.3-2.3,1.1-3.2c-0.2-1.2-1.1-2.5-2.6-3.6
		c-1.4-1.1-2.6-1.6-3.6-1.7c-1,0-2.2,0.4-3.5,1.4l-1.3-1.3v-2.3c0.8-0.5,1.6-0.8,2.3-1c1.2-0.3,2.5-0.2,4,0.3
		c1.4,0.5,2.9,1.3,4.4,2.5C113.8,442,114.4,442.6,115,443.2L115,443.2z M115,465.5v4.8l-2.2-1.4L115,465.5L115,465.5z M102.3,427.2
		v-5l9.2,8.9l-2.5,2.6L102.3,427.2z M102.3,422.2v5l-0.5-0.5l-18.6,19.2l-0.1-0.1v-5.6l15.8-16.4l-7.2-6.9l2.5-2.6L102.3,422.2
		L102.3,422.2z M102.3,439.7c-0.4,0.3-0.9,0.6-1.3,0.9l1.3,1.3V439.7L102.3,439.7z M102.3,446.2c-0.9-0.3-1.8-0.5-2.7-0.6
		c-1-0.1-1.9,0.1-2.8,0.5c-0.9,0.4-1.7,1-2.4,1.9c-1.1,1.4-1.5,3-1.3,4.8c0.3,1.7,1.4,3.3,3.3,4.8c1.2,0.9,2.4,1.6,3.7,2
		c0.7,0.2,1.4,0.3,2.2,0.4v-2.6c-1.2-0.2-2.3-0.7-3.3-1.6c-1.1-0.9-1.8-1.8-2-2.8c-0.2-1,0-1.9,0.6-2.7c0.4-0.5,0.9-0.9,1.5-1.1
		c0.6-0.2,1.2-0.2,1.9-0.1c0.3,0.1,0.8,0.3,1.3,0.5V446.2L102.3,446.2z M83.1,407.7v-4.9l0.3-0.3l2.4,2.8L83.1,407.7z M83.1,402.7
		v4.9l-17.2,15v-4.9L83.1,402.7L83.1,402.7z M83.1,440.3v5.6l-2.8-2.7L83.1,440.3L83.1,440.3z M65.9,408.7l1.1-0.8
		c1.3-1,2.2-1.7,2.7-2.2c0.7-0.8,1.2-1.6,1.4-2.4c0.2-0.8,0.2-1.9-0.2-3.1c-0.3-1.2-1-2.6-2.1-4.1c-0.9-1.2-1.9-2.3-2.9-3.1v4.4
		l0.1,0.1c1.1,1.5,1.6,2.9,1.5,4.2c-0.1,0.8-0.6,1.6-1.5,2.4V408.7z M65.9,393v4.4c-1-1.4-2-2.2-3-2.5c-0.4-0.1-0.9-0.2-1.5-0.1
		v-3.6l0,0c1.2,0,2.5,0.5,3.7,1.4C65.4,392.7,65.7,392.9,65.9,393L65.9,393z M65.9,404v4.6l-2.9,2.1c-0.6,0.4-1.1,0.8-1.6,1.2v-4.7
		l0.9-0.6c-0.3-0.2-0.6-0.4-0.9-0.6v-3.9c1.3,1.3,2.3,2.2,3.2,2.8c0.4-0.3,0.7-0.5,0.8-0.6C65.6,404.3,65.7,404.2,65.9,404L65.9,404
		z M65.9,417.7v4.9l-2.9,2.5l-1.6-1.8v-1.7L65.9,417.7z M61.4,391.2v3.6c-0.7,0.1-1.4,0.2-2.2,0.6l-1.7-3.2
		C58.9,391.4,60.2,391.1,61.4,391.2L61.4,391.2z M61.4,402.1v3.9c-1.1-0.8-2.4-2-3.9-3.5c-1.1-1.1-1.9-1.8-2.5-2.2
		c-0.6-0.4-1.2-0.5-1.8-0.5c-0.5,0-1,0.2-1.4,0.4v-4.1l0.1,0c1-0.1,2,0,2.9,0.3c0.9,0.3,1.8,0.8,2.6,1.5c0.6,0.5,1.4,1.3,2.4,2.3
		C60.3,401,60.9,401.6,61.4,402.1L61.4,402.1z M61.4,407.3v4.7c-1.9,1.4-3.1,2.4-3.6,2.9c-0.7,0.7-1.2,1.4-1.6,2.3L54,414
		c0.4-0.8,1-1.5,1.8-2.2c-1.5-0.4-2.8-0.9-3.9-1.5v-3.5c0.7,0.8,1.5,1.4,2.5,1.9c1.2,0.5,2.3,0.7,3.5,0.5c0.9-0.2,2-0.7,3.4-1.7
		L61.4,407.3L61.4,407.3z M61.4,421.6v1.7l-0.9-1L61.4,421.6L61.4,421.6z M51.8,388.2v-4.5c0.3-0.3,0.6-0.5,0.8-0.8
		c0.5-0.6,0.8-1.4,0.8-2.2c0-0.9-0.2-1.7-0.7-2.6c-0.3-0.4-0.5-0.8-0.9-1.2v-3.4c1.7,0.7,3,1.9,4,3.7c0.7,1.1,1.1,2.3,1.2,3.5
		c0.1,1.2,0,2.2-0.4,3.1c-0.4,0.9-1,1.7-1.8,2.4C54.4,386.7,53.4,387.3,51.8,388.2L51.8,388.2L51.8,388.2z M51.8,371.5v-0.3l0.1,0.2
		L51.8,371.5z M51.8,371.2v0.3l-2.6,1.5c0.9,0.1,1.8,0.2,2.6,0.6v3.4c-0.7-0.7-1.5-1.3-2.5-1.6c-1.4-0.5-3.4,0-5.8,1.4l-2.4,1.4
		v-4.3l9.2-5.3L51.8,371.2L51.8,371.2z M51.8,383.7v4.5l-10.7,6.2v-4.3l8.8-5.1C50.7,384.6,51.3,384.2,51.8,383.7L51.8,383.7z
		 M51.8,396.2v4.1c-0.1,0.1-0.2,0.1-0.3,0.2c-0.8,0.6-1.2,1.4-1.3,2.4c-0.1,1,0.3,2.1,1.1,3.2c0.2,0.2,0.4,0.5,0.6,0.7v3.5
		c-0.1-0.1-0.3-0.2-0.4-0.3c-1.1-0.8-2.1-1.7-3-2.9c-1.4-2-2-3.8-1.8-5.5c0.2-1.7,1-3.2,2.5-4.2C49.9,396.7,50.8,396.4,51.8,396.2
		L51.8,396.2z M41.1,367.3v-5.5c0.1-0.2,0.2-0.3,0.2-0.5c0.7-1.7,0.7-3.4,0-5.1c-0.1-0.1-0.1-0.3-0.2-0.4V351c1.2,1,2.2,2.3,3,3.9
		c1.3,2.7,1.4,5.4,0.4,8C43.9,364.6,42.7,366.1,41.1,367.3L41.1,367.3z M41.1,338.4v-1.6l3.6-1.2l1.2,3.5l-4.1,1.4L41.1,338.4
		L41.1,338.4z M41.1,328.6V328l0.5,0.5L41.1,328.6z M27,272.7l5.3-0.4l0.3,4.1l-5.6,4.3V272.7L27,272.7z M27,292.8l6.7-0.5l0.3,3.8
		l-7,0.5V292.8L27,292.8z M41.1,328v0.6l-6.9,1.9l1,3.6l-2.8,0.7l-1-3.6l-4.4,1.2v-3.8l3.5-0.9l-0.7-2.6l2.8-0.7l0.7,2.6l5.3-1.4
		L41.1,328L41.1,328z M41.1,336.8v1.6l-0.5-1.4L41.1,336.8L41.1,336.8z M41.1,351v4.8c-0.8-1.5-2-2.4-3.7-2.9
		c-1.8-0.5-3.9-0.2-6.5,1c-1.8,0.8-3.1,1.8-4,2.8v-5c0.7-0.5,1.5-0.9,2.4-1.3c3.7-1.7,6.9-2,9.6-0.7C39.7,350,40.4,350.5,41.1,351
		L41.1,351z M41.1,361.8v5.5c-0.8,0.6-1.7,1.2-2.8,1.6c-2.6,1.2-4.8,1.8-6.6,1.7c-1.7-0.1-3.3-0.6-4.8-1.6v-4.3
		c0.8,0.9,1.7,1.5,2.9,1.8c1.8,0.5,4,0.2,6.6-1.1C38.7,364.5,40.3,363.2,41.1,361.8L41.1,361.8z M41.1,373.8v4.3l-8,4.6l-1.9-3.2
		L41.1,373.8L41.1,373.8z M41.1,390.1v4.3l-0.9,0.5l-1.9-3.2L41.1,390.1L41.1,390.1z M27,345.6v-3.9l9.8-3.4l1.2,3.5L27,345.6
		L27,345.6z M27,319.4v-14.2c0.2,0.2,0.3,0.4,0.4,0.6c0.8,1.3,1.5,2.8,1.9,4.7c0.4,1.8,0.5,3.4,0.4,4.6c-0.2,1.2-0.5,2.2-1,2.9
		C28.2,318.6,27.6,319,27,319.4z M14.1,273.6l12.8-0.9v8.1l-12.8,9.9v-4.9l11.9-9.2l-11.9,0.8V273.6L14.1,273.6z M14.1,293.7
		l12.8-0.9v3.9l-12.8,0.9V293.7L14.1,293.7z M27,305.2v14.2c-0.2,0.1-0.4,0.2-0.6,0.3c-0.6,0.3-1.7,0.6-3.3,1l-4.8,1.1
		c-1.7,0.4-3.1,0.7-4.1,1v-4.5c0.9,0.2,2.2,0.1,3.7-0.3l1.3-0.3c-0.8-1.2-1.8-3.1-2.7-5.6c-0.6-1.4-1-2.4-1.5-3
		c-0.3-0.3-0.5-0.6-0.9-0.8v-4.1c0.8,0.3,1.5,0.7,2.1,1.3c0.7,0.7,1.3,1.4,1.8,2.3c0.3,0.7,0.8,1.7,1.3,3.1c1,2.8,1.9,4.9,2.7,6.2
		c0.5-0.1,0.8-0.2,0.9-0.2c1.5-0.3,2.4-0.9,2.9-1.8c0.6-1.1,0.7-2.6,0.3-4.4c-0.4-1.7-1-2.9-1.8-3.6c-0.8-0.7-2-1-3.6-1.1l-0.3-3.7
		c1.6,0,2.9,0.2,4,0.7C25.4,303.6,26.2,304.3,27,305.2L27,305.2z M27,328.6v3.8l-8,2.1c-1,0.3-1.7,0.5-1.9,0.7
		c-0.3,0.2-0.4,0.5-0.5,0.8c-0.1,0.3-0.1,0.8,0.1,1.3c0.1,0.4,0.3,0.9,0.6,1.5l-3,1.4v-7.8c0.6-0.5,2-1,4.1-1.5L27,328.6L27,328.6z
		 M27,341.6v3.9l-9.8,3.4l-1.2-3.5L27,341.6L27,341.6z M27,351.7v5c-0.4,0.5-0.7,1-1,1.5c-0.8,1.7-0.7,3.4,0.1,5.1
		c0.3,0.5,0.6,1,0.9,1.4v4.3c-0.1-0.1-0.2-0.1-0.2-0.2c-1.5-1.1-2.6-2.5-3.5-4.2c-1.3-2.8-1.5-5.4-0.5-8
		C23.5,354.7,24.9,353.1,27,351.7z M2,274.4l12.1-0.8v3.9l-11.8,0.8L2,274.4L2,274.4z M14.1,290.7l-4.2,3.3l4.2-0.3v3.9l-10.4,0.7
		l-0.3-4.1l10.7-8.3V290.7L14.1,290.7z M14.1,304.2v4.1c-0.2-0.1-0.4-0.2-0.6-0.3c-0.6-0.2-1.2-0.3-1.8-0.1c-1,0.2-1.7,0.8-2.2,1.7
		c-0.5,0.9-0.5,2-0.2,3.4c0.3,1.4,0.9,2.6,1.8,3.5c0.9,0.9,1.9,1.6,3.1,1.8l0,0v4.5c-1,0.3-1.8,0.5-2.2,0.7
		c-0.9,0.4-1.6,0.9-2.4,1.5l-0.9-3.8c0.7-0.5,1.5-1,2.5-1.3c-1.5-1.1-2.6-2.2-3.3-3.3c-0.8-1.1-1.3-2.4-1.6-3.8
		c-0.5-2.4-0.4-4.3,0.5-5.8c0.9-1.5,2.2-2.5,4-2.9c1.1-0.2,2.1-0.2,3,0.1C13.8,304.1,14,304.1,14.1,304.2L14.1,304.2z M14.1,332.5
		v7.8l0,0c-0.5-1-0.8-1.8-1-2.6c-0.4-1.3-0.4-2.4-0.2-3.2C13.1,333.6,13.5,333,14.1,332.5L14.1,332.5z"/>
	<path class="st2" d="M479,156.6V147l0.4,0.7l1.7-1L479,143v-3.7l1.4-0.8l3.8,6.3l1.4-0.8l-3.8-6.3l3-1.8l3.8,6.3l1.3-0.8
		c0.3-0.2,0.3-0.4,0.1-0.7l-3.4-5.7l3-1.8l5.2,8.6c0.3,0.5,0.2,0.9-0.3,1.3l-13.1,7.8l0.2,0.3l0.3,3.9
		C481,155.8,480,156.2,479,156.6L479,156.6z M479,136.1l0.6,0.2l1.1-2.8c0,0,0,0,0,0l3.5,0.2c0.1-0.9,0.1-1.9,0-2.9
		c0.9,0.3,1.8,0.6,2.7,0.9l1-3.3c-1.3-0.4-2.6-0.8-3.8-1.3c-0.1-2.3-0.1-3.9-0.2-4.8l-3.5,0c0.1,0.5,0.1,1.5,0.2,2.9
		c-0.5-0.3-1-0.7-1.5-1.1v4.2c0.8,0.5,1.4,0.8,1.7,1c0,1.2,0,2.5,0,3.6c-0.6-0.2-1.1-0.4-1.7-0.7V136.1L479,136.1z M479,121v-5.9
		c0.8,1.1,1.7,2.1,2.6,3.1l-2.3,3.2C479.2,121.2,479.1,121.1,479,121z M479,115.1v5.9c-1.8-1.9-3.5-4.2-5.1-6.8
		c-0.1-0.1-0.2-0.1-0.4,0.1l-1.3,0.8l3.6,6.1l-3,1.8l-3.6-6.1l-1.6,0.9l3.7,6.2l-3,1.8l-3.7-6.2l-1.6,0.9l10.3,17.2
		c0.2-1.3,0.3-2.7,0.4-4.1c-2.9-2.2-4.7-3.5-5.3-4.1l2-3c1.1,1.2,2.2,2.2,3.4,3c0-1.2,0-2,0-2.4l3.3,0.2c-0.8-0.6-1.5-1.2-2-1.6
		l1.8-3.1c0.7,0.6,1.3,1.1,2,1.6v4.2l-1.7-1c0,0.8,0,2.2-0.1,4.2c0.6,0.3,1.1,0.5,1.7,0.8v3.8c-0.7-0.3-1.3-0.5-1.9-0.8
		c0,1.1-0.1,2.1-0.2,3.1l-3.3-0.5l5.4,9v9.7c-1.8,0.7-4,1.4-6.4,2l-1-3.9c3-0.9,4.9-1.5,5.6-1.9c0.3-0.2,0.4-0.4,0.2-0.7L461,124.6
		v-7.5l0.1,0.1l13-7.8c0.6-0.3,1-0.2,1.4,0.4C476.6,111.7,477.7,113.5,479,115.1L479,115.1z M479,139.4l-1.6,1l1.6,2.7V139.4
		L479,139.4z M461,156.1l3.8,6.3l3.5-2.1l-7.3-12.1V156.1L461,156.1z M461,145.3l8.4,5.9l2.2-4.9L461,128.6v7.5l4.9,8.1l-4.9-3.4
		V145.3z M461,117.1v7.5l-2.5-4.2c-0.2-0.2-0.3-0.3-0.5-0.1l-5.5,3.3l-2.1-3.5l8.5-5.1c0.4-0.3,0.8-0.2,1,0.3L461,117.1L461,117.1z
		 M461,128.6v7.5l-4.4-7.4l3.3-2L461,128.6L461,128.6z M461,140.8l-1.4-1l0,0l-1.2-2c-0.4,1.3-0.8,2.5-1.4,3.8l-10.1-16.8l-3.5,2.1
		l11.2,18.7c-1.2,1.4-2.3,2.2-3.4,2.4c-1,0.1-2-0.3-3-1.4c-1.2-1.8-1.9-4.3-1.9-7.4l-4,1.5c0.4,3.1,1.1,5.7,2.2,7.7
		c1.1,1.9,2.6,3.2,4.5,3.9c2.3,0.7,4.6,0.1,7.1-1.9c0.3-0.3,0.6-0.6,0.9-0.9l4,6.7v-7.9l-1.5-2.5c0.2-0.4,0.3-0.7,0.6-1.1l1,0.7
		V140.8L461,140.8z M364.6,64.8v-5.5c2.8,3.2,6.3,6.3,10.7,9.3l-3.5,2.7C369.1,69.2,366.7,67,364.6,64.8L364.6,64.8z M364.6,55.9
		l12,5.1l1.4-3.2l-13.4-5.7V55.9L364.6,55.9z M364.6,48.8V45l13.5,5.7l-1.4,3.2L364.6,48.8L364.6,48.8z M364.6,41.8l16,6.8l1.4-3.2
		l-10.6-4.5c1.3-1.2,2.4-2.4,3.3-3.5l10.5,4.5l1.4-3.4l-7.7-3.3c2.2-1.3,4-2.6,5.6-3.8l-2.3-3.2c-1.5,1.3-3.7,2.7-6.5,4.3l1.1,1.8
		l-4.6-2l3.1-7.2l-3.6-1.5l-3.1,7.2l-3.9-1.7v4l6.2,2.6c-1,1-2.1,2.2-3.4,3.4l-2.8-1.2V41.8L364.6,41.8z M364.6,28.3v-7.8l2.8,1.2
		L364.6,28.3L364.6,28.3z M420.2,81.7c-3.1,7.6-3.5,16.8-1.1,27.8c0.2,1,0.5,2.1,0.8,3.3l5.1,0c-3.7-12-3.8-22-0.5-30.2
		c0.6-1.5,1.5-3.1,2.6-4.7l14.6,12.2l2.9-3.4l-15-12.6c0.6-0.6,1.1-1.2,1.7-1.9l4.7-5.6l-3.6-3l-4.7,5.6c-0.6,0.6-1.1,1.2-1.7,1.8
		l-15-12.6l-2.9,3.4l14.7,12.3c-10,8.4-21.1,10.9-33.5,7.5l0.1,4.8c10.7,2.1,20.3,0.8,29-3.8C418.9,82.5,419.6,82.1,420.2,81.7z
		 M364.6,20.6v7.8l-0.3,0.7l0.3,0.1v4l-6.2-2.6c0.1,1.5,0.1,3.2,0.1,4.9l6,2.5v3.8l-0.9-0.4l-1.2,2.8l2,0.9v3.8l-3.4-1.4l-1.2,2.8
		l4.6,1.9v3.8l-3.7-1.6c1,1.7,2.2,3.4,3.7,5v5.5c-2.8-2.9-5.1-5.8-7-8.9l-4.3,10.2l-3.9-1.7l4.4-10.4c-8.3,1.7-15.3,1.9-21.2,0.7
		l-0.1-4.4c6.7,1.3,13.3,1.4,19.8,0.1L336.8,44l1.4-3.2l18,7.6l1.2-2.8L341.7,39l1.4-3.2l15.6,6.6l1.2-2.8l-16.9-7.2l1.4-3.2
		l10.4,4.4c0-1.9-0.1-3.6-0.3-5l-9.9-4.2l1.4-3.4l8.1,3.5c-0.2-2.6-0.6-4.6-1-6l3.8-0.7c0.6,1.8,0.9,4,1.2,6.6l-3.3,0.4l6.2,2.6
		l3.1-7.2L364.6,20.6L364.6,20.6z M305.4,49.4v-4.5c0.5,0.1,0.8,0.1,1,0c0.8-0.4,1.3-1,1.4-1.8l1.8-15l-4.2-0.5v-3.9l4.7,0.6
		l0.5-4.3c0-0.2-0.1-0.4-0.3-0.4l-4.9-0.6v-4.1l8.9,1.1c0.7,0.1,1,0.5,0.9,1.2l-3.5,28.2c-0.2,1.7-1.1,3-2.5,3.7
		C308.4,49.5,307.1,49.6,305.4,49.4L305.4,49.4z M305.4,12v-6l12.4,1.5l-0.5,4l-11-1.4C306.1,10.7,305.8,11.3,305.4,12z M305.4,5.9
		v6c-0.1,0.2-0.2,0.5-0.3,0.7c-0.4,0.7-0.7,1.3-1,2l1.4,0.2v4.1l-4.7-0.6l-0.4,3.6c-0.1,0.7,0.2,1.1,0.9,1.1l4.3,0.5v3.9l-7.8-1
		c-1.2-0.2-1.8-0.9-1.6-2.1l0.8-6.6l-5.3-0.6v-4.1l8,1c1.5-2.7,2.3-4.2,2.4-4.5l-10.4-1.3V4.2l1.8,0.2l0.5-3.7l4.2,0.5L297.6,5
		L305.4,5.9L305.4,5.9z M305.4,44.9v4.5c-1.3-0.2-2.7-0.6-4.4-1.2l0.4-4.4l-9.9-1.2v-3.9l7.6,0.9c0.1,0,0.2-0.1,0.2-0.2l0.7-5.5
		c0-0.1,0-0.2-0.2-0.2l-8.3-1v-3.9l12.1,1.5c0.7,0.1,1.1,0.5,1,1.2l-1.4,11.4c-0.1,0.7-0.4,1.1-1.1,1
		C303.6,44.4,304.7,44.8,305.4,44.9z M291.6,4.2v4.1l-3.7-0.5c0.8,2.8,1.3,4.5,1.4,5l2.3,0.3v4.1l-0.5-0.1c-0.2,0.9-0.5,1.7-0.8,2.4
		c-1.8,3.5-5.7,5.8-11.5,6.9l-1.9-4c2.6-0.4,4.4-0.8,5.4-1.2c2.1-0.8,3.6-2.3,4.6-4.7l-9.7-1.2c-0.2,0-0.4,0.1-0.4,0.3l-3.6,29.4
		l-4.2-0.5l4-32.7c0.1-0.7,0.5-1,1.2-0.9l10.6,1.3c-0.8-2.6-1.3-4.2-1.5-5L272.5,6l0.5-4L291.6,4.2L291.6,4.2z M291.6,28.7
		l-10.4-1.3c-0.7-0.1-1.1,0.2-1.2,0.9l-1.4,11.4c-0.1,0.7,0.2,1.1,0.9,1.3l12.1,1.5v-3.9l-8.3-1c-0.1,0-0.2-0.1-0.1-0.3l0.7-5.5
		c0-0.1,0-0.2,0.2-0.2l7.6,0.9V28.7L291.6,28.7z M168.4,62.5v-4l14.4-6.1l1.4,3.4L168.4,62.5L168.4,62.5z M168.4,56.4l9.1-3.9
		l-1.2-2.8l-0.7,0.3l1-3.2c-1.4-0.4-4.2-1.1-8.3-2v6l3.4-1.6c1.2,0.3,2.4,0.6,3.5,0.9l-6.9,2.9V56.4L168.4,56.4z M168.4,44.7v-3.4
		l2.8-1.2l1.2,2.8L168.4,44.7L168.4,44.7z M168.4,39.6l4.3-1.8c0.3-0.1,0.5,0,0.7,0.3c0.3,0.8,0.7,2.6,1.1,5.5l3.9-0.5
		c-0.4-3.6-1.1-6.5-2.1-8.9l-3.6-0.2l-4.2,1.8V39.6L168.4,39.6z M168.4,34.1v-3.1l0.9,2.1c0.1,0.3,0,0.5-0.3,0.6L168.4,34.1
		L168.4,34.1z M214.8,29.8c-3.9,3.6-8.4,7.1-13.5,10.5l3,3.4c4-2.7,7.7-5.5,11.1-8.4l1.3,12.3l4.4-0.5l-4.8-45.6l-4.4,0.5l1,9.8
		l-13.7,1.4l0.5,4.4l13.7-1.4L214.8,29.8L214.8,29.8z M228.3,15.8L226.6,0l-4.4,0.5l4.2,39.8c0.2,2.7,1.1,4.6,2.8,5.6
		c0.9,0.4,1.9,0.6,3.2,0.5l8.8-0.9c1.5-0.2,2.5-0.4,3.2-0.6c0.6-0.3,1.2-0.9,1.9-1.8c0.5-0.7,0.8-1.5,1-2.6c0.3-1.7,0.3-4.8,0-9.3
		l-4.5-0.7c0,4.9-0.2,8-0.7,9.2c-0.4,0.8-1.4,1.3-2.8,1.5l-5.5,0.6c-1.2,0.1-2-0.1-2.5-0.6c-0.3-0.3-0.4-1-0.6-2.1l-1.9-17.8
		c6-4.9,10.8-9.6,14.3-14l-3.2-3.1C237.2,7.6,233.3,11.4,228.3,15.8z M168.4,31.1v3.1l-4.3,1.8v-3.2l0.5-0.2
		c0.1-0.1,0.1-0.2,0.1-0.2l-0.6-1.4c0,0,0,0,0-0.1v-3.2l2-0.8c0.3-0.1,0.5-0.1,0.6,0.2L168.4,31.1L168.4,31.1z M168.4,35.8l-4.3,1.8
		v3.8l4.3-1.8V35.8L168.4,35.8z M168.4,41.3v3.4l-0.2,0.1l0.2,0v6l-4.3,2v-3.5l2.6-1.2c-1.2-0.3-2.1-0.4-2.6-0.5v-0.6l0.1-0.6
		l-0.1,0.1v-3.4L168.4,41.3L168.4,41.3z M168.4,53.1v3.4l-4.3,1.8v-3.4L168.4,53.1L168.4,53.1z M168.4,58.5v4l-4.3,1.8v-4.1l0,0.1
		L168.4,58.5L168.4,58.5z M164.1,26v-3.4l1.1-0.5l1.2,2.8L164.1,26L164.1,26z M164.1,20.9v-3.8l1.7-0.7l1.4,3.2L164.1,20.9z
		 M164.1,17.1v3.8l-3.7,1.6v-3.8L164.1,17.1L164.1,17.1z M164.1,22.7V26l-3.7,1.6v-3.4L164.1,22.7L164.1,22.7z M164.1,27.7v3.2
		c0,0-0.1-0.1-0.2,0l-3.6,1.5v-3.2L164.1,27.7L164.1,27.7z M164.1,32.8v3.2l-3.7,1.6v-3.2L164.1,32.8L164.1,32.8z M164.1,37.6v3.8
		l-3.7,1.6v-3.8L164.1,37.6L164.1,37.6z M164.1,43.2v3.4l-3.7,1.6v-3.4L164.1,43.2L164.1,43.2z M164.1,47.1l-0.1,0.6l0.1,0V47.1
		L164.1,47.1z M164.1,49.4v3.5l-2.6,1.2l0.7,1.6l1.9-0.8v3.4l-0.7,0.3l0.7,1.7v4.1l-3.7,1.6v-4l0.2-0.1l-0.2-0.5V51.1L164.1,49.4z
		 M160.4,18.7v3.8l-9.4,4v-3.8L160.4,18.7L160.4,18.7z M160.4,24.2l-9.4,4v3.4l9.4-4V24.2L160.4,24.2z M160.4,29.3v3.2l-9.4,4v-3.2
		L160.4,29.3L160.4,29.3z M160.4,34.4l-9.4,4v3.2l9.4-4V34.4L160.4,34.4z M160.4,39.2V43l-9.4,4v-3.8L160.4,39.2L160.4,39.2z
		 M160.4,44.7l-9.4,4v3.4l0,0l0,0.1v6.9l7-3.3l0.6,1.5l-7.6,3.2v3.4l8.8-3.7l0.6,1.3V51.1l-6.3,2.9c0.5-1.4,0.9-2.7,1.2-3.8l5.1-2.2
		V44.7L160.4,44.7z M160.4,61.9v4l-9.4,4v-4L160.4,61.9z M151,22.7v3.8l-1,0.4l0.6,1.5l0.4-0.2v3.4L133.5,39l-1.2-2.8l14.7-6.3
		l-0.6-1.5l-17.1,7.3l-1.4-3.2l17.1-7.3l-0.9-2.1l3.6-1.5l0.9,2.1L151,22.7L151,22.7z M151,33.2L135.1,40c-0.3,0.1-0.4,0.3-0.2,0.6
		l2.6,6.1c0.1,0.3,0.3,0.4,0.6,0.3l12.9-5.5v-3.2l-10.8,4.6c-0.1,0-0.2,0-0.2-0.1l-0.6-1.4c-0.1-0.1-0.1-0.1,0-0.2l11.5-4.9V33.2
		L151,33.2z M151,43.2V47L139,52c-0.2,0.1-0.3,0.2-0.2,0.5l2.4,5.6l-3.6,1.5l-3.6-8.5c-0.1-0.4,0-0.7,0.4-0.9L151,43.2L151,43.2z
		 M151,48.7l-9.5,4.1l1.2,2.8l8.3-3.5V48.7L151,48.7z M151,52.2c-0.5,1.4-1,2.7-1.7,4.1l-8.5,3.9c0.7,1,1.4,1.9,2,2.7l8.2-3.9V52.2
		L151,52.2z M151,60.5v3.4l-5.7,2.4l-1.2-2.8L151,60.5L151,60.5z M151,65.9l-9.3,4l1.4,3.4l7.9-3.3V65.9L151,65.9z M96.4,109.8v-5.6
		l13.9-11.7c-3.5-8.4-7.7-16.6-12.7-24.7l4-1.9c4.9,8.6,9,16.6,12.2,23.7l10.3-8.6l2.7,3.3L96.4,109.8L96.4,109.8z M96.4,100.7
		L96.4,100.7l2.9-3.3c-0.9-0.8-1.9-1.6-2.9-2.5V100.7L96.4,100.7z M96.4,64.9v-5.6l4.7-3.9l2.7,3.3L96.4,64.9z M96.4,59.3v5.6
		l-8.2,6.9v-5.6L96.4,59.3L96.4,59.3z M96.4,95v5.8c-2.6-2.2-5.4-4.4-8.2-6.5v-5.5C91.1,90.8,93.9,92.9,96.4,95L96.4,95z
		 M96.4,104.2v5.6l-4.7,3.9l-2.7-3.3L96.4,104.2z M54.7,138.5l-2.2-1.3v5.9l2.3-3.9C55,138.9,55,138.7,54.7,138.5L54.7,138.5z
		 M88.2,66.2v5.6L70.5,86.6l-2.7-3.3l15.1-12.6L79,66.1l3.4-2.9l3.9,4.6L88.2,66.2L88.2,66.2z M88.2,88.7c-2.7-1.9-5.5-3.8-8.4-5.7
		l-2.7,3.5c3.9,2.5,7.6,5,11.1,7.7V88.7L88.2,88.7z M52.5,164v-5l2.9,1.8c0.3,0.2,0.5,0.1,0.6-0.2l17.5-29.1
		c0.2-0.3,0.1-0.5-0.2-0.6l-20.9-12.5v-5l25.9,15.5c0.6,0.4,0.7,0.9,0.4,1.5l-21.3,35.4c-0.4,0.6-0.8,0.7-1.5,0.3L52.5,164L52.5,164
		z M52.5,155.7v-6.5c1.5-3.9,2.7-7.2,3.4-10.1l3.9,1.1c-0.9,4.2-2.9,9.6-5.8,15.9L52.5,155.7L52.5,155.7z M52.5,133.7v-3.9
		c0.9,0.3,1.8,0.6,2.7,0.9c-0.7-1.1-1.6-2.3-2.7-3.6v-5.7c3.2,3.5,5.7,6.9,7.5,10.1c0.1,0.2,0.2,0.3,0.3,0.5
		c1.5,0.3,2.9,0.6,4.2,0.7c1.3,0.1,1.9,0.1,1.9,0c0.1-0.3-0.1-0.6-0.7-0.9c-1.2-0.8-2.7-1.7-4.5-2.6l2.7-2.8
		c3.4,2.2,5.7,4.1,6.9,5.5c0.4,0.8,0.6,1.4,0.5,1.8c-0.1,0.5-0.2,0.9-0.5,1.3c-0.6,0.8-1.6,1.3-3,1.5c-1.5,0-3.3-0.1-5.4-0.5
		c1.2,2.9,2.1,5.6,2.8,8.1l-3.8,1.6c-0.9-4.2-2.1-7.8-3.5-10.6C56.1,134.7,54.4,134.2,52.5,133.7z M52.5,137.2l-7.6-4.5v4.5l5,3
		c0.1,0,0.1,0.1,0.1,0.3l-4.2,7c-0.1,0.1-0.2,0.1-0.2,0l-0.6-0.4v4.5l1.3,0.8c0.3,0.2,0.5,0.1,0.7-0.1l5.5-9.2V137.2L52.5,137.2z
		 M52.5,113.3v5l-7.6-4.5v-5L52.5,113.3L52.5,113.3z M52.5,121.3v5.7c-1.2-1.4-2.7-3-4.4-4.6l2.8-2.7
		C51.5,120.2,52,120.8,52.5,121.3L52.5,121.3z M52.5,129.7v3.9c-2.4-0.8-4.9-1.7-7.6-2.7v-4.2C47.5,127.8,50,128.8,52.5,129.7
		L52.5,129.7z M52.5,149.2v6.5l-2.4-0.8C51,153,51.8,151,52.5,149.2L52.5,149.2z M52.5,159l-7.6-4.5v5l7.6,4.5V159L52.5,159z
		 M45,123.3l3.3-5.6l-3.3-2l0,0V123.3z M45,132.6l-1.3-0.8c-0.3-0.2-0.5-0.1-0.7,0.2l-3.7,6.2v9.9l5.8,3.5v-4.5l-5-3
		c-0.1,0-0.1-0.1-0.1-0.2l4.2-7c0.1-0.1,0.1-0.1,0.2-0.1l0.6,0.4V132.6L45,132.6z M45,108.8v5l-1.7-1c-0.3-0.2-0.5-0.1-0.6,0.2
		l-2.3,3.9c1.1,0.2,2.2,0.5,3.5,0.8l1.1-1.9v7.5l-1.7,2.8c0.6,0.3,1.1,0.5,1.7,0.7v4.2c-1.2-0.5-2.4-1-3.7-1.6l-2.1,3.5v-8.7
		c0.2,0.1,0.4,0.2,0.5,0.3l2-3.3c-0.9-0.2-1.8-0.4-2.5-0.5v-9.4l2-3.4c0.4-0.6,0.9-0.8,1.4-0.4L45,108.8L45,108.8z M45,154.4v5
		l-5.8-3.5v-5L45,154.4z M39.2,138.3l-4.1,6.8c-0.2,0.3-0.1,0.5,0.2,0.7l3.9,2.4V138.3L39.2,138.3z M39.2,111.2v9.4
		c-0.4-0.1-0.7-0.1-1-0.1l-1.5,2.4c0.8,0.4,1.6,0.8,2.5,1.2v8.7l-6.8,11.3l-3.3-2l8.7-14.4c-1.1-0.5-2.1-1-3.1-1.5L25.2,142
		c-0.2,0.3-0.1,0.5,0.2,0.6l13.9,8.3v5l-18.9-11.3c-0.6-0.4-0.7-0.8-0.4-1.4L39.2,111.2z"/>
	<ellipse class="st0" cx="20.1" cy="207.8" rx="10.8" ry="10.6"/>
	<path class="st0" d="M493.2,197.2c6,0,10.8,4.8,10.8,10.6c0,5.9-4.8,10.6-10.8,10.6s-10.8-4.8-10.8-10.6
		C482.4,202,487.2,197.2,493.2,197.2z"/>
	<path class="st0" d="M264.4,207.5v70.3l9.3-3.9l0-26.7v-25.1C273.7,222.1,273.9,211.5,264.4,207.5z"/>
	<path class="st0" d="M250.8,207.5l0,70.4l-9.3-4.8l0-25.9v-25.1C241.5,222.1,241.3,211.5,250.8,207.5z"/>
	<path class="st1" d="M250,334.8v-2.9c0.7,0,1.3-0.4,1.8-1c0.5-0.7,0.8-2.1,1-4.2c-0.8,0.9-1.7,1.4-2.8,1.5v-2.6h0
		c0.7,0,1.3-0.3,1.7-0.8c0.5-0.5,0.7-1.3,0.7-2.4c0-1.1-0.3-2-0.8-2.7c-0.5-0.6-1-0.9-1.7-0.9v-3c1.9,0,3.4,0.7,4.6,2.2
		c1.2,1.5,1.8,3.8,1.8,7.2c0,3.4-0.6,5.8-1.9,7.3C253.4,334,251.8,334.7,250,334.8L250,334.8z M269.2,334.5h-3.6v-13.4
		c-1.3,1.2-2.8,2.1-4.6,2.7v-3.2c0.9-0.3,1.9-0.9,3-1.7c1.1-0.9,1.8-1.8,2.2-3h2.9V334.5L269.2,334.5z M276,319.5v-3.3h12.1v2.6
		c-1,1-2,2.4-3.1,4.3c-1,1.8-1.8,3.8-2.4,5.9c-0.5,2.1-0.8,3.9-0.8,5.6h-3.4c0.1-2.6,0.6-5.2,1.6-7.8c1-2.7,2.3-5,4-7.1H276z
		 M237.6,334.5H234v-13.4c-1.3,1.2-2.8,2.1-4.6,2.7v-3.2c0.9-0.3,1.9-0.9,3-1.7c1.1-0.9,1.8-1.8,2.2-3h2.9V334.5L237.6,334.5z
		 M250,315.9v3c-0.1,0-0.1,0-0.2,0c-0.7,0-1.2,0.3-1.6,0.8c-0.4,0.5-0.7,1.4-0.7,2.6c0,1.2,0.2,2.1,0.7,2.6c0.5,0.6,1,0.8,1.7,0.8
		v2.6c-0.2,0-0.4,0-0.6,0c-1.5,0-2.7-0.6-3.8-1.7c-1.1-1.1-1.6-2.6-1.6-4.4c0-1.9,0.6-3.4,1.7-4.5
		C246.8,316.5,248.3,315.9,250,315.9L250,315.9L250,315.9z M250,331.9v2.9c-0.1,0-0.2,0-0.4,0c-1.5,0-2.6-0.4-3.5-1.2
		c-0.9-0.8-1.5-1.9-1.7-3.5l3.4-0.4c0.1,0.7,0.3,1.2,0.7,1.6C248.8,331.7,249.3,331.9,250,331.9L250,331.9z"/>
</g>
</svg>
