<?xml version="1.0" encoding="utf-8"?>
<!-- Generator: $$$/GeneralStr/196=Adobe Illustrator 27.6.0, SVG Export Plug-In . SVG Version: 6.00 Build 0)  -->
<svg version="1.1" id="圖層_1" xmlns="http://www.w3.org/2000/svg" xmlns:xlink="http://www.w3.org/1999/xlink" x="0px" y="0px"
	 viewBox="0 0 286 310" style="enable-background:new 0 0 286 310;" xml:space="preserve">
<style type="text/css">
	.st0{fill:url(#SVGID_1_);}
	.st1{fill:#FF5ACD;}
	.st2{fill:#A50082;}
</style>
<g>
	
		<linearGradient id="SVGID_1_" gradientUnits="userSpaceOnUse" x1="21.4357" y1="63.4931" x2="223.2964" y2="265.3538" gradientTransform="matrix(1 0 0 -1 0 311)">
		<stop  offset="0" style="stop-color:#FF5ACD"/>
		<stop  offset="1" style="stop-color:#FBDA61"/>
	</linearGradient>
	<path class="st0" d="M141.7,310c-38-0.3-73.8-15.5-100.6-42.8C14.3,239.8-0.3,203.9,0,165.9c0.4-51.9,29-99.4,74.6-124.2
		c3-2.8,3.1-4.9,2.9-6.3c-1-7.9-15.9-17.9-25-22.4L26.3,0l29,3.3c31.4,3.6,54.9,14.7,69.2,23.2c14.5,8.7,22,16.6,22.3,16.9L155,52
		h-11.8c-63.4,0-115,51.6-115,114.9c0,30,11.5,58.4,32.4,79.9c20.8,21.5,48.8,33.9,78.5,34.9c1.3,0,2.6,0.1,3.9,0.1
		c30.4,0,59-11.9,80.8-33.5s34-50.4,34.2-80.8c0.2-40.5-21.3-78.6-56.2-99.4l-0.2-0.1c-0.1-0.1-0.2-0.1-0.3-0.2l-0.2-0.1l-0.3-0.2
		c-6.3-4.2-8-12.8-3.9-19.1c2.6-3.9,6.9-6.2,11.6-6.2c2.7,0,5.3,0.8,7.5,2.2c0.4,0.3,0.7,0.5,1,0.7c20.4,12.5,37.6,30.1,49.6,50.9
		c12.4,21.5,18.9,46.1,18.9,71.1c0,78.8-64,142.8-142.8,142.8L141.7,310z"/>
	<circle class="st1" cx="174.9" cy="27.2" r="15.2"/>
	<g>
		<path class="st2" d="M59.4,158.3h9.8l-5.6,32.3h-9.8L59.4,158.3z M61.1,153.8c-1-0.8-1.4-1.9-1.4-3.3c0-1.8,0.7-3.4,2.1-4.7
			c1.4-1.3,3.1-1.9,5.1-1.9c1.6,0,2.9,0.4,3.9,1.2s1.4,1.9,1.4,3.3c0,1.8-0.7,3.4-2.1,4.7S67.1,155,65,155
			C63.3,155,62,154.6,61.1,153.8z"/>
		<path class="st2" d="M109.6,178.9H86.1l-7.7,11.7h-7.7l32.2-46.7h7.1l14.4,46.7H113L109.6,178.9z M108.4,174.8l-6-20.6l-13.6,20.6
			H108.4z"/>
		<path class="st2" d="M134.8,186.6c-3.8-3.1-5.7-7.5-5.7-13.5s1.2-11.1,3.7-15.5c2.5-4.4,6-7.8,10.7-10.2
			c4.6-2.4,10.1-3.6,16.3-3.6c7.2,0,12.7,1.3,16.3,4c3.6,2.7,5.3,6.6,5.3,11.8h-8.7c0-3.8-1.2-6.7-3.5-8.7s-5.5-3-9.9-3
			c-3.7,0-7,1.1-10,3.3s-5.1,5.2-6.7,9.1c-1.6,3.9-2.4,8.3-2.4,13.4c0,4.4,1,7.7,3.1,10.1s5.1,3.4,9.1,3.4c4.2,0,7.8-1,10.9-3
			c2.9-2,5.1-4.9,6.5-8.7h8.7c-1.6,5.1-4.6,9-9.2,11.8c-4.6,2.7-10.6,4-17.8,4C144.1,191.2,138.6,189.7,134.8,186.6z"/>
		<path class="st2" d="M191.9,144.4h19.7c8,0,14.2,1.5,18.3,4.4c4.2,2.9,6.3,7.3,6.3,13c0,5.7-1.3,10.8-4,15.1s-6.4,7.6-11.3,10.1
			c-4.8,2.3-10.6,3.5-17.1,3.5h-20.1L191.9,144.4z M205.6,186.5c3.8,0,7.1-1.1,10.1-3.2c2.9-2.1,5.2-5.1,6.8-8.9
			c1.6-3.8,2.5-8.2,2.5-13.1c0-4.1-1.1-7.2-3.2-9.4c-2.1-2.1-5.3-3.2-9.5-3.2h-9.9l-6.6,37.9L205.6,186.5L205.6,186.5z"/>
	</g>
</g>
</svg>
