<?xml version="1.0" encoding="utf-8"?>
<!-- Generator: $$$/GeneralStr/196=Adobe Illustrator 27.6.0, SVG Export Plug-In . SVG Version: 6.00 Build 0)  -->
<svg version="1.1" id="圖層_1" xmlns="http://www.w3.org/2000/svg" xmlns:xlink="http://www.w3.org/1999/xlink" x="0px" y="0px"
	 viewBox="0 0 152 30" style="enable-background:new 0 0 152 30;" xml:space="preserve">
<style type="text/css">
	.st0{fill:#58B2DC;}
</style>
<g>
	<path class="st0" d="M0,0v30h152V0H0z M21.4,26.8c0,0.5-1.1,0.8-3.4,0.8c-2.3,0-3.5-0.2-3.7-0.5l-6-11.2V27c0,0.4-1.1,0.6-3.3,0.6
		c-2.2,0-3.3-0.2-3.3-0.6V2.9c0-0.4,0.9-0.5,2.8-0.5c0.7,0,1.6,0.1,2.6,0.2C8.2,2.7,8.8,3,9,3.3l5.8,11.1V3.1c0-0.5,1.1-0.7,3.3-0.7
		s3.3,0.2,3.3,0.7V26.8z M40.9,7.3C40.8,8.4,40.5,9,40.1,9h-4.2v18.1c0,0.5-1.2,0.7-3.6,0.7c-2.4,0-3.6-0.2-3.6-0.7V9h-4.3
		c-0.4,0-0.7-0.6-0.9-1.7c-0.1-0.5-0.1-1.1-0.1-1.6c0-0.6,0-1.1,0.1-1.6C23.7,3,24,2.4,24.4,2.4h15.7c0.4,0,0.7,0.6,0.9,1.7
		c0.1,0.5,0.1,1.1,0.1,1.6C41.1,6.3,41,6.8,40.9,7.3z M62.7,19.7c0,2.4-0.9,4.4-2.6,6S55.9,28,52.8,28s-5.6-0.8-7.5-2.4
		c-1.9-1.6-2.9-3.8-2.9-6.5V3.2c0-0.5,1.3-0.7,3.9-0.7s3.9,0.2,3.9,0.7v16.2c0,0.5,0.3,0.9,0.8,1.2c0.5,0.3,1.1,0.4,1.7,0.4
		s1.1-0.1,1.6-0.4c0.5-0.3,0.7-0.7,0.7-1.2V3.2c0-0.5,1.3-0.7,3.9-0.7c2.6,0,3.9,0.2,3.9,0.7V19.7z M87.7,27.2
		c-1.4,0.6-3.1,0.8-5.1,0.8c-3.2,0-5.8-1.1-7.8-3.3c-2-2.2-3.1-5.4-3.1-9.5s1-7.3,3.2-9.6c2.1-2.3,4.7-3.5,7.9-3.5
		c1.8,0,3.3,0.2,4.6,0.7c1.3,0.5,2,1.2,2,2c0,0.8-0.3,1.9-1,3.1c-0.6,1.2-1.2,1.9-1.6,1.9c-0.1,0-0.3-0.1-0.4-0.2
		c-0.2-0.1-0.5-0.3-1.1-0.4C84.8,9,84.3,9,83.9,9c-1.4,0-2.5,0.5-3.4,1.5c-0.9,1-1.3,2.5-1.3,4.5c0,2,0.4,3.5,1.3,4.5
		c0.9,1,2,1.5,3.3,1.5c0.6,0,1.2-0.1,1.9-0.2c0.7-0.2,1.2-0.4,1.5-0.7c0,0,0.1-0.1,0.3-0.1c0.1,0,0.4,0.3,0.8,0.8
		c0.4,0.5,0.8,1.2,1.1,2.1c0.3,0.9,0.5,1.6,0.5,2C89.9,25.9,89.2,26.6,87.7,27.2z M112.2,27.6c-1.1,0.1-2,0.1-2.6,0.1
		c-2.1,0-3.2-0.3-3.4-1l-1.2-4.6h-5.7l-1,4.5c-0.1,0.7-1.3,1.1-3.5,1.1c-1.2,0-2-0.1-2.6-0.2c-0.6-0.1-0.8-0.2-0.8-0.3l6.4-24.4
		c0-0.2,1.6-0.3,4.9-0.3s4.9,0.1,4.9,0.3l6.2,24.4C113.9,27.3,113.3,27.5,112.2,27.6z M131.5,27.2c-1.4,0.6-3.1,0.8-5.1,0.8
		c-3.2,0-5.8-1.1-7.8-3.3c-2-2.2-3.1-5.4-3.1-9.5s1-7.3,3.2-9.6c2.1-2.3,4.7-3.5,7.9-3.5c1.8,0,3.3,0.2,4.6,0.7c1.3,0.5,2,1.2,2,2
		c0,0.8-0.3,1.9-1,3.1c-0.6,1.2-1.2,1.9-1.6,1.9c-0.1,0-0.3-0.1-0.4-0.2c-0.2-0.1-0.5-0.3-1.1-0.4c-0.6-0.2-1-0.2-1.5-0.2
		c-1.4,0-2.5,0.5-3.4,1.5c-0.9,1-1.3,2.5-1.3,4.5c0,2,0.4,3.5,1.3,4.5c0.9,1,2,1.5,3.3,1.5c0.6,0,1.2-0.1,1.9-0.2
		c0.7-0.2,1.2-0.4,1.5-0.7c0,0,0.1-0.1,0.3-0.1c0.1,0,0.4,0.3,0.8,0.8c0.4,0.5,0.8,1.2,1.1,2.1c0.3,0.9,0.5,1.6,0.5,2
		C133.7,25.9,133,26.6,131.5,27.2z M150.9,26.4c-0.1,0.8-0.4,1.2-0.7,1.2h-12.3c-0.9,0-1.4-0.4-1.4-1.1V3.4c0-0.6,0.3-0.9,0.8-0.9
		h12.9c0.5,0,0.8,1.1,0.8,3.2s-0.3,3.2-0.8,3.2h-6.7v3.6h4.6c0.5,0,0.7,0.8,0.7,2.5c0,0.5-0.1,1.1-0.2,1.8c-0.1,0.7-0.3,1-0.6,1
		h-4.6v3.6h6.6c0.4,0,0.7,0.5,0.8,1.6c0.1,0.5,0.1,0.9,0.1,1.5S151,25.6,150.9,26.4z"/>
	<polygon class="st0" points="102.1,10 100.2,17.5 104,17.5 102.4,10 	"/>
</g>
</svg>
