<?xml version="1.0" encoding="utf-8"?>
<!-- Generator: $$$/GeneralStr/196=Adobe Illustrator 27.6.0, SVG Export Plug-In . SVG Version: 6.00 Build 0)  -->
<svg version="1.1" id="圖層_1" xmlns="http://www.w3.org/2000/svg" xmlns:xlink="http://www.w3.org/1999/xlink" x="0px" y="0px"
	 viewBox="0 0 512 512" style="enable-background:new 0 0 512 512;" xml:space="preserve">
<style type="text/css">
	.st0{display:none;}
	.st1{fill:url(#SVGID_1_);}
	.st2{fill:url(#SVGID_00000090987927304426504670000000763444659260757931_);}
	.st3{fill:url(#SVGID_00000058589771862067152960000011874423237877880470_);}
	.st4{fill:url(#SVGID_00000023976804642394651570000005476991390235224494_);}
	.st5{fill:url(#SVGID_00000090287019381111339800000005601090036684378003_);}
	.st6{fill:url(#SVGID_00000019640252957299905900000016562106501012478369_);}
	.st7{fill:url(#SVGID_00000146481071530381341820000011881411386767853984_);}
	.st8{fill:url(#SVGID_00000147908208858743890710000015063995432995485072_);}
	.st9{fill:url(#SVGID_00000102524169728885532350000015701217456401104034_);}
	.st10{fill:url(#SVGID_00000054262450767721658980000017925818237343794854_);}
	.st11{fill:url(#SVGID_00000095298815838172079500000007663667159379057318_);}
	.st12{fill:url(#SVGID_00000096743946592283301030000001466007348963799451_);}
	.st13{fill:url(#SVGID_00000163066126462207282060000018424835206650124713_);}
	.st14{fill:url(#SVGID_00000095299232728045781170000001693182245460622738_);}
	.st15{fill:url(#SVGID_00000096033366733615734610000004602350484772656537_);}
	.st16{fill:url(#SVGID_00000135672828353645379840000015620513077832667274_);}
	.st17{fill:url(#SVGID_00000176011251580620620500000017862656392891262882_);}
	.st18{fill:url(#SVGID_00000028294041872069545180000001059790642445851284_);}
	.st19{fill:url(#SVGID_00000033341605470672200440000013163532017959230897_);}
	.st20{fill:#FFFFFF;}
	.st21{fill:#58B2DC;}
</style>
<rect y="-0.2" class="st0" width="512" height="512.2"/>
<g>
	<g>
		
			<linearGradient id="SVGID_1_" gradientUnits="userSpaceOnUse" x1="248.4892" y1="-1058.8585" x2="297.0425" y2="-1058.8585" gradientTransform="matrix(0.9481 0.3181 0.3181 -0.9481 386.0933 -874.5756)">
			<stop  offset="0" style="stop-color:#58B2DC"/>
			<stop  offset="1" style="stop-color:#000000"/>
		</linearGradient>
		<path class="st1" d="M267.6,412.5l-4.2,0.3l-6.7-89.9l-0.8-11.4c0-1.4-0.1-2.9-0.1-4.4V306c0-0.3,0-0.7,0-1l0.1-2l0.1-2
			c0-0.7,0.1-1.3,0.2-2c0.2-1.3,0.3-2.7,0.5-4.1c0.9-5.4,2.3-10.5,4.2-15.6c0.5-1.2,1-2.5,1.5-3.8c0.5-1.2,1.1-2.4,1.7-3.7
			c0.3-0.6,0.6-1.2,0.9-1.8l1-1.7c0.7-1.2,1.3-2.3,2-3.4s1.5-2.2,2.2-3.3c0.8-1.1,1.6-2.1,2.4-3.2c0.8-1.1,1.7-2.1,2.5-3.1
			c0.9-1,1.7-2,2.7-3c3.7-4,7.9-7.5,12.3-10.5l3.1-2.1c0.4-0.3,0.9-0.5,1.3-0.9c0.4-0.3,0.8-0.6,1.2-0.9l0.6-0.5l0.6-0.5
			c1.5-1.4,3-2.9,4.3-4.6c1.2-1.6,2.3-3.4,3.2-5.3c0.2-0.5,0.4-0.9,0.6-1.4c0.2-0.5,0.4-0.9,0.6-1.4l0.3-0.7l0.1-0.2l0.1-0.3
			l0.2-0.7l0.9-2.6l7.1-21.3l14.1-42.7L371,25.7l4,1.3l-42.3,129.3L318.6,199l-7.1,21.3l-0.9,2.6l-0.2,0.7l-0.1,0.3l-0.1,0.2
			l-0.3,0.8c-0.2,0.6-0.4,1.1-0.6,1.6c-0.2,0.5-0.5,1.1-0.7,1.6c-1,2.1-2.2,4.2-3.7,6c-1.4,1.9-3,3.7-4.8,5.2l-0.7,0.6l-0.7,0.5
			c-0.4,0.4-0.9,0.7-1.4,1.1c-0.5,0.4-1,0.6-1.4,1l-3,2c-4.2,2.9-8.1,6.3-11.7,10c-0.9,0.9-1.7,1.9-2.5,2.8c-0.8,1-1.7,1.9-2.4,2.9
			c-0.8,1-1.5,2-2.3,3l-2.1,3.2c-0.7,1-1.3,2.2-1.9,3.3l-0.9,1.7c-0.3,0.6-0.6,1.1-0.8,1.7c-0.5,1.1-1.1,2.3-1.6,3.4l-1.4,3.5
			c-1.8,4.8-3.1,9.7-4,14.8c-0.2,1.2-0.3,2.5-0.5,3.9c-0.1,0.6-0.2,1.3-0.2,1.9l-0.1,1.9l-0.1,1.9c0,0.3,0,0.6,0,1v1
			c0,1.3,0,2.7,0.1,4.1l0.8,11.4L267.6,412.5z"/>
		
			<linearGradient id="SVGID_00000127749776388021060510000000900452428002407053_" gradientUnits="userSpaceOnUse" x1="254.2023" y1="-1057.5814" x2="302.2867" y2="-1057.5814" gradientTransform="matrix(0.9481 0.3181 0.3181 -0.9481 386.0933 -874.5756)">
			<stop  offset="0" style="stop-color:#58B2DC"/>
			<stop  offset="1" style="stop-color:#000000"/>
		</linearGradient>
		<path style="fill:url(#SVGID_00000127749776388021060510000000900452428002407053_);" d="M273.3,412l-4.2,0.3l-6.6-89.9l-0.8-11.4
			c0-1.3,0-2.6,0-4v-1c0-0.3,0-0.6,0-0.9l0.1-1.9l0.1-1.9c0-0.6,0.1-1.2,0.2-1.8c0.2-1.2,0.3-2.5,0.5-3.8c0.8-5,2.1-9.8,3.9-14.5
			l1.4-3.4c0.5-1.1,1-2.2,1.6-3.4c0.3-0.6,0.5-1.1,0.8-1.7l0.9-1.6c0.6-1.1,1.2-2.2,1.9-3.2l2-3.1l2.2-3c0.7-1,1.6-1.9,2.4-2.9
			c0.8-0.9,1.6-1.9,2.5-2.8c3.4-3.7,7.3-6.9,11.4-9.8l2.9-2c0.5-0.4,1-0.7,1.5-1c0.5-0.4,1-0.7,1.4-1.1l0.7-0.6l0.7-0.6
			c1.8-1.6,3.5-3.4,5-5.4c1.5-1.9,2.7-4.1,3.9-6.3c0.2-0.6,0.5-1.1,0.7-1.7c0.2-0.6,0.5-1.1,0.7-1.7l0.3-0.9l0.1-0.2l0.1-0.3
			l0.2-0.7l0.9-2.6l7.1-21.3l14.1-42.7l42.3-129.6l4,1.3L338.1,158L324,200.7l-7.1,21.3l-0.9,2.6l-0.2,0.7l-0.1,0.3l-0.1,0.2l-0.3,1
			c-0.2,0.6-0.5,1.3-0.7,1.9c-0.3,0.6-0.6,1.2-0.8,1.8c-1.2,2.4-2.6,4.8-4.3,7s-3.5,4.2-5.6,6l-0.8,0.7l-0.8,0.6
			c-0.5,0.4-1.1,0.8-1.6,1.2c-0.5,0.4-1.1,0.8-1.7,1.1l-2.8,1.9c-3.9,2.7-7.5,5.8-10.7,9.3c-0.8,0.8-1.6,1.7-2.3,2.6
			c-0.8,0.9-1.5,1.8-2.2,2.7l-2.1,2.8l-1.9,2.9c-0.7,1-1.2,2-1.8,3l-0.9,1.5c-0.3,0.5-0.5,1-0.8,1.6c-0.5,1.1-1,2.1-1.5,3.2
			l-1.3,3.3c-1.6,4.5-2.9,9-3.7,13.8c-0.2,1.2-0.3,2.3-0.5,3.5c-0.1,0.6-0.2,1.2-0.2,1.7l-0.1,1.8l-0.1,1.8c0,0.3,0,0.6,0,0.9v0.9
			c0,1.2,0,2.5,0,3.8l0.8,11.3L273.3,412z"/>
		
			<linearGradient id="SVGID_00000095334784553147360130000016320951889671277444_" gradientUnits="userSpaceOnUse" x1="259.9713" y1="-1056.5123" x2="307.6371" y2="-1056.5123" gradientTransform="matrix(0.9481 0.3181 0.3181 -0.9481 386.0933 -874.5756)">
			<stop  offset="0" style="stop-color:#58B2DC"/>
			<stop  offset="1" style="stop-color:#000000"/>
		</linearGradient>
		<path style="fill:url(#SVGID_00000095334784553147360130000016320951889671277444_);" d="M279.1,411.6l-4.2,0.3l-6.6-89.8
			l-0.8-11.3v-3.7v-0.9c0-0.3,0-0.6,0-0.9l0.1-1.7l0.1-1.7c0-0.6,0.1-1.1,0.2-1.7c0.1-1.1,0.3-2.3,0.4-3.4c0.7-4.6,2-9.1,3.5-13.5
			l1.3-3.2c0.4-1.1,1-2.1,1.5-3.1c0.3-0.5,0.5-1,0.8-1.5l0.8-1.5c0.6-1,1.1-2,1.7-3l1.9-2.9l2.1-2.8c0.7-0.9,1.4-1.8,2.2-2.7
			c0.7-0.9,1.5-1.7,2.3-2.6c3.1-3.4,6.8-6.4,10.5-9.1l2.7-1.9c0.6-0.4,1.2-0.8,1.7-1.2c0.6-0.4,1.1-0.8,1.7-1.3l0.8-0.7l0.8-0.7
			c2.1-1.9,4.1-4,5.8-6.3c1.7-2.2,3.2-4.7,4.5-7.3c0.3-0.6,0.6-1.3,0.9-1.9c0.2-0.7,0.5-1.3,0.8-2l0.4-1l0.1-0.2l0.1-0.3l0.2-0.7
			l0.9-2.6l7.1-21.3l14.1-42.7l42-129.2l4,1.3L343.5,160l-14.1,42.7l-7.1,21.3l-0.9,2.6l-0.2,0.7l-0.1,0.3l-0.1,0.3l-0.4,1.1
			c-0.2,0.7-0.6,1.4-0.8,2.2c-0.3,0.7-0.6,1.4-0.9,2.1c-1.3,2.8-3,5.5-4.9,8c-1.8,2.5-4.1,4.8-6.4,6.9l-0.9,0.8l-0.9,0.7
			c-0.6,0.5-1.2,0.9-1.8,1.4c-0.6,0.5-1.3,0.9-1.9,1.3l-2.6,1.8c-3.5,2.5-6.9,5.4-9.9,8.5c-0.8,0.8-1.5,1.6-2.2,2.4s-1.4,1.6-2,2.5
			l-1.9,2.6l-1.8,2.7c-0.6,0.9-1.1,1.9-1.6,2.8l-0.8,1.4c-0.3,0.5-0.5,1-0.7,1.4c-0.5,1-1,1.9-1.4,2.9l-1.2,3
			c-1.5,4.1-2.6,8.3-3.3,12.7c-0.7,4.4-0.9,8.6-0.8,13.2l0.8,11.3L279.1,411.6z"/>
		
			<linearGradient id="SVGID_00000121250133080761734360000015049221286897679003_" gradientUnits="userSpaceOnUse" x1="265.7391" y1="-1055.4271" x2="312.9497" y2="-1055.4271" gradientTransform="matrix(0.9481 0.3181 0.3181 -0.9481 386.0933 -874.5756)">
			<stop  offset="0" style="stop-color:#58B2DC"/>
			<stop  offset="1" style="stop-color:#000000"/>
		</linearGradient>
		<path style="fill:url(#SVGID_00000121250133080761734360000015049221286897679003_);" d="M284.7,411.1l-4.2,0.3l-6.6-89.7
			l-0.8-11.3c-0.1-4.5,0.1-8.6,0.8-12.9c0.7-4.3,1.8-8.3,3.3-12.4l1.2-2.9c0.4-1,0.9-1.9,1.3-2.9c0.2-0.5,0.4-1,0.7-1.4l0.8-1.4
			c0.5-0.9,1-1.8,1.6-2.7l1.7-2.6l1.9-2.5c0.6-0.9,1.3-1.6,2-2.4c0.7-0.8,1.4-1.6,2.1-2.3c2.9-3.1,6.2-5.9,9.6-8.3l2.5-1.7
			c0.7-0.5,1.3-0.9,2-1.3c0.6-0.5,1.3-0.9,1.9-1.4l0.9-0.7l0.9-0.8c2.4-2.1,4.7-4.5,6.6-7.1c1.9-2.5,3.7-5.4,5.1-8.2
			c0.3-0.7,0.7-1.4,1-2.2c0.3-0.7,0.6-1.5,0.9-2.2l0.4-1.1l0.1-0.3l0.1-0.3l0.2-0.7l0.9-2.6l7.1-21.3l14.1-42.7l42.3-129.6l4,1.3
			L349.2,162l-14.1,42.7L328,226c-0.6,1.7-1.2,3.7-1.7,5.2c-0.3,0.8-0.6,1.6-0.9,2.4c-0.3,0.8-0.7,1.6-1.1,2.4
			c-1.5,3.1-3.3,6.2-5.5,8.9c-2.1,2.8-4.5,5.4-7.1,7.7l-1,0.9l-1,0.8c-0.7,0.6-1.4,1.1-2.1,1.6c-0.7,0.5-1.4,1-2.1,1.5l-2.4,1.6
			c-3.2,2.3-6.3,4.9-9,7.8c-0.7,0.7-1.3,1.4-2,2.2c-0.6,0.8-1.3,1.5-1.9,2.3l-1.8,2.4l-1.6,2.5c-0.6,0.8-1,1.7-1.5,2.5l-0.7,1.3
			c-0.2,0.4-0.4,0.9-0.7,1.3c-0.4,0.9-0.9,1.8-1.3,2.7l-1.1,2.7c-1.4,3.8-2.4,7.6-3,11.6c-0.6,4-0.9,7.9-0.7,12l0.8,11.3
			L284.7,411.1z"/>
		
			<linearGradient id="SVGID_00000070809449969054835460000008853342768989349553_" gradientUnits="userSpaceOnUse" x1="271.435" y1="-1054.15" x2="318.1823" y2="-1054.15" gradientTransform="matrix(0.9481 0.3181 0.3181 -0.9481 386.0933 -874.5756)">
			<stop  offset="0" style="stop-color:#58B2DC"/>
			<stop  offset="1" style="stop-color:#000000"/>
		</linearGradient>
		<path style="fill:url(#SVGID_00000070809449969054835460000008853342768989349553_);" d="M290.4,410.7l-4.2,0.3l-6.6-89.6
			l-0.8-11.3c-0.1-4,0.1-7.8,0.7-11.7c0.6-3.9,1.6-7.6,3-11.3l1.1-2.7c0.4-0.9,0.8-1.7,1.2-2.6c0.2-0.4,0.4-0.9,0.6-1.3l0.7-1.3
			c0.5-0.8,0.9-1.7,1.5-2.5l1.6-2.4l1.7-2.3c0.6-0.8,1.2-1.5,1.8-2.2s1.2-1.5,1.9-2.1c2.6-2.8,5.7-5.4,8.8-7.6l2.4-1.6
			c0.7-0.5,1.5-1,2.2-1.5c0.7-0.5,1.4-1,2.1-1.6l1-0.8l1-0.9c2.7-2.3,5.2-5.1,7.3-7.9c2.1-2.8,4.1-6,5.7-9.2
			c0.4-0.8,0.7-1.6,1.1-2.4c0.3-0.8,0.7-1.6,1-2.5c0.6-1.6,1.2-3.4,1.8-5.3l7.1-21.3l14.1-42.7l42.3-129.6l4,1.3l-42.3,129.6
			l-14.1,42.7l-7.1,21.3c-0.6,1.8-1.1,3.5-1.8,5.4c-0.3,0.9-0.7,1.8-1,2.7c-0.4,0.9-0.8,1.7-1.2,2.6c-1.7,3.4-3.8,6.8-6.1,9.9
			s-5,6-7.9,8.5l-1.1,0.9l-1.1,0.9c-0.7,0.6-1.5,1.2-2.3,1.7c-0.8,0.6-1.6,1.1-2.4,1.6l-2.2,1.5c-2.9,2.1-5.7,4.4-8.2,7.1
			c-0.6,0.6-1.2,1.3-1.8,2c-0.6,0.7-1.2,1.3-1.7,2.1l-1.6,2.1l-1.5,2.2c-0.5,0.7-0.9,1.5-1.4,2.3l-0.7,1.2c-0.2,0.4-0.4,0.8-0.6,1.2
			c-0.4,0.8-0.8,1.6-1.1,2.4l-1,2.5c-1.2,3.3-2.2,6.9-2.8,10.4c-0.5,3.5-0.8,7.2-0.7,10.7l0.8,11.2L290.4,410.7z"/>
		
			<linearGradient id="SVGID_00000162316706251024039200000007790455639421020346_" gradientUnits="userSpaceOnUse" x1="277.1791" y1="-1053.1133" x2="323.4637" y2="-1053.1133" gradientTransform="matrix(0.9481 0.3181 0.3181 -0.9481 386.0933 -874.5756)">
			<stop  offset="0" style="stop-color:#58B2DC"/>
			<stop  offset="1" style="stop-color:#000000"/>
		</linearGradient>
		<path style="fill:url(#SVGID_00000162316706251024039200000007790455639421020346_);" d="M296.2,410.3l-4.2,0.3l-6.6-89.5
			l-0.8-11.2c-0.1-3.4,0.1-7,0.6-10.4c0.6-3.4,1.5-6.8,2.7-10.1l1-2.4c0.3-0.8,0.7-1.6,1.1-2.3c0.2-0.4,0.4-0.8,0.6-1.2l0.6-1.1
			c0.4-0.7,0.8-1.5,1.3-2.2l1.4-2.2l1.6-2.1c0.5-0.7,1.1-1.3,1.6-2c0.6-0.7,1.1-1.3,1.7-1.9c2.3-2.5,5.1-4.9,7.9-6.9l2.2-1.5
			c0.8-0.6,1.7-1.1,2.4-1.7c0.8-0.6,1.6-1.2,2.3-1.8l1.1-0.9l1.1-1c3-2.6,5.7-5.6,8.1-8.7c2.4-3.1,4.5-6.6,6.3-10.1
			c0.4-0.9,0.8-1.8,1.2-2.7s0.8-1.8,1.1-2.7c0.7-1.9,1.2-3.7,1.8-5.5l7.1-21.3l14.1-42.7l42.3-129.6l4,1.3l-42.3,129.6l-14,42.7
			l-7.1,21.3l-0.9,2.6l-0.2,0.7l-0.1,0.3l-0.1,0.4l-0.5,1.5c-0.3,1-0.8,2-1.1,2.9c-0.4,1-0.9,1.9-1.3,2.9c-1.8,3.9-4.1,7.5-6.7,10.8
			c-2.5,3.4-5.5,6.5-8.7,9.3l-1.2,1l-1.2,1c-0.8,0.7-1.7,1.3-2.5,1.9c-0.8,0.6-1.7,1.2-2.6,1.8l-2,1.4c-2.6,1.8-5.2,4-7.3,6.3
			c-0.6,0.6-1.1,1.2-1.6,1.8c-0.5,0.6-1.1,1.2-1.5,1.8l-1.4,1.9l-1.3,2c-0.5,0.7-0.8,1.4-1.2,2.1l-0.6,1c-0.2,0.3-0.3,0.7-0.5,1.1
			c-0.3,0.7-0.7,1.4-1,2.2l-0.9,2.2c-1.1,3-1.9,6.2-2.5,9.3c-0.5,3.1-0.7,6.5-0.6,9.5l0.8,11.2L296.2,410.3z"/>
		
			<linearGradient id="SVGID_00000058548994274009260730000012745631343999251888_" gradientUnits="userSpaceOnUse" x1="282.8722" y1="-1052.0122" x2="328.718" y2="-1052.0122" gradientTransform="matrix(0.9481 0.3181 0.3181 -0.9481 386.0933 -874.5756)">
			<stop  offset="0" style="stop-color:#58B2DC"/>
			<stop  offset="1" style="stop-color:#000000"/>
		</linearGradient>
		<path style="fill:url(#SVGID_00000058548994274009260730000012745631343999251888_);" d="M301.9,409.9l-4.2,0.3l-6.6-89.5
			l-0.8-11.2c-0.1-2.9,0.1-6.1,0.6-9.2c0.5-3,1.3-6.1,2.4-9l0.9-2.1c0.3-0.7,0.7-1.4,1-2.1c0.2-0.3,0.3-0.7,0.5-1l0.6-1
			c0.4-0.7,0.7-1.4,1.2-2l1.3-1.9l1.4-1.8c0.4-0.6,1-1.2,1.5-1.8c0.5-0.6,1-1.2,1.5-1.7c2.1-2.3,4.6-4.3,7.1-6.1l2-1.4
			c0.9-0.6,1.8-1.2,2.7-1.8c0.9-0.6,1.7-1.3,2.6-2l1.3-1l1.2-1.1c3.2-2.8,6.3-6.1,8.9-9.6c2.6-3.4,5-7.2,6.8-11.2
			c0.5-1,0.9-2,1.3-2.9c0.4-1,0.8-2,1.2-3l0.5-1.5l0.1-0.4l0.1-0.3l0.2-0.7l0.9-2.6l7.1-21.3l14.1-42.7l42-129.6l4,1.3l-42.3,129.6
			l-14.1,42.7l-7.1,21.3l-0.9,2.6l-0.2,0.7l-0.3,0.7l-0.6,1.6c-0.4,1.1-0.8,2.1-1.3,3.2c-0.4,1.1-0.9,2.1-1.4,3.1
			c-2,4.2-4.5,8.1-7.3,11.9c-2.8,3.8-6,7.1-9.4,10.2l-1.3,1.1l-1.3,1.1c-0.9,0.7-1.8,1.4-2.7,2.1c-0.9,0.7-1.9,1.3-2.8,1.9l-1.9,1.3
			c-2.3,1.6-4.6,3.4-6.5,5.6c-0.5,0.5-1,1-1.4,1.6c-0.4,0.5-0.9,1-1.3,1.6l-1.3,1.7l-1.1,1.8c-0.4,0.6-0.7,1.2-1.1,1.8l-0.5,0.9
			c-0.2,0.3-0.3,0.6-0.5,0.9c-0.3,0.6-0.6,1.3-0.9,1.9l-0.8,2c-1,2.6-1.7,5.4-2.2,8.2c-0.4,2.7-0.6,5.8-0.5,8.3l0.8,11.2
			L301.9,409.9z"/>
		
			<linearGradient id="SVGID_00000008840278914357478390000000194848923530688447_" gradientUnits="userSpaceOnUse" x1="288.6443" y1="-1050.8148" x2="334.0649" y2="-1050.8148" gradientTransform="matrix(0.9481 0.3181 0.3181 -0.9481 386.0933 -874.5756)">
			<stop  offset="0" style="stop-color:#58B2DC"/>
			<stop  offset="1" style="stop-color:#000000"/>
		</linearGradient>
		<path style="fill:url(#SVGID_00000008840278914357478390000000194848923530688447_);" d="M307.6,409.5l-4.2,0.3l-6.6-89.4
			l-0.8-11.2c0-0.6,0-1.2,0-1.8v-0.5c0-0.2,0-0.3,0-0.5l0.1-1l0.1-1c0-0.3,0.1-0.7,0.1-1c0.1-0.7,0.2-1.3,0.3-2
			c0.4-2.7,1.2-5.4,2.1-7.9l0.8-1.9c0.3-0.6,0.6-1.2,0.9-1.8c0.2-0.3,0.3-0.6,0.4-0.9l0.5-0.9c0.3-0.6,0.6-1.2,1-1.7l1.1-1.7
			l1.2-1.6c0.4-0.6,0.9-1,1.3-1.6c0.4-0.5,0.9-1,1.4-1.5c1.8-2,4-3.8,6.2-5.4l1.8-1.2c1-0.7,2-1.3,2.9-2s1.9-1.4,2.8-2.1l1.4-1.1
			l1.3-1.2c3.5-3.1,6.8-6.6,9.6-10.4c2.8-3.8,5.4-7.8,7.4-12.2c0.5-1.1,1-2.1,1.4-3.2c0.4-1.1,0.9-2.2,1.3-3.3l0.6-1.7l0.3-0.7
			l0.2-0.7l0.9-2.6l7.1-21.3l14.1-42.7L409.4,38l4,1.3L370.8,169l-14.1,42.6l-7.1,21.3l-0.9,2.6l-0.2,0.7l-0.3,0.8l-0.6,1.7
			c-0.4,1.2-0.9,2.3-1.4,3.5c-0.5,1.1-1,2.3-1.5,3.4c-2.2,4.6-4.9,8.8-7.9,12.9c-3,4.1-6.5,7.7-10.2,11.1l-1.4,1.2l-1.4,1.2
			c-1,0.8-2,1.5-3,2.2s-2,1.4-3.1,2.1l-1.7,1.1c-2,1.4-4,2.9-5.6,4.8c-0.4,0.4-0.8,0.9-1.2,1.4c-0.4,0.5-0.8,0.9-1.2,1.4
			c-0.4,0.5-0.7,1-1.1,1.5c-0.3,0.5-0.7,1-1,1.5c-0.4,0.5-0.6,1-0.9,1.6l-0.5,0.8c-0.2,0.3-0.3,0.5-0.4,0.8
			c-0.3,0.6-0.5,1.1-0.8,1.6c-0.2,0.6-0.4,1.1-0.7,1.7c-0.8,2.3-1.5,4.7-1.9,7.1c-0.1,0.6-0.1,1.2-0.2,1.8c0,0.3-0.1,0.6-0.1,0.9
			v0.9l-0.1,0.9c0,0.1,0,0.3,0,0.4v0.4c0,0.5,0,1.1,0,1.6l0.8,11.1L307.6,409.5z"/>
		
			<linearGradient id="SVGID_00000062162642861902406460000012154481387083601853_" gradientUnits="userSpaceOnUse" x1="294.3807" y1="-1049.8264" x2="339.3937" y2="-1049.8264" gradientTransform="matrix(0.9481 0.3181 0.3181 -0.9481 386.0933 -874.5756)">
			<stop  offset="0" style="stop-color:#58B2DC"/>
			<stop  offset="1" style="stop-color:#000000"/>
		</linearGradient>
		<path style="fill:url(#SVGID_00000062162642861902406460000012154481387083601853_);" d="M313.3,409.1l-4.2,0.3l-6.6-89.3
			l-0.8-11.1c0-0.5,0-1,0-1.5v-0.4c0-0.1,0-0.3,0-0.4l0.1-0.9v-0.9c0-0.3,0.1-0.6,0.1-0.9c0.1-0.6,0.1-1.2,0.2-1.7
			c0.4-2.3,1-4.6,1.8-6.8c0.2-0.5,0.4-1.1,0.7-1.6c0.2-0.5,0.5-1,0.7-1.6c0.1-0.3,0.2-0.5,0.4-0.8l0.4-0.8c0.3-0.5,0.5-1,0.9-1.5
			c0.3-0.5,0.6-1,0.9-1.5c0.4-0.5,0.7-0.9,1-1.4c0.3-0.5,0.7-0.9,1.1-1.3c0.4-0.4,0.7-0.9,1.2-1.3c1.6-1.7,3.4-3.2,5.4-4.6l1.6-1.1
			c1-0.7,2.1-1.4,3.1-2.1c1-0.7,2-1.5,3-2.3l1.5-1.2l1.4-1.2c3.9-3.3,7.4-7.2,10.4-11.3c3.1-4.1,5.8-8.5,8-13.1
			c0.5-1.1,1.1-2.3,1.6-3.5c0.5-1.2,1-2.3,1.4-3.5l0.6-1.8l0.3-0.8l0.2-0.7l0.9-2.6l7.1-21.3l14.1-42.7l42.2-129.6l4,1.3
			l-42.1,129.5l-14.1,42.7l-7.1,21.3l-0.9,2.6L354,238l-0.3,0.8l-0.7,1.9c-0.4,1.3-1,2.5-1.5,3.8s-1.1,2.4-1.6,3.7
			c-2.3,4.9-5.2,9.5-8.4,13.8c-3.2,4.4-7,8.3-11.1,11.9l-1.5,1.3l-1.6,1.3c-1,0.8-2.1,1.6-3.2,2.4s-2.2,1.5-3.3,2.3l-1.5,1
			c-1.7,1.2-3.3,2.5-4.7,4.1c-0.4,0.3-0.7,0.8-1,1.1c-0.3,0.4-0.7,0.8-1,1.2c-0.3,0.4-0.6,0.8-0.9,1.2c-0.3,0.4-0.5,0.9-0.8,1.3
			c-0.3,0.4-0.5,0.9-0.8,1.3l-0.4,0.7c-0.1,0.2-0.2,0.5-0.3,0.7c-0.2,0.5-0.5,0.9-0.7,1.4s-0.4,1-0.6,1.4c-0.7,1.9-1.3,4-1.6,6
			c-0.1,0.5-0.1,1-0.2,1.5c0,0.3-0.1,0.5-0.1,0.8v0.8l-0.1,0.8c0,0.1,0,0.3,0,0.4v0.3c0,0.4,0,0.8,0,1.2l0.8,11.1L313.3,409.1z"/>
		<g>
			
				<linearGradient id="SVGID_00000051355292220533429540000006635501060975646087_" gradientUnits="userSpaceOnUse" x1="246.9247" y1="-1059.0565" x2="293.1958" y2="-1059.0565" gradientTransform="matrix(0.9481 0.3181 0.3181 -0.9481 386.0933 -874.5756)">
				<stop  offset="0" style="stop-color:#58B2DC"/>
				<stop  offset="1" style="stop-color:#000000"/>
			</linearGradient>
			<path style="fill:url(#SVGID_00000051355292220533429540000006635501060975646087_);" d="M263.4,412.8l-1.5,0.1l-6.7-90
				l-0.8-11.4c0-1.5-0.1-2.9-0.1-4.5v-1.1c0-0.4,0-0.7,0-1l0.1-2l0.1-2c0-0.7,0.1-1.4,0.2-2c0.2-1.3,0.3-2.7,0.5-4.1
				c0.9-5.5,2.3-10.7,4.3-15.9c0.5-1.3,1-2.5,1.5-3.9c0.5-1.2,1.1-2.5,1.7-3.8c0.3-0.6,0.6-1.2,0.9-1.8l1-1.8
				c0.7-1.2,1.3-2.4,2.1-3.5c0.7-1.1,1.5-2.3,2.2-3.4c0.8-1.1,1.6-2.2,2.4-3.3s1.7-2.1,2.6-3.2c0.9-1,1.8-2.1,2.7-3
				c3.8-4.1,8-7.6,12.5-10.7l3.1-2.1c0.4-0.3,0.8-0.5,1.2-0.8c0.4-0.3,0.8-0.6,1.2-0.9l0.6-0.5l0.5-0.5c1.5-1.3,2.8-2.7,4.1-4.4
				c1.2-1.6,2.2-3.2,3.1-5.1l0.6-1.3c0.2-0.5,0.4-0.9,0.5-1.4l0.2-0.7l0.1-0.2l0.1-0.3l0.2-0.7l0.9-2.6l7.1-21.3l14.1-42.7L369.5,25
				l1.5,0.5l-42.3,129.6l-14.1,42.7l-7.1,21.3l-0.9,2.6l-0.2,0.7l-0.1,0.3l-0.1,0.2l-0.3,0.7c-0.2,0.5-0.4,1-0.6,1.4
				c-0.2,0.5-0.4,0.9-0.6,1.4c-0.9,1.8-2,3.7-3.2,5.3c-1.2,1.6-2.6,3.1-4.3,4.6l-0.6,0.5l-0.6,0.5c-0.4,0.3-0.8,0.6-1.2,0.9
				c-0.4,0.3-0.9,0.6-1.3,0.9l-3.1,2.1c-4.4,3.1-8.6,6.6-12.3,10.5c-0.9,0.9-1.8,2-2.7,3c-0.9,1-1.8,2-2.5,3.1
				c-0.8,1.1-1.6,2.1-2.4,3.2c-0.7,1.1-1.5,2.2-2.2,3.3c-0.7,1.1-1.4,2.3-2,3.4l-1,1.7c-0.3,0.6-0.6,1.2-0.9,1.8
				c-0.6,1.2-1.2,2.4-1.7,3.7c-0.5,1.2-1,2.5-1.5,3.8c-1.9,5.1-3.3,10.3-4.2,15.6c-0.2,1.3-0.4,2.6-0.5,4.1c-0.1,0.7-0.2,1.3-0.2,2
				l-0.1,2l-0.1,2c0,0.3,0,0.7,0,1v1.1c0,1.4,0,2.9,0.1,4.4l0.8,11.4L263.4,412.8z"/>
			
				<linearGradient id="SVGID_00000056408093589825755080000001974822561522012834_" gradientUnits="userSpaceOnUse" x1="252.6612" y1="-1057.9716" x2="298.5275" y2="-1057.9716" gradientTransform="matrix(0.9481 0.3181 0.3181 -0.9481 386.0933 -874.5756)">
				<stop  offset="0" style="stop-color:#58B2DC"/>
				<stop  offset="1" style="stop-color:#000000"/>
			</linearGradient>
			<path style="fill:url(#SVGID_00000056408093589825755080000001974822561522012834_);" d="M269.1,412.4l-1.5,0.1l-6.6-89.9
				l-0.8-11.4c0-1.3,0-2.7-0.1-4.1v-1c0-0.3,0-0.6,0-1l0.1-1.9l0.1-1.9c0-0.6,0.1-1.3,0.2-1.9c0.2-1.3,0.3-2.5,0.5-3.9
				c0.8-5.1,2.2-10,4-14.8l1.4-3.5c0.5-1.2,1.1-2.3,1.6-3.4c0.3-0.6,0.5-1.1,0.8-1.7l0.9-1.7c0.6-1.1,1.2-2.2,1.9-3.3l2.1-3.2
				c0.7-1,1.5-2,2.3-3c0.7-1,1.6-2,2.4-2.9c0.8-1,1.6-1.9,2.5-2.8c3.4-3.8,7.5-7.1,11.7-10l3-2c0.5-0.3,1-0.6,1.4-1
				c0.5-0.3,0.9-0.7,1.4-1.1l0.7-0.5l0.7-0.6c1.7-1.5,3.3-3.2,4.8-5.2c1.4-1.9,2.6-3.9,3.7-6c0.2-0.5,0.5-1.1,0.7-1.6
				c0.2-0.5,0.5-1.1,0.6-1.6l0.3-0.8l0.1-0.2l0.1-0.3l0.2-0.7l0.9-2.6l7.1-21.3l14.1-42.7l42.3-129.6l1.5,0.5l-42.2,129.5
				l-14.1,42.7l-7.1,21.3l-0.9,2.6l-0.2,0.7l-0.1,0.3l-0.1,0.2l-0.3,0.9c-0.2,0.6-0.5,1.1-0.7,1.7c-0.2,0.6-0.5,1.1-0.7,1.7
				c-1.1,2.2-2.3,4.4-3.9,6.3c-1.5,1.9-3.1,3.8-5,5.4l-0.7,0.6l-0.7,0.6c-0.5,0.4-1,0.7-1.4,1.1c-0.5,0.4-1,0.7-1.5,1l-2.9,2
				c-4.1,2.9-8,6.2-11.4,9.8c-0.9,0.9-1.7,1.8-2.5,2.8c-0.8,0.9-1.6,1.9-2.4,2.9l-2.2,3l-2,3.1c-0.7,1-1.3,2.1-1.9,3.2l-0.9,1.6
				c-0.3,0.5-0.6,1.1-0.8,1.7c-0.5,1.1-1.1,2.2-1.6,3.4l-1.4,3.4c-1.7,4.7-3,9.6-3.9,14.5c-0.2,1.2-0.3,2.5-0.5,3.8
				c-0.1,0.6-0.2,1.2-0.2,1.8l-0.1,1.9l-0.1,1.9c0,0.3,0,0.6,0,0.9v1c0,1.3,0,2.6,0,4l0.8,11.4L269.1,412.4z"/>
			
				<linearGradient id="SVGID_00000134248830138682208640000003127477325554956958_" gradientUnits="userSpaceOnUse" x1="258.3976" y1="-1056.8064" x2="303.7737" y2="-1056.8064" gradientTransform="matrix(0.9481 0.3181 0.3181 -0.9481 386.0933 -874.5756)">
				<stop  offset="0" style="stop-color:#58B2DC"/>
				<stop  offset="1" style="stop-color:#000000"/>
			</linearGradient>
			<path style="fill:url(#SVGID_00000134248830138682208640000003127477325554956958_);" d="M274.9,411.9l-1.5,0.1l-6.6-89.8
				L266,311c0-1.2,0-2.5,0-3.8v-0.9c0-0.3,0-0.6,0-0.9l0.1-1.8l0.1-1.8c0-0.6,0.1-1.2,0.2-1.7c0.1-1.2,0.3-2.3,0.5-3.5
				c0.8-4.7,2-9.3,3.7-13.8l1.3-3.3c0.5-1.1,1-2.1,1.5-3.2c0.3-0.5,0.5-1.1,0.8-1.6l0.9-1.5c0.6-1,1.1-2.1,1.8-3l1.9-2.9l2.1-2.8
				c0.7-1,1.5-1.8,2.2-2.7c0.8-0.9,1.5-1.8,2.3-2.6c3.2-3.4,6.9-6.6,10.7-9.3l2.8-1.9c0.6-0.4,1.1-0.7,1.7-1.1
				c0.5-0.4,1.1-0.8,1.6-1.2l0.8-0.6l0.8-0.7c2-1.8,4-3.9,5.6-6c1.6-2.2,3-4.6,4.3-7c0.3-0.6,0.6-1.2,0.8-1.8s0.5-1.2,0.7-1.9l0.3-1
				l0.1-0.2l0.1-0.3l0.2-0.7l0.9-2.6l7.1-21.3l14.1-42.7l42.1-129.7l1.5,0.5l-42.3,129.6l-14.1,42.7l-7.1,21.3l-0.9,2.6l-0.2,0.7
				l-0.1,0.3l-0.1,0.2l-0.4,1c-0.2,0.7-0.5,1.3-0.8,2c-0.3,0.6-0.6,1.3-0.9,1.9c-1.2,2.5-2.7,5-4.5,7.3c-1.7,2.2-3.7,4.4-5.8,6.3
				l-0.8,0.7l-0.8,0.7c-0.5,0.5-1.1,0.9-1.7,1.3c-0.6,0.4-1.2,0.8-1.7,1.2l-2.7,1.9c-3.8,2.6-7.4,5.7-10.5,9.1
				c-0.8,0.8-1.6,1.7-2.3,2.6c-0.7,0.9-1.5,1.7-2.2,2.7l-2.1,2.8l-1.9,2.9c-0.6,0.9-1.2,2-1.7,3l-0.8,1.5c-0.3,0.5-0.5,1-0.8,1.5
				c-0.5,1-1,2.1-1.5,3.1l-1.3,3.2c-1.6,4.4-2.8,8.8-3.5,13.5c-0.2,1.1-0.3,2.3-0.4,3.4c-0.1,0.6-0.2,1.1-0.2,1.7l-0.1,1.7l-0.1,1.7
				c0,0.3,0,0.6,0,0.9v0.9v3.7l0.8,11.3L274.9,411.9z"/>
			
				<linearGradient id="SVGID_00000176002775189044836360000009610640839932973192_" gradientUnits="userSpaceOnUse" x1="264.1528" y1="-1055.5452" x2="309.0812" y2="-1055.5452" gradientTransform="matrix(0.9481 0.3181 0.3181 -0.9481 386.0933 -874.5756)">
				<stop  offset="0" style="stop-color:#58B2DC"/>
				<stop  offset="1" style="stop-color:#000000"/>
			</linearGradient>
			<path style="fill:url(#SVGID_00000176002775189044836360000009610640839932973192_);" d="M280.6,411.4l-1.5,0.1l-6.6-89.7
				l-0.8-11.3c-0.2-4.6,0.1-8.8,0.8-13.2c0.7-4.4,1.8-8.5,3.3-12.7l1.2-3c0.4-1,0.9-1.9,1.4-2.9c0.2-0.5,0.5-1,0.7-1.4l0.8-1.4
				c0.5-0.9,1-1.9,1.6-2.8l1.8-2.7l1.9-2.6c0.6-0.9,1.4-1.7,2-2.5c0.7-0.8,1.4-1.6,2.2-2.4c2.9-3.2,6.4-6,9.9-8.5l2.6-1.8
				c0.6-0.4,1.3-0.8,1.9-1.3s1.2-0.9,1.8-1.4l0.9-0.7l0.9-0.8c2.3-2,4.5-4.4,6.4-6.9c1.9-2.5,3.5-5.2,4.9-8c0.3-0.7,0.6-1.4,0.9-2.1
				c0.3-0.7,0.6-1.4,0.8-2.2l0.4-1.1l0.1-0.3l0.1-0.3l0.2-0.7l0.9-2.6l7.1-21.3l14.1-42.7l42.3-129.6l1.5,0.5l-42.3,129.6L331.1,203
				l-7.1,21.3l-0.9,2.6l-0.2,0.7l-0.1,0.3l-0.1,0.3l-0.4,1.1c-0.2,0.8-0.6,1.5-0.9,2.2c-0.3,0.7-0.6,1.5-1,2.2
				c-1.4,2.9-3.1,5.7-5.1,8.2c-1.9,2.5-4.2,5-6.6,7.1l-0.9,0.8l-0.9,0.7c-0.6,0.5-1.3,1-1.9,1.4c-0.6,0.5-1.3,0.9-2,1.3l-2.5,1.7
				c-3.4,2.4-6.8,5.2-9.6,8.3c-0.8,0.7-1.4,1.5-2.1,2.3c-0.7,0.8-1.4,1.6-2,2.4l-1.9,2.5l-1.7,2.6c-0.6,0.9-1.1,1.8-1.6,2.7
				l-0.8,1.4c-0.3,0.5-0.5,0.9-0.7,1.4c-0.4,1-0.9,1.9-1.3,2.9l-1.2,2.9c-1.5,4-2.6,8.1-3.3,12.4c-0.6,4.3-0.9,8.4-0.8,12.9
				l0.8,11.3L280.6,411.4z"/>
			
				<linearGradient id="SVGID_00000081633695989621477300000009230767449900258733_" gradientUnits="userSpaceOnUse" x1="269.8705" y1="-1054.4441" x2="314.3252" y2="-1054.4441" gradientTransform="matrix(0.9481 0.3181 0.3181 -0.9481 386.0933 -874.5756)">
				<stop  offset="0" style="stop-color:#58B2DC"/>
				<stop  offset="1" style="stop-color:#000000"/>
			</linearGradient>
			<path style="fill:url(#SVGID_00000081633695989621477300000009230767449900258733_);" d="M286.3,411l-1.5,0.1l-6.6-89.6
				l-0.8-11.3c-0.1-4.1,0.1-8,0.7-12c0.6-4,1.7-7.8,3-11.6l1.1-2.7c0.4-0.9,0.8-1.8,1.3-2.7c0.2-0.4,0.4-0.9,0.7-1.3l0.7-1.3
				c0.5-0.8,0.9-1.7,1.5-2.5l1.6-2.5l1.8-2.4c0.6-0.8,1.2-1.5,1.9-2.3c0.6-0.7,1.3-1.5,2-2.2c2.7-2.9,5.8-5.5,9-7.8l2.4-1.6
				c0.7-0.5,1.5-0.9,2.1-1.5c0.7-0.5,1.4-1,2.1-1.6l1-0.8l1-0.9c2.6-2.3,5.1-4.9,7.1-7.7c2.1-2.8,4-5.8,5.5-8.9
				c0.4-0.8,0.7-1.6,1.1-2.4c0.3-0.8,0.7-1.6,0.9-2.4c0.6-1.6,1.2-3.4,1.7-5.2l7.1-21.3l14.1-42.7L391.4,32l1.5,0.5l-42.3,129.6
				l-14.1,42.7l-7.1,21.3c-0.6,1.7-1.2,3.5-1.8,5.3c-0.3,0.8-0.7,1.7-1,2.5c-0.3,0.8-0.7,1.6-1.1,2.4c-1.6,3.2-3.4,6.3-5.7,9.2
				c-2.1,2.8-4.7,5.6-7.3,7.9l-1,0.9l-1,0.8c-0.7,0.6-1.4,1.1-2.1,1.6s-1.5,1-2.2,1.5l-2.4,1.6c-3.1,2.2-6.2,4.8-8.8,7.6
				c-0.7,0.7-1.3,1.4-1.9,2.1c-0.6,0.7-1.3,1.4-1.8,2.2l-1.7,2.3l-1.6,2.4c-0.5,0.8-1,1.6-1.5,2.5l-0.7,1.3
				c-0.2,0.4-0.4,0.9-0.6,1.3c-0.4,0.9-0.8,1.7-1.2,2.6l-1.1,2.7c-1.3,3.7-2.3,7.4-3,11.3c-0.6,3.9-0.8,7.7-0.7,11.7l0.8,11.3
				L286.3,411z"/>
			
				<linearGradient id="SVGID_00000150809734750215271000000003194333210188824476_" gradientUnits="userSpaceOnUse" x1="275.607" y1="-1053.3267" x2="319.6404" y2="-1053.3267" gradientTransform="matrix(0.9481 0.3181 0.3181 -0.9481 386.0933 -874.5756)">
				<stop  offset="0" style="stop-color:#58B2DC"/>
				<stop  offset="1" style="stop-color:#000000"/>
			</linearGradient>
			<path style="fill:url(#SVGID_00000150809734750215271000000003194333210188824476_);" d="M292,410.6l-1.5,0.1l-6.6-89.6
				l-0.8-11.2c-0.1-3.5,0.1-7.2,0.7-10.7s1.5-7.1,2.8-10.4l1-2.5c0.3-0.8,0.8-1.6,1.1-2.4c0.2-0.4,0.4-0.8,0.6-1.2l0.7-1.2
				c0.4-0.8,0.8-1.6,1.4-2.3l1.5-2.2l1.6-2.1c0.5-0.7,1.1-1.4,1.7-2.1c0.6-0.7,1.1-1.4,1.8-2c2.4-2.6,5.3-5,8.2-7.1l2.2-1.5
				c0.8-0.5,1.6-1,2.4-1.6s1.6-1.1,2.3-1.7l1.1-0.9l1.1-0.9c2.9-2.5,5.6-5.4,7.9-8.5c2.3-3.1,4.4-6.4,6.1-9.9
				c0.4-0.9,0.8-1.7,1.2-2.6c0.3-0.9,0.7-1.8,1-2.7c0.7-1.8,1.2-3.5,1.8-5.4l7.1-21.3l14.1-42.7l42.3-129.6l1.5,0.5L356,164
				l-14.1,42.7l-7.1,21.3c-0.6,1.8-1.1,3.5-1.8,5.5c-0.3,0.9-0.7,1.8-1.1,2.7c-0.4,0.9-0.8,1.8-1.2,2.7c-1.7,3.5-3.9,7-6.3,10.1
				c-2.4,3.1-5.2,6.1-8.1,8.7l-1.1,1l-1.1,0.9c-0.8,0.6-1.6,1.2-2.3,1.8c-0.8,0.6-1.6,1.1-2.4,1.7l-2.2,1.5c-2.8,2-5.6,4.3-7.9,6.9
				c-0.6,0.6-1.2,1.3-1.7,1.9c-0.6,0.7-1.1,1.3-1.6,2l-1.6,2.1l-1.4,2.2c-0.5,0.7-0.9,1.5-1.3,2.2l-0.6,1.1
				c-0.2,0.4-0.4,0.8-0.6,1.2c-0.4,0.8-0.8,1.5-1.1,2.3l-1,2.4c-1.2,3.2-2.1,6.7-2.7,10.1c-0.5,3.4-0.7,7-0.6,10.4l0.8,11.2
				L292,410.6z"/>
			
				<linearGradient id="SVGID_00000088834320620447204290000002024861878097210002_" gradientUnits="userSpaceOnUse" x1="281.3745" y1="-1052.3063" x2="324.9603" y2="-1052.3063" gradientTransform="matrix(0.9481 0.3181 0.3181 -0.9481 386.0933 -874.5756)">
				<stop  offset="0" style="stop-color:#58B2DC"/>
				<stop  offset="1" style="stop-color:#000000"/>
			</linearGradient>
			<path style="fill:url(#SVGID_00000088834320620447204290000002024861878097210002_);" d="M297.7,410.2l-1.5,0.1l-6.6-89.5
				l-0.8-11.2c-0.1-3,0.1-6.4,0.6-9.5c0.5-3.1,1.4-6.3,2.5-9.3l0.9-2.2c0.3-0.7,0.7-1.4,1-2.2c0.2-0.4,0.3-0.7,0.5-1.1l0.6-1
				c0.4-0.7,0.7-1.4,1.2-2.1l1.3-2l1.4-1.9c0.5-0.7,1-1.2,1.5-1.8c0.5-0.6,1-1.2,1.6-1.8c2.2-2.3,4.7-4.5,7.3-6.3l2-1.4
				c0.9-0.6,1.8-1.1,2.6-1.8c0.8-0.6,1.7-1.2,2.5-1.9l1.2-1l1.2-1c3.2-2.8,6.1-6,8.7-9.3c2.5-3.4,4.8-7.1,6.7-10.8
				c0.4-1,0.9-1.9,1.3-2.9c0.4-1,0.8-1.9,1.1-2.9l0.5-1.5l0.1-0.4l0.1-0.3l0.2-0.7l0.9-2.6l7.1-21.3l14.1-42.7l42.3-129.6l1.5,0.5
				l-42.3,129.6l-14.1,42.7l-7.1,21.3l-0.9,2.6l-0.2,0.7l-0.1,0.3l-0.1,0.4l-0.5,1.5c-0.3,1-0.8,2-1.2,3c-0.4,1-0.9,2-1.3,2.9
				c-1.9,4-4.2,7.7-6.8,11.2c-2.6,3.4-5.6,6.7-8.9,9.6l-1.2,1.1l-1.3,1c-0.8,0.7-1.7,1.3-2.6,2c-0.9,0.7-1.8,1.2-2.7,1.8l-2,1.4
				c-2.5,1.8-5,3.8-7.1,6.1c-0.6,0.5-1,1.1-1.5,1.7c-0.5,0.6-1,1.1-1.5,1.8l-1.4,1.8l-1.3,1.9c-0.4,0.6-0.8,1.3-1.2,2l-0.6,1
				c-0.2,0.3-0.3,0.7-0.5,1c-0.3,0.7-0.7,1.4-1,2.1l-0.9,2.1c-1.1,2.9-1.9,6-2.4,9c-0.5,3-0.7,6.3-0.6,9.2l0.8,11.2L297.7,410.2z"/>
			
				<linearGradient id="SVGID_00000153677909339213220230000015323613810412282046_" gradientUnits="userSpaceOnUse" x1="287.1043" y1="-1051.0928" x2="330.2238" y2="-1051.0928" gradientTransform="matrix(0.9481 0.3181 0.3181 -0.9481 386.0933 -874.5756)">
				<stop  offset="0" style="stop-color:#58B2DC"/>
				<stop  offset="1" style="stop-color:#000000"/>
			</linearGradient>
			<path style="fill:url(#SVGID_00000153677909339213220230000015323613810412282046_);" d="M303.5,409.8l-1.5,0.1l-6.6-89.4
				l-0.8-11.2c-0.1-2.5,0.1-5.5,0.5-8.3c0.5-2.8,1.2-5.6,2.2-8.2l0.8-2c0.3-0.6,0.6-1.3,0.9-1.9c0.2-0.3,0.3-0.6,0.5-0.9l0.5-0.9
				c0.4-0.6,0.7-1.2,1.1-1.8l1.1-1.8l1.3-1.7c0.4-0.6,0.9-1.1,1.3-1.6c0.5-0.5,0.9-1.1,1.4-1.6c1.9-2.1,4.2-4,6.5-5.6l1.9-1.3
				c0.9-0.6,1.9-1.2,2.8-1.9c0.9-0.7,1.9-1.3,2.7-2.1l1.3-1.1l1.3-1.1c3.4-3,6.7-6.5,9.4-10.2c2.8-3.8,5.3-7.7,7.3-11.9
				c0.5-1,1-2.1,1.4-3.1c0.4-1.1,0.9-2.1,1.3-3.2l0.6-1.6l0.3-0.7l0.2-0.7l0.9-2.6l7.1-21.3l14.1-42.7l42.3-129.6l1.5,0.5
				l-42.3,129.6l-14.1,42.7l-7.1,21.3l-0.9,2.6l-0.2,0.7l-0.3,0.7l-0.6,1.7c-0.4,1.1-0.9,2.2-1.3,3.3c-0.5,1.1-1,2.1-1.4,3.2
				c-2,4.3-4.6,8.3-7.4,12.2c-2.8,3.8-6.1,7.3-9.6,10.4l-1.3,1.2l-1.4,1.1c-0.9,0.7-1.9,1.4-2.8,2.1s-1.9,1.3-2.9,2l-1.8,1.2
				c-2.2,1.6-4.4,3.3-6.2,5.4c-0.5,0.5-0.9,1-1.4,1.5c-0.4,0.5-0.9,1-1.3,1.6l-1.2,1.6l-1.1,1.7c-0.4,0.5-0.7,1.2-1,1.7l-0.5,0.9
				c-0.2,0.3-0.3,0.6-0.4,0.9c-0.3,0.6-0.6,1.2-0.9,1.8l-0.8,1.9c-0.9,2.5-1.6,5.2-2.1,7.9c-0.1,0.7-0.2,1.3-0.3,2
				c0,0.3-0.1,0.7-0.1,1l-0.1,1l-0.1,1c0,0.2,0,0.3,0,0.5v0.5c0,0.6,0,1.2,0,1.8l0.8,11.2L303.5,409.8z"/>
			
				<linearGradient id="SVGID_00000072982100141761847460000006189542238198582701_" gradientUnits="userSpaceOnUse" x1="292.8433" y1="-1050.104" x2="335.5342" y2="-1050.104" gradientTransform="matrix(0.9481 0.3181 0.3181 -0.9481 386.0933 -874.5756)">
				<stop  offset="0" style="stop-color:#58B2DC"/>
				<stop  offset="1" style="stop-color:#000000"/>
			</linearGradient>
			<path style="fill:url(#SVGID_00000072982100141761847460000006189542238198582701_);" d="M309.2,409.4l-1.5,0.1l-6.6-89.3
				l-0.8-11.1c0-0.5,0-1.1,0-1.6v-0.4c0-0.1,0-0.3,0-0.4l0.1-0.9v-0.9c0-0.3,0.1-0.6,0.1-0.9c0.1-0.6,0.1-1.2,0.2-1.8
				c0.4-2.4,1.1-4.8,1.9-7.1c0.2-0.6,0.5-1.1,0.7-1.7c0.2-0.6,0.5-1.1,0.8-1.6c0.1-0.3,0.2-0.6,0.4-0.8l0.5-0.8
				c0.3-0.5,0.6-1.1,0.9-1.6c0.3-0.5,0.7-1,1-1.5c0.4-0.5,0.7-1,1.1-1.5c0.3-0.5,0.8-0.9,1.2-1.4c0.4-0.5,0.8-0.9,1.2-1.4
				c1.6-1.8,3.5-3.3,5.6-4.8l1.7-1.1c1-0.7,2.1-1.4,3.1-2.1s2-1.5,3-2.2l1.4-1.2l1.4-1.2c3.8-3.3,7.2-7,10.2-11.1
				c3-4.1,5.7-8.3,7.9-12.9c0.5-1.1,1-2.2,1.5-3.4c0.5-1.2,1-2.3,1.4-3.5l0.6-1.7l0.3-0.8l0.2-0.7l0.9-2.6l7.1-21.3l14.1-42.7
				l42.2-129.6l1.5,0.5l-42.2,129.6l-14.1,42.7l-7.1,21.3l-0.9,2.6l-0.2,0.7l-0.3,0.8l-0.6,1.8c-0.4,1.2-0.9,2.4-1.4,3.5
				c-0.5,1.2-1,2.3-1.6,3.5c-2.2,4.7-5,9-8,13.1c-3,4.1-6.6,7.9-10.4,11.3l-1.4,1.2l-1.5,1.2c-1,0.8-2,1.5-3,2.3
				c-1,0.8-2.1,1.4-3.1,2.1l-1.6,1.1c-1.9,1.4-3.8,2.8-5.4,4.6c-0.4,0.4-0.8,0.9-1.2,1.3c-0.4,0.4-0.8,0.9-1.1,1.3
				c-0.3,0.5-0.7,0.9-1,1.4c-0.3,0.5-0.6,1-0.9,1.5c-0.3,0.5-0.6,1-0.9,1.5l-0.4,0.8c-0.1,0.3-0.3,0.5-0.4,0.8
				c-0.2,0.5-0.5,1-0.7,1.6c-0.2,0.5-0.4,1.1-0.7,1.6c-0.8,2.2-1.4,4.5-1.8,6.8c-0.1,0.6-0.1,1.2-0.2,1.7c0,0.3-0.1,0.6-0.1,0.9v0.9
				l-0.1,0.9c0,0.1,0,0.3,0,0.4v0.4c0,0.5,0,1,0,1.5l0.8,11.1L309.2,409.4z"/>
			
				<linearGradient id="SVGID_00000039853550625108759970000002738803917239768197_" gradientUnits="userSpaceOnUse" x1="298.5525" y1="-1048.9391" x2="340.7963" y2="-1048.9391" gradientTransform="matrix(0.9481 0.3181 0.3181 -0.9481 386.0933 -874.5756)">
				<stop  offset="0" style="stop-color:#58B2DC"/>
				<stop  offset="1" style="stop-color:#000000"/>
			</linearGradient>
			<path style="fill:url(#SVGID_00000039853550625108759970000002738803917239768197_);" d="M314.9,408.9l-1.5,0.1l-6.6-89.2
				l-0.8-11.1c0-0.4,0-0.8,0-1.2v-0.3c0-0.1,0-0.3,0-0.4l0.1-0.8v-0.8c0-0.3,0.1-0.5,0.1-0.8c0.1-0.5,0.1-1,0.2-1.5
				c0.3-2,0.9-4.1,1.6-6c0.2-0.5,0.4-0.9,0.6-1.4c0.2-0.5,0.5-0.9,0.7-1.4c0.1-0.2,0.2-0.5,0.3-0.7l0.4-0.7c0.3-0.4,0.5-0.9,0.8-1.3
				c0.3-0.4,0.6-0.9,0.8-1.3c0.3-0.4,0.6-0.8,0.9-1.2c0.3-0.4,0.7-0.8,1-1.2c0.3-0.4,0.6-0.8,1-1.1c1.4-1.5,3-2.8,4.7-4.1l1.5-1
				c1.1-0.7,2.2-1.5,3.3-2.3c1.1-0.8,2.2-1.6,3.2-2.4l1.6-1.3l1.5-1.3c4.1-3.5,7.8-7.5,11.1-11.9c3.2-4.4,6.1-8.9,8.4-13.8
				c0.6-1.2,1.1-2.4,1.6-3.7c0.5-1.2,1-2.5,1.5-3.8l0.7-1.9l0.3-0.8l0.2-0.7l0.9-2.6l7.1-21.3l14.1-42.7l42-129.6l1.5,0.5
				l-42.2,129.6L363.7,214l-7.1,21.3l-0.9,2.6l-0.2,0.7l-0.3,0.8l-0.7,1.9c-0.4,1.3-1,2.5-1.5,3.9c-0.5,1.3-1.1,2.5-1.7,3.8
				c-2.4,5-5.3,9.7-8.6,14.1s-7.1,8.4-11.3,12.1l-1.5,1.3l-1.6,1.3c-1.1,0.9-2.1,1.7-3.2,2.5s-2.2,1.5-3.4,2.3l-1.4,1
				c-1.6,1.1-3.1,2.4-4.5,3.9c-0.4,0.3-0.7,0.7-1,1.1c-0.3,0.4-0.7,0.7-0.9,1.1c-0.3,0.4-0.6,0.8-0.9,1.2c-0.3,0.4-0.5,0.8-0.8,1.2
				c-0.3,0.4-0.5,0.8-0.7,1.3l-0.4,0.6c-0.1,0.2-0.2,0.4-0.3,0.7c-0.2,0.4-0.4,0.9-0.6,1.3c-0.2,0.5-0.4,0.9-0.5,1.4
				c-0.7,1.8-1.2,3.8-1.5,5.7c-0.1,0.5-0.1,1-0.2,1.4c0,0.2-0.1,0.5-0.1,0.7v0.7v0.7c0,0.1,0,0.3,0,0.4v0.3c0,0.4,0,0.8,0,1.1
				l0.8,11.1L314.9,408.9z"/>
		</g>
	</g>
	<g>
		<path class="st20" d="M372.8,136.8c0-0.8-0.1-1.7-0.1-2.4l-0.3-3l-0.4-3c-0.3-2.1-0.8-4.3-1.2-6.1c-2-8.2-5.5-15.8-10-22.8
			c-4.7-7-10.3-13.1-17-18c-6.7-5-14.1-8.8-22.1-11.4c-7.9-2.5-16.3-3.5-24.7-3.2c-1.8,0.1-4.1,0.2-6.2,0.5l-96.9,13.8l-1.5,0.2
			c-0.3,0-0.6,0.1-1,0.1c-0.1,0-0.2,0-0.3,0s-0.3,0-0.3,0c-0.1,0-0.3,0-0.4,0c-0.1,0-0.2,0-0.3,0c-0.3,0-0.6,0-0.8,0
			c-0.1,0-0.2,0-0.3,0h-0.4c-0.2,0-0.4,0-0.5,0h-0.2c-0.3-0.1-0.6-0.1-0.8-0.1l-0.6-0.1c-0.2-0.1-0.5-0.1-0.7-0.1
			c-0.3-0.1-0.5-0.2-0.8-0.2l-0.6-0.2c-0.2-0.1-0.3-0.1-0.5-0.2l-0.2-0.1c-0.3-0.1-0.5-0.2-0.8-0.4c-0.2-0.1-0.3-0.1-0.5-0.3
			c-0.1-0.1-0.3-0.1-0.4-0.2c-0.1,0-0.2-0.1-0.2-0.1c-0.2-0.1-0.4-0.2-0.6-0.4c-0.2-0.1-0.5-0.3-0.7-0.5c-0.1-0.1-0.2-0.2-0.4-0.2
			c-0.1,0-0.2-0.1-0.3-0.2c-0.2-0.2-0.5-0.4-0.7-0.6c-0.8-0.7-1.5-1.3-2.1-2.1l-0.5-0.5c-0.2-0.2-0.4-0.5-0.5-0.6
			c-0.2-0.2-0.3-0.5-0.5-0.7l-0.4-0.7c-0.5-0.8-0.9-1.6-1.3-2.6V70c-0.1-0.3-0.2-0.5-0.3-0.9c0,0,0-0.1-0.1-0.2
			c0-0.1-0.1-0.3-0.1-0.4c-0.1-0.3-0.2-0.5-0.2-0.8c0-0.2-0.1-0.4-0.1-0.5l-0.1-0.3c-0.2-0.9-0.3-1.7-0.3-2.7c0-0.2,0-0.5,0-0.7
			s0-0.5,0-0.7c0-0.1,0-0.2,0-0.3c0-0.1,0-0.3,0-0.3c0-0.1,0-0.2,0-0.4c0-0.1,0-0.2,0-0.3c2-7.5,7-21.9,7.9-24.8
			c0.1-0.3,0.1-0.6-0.1-0.9c-0.1-0.3-0.4-0.5-0.6-0.6l-1.5-0.5c-0.6-0.2-1.2,0.1-1.4,0.7c-0.2,0.7-0.6,1.7-1,3
			c-2.2,6.5-6.4,18.7-7,22.2c-0.1,0.3-0.1,0.5-0.1,0.8v0.3c0,0.1,0,0.2,0,0.3c0,0.2,0,0.4,0,0.7c0,0.2,0,0.4,0,0.6c0,0.4,0,0.8,0,1
			c0,1.1,0.2,2.2,0.4,3.3l0.1,0.4c0.1,0.2,0.1,0.4,0.1,0.6c0.1,0.4,0.2,0.8,0.3,1.2c0,0.1,0,0.2,0.1,0.2c0.1,0.2,0.1,0.5,0.2,0.6
			c0.1,0.2,0.2,0.5,0.3,0.8c0,0,0.1,0.1,0.1,0.2c0.5,1.1,0.9,2.2,1.6,3.1l0.2,0.4c0.1,0.1,0.1,0.2,0.3,0.4c0.2,0.2,0.3,0.5,0.5,0.8
			c0.2,0.2,0.4,0.4,0.5,0.6l0.1,0.1c0.1,0.1,0.1,0.2,0.2,0.3l0.3,0.3c0.8,1,1.7,1.8,2.7,2.6c0.2,0.2,0.4,0.3,0.6,0.5
			c0.2,0.2,0.4,0.3,0.6,0.4c0.1,0,0.1,0.1,0.2,0.1c0.3,0.2,0.7,0.5,1,0.7c0.2,0.1,0.4,0.2,0.6,0.3s0.3,0.2,0.5,0.3
			c0.1,0,0.2,0.1,0.4,0.2c0.3,0.1,0.5,0.3,0.8,0.4c0.2,0.1,0.5,0.2,0.8,0.4l1.7,0.6c0.3,0.1,0.5,0.1,0.7,0.2c0,0,0.2,0.1,0.3,0.1
			c0.2,0,0.4,0.1,0.6,0.1l0.9,0.2c0.3,0,0.5,0.1,0.9,0.1l1.2,0.1c0.1,0,0.2,0,0.4,0c0.3,0,0.7,0,1,0c0.2,0,0.4,0,0.6,0
			c0.1,0,0.2,0,0.4,0c0.3,0,0.7,0,0.9-0.1c0.3,0,0.6-0.1,0.8-0.1h0.2h0.2l93.6-13.5l4.3-0.6c2-0.3,4.1-0.4,5.9-0.5
			c8-0.3,15.9,0.7,23.4,3.1c7.6,2.4,14.6,6,21,10.7c6.4,4.8,11.8,10.5,16.2,17.1c4.4,6.6,7.6,13.9,9.5,21.6c0.4,1.7,0.9,3.8,1.2,5.8
			l0.2,1.4l0.5,4.4c0.1,0.7,0.1,1.5,0.1,2.2l0.1,3.5c0,0.7,0,1.4-0.1,2.1l-0.1,1.6c0,0.7-0.1,1.4-0.1,2.1c-0.7,7.9-2.8,15.8-6.2,23
			c-0.3,0.7-0.6,1.3-0.9,1.9l-0.6,1.2c-0.4,0.7-0.7,1.4-1.1,2l-2.3,3.9c-0.2,0.3-0.4,0.6-0.6,0.8l-2,2.7c-0.4,0.5-0.8,1.1-1.3,1.6
			l-1.1,1.4c-0.4,0.5-0.8,1-1.3,1.5l-2,2.1c-0.6,0.7-1.3,1.3-2.1,2c-0.7,0.7-1.4,1.3-2.1,1.9l-2.3,1.8c-0.7,0.6-1.5,1.2-2.3,1.7
			l-2.4,1.7c-0.5,0.4-1.1,0.7-1.7,1.1l-1.5,0.9c-0.6,0.3-1.1,0.7-1.7,1l-2.6,1.4c-0.8,0.4-1.7,0.8-2.6,1.2l-2.7,1.1l-2.8,1
			c-0.8,0.3-1.8,0.6-2.7,0.9l-2.9,0.8c-0.6,0.2-1.3,0.3-1.9,0.4l-1.7,0.4c-0.7,0.1-1.3,0.3-2,0.4l-2.9,0.4
			c-7.7,0.9-15.9,0.5-23.7-1.3l-1.5-0.3l-5.7-1.7l-4.2-1.6l-5.3-2.5c-0.7-0.4-1.3-0.8-2-1.1l-40.7-25.6c-0.3-0.2-0.4-0.2-0.6-0.3
			l-0.3-0.2c-0.3-0.2-0.7-0.4-1-0.6c-0.2-0.1-0.4-0.2-0.6-0.3c-0.1,0-0.1-0.1-0.2-0.1c-0.2-0.1-0.4-0.2-0.6-0.3
			c-0.4-0.2-0.7-0.3-1-0.4c-0.4-0.2-0.7-0.3-1.1-0.4c-0.2-0.1-0.4-0.1-0.7-0.2c-0.2,0-0.4-0.1-0.6-0.1c-0.4-0.1-0.8-0.2-1-0.2
			c-0.4-0.1-0.8-0.1-1.2-0.2c-0.2,0-0.4,0-0.7-0.1c-0.2,0-0.4,0-0.6,0c-0.4,0-0.8-0.1-1.1,0c-0.4,0-0.8,0-1.2,0c-0.2,0-0.4,0-0.7,0
			c-0.2,0-0.4,0-0.6,0.1c-0.4,0-0.8,0.1-1.2,0.2c-1.4,0.2-2.6,0.5-3.7,0.9c-1.1,0.4-2.3,0.8-3.4,1.5c-1.3,0.7-2.2,1.3-3.1,2
			c-1,0.9-1.9,1.6-2.6,2.5c-0.9,1-1.6,1.9-2.2,2.9c-0.6,1-1.2,2-1.6,3.1c-0.1,0.2-0.2,0.4-0.3,0.7c0,0.1-0.1,0.2-0.1,0.3l-0.1,0.2
			c-0.1,0.2-0.2,0.4-0.4,1l-0.3,0.9c-0.1,0.2-0.1,0.5-0.2,0.7l-0.1,0.2c-0.3,1.4-0.5,2.5-0.6,3.7c-0.1,1.2-0.1,2.4,0,3.7
			c0.1,1.1,0.3,2.3,0.7,3.7c0.6,2.3,1.7,4.6,3.1,6.7c1.3,1.9,3,3.7,5.2,5.3c2.2,1.5,4.4,2.5,6.6,3.1l5.7,1.7
			c0.3,0.1,0.6,0.2,0.8,0.3l4.5,1.6l4,1.8c0.7,0.3,1.4,0.7,2.1,1.1l2.8,1.6c6.6,3.9,12.6,8.7,17.7,14.7c5.1,5.8,9.2,12.3,12.3,19.4
			c3,7,5,14.4,5.8,22l0.2,1.4l0.2,4.4c0,0.6,0,1.3,0,1.9v1.6c0,0.7,0,1.4,0,2.1l-0.2,3.3c-0.1,0.8-0.1,1.6-0.2,2.4l-0.1,1.1
			c-0.2,1.5-0.4,3.1-0.8,4.7c-1.5,7.6-4.3,14.9-8,21.6c-3.7,6.5-8.5,12.6-14.2,17.8l-2.1,1.9l-4.9,4.1l-5.3,4.3
			c-0.7,0.6-1.5,1.1-2.2,1.6c-6.2,4.4-12.9,7.8-19.9,10.1c-7.2,2.4-14.6,3.9-21.9,4.1c-7.6,0.3-15-0.4-22.2-2.2
			c-7.4-1.8-14.3-4.7-20.7-8.4c-0.6-0.4-1.2-0.7-1.9-1.1l-4.6-3c-0.4-0.3-0.8-0.6-1.2-0.9L2.9,240.5c-0.5-0.4-1.2-0.3-1.6,0.1
			l-1,1.2C0.1,242,0,242.3,0,242.6s0.2,0.6,0.4,0.8l126.9,108.9l2.1,1.8c0.5,0.4,0.9,0.8,1.5,1.2l1.7,1.2l3,1.9
			c0.7,0.4,1.3,0.8,2,1.2c6.6,4,13.9,6.9,21.7,8.8c6.4,1.6,13.1,2.4,19.8,2.4c1.1,0,2.3,0,3.4-0.1c7.7-0.3,15.4-1.7,23-4.3
			c7.3-2.4,14.3-6,20.9-10.6l0.2-0.1c0.7-0.5,1.4-1,2.1-1.6l8.4-6.8l4.1-3.5c6.1-5.6,11.1-11.9,15-18.8c4-7.1,6.9-14.7,8.5-22.7
			c0.4-1.6,0.6-3.3,0.8-5l0.1-1c0.1-0.8,0.2-1.7,0.3-2.6l0.2-3.4c0-0.8,0-1.5,0-2.3v-1.6c0-0.7,0-1.4,0-2.1l-0.2-2.9l-0.3-2.9
			c-0.9-8-2.9-15.7-6.1-23.1c-3.2-7.4-7.6-14.2-12.9-20.3c-5.5-6.3-11.8-11.5-18.8-15.5l-2.9-1.6c-0.8-0.4-1.6-0.8-2.4-1.2l-4.2-1.9
			L214,213c-0.3-0.1-0.7-0.2-1-0.3l-5.8-1.7c-1.8-0.5-3.7-1.3-5.5-2.6c-1.7-1.3-3.1-2.7-4.3-4.4c-1.2-1.7-2.1-3.7-2.6-5.6
			c-0.3-1.1-0.5-2-0.6-2.9c-0.1-1-0.1-2,0-3c0-0.9,0.2-1.8,0.5-2.9l0.1-0.3c0-0.1,0.1-0.3,0.1-0.5l0.3-0.9c0.2-0.5,0.2-0.7,0.3-0.8
			l0.1-0.2c0.1-0.1,0.1-0.3,0.1-0.4c0-0.1,0.1-0.2,0.2-0.4c0.4-0.9,0.9-1.8,1.4-2.7c0.5-0.7,1-1.5,1.8-2.3c0.6-0.6,1.3-1.3,2.2-2
			c0.8-0.7,1.7-1.2,2.5-1.7c0.9-0.5,1.9-0.9,2.8-1.2c0.8-0.3,1.8-0.5,3-0.7c0.3-0.1,0.6-0.1,0.9-0.1c0.2,0,0.4,0,0.5-0.1
			c0.2,0,0.5,0,0.7,0c0.3,0,0.6,0,1,0c0.3,0,0.5,0,0.8,0c0.2,0,0.4,0,0.6,0c0.2,0,0.4,0.1,0.6,0.1c0.3,0,0.6,0.1,1,0.2
			c0.3,0,0.5,0.1,0.8,0.2c0.2,0.1,0.4,0.1,0.6,0.1c0.2,0.1,0.4,0.1,0.6,0.2c0.3,0.1,0.5,0.2,0.9,0.3c0.2,0.1,0.5,0.2,0.7,0.3
			c0.2,0.1,0.4,0.2,0.6,0.3c0.2,0.1,0.4,0.2,0.6,0.3c0.2,0.1,0.5,0.2,0.8,0.4l0.5,0.3c0.1,0,0.1,0.1,0.4,0.2l37.8,23.9l2.9,1.7
			c0.7,0.4,1.4,0.8,2.2,1.3l4.2,2l5.8,2.3l4.5,1.4l3,0.8c8.3,1.9,17,2.4,25.1,1.4l3-0.4c0.7-0.1,1.5-0.3,2.2-0.4l1.8-0.4
			c0.7-0.1,1.4-0.3,2.1-0.5l2.9-0.8c1-0.3,1.9-0.6,3-1l2.9-1l2.8-1.2c0.9-0.4,1.9-0.8,2.8-1.3l2.7-1.4c0.6-0.3,1.3-0.7,1.9-1.1
			l1.5-0.9c0.6-0.4,1.2-0.7,1.8-1.2l2.5-1.7c0.9-0.6,1.7-1.3,2.5-1.9l2.4-1.9c0.8-0.7,1.5-1.3,2.3-2.1c0.7-0.7,1.5-1.3,2.1-2.1
			l2.1-2.2c0.5-0.5,1-1.1,1.4-1.6l1.2-1.4c0.5-0.6,1-1.1,1.4-1.7l2-2.8c0.2-0.3,0.4-0.6,0.7-1l2.4-4c0.4-0.7,0.8-1.4,1.2-2.2
			l0.7-1.3c0.4-0.7,0.7-1.4,1-2.1c3.5-7.6,5.8-15.9,6.5-24.2c0.1-0.8,0.1-1.5,0.1-2.3l0.1-1.6c0-0.8,0.1-1.5,0.1-2.3L372.8,136.8z"
			/>
		<path class="st20" d="M133,349.7c0.4,0.4,0.8,0.7,1.3,1l1.5,1l2.8,1.8c0.6,0.4,1.2,0.8,1.8,1.1c6.2,3.7,13,6.4,20.2,8.2
			c6,1.5,12.2,2.2,18.5,2.2c1.1,0,2.1,0,3.2-0.1c7.2-0.3,14.4-1.6,21.4-4c6.8-2.2,13.3-5.6,19.4-9.8l0.5-0.3
			c0.6-0.4,1.1-0.8,1.7-1.3l8.2-6.7l3.9-3.3c5.6-5.2,10.3-11.1,13.9-17.4c7.4-13.1,10.5-28.4,8.8-43.2c-0.8-7.4-2.7-14.6-5.7-21.4
			c-3-6.9-7-13.2-12-18.9c-5.1-5.8-10.8-10.6-17.3-14.3l-2.7-1.5c-0.7-0.4-1.4-0.8-2.1-1.1l-3.9-1.7l-4.3-1.6
			c-0.3-0.1-0.6-0.2-0.9-0.3l-5.6-1.6c-2.4-0.7-4.9-1.8-7.2-3.4c-2.3-1.7-4.2-3.7-5.7-5.7c-1.6-2.3-2.7-4.8-3.4-7.3
			c-0.4-1.4-0.6-2.7-0.7-4c-0.1-1.3-0.1-2.6,0-4.1c0.1-1.2,0.3-2.5,0.6-4l0.1-0.3c0-0.2,0.1-0.4,0.2-0.7l0.3-1.1
			c0.2-0.5,0.2-0.7,0.3-0.9l0.1-0.3c0.1-0.1,0.1-0.3,0.2-0.5c0-0.2,0.1-0.3,0.2-0.5c0.5-1.3,1.2-2.5,1.8-3.5c0.6-1,1.4-2,2.4-3.1
			c3.5-4,8.6-6.7,14-7.5c0.4-0.1,0.9-0.1,1.3-0.2l0.6-0.1c0.3,0,0.5,0,0.8,0c0.4,0,0.8,0,1.3,0c0.4,0,0.8,0,1.2,0.1
			c0.3,0,0.6,0,0.7,0c0.2,0,0.5,0.1,0.7,0.1c0.4,0.1,0.8,0.1,1.3,0.2c0.4,0.1,0.8,0.2,1.2,0.3c0.3,0.1,0.5,0.1,0.6,0.2
			c0.2,0.1,0.5,0.2,0.7,0.2c0.4,0.1,0.8,0.2,1.3,0.4c0.4,0.1,0.7,0.3,1.1,0.4c0.3,0.1,0.5,0.2,0.6,0.3c0.3,0.1,0.5,0.3,0.8,0.4
			c0.3,0.2,0.7,0.3,1.1,0.6l0.6,0.3c0.1,0.1,0.2,0.1,0.4,0.3l37.8,23.9l2.8,1.6c0.7,0.4,1.3,0.8,2,1.1l3.8,1.8l5.4,2.2l4.1,1.3
			l2.8,0.7c7.6,1.8,15.6,2.2,23.1,1.3l2.8-0.4c0.7-0.1,1.3-0.2,2-0.4l1.7-0.3c0.7-0.1,1.3-0.3,1.9-0.4l2.7-0.7
			c1-0.3,1.9-0.6,2.7-0.9l2.7-1l2.6-1.1c0.8-0.4,1.7-0.7,2.6-1.2l2.5-1.3c0.6-0.3,1.1-0.6,1.7-1l1.5-0.9c0.6-0.3,1.1-0.7,1.7-1.1
			l2.3-1.6c0.8-0.5,1.6-1.2,2.3-1.7l2.2-1.8l2.2-2c0.6-0.6,1.3-1.2,1.9-1.9l1.9-2c0.5-0.5,0.9-1,1.3-1.5l1.1-1.3
			c0.4-0.5,0.9-1,1.3-1.6l1.9-2.6c0.2-0.3,0.4-0.5,0.6-0.9l2.3-3.7c0.4-0.6,0.7-1.3,1.1-2l0.6-1.2c0.3-0.6,0.7-1.3,0.9-1.9
			c3.2-7,5.4-14.7,6-22.3c0.1-0.7,0.1-1.4,0.1-2.1l0.1-1.6c0-0.7,0.1-1.4,0.1-2.1l-0.1-3.4c0-0.8,0-1.5-0.1-2.2l-0.3-2.7l-0.4-2.8
			c-0.3-1.9-0.7-3.9-1.1-5.7c-1.9-7.5-5-14.6-9.2-21s-9.5-12.1-15.7-16.6c-6.2-4.7-13.1-8.1-20.4-10.4c-7.3-2.3-15-3.3-22.8-3
			c-1.8,0.1-3.8,0.2-5.7,0.5l-96.6,13.9l-1.6,0.2c-0.4,0-0.7,0.1-1.2,0.1c-0.2,0-0.3,0-0.5,0c-0.2,0-0.3,0-0.4,0c-0.2,0-0.3,0-0.5,0
			c-0.2,0-0.3,0-0.5,0c-0.4,0-0.7,0-1.1,0h-0.2c-0.1,0-0.1,0-0.2,0l-1.5-0.1c-0.4-0.1-0.7-0.1-1.1-0.2l-1.8-0.4
			c-0.3-0.1-0.7-0.2-1-0.3l-0.9-0.3c-5-1.7-9.4-5.4-12.3-10c-0.7-1.1-1.2-2.3-1.8-3.5c-0.1-0.3-0.2-0.7-0.4-1.1
			c-0.1-0.1-0.1-0.3-0.1-0.4c0-0.2-0.1-0.3-0.1-0.5c-0.1-0.4-0.2-0.8-0.3-1.2c-0.1-0.2-0.1-0.5-0.2-0.6c-0.2-1.3-0.5-2.6-0.5-4.1
			c0-0.4,0-0.7,0-1.1c0-0.3,0-0.6,0-0.8c0-0.2,0-0.3,0-0.5c0-0.2,0-0.3,0-0.4s0-0.3,0-0.4c0-0.2,0-0.3,0.1-0.6l0.1-0.6
			c0.1-0.4,0.1-0.9,0.3-1.3c1.8-6.5,6-18.6,7.7-23.5l0.1-0.3c0.2-0.6-0.1-1.2-0.7-1.4l-1.5-0.5c-0.3-0.1-0.6-0.1-0.8,0.1
			c-0.3,0.1-0.5,0.4-0.6,0.6c-0.8,2.3-1.6,4.7-2.4,7c-1.9,5.6-4,11.3-5.5,17c-0.2,0.6-0.2,1.1-0.3,1.7l-0.1,0.6
			c-0.1,0.3-0.1,0.6-0.1,0.9v0.4c0,0.1,0,0.3,0,0.4c0,0.3-0.1,0.5-0.1,0.8s0,0.5,0,0.8c0,0.5,0,1,0,1.4c0,1.5,0.2,2.9,0.6,4.7
			c0.1,0.2,0.1,0.5,0.2,0.7c0.1,0.5,0.2,1,0.4,1.5c0,0.1,0.1,0.2,0.1,0.3c0.1,0.3,0.2,0.5,0.2,0.7c0.1,0.3,0.3,0.7,0.4,1.1
			c0.6,1.4,1.2,2.8,2.1,4.2c3.3,5.5,8.5,9.6,14.2,11.7l1.1,0.4c0.3,0.1,0.7,0.2,1.1,0.3l2.2,0.5c0.3,0.1,0.7,0.1,1.1,0.2l1.6,0.1
			c0.2,0,0.3,0,0.5,0h0.2c0.4,0,0.7,0,1.1,0c0.3,0,0.5,0,0.8,0c0.1,0,0.3,0,0.5,0c0.1,0,0.2,0,0.4,0c0.3,0,0.6,0,0.8-0.1
			c0.4,0,0.7-0.1,1.1-0.1h0.3c0,0,0.1,0,0.2,0l93.6-13.5l4.2-0.6c1.7-0.2,3.3-0.3,5.4-0.4c7.3-0.3,14.6,0.7,21.5,2.8
			c7,2.2,13.4,5.5,19.3,9.8c5.8,4.4,10.8,9.6,14.9,15.7c4.1,6.1,7,12.8,8.7,19.9c0.4,1.7,0.8,3.5,1.1,5.4l0.6,5.4
			c0.1,0.7,0.1,1.3,0.1,2l0.1,3.3c0,0.6,0,1.2-0.1,1.8l-0.1,1.6c0,0.6-0.1,1.3-0.1,1.9c-0.6,7.2-2.6,14.5-5.7,21.1
			c-0.2,0.6-0.5,1.1-0.8,1.7l-0.7,1.3c-0.3,0.6-0.6,1.2-0.9,1.7l-2.2,3.5c-0.2,0.3-0.3,0.5-0.5,0.7l-1.8,2.5
			c-0.4,0.5-0.7,0.9-1.1,1.4l-0.5,0.6c-0.2,0.2-0.4,0.5-0.6,0.7c-0.4,0.5-0.7,0.9-1.2,1.3l-1.9,2c-0.6,0.6-1.2,1.1-1.8,1.7l-2.1,1.9
			l-2.1,1.7c-0.7,0.5-1.4,1.1-2.1,1.6l-2.2,1.5c-0.5,0.3-1,0.6-1.5,1l-1.4,0.9c-0.5,0.3-1,0.6-1.5,0.9l-2.4,1.2
			c-0.7,0.4-1.5,0.7-2.4,1.1l-2.4,1l-2.6,0.9c-0.8,0.3-1.6,0.6-2.5,0.8l-2.6,0.7c-0.6,0.2-1.2,0.3-1.7,0.4l-1.7,0.3
			c-0.6,0.1-1.2,0.2-1.8,0.3l-2.7,0.4c-7,0.9-14.5,0.4-21.8-1.2l-1.3-0.3l-5.2-1.6l-3.9-1.5l-4.9-2.3c-0.6-0.3-1.2-0.7-1.8-1
			l-40.6-25.5c-0.3-0.2-0.4-0.2-0.6-0.4l-0.4-0.3c-0.4-0.3-0.9-0.5-1.3-0.7c-0.2-0.1-0.5-0.2-0.9-0.4c-0.2-0.1-0.5-0.2-0.7-0.3
			c-0.5-0.2-0.9-0.4-1.3-0.5c-0.5-0.2-1-0.4-1.5-0.5c-0.2-0.1-0.4-0.1-0.8-0.2c-0.2-0.1-0.5-0.1-0.7-0.2c-0.5-0.1-1-0.3-1.4-0.3
			c-0.5-0.1-1-0.2-1.6-0.3c-0.2,0-0.5-0.1-0.8-0.1c-0.2,0-0.5,0-0.7,0c-0.5,0-1-0.1-1.5-0.1s-1,0-1.6,0c-0.2,0-0.5,0-0.8,0l-0.7,0.1
			c-0.5,0.1-1.1,0.1-1.6,0.2c-6.2,0.9-12.1,4.2-16.2,8.7c-1.1,1.3-2,2.4-2.8,3.7c-0.7,1.2-1.5,2.5-2.1,4.1c-0.1,0.2-0.2,0.5-0.3,0.8
			c0,0.1-0.1,0.2-0.1,0.4l-0.1,0.3c-0.1,0.2-0.2,0.5-0.4,1.1l-0.3,1.1c-0.1,0.3-0.2,0.6-0.2,0.9l-0.3,0.7c-0.4,1.7-0.6,3.2-0.7,4.6
			c-0.1,1.5-0.1,3.1,0.1,4.7c0.1,1.4,0.4,2.9,0.9,4.6c0.8,2.9,2.1,5.8,4,8.4c1.7,2.4,3.9,4.7,6.6,6.7c2.7,1.8,5.5,3.2,8.4,4l5.5,1.6
			c0.3,0.1,0.5,0.2,0.8,0.3l4.1,1.5l3.7,1.7c0.7,0.3,1.3,0.6,2,1l2.6,1.5c6.1,3.5,11.6,8.1,16.3,13.6c4.7,5.4,8.5,11.4,11.4,17.8
			c2.7,6.5,4.6,13.3,5.4,20.3c1.6,14-1.3,28.6-8.4,41c-3.3,6-7.8,11.6-13.2,16.4l-1.9,1.7l-4.8,4l-5.1,4.2c-0.6,0.4-1.2,0.9-1.8,1.3
			l-0.3,0.2c-5.8,4.1-12,7.2-18.5,9.3c-6.7,2.2-13.5,3.5-20.3,3.8c-7,0.3-14-0.4-20.6-2c-6.9-1.7-13.3-4.4-19.2-7.8
			c-0.6-0.3-1.1-0.7-1.7-1l-4.2-2.8c-0.4-0.2-0.7-0.5-1.2-0.9L6.8,236.2c-0.5-0.4-1.2-0.3-1.6,0.1l-1,1.2c-0.2,0.2-0.3,0.5-0.3,0.8
			s0.2,0.6,0.4,0.8L133,349.7z"/>
		<path class="st20" d="M117.1,328.4l19.6,16.8c0.4,0.3,0.8,0.7,1.2,0.9l4,2.6c0.5,0.3,1.1,0.7,1.6,1c5.7,3.3,12,5.9,18.7,7.6
			c5.5,1.4,11.3,2,17,2c1,0,2,0,2.9-0.1c13.4-0.5,26.8-5.1,37.7-12.9l0.5-0.4c0.5-0.4,1-0.7,1.5-1.1l8-6.5l3.7-3.1
			c5.2-4.8,9.5-10.1,12.8-16c6.8-12.1,9.7-26.2,8.1-39.7c-0.7-6.8-2.5-13.5-5.2-19.8c-2.7-6.3-6.5-12.2-11.1-17.3
			c-4.7-5.3-10-9.7-15.9-13.2l-2.5-1.4c-0.6-0.4-1.3-0.7-1.9-1l-3.5-1.6l-4-1.5c-0.3-0.1-0.6-0.2-0.8-0.3l-5.3-1.5
			c-3-0.8-6.1-2.3-8.9-4.3c-2.8-2-5.2-4.5-7-7.1c-1.9-2.8-3.4-5.9-4.3-9c-0.5-1.7-0.8-3.3-0.9-4.9c-0.2-1.6-0.2-3.3-0.1-5
			c0.1-1.5,0.3-3.1,0.8-4.9l0.1-0.3c0.1-0.3,0.1-0.5,0.2-0.9l0.4-1.3c0.2-0.5,0.3-0.7,0.4-1l0.1-0.3c0.1-0.2,0.1-0.3,0.2-0.5
			c0.1-0.2,0.1-0.4,0.3-0.7c0.5-1.3,1.2-2.7,2.3-4.5c0.8-1.3,1.8-2.6,3-4c4.4-4.9,10.7-8.3,17.3-9.3c0.6-0.1,1.2-0.2,1.8-0.2
			l0.6-0.1c0.3,0,0.5,0,0.8,0c0.6,0,1.1-0.1,1.7,0c0.5,0,1.1,0,1.6,0.1c0.3,0,0.6,0,0.7,0l0.8,0.1c0.6,0.1,1.1,0.1,1.7,0.3
			c0.5,0.1,1,0.2,1.5,0.3c0.3,0.1,0.6,0.1,0.7,0.2l0.8,0.2c0.5,0.2,1.1,0.3,1.7,0.6c0.5,0.2,1,0.4,1.4,0.6c0.3,0.1,0.6,0.3,0.7,0.3
			c0.3,0.2,0.6,0.3,0.9,0.5c0.4,0.2,0.9,0.5,1.4,0.8l0.7,0.4c0.1,0.1,0.2,0.1,0.5,0.3l37.8,23.9l2.7,1.6c0.5,0.3,1.1,0.6,1.7,1
			l3.4,1.7l5,2l3.8,1.2l2.6,0.7c7,1.6,14.3,2,21.1,1.2l2.5-0.3c0.6-0.1,1.2-0.2,1.8-0.3l1.6-0.3c0.6-0.1,1.2-0.2,1.8-0.4l2.4-0.7
			c0.9-0.2,1.7-0.5,2.5-0.8l2.5-0.9l2.3-1c0.8-0.3,1.6-0.7,2.4-1.1l2.2-1.2c0.5-0.3,1.1-0.6,1.6-0.9l1.4-0.8c0.5-0.3,1-0.6,1.5-1
			l2.1-1.4c0.8-0.5,1.5-1.1,2.1-1.6l2-1.6l2-1.8c0.6-0.6,1.2-1.1,1.7-1.7l1.7-1.8c0.4-0.4,0.8-0.9,1.2-1.4l1-1.2
			c0.4-0.5,0.8-0.9,1.1-1.4l1.7-2.4c0.2-0.2,0.4-0.5,0.5-0.8l2.1-3.3c0.3-0.6,0.6-1.1,0.9-1.7l0.7-1.2c0.3-0.6,0.6-1.2,0.8-1.7
			c2.9-6.4,4.9-13.4,5.5-20.4c0.1-0.6,0.1-1.2,0.1-1.8l0.1-1.6c0-0.6,0.1-1.2,0-1.8l-0.1-3.1c0-0.7,0-1.4-0.1-2l-0.3-2.5l-0.3-2.5
			c-0.3-1.8-0.7-3.5-1-5.2c-1.7-6.9-4.6-13.4-8.5-19.3c-4-5.9-8.7-11-14.4-15.2c-5.7-4.3-12-7.4-18.7-9.5c-6.7-2.1-13.7-3-20.9-2.7
			c-1.6,0.1-3.4,0.2-5.2,0.4L195.2,93l-3,0.4c-0.2,0-0.4,0-0.7,0c-0.2,0-0.4,0-0.5,0c-0.2,0-0.4,0-0.6,0s-0.5,0-0.7,0h-1.5l0,0
			c-0.1,0-0.2,0-0.3,0l-1.8-0.2l-3.7-0.7l-1.2-0.4l-1.2-0.4c-6.2-2.1-11.7-6.7-15.2-12.5c-0.8-1.3-1.5-2.7-2.2-4.5l-0.5-1.3
			c-0.1-0.2-0.1-0.4-0.2-0.6c0-0.2-0.1-0.4-0.2-0.5c-0.2-0.5-0.3-1.1-0.4-1.6c-0.1-0.3-0.1-0.5-0.2-0.7c-0.3-1.5-0.6-3.2-0.6-5
			c0-0.5,0-1,0-1.5c0-0.3,0-0.6,0-0.9c0-0.2,0-0.4,0.1-0.7c0-0.2,0-0.4,0-0.5c0-0.2,0-0.3,0-0.5s0-0.5,0.1-0.7l0.1-0.7
			c0.1-0.6,0.2-1.2,0.3-1.8c0-0.2,0.1-0.4,0.1-0.5c0-0.2,0.1-0.4,0.2-0.7c1.6-5.5,3.5-11,5.4-16.3c0.8-2.2,1.5-4.6,2.3-6.8
			c0.2-0.6-0.1-1.2-0.7-1.4l-1.5-0.5c-0.3-0.1-0.6-0.1-0.8,0.1c-0.3,0.1-0.5,0.4-0.6,0.6c-0.8,2.3-1.6,4.8-2.4,7.1
			c-2,5.7-4.1,11.6-5.6,17.5c-0.2,0.7-0.3,1.4-0.4,2.1l-0.1,0.6c-0.1,0.3-0.1,0.7-0.1,1v0.4c0,0.2,0,0.3,0,0.5
			c0,0.3-0.1,0.6-0.1,0.9c0,0.3,0,0.6,0,0.9c0,0.6,0,1.2,0,1.8c0,1.8,0.3,3.5,0.7,5.7l0.2,0.8c0.1,0.6,0.3,1.3,0.5,1.9
			c0,0.1,0.1,0.3,0.1,0.4c0.1,0.3,0.2,0.6,0.3,0.9l0.5,1.3c0.7,1.6,1.5,3.4,2.5,5.1c4,6.5,10.2,11.7,17.2,14.1l0.7,0.3
			c0.1,0,0.3,0.1,0.4,0.1l1.6,0.5l1.3,0.3l2.8,0.5l2,0.2c0.2,0,0.4,0,0.5,0h1.6c0.3,0,0.6,0,0.9,0c0.2,0,0.3,0,0.5,0
			c0.1,0,0.3,0,0.4,0c0.3,0,0.7,0,1-0.1l95.5-13.7l4.1-0.6c1.6-0.2,3.3-0.3,4.9-0.4c6.7-0.2,13.3,0.6,19.6,2.6c6.3,2,12.3,5,17.5,9
			c5.3,4,9.8,8.8,13.5,14.3c3.7,5.5,6.3,11.6,7.9,18c0.3,1.4,0.7,3.1,1,4.9l0.6,4.9c0.1,0.6,0.1,1.2,0.1,1.8l0.1,3
			c0,0.5,0,1.1,0,1.6l-0.1,1.5c0,0.6,0,1.1-0.1,1.7c-0.6,6.6-2.3,13.2-5.2,19.2c-0.2,0.5-0.5,1-0.8,1.5l-0.6,1.2
			c-0.3,0.5-0.5,1-0.8,1.5l-2,3.1c-0.1,0.2-0.3,0.4-0.5,0.7l-1.7,2.3c-0.3,0.4-0.7,0.8-1,1.3l-0.5,0.6c-0.2,0.2-0.4,0.4-0.5,0.7
			c-0.3,0.4-0.7,0.8-1,1.2l-1.7,1.8c-0.5,0.5-1,1-1.6,1.5l-1.9,1.8l-1.9,1.5c-0.6,0.5-1.2,1-1.9,1.4l-2,1.4
			c-0.4,0.3-0.9,0.6-1.3,0.8l-0.7,0.4c-0.2,0.1-0.5,0.3-0.7,0.4c-0.4,0.3-0.9,0.5-1.4,0.8l-2.2,1.1c-0.7,0.4-1.4,0.7-2.2,1l-2.2,0.9
			l-2.4,0.8c-0.7,0.3-1.5,0.5-2.3,0.7l-2.2,0.5c-0.5,0.1-1,0.2-1.5,0.4c-0.3,0.1-0.5,0.1-0.8,0.2l-0.8,0.2c-0.5,0.1-1.1,0.2-1.6,0.3
			l-2.5,0.3c-6.4,0.8-13.2,0.4-19.8-1.1l-1.2-0.3l-4.7-1.4l-3.4-1.4l-4.4-2.1c-0.5-0.3-1-0.6-1.6-0.9L230.7,165
			c-0.2-0.2-0.4-0.2-0.6-0.3l-0.7-0.4c-0.5-0.3-1.1-0.6-1.6-0.9c-0.3-0.1-0.6-0.3-0.9-0.5c-0.3-0.1-0.5-0.2-0.8-0.4
			c-0.6-0.3-1.1-0.5-1.7-0.7c-0.6-0.3-1.3-0.5-1.9-0.7l-0.8-0.3c-0.3-0.1-0.5-0.1-0.8-0.2c-0.6-0.2-1.2-0.3-1.8-0.4
			c-0.6-0.1-1.3-0.2-2-0.3l-1.8,0c-0.7,0-1.3-0.1-1.9-0.1c-0.7,0-1.3,0-2,0l-1.6,0.1c-0.7,0.1-1.4,0.1-2,0.3
			c-7.5,1.1-14.6,5-19.6,10.5c-1.3,1.5-2.4,2.9-3.4,4.5c-1.1,1.9-1.9,3.4-2.5,5c-0.1,0.3-0.3,0.6-0.4,0.9c-0.1,0.1-0.1,0.3-0.2,0.5
			l-0.1,0.4c-0.1,0.3-0.2,0.6-0.4,1.2l-0.4,1.3c-0.1,0.4-0.2,0.7-0.3,1.1l-0.1,0.3c-0.5,2-0.8,3.9-0.9,5.6c-0.1,1.9-0.1,3.8,0.1,5.6
			c0.2,1.8,0.5,3.7,1,5.6c1,3.5,2.5,7,4.8,10.2c2,3,4.8,5.7,7.9,8c3.2,2.2,6.7,3.9,10.1,4.9l5.2,1.5c0.2,0.1,0.5,0.2,0.7,0.2l2.6,1
			l4.5,1.9c0.6,0.3,1.2,0.6,1.7,0.9l2.5,1.4c5.5,3.2,10.5,7.4,14.9,12.4c4.3,4.9,7.8,10.3,10.3,16.3c2.5,5.9,4.3,12.2,4.9,18.7
			c1.5,12.9-1.2,26.2-7.7,37.5c-3.1,5.5-7.2,10.5-12.1,15.1l-1.8,1.6l-4.7,3.9l-4.9,4c-0.5,0.4-0.9,0.7-1.4,1l-0.5,0.4
			c-10.3,7.3-23,11.7-35.7,12.2c-6.5,0.3-12.9-0.4-19-1.9c-6.3-1.6-12.3-4-17.6-7.2c-0.5-0.3-1-0.6-1.5-0.9l-3.9-2.5
			c-0.3-0.2-0.6-0.5-1-0.8L10.3,231.8c-0.5-0.4-1.2-0.3-1.6,0.1l-1,1.2c-0.2,0.2-0.3,0.5-0.3,0.8s0.2,0.6,0.4,0.8L117.1,328.4z"/>
		<path class="st20" d="M140.3,340.8c0.3,0.3,0.7,0.6,1,0.8l3.5,2.3c0.5,0.3,1,0.6,1.5,0.9c5.2,3,11,5.4,17.1,7
			c5.1,1.2,10.3,1.9,15.6,1.9c0.9,0,1.8,0,2.7-0.1c12.3-0.5,24.6-4.7,34.7-11.8l1.8-1.3l7.8-6.4l3.3-2.9c4.8-4.4,8.7-9.3,11.7-14.6
			c6.2-11,8.8-23.9,7.4-36.3c-0.7-6.2-2.3-12.3-4.8-18c-2.5-5.8-5.9-11.1-10-15.8c-4.3-4.9-9.1-8.9-14.5-12.1l-2.3-1.3
			c-0.6-0.3-1.2-0.6-1.7-0.9l-3.2-1.5l-3.5-1.3c-0.3-0.1-0.5-0.2-0.8-0.3l-5.1-1.5c-3.8-1-7.3-2.7-10.7-5.2
			c-3.3-2.4-6.2-5.3-8.4-8.5c-4.6-6.5-6.9-14.8-6.3-22.6c0.1-1.8,0.4-3.8,0.9-5.9l0.1-0.4c0.1-0.3,0.2-0.7,0.3-1.1l0.5-1.5
			c0.1-0.4,0.3-0.8,0.4-1.1l0.2-0.4c0.1-0.2,0.1-0.4,0.2-0.6c0.1-0.3,0.2-0.5,0.3-0.8c0.7-1.6,1.5-3.3,2.7-5.3
			c1-1.6,2.2-3.1,3.7-4.8c5.3-5.9,12.8-9.9,20.7-11.2c0.7-0.1,1.5-0.2,2.2-0.3l1.5-0.1c0.7,0,1.4-0.1,2.2,0c0.7,0,1.4,0,2.1,0.1
			l1.6,0.2c0.7,0.1,1.4,0.2,2.2,0.3c0.7,0.1,1.3,0.3,2,0.4l1.6,0.4c0.7,0.2,1.4,0.4,2.1,0.7c0.6,0.2,1.2,0.5,1.8,0.7
			c0.3,0.1,0.6,0.3,0.8,0.4c0.3,0.2,0.6,0.3,0.9,0.5c0.6,0.3,1.1,0.6,1.7,0.9l0.8,0.5c0.2,0.1,0.3,0.2,0.5,0.3l37.8,23.9
			c0.1,0.1,0.3,0.2,0.5,0.3l2.1,1.2c0.5,0.3,0.9,0.5,1.5,0.8l3.1,1.5l4.5,1.8l3.3,1l2.3,0.6c6.5,1.5,12.9,1.9,19.2,1.1l2.3-0.3
			c0.5-0.1,1.1-0.2,1.6-0.3l0.8-0.2c0.2-0.1,0.5-0.1,0.7-0.2c0.5-0.1,1.1-0.2,1.6-0.4l2.2-0.6c0.8-0.2,1.5-0.5,2.3-0.7l2.2-0.8
			l2.2-0.9c0.7-0.3,1.4-0.6,2.1-1l2-1c0.5-0.2,0.9-0.5,1.4-0.8c0.2-0.1,0.4-0.3,0.7-0.4l0.7-0.4c0.5-0.3,0.9-0.5,1.4-0.9l1.9-1.3
			c0.7-0.4,1.3-0.9,1.9-1.4l1.8-1.5l1.9-1.7c0.5-0.5,1.1-1,1.6-1.5l1.6-1.7c0.4-0.4,0.7-0.8,1.1-1.2c0.2-0.2,0.3-0.4,0.5-0.6
			l0.5-0.6c0.3-0.4,0.7-0.8,1-1.3l1.6-2.2c0.2-0.2,0.3-0.5,0.5-0.7l1.9-3c0.3-0.5,0.5-0.9,0.8-1.4l0.7-1.2c0.3-0.5,0.5-1,0.8-1.5
			c2.7-5.9,4.4-12.1,5-18.5c0.1-0.5,0.1-1.1,0.1-1.6l0.1-1.5c0-0.5,0.1-1.1,0-1.7l-0.1-2.9c0-0.6,0-1.2-0.1-1.8l-0.2-2.3l-0.3-2.3
			c-0.2-1.6-0.6-3.1-0.9-4.7c-1.5-6.3-4.2-12.1-7.7-17.4s-7.9-9.9-13.1-13.8c-5.2-3.9-10.8-6.8-16.9-8.7c-6.1-1.9-12.5-2.7-19-2.5
			c-1.6,0.1-3.1,0.2-4.8,0.4l-96.4,13.8c-0.9,0.1-1.6,0.2-2.2,0.3c-0.3,0-0.7,0.1-1.1,0.1c-0.3,0-0.6,0-0.8,0.1c-0.2,0-0.4,0-0.5,0
			c-0.2,0-0.4,0-0.6,0c-0.3,0-0.6,0-0.9,0h-1.8c-0.1,0-0.3,0-0.4,0l-2.2-0.2l-1.5-0.2l-2.8-0.6l-1.5-0.4l-1.4-0.5
			c-7.4-2.5-14-8-18.3-14.9c-1.1-1.7-2-3.7-2.6-5.3l-0.6-1.5c-0.1-0.3-0.2-0.5-0.3-0.8c-0.1-0.2-0.1-0.4-0.2-0.6
			c-0.2-0.6-0.4-1.3-0.5-2l-0.2-0.8c-0.3-1.8-0.7-3.9-0.7-6c0-0.6,0-1.3,0-1.9c0-0.3,0-0.7,0-1c0-0.3,0-0.6,0.1-0.8
			c0-0.2,0-0.4,0.1-0.6v-0.5c0-0.3,0-0.6,0.1-0.9l0.1-0.7c0.1-0.8,0.2-1.5,0.4-2.2c1.6-6.1,3.8-12.2,5.8-18c0.8-2.2,1.6-4.6,2.3-6.8
			c0.1-0.3,0.1-0.6-0.1-0.8c-0.1-0.3-0.4-0.5-0.6-0.6l-1.5-0.5c-0.6-0.2-1.2,0.1-1.4,0.7c-0.7,2.2-1.5,4.6-2.3,6.8
			c-2,6-4.3,12.2-5.9,18.4c-0.2,0.9-0.4,1.7-0.5,2.6l-0.1,0.6c-0.1,0.4-0.1,0.8-0.2,1.2v0.5c0,0.2,0,0.4-0.1,0.6
			c0,0.4-0.1,0.7-0.1,1.1c0,0.3,0,0.6,0,1c0,0.7,0,1.5,0,2.2c0,2.3,0.4,4.7,0.8,6.6l0.2,0.8c0.2,0.8,0.4,1.6,0.6,2.4
			c0.1,0.2,0.1,0.3,0.2,0.5c0.1,0.4,0.2,0.7,0.3,1l0.6,1.5c0.7,1.8,1.7,4,2.9,5.9C161.5,91,168.9,97,177,99.8l0.8,0.3
			c0.2,0.1,0.3,0.1,0.5,0.1l1.9,0.6l1.5,0.3l3.3,0.6l2.4,0.2c0.2,0,0.4,0,0.6,0h1.9c0.4,0,0.7,0,1.1,0h0.6c0.2,0,0.4,0,0.5,0
			c0.4,0,0.8,0,1.1-0.1l1-0.1c0.7-0.1,1.5-0.2,2.4-0.3l92.2-12.9l4-0.5c1.4-0.2,2.8-0.3,4.5-0.4c6-0.2,12,0.6,17.6,2.3
			c5.7,1.8,11.1,4.6,15.8,8.1c4.8,3.7,8.9,7.9,12.2,12.9c3.2,5,5.7,10.4,7.2,16.2c0.3,1.5,0.7,2.9,0.9,4.4l0.5,4.5
			c0.1,0.5,0.1,1.1,0.1,1.6l0.1,2.8c0,0.5,0,1,0,1.5l-0.1,1.4c0,0.5,0,1-0.1,1.5c-0.5,6-2.1,11.8-4.7,17.2c-0.2,0.5-0.4,0.9-0.7,1.3
			l-0.6,1.2c-0.2,0.5-0.5,0.9-0.7,1.3l-1.8,2.8c-0.1,0.2-0.3,0.4-0.4,0.6l-1.5,2.1c-0.3,0.4-0.6,0.7-0.9,1.1l-0.5,0.6
			c-0.2,0.2-0.3,0.4-0.5,0.6c-0.3,0.4-0.6,0.7-0.9,1l-1.6,1.6c-0.4,0.5-0.9,0.9-1.4,1.3l-1.8,1.6l-1.7,1.4c-0.6,0.4-1.1,0.9-1.7,1.3
			l-1.8,1.3c-0.4,0.3-0.8,0.5-1.2,0.7l-0.6,0.4c-0.2,0.1-0.4,0.3-0.7,0.4c-0.4,0.2-0.8,0.5-1.2,0.7l-2,1c-0.6,0.3-1.2,0.6-1.9,0.9
			l-2,0.9l-2.2,0.8c-0.6,0.2-1.3,0.5-2,0.6l-2.2,0.6c-0.4,0.1-0.9,0.2-1.3,0.3c-0.3,0.1-0.5,0.1-0.7,0.2l-0.8,0.2
			c-0.5,0.1-0.9,0.2-1.4,0.3l-2.2,0.3c-5.8,0.7-11.8,0.4-17.7-1c-5.7-1.3-11.3-3.8-16.3-6.9l-37.8-23.9c-0.2-0.1-0.4-0.3-0.6-0.4
			l-0.8-0.5c-0.6-0.4-1.3-0.8-2-1.1c-0.3-0.2-0.6-0.3-1-0.5c-0.3-0.1-0.6-0.3-0.9-0.4c-0.7-0.3-1.4-0.6-2-0.8
			c-0.8-0.3-1.6-0.6-2.3-0.8l-1.7-0.5c-0.7-0.2-1.5-0.4-2.3-0.5c-0.8-0.2-1.6-0.3-2.4-0.4l-1.7-0.2c-0.8-0.1-1.6-0.1-2.4-0.1
			s-1.7,0-2.5,0l-1.6,0.1c-0.8,0.1-1.7,0.2-2.5,0.3c-8.7,1.3-17.1,5.9-22.9,12.4c-1.5,1.7-2.8,3.4-4,5.3c-1.3,2.1-2.3,4.1-3,5.8
			c-0.2,0.3-0.3,0.7-0.4,1.1c-0.1,0.2-0.1,0.3-0.2,0.5l-0.2,0.4c-0.1,0.4-0.3,0.7-0.4,1.2l-0.2,0.8c-0.2,0.8-0.5,1.6-0.7,2.3
			c-0.6,2.3-0.9,4.5-1,6.5c-0.7,8.8,1.8,17.7,6.9,25c2.4,3.5,5.6,6.7,9.3,9.4c3.8,2.6,7.8,4.6,11.9,5.7l5,1.4
			c0.2,0.1,0.4,0.1,0.6,0.2l2.4,0.9l4.1,1.8c0.5,0.2,1,0.5,1.5,0.8l2.2,1.2c5,2.9,9.5,6.7,13.6,11.3c3.9,4.5,7.1,9.4,9.4,14.8
			c2.3,5.4,3.9,11.1,4.5,16.9c1.3,11.7-1.1,23.7-6.9,34.1c-2.8,5-6.5,9.6-11,13.7l-6.2,5.3l-4.8,3.9l-1.8,1.3
			c-9.4,6.7-21,10.6-32.7,11.1c-5.9,0.2-11.8-0.3-17.3-1.7c-5.8-1.4-11.3-3.7-16.1-6.6c-0.5-0.3-0.9-0.5-1.4-0.8l-3.4-2.2
			c-0.3-0.2-0.5-0.4-0.8-0.7L14.1,227.4c-0.2-0.2-0.5-0.3-0.8-0.3c-0.3,0-0.6,0.2-0.8,0.4l-1,1.2c-0.4,0.5-0.3,1.2,0.1,1.6
			L140.3,340.8z"/>
		<path class="st20" d="M143.8,336.2c0.4,0.4,0.9,0.7,1.4,1.1l2.7,1.8c0.4,0.3,0.9,0.6,1.3,0.8c4.8,2.8,10,5,15.6,6.4
			c4.6,1.1,9.4,1.7,14.3,1.7c0.8,0,1.6,0,2.5,0c11.3-0.4,22.4-4.3,31.6-10.7l1.7-1.2l7.7-6.3l3.1-2.7c4.4-4,7.9-8.4,10.5-13.3
			c5.6-9.9,8-21.6,6.7-32.9c-0.6-5.7-2-11.2-4.4-16.4c-2.3-5.2-5.4-10-9.1-14.3c-3.9-4.4-8.3-8-13.1-10.8l-2.1-1.2
			c-0.5-0.3-1-0.6-1.6-0.8l-1.9-0.9l-4.3-1.7c-0.2-0.1-0.5-0.2-0.7-0.2l-4.9-1.4c-4.4-1.2-8.5-3.2-12.5-6c-3.9-2.8-7.2-6.2-9.7-9.8
			c-5.4-7.6-8-17.2-7.3-26.4c0.1-2.2,0.5-4.5,1.1-6.9c0.2-0.8,0.4-1.7,0.7-2.5l0.2-0.8c0.1-0.4,0.3-0.8,0.4-1.2l0.2-0.4
			c0.1-0.2,0.2-0.4,0.2-0.6c0.1-0.3,0.2-0.6,0.4-1c0.8-1.9,1.8-4,3.1-6.2c1.2-1.8,2.6-3.8,4.2-5.6c6.2-6.8,14.9-11.6,24.1-13
			c0.9-0.2,1.8-0.2,2.8-0.3l1.4-0.1c0.9,0,1.8-0.1,2.7,0c0.8,0,1.7,0.1,2.6,0.1l1.5,0.2c0.9,0.1,1.8,0.2,2.7,0.4
			c0.8,0.1,1.6,0.3,2.4,0.5l1.6,0.4c0.9,0.3,1.7,0.5,2.6,0.9c0.7,0.3,1.5,0.6,2.2,0.9c0.3,0.1,0.6,0.3,0.9,0.4
			c0.3,0.2,0.7,0.3,1,0.5c0.7,0.4,1.4,0.7,2.1,1.1l0.6,0.4c0.3,0.2,0.6,0.4,0.9,0.6l37.8,23.9c4.8,3,10.2,5.4,15.7,6.7
			c5.8,1.3,11.6,1.7,17.1,1l2.1-0.3c0.5-0.1,0.9-0.2,1.4-0.3l0.7-0.1c0.2-0.1,0.5-0.1,0.7-0.1c0.5-0.1,0.9-0.2,1.4-0.3l2-0.5
			c0.7-0.2,1.3-0.4,2.1-0.7l2-0.7l2-0.9c0.6-0.3,1.3-0.5,1.9-0.9l1.8-0.9c0.4-0.2,0.8-0.5,1.3-0.7c0.2-0.1,0.4-0.2,0.6-0.4l0.6-0.4
			c0.4-0.2,0.8-0.5,1.2-0.8l1.7-1.2c0.6-0.4,1.2-0.8,1.7-1.3l1.7-1.3l1.7-1.5c0.5-0.4,1-0.9,1.4-1.3l1.4-1.5c0.3-0.3,0.7-0.7,1-1.1
			c0.1-0.2,0.3-0.4,0.5-0.6l0.4-0.5c0.3-0.4,0.6-0.7,0.9-1.1l1.4-2c0.1-0.2,0.3-0.4,0.4-0.6l1.7-2.7c0.2-0.4,0.5-0.9,0.7-1.3
			l0.6-1.1c0.2-0.5,0.5-0.9,0.7-1.4c2.4-5.3,4-10.8,4.5-16.5c0-0.5,0.1-0.9,0.1-1.4l0.1-1.4c0-0.5,0-1,0-1.5l-0.1-2.6
			c0-0.5,0-1.1-0.1-1.6l-0.2-2.1l-0.3-2.1c-0.2-1.4-0.5-2.7-0.8-4.3c-1.4-5.6-3.8-10.8-6.9-15.6c-3.1-4.8-7.1-8.9-11.8-12.5
			c-4.6-3.4-9.7-6.1-15.2-7.8c-5.5-1.7-11.2-2.4-16.9-2.2c-1.4,0.1-2.8,0.2-4.3,0.4l-96.3,13.8c-0.9,0.1-1.7,0.2-2.5,0.3l-1.1,0.1
			c-0.3,0-0.7,0.1-1,0.1c-0.2,0-0.4,0-0.6,0h-0.7c-0.4,0-0.7,0-1,0h-2.1c-0.2,0-0.3,0-0.5,0l-2.6-0.2l-1.7-0.3l-3.3-0.7l-2-0.6
			c-0.2,0-0.3-0.1-0.5-0.1l-0.8-0.3c-8.6-3-16.3-9.3-21.2-17.2c-1.1-1.7-2-3.5-3.1-6.2l-0.6-1.7c-0.1-0.3-0.2-0.6-0.3-1
			c-0.1-0.2-0.1-0.4-0.2-0.7c-0.3-0.8-0.5-1.6-0.7-2.5l-0.2-0.8c-0.4-1.9-0.8-4.4-0.8-7c-0.1-0.8,0-1.6,0-2.4c0-0.3,0-0.7,0-1
			s0-0.7,0.1-1c0-0.2,0-0.4,0.1-0.6l0.1-0.6c0-0.4,0.1-0.7,0.1-1.1l0.1-0.7c0.1-0.9,0.3-1.8,0.5-2.7c1.6-6.3,3.8-12.5,5.9-18.6
			c0.8-2.3,1.6-4.7,2.4-6.9c0.2-0.6-0.1-1.2-0.7-1.4l-1.5-0.5c-0.1,0-0.1,0-0.2,0c-1.1-0.1-1.2,0.3-2.5,4.7l-0.1,0.4
			c-0.5,1.5-1,3-1.5,4.6c-1.9,5.5-3.9,11.3-5.4,16.9c-0.3,1-0.4,2.1-0.6,3.1l-0.1,0.6c-0.1,0.5-0.1,0.9-0.2,1.4l-0.1,1.2
			c0,0.4-0.1,0.8-0.1,1.3v1c0,0.9-0.1,1.8,0,2.7c0,2.8,0.5,5.5,0.9,7.6l0.2,0.8c0.2,0.9,0.4,1.9,0.8,2.8c0.1,0.2,0.1,0.4,0.2,0.6
			c0.1,0.4,0.2,0.8,0.4,1.2l0.7,1.8c1.2,2.8,2.2,5,3.4,6.8c5.4,8.8,13.6,15.5,23.1,18.9l0.9,0.3c0.2,0.1,0.4,0.1,0.6,0.2l2.1,0.6
			l1.8,0.4l3.8,0.7l2.7,0.2c0.2,0,0.5,0,0.7,0h2.1c0.4,0,0.8,0,1.2,0h0.7c0.2,0,0.4,0,0.6,0c0.4,0,0.9,0,1.3-0.1l1-0.1
			c0.9-0.1,1.8-0.2,2.7-0.3l92.4-13.3l3.9-0.5c1.3-0.2,2.6-0.3,4-0.3c5.4-0.2,10.6,0.5,15.7,2c5.1,1.6,9.8,4.1,14.1,7.2
			c4.3,3.2,7.9,7.1,10.8,11.5c2.9,4.5,5.1,9.3,6.4,14.5c0.3,1.2,0.6,2.5,0.8,4l0.5,4c0.1,0.4,0.1,0.9,0.1,1.4l0.1,2.5
			c0,0.4,0,0.8,0,1.3l-0.1,1.4c0,0.4,0,0.8-0.1,1.3c-0.5,5.3-1.8,10.4-4.2,15.3c-0.2,0.4-0.4,0.8-0.6,1.1l-0.6,1.2
			c-0.2,0.4-0.4,0.8-0.6,1.1l-1.6,2.5c-0.1,0.2-0.2,0.3-0.4,0.5l-1.4,1.9c-0.2,0.3-0.5,0.6-0.8,1l-0.4,0.5c-0.2,0.2-0.3,0.4-0.5,0.6
			c-0.3,0.3-0.5,0.6-0.8,0.9l-1.4,1.5c-0.4,0.4-0.8,0.8-1.2,1.1l-1.6,1.5l-1.6,1.3c-0.5,0.4-1,0.8-1.5,1.2l-1.7,1.1
			c-0.3,0.2-0.7,0.4-1,0.6c-0.2,0.1-0.4,0.2-0.6,0.4c-0.2,0.1-0.4,0.2-0.6,0.4c-0.3,0.2-0.7,0.4-1.1,0.6l-1.8,0.9
			c-9.5,4.8-20.9,6.1-30.9,3.5c-5.2-1.2-10-3.2-14.5-6.2L237,155.8c-0.4-0.2-0.7-0.4-1-0.6l-0.5-0.3c-0.8-0.5-1.6-0.9-2.3-1.3
			c-0.3-0.2-0.6-0.3-1-0.5l-0.9-0.4c-0.8-0.4-1.6-0.7-2.5-1c-0.9-0.4-1.9-0.7-2.8-1l-1.7-0.5c-0.9-0.2-1.8-0.5-2.7-0.6
			c-1-0.2-2-0.3-3-0.5l-1.6-0.2c-0.9-0.1-1.9-0.2-2.8-0.1c-1,0-2,0-2.9,0.1l-1.5,0.1c-1,0.1-2.1,0.2-3.1,0.4
			c-10.1,1.5-19.5,6.6-26.4,14.2c-1.7,2-3.3,4.1-4.6,6.1c-1.5,2.4-2.6,4.7-3.4,6.7c-0.2,0.4-0.3,0.8-0.5,1.2
			c-0.1,0.2-0.1,0.4-0.2,0.6l-0.2,0.5c-0.2,0.4-0.3,0.9-0.5,1.4l-0.2,0.8c-0.3,0.9-0.6,1.8-0.8,2.8c-0.6,2.6-1,5.1-1.2,7.5
			c-0.8,10.1,2,20.4,7.9,28.8c2.8,4.1,6.4,7.7,10.6,10.7c4.3,3,8.9,5.3,13.7,6.6l4.8,1.4c0.2,0.1,0.3,0.1,0.5,0.2l2.2,0.8l3.7,1.6
			c0.5,0.2,0.9,0.4,1.3,0.7l2.1,1.1c4.5,2.6,8.5,6,12.2,10c3.4,4,6.4,8.5,8.5,13.3c2.1,4.9,3.4,10,4.1,15.3
			c1.2,10.4-1,21.3-6.2,30.6c-2.5,4.5-5.8,8.6-9.8,12.3l-9,7.5l-3.1,2.4c-8.5,6.1-19.1,9.6-29.5,10c-5.4,0.2-10.6-0.3-15.7-1.6
			c-5.3-1.3-10.1-3.3-14.6-6c-0.4-0.2-0.8-0.5-1.2-0.7l-2.1-1.3c-0.2-0.1-0.3-0.2-0.5-0.4c-0.4-0.3-0.7-0.5-1.1-0.8L17.8,223
			c-0.5-0.4-1.2-0.3-1.6,0.1l-1,1.2c-0.2,0.2-0.3,0.5-0.3,0.8s0.2,0.6,0.4,0.8L143.8,336.2z"/>
		<path class="st20" d="M147.3,331.7c0.4,0.4,0.8,0.6,1.1,0.9l2.4,1.6c0.4,0.2,0.8,0.5,1.2,0.7c4.3,2.5,9,4.5,14.1,5.8
			c4.2,1,8.5,1.5,12.9,1.5c0.7,0,1.5,0,2.2,0c10.1-0.4,20.3-3.9,28.6-9.7l1.5-1.1l7.5-6.1l2.9-2.5c3.9-3.5,7.1-7.6,9.5-11.9
			c2.5-4.5,4.3-9.2,5.3-14.2c0.2-0.9,0.3-1.8,0.5-2.7c0-0.3,0.1-0.7,0.1-1c0.1-0.5,0.1-1,0.2-1.5l0.2-2.3c0-0.4,0-0.8,0-1.2v-0.7
			c0-0.2,0-0.4,0-0.6c0-0.4,0-0.8,0-1.2l-0.1-1.8l-0.2-1.9c-0.6-5.1-1.8-10-3.9-14.7c-2-4.7-4.8-9-8.1-12.8c-3.4-4-7.4-7.2-11.8-9.7
			l-1.9-1c-0.5-0.3-0.9-0.5-1.4-0.7l-1.7-0.8l-3.9-1.5c-0.2-0.1-0.4-0.2-0.6-0.2l-2-0.6c-0.8-0.2-1.6-0.5-2.6-0.7
			c-5-1.4-9.7-3.7-14.2-6.8c-4.5-3.2-8.2-7-11.2-11.3c-6.2-8.8-9.1-19.5-8.3-30c0.3-5,1.6-10.1,3.8-15.3c0.9-2.2,2.1-4.6,3.7-7
			c1.3-2.1,2.9-4.3,4.8-6.3c7.1-7.9,16.8-13.1,27.5-14.8c1.1-0.2,2.2-0.3,3.4-0.4l1.2-0.1c1.1-0.1,2.1-0.1,3.2-0.1
			c1.1,0,2,0.1,3.1,0.2l1.4,0.1c1.1,0.1,2.2,0.3,3.3,0.5c1,0.2,1.9,0.4,3,0.7l1.5,0.4c1.1,0.3,2.1,0.6,3.1,1
			c0.9,0.3,1.8,0.7,2.7,1.1l0.9,0.4c0.3,0.2,0.7,0.4,1,0.5c0.9,0.4,1.7,0.8,2.5,1.3l0.6,0.4c0.4,0.2,0.7,0.4,1.1,0.7l37.8,23.9
			c4.4,2.7,9,4.8,14,5.9c9.8,2.4,20.3,1.2,29.6-3.4l1.6-0.8c0.4-0.2,0.7-0.4,1.1-0.6c0.2-0.1,0.4-0.2,0.6-0.3s0.4-0.2,0.5-0.3
			c0.4-0.2,0.7-0.4,1.1-0.7l1.5-1c0.5-0.4,1.1-0.8,1.5-1.2l1.5-1.2l1.5-1.4c0.4-0.4,0.8-0.8,1.2-1.2l1.2-1.3c0.3-0.3,0.6-0.6,0.8-1
			c0.1-0.2,0.3-0.3,0.4-0.5l0.4-0.5c0.3-0.3,0.5-0.6,0.8-1l1.3-1.7c0.1-0.2,0.3-0.3,0.4-0.6l1.5-2.4c0.2-0.3,0.4-0.7,0.6-1.1
			l0.6-1.1c0.2-0.4,0.4-0.8,0.6-1.2c2.1-4.7,3.4-9.5,4-14.6c0-0.4,0.1-0.8,0.1-1.2l0.1-1.3c0-0.4,0-0.8,0-1.3l-0.1-2.3
			c0-0.5,0-1-0.1-1.4l-0.2-1.8l-0.2-1.9c-0.2-1.2-0.5-2.4-0.7-3.8c-1.2-5-3.3-9.6-6.1-13.9c-2.8-4.3-6.3-7.9-10.4-11.1
			c-4.1-3-8.6-5.4-13.5-6.9c-4.8-1.5-9.8-2.2-15-2h-0.2c-1.2,0.1-2.4,0.1-3.7,0.3l-96.4,13.6c-0.9,0.1-1.9,0.3-2.9,0.4l-1,0.1
			c-0.4,0.1-0.8,0.1-1.2,0.1c-0.2,0-0.5,0-0.7,0h-0.7c-0.4,0-0.8,0-1.2,0l-2.4-0.1c-0.2,0-0.4,0-0.6,0l-1.7-0.1
			c-0.4,0-0.9-0.1-1.3-0.1l-2-0.3l-3.9-0.8l-2.3-0.7c-0.2-0.1-0.4-0.1-0.6-0.2l-1.6-0.6c-0.4-0.1-0.8-0.3-1.2-0.4l-1.9-0.8
			c-0.6-0.2-1.1-0.5-1.7-0.8l-0.6-0.3c-0.4-0.2-0.7-0.4-1.1-0.6l-0.8-0.5c-0.9-0.5-1.7-1-2.5-1.6c-0.2-0.1-0.4-0.3-0.6-0.4
			c-0.3-0.2-0.7-0.4-1-0.7l-1.5-1.2c-2.4-2-4.2-3.8-5.7-5.6l-0.7-0.7c-0.1-0.2-0.3-0.3-0.4-0.5l-1.4-1.8l-1.3-1.9
			c-0.1-0.2-0.2-0.3-0.3-0.5l-0.5-0.9c-1.2-1.9-2.3-4.2-3.5-7l-0.7-1.9c-0.1-0.4-0.3-0.7-0.4-1.1c-0.1-0.2-0.1-0.5-0.2-0.7
			c-0.3-1-0.6-2-0.8-3l-0.2-0.7c-0.6-3.1-0.9-5.6-0.9-7.9c-0.1-0.9,0-1.9,0-2.8v-1.1c0-0.4,0.1-0.8,0.1-1.2l0.1-1.3
			c0-0.4,0.1-0.9,0.2-1.3l0.1-0.5c0.2-1.1,0.3-2.2,0.6-3.3c1.5-6,3.5-11.9,5.6-17.6c0.7-2,1.4-4.1,2.1-6.2l0.7-2.2
			c0.2-0.6-0.1-1.2-0.7-1.4l-1.5-0.5c-0.3-0.1-0.6-0.1-0.8,0.1c-0.3,0.1-0.5,0.4-0.6,0.6c-0.8,2.4-1.6,4.9-2.5,7.3
			c-2.2,6.2-4.5,12.6-6,19.1c-0.3,1.2-0.5,2.4-0.7,3.7l-0.1,0.5c-0.1,0.5-0.1,1-0.2,1.6l-0.1,1.3c0,0.5-0.1,0.9-0.1,1.4v1.1
			c0,1-0.1,2.1,0,3.1c0,2.4,0.4,5.2,1,8.6l0.2,0.7c0.3,1.1,0.5,2.2,0.9,3.4c0.1,0.2,0.1,0.4,0.2,0.7c0.1,0.5,0.3,0.9,0.4,1.4l0.7,2
			c1.3,3.1,2.5,5.6,3.9,7.6l0.5,0.9c0.1,0.2,0.3,0.4,0.4,0.6l1.4,2l1.5,1.9c0.1,0.2,0.3,0.4,0.5,0.6l0.7,0.8c1.6,1.9,3.5,3.9,6.2,6
			l1.6,1.3c0.4,0.3,0.8,0.6,1.2,0.9c0.2,0.1,0.4,0.3,0.6,0.4c0.9,0.7,1.9,1.2,2.8,1.8l0.8,0.5c0.4,0.2,0.8,0.5,1.3,0.7l0.6,0.3
			c0.6,0.3,1.3,0.7,1.9,0.9l1.9,0.9c0.4,0.2,0.9,0.3,1.4,0.5l1.6,0.6c0.2,0.1,0.5,0.1,0.7,0.2l2.4,0.7l2,0.5l4.3,0.7
			c0.5,0.1,1,0.1,1.4,0.1l1.7,0.1c0.3,0,0.5,0,0.8,0l2.4,0.1c0.5,0,0.9,0,1.4,0h0.7c0.2,0,0.4,0,0.7,0c0.5,0,1,0,1.5-0.1l0.9-0.1
			c1.1-0.1,2.2-0.2,3.1-0.4l92.4-13.3l3.8-0.5c1.1-0.1,2.1-0.2,3.2-0.3h0.2c4.7-0.2,9.3,0.4,13.7,1.8c4.5,1.4,8.6,3.5,12.4,6.3
			c3.8,2.8,6.9,6.2,9.5,10c2.5,3.9,4.5,8.1,5.6,12.7v0.2c0.2,1,0.5,2.1,0.6,3.2l0.4,3.5c0.1,0.4,0.1,0.8,0.1,1.2l0.1,2.2
			c0,0.3,0,0.7,0,1l-0.1,1.3c0,0.4,0,0.7-0.1,1.1c-0.4,4.7-1.6,9.1-3.7,13.4c-0.1,0.3-0.3,0.6-0.5,1l-0.6,1.1
			c-0.2,0.3-0.3,0.6-0.5,0.9l-1.4,2.2c-0.1,0.1-0.2,0.3-0.3,0.4l-1.2,1.7c-0.2,0.3-0.4,0.5-0.6,0.8c-0.1,0.2-0.3,0.3-0.4,0.5
			c-0.1,0.2-0.3,0.3-0.4,0.5c-0.2,0.3-0.4,0.5-0.7,0.8l-1.2,1.3c-0.3,0.3-0.7,0.7-1,1l-1.4,1.3l-1.4,1.1c-0.4,0.3-0.9,0.7-1.3,1
			l-1.5,1c-0.3,0.2-0.6,0.4-0.9,0.5c-0.2,0.1-0.4,0.2-0.5,0.3c-0.2,0.1-0.4,0.2-0.6,0.3c-0.3,0.2-0.6,0.4-0.9,0.5l-1.6,0.8
			c-8.5,4.3-18.2,5.4-27.1,3.1c-4.6-1.1-8.8-2.9-12.8-5.5l-37.8-23.9c-0.4-0.2-0.8-0.5-1.2-0.7l-0.6-0.3c-0.9-0.6-1.8-1-2.7-1.5
			l-2-1c-1-0.4-1.9-0.9-2.9-1.2c-1.1-0.4-2.2-0.8-3.3-1.1l-1.6-0.4c-1.1-0.3-2.2-0.6-3.2-0.7c-1.2-0.3-2.4-0.4-3.7-0.5l-1.5-0.1
			c-1.1-0.1-2.3-0.2-3.4-0.2c-1.2,0-2.4,0-3.5,0.1l-1.3,0.1c-1.2,0.1-2.5,0.2-3.8,0.4c-11.5,1.7-22,7.4-29.7,16
			c-2,2.2-3.8,4.6-5.2,6.9c-1.6,2.7-2.9,5.2-4,7.6c-2.3,5.6-3.7,11.2-4.1,16.5c-0.9,11.5,2.3,23,8.9,32.4c3.1,4.7,7.2,8.7,12.1,12.2
			c4.9,3.4,10,5.9,15.4,7.4l4.5,1.3c0.2,0,0.3,0.1,0.4,0.2l2,0.7l3.2,1.4c0.4,0.2,0.8,0.4,1.1,0.6l1.9,1c4,2.2,7.6,5.3,10.7,8.9
			c3.1,3.5,5.7,7.5,7.5,11.9c1.8,4.4,3,8.9,3.5,13.6l0.3,3.5c0,0.3,0,0.7,0,1c0,0.2,0,0.4,0,0.6v0.7c0,0.4,0,0.7,0,1l-0.2,2.2
			c0,0.4-0.1,0.8-0.1,1.3c-0.1,0.3-0.1,0.7-0.2,1c-0.1,0.8-0.2,1.6-0.4,2.4c-0.9,4.7-2.5,9-4.9,13.1c-2.2,4-5.2,7.6-8.7,11l-8.7,7.3
			l-2.8,2.1c-7.7,5.5-17.1,8.6-26.5,9c-4.9,0.2-9.5-0.3-14.1-1.4c-4.8-1.2-9.1-2.9-13.1-5.4c-0.4-0.2-0.7-0.4-1.1-0.6l-2.3-1.5
			c-0.3-0.2-0.5-0.4-0.8-0.6L21.6,218.7c-0.5-0.4-1.2-0.3-1.6,0.1l-1,1.2c-0.2,0.2-0.3,0.5-0.3,0.8c0,0.3,0.2,0.6,0.4,0.8
			L147.3,331.7z"/>
		<path class="st20" d="M84.9,270.5l66.3,57c0.2,0.2,0.4,0.3,0.5,0.4l2.3,1.5c0.3,0.2,0.7,0.4,1,0.6c3.8,2.2,8,4,12.6,5.1
			c3.7,0.9,7.6,1.4,11.6,1.4c0.7,0,1.3,0,2,0c9-0.4,18-3.4,25.5-8.7l1.4-1l7.3-6l2.6-2.3c3.4-3.1,6.3-6.7,8.4-10.4
			c2.2-3.9,3.8-8.1,4.7-12.5c0.2-0.8,0.3-1.6,0.4-2.3c0-0.3,0.1-0.6,0.1-0.9c0.1-0.5,0.1-0.9,0.1-1.4l0.1-2c0-0.4,0-0.7,0-1.1v-0.6
			c0-0.2,0-0.4,0-0.6c0-0.4,0-0.8,0-1.1l-0.1-1.6l-0.2-1.7c-0.5-4.5-1.6-8.9-3.4-13.1s-4.3-7.9-7.2-11.4c-3-3.4-6.5-6.4-10.3-8.5
			l-1.7-0.9c-0.4-0.2-0.8-0.5-1.2-0.6l-1.5-0.7l-3.4-1.3c-0.2-0.1-0.4-0.1-0.6-0.2l-4.4-1.3c-5.6-1.5-11-4.2-16-7.7
			c-5-3.5-9.1-7.8-12.5-12.7c-6.9-9.8-10.2-21.8-9.3-33.8c0.4-5.5,1.8-11.5,4.2-17.1c1-2.5,2.3-5.2,4.1-7.9c1.5-2.4,3.3-4.8,5.4-7.1
			c1.9-2.1,4.2-4.2,6.5-6.1c2.2-1.7,4.7-3.3,7.5-4.9c2.3-1.3,5-2.4,8.1-3.5c2.6-0.9,5.6-1.6,8.6-2.1c1.3-0.2,2.7-0.4,4.1-0.5l1-0.1
			c1.2-0.1,2.5-0.1,3.9-0.1c1.2,0,2.5,0.1,3.8,0.2l1.2,0.1c1.3,0.2,2.6,0.3,3.9,0.6c1.2,0.2,2.3,0.5,3.5,0.8l1.4,0.4
			c1.2,0.4,2.4,0.7,3.7,1.2c1.1,0.4,2.1,0.8,3.1,1.3l1.9,0.9c1,0.5,1.9,1,2.9,1.6l1.1,0.7c0.3,0.2,0.5,0.3,0.7,0.4l37.8,23.9
			l2.9,1.7l1.4,0.7l3,1.3l3.1,1l1.6,0.4c8.5,2,17.6,1,25.8-3l1.4-0.7c0.3-0.2,0.7-0.4,1-0.6c0.2-0.1,0.3-0.2,0.5-0.3
			s0.3-0.2,0.5-0.3c0.3-0.2,0.6-0.4,0.9-0.6l1.3-0.9c0.5-0.3,0.9-0.7,1.4-1l1.3-1l1.4-1.2c0.4-0.3,0.7-0.7,1-1l1.1-1.1
			c0.3-0.3,0.5-0.6,0.7-0.8c0.1-0.1,0.2-0.3,0.4-0.5c0.1-0.1,0.2-0.3,0.4-0.4c0.2-0.3,0.5-0.6,0.7-0.8l1.1-1.5
			c0.1-0.1,0.2-0.3,0.3-0.5l1.3-2.1c0.2-0.3,0.3-0.6,0.5-0.9l0.5-1c0.2-0.4,0.4-0.7,0.5-1c1.8-4.1,3-8.3,3.4-12.7c0-0.3,0-0.7,0.1-1
			l0.1-1.2c0-0.4,0-0.7,0-1.1l-0.1-2c0-0.4,0-0.9-0.1-1.2l-0.2-1.6l-0.2-1.6c-0.1-1-0.4-2-0.6-2.9l-0.1-0.3
			c-1.1-4.4-2.8-8.4-5.4-12.1c-2.4-3.7-5.5-6.9-9.1-9.6c-3.5-2.6-7.5-4.7-11.8-6c-4.2-1.3-8.6-1.9-13.1-1.7h-0.4
			c-0.9,0.1-1.9,0.1-2.9,0.3L198,115.3c-1,0.2-2.3,0.3-3.5,0.4l-0.7,0.1c-0.5,0.1-0.9,0.1-1.4,0.1c-0.3,0-0.5,0-0.7,0h-0.7
			c-0.5,0-1,0-1.4,0l-2.6-0.1c-0.2,0-0.4,0-0.7,0l-1.7-0.2c-0.5,0-1.1-0.1-1.6-0.1l-2.2-0.3l-4.4-0.9l-2.5-0.7
			c-0.2-0.1-0.5-0.1-0.7-0.2l-1.7-0.6c-0.5-0.2-1-0.4-1.4-0.5l-2.1-0.9c-0.7-0.3-1.3-0.6-1.9-0.9l-0.7-0.3c-0.4-0.2-0.9-0.4-1.3-0.7
			l-0.8-0.5c-1-0.6-2-1.2-3-1.9c-0.2-0.2-0.4-0.3-0.7-0.4c-0.4-0.3-0.8-0.5-1.1-0.8l-1.7-1.4c-2.6-2.2-4.7-4.2-6.4-6.2l-0.7-0.8
			c-0.2-0.2-0.3-0.4-0.4-0.6l-1.6-2l-1.5-2.1c-0.1-0.2-0.3-0.4-0.4-0.6l-0.6-1c-1.4-2.2-2.6-4.8-4-7.9l-0.8-2.1
			c-0.2-0.4-0.3-0.9-0.4-1.3c-0.1-0.3-0.2-0.5-0.2-0.8c-0.4-1.1-0.7-2.3-0.9-3.7l-0.2-0.7c-0.7-3.4-1-6.3-1.1-8.9
			c-0.1-1.1,0-2.2,0-3.4v-1c0-0.5,0.1-1,0.1-1.4l0.1-1.4c0-0.5,0.1-1,0.2-1.5c1.5-8.5,4.5-16.9,7.3-25c0.7-2,1.4-4,2-6
			c0.1-0.3,0.1-0.6-0.1-0.9c-0.1-0.3-0.4-0.5-0.6-0.6l-1.5-0.5c-0.6-0.2-1.2,0.1-1.4,0.7l-5,14.8c-1.8,5.4-3.7,11.1-4.6,16.8
			c-0.1,0.6-0.2,1.2-0.2,1.8l-0.1,1.4c-0.1,0.5-0.1,1.1-0.1,1.6v1c0,1.2-0.1,2.4,0,3.7c0.1,2.8,0.4,5.9,1.1,9.5l0.2,0.7
			c0.3,1.3,0.6,2.6,1,4c0.1,0.2,0.1,0.5,0.2,0.7c0.2,0.5,0.3,1,0.5,1.5l0.8,2.2c1.4,3.4,2.7,6.1,4.3,8.5l0.6,1
			c0.1,0.2,0.3,0.5,0.5,0.7l1.6,2.2l1.7,2.1c0.2,0.2,0.3,0.4,0.5,0.7l0.7,0.9c1.8,2.1,4.1,4.3,6.9,6.7l1.8,1.4
			c0.4,0.3,0.9,0.6,1.3,1l0.6,0.4c1.1,0.8,2.2,1.4,3.2,2.1l0.8,0.5c0.5,0.3,1,0.5,1.4,0.8l0.6,0.3c0.7,0.4,1.4,0.7,2.2,1l2.2,0.9
			c0.5,0.2,1.1,0.4,1.7,0.6l1.7,0.6c0.3,0.1,0.5,0.2,0.8,0.2l2.6,0.8l2.3,0.5l4.8,0.8c0.6,0.1,1.2,0.1,1.8,0.2l1.7,0.1
			c0.3,0,0.6,0,0.8,0l2.7,0.1c0.5,0,1.1,0,1.6,0l1.5-0.1c0.6,0,1.1,0,1.6-0.1l0.5-0.1c1.4-0.1,2.8-0.3,3.9-0.5l92.4-13.3l3.7-0.5
			c0.9-0.1,1.7-0.2,2.6-0.2h0.4c4.1-0.1,8,0.4,11.8,1.5c3.9,1.2,7.4,3,10.6,5.5s6,5.4,8.2,8.6c2.2,3.3,3.9,7,4.8,10.8l0.1,0.4
			c0.2,0.8,0.4,1.7,0.5,2.6l0.4,3.1c0,0.3,0.1,0.6,0.1,1l0.1,2c0,0.3,0,0.6,0,0.9c0,0.2,0,0.4,0,0.6v0.6c0,0.3,0,0.6,0,0.9
			c-0.4,4-1.4,7.8-3.1,11.5c-0.1,0.3-0.2,0.5-0.4,0.8c-0.1,0.2-0.2,0.3-0.2,0.4l-0.3,0.6c-0.1,0.3-0.3,0.5-0.4,0.7l-1.2,1.9
			c-0.1,0.1-0.2,0.2-0.2,0.3l-1.1,1.5c-0.2,0.2-0.4,0.4-0.5,0.7c-0.1,0.2-0.3,0.3-0.4,0.4c-0.1,0.2-0.3,0.3-0.4,0.5
			c-0.2,0.2-0.3,0.4-0.6,0.7l-1.1,1.1c-0.3,0.3-0.5,0.5-0.8,0.8l-1.3,1.2l-1.2,1c-0.4,0.3-0.7,0.6-1.2,0.9l-1.3,0.9
			c-0.2,0.2-0.5,0.3-0.7,0.5c-0.2,0.1-0.4,0.2-0.5,0.3c-0.2,0.1-0.4,0.2-0.5,0.3c-0.2,0.1-0.5,0.3-0.8,0.4l-1.3,0.7
			c-7.3,3.7-15.6,4.6-23.2,2.7l-2.8-0.8l-2.8-1l-2.6-1.2l-2.7-1.6l-37.2-24.1c-0.2-0.1-0.5-0.3-0.8-0.5l-1.1-0.7
			c-1-0.6-2.1-1.2-3.1-1.7l-2-1c-1.1-0.5-2.2-1-3.4-1.4c-1.3-0.5-2.6-0.9-4-1.3l-1.4-0.4c-1.2-0.3-2.5-0.6-3.9-0.9
			c-1.4-0.3-2.8-0.5-4.2-0.6l-1.3-0.1c-1.3-0.1-2.6-0.2-4.1-0.2c-1.4,0-2.7,0-4.2,0.1l-1,0.1c-1.4,0.1-2.9,0.3-4.5,0.5
			c-3.3,0.5-6.4,1.3-9.2,2.2c-3.3,1.1-6.2,2.4-8.7,3.8c-3,1.6-5.6,3.3-8,5.2c-2.6,2-5,4.3-7,6.5c-2.2,2.4-4.2,5.1-5.8,7.6
			c-1.8,2.9-3.2,5.8-4.4,8.5c-2.5,6.1-4.1,12.4-4.5,18.4c-1,12.8,2.5,25.7,10,36.2c3.5,5.2,8.1,9.7,13.4,13.6
			c5.4,3.8,11.2,6.6,17.1,8.2l4.3,1.2c0.1,0,0.3,0.1,0.4,0.1l1.8,0.7l2.8,1.2c0.3,0.1,0.7,0.3,1,0.5l1.6,0.9
			c3.4,1.9,6.6,4.6,9.3,7.7c2.7,3.1,5,6.6,6.6,10.3c1.6,3.8,2.6,7.8,3.1,12l0.2,3.1c0,0.3,0,0.6,0,0.9c0,0.2,0,0.4,0,0.6v0.7
			c0,0.3,0,0.6,0,0.8l-0.1,1.9c0,0.4,0,0.7-0.1,1.1c-0.1,0.3-0.1,0.7-0.1,1c-0.1,0.7-0.2,1.3-0.4,2c-0.8,4.1-2.2,7.9-4.3,11.5
			c-1.9,3.4-4.5,6.7-7.6,9.5l-8.4,7.1l-2.5,1.9c-6.8,4.8-15.1,7.6-23.4,8c-4.3,0.2-8.5-0.2-12.5-1.2c-4.2-1-8.1-2.6-11.7-4.8
			c-0.3-0.2-0.6-0.3-0.9-0.5l-2.2-1.4c-0.1-0.1-0.2-0.1-0.3-0.3l-128.3-110c-0.5-0.4-1.2-0.3-1.6,0.1l-1,1.2
			c-0.2,0.2-0.3,0.5-0.3,0.8c0,0.3,0.2,0.6,0.4,0.8L84.9,270.5z"/>
		<path class="st20" d="M88.5,266.1l66.1,56.8c0.1,0.1,0.3,0.2,0.4,0.3l1.9,1.3c0.3,0.2,0.6,0.4,0.9,0.5c3.3,1.9,7.1,3.4,11.1,4.5
			c3.2,0.8,6.7,1.2,10.1,1.2c0.6,0,1.2,0,1.7,0c8-0.3,15.9-3,22.4-7.6l1.2-0.9l7.1-5.8l2.4-2.1c3-2.7,5.5-5.9,7.3-9.1
			c1.9-3.3,3.2-7,4.1-10.7c0.2-0.7,0.3-1.3,0.3-2c0-0.3,0.1-0.6,0.1-0.9c0.1-0.4,0.1-0.8,0.1-1.2l0.1-1.8c0-0.3,0-0.6,0-0.9v-0.6
			c0-0.2,0-0.3,0-0.5c0-0.3,0-0.7,0-1l-0.1-1.4l-0.1-1.5c-0.4-4-1.4-7.7-2.9-11.4c-1.5-3.5-3.7-6.9-6.3-9.8c-2.6-3-5.7-5.5-8.9-7.4
			l-1.5-0.8c-0.4-0.2-0.7-0.4-1-0.5l-1.1-0.4l-2.9-1.2c-0.2-0.1-0.4-0.1-0.5-0.2l-4.2-1.2c-6.3-1.7-12.2-4.7-17.7-8.5
			c-5.5-4-10.1-8.7-13.9-14c-7.7-11-11.4-24.2-10.3-37.4c0.5-7.7,2.7-14.5,4.6-18.9c1.1-2.8,2.6-5.7,4.6-8.8c1.7-2.7,3.8-5.4,6-7.9
			c2.1-2.3,4.6-4.7,7.3-6.8c2.4-1.9,5.2-3.8,8.3-5.4c2.6-1.4,5.6-2.7,9-4c2.4-0.8,5-1.5,7.8-2l5.3-0.7l1.9-0.2
			c1.4-0.1,2.9-0.1,4.5-0.1c1.5,0,2.9,0.1,4.4,0.2l1,0.1c1.5,0.2,3,0.4,4.6,0.7c1.3,0.2,2.7,0.6,4.1,0.9l1.1,0.3
			c1.4,0.4,2.8,0.9,4.3,1.4c1.2,0.4,2.4,1,3.7,1.5l1.8,0.9c1.1,0.6,2.2,1.1,3.3,1.8l1.3,0.8c0.3,0.2,0.6,0.3,0.7,0.5l37.8,23.9
			l2.5,1.5l1.2,0.6l2.6,1.1l2.6,0.9l1.4,0.3c2.4,0.6,4.9,0.9,7.3,0.9c5,0,9.9-1.2,14.6-3.4l1.2-0.6c0.3-0.1,0.6-0.3,0.9-0.5
			c0.1-0.1,0.3-0.2,0.4-0.3s0.3-0.2,0.4-0.2c0.3-0.2,0.6-0.3,0.8-0.5l1.1-0.8c0.4-0.3,0.8-0.6,1.2-0.9l1.1-0.9l1.2-1.1
			c0.3-0.3,0.6-0.6,0.9-0.9l0.9-0.9c0.2-0.2,0.4-0.5,0.6-0.7c0.1-0.1,0.2-0.2,0.3-0.4c0.1-0.1,0.2-0.3,0.3-0.4
			c0.2-0.2,0.4-0.5,0.6-0.7l0.9-1.3c0.1-0.1,0.2-0.3,0.3-0.4l1.1-1.7c0.1-0.2,0.3-0.5,0.4-0.7l0.5-0.9c0.2-0.3,0.3-0.6,0.4-0.9
			c1.5-3.4,2.5-7,2.9-10.7c0-0.3,0-0.6,0-0.9v-0.5c0-0.2,0-0.3,0-0.5c0-0.3,0-0.6,0-0.9l0.1-1.8c0-0.4,0-0.8-0.1-1.1l-0.1-1.4
			l-0.2-1.4c-0.1-0.8-0.3-1.5-0.4-2.3l-0.1-0.5c-0.9-3.7-2.4-7.1-4.6-10.2c-2.1-3.1-4.7-5.9-7.7-8.2c-3-2.2-6.4-4-10-5.2
			c-3.5-1.1-7.3-1.6-11.2-1.5h-0.5c-0.8,0.1-1.5,0.1-2.3,0.2l-90.2,13c-1.6,0.2-2.8,0.3-4,0.5c-0.7,0.1-1.3,0.2-2,0.3l-4.4,0.5
			c-0.5,0.1-1.1,0.1-1.6,0.1l-1.6,0.1c-0.5,0-1.1,0-1.6,0l-2.9-0.1c-0.3,0-0.5,0-0.8,0l-1.8-0.2c-0.6-0.1-1.3-0.1-1.9-0.2l-2.5-0.4
			l-4.9-1l-2.8-0.8c-0.3-0.1-0.5-0.2-0.8-0.2l-1.8-0.6c-0.6-0.2-1.2-0.4-1.7-0.6l-2.3-1c-0.7-0.3-1.5-0.7-2.2-1l-0.7-0.4
			c-0.5-0.3-1-0.5-1.5-0.8l-0.7-0.4c-1.1-0.7-2.3-1.4-3.4-2.2l-0.7-0.5c-0.4-0.3-0.9-0.6-1.3-0.9l-1.9-1.5c-2.8-2.4-5.2-4.7-7.1-6.9
			l-0.8-0.9c-0.2-0.2-0.3-0.4-0.5-0.6l-1.8-2.2l-1.6-2.4c-0.2-0.2-0.3-0.4-0.4-0.7l-0.7-1.1c-1.5-2.4-3-5.4-4.5-8.8l-0.9-2.4
			c-0.2-0.5-0.3-1-0.5-1.5c-0.1-0.3-0.2-0.5-0.2-0.8c-0.4-1.3-0.8-2.8-1.1-4.2l-0.1-0.6c-0.7-3.8-1.1-6.9-1.2-9.9
			c-0.1-1.3,0-2.6,0-4v-1c0-0.5,0.1-1.1,0.1-1.6l0.1-1.5c0.1-0.6,0.1-1.1,0.2-1.7c1.3-8.3,4.2-16.5,7-24.4c0.9-2.5,1.7-5,2.6-7.5
			c0.1-0.3,0.1-0.6-0.1-0.9c-0.1-0.3-0.4-0.5-0.6-0.6l-1.5-0.5c-0.3-0.1-0.6-0.1-0.8,0.1c-0.2,0.2-0.5,0.4-0.6,0.6
			c-0.7,2.1-1.4,4.3-2.2,6.4c-1.3,4-2.7,8-4.1,12.1c-1.6,5.3-2.7,9.8-3.5,14.2c-0.1,0.6-0.2,1.3-0.2,2l-0.1,1.5
			c-0.1,0.6-0.1,1.2-0.1,1.8v1c0,1.4-0.1,2.8,0,4.3c0.1,3.1,0.5,6.5,1.3,10.5l0.1,0.6c0.3,1.5,0.7,3,1.2,4.6l0.2,0.8
			c0.2,0.6,0.4,1.2,0.6,1.7L132,86c1.5,3.7,3,6.7,4.8,9.3l0.7,1.1c0.2,0.2,0.3,0.5,0.5,0.7l1.7,2.5l1.8,2.3c0.2,0.2,0.4,0.5,0.6,0.7
			l0.8,0.9c2,2.4,4.5,4.8,7.6,7.3l2,1.6c0.5,0.4,1,0.7,1.5,1.1l0.7,0.5c1.2,0.9,2.5,1.6,3.8,2.4l0.7,0.4c0.5,0.3,1.1,0.6,1.6,0.9
			l0.7,0.3c0.8,0.4,1.6,0.8,2.4,1.1l2.4,1c0.6,0.2,1.3,0.5,1.9,0.7l1.8,0.6c0.3,0.1,0.6,0.2,0.9,0.3l2.9,0.8l3.9,0.9l4,0.6
			c0.7,0.1,1.4,0.1,2.1,0.2h0.3c-1.2,0.5-2.3,1-3.5,1.5l-1.9-0.3l-2.6-0.5c-0.9-0.2-1.8-0.4-2.6-0.6l-3-0.9
			c-0.3-0.1-0.6-0.2-0.9-0.3l-1.8-0.7c-0.7-0.2-1.3-0.5-2-0.7l-2.5-1.1c-0.8-0.3-1.6-0.8-2.4-1.2l-0.7-0.4c-0.6-0.3-1.1-0.6-1.7-0.9
			l-0.6-0.4c-1.3-0.8-2.7-1.6-4-2.5l-0.7-0.5c-0.5-0.3-1-0.7-1.5-1.1l-2.1-1.7c-3.1-2.6-5.7-5.1-7.8-7.5l-0.9-1
			c-0.2-0.2-0.4-0.5-0.6-0.7l-1.9-2.4l-1.8-2.5c-0.2-0.3-0.4-0.5-0.5-0.8l-0.7-1.2c-1.7-2.7-3.3-5.9-4.9-9.6l-1-2.6
			c-0.2-0.6-0.4-1.1-0.6-1.7l-0.3-0.8c-0.5-1.5-0.9-3.2-1.2-4.8l-0.1-0.4c-0.8-4.1-1.2-7.6-1.3-10.8c-0.1-1.5,0-3,0-4.5v-1
			c0-0.6,0.1-1.2,0.1-1.8l0.1-1.5c0.1-0.6,0.1-1.3,0.2-2c0.6-4.1,2.8-13,9.5-32l0.3-0.9c0.1-0.3,0.1-0.6-0.1-0.8
			c-0.1-0.3-0.4-0.5-0.6-0.6l-1.5-0.5c-0.3-0.1-0.6-0.1-0.8,0.1c-0.3,0.1-0.5,0.4-0.6,0.6c-2,6.1-7.8,23.4-8.5,26.1l0,0
			c-0.6,2.2-1,4.6-1.5,7.6c-0.1,0.7-0.2,1.4-0.3,2.2l-0.1,1.5c-0.1,0.7-0.1,1.4-0.2,2.1v0.9c0,1.6-0.1,3.2,0,4.8
			c0.1,3.4,0.5,7.2,1.4,11.6l0.1,0.4c0.4,1.7,0.8,3.4,1.3,5.2l0.3,0.8c0.2,0.6,0.4,1.3,0.6,1.9l1,2.7c1.6,4,3.3,7.3,5.2,10.2
			l0.7,1.2c0.2,0.3,0.4,0.6,0.6,0.9l1.8,2.6l2,2.5c0.2,0.3,0.4,0.5,0.6,0.8l0.9,1c2.2,2.6,5,5.3,8.2,8l2.2,1.7
			c0.5,0.4,1.1,0.8,1.6,1.2l0.7,0.5c1.4,1,2.8,1.8,4.3,2.7l0.6,0.4c0.6,0.3,1.2,0.7,1.8,1l0.7,0.4c0.8,0.4,1.7,0.9,2.6,1.3l2.6,1.1
			c0.7,0.3,1.5,0.6,2.2,0.8l1.8,0.7c0.3,0.1,0.7,0.2,1,0.3l3.1,0.9c0.9,0.2,1.8,0.4,2.7,0.6c-0.8,0.5-1.6,0.9-2.3,1.4
			c-0.3-0.1-0.6-0.1-0.9-0.2l-3.2-0.9c-0.4-0.1-0.7-0.2-1-0.3l-1.8-0.7c-0.8-0.3-1.6-0.6-2.3-0.9l-2.7-1.2c-0.9-0.4-1.8-0.8-2.6-1.3
			l-0.7-0.3c-0.6-0.3-1.3-0.7-1.9-1l-0.5-0.3c-1.5-0.9-3-1.8-4.5-2.8l-0.8-0.5c-0.5-0.4-1.1-0.7-1.6-1.2l-2.3-1.8
			c-3.3-2.8-6.2-5.5-8.4-8.2l-1-1.1c-0.2-0.3-0.4-0.5-0.6-0.8l-2.1-2.6l-1.9-2.8c-0.2-0.3-0.4-0.6-0.5-0.8l-0.8-1.3
			c-1.9-3-3.7-6.5-5.3-10.5l-1-2.8c-0.2-0.6-0.4-1.3-0.6-1.9l-0.3-0.9c-0.6-1.8-1-3.7-1.4-5.5l-0.1-0.2c-0.9-4.4-1.3-8.2-1.4-11.9
			c-0.1-1.7,0-3.4,0-5.1v-0.9c0-0.7,0.1-1.4,0.2-2.1l0.1-1.5c0.1-0.7,0.1-1.5,0.3-2.2c1.3-8.7,6.8-24.7,9.9-33.5l0.2-0.6
			c0.1-0.3,0.1-0.6-0.1-0.8c-0.1-0.3-0.4-0.5-0.6-0.6l-1.5-0.5c-0.3-0.1-0.6-0.1-0.8,0.1c-0.3,0.1-0.5,0.4-0.6,0.6
			c-0.8,2.4-1.7,4.9-2.5,7.4c-3.1,8.8-6.3,17.9-7.7,27.4c-0.1,0.8-0.2,1.6-0.3,2.4l-0.1,1.6c-0.1,0.7-0.1,1.5-0.2,2.3v0.8
			c-0.1,1.8-0.1,3.7,0,5.5c0.1,3.8,0.6,7.9,1.5,12.6v0.2c0.4,1.9,0.9,4,1.5,5.9l0.3,0.9c0.2,0.7,0.4,1.4,0.7,2.1l1.1,2.9
			c1.7,4.3,3.5,7.9,5.6,11.2l0.8,1.3c0.2,0.3,0.4,0.6,0.6,1l2,2.9l2.2,2.8c0.2,0.3,0.4,0.6,0.7,0.8l1,1.1c2.4,2.8,5.4,5.7,8.9,8.6
			l2.4,1.9c0.6,0.5,1.2,0.9,1.8,1.3l0.7,0.5c1.5,1.1,3.2,2.1,4.9,3l0.4,0.3c0.7,0.4,1.3,0.7,2,1.1l0.7,0.4c0.8,0.4,1.8,0.9,2.8,1.4
			l2.8,1.2c0.8,0.3,1.7,0.6,2.6,1l1.8,0.6c0.4,0.1,0.7,0.2,1.1,0.3l1.1,0.3c-0.6,0.4-1.2,0.9-1.7,1.3c-3.3,2.6-6.5,5.6-9.1,8.5
			c-2.8,3.2-5.4,6.6-7.6,10c-2.3,3.8-4.3,7.5-5.7,11.1c-0.3,0.7-0.6,1.4-0.8,2l-0.3,0.8c-0.3,0.9-0.8,2.1-0.9,2.5l-0.9,2.8
			c-0.3,0.9-0.5,1.8-0.7,2.7l-0.1,0.3c-1,4.2-1.7,8.3-1.9,12.4c-0.3,4.2-0.2,8.4,0.2,12.6c0.4,4.1,1.2,8.2,2.3,12.3
			c2.2,8,5.8,15.5,10.5,22.5c4.7,6.8,10.5,12.8,17.5,17.7c6.9,4.9,14.6,8.6,22.4,10.7l2.1,0.6c0.3,0.1,0.6,0.2,1,0.3l0.8,0.2
			c0.3,0.1,0.6,0.2,0.9,0.3l0.7,0.3c0.3,0.1,0.6,0.3,0.9,0.4c0.2,0.1,0.3,0.1,0.4,0.2l0.2,0.1c0.3,0.2,0.5,0.3,0.8,0.4
			c1.8,1,3.5,2.4,5.2,4.3c1.5,1.7,2.7,3.8,3.8,5.8c0.9,2.2,1.5,4.6,1.8,7l0.1,0.8c0,0.3,0,0.6,0.1,1c0,0.1,0,0.2,0,0.4s0,0.3,0,0.4
			c0,0.2,0,0.3,0,0.5c0,0.1,0,0.3,0,0.3c0,0.3-0.1,0.6-0.1,0.9v0.3c0,0.2,0,0.3-0.1,0.5c0,0.3-0.1,0.5-0.1,0.8c0,0.3-0.1,0.6-0.2,1
			c-0.5,2.2-1.2,4.4-2.3,6.3c-1.1,1.9-2.5,3.7-4.4,5.4c-0.3,0.2-0.5,0.4-0.8,0.7l-6.9,5.7c-0.3,0.2-0.5,0.4-0.8,0.6l-0.8,0.6
			c-4.2,2.9-9.1,4.7-14.3,4.9c-5.2,0.2-10.2-1-14.7-3.7c-0.2-0.1-0.3-0.2-0.5-0.3l-0.9-0.6l0,0c0,0,0,0-0.1-0.1l-127-109
			c-0.5-0.4-1.2-0.3-1.6,0.1l-1,1.2c-0.2,0.2-0.3,0.5-0.3,0.8s0.2,0.6,0.4,0.8L143.2,298l18.7,16l0,0l0,0c0,0,0.1,0,0.1,0.1l0,0l0,0
			c0,0,0.1,0,0.1,0.1l0,0l0,0l1,0.6c0.2,0.1,0.5,0.3,0.6,0.4c4.7,2.7,9.9,4.2,15.4,4.2c0.4,0,0.9,0,1.3,0c5.9-0.2,11.6-2.1,16.3-5.6
			l0.9-0.7c0.3-0.2,0.5-0.4,0.8-0.7l5.9-4.9l1.1-1c0.2-0.2,0.5-0.4,0.8-0.7c2.1-1.9,3.9-4.1,5.1-6.4c1.3-2.3,2.2-4.8,2.7-7.3
			c0.1-0.5,0.2-0.9,0.2-1.3c0-0.2,0.1-0.4,0.1-0.6c0.1-0.3,0.1-0.6,0.1-0.9v-0.2c0-0.3,0-0.6,0.1-1c0-0.2,0-0.4,0-0.5V287
			c0-0.1,0-0.2,0-0.3c0-0.3,0-0.5,0-0.7c0-0.3,0-0.6-0.1-0.9l-0.1-1.1c-0.3-2.7-1-5.5-2.1-8c-1.1-2.4-2.5-4.8-4.4-6.8
			c-1.9-2.1-3.9-3.8-6.2-5.1c-0.3-0.1-0.5-0.3-0.8-0.4l-0.2-0.1c-0.3-0.2-0.5-0.3-0.8-0.4s-0.6-0.2-0.8-0.4l-1-0.4
			c-0.3-0.1-0.6-0.2-1-0.4c-0.1-0.1-0.3-0.1-0.4-0.2l-0.5-0.1c-0.3-0.1-0.6-0.2-0.9-0.3l-0.2-0.1l-0.2-0.1l-1.8-0.5
			c-7.4-2-14.7-5.6-21.3-10.2c-6.6-4.8-12.2-10.3-16.6-16.8c-4.6-6.6-7.9-13.8-10-21.3c-1.1-3.9-1.8-7.8-2.2-11.7
			c-0.4-4-0.4-7.9-0.2-11.9c0.2-3.8,0.9-7.7,1.8-11.7l0.1-0.4c0.2-0.8,0.4-1.6,0.7-2.4l0.8-2.7c0.1-0.5,0.5-1.5,0.8-2.4l0.3-0.9
			c0.2-0.6,0.4-1.2,0.7-1.9c1.4-3.4,3.2-7,5.5-10.5c2-3.2,4.5-6.4,7.2-9.4c2.5-2.8,5.5-5.6,8.7-8.1c1.4-1.1,3-2.2,4.7-3.3
			c0.6-0.4,1.2-0.8,1.8-1.1l0,0c1.1-0.7,2.2-1.3,3.3-1.9c0.8-0.4,1.6-0.8,2.4-1.2l0,0c0.9-0.4,1.8-0.9,2.7-1.3
			c1.8-0.8,3.7-1.5,5.7-2.2c2.9-1,6.2-1.8,9.7-2.5l5.7-0.8l12.1-1.7l74.5-10.7l3.5-0.5c0.7-0.1,1.3-0.1,2-0.2h0.5
			c3.3-0.1,6.7,0.3,9.8,1.3c3.2,1,6.2,2.5,8.9,4.6c2.6,2,5,4.5,6.9,7.3c1.8,2.7,3.1,5.9,4,9l0.1,0.5c0.1,0.7,0.3,1.3,0.4,2l0.3,2.6
			c0,0.3,0,0.5,0,0.8l0.1,1.7c0,0.2,0,0.5,0,0.7c0,0.2,0,0.4,0,0.5c0,0.2,0,0.4,0,0.6c0,0.2,0,0.5,0,0.7c-0.3,3.2-1.2,6.5-2.6,9.5
			c-0.1,0.2-0.2,0.4-0.3,0.6c-0.1,0.1-0.2,0.3-0.2,0.4c-0.1,0.2-0.2,0.3-0.3,0.5c-0.1,0.2-0.2,0.4-0.3,0.5l-1,1.6
			c-0.1,0.1-0.1,0.2-0.2,0.3l-0.9,1.3c-0.1,0.2-0.3,0.4-0.4,0.5s-0.2,0.3-0.3,0.4c-0.1,0.1-0.2,0.3-0.3,0.4
			c-0.1,0.2-0.3,0.3-0.5,0.5l-0.9,1c-0.2,0.2-0.4,0.4-0.7,0.6l-1.1,1l-1.1,0.8c-0.3,0.2-0.6,0.5-0.9,0.7l-1.1,0.8
			c-0.2,0.1-0.4,0.2-0.6,0.4c-0.2,0.1-0.3,0.2-0.4,0.3c-0.2,0.1-0.3,0.2-0.5,0.3c-0.2,0.1-0.4,0.2-0.6,0.3l-1.2,0.6
			c-0.3,0.2-0.6,0.3-0.9,0.4l-2.7,1.1c-0.3,0.1-0.6,0.2-1,0.3l-1.3,0.4c-0.2,0.1-0.4,0.1-0.6,0.1c-0.2,0-0.4,0.1-0.5,0.1
			c-0.2,0-0.4,0.1-0.5,0.1c-0.2,0-0.4,0.1-0.7,0.1l-1.3,0.2c-3.1,0.4-6.4,0.2-9.8-0.6c-1.6-0.3-3.2-0.9-4.8-1.5l-2.2-1l-2.3-1.3
			l-37.8-23.9c-0.2-0.1-0.5-0.3-0.8-0.5l-1.3-0.8c-1.2-0.7-2.4-1.3-3.7-1.9l-1.9-0.9c-1.3-0.6-2.6-1.2-4-1.6c-1.5-0.6-3-1.1-4.6-1.5
			l-1.1-0.3c-0.9-0.2-1.8-0.5-2.7-0.7l5-0.7c1.4,0.4,2.8,0.9,4.3,1.4c1.4,0.5,2.8,1.1,4.2,1.7l1.7,0.8c1.3,0.6,2.6,1.3,3.9,2
			l1.3,0.8c0.3,0.2,0.7,0.4,0.9,0.5l37.8,23.9l0.2,0.1l0.2,0.1l1.8,1.1c0.3,0.2,0.7,0.3,1,0.5l1.1,0.5c1.4,0.5,2.8,1.1,4.4,1.4
			c2,0.5,4.1,0.7,6.1,0.7c1,0,2-0.1,3-0.2c0.4-0.1,0.7-0.1,1-0.1s0.5-0.1,0.8-0.1c0.1,0,0.2-0.1,0.4-0.1c0.1,0,0.2,0,0.4-0.1
			c0.3,0,0.5-0.1,0.8-0.2c0.3-0.1,0.7-0.2,1-0.3c0.4-0.1,0.7-0.2,1.2-0.4c0.3-0.1,0.7-0.2,1.1-0.4c0.3-0.2,0.7-0.3,1-0.4l0.2-0.1
			c0.3-0.1,0.7-0.3,1-0.4c0.3-0.2,0.6-0.3,0.9-0.5c0.3-0.1,0.5-0.3,0.7-0.4c0.1-0.1,0.2-0.1,0.4-0.2c0.1-0.1,0.2-0.1,0.3-0.2
			c0.2-0.1,0.5-0.3,0.7-0.4c0.3-0.2,0.6-0.4,0.9-0.6c0.3-0.2,0.7-0.5,1-0.8c0.3-0.2,0.6-0.5,0.9-0.7l1-0.9c0.3-0.2,0.5-0.5,0.7-0.7
			c0.2-0.3,0.5-0.5,0.7-0.7c0.2-0.2,0.4-0.4,0.6-0.6c0.1-0.1,0.1-0.2,0.3-0.3c0.1-0.1,0.2-0.2,0.3-0.3c0.2-0.2,0.3-0.4,0.5-0.6
			c0.2-0.3,0.4-0.6,0.6-0.9l0.1-0.1c0.1-0.1,0.2-0.2,0.3-0.4l0.3-0.5c0.2-0.3,0.4-0.6,0.6-1c0.1-0.2,0.2-0.4,0.3-0.6l0.2-0.5
			c0-0.1,0.1-0.2,0.2-0.3c0.1-0.3,0.3-0.5,0.4-0.7c1.3-2.8,2.1-5.8,2.3-8.8c0-0.2,0-0.5,0-0.7c0-0.1,0-0.3,0-0.5c0-0.1,0-0.3,0-0.4
			c0-0.2,0-0.5,0-0.8c0-0.4,0-0.7,0-1.1V139c0-0.3,0-0.7-0.1-0.9l-0.3-2.3c-0.1-0.6-0.2-1.2-0.3-1.8l-0.1-0.5c-0.8-3-2-5.9-3.8-8.5
			c-1.7-2.6-3.9-4.9-6.4-6.8c-2.5-1.8-5.3-3.3-8.3-4.3c-2.9-0.9-6-1.3-9.2-1.2h-0.5c-0.6,0-1.2,0.1-1.7,0.2l-65.1,9.3l-4.2,0.6
			l-20.9,3c-1,0.1-2.4,0.2-3.9,0.5c-0.5,0.1-0.9,0.2-1.4,0.2l-0.4,0.1l0,0c-3.3,0.6-6.5,1.4-9.4,2.4l0,0c-3.2,1.1-6.4,2.4-9.1,3.9
			l0,0l-0.4,0.2c-0.3,0.1-0.6,0.3-0.9,0.4c-0.2,0.1-0.5,0.3-0.7,0.4l-0.4,0.2c-3.1,1.8-6,3.7-8.5,5.7c-3.1,2.4-6,5.1-8.4,7.9
			c-2.6,2.9-5,6.1-7,9.2c-2.1,3.4-4,6.9-5.3,10.1c-0.3,0.6-0.5,1.2-0.7,1.8l-0.3,0.8c-0.3,0.9-0.7,1.9-0.8,2.4l-0.8,2.6
			c-0.2,0.8-0.4,1.6-0.6,2.4l-0.1,0.4c-0.9,3.9-1.6,7.7-1.8,11.4c-0.3,3.9-0.2,7.7,0.1,11.6c0.4,3.8,1.1,7.5,2.1,11.4
			c2,7.3,5.3,14.3,9.7,20.7c4.4,6.2,9.7,11.8,16.1,16.3c6.4,4.6,13.4,7.9,20.7,9.9l3.9,1.1c0.1,0,0.1,0.1,0.2,0.1l1.3,0.5l0.9,0.4
			c0.3,0.2,0.7,0.3,1.1,0.5c0.2,0.1,0.4,0.2,0.6,0.3l0.2,0.1c0.3,0.2,0.7,0.4,1,0.5c2.3,1.3,4.6,3.1,6.6,5.5
			c1.9,2.2,3.4,4.7,4.7,7.3c1.1,2.7,1.9,5.6,2.2,8.6l0.2,2.2c0,0.2,0,0.4,0,0.5c0,0.2,0,0.3,0,0.5v0.5c0,0.2,0,0.4,0,0.5
			c0,0.4-0.1,0.8-0.1,1.1v0.3c0,0.2,0,0.5-0.1,0.7c0,0.3-0.1,0.6-0.1,0.9c-0.1,0.4-0.1,0.8-0.2,1.3c-0.6,2.8-1.6,5.6-2.9,8
			c-1.3,2.4-3.1,4.7-5.5,6.8l-7.9,6.6l-1.8,1.4c-5.1,3.5-11.1,5.7-17.3,5.9c-6.2,0.3-12.5-1.3-17.8-4.5c-0.2-0.1-0.4-0.2-0.6-0.4
			l-1.1-0.7c-0.1-0.1-0.2-0.2-0.3-0.2L32.9,205.7c-0.5-0.4-1.2-0.3-1.6,0.1l-1,1.2c-0.2,0.2-0.3,0.5-0.3,0.8c0,0.3,0.2,0.6,0.4,0.8
			l62,53.1l47.2,40.6l18.9,16.1c0.1,0.1,0.2,0.2,0.4,0.3l1.4,0.9c0.3,0.2,0.5,0.3,0.8,0.5c5.5,3.2,12,5,18.4,5c0.5,0,1,0,1.5,0
			c7-0.3,13.7-2.5,19.4-6.6l8-6.5l2.1-1.9c2.5-2.3,4.7-5,6.2-7.7c1.6-2.8,2.7-5.9,3.3-9c0.2-0.6,0.2-1.1,0.3-1.6
			c0-0.3,0.1-0.5,0.1-0.8c0.1-0.3,0.1-0.7,0.1-1l0.1-1.5c0-0.2,0-0.5,0-0.7v-0.5c0-0.1,0-0.3,0-0.4c0-0.3,0-0.6,0-0.8l-0.1-1.2
			l-0.1-1.3c-0.4-3.3-1.2-6.6-2.5-9.7c-1.3-3-3.1-5.8-5.3-8.3c-2.2-2.5-4.8-4.7-7.5-6.2l-1.3-0.7c-0.3-0.2-0.6-0.3-0.9-0.4l-3.7-1.5
			c-0.2-0.1-0.3-0.1-0.5-0.2l-2-0.6c0,0-0.2,0-0.2-0.1l-1.6-0.5c-6.9-1.9-13.5-5.1-19.5-9.3c-6-4.4-11.2-9.5-15.2-15.4
			c-4.3-6.1-7.3-12.7-9.2-19.6c-1-3.5-1.6-7.2-2-10.6c-0.3-3.7-0.4-7.3-0.1-11c0.2-3.4,0.8-7.1,1.7-10.7l0.1-0.3
			c0.2-0.7,0.4-1.5,0.6-2.2l0.8-2.5c0.2-0.5,0.5-1.4,0.8-2.2l0.3-0.8c0.2-0.6,0.4-1.1,0.7-1.7c1.3-3.1,2.9-6.3,5-9.6
			c1.8-2.9,4.1-5.9,6.6-8.7c2.3-2.6,5.1-5.1,8-7.4c2.6-2.1,5.8-4.1,9.1-5.9c0.1-0.1,0.3-0.2,0.5-0.2l0.3-0.2l0,0l0,0
			c0.9-0.5,1.7-0.9,2.6-1.3c2-0.9,4.3-1.8,6.5-2.5c2.7-0.9,5.6-1.7,8.7-2.2l5.5-0.8l11.6-1.6l13.3-1.9l3.7-0.5l58.2-8.3l3.4-0.5
			c0.5-0.1,1-0.1,1.5-0.1h0.5c2.7-0.1,5.4,0.3,7.9,1c2.5,0.8,5,2,7.2,3.7c2.1,1.6,4.1,3.7,5.5,5.9c1.4,2.2,2.5,4.7,3.2,7.3l0.1,0.5
			c0.1,0.5,0.2,1,0.3,1.5l0.1,1c0,0.4,0.1,0.8,0.1,1.2c0,0.2,0,0.4,0,0.6v0.3c0,0.4,0,0.7,0,1l-0.1,2c-0.2,2.6-0.9,5.2-2,7.7
			c0,0.1-0.1,0.3-0.2,0.4s-0.1,0.2-0.2,0.3c-0.1,0.2-0.2,0.3-0.2,0.5c-0.1,0.1-0.1,0.3-0.2,0.4c-0.2,0.3-0.4,0.6-0.6,0.9l-0.5,0.8
			c-0.2,0.3-0.4,0.6-0.6,0.9c-0.1,0.1-0.2,0.3-0.3,0.4c-0.1,0.1-0.2,0.2-0.3,0.3c-0.1,0.1-0.2,0.2-0.3,0.4c-0.1,0.1-0.2,0.2-0.3,0.4
			c-0.3,0.3-0.5,0.5-0.8,0.8c-0.1,0.2-0.3,0.3-0.5,0.5l-0.9,0.8c-0.3,0.2-0.6,0.4-0.9,0.7c-0.2,0.2-0.4,0.4-0.7,0.5
			c-0.3,0.2-0.6,0.4-0.9,0.6c-0.1,0.1-0.3,0.2-0.4,0.3c-0.1,0.1-0.3,0.2-0.4,0.2c-0.1,0.1-0.3,0.2-0.4,0.3c-0.1,0.1-0.3,0.2-0.5,0.3
			c-0.3,0.2-0.7,0.3-1,0.5c-0.2,0.1-0.4,0.2-0.7,0.3l-0.2,0.1c-0.3,0.1-0.7,0.3-0.9,0.4c-0.3,0.1-0.7,0.2-1,0.4c0,0-0.1,0.1-0.2,0.1
			c-0.2,0.1-0.5,0.2-0.8,0.2c-0.3,0.1-0.7,0.2-1.1,0.3c-0.1,0-0.3,0.1-0.4,0.1c-0.2,0-0.3,0.1-0.4,0.1c-0.2,0-0.3,0.1-0.5,0.1
			c-0.2,0-0.3,0.1-0.5,0.1c-0.4,0-0.7,0.1-1,0.1c-2.4,0.3-5.1,0.2-7.8-0.5c-1.2-0.3-2.5-0.7-3.9-1.2l-0.9-0.4
			c-0.3-0.2-0.7-0.3-0.9-0.4l-39.7-25c-0.2-0.1-0.6-0.4-1.1-0.7l-1.2-0.7c-1.3-0.8-2.7-1.5-4.1-2.2l-1.8-0.9c-0.6-0.3-1.3-0.6-2-0.9
			l3.5-0.5l0.9,0.5c1.4,0.7,2.9,1.5,4.4,2.3l1.3,0.8c0.4,0.2,0.8,0.5,1,0.6l37.8,23.9l0.2,0.1c0,0,0.1,0.1,0.2,0.1l1.5,0.9
			c0.3,0.1,0.5,0.2,0.8,0.4l0.6,0.3c0,0,0.1,0,0.1,0.1l0.2,0.1c1.1,0.4,2.2,0.9,3.4,1.1c1.6,0.4,3.2,0.6,4.8,0.6
			c0.8,0,1.6-0.1,2.4-0.2c0.3,0,0.5-0.1,0.8-0.1c0.2,0,0.4-0.1,0.7-0.1c0.1,0,0.2,0,0.4-0.1c0.1,0,0.2,0,0.2,0
			c0.2,0,0.5-0.1,0.7-0.1c0.3-0.1,0.5-0.2,0.7-0.2c0.3-0.1,0.6-0.2,1-0.3c0.3-0.1,0.5-0.2,0.8-0.3c0.1,0,0.1,0,0.1-0.1
			c0.3-0.1,0.5-0.2,0.9-0.4c0.3-0.1,0.6-0.2,0.8-0.4c0.2-0.1,0.5-0.3,0.7-0.4c0.2-0.1,0.4-0.2,0.6-0.4c0.1-0.1,0.2-0.1,0.3-0.2
			c0.1-0.1,0.2-0.1,0.2-0.1c0.2-0.1,0.4-0.2,0.6-0.4c0.2-0.2,0.5-0.3,0.6-0.5c0.3-0.2,0.6-0.4,0.9-0.6c0.2-0.2,0.4-0.3,0.7-0.5
			c0,0,0.1-0.1,0.2-0.1c0.2-0.2,0.4-0.4,0.6-0.5l0.1-0.1c0.2-0.2,0.4-0.4,0.6-0.6c0.2-0.2,0.4-0.4,0.5-0.6c0.2-0.2,0.3-0.4,0.5-0.6
			c0-0.1,0.1-0.1,0.2-0.3c0.1-0.1,0.1-0.1,0.2-0.2c0.1-0.2,0.3-0.3,0.4-0.5c0.2-0.2,0.3-0.4,0.6-0.8c0.1-0.1,0.1-0.2,0.2-0.3
			l0.2-0.4c0.1-0.2,0.3-0.4,0.5-0.7c0.1-0.1,0.2-0.3,0.2-0.4l0.3-0.6c0.1-0.2,0.2-0.4,0.3-0.6c1-2.2,1.6-4.5,1.8-6.9
			c0-0.2,0-0.4,0-0.6c0-0.1,0-0.2,0-0.4c0-0.1,0-0.2,0-0.3c0-0.2,0-0.4,0-0.7c0-0.3,0-0.6,0-0.9v-0.2c0-0.3,0-0.6,0-0.8
			c0-0.3-0.1-0.6-0.1-0.9l-0.1-1c-0.1-0.4-0.2-0.9-0.2-1.3l-0.1-0.5c-0.6-2.4-1.6-4.7-2.9-6.7c-1.4-2-3-3.9-5.1-5.4
			s-4.2-2.6-6.6-3.3c-2.3-0.7-4.8-1-7.2-0.9c0,0,0,0-0.1,0h-0.5c-0.4,0-0.9,0.1-1.2,0.1h-0.3c0,0-0.1,0-0.3,0l-65.6,9.4l-4.1,0.6
			l-20,2.8c-1.1,0.1-2.3,0.2-3.7,0.5c-0.5,0.1-1.1,0.2-1.6,0.3h-0.2c-3,0.6-5.8,1.3-8.4,2.1l-0.8,0.3l0,0c-3.3,1.2-6.2,2.4-8.8,3.9
			c-3.3,1.8-6.2,3.7-8.8,5.8c-2.8,2.2-5.5,4.7-7.7,7.2c-2.4,2.7-4.6,5.6-6.4,8.4c-2,3.2-3.5,6.3-4.8,9.3c-0.2,0.5-0.5,1.1-0.7,1.7
			l-0.3,0.9c-0.3,0.8-0.6,1.6-0.7,2.1l-0.7,2.4c-0.2,0.7-0.4,1.4-0.6,2.1l-0.1,0.4c-0.9,3.5-1.4,7.1-1.6,10.4
			c-1.1,14.1,2.8,28.3,11.1,40c4,5.7,8.9,10.7,14.8,14.9c5.9,4.2,12.3,7.2,19,9.1l4.1,1.2c0.1,0,0.2,0.1,0.3,0.1l1.5,0.6l2.4,1.1
			c0.3,0.1,0.5,0.3,0.8,0.4l1.4,0.8c2.8,1.6,5.6,3.9,7.9,6.6c2.3,2.6,4.3,5.6,5.6,8.8c1.4,3.2,2.3,6.7,2.7,10.2l0.2,2.7
			c0,0.2,0,0.5,0,0.7c0,0.2,0,0.4,0,0.5v0.6c0,0.2,0,0.5,0,0.7l-0.1,1.7c0,0.3,0,0.6-0.1,0.9c-0.1,0.3-0.1,0.6-0.1,0.9
			c-0.1,0.6-0.1,1.1-0.3,1.7c-0.7,3.4-1.9,6.7-3.7,9.7c-1.6,2.9-3.9,5.7-6.5,8.2l-8.2,6.9l-2.2,1.6c-5.9,4.2-13.2,6.6-20.4,6.9
			c-3.8,0.1-7.4-0.2-10.8-1.1c-3.7-0.9-7.1-2.3-10.1-4.2c-0.3-0.1-0.5-0.3-0.7-0.4l-1.4-0.9c-0.1-0.1-0.2-0.1-0.4-0.2L29.1,210.1
			c-0.5-0.4-1.2-0.3-1.6,0.1l-1,1.2c-0.2,0.2-0.3,0.5-0.3,0.8c0,0.3,0.2,0.6,0.4,0.8L88.5,266.1z M296.7,121.1l0.4,1.1h0.3
			c0.3-0.1,0.7-0.1,1-0.1h0.5c2-0.1,4.1,0.2,6,0.8c1.9,0.6,3.8,1.5,5.5,2.7c1.6,1.2,3,2.7,4.2,4.5s1.9,3.5,2.4,5.5l0.1,0.5
			c0.1,0.3,0.1,0.7,0.2,1.1l0.1,0.7c0,0.3,0.1,0.6,0.1,1c0,0.1,0,0.2,0,0.4v0.3c0,0.3,0,0.6,0,0.9c0,0.1,0,0.2,0,0.3
			c0,0.1,0,0.3,0,0.4s0,0.3,0,0.4s0,0.2,0,0.3c-0.2,2-0.7,3.9-1.5,5.8c0,0.1-0.1,0.1-0.1,0.2c-0.1,0.1-0.1,0.2-0.2,0.3
			c-0.1,0.1-0.1,0.3-0.2,0.4c0,0.1-0.1,0.2-0.1,0.2c-0.2,0.2-0.3,0.5-0.5,0.7l-0.4,0.5c-0.2,0.2-0.3,0.5-0.5,0.7
			c-0.1,0.1-0.1,0.2-0.2,0.2c-0.1,0.1-0.2,0.2-0.2,0.2c-0.1,0.1-0.2,0.2-0.3,0.3s-0.1,0.2-0.2,0.2c-0.2,0.2-0.4,0.4-0.7,0.7
			c-0.1,0.1-0.2,0.2-0.3,0.3l-0.1,0.1c-0.2,0.2-0.4,0.4-0.5,0.5c-0.2,0.2-0.5,0.4-0.8,0.6c-0.1,0.1-0.3,0.2-0.5,0.4
			c-0.2,0.2-0.5,0.3-0.7,0.5c-0.1,0.1-0.2,0.1-0.3,0.2c-0.1,0.1-0.3,0.1-0.3,0.2c-0.1,0.1-0.2,0.1-0.4,0.2c-0.1,0.1-0.2,0.1-0.3,0.2
			c-0.3,0.1-0.5,0.3-0.9,0.4c-0.1,0.1-0.3,0.1-0.4,0.2l-0.1,0.1c-0.2,0.1-0.5,0.2-0.7,0.3c-0.3,0.1-0.5,0.2-0.9,0.3
			c-0.1,0.1-0.3,0.1-0.5,0.2c-0.3,0.1-0.6,0.2-0.9,0.3c-0.1,0-0.2,0-0.2,0c-0.1,0-0.3,0-0.3,0.1c-0.1,0-0.3,0.1-0.4,0.1
			c-0.1,0-0.2,0.1-0.3,0.1c-0.3,0-0.6,0.1-0.8,0.1c-1.8,0.2-3.7,0.1-5.8-0.3c-0.9-0.2-1.8-0.5-2.8-0.9h-0.1l-0.5-0.3
			c-0.3-0.1-0.5-0.3-0.7-0.3l-39.3-24.8c-0.2-0.1-0.7-0.5-1.2-0.7l-1.3-0.8c-0.3-0.2-0.5-0.3-0.8-0.5l48.2-6.9L296.7,121.1z"/>
	</g>
</g>
<g>
	<path class="st21" d="M12.3,432h8.6l12.3,22.5l4.3,9.1h0.2c-0.4-4.4-1.1-10-1.1-14.8V432h8v42.3H36l-12.2-22.6l-4.3-9.1h-0.3
		c0.4,4.6,1,9.8,1,14.7v16.9h-8V432z"/>
	<path class="st21" d="M86.2,439H74.3v-7h32.3v7h-12v35.2h-8.4V439H86.2z"/>
	<path class="st21" d="M136.1,455.2V432h8.4V456c0,8.8,3,11.8,8,11.8c5.1,0,8.2-2.9,8.2-11.8v-24h8.1v23.2c0,14.1-6,19.8-16.3,19.8
		C142.3,475,136.1,469.3,136.1,455.2z"/>
	<path class="st21" d="M199.8,453.3c0-13.9,8.9-22.1,19.7-22.1c5.4,0,9.6,2.5,12.4,5.5l-4.5,5.4c-2.1-2-4.6-3.5-7.8-3.5
		c-6.4,0-11.2,5.5-11.2,14.6c0,9.2,4.4,14.7,11.1,14.7c3.5,0,6.5-1.7,8.7-4.2l4.5,5.3c-3.4,4.1-8,6.2-13.5,6.2
		C208.4,475,199.8,467.4,199.8,453.3z"/>
	<path class="st21" d="M282,463.5h-13.7l-2.9,10.8h-8.5l13.5-42.3h9.9l13.6,42.3H285L282,463.5z M280.2,456.9l-1.2-4.7
		c-1.3-4.4-2.4-9.2-3.8-13.8H275c-1.1,4.7-2.3,9.4-3.5,13.8l-1.2,4.7H280.2z"/>
	<path class="st21" d="M318.8,453.3c0-13.9,8.9-22.1,19.7-22.1c5.4,0,9.6,2.5,12.4,5.5l-4.5,5.4c-2.1-2-4.6-3.5-7.8-3.5
		c-6.4,0-11.2,5.5-11.2,14.6c0,9.2,4.4,14.7,11.1,14.7c3.5,0,6.5-1.7,8.7-4.2l4.5,5.3c-3.4,4.1-8,6.2-13.5,6.2
		C327.5,475,318.8,467.4,318.8,453.3z"/>
	<path class="st21" d="M381.3,432h26v7h-17.4v9.7h14.8v7.1h-14.8v11.4h18v7.1h-26.6L381.3,432L381.3,432z"/>
</g>
</svg>
