<svg xmlns="http://www.w3.org/2000/svg" width="270" height="185" fill="none" viewBox="0 0 270 185">
  <g clip-path="url(#a)" filter="url(#b)">
    <path fill="#fff" d="m116.424 139.778 32.434-50.693-32.851-51.98-61.54-2.29L27.461 88.64l27.03 55.404 61.933-4.267Z"/>
    <path fill="#CDE3FF" d="m54.1 144.723-27.533-56.1 27.388-54.488 62.528 2.34 33.239 52.68-32.971 51.31-62.652 4.258ZM27.382 88.619 54.54 143.96l61.797-4.187 32.525-50.618-32.79-51.968-61.67-2.297-27.019 53.73Z"/>
    <path fill="#CDE3FF" d="M84.977 90.576 53.86 34.69a.356.356 0 0 1 .153-.5.356.356 0 0 1 .5.153l30.884 55.503 63.881-1.062a.397.397 0 0 1 .382.357.397.397 0 0 1-.356.382l-64.328 1.052Z"/>
    <path fill="#CDE3FF" d="M54.139 144.655a.372.372 0 0 1-.137-.508l30.868-54.13a.372.372 0 1 1 .644.372l-30.867 54.13c-.125.177-.339.234-.508.136Z"/>
  </g>
  <g clip-path="url(#c)">
    <path fill="#fff" d="m245.85 107.61-15.48-70.468-71.912-16.216-54.109 50.227 22.735 68.523 69.881 24.052 48.885-56.118Z"/>
    <path fill="#CFDFF2" d="m197.208 164.635-70.897-24.217-22.973-69.408 54.99-51.022 72.834 16.48 15.547 71.447-49.501 56.72ZM127 139.723l69.934 23.892 48.837-55.935-15.337-70.482-71.851-16.257-54.227 50.331L127 139.723Z"/>
    <path fill="#CFDFF2" d="m177.482 92.559-73.753-20.997a.428.428 0 0 1-.294-.553.428.428 0 0 1 .553-.295l73.232 20.87 53.254-55.053a.476.476 0 0 1 .626-.022.476.476 0 0 1 .022.626l-53.64 55.424Z"/>
    <path fill="#CFDFF2" d="M197.184 164.545a.446.446 0 0 1-.547-.316l-19.72-72.054a.445.445 0 1 1 .862-.23l19.72 72.053c.044.256-.089.486-.315.547Z"/>
  </g>
  <defs>
    <clipPath id="a">
      <path fill="#fff" d="m62.665 4.95 108.538 62.665-62.665 108.538L0 113.49z"/>
    </clipPath>
    <clipPath id="c">
      <path fill="#fff" d="M85.981 38.888 231.113 0 270 145.13l-145.131 38.89z"/>
    </clipPath>
    <filter id="b" width="179.202" height="179.202" x="-4" y=".951" color-interpolation-filters="sRGB" filterUnits="userSpaceOnUse">
      <feFlood flood-opacity="0" result="BackgroundImageFix"/>
      <feBlend in="SourceGraphic" in2="BackgroundImageFix" result="shape"/>
      <feGaussianBlur result="effect1_foregroundBlur_100_430" stdDeviation="2"/>
    </filter>
  </defs>
</svg>
