<svg xmlns="http://www.w3.org/2000/svg" width="24" height="24" fill="none" viewBox="0 0 24 24">
  <path fill="#ffffff" fill-rule="evenodd" d="M17.297 3.468a.582.582 0 0 1-.594 0c-.32-.2-.864-.468-1.474-.468h-.095c-1.515.02-2.41 1.389-2.057 2.706.39 1.46 2.674 2.752 3.566 3.209.223.113.49.113.714 0 .892-.457 3.176-1.75 3.566-3.209.353-1.317-.542-2.686-2.057-2.705L18.771 3c-.61 0-1.155.269-1.474.468Zm2.177 1.85c-.058.217-.365.644-1.06 1.18-.483.37-1.01.687-1.414.908-.404-.221-.93-.537-1.414-.908-.695-.536-1.002-.963-1.06-1.18a.673.673 0 0 1 .094-.571c.092-.128.253-.243.534-.247h.075c.088 0 .2.02.332.068.131.048.253.113.35.173.659.41 1.519.41 2.179 0 .096-.06.218-.125.349-.173a.993.993 0 0 1 .407-.068c.28.004.442.119.534.247.104.143.154.35.094.572ZM2.818 7.25c-1 0-1.568.931-1.568 1.75v10c0 .819.568 1.75 1.568 1.75h2.864c1 0 1.568-.931 1.568-1.75v-.293a.776.776 0 0 0 .085-.036c.516-.258.79-.292 1.033-.269.265.026.532.118 1.022.287l.303.104c1.824.62 4.307.83 6.638.307 2.34-.525 4.614-1.812 5.84-4.264.198-.396.35-.792.37-1.158a1.23 1.23 0 0 0-.129-.639 1.095 1.095 0 0 0-.498-.479c-.347-.168-.748-.155-1.046-.124a8.98 8.98 0 0 0-1.105.21c-.292.07-.602.15-.93.234-1.508.389-3.374.87-5.333.87.001 0 .002 0 0 0a3.565 3.565 0 0 1-.235-.027 5.182 5.182 0 0 1-.597-.126c.46-.23 1.25-.524 2.53-.873l.086-.024c.746-.205 1.458-.755 1.457-1.57 0-.422-.212-.79-.545-1.028-.317-.227-.715-.321-1.129-.324-.607-.004-1.29.081-1.897.157l-.309.039c-.736.09-1.284.13-1.639.062-.09-.018-.196-.063-.377-.162l-.089-.05a4.697 4.697 0 0 0-.577-.287c-.887-.345-1.57-.5-2.191-.39a2.314 2.314 0 0 0-.738.27V9c0-.819-.568-1.75-1.568-1.75H2.818Zm5.696 9.66a2.858 2.858 0 0 0-1.264.167v-5.87a.75.75 0 0 0 .2-.107c.455-.342.602-.442.799-.477.196-.034.553-.012 1.386.312.107.042.203.095.344.174l.146.08c.199.11.477.254.81.319.63.123 1.422.038 2.107-.045l.335-.042c.503-.062.975-.121 1.403-.138-1.612.44-2.64.84-3.227 1.225-.284.187-.584.445-.712.81-.16.454.01.85.24 1.101.2.217.462.356.67.445.222.095.462.168.68.222.419.104.858.164 1.07.164 2.17 0 4.262-.542 5.765-.931.309-.08.592-.153.847-.215.336-.08.607-.136.822-.165a4.43 4.43 0 0 1-.106.226c-.966 1.932-2.78 3.012-4.826 3.471-2.056.461-4.259.27-5.827-.264l-.259-.089c-.48-.167-.947-.329-1.403-.373Zm6.742-5.854-.001.002.001-.002ZM2.75 9c0-.113.038-.193.07-.232a.148.148 0 0 1 .017-.018h2.826l.017.018c.032.039.07.119.07.232v10a.373.373 0 0 1-.07.232.146.146 0 0 1-.017.018H2.837a.146.146 0 0 1-.017-.018.373.373 0 0 1-.07-.232V9Z" clip-rule="evenodd"/>
</svg>
