<svg xmlns="http://www.w3.org/2000/svg" width="24" height="24" fill="none" viewBox="0 0 24 24">
  <path fill="#ffffff" fill-rule="evenodd" d="M8.67 4.297C7.409 3.287 8.123 1.25 9.74 1.25h4.52c1.618 0 2.332 2.037 1.07 3.047l-.08.063v.958c0 1.839.73 3.602 2.03 4.902l.386.386a7.114 7.114 0 0 1-5.03 12.144h-1.272a7.114 7.114 0 0 1-5.03-12.144l.386-.386a6.931 6.931 0 0 0 1.54-2.342.745.745 0 0 1 .101-.271 6.93 6.93 0 0 0 .389-2.289V4.36l-.08-.063Zm.85 4.453h.98a.75.75 0 0 0 0-1.5h-.474c.115-.49.187-.992.213-1.5H11.5a.75.75 0 0 0 0-1.5h-1.25V4.2c0-.354-.16-.69-.437-.91l-.205-.164a.198.198 0 0 1-.075-.108.222.222 0 0 1 .008-.127.223.223 0 0 1 .073-.104.198.198 0 0 1 .126-.037h4.52a.2.2 0 0 1 .126.037c.03.022.057.058.074.104a.223.223 0 0 1 .007.127.198.198 0 0 1-.075.108l-.205.164a1.165 1.165 0 0 0-.437.91v1.118c0 2.236.888 4.381 2.47 5.962l.386.386a5.614 5.614 0 0 1-3.97 9.584h-1.272a5.614 5.614 0 0 1-3.97-9.584l.386-.386a8.43 8.43 0 0 0 1.74-2.53Z" clip-rule="evenodd"/>
</svg>
