<svg xmlns="http://www.w3.org/2000/svg" width="24" height="24" fill="none" viewBox="0 0 24 24">
  <path fill="#ffffff" fill-rule="evenodd" d="M4 10c0-4.5 3.582-8 8-8s8 3.5 8 8c0 3.427-2.32 5.694-3.426 6.58-.347.278-.574.69-.574 1.133 0 .71-.576 1.287-1.287 1.287H9.287C8.577 19 8 18.424 8 17.713c0-.444-.227-.855-.574-1.133C6.32 15.694 4 13.427 4 10Zm1.5 0c0-3.662 2.9-6.5 6.5-6.5s6.5 2.838 6.5 6.5c0 2.726-1.862 4.607-2.864 5.41-.598.48-1.062 1.218-1.128 2.09H9.492c-.066-.872-.53-1.61-1.128-2.09C7.362 14.607 5.5 12.726 5.5 10Z" clip-rule="evenodd"/>
  <path fill="#ffffff" d="M9.123 19.76a.75.75 0 1 0-.246 1.48c2.068.345 4.178.345 6.246 0a.75.75 0 1 0-.246-1.48 17.5 17.5 0 0 1-5.754 0Z"/>
</svg>
