<?xml version="1.0" encoding="utf-8"?>
<!-- Generator: $$$/GeneralStr/196=Adobe Illustrator 27.6.0, SVG Export Plug-In . SVG Version: 6.00 Build 0)  -->
<svg version="1.1" id="圖層_1" xmlns="http://www.w3.org/2000/svg" xmlns:xlink="http://www.w3.org/1999/xlink" x="0px" y="0px"
	 viewBox="0 0 640 415" style="enable-background:new 0 0 640 415;" xml:space="preserve">
<style type="text/css">
	.st0{fill:#003D72;}
</style>
<g>
	<polygon class="st0" points="144.6,414 0,190.6 98.3,0 214.8,0 117.2,189 205.3,319 435.1,318.8 526.4,185.2 435.1,0 548,0 
		640,190.6 495.4,414 	"/>
	<g>
		<g>
			<path class="st0" d="M421.7,170.7c0-53.8-43.6-97.4-97.4-97.4c-15.7,0-30.3,4-43.4,10.6l125.4,138.9
				C416,207.8,421.7,190,421.7,170.7z"/>
			<path class="st0" d="M229,168.8c0,53.8,43.6,97.3,97.4,97.3c15.7,0,30.3-4,43.4-10.6L244.4,116.6
				C234.8,131.7,229,149.5,229,168.8z"/>
		</g>
	</g>
</g>
</svg>
