<?xml version="1.0" encoding="utf-8"?>
<!-- Generator: $$$/GeneralStr/196=Adobe Illustrator 27.6.0, SVG Export Plug-In . SVG Version: 6.00 Build 0)  -->
<svg version="1.1" id="圖層_1" xmlns="http://www.w3.org/2000/svg" xmlns:xlink="http://www.w3.org/1999/xlink" x="0px" y="0px"
	 viewBox="0 0 539.7 79.9" style="enable-background:new 0 0 539.7 79.9;" xml:space="preserve">
<style type="text/css">
	.st0{fill-rule:evenodd;clip-rule:evenodd;fill:#003D72;}
	.st1{fill:#003D72;stroke:#003D72;stroke-width:0.6985;}
	.st2{fill:#003D72;stroke:#003D72;stroke-width:0.6973;}
	.st3{fill:#003D72;}
	.st4{fill:#040000;}
</style>
<g>
	<g>
		<g>
			<g>
				<path class="st0" d="M496.4,27c3.9,0.4,8.2-1.6,8.8-5.3c-2.5-0.2-1.4,3.1-4,2.8c-2.4-4.8-1.6-12.7-4-17.6
					c5.5-4.1,4.8,5.6,7.4,7.9c2-3.6-1.2-10.1,1.1-12.5c2.3-0.2,2.2,1.9,3.4,2.8c2.3-0.1,1.4-3.5,3.4-4c2.1,0.2,3.7,0.8,3.4,3.4
					c-1.3,1.7-4,2-4,5.1c0.6,1.6,2.4-0.2,3.4,0c0.4,1.7,0.9,3.3,2.8,3.4c3.2-2.5-2.1-4.4-2.8-5.1c0.1-3.4,2.9-1,4.5-2.3
					c0.5-2-0.8-2.2-0.6-4c2-2,5-0.7,6.2,1.1c0.3,7.3-3.5,15.3-1.7,20.4c5.4,0.8,13.3-0.8,15.9,2.8c-0.1,4.7-5.6,5.2-9.1,3.4
					c-0.4-1.7,1-1.7,0.6-3.4c-14.6-0.6-36.7,0.7-44.2,9.1c-1.9-3.9,5.8-10.2,7.9-9.1C495.5,26.4,495.8,26.9,496.4,27z M508.6,14.9
					c0.8,0.2,1.1,0.8,2.3,0.6c0-0.6,0-1.1,0-1.7C509.6,13.6,508.7,13.9,508.6,14.9z M508.6,24c0,0,2,0,2.2-0.1
					c0.8-0.2,1.1-0.5,1.6-1.2c1.1-1.8,2.4-4.6,1.3-6.7C511.1,17.8,509.6,20.7,508.6,24z M517.7,22.8c1.4-1.3,1.6-3.7,2.3-5.7
					c-0.8-0.2-1.1-0.8-2.3-0.6C517.1,18.1,514.3,22.6,517.7,22.8z"/>
				<path class="st0" d="M407.3,1.8c1.2,0.4,0.6,12.7,1.5,12.7c3.7,0.1,6.6-3.3,8.6-0.2c-0.2,2-1.6,3.2-3.4,3.9
					c-1.4,0.6-4.3,1-5.1,2.4c-0.5,0.9-0.6,2.3-0.9,3.3c-0.3,1.6-0.8,3.4-0.8,5c1.8,0,3.5-1.3,5.3-1.3c1.8,0,4.6,0.6,5.8,4.1
					c1.2,3.6-5.8,5.8-6.5,9.6c3.5,4.2,24.6,5.4,20.8,8.2c-7.2,5.8-18.4-0.4-23.1-2c-6.4-0.4-10.2,8.8-15.3,6.1
					c-0.7-0.6-0.5-1.3,0.1-2.1c1-1.4,3.4-2.9,4.4-3.7c1.3-1,3.6-2,4.4-3.5c0.9-1.6-3.8-5-6.3-7.9c-1.4-1.6-0.6-3.9-1.4-3.6
					c-1.4,0.5-3.2,1.6-3.7,2.9c-0.5,1.4-0.6,2.9-0.6,4.4c0.2,3.4,1,6.9,0.6,10.4c-0.1,0.6-0.8,4.6-2,4.4c-1.2-0.2-8-8.9-6.1-10.4
					c0.6-0.6,2.3-0.9,2.9-1.7c0,0-0.2-1.3-0.4-2.5c-0.5,0.3-5.1,4.2-6.7,3.7c-1.3-0.4-2.6-1.1-3.2-2.1c-1.7-2.7,2.5-4,5.1-5.6
					c2.6-1.6,4.5-4.3,4.5-4.3s0.4-7-0.2-8.5c-0.5-1.4-9.2,1.6-11.1-1c0.1-1.5-0.5-2.3,0.4-3c2.7-2.1,9.2-1.9,10.4-5.5
					c0.4-1.3,0-3.3,0.1-4.7c0.1-1.4,0.1-4.2,0.7-4.6c0.8-0.6,1.5-0.6,2.5-0.4c1.3,0.2,1.1,2.3,1.2,3.6c0.2,1.2,0.3,2.5,0.5,3.9
					c0.2,1.4,0.2,2.5,1,3.3c0.6,0.6,2.8,0,3.5,0.3c1.1,0.4,0.8,1.4,0.8,2.4c0,1.8-4.5,2.2-4.3,4.4c0.1,1.1-0.5,2.6-0.4,3.8
					c3.2,1.6,5-2.4,7.4-3.4c0-0.9-0.6-2.7-0.1-3.5c0.3-0.5,1.9-1.2,2.4-1.5c0.5-0.4,1.2-1,1.5-1.6c0.6-1.2,0.5-1.8,0.7-3.1
					c0.3-2.2,0.3-4.5,0.7-6.7c0.3-1.5,0-3.9,1.3-4.9C404.9,1.4,407.1,1.8,407.3,1.8z M397,31.3c3.5,0.1,4-2.8,4.5-5.7
					C398.6,26.1,397.4,28.3,397,31.3z M405.7,38.6c3.2,0.5,3.5-1.5,3.2-4.5C403.5,33.2,403.8,36.7,405.7,38.6z"/>
				<path class="st0" d="M135.4,53c-2.5-0.8-4.1-5.4-6.8-4.9c-5.4,1.8-11.6,2.4-15.1,0.2c-4.9-3.1-6.7-7.3-7.5-11.3
					c-1.4-6.9-1.4-11.5-1.1-20.1c0.1-3.2,3.4-10.1,7.8-10.3c2.2,4.9-3.5,5.8-3.4,11c0.2,8.5-0.6,24,7.1,27.1c2.7,1.1,3.5-0.1,5.4-1
					c4.7-2.8,8.7-5.9,8.5-10.5c-4.3-0.1-9.4,11.2-13.1,8.3c-3.5-3.4-7.4-7.4,0.8-12.2c-0.3-2.6-4.8,0.2-5.1-2.4
					c-0.5-3.3,4.3-5,4.7-7.5c0.7-3.2-4.1-0.9-4.2-3.3c2.6-1.6,6.9-3,7.2-7.9c0.2-2.9-6.7,0.1-7.1-2c4.6-4.5,12.7-7.5,18.6-5.9
					c5.8,1.6,14.4,7.9,14.9,15.2c0.5,5.9,0.4,12,0.1,18.1c-0.2,3.9-0.5,6-1.1,8.4C145.5,44.3,139.8,53.4,135.4,53z M142.3,13.5
					c-0.4-7-6.3-11.2-13.6-10.2c-1.8,0.2-3.5,1.3-4.5,3.4c-0.3,0.6,1.2,1.7,1.6,2c0.8,0.5,1.7,0.6,2.5,1c0.7,0.3,1.8,1,2,1.8
					c0.2,1.1-0.9,1.2-1.7,1.6c-8.1,4.1,0.5,12,4.7,15.1c1.5-1-0.5-5.4,2.3-5.1c5.2,1.2-3.7,15.3,4.6,16.2
					C142.1,39.3,142.8,21.6,142.3,13.5z M122.1,31.1c1.3,0,3.5,0.5,4.3-0.6c0.9-1.2,1.9-4.5-0.5-3.6c-0.9,0.3-2.2,0.8-2.6,1.6
					C123.3,28.7,122,31.1,122.1,31.1z M126.7,42.1c4.1,2.9,6.9,6.3,11,0.7C132.8,37.2,133.9,36.5,126.7,42.1z"/>
				<path class="st0" d="M352.7,2.5c0.6,0.2,1.2,0.7,1.3,1.3c0.4,1.2,0.3,2.7,0.4,4c0.1,3.6-0.2,7.2,0.1,10.8
					c0.1,0.9,0.2,1.8,0.4,2.7c0.1,0.3,0.4,2,0.7,2.1c3,1,3.9-2,5.7-0.6c0.3,5.4-4.4,5.8-5.7,9.6c-0.8,8.3,1.3,16.8,0,23.8
					c-4.8,0.4-3.1-5.5-3.4-9.1c-0.4-5.5-0.9-11.7-3.4-14.7c-4.3,0-9.1,4.8-11.9,1.1c-0.4-3,3.6-6.1,4.5-9.6
					c-0.4-2.4-2.7-4.1-1.1-6.8c0.7,3.5,4.2,4.2,7.4,5.1c-1.1,3.4-6.9,2.1-6.2,7.4c2.2,0.8,5.2-0.4,6.9-1.8c2.3-2,1.1-6.2,1.1-8.8
					c0-1.3,0.5-3.7-0.8-4.4c-1.6-1-5.4,0.3-6.6,1.5c-0.6-1.8-2.7-2-2.2-5.2c1.1-1.9,4.4-0.8,6.9,0.1c0.5,0.2,1.1-1.6,1.3-1.9
					c0.4-0.7,0.5-1.5,0.7-2.2c0.3-1.4,0.5-3.2,1.8-4.1C351.1,2.3,351.9,2.3,352.7,2.5z"/>
				<path class="st0" d="M459.3,3.6c2,1.1-0.8,8.5,0.6,11.5c2.5,2.4,8.3-0.1,9.4,2.5c0.5,7.2-9.3,4.3-10.7,8.6
					c-1.2,3.9,3.5,8.5,5.7,10.2c6.6,5.2,27,5.8,23.8,10.2c-2.4,4.2-9.7,3.1-14.2,2.3c-6.6-1.2-12.9-7.3-17.6-9.1
					c-7.9,0.8-13.7,13.8-21,7.9c-3.6-2.7,16.9-10.9,16.2-18.5c-0.5-4.9-6.2-2.7-9.4-6.4c-2.3-3.5,7.5-2.7,10.2-5.1
					C454.7,13.4,451.6-1.2,459.3,3.6z"/>
				<path class="st0" d="M211.3,20.3c3.7-1.5,7.9-2.4,9.2-4.3c1.1-1.6,1.1-3.6,0.9-5.5c-0.2-2.2-0.6-4.5-0.8-6.7
					c-0.1-1.3-0.1-2.4,1.6-1.7c1.2,0.7,2.9,3.3,3.6,3.8c1.3,0.9,1.8,0.4,3.5,1c0.5,3.7-3.5,2.9-4.5,5.1c0,1.5-0.2,3.2,0.6,4
					c5.1-0.7,13.5-2.5,15.3,2.8c-0.3,2.5-4.2,1.5-5.1,3.4c-1.7,0-0.7-2.7-1.7-3.4c-1.5-0.1-3.2,0-4.5,0.7c-1.1,0.6-3,2-1.6,3.4
					c1.2,1.2,3.4,0.7,4.4,2.1c0.6,3.4-3.6,2.1-2.8,5.7c0.5,1.4,3.9-0.2,4.5,1.1c1.6,2.2-2.9,2.1-2.8,4.5c3.2,4.3-1,11.5,4.8,12.1
					c2.8,0.3,4,0.1,6.1-0.2c1.1-0.1,1.6-0.4,2.2-0.9c2.7-2.5,0.1-7.3,1.9-6.7c2.3,0.6,3.1,4.3,2.8,6.6c-0.6,3.5-2.7,5.2-6.5,5.6
					c-3,0.4-5.7,0.4-8.7-0.3c-1.3-0.3-3.1-0.8-4-1.9c-1.2-1.6-0.8-4.4-0.8-6.2c0-0.5,0.3-6.4,0-6.4c-7.4,1.1-2.2,17.2-11.6,16.3
					c-1.6,0.1,2.4-3.7,2.9-7.3c0.8-4.9,0.8-10.7,4.8-13c-0.4-2.4-2.6-3-5.1-3.4c-4.4,14.5-11.7,21.6-12.5,19.8
					c-0.5-0.4-0.7-1.6-0.5-2.2c0.2-1,0.6-1.3,1.3-2c6.9-6.8,7-9.8,7.1-12.8c0-0.8-0.4-8,0.2-8.1c2.2-0.2,2.7,2.5,4.9,2.4
					c2.5-0.1,3.8-3.9,2.3-6.2c-0.4-0.7-2.7,0.3-3.1,0.5c-1.3,0.5-2.5,1.1-3.9,1.4c-1.9,0.5-4,0.8-6,0.6c-0.8-0.1-2.5-0.3-3.1-1
					c-0.7-0.9,0.5-1.3,1.1-1.8C207.7,21.4,209.6,21,211.3,20.3z"/>
				<path class="st0" d="M293.3,4.5c3.7,1.9-0.8,4.9-1.7,7c-0.9,2,3.9,4,2.6,5.7c-0.7,0.9-2.7,1-3.7,1.3c-2,0.7-4,1.4-5.9,2.2
					c-2.6,1.1-5.1,2.4-7.1,4.5c-1.5,1.6-2.8,3.4-4.1,5.1c-1.4,1.8-2.5,3.5-3.6,5.4c-0.9,1.5-1.9,3-2.8,4.5c-0.4,0.7-0.2,2.5-1,3
					c-0.9,0.5-4.1-0.9-5-1.4c-1.2-0.7-0.8-1.5-0.1-2.3c5.3-5.9,5.9-6.1,13.4-17.1c2-3,3.9-5.7,7.2-7.3c2.4-1.1,7.5-3.5,6-5.3
					c-1-0.8-2.2-0.8-3.3-0.6c-1.5,0.9-5.3,2.2-4.9,0C280.2,7.2,286.3,2.8,293.3,4.5z"/>
				<path class="st0" d="M335.1,8.2c-0.7,1.3-4.8,2.1-6.2,2.8c-0.5,0.2,3.1,4.3,3.5,4.6c0.8,0.6,1.6,1.2,2.4,1.7
					c0.6,0.3,1.9,0.6,1.9,1.5c0.1,1.7-1.7,4.3-2.6,5.6c-0.5,0.6-1.4,1.2-1.7,1.9c-0.4,0.9-0.4,5.1,0.1,8.1c0.5,2.6-0.2,5.4-0.2,8.1
					c0,0.8,0,1.7-1,2c-0.8,0.2-1.8-0.5-2.3-1.1c-1.2-1.3-1.4-2.4-1.8-4.3c-0.2-1.2-0.4-2.2-1.3-3c-0.4-0.3-1.4,1.2-3.1,0.9
					c-1.2-0.6-1.3-1.7-1.6-2.9c-0.2-1.3,0.2-2.2,1.1-3c0.4-0.4,1.9-1.7,1.5-2.4c-1.5-2.5-7.3,1.3-8.5-2.3
					c1.4-6.5,11.6-4.2,11.3-12.5c-0.1-1.5-1.7-2-2.7-2.6c-1-0.6-2.5-2.7-1-3.7c0.8-0.6,2.3-0.7,3.2-1c1-0.3,2-0.7,3-1
					c1.4-0.5,3.8-1.5,5-0.1C334.6,5.7,335.4,7.6,335.1,8.2z"/>
				<path class="st0" d="M292.5,20.5c0.5,0.6,0.5,0.4,1.3,1.7c0.2,3.4-4,1.4-4.8,3.8c0.4,1.1,1.4,2.6,1.6,3c0.1,0.2,1.1,0,1.7,0.1
					c1.2,0.1,0.9,0.9,1.1,2c-0.1,2-2.2,2.3-2.5,4.1c1.8,1.2,6.1,0,6.8,2.3c-0.3,4.3-6.7,2.4-7.9,5.7c-0.3,2.6,1.2,5.3,3.7,5.6
					c3,0.3,3.9,0.3,8,0.1c2.9-0.1,3.1-1.9,3.8-3.8c0.3-0.9,0.8-4,2.3-2.6c1.7,1.7,2.1,4.4,1.7,6.6c-0.4,2.8-2.8,4-5.4,4.4
					c-1.1,0.2-2.2,0.3-3.3,0.4c-2.2,0.1-4.3-0.1-6.4-0.5c-3.2-0.6-6.5-1.8-8.6-4.5c-1.2-1.6-2.1-3.6-2.6-5.6
					c-1.7-0.2-4.4,0.6-4.5-1.1c1-3,5.9-2,6.8-5.1c0.3-1.3-0.4-2.8-0.4-2.8s-2.5,0.2-3-0.3c0-0.6-0.3-1.6-0.3-1.6s3.8-1.6,4.2-3.3
					c0.2-1,0.1-2-0.7-2.4c-0.6-0.3-1.5,0.8-1.8,0.2c-0.2-0.4-0.8-1.2-0.6-1.5c0.3-0.4,1.3-0.8,1.9-1.1c1-0.5,2-0.8,3-1.4
					C289,22.2,291.9,19.8,292.5,20.5z"/>
				<path class="st0" d="M133.3,11.2c1.4-0.2,4,1.4,4.9,2.4c2.6,2.8-1.1,5.4-3.5,5.8c-1.9,0.3-5.1,0.1-4.8-2.5
					C130.1,15.1,134.2,12.9,133.3,11.2z"/>
				<path class="st0" d="M520.3,31.5c0.2,3-4.4,1.4-3.7,6.6c0,2.9,9.9,0.1,9.9,3.2c0.1,2.8-5.1,2.1-6.6,3.2
					c-4.3,3.5-1.4,15.9-6.7,13.3c-2.4-1.2-12.9-12.4-10.2-13.6c0.2-0.1,2.7-1.2,3.1-1.4c1.7-0.8,4.4-1.7,6.3-2.4
					c1.8-1,0.4-3.8,0.5-5.6c-0.9-1.7-6.4,1.3-6.5-0.8C507.9,30.5,517.8,28.6,520.3,31.5z M505.1,46.9c0.8,2.9,5.4,5.5,6.9,3.7
					c0.6-0.7,0.5-1.6,1.1-2.8C514,45.1,507.6,45.6,505.1,46.9z"/>
				<path class="st0" d="M165.4,2.5c6.6-4.1,14.1,4.4,9.1,10.2c-5.3-0.6-8.1,1.4-9.6,4.5c4,3.4,12.1-6.5,15.9,0
					c-2.1,6.6-19,6.7-11.9,17c4.3-1.3,6.6-4.8,10.2-6.8c5.4,1.9,2.3,7.6,1.7,12.5c4.1,1.2,12.6-1.6,13,2.8c0.6,3.5-3.6,5.3-4.5,5.7
					c-2.1,1-27.1-0.8-19.9,0c7.3,0.8-9.4,4.4-10.1-1.2c-0.7-4.9,6.9-3.9,10.8-5.7c4.3-1.9,6.1-4.8,6.8-9.1c-5.2-1.6-5.2,8.1-9.6,7.9
					c-6.5-0.3-2-10-1.1-15.3c-0.9-2.3-5.5-0.9-6.2-3.4C163.8,16.5,171.7,10,165.4,2.5z"/>
			</g>
		</g>
	</g>
	<g>
		<g>
			<path class="st1" d="M111.5,79.8V68.7h2.8l10.7,8.7v-8.7h2.6v11.1h-2.8l-10.7-8.7v8.7H111.5z"/>
			<path class="st1" d="M130.5,79.8l6.3-9h2.3l6.7,9h-2.5l-1.9-2.7h-6.9l-1.8,2.7H130.5z M135.3,76.1h5.6l-1.7-2.5
				c-0.5-0.8-0.9-1.4-1.2-1.9c-0.2,0.6-0.5,1.1-0.9,1.7L135.3,76.1z"/>
			<path class="st1" d="M150.8,79.8v-7.9h-5.4v-1.1h13.1v1.1H153v7.9H150.8z"/>
			<path class="st1" d="M161.6,79.8v-9h2.2v9H161.6z"/>
			<path class="st1" d="M167.5,75.4c0-1.5,0.7-2.7,2.2-3.5c1.5-0.8,3.4-1.3,5.7-1.3c1.5,0,2.9,0.2,4.1,0.6c1.2,0.4,2.2,0.9,2.8,1.7
				c0.6,0.7,1,1.5,1,2.4c0,0.9-0.3,1.7-1,2.4c-0.7,0.7-1.6,1.3-2.9,1.6c-1.2,0.4-2.6,0.6-4,0.6c-1.6,0-2.9-0.2-4.2-0.6
				c-1.2-0.4-2.1-1-2.8-1.7C167.8,77,167.5,76.2,167.5,75.4z M169.8,75.4c0,1.1,0.5,1.9,1.6,2.5c1.1,0.6,2.4,0.9,4,0.9
				c1.6,0,3-0.3,4.1-0.9c1.1-0.6,1.6-1.5,1.6-2.7c0-0.7-0.2-1.4-0.7-1.9c-0.5-0.5-1.1-1-2-1.3c-0.9-0.3-1.9-0.4-2.9-0.4
				c-1.5,0-2.9,0.3-4,0.9C170.3,73.1,169.8,74.1,169.8,75.4z"/>
			<path class="st1" d="M186.7,79.8v-9h2.2l8.7,7v-7h2.1v9h-2.2l-8.7-7v7H186.7z"/>
			<path class="st1" d="M202.1,79.8l6.3-9h2.3l6.7,9H215l-1.9-2.7h-6.9l-1.8,2.7H202.1z M206.8,76.1h5.6l-1.7-2.5
				c-0.5-0.8-0.9-1.4-1.2-1.9c-0.2,0.6-0.5,1.1-0.9,1.7L206.8,76.1z"/>
			<path class="st1" d="M219.7,79.8v-9h2.2v7.9h8.1v1.1H219.7z"/>
		</g>
		<g>
			<g>
				<path class="st1" d="M240.3,79.8V68.7H253V70h-10.2v3.4h8.8v1.3h-8.8v5H240.3z"/>
				<path class="st1" d="M255.2,75.4c0-1.5,0.7-2.7,2-3.5c1.4-0.8,3.1-1.3,5.3-1.3c1.4,0,2.7,0.2,3.8,0.6s2,0.9,2.6,1.7
					c0.6,0.7,0.9,1.5,0.9,2.4c0,0.9-0.3,1.7-0.9,2.4c-0.6,0.7-1.5,1.3-2.6,1.6c-1.1,0.4-2.4,0.6-3.7,0.6c-1.4,0-2.7-0.2-3.8-0.6
					c-1.1-0.4-2-1-2.6-1.7C255.5,77,255.2,76.2,255.2,75.4z M257.3,75.4c0,1.1,0.5,1.9,1.5,2.5c1,0.6,2.2,0.9,3.7,0.9
					c1.5,0,2.8-0.3,3.7-0.9c1-0.6,1.5-1.5,1.5-2.7c0-0.7-0.2-1.4-0.6-1.9c-0.4-0.5-1-1-1.8-1.3c-0.8-0.3-1.7-0.4-2.7-0.4
					c-1.4,0-2.7,0.3-3.7,0.9C257.8,73.1,257.3,74.1,257.3,75.4z"/>
				<path class="st1" d="M272.4,79.8v-9h6.8c1.4,0,2.4,0.1,3.1,0.2c0.7,0.2,1.3,0.4,1.7,0.9c0.4,0.4,0.6,0.9,0.6,1.4
					c0,0.6-0.3,1.2-1,1.6c-0.7,0.4-1.8,0.7-3.2,0.8c0.5,0.2,0.9,0.3,1.2,0.4c0.6,0.3,1.1,0.7,1.7,1.2l2.6,2.4h-2.5l-2-1.9
					c-0.6-0.5-1.1-0.9-1.5-1.2c-0.4-0.3-0.7-0.5-1-0.6c-0.3-0.1-0.6-0.2-0.9-0.2c-0.2,0-0.6,0-1.1,0h-2.3v4H272.4z M274.5,74.8h4.3
					c0.9,0,1.6-0.1,2.2-0.2c0.5-0.1,0.9-0.3,1.2-0.5c0.3-0.2,0.4-0.5,0.4-0.8c0-0.4-0.3-0.8-0.8-1c-0.5-0.3-1.3-0.4-2.5-0.4h-4.8
					V74.8z"/>
				<path class="st1" d="M287.7,79.8v-9h3l3.6,6.3c0.3,0.6,0.6,1,0.7,1.3c0.2-0.3,0.4-0.8,0.8-1.4l3.6-6.2h2.7v9h-1.9v-7.5l-4.4,7.5
					h-1.8l-4.4-7.6v7.6H287.7z"/>
				<path class="st1" d="M304.9,75.4c0-1.5,0.7-2.7,2-3.5c1.4-0.8,3.1-1.3,5.3-1.3c1.4,0,2.7,0.2,3.8,0.6s2,0.9,2.6,1.7
					c0.6,0.7,0.9,1.5,0.9,2.4c0,0.9-0.3,1.7-0.9,2.4c-0.6,0.7-1.5,1.3-2.6,1.6c-1.1,0.4-2.4,0.6-3.7,0.6c-1.4,0-2.7-0.2-3.8-0.6
					c-1.1-0.4-2-1-2.6-1.7C305.2,77,304.9,76.2,304.9,75.4z M307,75.4c0,1.1,0.5,1.9,1.5,2.5c1,0.6,2.2,0.9,3.7,0.9
					c1.5,0,2.8-0.3,3.7-0.9c1-0.6,1.5-1.5,1.5-2.7c0-0.7-0.2-1.4-0.6-1.9c-0.4-0.5-1-1-1.8-1.3c-0.8-0.3-1.7-0.4-2.7-0.4
					c-1.4,0-2.7,0.3-3.7,0.9C307.5,73.1,307,74.1,307,75.4z"/>
				<path class="st1" d="M321.4,76.9l1.9-0.1c0.1,0.4,0.3,0.8,0.6,1.1c0.3,0.3,0.8,0.5,1.5,0.7c0.7,0.2,1.5,0.3,2.3,0.3
					c0.8,0,1.4-0.1,2-0.2c0.6-0.1,1-0.3,1.3-0.6c0.3-0.2,0.4-0.5,0.4-0.8c0-0.3-0.1-0.5-0.4-0.7c-0.3-0.2-0.7-0.4-1.4-0.5
					c-0.4-0.1-1.3-0.2-2.7-0.4c-1.4-0.2-2.4-0.4-2.9-0.6c-0.7-0.2-1.3-0.5-1.6-0.8c-0.4-0.3-0.5-0.7-0.5-1.1c0-0.5,0.2-0.9,0.7-1.3
					c0.4-0.4,1.1-0.7,1.9-0.9c0.8-0.2,1.8-0.3,2.8-0.3c1.1,0,2.1,0.1,3,0.3c0.9,0.2,1.5,0.5,2,0.9c0.5,0.4,0.7,0.9,0.7,1.4l-1.9,0.1
					c-0.1-0.6-0.5-1-1.1-1.3c-0.6-0.3-1.5-0.4-2.7-0.4c-1.2,0-2.1,0.1-2.7,0.4c-0.6,0.3-0.8,0.6-0.8,0.9c0,0.3,0.2,0.6,0.6,0.8
					c0.4,0.2,1.4,0.4,3,0.6c1.6,0.2,2.8,0.4,3.4,0.6c0.9,0.2,1.5,0.5,2,0.9c0.4,0.4,0.6,0.8,0.6,1.3c0,0.5-0.2,0.9-0.7,1.3
					c-0.5,0.4-1.1,0.8-2,1c-0.9,0.2-1.8,0.4-2.9,0.4c-1.4,0-2.5-0.1-3.5-0.4c-0.9-0.2-1.7-0.6-2.2-1.1
					C321.7,78,321.4,77.5,321.4,76.9z"/>
				<path class="st1" d="M334.6,79.8l5.8-9h2.2l6.2,9h-2.3l-1.8-2.7h-6.4l-1.7,2.7H334.6z M339,76.1h5.2l-1.6-2.5
					c-0.5-0.8-0.8-1.4-1.1-1.9c-0.2,0.6-0.5,1.1-0.8,1.7L339,76.1z"/>
			</g>
		</g>
		<g>
			<g>
				<path class="st2" d="M370.6,68.4h2.6v6.5c0,1.1-0.2,2-0.7,2.7c-0.5,0.7-1.3,1.2-2.5,1.6c-1.2,0.4-2.7,0.6-4.7,0.6
					c-1.9,0-3.4-0.2-4.6-0.5c-1.2-0.4-2-0.9-2.5-1.6c-0.5-0.7-0.8-1.6-0.8-2.8v-6.5h2.6v6.5c0,1,0.2,1.7,0.5,2.2
					c0.3,0.5,0.9,0.8,1.7,1.1c0.8,0.3,1.7,0.4,2.9,0.4c1.9,0,3.3-0.2,4.1-0.7s1.2-1.5,1.2-2.9V68.4z"/>
				<path class="st2" d="M377.2,79.7v-9h2.1l8.3,7v-7h2v9h-2.1l-8.3-7v7H377.2z"/>
				<path class="st2" d="M393.5,79.7v-9h2.1v9H393.5z"/>
				<path class="st2" d="M403.8,79.7l-6.1-9h2.3l4.1,6.5c0.3,0.5,0.6,1,0.8,1.5c0.2-0.5,0.5-1,0.8-1.5l4.3-6.5h2.1l-6.2,9H403.8z"/>
				<path class="st2" d="M414,79.7v-9h11.4v1.1h-9.3v2.7h8.7v1.1h-8.7v3h9.7v1.1H414z"/>
				<path class="st2" d="M428.7,79.7v-9h7c1.4,0,2.5,0.1,3.2,0.2c0.7,0.2,1.3,0.4,1.8,0.9c0.4,0.4,0.7,0.9,0.7,1.3
					c0,0.6-0.4,1.2-1.1,1.6c-0.7,0.4-1.8,0.7-3.4,0.8c0.6,0.2,1,0.3,1.3,0.4c0.6,0.3,1.2,0.7,1.7,1.2l2.7,2.4h-2.6l-2.1-1.9
					c-0.6-0.5-1.1-0.9-1.5-1.2c-0.4-0.3-0.7-0.5-1.1-0.6c-0.3-0.1-0.6-0.2-1-0.2c-0.2,0-0.6,0-1.2,0h-2.4v4H428.7z M430.8,74.7h4.5
					c1,0,1.7-0.1,2.2-0.2c0.5-0.1,0.9-0.3,1.2-0.5c0.3-0.2,0.4-0.5,0.4-0.8c0-0.4-0.3-0.8-0.8-1c-0.5-0.3-1.4-0.4-2.6-0.4h-5V74.7z"
					/>
				<path class="st2" d="M443.8,76.8l2-0.1c0.1,0.4,0.3,0.8,0.7,1.1c0.3,0.3,0.9,0.5,1.6,0.7c0.7,0.2,1.5,0.3,2.4,0.3
					c0.8,0,1.5-0.1,2.1-0.2c0.6-0.1,1.1-0.3,1.4-0.6c0.3-0.2,0.4-0.5,0.4-0.8c0-0.3-0.1-0.5-0.4-0.7c-0.3-0.2-0.8-0.4-1.4-0.5
					c-0.4-0.1-1.4-0.2-2.8-0.4c-1.4-0.2-2.5-0.4-3-0.6c-0.8-0.2-1.3-0.5-1.7-0.8c-0.4-0.3-0.6-0.7-0.6-1.1c0-0.5,0.2-0.9,0.7-1.3
					c0.5-0.4,1.1-0.7,2-0.9c0.9-0.2,1.8-0.3,2.9-0.3c1.2,0,2.2,0.1,3.1,0.3c0.9,0.2,1.6,0.5,2.1,0.9c0.5,0.4,0.7,0.9,0.8,1.4l-2,0.1
					c-0.1-0.6-0.5-1-1.1-1.3c-0.6-0.3-1.5-0.4-2.7-0.4c-1.3,0-2.2,0.1-2.8,0.4c-0.6,0.3-0.9,0.6-0.9,1c0,0.3,0.2,0.6,0.6,0.8
					c0.4,0.2,1.5,0.4,3.1,0.6c1.7,0.2,2.9,0.4,3.5,0.6c0.9,0.2,1.6,0.5,2,0.9c0.4,0.4,0.7,0.8,0.7,1.3c0,0.5-0.2,0.9-0.7,1.3
					c-0.5,0.4-1.2,0.7-2.1,1c-0.9,0.2-1.9,0.4-3,0.4c-1.4,0-2.6-0.1-3.6-0.4c-1-0.2-1.7-0.6-2.3-1.1S443.9,77.4,443.8,76.8z"/>
				<path class="st2" d="M459.6,79.7v-9h2.1v9H459.6z"/>
				<path class="st2" d="M469.4,79.7v-7.9h-5.2v-1.1h12.5v1.1h-5.2v7.9H469.4z"/>
				<path class="st2" d="M483.3,79.7v-3.8l-6.1-5.2h2.5l3.1,2.7c0.6,0.5,1.1,1,1.6,1.5c0.5-0.5,1-1,1.7-1.6l3.1-2.6h2.4l-6.3,5.2
					v3.8H483.3z"/>
			</g>
		</g>
	</g>
	<g>
		<polygon class="st3" points="17.3,58.4 0,31.6 11.8,8.8 25.7,8.8 14,31.5 24.6,47 52.1,47 63,31 52.1,8.8 65.6,8.8 76.6,31.6 
			59.3,58.4 		"/>
		<g>
			<g>
				<path class="st3" d="M50.5,29.3c0-6.4-5.2-11.7-11.7-11.7c-1.9,0-3.6,0.5-5.2,1.3l15,16.6C49.8,33.7,50.5,31.6,50.5,29.3z"/>
				<path class="st3" d="M27.4,29c0,6.4,5.2,11.6,11.7,11.6c1.9,0,3.6-0.5,5.2-1.3l-15-16.6C28.1,24.6,27.4,26.7,27.4,29z"/>
			</g>
		</g>
	</g>
	<path class="st4" d="M342.7,15.3c0,0-3.4,2.7-1.4,4.3C341.3,19.6,337.8,17.5,342.7,15.3z"/>
</g>
</svg>
