<svg xmlns="http://www.w3.org/2000/svg" width="32" height="32" fill="none" viewBox="0 0 32 32">
  <g clip-path="url(#a)">
    <path fill="#E26769" d="M17.964 3.132a2.26 2.26 0 0 0-3.92 0L.33 26.466C-.584 28.022.512 30 2.29 30h27.426c1.778 0 2.876-1.98 1.96-3.534L17.964 3.132ZM16 10c1.07 0 1.908.924 1.8 1.99l-.7 7.014a1.104 1.104 0 0 1-2.2 0l-.7-7.014A1.811 1.811 0 0 1 16 10Zm.004 12a2 2 0 1 1 0 4 2 2 0 0 1 0-4Z"/>
  </g>
  <defs>
    <clipPath id="a">
      <path fill="#fff" d="M0 0h32v32H0z"/>
    </clipPath>
  </defs>
</svg>
