<svg xmlns="http://www.w3.org/2000/svg" width="32" height="32" fill="none" viewBox="0 0 32 32">
  <g clip-path="url(#a)">
    <path fill="#2379EA" d="M16 30a14 14 0 1 1 0-28 14 14 0 0 1 0 28Zm0 2a16 16 0 1 0 0-32 16 16 0 0 0 0 32Z"/>
    <path fill="#2379EA" d="m21.94 9.94-.04.044-6.946 8.85-4.186-4.188a1.5 1.5 0 0 0-2.12 2.12l5.292 5.294a1.5 1.5 0 0 0 2.158-.04l7.984-9.98a1.5 1.5 0 0 0-2.142-2.1Z"/>
  </g>
  <defs>
    <clipPath id="a">
      <path fill="#fff" d="M0 0h32v32H0z"/>
    </clipPath>
  </defs>
</svg>
