<?xml version="1.0" encoding="utf-8"?>
<!-- Generator: Adobe Illustrator 16.0.0, SVG Export Plug-In . SVG Version: 6.00 Build 0)  -->
<!DOCTYPE svg PUBLIC "-//W3C//DTD SVG 1.1//EN" "http://www.w3.org/Graphics/SVG/1.1/DTD/svg11.dtd">
<svg version="1.1" id="user" xmlns="http://www.w3.org/2000/svg" xmlns:xlink="http://www.w3.org/1999/xlink" x="0px" y="0px"
	 width="512px" height="512px" viewBox="0 0 512 512" enable-background="new 0 0 512 512" xml:space="preserve">
<linearGradient id="bg_1_" gradientUnits="userSpaceOnUse" x1="4.882813e-004" y1="512" x2="512.0004" y2="1.525879e-004">
	<stop  offset="0" style="stop-color:#0068E1"/>
	<stop  offset="1" style="stop-color:#3ECB91"/>
</linearGradient>
<rect id="bg" fill="url(#bg_1_)" width="512" height="512"/>
<path id="icon" fill="#F2F2F2" d="M318.74,269.134l-7.906-2.259C321.926,251.459,323.5,235.86,323.5,227.5
	c0-37.257-30.193-67.5-67.5-67.5c-37.257,0-67.5,30.193-67.5,67.5c0,8.362,1.574,23.957,12.667,39.375l-7.908,2.259
	C167.979,276.357,160,299.346,160,313.227v9.631c0,16.07,13.073,29.143,29.143,29.143h133.714C338.926,352,352,338.928,352,322.857
	v-9.631C352,299.635,344.229,276.417,318.74,269.134L318.74,269.134z M256,178c27.338,0,49.5,22.162,49.5,49.5S283.338,277,256,277
	c-27.338,0-49.5-22.162-49.5-49.5S228.662,178,256,178z M334,322.857c0,6.153-4.989,11.143-11.143,11.143H189.143
	c-6.154,0-11.143-4.989-11.143-11.143v-9.631c0-12.438,8.245-23.368,20.204-26.784l17.289-4.939C221.006,285.646,235.16,295,256,295
	s34.994-9.354,40.508-13.497l17.287,4.939C325.754,289.858,334,300.789,334,313.227V322.857z"/>
</svg>
