<?xml version="1.0" encoding="utf-8"?>
<!-- Generator: $$$/GeneralStr/196=Adobe Illustrator 27.6.0, SVG Export Plug-In . SVG Version: 6.00 Build 0)  -->
<svg version="1.1" xmlns="http://www.w3.org/2000/svg" xmlns:xlink="http://www.w3.org/1999/xlink" x="0px" y="0px"
	 viewBox="0 0 101 86" style="enable-background:new 0 0 101 86;" xml:space="preserve">
<style type="text/css">
	.st0{display:none;}
	.st1{display:inline;}
	.st2{fill:#FFFFFF;}
	.st3{fill:#32657F;}
	.st4{fill:#D8D8D8;}
	.st5{fill:#D3C2BB;}
	.st6{fill:none;}
</style>
<g id="圖層_1" class="st0">
	<g class="st1">
		<g>
			<path d="M23.5,15.7h-3.6v3.6C19.9,17.3,21.5,15.7,23.5,15.7z"/>
		</g>
		<g>
			<path d="M42,0h-3.6v3.6C38.4,1.6,40,0,42,0z"/>
		</g>
		<g>
			<path class="st2" d="M3.6,0H0v3.6C0,1.6,1.6,0,3.6,0z"/>
		</g>
		<path class="st3" d="M56.3,85.9h-51c-3,0-5.4-2.4-5.4-5.3V5.3C0,2.4,2.4,0,5.4,0h51V85.9z"/>
		<path class="st2" d="M48.3,63.3H19.9V21c0-2.9,2.4-5.3,5.4-5.3h31.1v39.5C56.3,59.7,52.7,63.3,48.3,63.3z"/>
		<path class="st4" d="M43.6,47.3H27.2V37c0-2.9,2.4-5.3,5.4-5.3h16.2V42C49,44.9,46.5,47.3,43.6,47.3z"/>
		<path class="st5" d="M49,0h52v11.8c0,2.1-1.7,4-4,4H74.4V82c0,2.1-1.7,4-4,4H56.3V15.7H49V0z"/>
		<g>
			<path class="st5" d="M50.3,85.9h6v-6C56.3,83.2,53.7,85.9,50.3,85.9z"/>
		</g>
		<g>
			<path class="st5" d="M42.9,15.7h6v-6C49,13,46.3,15.7,42.9,15.7z"/>
		</g>
		<g>
			<path class="st5" d="M79.9,34.4l6.6-14h4.2l6,14H98l0,0c0,1.7-1.5,3.2-3.2,3.2h-1.2l-1.9-4.1H85l-0.7,1.3
				c-0.8,1.7-2.5,2.8-4.4,2.8l0,0V34.4L79.9,34.4z M86.6,30.3h3.8l-1.7-4L86.6,30.3z"/>
			<path class="st5" d="M84.6,44v12.8H98l0,0c0,1.6-1.3,2.9-3,2.9H83.8c-2.3,0-4-1.7-4-4v-7.6c0-2.3,1.7-4,4-4h0.8V44z"/>
			<path class="st5" d="M98,83.5L98,83.5c0,1.3-1.1,2.3-2.3,2.3h-3.6l-7-7.4v7.6l0,0c-3,0-5.2-2.4-5.2-5.2v-6.8
				c0-2.9,2.4-5.2,5.2-5.2l0,0v6.5l6-6.1h5.9l-7.5,7.6l6.4,6.8H98z"/>
		</g>
	</g>
</g>
<g id="圖層_2">
	<g>
		<path class="st4" d="M44.9,47.4H27.3V35.7c0-2.2,1.8-4,4-4h17.6v11.7C48.9,45.6,47.1,47.4,44.9,47.4z"/>
		<g>
			<path class="st6" d="M42.9,15.8H25.3c-3,0-5.4,2.4-5.4,5.3v42.3h28.3c4.4,0,8-3.6,8-8V15.8h-7.4H42.9z"/>
			<path class="st3" d="M56.3,80V55.3c0,4.4-3.6,8-8,8H19.9V21.1c0-2.9,2.4-5.3,5.4-5.3h17.6c3.3,0,6-2.7,6-6V0H5.4
				C2.4,0,0,2.4,0,5.3v75.3C0,83.6,2.4,86,5.4,86h44.9C53.6,86,56.3,83.3,56.3,80z"/>
			<path class="st5" d="M101,0H56.3h-7.4v9.8c0,3.3-2.7,6-6,6h6h7.4v39.6V80c0,3.3-2.7,6-6,6h6h14.1c2.2,0,4-1.8,4-4V15.7H97
				c2.2,0,4-1.8,4-4L101,0z"/>
		</g>
		<g>
			<path class="st5" d="M79.8,34.5l6.6-14h4.1l6.1,14H98v0c0,1.8-1.4,3.2-3.2,3.2h-1.2l-1.9-4.1H85l-0.7,1.4
				c-0.8,1.7-2.6,2.7-4.5,2.7l0,0V34.5L79.8,34.5z M86.5,30.4h3.8l-1.8-4L86.5,30.4z"/>
			<path class="st5" d="M84.6,44v12.8H98v0c0,1.6-1.3,2.9-2.9,2.9H83.9c-2.2,0-4-1.8-4-4V48c0-2.2,1.8-4,4-4H84.6z"/>
			<path class="st5" d="M98,83.6L98,83.6c0,1.3-1,2.3-2.3,2.3h-3.6l-7-7.5V86h0c-2.9,0-5.3-2.3-5.3-5.2V74c0-2.9,2.4-5.2,5.3-5.2h0
				v6.5l6-6h6l-7.4,7.5l6.4,6.8H98z"/>
		</g>
	</g>
</g>
</svg>
