<?xml version="1.0" encoding="utf-8"?>
<!-- Generator: $$$/GeneralStr/196=Adobe Illustrator 27.6.0, SVG Export Plug-In . SVG Version: 6.00 Build 0)  -->
<svg version="1.1" id="圖層_1" xmlns="http://www.w3.org/2000/svg" xmlns:xlink="http://www.w3.org/1999/xlink" x="0px" y="0px"
	 viewBox="0 0 101 86" style="enable-background:new 0 0 101 86;" xml:space="preserve">
<style type="text/css">
	.st0{fill:#D8D8D8;}
	.st1{fill:none;}
	.st2{fill:#32657F;}
	.st3{fill:#D3C2BB;}
</style>
<g id="圖層_2_00000016069839023538904010000000793532640299367867_">
	<g>
		<path class="st0" d="M44.9,47.4H27.3V35.7c0-2.2,1.8-4,4-4h17.6v11.7C48.9,45.6,47.1,47.4,44.9,47.4z"/>
		<g>
			<path class="st1" d="M42.9,15.8H25.3c-3,0-5.4,2.4-5.4,5.3v42.3h28.3c4.4,0,8-3.6,8-8V15.8h-7.4H42.9z"/>
			<path class="st2" d="M56.3,80V55.3c0,4.4-3.6,8-8,8H19.9V21.1c0-2.9,2.4-5.3,5.4-5.3h17.6c3.3,0,6-2.7,6-6V0H5.4
				C2.4,0,0,2.4,0,5.3v75.3c0,3,2.4,5.4,5.4,5.4h44.9C53.6,86,56.3,83.3,56.3,80z"/>
			<path class="st3" d="M101,0H56.3h-7.4v9.8c0,3.3-2.7,6-6,6h6h7.4v39.6V80c0,3.3-2.7,6-6,6h6h14.1c2.2,0,4-1.8,4-4V15.7H97
				c2.2,0,4-1.8,4-4V0z"/>
		</g>
		<g>
			<path class="st3" d="M79.8,34.5l6.6-14h4.1l6.1,14H98l0,0c0,1.8-1.4,3.2-3.2,3.2h-1.2l-1.9-4.1H85L84.3,35
				c-0.8,1.7-2.6,2.7-4.5,2.7l0,0V34.5L79.8,34.5z M86.5,30.4h3.8l-1.8-4L86.5,30.4z"/>
			<path class="st3" d="M84.6,44v12.8H98l0,0c0,1.6-1.3,2.9-2.9,2.9H83.9c-2.2,0-4-1.8-4-4V48c0-2.2,1.8-4,4-4H84.6z"/>
			<path class="st3" d="M98,83.6L98,83.6c0,1.3-1,2.3-2.3,2.3h-3.6l-7-7.5V86l0,0c-2.9,0-5.3-2.3-5.3-5.2V74c0-2.9,2.4-5.2,5.3-5.2
				l0,0v6.5l6-6h6l-7.4,7.5l6.4,6.8C96.1,83.6,98,83.6,98,83.6z"/>
		</g>
	</g>
</g>
</svg>
