<?xml version="1.0" encoding="utf-8"?>
<!-- Generator: $$$/GeneralStr/196=Adobe Illustrator 27.6.0, SVG Export Plug-In . SVG Version: 6.00 Build 0)  -->
<svg version="1.1" id="圖層_1" xmlns="http://www.w3.org/2000/svg" xmlns:xlink="http://www.w3.org/1999/xlink" x="0px" y="0px"
	 viewBox="0 0 240 81" style="enable-background:new 0 0 240 81;" xml:space="preserve">
<style type="text/css">
	.st0{fill-rule:evenodd;clip-rule:evenodd;fill:#888888;}
</style>
<g>
	<path class="st0" d="M1.5,52.6c0-6.6,0-4.2,0-7.8c0-0.7,0.1-0.9,0.2-0.9s0.5,0.4,0.6,0.6c0.3,0.3,3,3.3,5.8,6.3
		c1.8,1.9,3.8,4.2,4.4,4.8l-0.2-9.3c0-1.2-0.1-1.6-0.7-1.7c-0.3-0.1-0.5-0.1-0.8-0.1c-0.2,0-0.3-0.1-0.3-0.1c0-0.1,0.1-0.1,0.4-0.1
		c0.8,0,1.7,0.1,1.9,0.1c0.2,0,0.8-0.1,1.6-0.1c0.2,0,0.3,0,0.3,0.1c0,0.1-0.1,0.1-0.2,0.1c-0.1,0-0.3,0-0.5,0.1
		c-0.5,0.1-0.6,0.4-0.6,1.6l0,10.7c0,1.2,0,1.3-0.2,1.3c-0.1,0-0.4-0.2-1.3-1.2C11.7,56.7,9,54.1,7.1,52c-1.6-1.7-3.2-3.5-4.8-5.2
		l0.2,8.8c0,1.5,0.2,2,0.7,2.1c0.4,0.1,0.7,0.1,0.9,0.1c0.1,0,0.1,0,0.1,0.1C4.3,57.9,4.2,58,4,58c-1,0-1.8-0.1-1.9-0.1
		S1.1,58,0.3,58c-0.2,0-0.3,0-0.3-0.1c0-0.1,0.1-0.1,0.1-0.1c0.1,0,0.5,0,0.7-0.1c0.5-0.1,0.5-0.7,0.5-2.3
		C1.5,55.3,1.5,52.6,1.5,52.6z M22.8,52.9c0.1,0,0.1-0.1,0.1-0.1l-1.4-4c-0.1-0.3-0.1-0.3-0.2,0l-1.4,4c0,0.1,0,0.1,0,0.1H22.8
		L22.8,52.9z M19.7,53.5c-0.1,0-0.1,0.1-0.2,0.1l-0.8,2.3c-0.2,0.5-0.3,1-0.3,1.3c0,0.3,0.2,0.5,0.6,0.5h0.1c0.2,0,0.2,0.1,0.2,0.1
		c0,0.1-0.1,0.1-0.3,0.1c-0.4,0-1.2-0.1-1.4-0.1c-0.2,0-1,0.1-1.8,0.1c-0.2,0-0.3,0-0.3-0.1c0-0.1,0.1-0.1,0.2-0.1
		c0.1,0,0.3,0,0.4,0c0.8-0.1,1.1-0.7,1.4-1.4l3.7-9.6c0.2-0.5,0.3-0.6,0.4-0.6c0.1,0,0.2,0.1,0.4,0.6c0.3,0.6,2.7,7,3.7,9.3
		c0.6,1.4,1.1,1.7,1.4,1.8c0.2,0.1,0.5,0.1,0.6,0.1c0.1,0,0.2,0,0.2,0.1c0,0.1-0.1,0.1-0.3,0.1c-0.2,0-1.6,0-2.8,0
		c-0.4,0-0.5,0-0.5-0.1c0-0.1,0.1-0.1,0.1-0.1c0.1,0,0.2-0.1,0.1-0.4l-1.4-3.7c0-0.1-0.1-0.1-0.1-0.1C23,53.5,19.7,53.5,19.7,53.5z
		 M33,53.4c0,1.4,0,2.7,0.1,3.4c0.1,0.4,0.1,0.7,0.5,0.8c0.2,0.1,0.6,0.1,0.7,0.1c0.1,0,0.2,0.1,0.2,0.1c0,0.1-0.1,0.1-0.2,0.1
		c-0.9,0-2-0.1-2.1-0.1c-0.1,0-1.2,0.1-1.6,0.1c-0.2,0-0.3,0-0.3-0.1c0-0.1,0.1-0.1,0.2-0.1c0.1,0,0.3,0,0.4,0
		c0.4-0.1,0.4-0.3,0.5-0.9c0.1-0.7,0.1-2,0.1-3.3v-6.5c-0.6,0-1.6,0-2.3,0c-1.2,0-1.4,0.2-1.7,0.6c-0.2,0.2-0.2,0.5-0.3,0.6
		c-0.1,0.1-0.1,0.1-0.2,0.1S27,48.1,27,48c0-0.1,0.3-1.3,0.4-1.8c0.1-0.2,0.1-0.3,0.2-0.3c0.1,0,0.5,0.2,0.8,0.2
		c0.6,0.1,1.2,0.1,1.2,0.1h6c0.5,0,1.1,0,1.3-0.1c0.2-0.1,0.3-0.1,0.4-0.1c0.1,0,0.1,0.1,0.1,0.2c0,0.5,0,1.7,0,1.9
		c0,0.2-0.1,0.2-0.1,0.2c-0.1,0-0.1-0.1-0.1-0.2c0-0.1,0-0.1,0-0.3c-0.1-0.7-0.3-0.9-2.2-0.9c-0.7,0-1.3,0-1.8,0V53.4L33,53.4z
		 M40.5,50.7c0-2.4,0-2.9,0-3.3c0-0.5-0.1-0.8-0.5-0.8c-0.2,0-0.3,0-0.4-0.1c-0.1,0-0.2-0.1-0.2-0.1c0-0.1,0.1-0.1,0.3-0.1
		c0.6,0,1.6,0.1,1.7,0.1c0.1,0,1.1-0.1,1.6-0.1c0.2,0,0.3,0,0.3,0.1c0,0.1-0.1,0.1-0.2,0.1c-0.1,0-0.2,0-0.3,0
		c-0.5,0.1-0.6,0.4-0.6,0.9c0,0.5,0,0.9,0,3.3v2.7c0,1.4,0,2.7,0.1,3.3c0.1,0.5,0.1,0.7,0.6,0.8c0.2,0.1,0.6,0.1,0.7,0.1
		c0.2,0,0.2,0.1,0.2,0.1c0,0.1-0.1,0.1-0.3,0.1c-0.9,0-2-0.1-2.1-0.1c-0.1,0-1.1,0.1-1.6,0.1c-0.2,0-0.3,0-0.3-0.1
		c0-0.1,0.1-0.1,0.2-0.1c0.1,0,0.3,0,0.4-0.1c0.3-0.1,0.4-0.4,0.4-0.9c0.1-0.7,0.1-1.9,0.1-3.3L40.5,50.7L40.5,50.7z M56.3,52.3
		c0-3.7-2.3-5.7-4.8-5.7c-2.5,0-4.6,1.6-4.6,5c0,3.6,2,6,5.1,6C53.2,57.5,56.3,56.9,56.3,52.3 M45.2,52.1c0-2.4,1.9-6.1,6.4-6.1
		c3.6,0,6.4,2.2,6.4,5.8c0,3.5-2.6,6.3-6.5,6.3C47,58.2,45.2,54.8,45.2,52.1 M60.9,46.7c0-0.6,0.1-0.7,0.2-0.7
		c0.1,0,0.4,0.4,0.6,0.5c0.2,0.2,2.7,2.8,5.3,5.4c1.4,1.4,3.3,3.3,3.7,3.7L70.5,48c0-1-0.1-1.3-0.6-1.4c-0.2,0-0.5-0.1-0.7-0.1
		c-0.2,0-0.2-0.1-0.2-0.1c0-0.1,0.1-0.1,0.3-0.1c0.8,0,1.6,0.1,1.7,0.1c0.2,0,0.7-0.1,1.5-0.1c0.2,0,0.3,0,0.3,0.1
		c0,0.1-0.1,0.1-0.2,0.1c-0.1,0-0.3,0-0.5,0.1c-0.4,0.1-0.5,0.3-0.5,1.4l0,9.2c0,0.9,0,1-0.2,1c-0.1,0-0.3-0.1-1.2-1
		c-0.1,0-2.6-2.6-4.2-4.1c-1.9-2-3.7-3.9-4.2-4.3l0.2,7.1c0,1.3,0.1,1.7,0.6,1.8c0.3,0.1,0.6,0.1,0.7,0.1s0.2,0.1,0.2,0.1
		c0,0.1-0.1,0.1-0.3,0.1c-1,0-1.6-0.1-1.8-0.1c-0.1,0-0.8,0.1-1.6,0.1c-0.2,0-0.3,0-0.3-0.1c0-0.1,0.1-0.1,0.3-0.1
		c0.1,0,0.3,0,0.6-0.1c0.4-0.1,0.5-0.6,0.5-1.9C60.9,47,61,49.8,60.9,46.7 M80.7,52.9c0.1,0,0.1-0.1,0.1-0.1l-1.4-4
		c-0.1-0.3-0.1-0.3-0.2,0l-1.4,4c0,0.1,0,0.1,0,0.1H80.7L80.7,52.9z M77.6,53.5c-0.1,0-0.1,0.1-0.2,0.1l-0.8,2.3
		c-0.2,0.5-0.3,1-0.3,1.3c0,0.3,0.2,0.5,0.6,0.5H77c0.2,0,0.2,0.1,0.2,0.1c0,0.1-0.1,0.1-0.3,0.1c-0.4,0-1.2-0.1-1.4-0.1
		c-0.2,0-1,0.1-1.8,0.1c-0.2,0-0.3,0-0.3-0.1c0-0.1,0.1-0.1,0.2-0.1c0.1,0,0.3,0,0.4,0c0.8-0.1,1.1-0.7,1.4-1.4l3.7-9.6
		c0.2-0.5,0.3-0.6,0.4-0.6c0.1,0,0.2,0.1,0.4,0.6c0.3,0.6,2.7,7,3.7,9.3c0.6,1.4,1.1,1.7,1.4,1.8c0.2,0.1,0.5,0.1,0.6,0.1
		c0.1,0,0.2,0,0.2,0.1c0,0.1-0.1,0.1-0.3,0.1c-0.2,0-1.6,0-2.8,0c-0.4,0-0.5,0-0.5-0.1c0-0.1,0.1-0.1,0.1-0.1c0.1,0,0.2-0.1,0.1-0.4
		l-1.4-3.7c0-0.1-0.1-0.1-0.1-0.1L77.6,53.5L77.6,53.5z M90,53.5c0,2.1,0.1,3.2,0.4,3.5c0.3,0.3,0.7,0.4,1.9,0.4
		c0.8,0,1.5,0,1.9-0.5c0.2-0.3,0.3-0.6,0.4-0.9c0-0.1,0.1-0.2,0.1-0.2c0.1,0,0.1,0.1,0.1,0.2c0,0.2-0.1,1.2-0.2,1.6
		c-0.1,0.4-0.1,0.5-1,0.5c-1.2,0-2.6-0.1-4.4-0.1c-0.6,0-1,0.1-1.6,0.1c-0.2,0-0.3,0-0.3-0.1c0-0.1,0.1-0.1,0.2-0.1
		c0.1,0,0.3,0,0.4,0c0.3-0.1,0.4-0.4,0.5-0.9c0.1-0.7,0.1-1.9,0.1-3.4v-2.7c0-2.4,0-2.8,0-3.3c0-0.5-0.1-0.8-0.7-0.9
		c-0.1,0-0.3,0-0.5,0c-0.1,0-0.2-0.1-0.2-0.1c0-0.1,0.1-0.1,0.3-0.1c0.8,0,1.9,0.1,1.9,0.1c0.3,0,1.4-0.1,1.9-0.1
		c0.2,0,0.2,0.1,0.2,0.1c0,0.1-0.1,0.1-0.2,0.1c-0.1,0-0.3,0-0.5,0c-0.5,0.1-0.6,0.4-0.7,0.9c0,0.5,0,0.9,0,3.3L90,53.5L90,53.5z"/>
	<g transform="translate(190.237 11.805)">
		<path class="st0" d="M-81.3,40.1c0.1,0,0.1-0.1,0.1-0.1l-1.7-4.9c-0.1-0.3-0.2-0.3-0.3,0l-1.6,4.9c0,0.1,0,0.1,0.1,0.1
			C-84.8,40.1-81.3,40.1-81.3,40.1z M-85,40.8c-0.1,0-0.1,0.1-0.2,0.1l-1.1,3.2c-0.2,0.5-0.3,0.9-0.3,1.2c0,0.4,0.4,0.5,0.7,0.5h0.2
			c0.2,0,0.2,0,0.2,0.1c0,0.1-0.2,0.1-0.3,0.1c-0.4,0-1.2-0.1-1.4-0.1c-0.2,0-1.2,0.1-2.1,0.1c-0.2,0-0.4,0-0.4-0.1
			c0-0.1,0.1-0.1,0.3-0.1c0.1,0,0.3,0,0.4,0c0.8-0.1,1.2-0.8,1.5-1.7l4.1-11.3c0.2-0.6,0.3-0.7,0.4-0.7c0.1,0,0.2,0.1,0.4,0.7
			c0.3,0.7,3.1,8.2,4.3,11c0.7,1.6,1.2,1.9,1.6,2c0.3,0.1,0.6,0.1,0.7,0.1c0.1,0,0.2,0,0.2,0.1c0,0.1-0.2,0.1-0.4,0.1
			c-0.3,0-1.6,0-2.9,0c-0.4,0-0.5,0-0.5-0.1c0-0.1,0.1-0.1,0.1-0.1c0.1,0,0.2-0.2,0.1-0.5l-1.7-4.5c0-0.1-0.1-0.1-0.2-0.1L-85,40.8
			L-85,40.8z"/>
	</g>
	<path class="st0" d="M116.4,56.4c-1.6-1.4-2-3.2-2-4.7c0-1,0.4-2.9,1.9-4.3c1-1,2.5-1.6,5-1.6c0.9,0,1.5,0.1,2.4,0.2
		c0.6,0.1,1.2,0.2,1.6,0.2c0.1,0,0.2,0.1,0.2,0.2c0,0.1-0.1,0.3-0.1,0.9c0,0.5,0,1.5,0,1.7c0,0.3-0.1,0.4-0.1,0.4
		c-0.1,0-0.1-0.1-0.1-0.4c0-0.5-0.3-1.3-0.7-1.6c-0.6-0.5-1.9-0.9-3.3-0.9c-2.1,0-3,0.6-3.6,1.1c-1.2,1.1-1.5,2.4-1.5,4.1
		c0,3.1,2.5,5.8,5.8,5.8c1.3,0,2.2-0.1,2.8-0.8c0.3-0.4,0.5-0.8,0.6-1.3c0-0.2,0.1-0.3,0.2-0.3c0.1,0,0.1,0.1,0.1,0.3
		c0,0.1-0.2,1.6-0.4,2.1c-0.1,0.3-0.2,0.4-0.4,0.5c-0.7,0.3-1.9,0.4-2.9,0.4C119.4,58.1,117.7,57.5,116.4,56.4"/>
	<path class="st0" d="M138.9,57.6c-0.1,0-0.4,0-0.6-0.1c-0.3-0.1-0.8-0.3-1.4-1.8c-1-2.3-3.5-8.8-3.8-9.4c-0.2-0.5-0.3-0.6-0.4-0.6
		c-0.1,0-0.2,0.1-0.4,0.6l-3.7,9.8c-0.3,0.8-0.6,1.4-1.4,1.5c-0.1,0-0.3,0-0.4,0c-0.1,0-0.2,0.1-0.2,0.1c0,0.1,0.1,0.1,0.3,0.1
		c0.8,0,1.6-0.1,1.8-0.1c0.2,0,1.1,0.1,1.5,0.1c0.1,0,0.3,0,0.3-0.1c0-0.1-0.1-0.1-0.2-0.1h-0.1c-0.4,0-0.6-0.1-0.6-0.5
		c0-0.3,0.1-0.8,0.3-1.3l0.8-2.3c0-0.1,0.1-0.1,0.2-0.1h3.4c0.1,0,0.1,0,0.1,0.1l1.5,3.7c0.1,0.3,0,0.4-0.1,0.4
		c-0.1,0-0.1,0.1-0.1,0.1c0,0.1,0.1,0.1,0.5,0.1c1.2,0,2.6,0,2.8,0c0.2,0,0.3,0,0.3-0.1C139.1,57.7,139,57.6,138.9,57.6z
		 M133.9,52.7h-3c0,0-0.1,0,0-0.1l1.4-4.1c0.1-0.3,0.1-0.3,0.2,0l1.5,4.1C134,52.7,134,52.7,133.9,52.7z"/>
	<path class="st0" d="M151.4,47.8c-2-2-5-1.8-6.6-1.8c-1,0-2,0.1-2.1,0.1c-0.1,0-1.2-0.1-2-0.1c-0.2,0-0.3,0-0.3,0.1
		c0,0.1,0.1,0.1,0.2,0.1c0.2,0,0.4,0,0.5,0c0.5,0.1,0.7,0.4,0.7,0.9c0,0.5,0,0.9,0,3.4v2.7c0,1.5,0,2.8-0.1,3.5
		c-0.1,0.4-0.2,0.8-0.5,0.9c-0.1,0-0.3,0.1-0.4,0.1c-0.1,0-0.2,0.1-0.2,0.1c0,0.1,0.1,0.1,0.3,0.1c0.3,0,0.7,0,1.1,0
		c0.4,0,0.6,0,0.6,0c0.1,0,0.6,0.1,1.3,0.1c0.8,0.1,1.5,0.1,2.3,0.1c2.8,0,4.2-1.1,5-1.8c0.9-0.9,1.8-2.5,1.8-4.4
		C153,49.9,152.2,48.6,151.4,47.8z M150.2,56c-1,1-2.3,1.5-3.9,1.5c-1.9,0-2.5-0.4-2.7-0.7c-0.1-0.2-0.2-0.7-0.2-1.2
		c0-0.3,0-1.7,0-3.4v-1.9c0-1.1,0-2.7,0-3.2c0-0.2,0.1-0.2,0.2-0.3c0.1-0.1,0.7-0.1,0.9-0.1c1.8,0,3.7,0.2,5.2,1.8
		c0.6,0.6,1.6,1.9,1.6,4C151.4,53.8,151,55.2,150.2,56z"/>
	<path class="st0" d="M156.2,50.5c0-2.4,0-2.9,0-3.4c0-0.5-0.2-0.8-0.7-0.9c-0.1,0-0.3,0-0.4,0c-0.1,0-0.2-0.1-0.2-0.1
		c0-0.1,0.1-0.1,0.3-0.1c0.4,0,0.9,0,1.9,0.1c0.1,0,3.4,0,3.8,0c0.4,0,0.6,0,0.7-0.1c0.1,0,0.1-0.1,0.2-0.1c0,0,0.1,0,0.1,0.1
		c0,0.1-0.1,0.4-0.1,0.8c0,0.3,0,0.6-0.1,1c0,0.2,0,0.3-0.1,0.3s-0.1-0.1-0.1-0.2c0-0.3-0.1-0.5-0.1-0.6c-0.1-0.4-0.3-0.5-1.2-0.6
		c-0.2,0-2.1,0-2.1,0c-0.1,0-0.1,0-0.1,0.1V51c0,0.1,0,0.2,0.1,0.2c0.2,0,2.1,0,2.5-0.1c0.4,0,0.7-0.1,0.9-0.3
		c0.1-0.1,0.1-0.1,0.2-0.1c0,0,0.1,0,0.1,0.1c0,0.1-0.1,0.4-0.1,1c-0.1,0.5-0.1,0.9-0.1,1.1c0,0.1-0.1,0.2-0.1,0.2
		c-0.1,0-0.1-0.1-0.1-0.2c0-0.1,0-0.3-0.1-0.4c-0.1-0.2-0.2-0.5-0.9-0.6c-0.4,0-1.9-0.1-2.2-0.1c-0.1,0-0.1,0.1-0.1,0.1v1.4
		c0,0.6,0,2.2,0,2.5c0,0.7,0.1,1,0.5,1.2c0.3,0.1,0.7,0.2,1.4,0.2c0.4,0,0.9,0,1.4-0.1c0.6-0.2,0.7-0.5,0.8-1.2
		c0-0.2,0.1-0.3,0.2-0.3c0.1,0,0.1,0.2,0.1,0.3c0,0.1-0.1,1.3-0.2,1.6c-0.1,0.4-0.2,0.4-0.8,0.4c-1.2,0-1.7,0-2.4,0
		c-0.7,0-1.5-0.1-2.2-0.1c-0.4,0-0.8,0.1-1.2,0.1c-0.2,0-0.3,0-0.3-0.1c0-0.1,0.1-0.1,0.2-0.1c0.1,0,0.2,0,0.4-0.1
		c0.3-0.1,0.6-0.3,0.6-1.5c0-0.6,0-1.4,0-2.8V50.5L156.2,50.5z"/>
	<path class="st0" d="M178.4,55.9c0.1,0.4,0.2,1.5,0.9,1.6c0.3,0.1,0.7,0.1,0.9,0.1c0.1,0,0.2,0,0.2,0.1s-0.1,0.1-0.3,0.1
		c-0.3,0-2.3-0.1-2.9-0.1c-0.4,0-0.6-0.1-0.6-0.2c0-0.1,0.1-0.1,0.2-0.2c0.1,0,0.1-0.3,0.1-0.5l-0.8-8l-3.9,8
		c-0.4,0.7-0.4,0.9-0.6,0.9c-0.1,0-0.2-0.2-0.6-0.8c-0.3-0.5-1.8-3.5-1.9-3.7c-0.1-0.2-1.9-3.8-2.1-4.2l-0.7,7.2c0,0.3,0,0.4,0,0.7
		c0,0.2,0.1,0.5,0.5,0.6c0.2,0,0.3,0,0.5,0.1c0.1,0,0.2,0.1,0.2,0.1c0,0.1-0.1,0.1-0.3,0.1c-0.6,0-1.4-0.1-1.5-0.1
		c-0.2,0-1,0.1-1.4,0.1c-0.2,0-0.3,0-0.3-0.1c0,0,0.1-0.1,0.2-0.1c0.1,0,0.1,0,0.4,0c0.4,0,0.6-0.5,0.7-1.2l1.2-10.2
		c0-0.3,0.1-0.5,0.2-0.5c0.1,0,0.1,0.1,0.3,0.3l5,9.6l4.7-9.6c0.1-0.2,0.2-0.3,0.3-0.3c0.1,0,0.2,0.2,0.2,0.5L178.4,55.9z"/>
	<path class="st0" d="M184.8,53.9c0-0.9-0.1-1.2-0.4-1.7c-0.1-0.2-2.3-3.7-2.8-4.5c-0.5-0.7-0.7-0.9-0.9-1.1
		c-0.3-0.2-0.5-0.3-0.9-0.3c-0.1,0-0.2-0.1-0.2-0.1c0-0.1,0.1-0.1,0.2-0.1c0.3,0,1.7,0.1,1.7,0.1c0.1,0,0.7-0.1,1.4-0.1
		c0.2,0,0.2,0.1,0.2,0.1c0,0.1-0.1,0.1-0.2,0.1c-0.3,0.1-0.3,0.1-0.3,0.3c0,0.2,0.1,0.4,0.2,0.6c0.2,0.5,2.7,4.4,3,4.9
		c0.3-0.7,2.4-4,2.6-4.5c0.4-0.6,0.4-0.8,0.4-1c0-0.2-0.2-0.2-0.4-0.3c-0.1,0-0.2-0.1-0.2-0.1c0-0.1,0-0.1,0.2-0.1
		c0.4,0,0.8,0.1,1.1,0.1c0.2,0,1.3-0.1,1.6-0.1c0.2,0,0.2,0.1,0.2,0.1c0,0.1-0.1,0.1-0.2,0.1c-0.4,0-0.7,0.1-0.9,0.2
		c-0.3,0.2-0.4,0.4-0.7,0.8c-1.1,1.5-2.9,4.5-3.2,5.2c-0.2,0.6-0.2,1-0.2,1.5v1.4c0,0.1,0,0.8,0,1.5c0,0.4,0.1,0.8,0.7,0.9
		c0.2,0.1,0.6,0.1,0.7,0.1c0.1,0,0.2,0.1,0.2,0.1c0,0.1-0.1,0.1-0.2,0.1c-0.9,0-2.1-0.1-2.1-0.1c0,0-1.2,0.1-1.7,0.1
		c-0.2,0-0.3-0.1-0.3-0.1c0-0.1,0.1-0.1,0.2-0.1c0.1,0,0.3,0,0.5-0.1c0.3-0.1,0.4-0.4,0.5-0.9c0.1-0.7,0.1-1.3,0.1-1.5L184.8,53.9
		L184.8,53.9z"/>
	<path class="st0" d="M199.6,49.7c0.2-1.1,0.8-3,2-4.1c0.9-0.8,1.7-1,2.3-1c0.5,0,0.9,0.1,1.2,0.4c-0.1,0.4-0.5,1.2-0.8,1.6
		l-0.3,0.1c-0.1-0.4-0.3-0.9-0.4-1.4c-0.1,0-0.1,0-0.2,0c-0.7,0-1.8,0.4-2.7,4.5h2l-0.3,0.6l-1.9,0.3c-0.4,2-0.7,3.3-1.4,6.2
		c-0.6,2.5-1.2,3.6-2.3,4.6c-0.8,0.7-1.4,0.9-2.1,0.9c-0.7,0-1.2-0.4-1.4-0.8l0.7-0.9l0.1,0c0.4,0.6,1,0.8,1.5,0.8
		c0.5,0,1.3-0.1,2-3.1c0.5-1.9,0.9-3.6,1.7-7.8l-1.5-0.3l0.3-0.5L199.6,49.7L199.6,49.7z"/>
	<path class="st0" d="M207,49.5c-2.6,0-4.8,2.7-4.8,5.6c0,1.9,1.2,3,2.5,3c2.6,0,4.8-2.8,4.8-5.5l0,0
		C209.5,50.9,208.6,49.5,207,49.5z M204.8,57.5c-0.7,0-1.3-0.5-1.3-2.1c0-2,1.3-5.3,3.3-5.3c0.9,0,1.3,0.8,1.3,2.2
		C208.2,54.5,206.6,57.5,204.8,57.5z"/>
	<path class="st0" d="M211.3,50.2c0.7-0.3,1.9-0.7,2.4-0.7l0,0c0,0.6-0.1,1.7-0.6,3.4h0.1c1.5-2.8,2.8-3.5,3.6-3.5
		c0.3,0,0.5,0.1,0.7,0.2c0,0.3-0.6,1.8-0.9,2.2l-0.3,0.1c-0.1-0.4-0.2-0.9-0.3-1.5c0,0-0.1,0-0.1,0c-0.4,0-1.6,0.9-2.9,4
		c-0.4,0.8-0.6,1.6-1.1,3.3l-1.3,0.1c1-3.2,1.8-6.4,1.9-7.2l-1.4-0.1L211.3,50.2z"/>
</g>
<g>
	<path class="st0" d="M1.7,71.4c0-3,0-3.6,0-4.2c0-0.7-0.2-1-0.8-1.1C0.7,66,0.3,66,0.2,66C0.1,66,0,66,0,65.9
		c0-0.1,0.1-0.2,0.3-0.2c0.4,0,1,0,1.4,0l0.8,0c0.1,0,4,0,4.4,0c0.4,0,0.7-0.1,0.8-0.1c0.1,0,0.2-0.1,0.3-0.1c0.1,0,0.1,0.1,0.1,0.2
		c0,0.1-0.1,0.4-0.2,0.9c0,0.2-0.1,1-0.1,1.3c0,0.1-0.1,0.2-0.1,0.2c-0.1,0-0.2-0.1-0.2-0.2c0-0.1,0-0.5-0.1-0.7
		c-0.1-0.3-0.3-0.5-1.4-0.7c-0.3,0-2.4-0.1-2.7-0.1c-0.1,0-0.1,0.1-0.1,0.2v5.4c0,0.1,0,0.2,0.1,0.2c0.2,0,2.6,0,3.1,0
		c0.5,0,0.7-0.1,0.9-0.3c0.1-0.2,0.2-0.2,0.3-0.2c0.1,0,0.1,0,0.1,0.2s-0.1,0.4-0.2,1.1c0,0.4-0.1,1.1-0.1,1.2c0,0.2,0,0.4-0.1,0.4
		c-0.1,0-0.1-0.1-0.1-0.2c0-0.2,0-0.4-0.1-0.6c-0.1-0.3-0.2-0.6-1-0.7C5.7,73,3.8,73,3.5,73c-0.1,0-0.1,0.1-0.1,0.1v1.7
		c0,0.7,0,2.9,0,3.3c0.1,1.3,0.4,1.6,2.3,1.6c0.5,0,1.4,0,1.9-0.2c0.5-0.2,0.7-0.6,0.9-1.4c0-0.2,0.1-0.3,0.2-0.3
		c0.1,0,0.1,0.2,0.1,0.3c0,0.2-0.2,1.5-0.2,1.9c-0.1,0.5-0.3,0.5-1,0.5c-1.5,0-2.5,0-3.3-0.1c-0.8,0-1.2-0.1-1.5-0.1
		c0,0-0.4,0-0.8,0c-0.4,0-0.8,0-1.1,0c-0.2,0-0.3,0-0.3-0.2c0-0.1,0-0.1,0.2-0.1c0.2,0,0.4,0,0.6-0.1C1.5,80,1.5,79.6,1.6,79
		c0.1-0.8,0.1-2.3,0.1-4.2L1.7,71.4L1.7,71.4z"/>
	<path class="st0" d="M22.2,69.8c-2-2-5.1-1.9-6.8-1.9c-1,0-2.1,0-2.3,0c-0.1,0-1.2,0-2,0c-0.2,0-0.3,0-0.3,0.1
		c0,0.1,0.1,0.1,0.1,0.1c0.2,0,0.4,0,0.6,0c0.6,0.1,0.7,0.4,0.7,0.9c0,0.5,0,1,0,3.5v2.9c0,1.6,0,2.9-0.1,3.6
		c-0.1,0.5-0.1,0.8-0.4,0.9c-0.2,0-0.4,0.1-0.5,0.1c-0.1,0-0.1,0.1-0.1,0.1c0,0.1,0.1,0.1,0.3,0.1c0.3,0,0.7,0,1,0
		c0.4,0,0.7,0,0.7,0c0.1,0,0.7,0,1.4,0.1c0.7,0,1.6,0.1,2.4,0.1c2.9,0,4.4-1.1,5.2-1.9c1-1,1.8-2.6,1.8-4.6
		C23.9,72,23.1,70.6,22.2,69.8z M20.9,78.4c-1,1-2.4,1.5-4,1.5c-2,0-2.6-0.4-2.8-0.7c-0.1-0.2-0.2-0.8-0.2-1.2c0-0.3,0-1.8,0-3.6
		l0,0V69c0-0.2,0.1-0.3,0.2-0.3c0.2-0.1,0.7-0.1,1-0.1c2,0,3.9,0.2,5.5,1.8c0.7,0.7,1.6,2,1.6,4.1C22.2,76,21.8,77.6,20.9,78.4z"/>
	<g transform="translate(86.23 59.688)">
		<path class="st0" d="M-59.4,13.1c0-2.5,0-3,0-3.5c0-0.5-0.1-0.8-0.7-0.9c-0.2,0-0.4,0-0.6,0c-0.1,0-0.1-0.1-0.1-0.1
			c0-0.1,0.1-0.1,0.3-0.1c0.8,0,1.8,0,1.9,0c0.2,0,1.2,0,1.7,0c0.2,0,0.3,0,0.3,0.1c0,0.1-0.1,0.1-0.2,0.1c-0.1,0-0.2,0-0.4,0
			c-0.4,0.1-0.5,0.4-0.6,0.9c0,0.5,0,1,0,3.5v2.3c0,2.4,0.5,3.3,1.2,4c0.8,0.7,1.6,0.9,2.5,0.9c1,0,2-0.5,2.6-1.2
			c0.8-0.9,1-2.3,1-3.9v-2.1c0-2.5,0-3,0-3.5c0-0.5-0.1-0.8-0.7-0.9c-0.2,0-0.4,0-0.6,0c-0.1,0-0.1-0.1-0.1-0.1
			c0-0.1,0.1-0.1,0.3-0.1c0.7,0,1.7,0,1.8,0c0.1,0,0.9,0,1.4,0c0.2,0,0.3,0,0.3,0.1c0,0.1-0.1,0.1-0.1,0.1c-0.1,0-0.2,0-0.4,0
			c-0.5,0.1-0.5,0.4-0.6,0.9c0,0.5,0,1,0,3.5v1.7c0,1.8-0.2,3.7-1.6,4.9c-1.2,1-2.5,1.2-3.5,1.2c-0.5,0-2.3,0-3.5-1.2
			c-0.8-0.8-1.5-1.9-1.5-4.3L-59.4,13.1L-59.4,13.1z"/>
	</g>
	<g transform="translate(128.68 58.878)">
		<path class="st0" d="M-87.1,20c-1.6-1.4-2.1-3.3-2.1-4.8c0-1.1,0.4-3,1.9-4.4c1-1,2.6-1.7,5.1-1.7c0.7,0,1.6,0.1,2.4,0.2
			c0.6,0.1,1.2,0.2,1.7,0.2c0.2,0,0.2,0.1,0.2,0.2c0,0.1,0,0.3-0.1,0.9c0,0.5,0,1.4,0,1.7c0,0.2-0.1,0.3-0.2,0.3
			c-0.1,0-0.1-0.1-0.1-0.3c0-0.6-0.3-1.3-0.7-1.6c-0.6-0.5-1.8-0.9-3.3-0.9c-2.2,0-3.2,0.6-3.8,1.1c-1.2,1.2-1.5,2.6-1.5,4.3
			c0,3.1,2.5,5.9,6.1,5.9c1.3,0,2.1-0.1,2.8-0.8c0.4-0.4,0.6-1,0.7-1.4c0-0.2,0.1-0.2,0.2-0.2c0.1,0,0.2,0.1,0.2,0.2
			s-0.2,1.5-0.4,2.1c-0.1,0.3-0.1,0.4-0.4,0.5c-0.7,0.3-1.9,0.4-3,0.4C-84.1,21.7-85.8,21.1-87.1,20"/>
	</g>
	<path class="st0" d="M59.9,75.2c0.1,0,0.1,0,0.1-0.1l-1.7-4.5c-0.1-0.2-0.2-0.2-0.3,0L56.4,75c0,0.1,0,0.1,0.1,0.1H59.9z M58,68.4
		c0.2-0.5,0.3-0.6,0.4-0.6c0.2,0,0.2,0.2,0.4,0.6c0.3,0.7,3,7.4,4,9.9c0.6,1.5,1.1,1.7,1.4,1.8c0.2,0.1,0.4,0.1,0.7,0.1
		c0.1,0,0.2,0,0.2,0.1c0,0.1-0.2,0.1-0.4,0.1c-0.2,0-1.5,0-2.7,0c-0.3,0-0.6,0-0.6-0.1c0-0.1,0-0.1,0.1-0.1c0.1,0,0.3-0.2,0.2-0.4
		l-1.5-3.7c0-0.1-0.1-0.1-0.2-0.1h-3.9c-0.1,0-0.1,0-0.2,0.1l-1,2.6c-0.2,0.4-0.2,0.8-0.2,1.1c0,0.3,0.3,0.4,0.6,0.4h0.2
		c0.1,0,0.2,0.1,0.2,0.1c0,0.1-0.1,0.1-0.2,0.1c-0.4,0-1.3-0.1-1.5-0.1c-0.2,0-1,0.1-1.7,0.1c-0.2,0-0.3,0-0.3-0.1
		c0-0.1,0.1-0.1,0.2-0.1c0.1,0,0.4,0,0.5,0c0.8-0.1,1.1-0.7,1.4-1.5L58,68.4L58,68.4z M70.3,75.6c0,1.6,0,2.9,0.1,3.5
		c0.1,0.5,0.1,0.8,0.7,0.9c0.2,0,0.6,0.1,0.8,0.1c0.1,0,0.1,0.1,0.1,0.1c0,0.1-0.1,0.1-0.3,0.1c-0.9,0-2-0.1-2.1-0.1
		c-0.1,0-1.2,0.1-1.7,0.1c-0.2,0-0.3,0-0.3-0.1c0-0.1,0-0.1,0.1-0.1c0.2,0,0.3,0,0.5-0.1c0.3-0.1,0.4-0.4,0.5-0.9
		c0.1-0.7,0.1-1.9,0.1-3.5v-6.8l-2.4,0c-1,0-1.5,0.1-1.7,0.5c-0.2,0.3-0.2,0.4-0.3,0.5c0,0.1-0.1,0.2-0.2,0.2c0,0-0.1,0-0.1-0.1
		c0-0.2,0.3-1.6,0.4-1.8c0-0.1,0.1-0.3,0.2-0.3c0.1,0,0.3,0.1,0.7,0.2c0.5,0.1,1.1,0.1,1.3,0.1h6.4c0.5,0,0.9,0,1.2-0.1
		c0.2,0,0.4-0.1,0.5-0.1c0.1,0,0.1,0.1,0.1,0.2c0,0.5-0.1,1.7-0.1,1.9c0,0.1-0.1,0.2-0.2,0.2s-0.1-0.1-0.1-0.3l0-0.2
		c-0.1-0.5-0.4-0.9-2-0.9l-2.1,0L70.3,75.6L70.3,75.6z M79.7,75.6c0,1.6,0,2.9,0.1,3.5c0.1,0.5,0.1,0.8,0.6,0.9
		c0.2,0,0.6,0.1,0.8,0.1c0.1,0,0.1,0.1,0.1,0.1c0,0.1-0.1,0.1-0.3,0.1c-0.9,0-2-0.1-2.1-0.1c-0.1,0-1.2,0.1-1.7,0.1
		c-0.2,0-0.3,0-0.3-0.1c0-0.1,0-0.1,0.1-0.1c0.2,0,0.4,0,0.5-0.1c0.3-0.1,0.4-0.4,0.4-0.9c0.1-0.7,0.1-1.9,0.1-3.5v-2.9
		c0-2.5,0-3,0-3.5c0-0.5-0.2-0.8-0.5-0.9c-0.2,0-0.3-0.1-0.5-0.1c-0.1,0-0.1-0.1-0.1-0.1c0-0.1,0.1-0.1,0.3-0.1c0.5,0,1.6,0,1.7,0
		c0.1,0,1.2,0,1.7,0c0.2,0,0.3,0,0.3,0.1c0,0.1-0.1,0.1-0.1,0.1c-0.1,0-0.2,0-0.4,0c-0.5,0.1-0.5,0.3-0.6,0.9c0,0.5,0,1,0,3.5
		L79.7,75.6L79.7,75.6z"/>
	<g transform="translate(259.035 58.878)">
		<path class="st0" d="M-169.1,21c1.5,0,4.6-0.8,4.6-5.5c0-3.9-2.4-6-5-6c-2.8,0-4.8,1.8-4.8,5.3C-174.5,18.7-172.2,21-169.1,21
			 M-169.5,9c3.8,0,6.7,2.3,6.7,6.1c0,3.6-2.7,6.6-6.8,6.6c-4.6,0-6.6-3.5-6.6-6.4C-176.2,12.7-174.2,9-169.5,9"/>
	</g>
	<path class="st0" d="M100.3,78.2c0,1.3,0.2,1.7,0.7,1.9c0.3,0.1,0.7,0.1,0.8,0.1c0.1,0,0.1,0.1,0.1,0.1c0,0.1-0.1,0.1-0.3,0.1
		c-1,0-1.6-0.1-1.8-0.1c-0.2,0-0.9,0.1-1.6,0.1c-0.2,0-0.3,0-0.3-0.1c0-0.1,0.1-0.1,0.1-0.1c0.1,0,0.4,0,0.7-0.1
		c0.4-0.1,0.5-0.5,0.5-2v-9.3c0-0.7,0.1-0.8,0.2-0.8c0.2,0,0.5,0.3,0.7,0.5c0.3,0.3,2.7,2.9,5.3,5.5c1.7,1.7,3.5,3.7,4,4.2l-0.2-8.2
		c0-1-0.1-1.4-0.6-1.5c-0.3-0.1-0.5-0.1-0.8-0.1c-0.1,0-0.1-0.1-0.1-0.2c0-0.1,0.1-0.1,0.3-0.1c0.8,0,1.6,0,1.8,0s0.7,0,1.4,0
		c0.2,0,0.3,0,0.3,0.1c0,0.1-0.1,0.2-0.2,0.2c-0.1,0-0.2,0-0.4,0c-0.5,0.1-0.6,0.4-0.6,1.4l0,9.5c0,1.1,0,1.2-0.1,1.2
		c-0.2,0-0.3-0.1-1.3-1c-0.2-0.2-2.6-2.6-4.4-4.4c-1.9-2.1-3.8-4-4.4-4.6L100.3,78.2z M120.1,75.2c0.1,0,0.1,0,0.1-0.1l-1.7-4.5
		c-0.1-0.2-0.2-0.2-0.3,0l-1.6,4.5c0,0.1,0,0.1,0.1,0.1H120.1z M118.2,68.4c0.2-0.5,0.3-0.6,0.4-0.6c0.2,0,0.2,0.2,0.4,0.6
		c0.3,0.7,3,7.4,4,9.9c0.6,1.5,1.1,1.7,1.4,1.8c0.2,0.1,0.4,0.1,0.7,0.1c0.1,0,0.2,0,0.2,0.1c0,0.1-0.2,0.1-0.4,0.1
		c-0.2,0-1.5,0-2.7,0c-0.3,0-0.6,0-0.6-0.1c0-0.1,0-0.1,0.1-0.1c0.1,0,0.3-0.2,0.2-0.4l-1.5-3.7c0-0.1-0.1-0.1-0.2-0.1h-3.9
		c-0.1,0-0.1,0-0.2,0.1l-1,2.6c-0.2,0.4-0.2,0.8-0.2,1.1c0,0.3,0.3,0.4,0.6,0.4h0.2c0.1,0,0.2,0.1,0.2,0.1c0,0.1-0.1,0.1-0.2,0.1
		c-0.4,0-1.3-0.1-1.5-0.1c-0.2,0-1,0.1-1.7,0.1c-0.2,0-0.3,0-0.3-0.1c0-0.1,0.1-0.1,0.2-0.1c0.1,0,0.4,0,0.5,0
		c0.8-0.1,1.1-0.7,1.4-1.5L118.2,68.4L118.2,68.4z M129.5,75.7c0,2.4,0,3.4,0.3,3.7c0.3,0.3,0.9,0.4,2.2,0.4c0.9,0,1.6,0,2-0.5
		c0.2-0.2,0.3-0.6,0.4-0.9c0-0.1,0.1-0.2,0.2-0.2c0.1,0,0.1,0.1,0.1,0.2c0,0.2-0.1,1.2-0.2,1.6c-0.1,0.4-0.2,0.4-1.1,0.4
		c-1.2,0-2.1,0-2.9-0.1c-0.8,0-1.3,0-1.8,0c-0.1,0-0.4,0-0.7,0c-0.3,0-0.7,0-1,0c-0.2,0-0.3,0-0.3-0.1c0-0.1,0-0.1,0.1-0.1
		c0.2,0,0.4,0,0.5-0.1c0.3-0.1,0.4-0.4,0.4-0.9c0.1-0.7,0.1-1.9,0.1-3.5v-2.9c0-2.5,0-3,0-3.5c0-0.5-0.1-0.8-0.7-0.9
		c-0.2,0-0.4,0-0.6,0c-0.1,0-0.1-0.1-0.1-0.1c0-0.1,0.1-0.1,0.3-0.1c0.8,0,1.8,0,1.9,0c0.1,0,1.3,0,1.9,0c0.2,0,0.3,0,0.3,0.1
		c0,0.1-0.1,0.1-0.1,0.1c-0.1,0-0.4,0-0.5,0c-0.5,0.1-0.6,0.3-0.6,0.9c0,0.5,0,1,0,3.5L129.5,75.7L129.5,75.7z M146.4,73.1
		c0,0.1,0,0.2,0.1,0.2c0.3,0.2,1.2,0.3,2,0.3c0.5,0,1-0.1,1.4-0.4c0.7-0.5,1.2-1.5,1.2-2.9c0-2.4-1.3-3.8-3.3-3.8
		c-0.6,0-1.1,0.1-1.3,0.1c-0.1,0-0.2,0.1-0.2,0.2V73.1L146.4,73.1z M144.9,71.5c0-3,0-3.5,0-4.1c0-0.7-0.2-1-0.8-1.1
		c-0.2,0-0.5-0.1-0.7-0.1c-0.1,0-0.2,0-0.2-0.1c0-0.1,0.1-0.2,0.3-0.2c0.9,0,2.1,0.1,2.2,0.1c0.2,0,1.7-0.1,2.3-0.1
		c1.2,0,2.5,0.1,3.5,0.8c0.5,0.3,1.3,1.3,1.3,2.6c0,1.4-0.6,2.8-2.3,4.4c1.6,2,2.9,3.7,4,4.9c1,1.1,1.9,1.3,2.3,1.4
		c0.2,0,0.5,0.1,0.7,0.1c0.1,0,0.2,0.1,0.2,0.1c0,0.1-0.1,0.2-0.5,0.2h-1.4c-1.1,0-1.6-0.1-2.1-0.4c-0.8-0.4-1.5-1.4-2.6-2.8
		c-0.8-1-1.7-2.3-2.1-2.8c-0.1-0.1-0.1-0.1-0.2-0.1l-2.4,0c-0.1,0-0.1,0.1-0.1,0.2v0.5c0,1.8,0,3.3,0.1,4.2c0.1,0.5,0.2,1,0.7,1
		c0.3,0,0.7,0.1,0.9,0.1c0.1,0,0.2,0.1,0.2,0.1c0,0.1-0.1,0.2-0.3,0.2c-1.1,0-2.3-0.1-2.4-0.1c0,0-1.2,0.1-1.8,0.1
		c-0.2,0-0.3,0-0.3-0.2c0-0.1,0-0.1,0.2-0.1c0.2,0,0.4,0,0.6-0.1c0.4-0.1,0.5-0.5,0.5-1c0.1-0.8,0.1-2.3,0.1-4.2L144.9,71.5
		L144.9,71.5z M159.9,72.8c0-2.5,0-3,0-3.5c0-0.5-0.1-0.8-0.7-0.9c-0.2,0-0.4,0-0.6,0c-0.1,0-0.1-0.1-0.1-0.1c0-0.1,0.1-0.1,0.3-0.1
		c0.8,0,1.9,0,1.9,0c0.1,0,3.6,0,4,0c0.3,0,0.6-0.1,0.8-0.1c0.1,0,0.2-0.1,0.2-0.1c0.1,0,0.1,0.1,0.1,0.2c0,0.1-0.1,0.3-0.1,0.8
		c0,0.2-0.1,0.9-0.1,1.1c0,0.1-0.1,0.2-0.2,0.2c-0.1,0-0.1-0.1-0.1-0.2c0-0.1,0-0.4-0.1-0.6c-0.1-0.3-0.3-0.4-1.2-0.5
		c-0.3,0-2.2-0.1-2.4-0.1c-0.1,0-0.1,0.1-0.1,0.2v4.4c0,0.1,0,0.2,0.1,0.2c0.2,0,2.4,0,2.8,0c0.4,0,0.7-0.1,0.8-0.2
		c0.1-0.1,0.2-0.2,0.2-0.2c0.1,0,0.1,0,0.1,0.1s-0.1,0.4-0.1,0.9c0,0.3-0.1,0.9-0.1,1c0,0.1,0,0.3-0.2,0.3c-0.1,0-0.1-0.1-0.1-0.2
		c0-0.2,0-0.3-0.1-0.5c-0.1-0.2-0.2-0.4-0.9-0.5c-0.5-0.1-2.3-0.1-2.6-0.1c-0.1,0-0.1,0.1-0.1,0.1v1.4c0,0.5,0,2.4,0,2.8
		c0,1.1,0.3,1.3,2,1.3c0.4,0,1.2,0,1.7-0.2c0.4-0.2,0.7-0.5,0.8-1.1c0-0.2,0.1-0.2,0.2-0.2s0.1,0.1,0.1,0.2s-0.1,1.2-0.2,1.6
		c-0.1,0.4-0.3,0.4-0.9,0.4c-1.3,0-2.2,0-2.9-0.1c-0.7,0-1.2,0-1.4,0c0,0-0.4,0-0.7,0c-0.3,0-0.7,0-1,0c-0.2,0-0.3,0-0.3-0.1
		c0-0.1,0-0.1,0.1-0.1c0.2,0,0.4-0.1,0.5-0.1c0.3-0.1,0.4-0.4,0.4-0.9c0.1-0.7,0.1-1.9,0.1-3.5L159.9,72.8L159.9,72.8z"/>
	<g transform="translate(517.933 58.878)">
		<path class="st0" d="M-349.3,21.3c-0.2-0.1-0.2-0.2-0.2-0.6c0-0.8,0.1-1.5,0.1-1.7c0-0.2,0-0.3,0.1-0.3s0.2,0.1,0.2,0.2
			c0,0.1,0,0.4,0.1,0.6c0.3,1.2,1.5,1.6,2.7,1.6c1.7,0,2.5-0.9,2.5-2.2c0-1.2-0.6-1.7-2.1-2.8l-0.8-0.6c-1.8-1.4-2.4-2.4-2.4-3.5
			c0-1.9,1.5-3.1,3.7-3.1c0.7,0,1.3,0.1,1.7,0.2c0.3,0.1,0.5,0.1,0.6,0.1s0.2,0,0.2,0.1c0,0.1-0.1,0.6-0.1,1.7c0,0.2,0,0.4-0.1,0.4
			c-0.1,0-0.1-0.1-0.2-0.2c0-0.2-0.2-0.6-0.2-0.8c-0.1-0.2-0.7-0.8-2.2-0.8c-1.2,0-2.2,0.6-2.2,1.8c0,1,0.5,1.6,2.2,2.8l0.5,0.3
			c2.1,1.4,2.8,2.5,2.8,3.9c0,1-0.4,2-1.6,2.8c-0.7,0.5-1.8,0.6-2.7,0.6C-347.6,21.7-348.6,21.6-349.3,21.3"/>
	</g>
	<path class="st0" d="M179.1,72.8c0-2.5,0-3,0-3.5c0-0.5-0.1-0.8-0.7-0.9c-0.2,0-0.4,0-0.6,0c-0.1,0-0.1-0.1-0.1-0.1
		c0-0.1,0.1-0.1,0.3-0.1c0.8,0,1.9,0,1.9,0c0.1,0,3.6,0,4,0c0.3,0,0.6-0.1,0.8-0.1c0.1,0,0.2-0.1,0.2-0.1c0.1,0,0.1,0.1,0.1,0.2
		c0,0.1-0.1,0.3-0.1,0.8c0,0.2-0.1,0.9-0.1,1.1c0,0.1-0.1,0.2-0.2,0.2c-0.1,0-0.1-0.1-0.1-0.2c0-0.1,0-0.4-0.1-0.6
		c-0.1-0.3-0.3-0.4-1.2-0.5c-0.3,0-2.2-0.1-2.4-0.1c-0.1,0-0.1,0.1-0.1,0.2v4.4c0,0.1,0,0.2,0.1,0.2c0.2,0,2.4,0,2.8,0
		c0.4,0,0.7-0.1,0.8-0.2c0.1-0.1,0.2-0.2,0.2-0.2c0.1,0,0.1,0,0.1,0.1s-0.1,0.4-0.1,0.9c0,0.3-0.1,0.9-0.1,1c0,0.1,0,0.3-0.2,0.3
		c-0.1,0-0.1-0.1-0.1-0.2c0-0.2,0-0.3-0.1-0.5c-0.1-0.2-0.2-0.4-0.9-0.5c-0.5-0.1-2.3-0.1-2.6-0.1c-0.1,0-0.1,0.1-0.1,0.1v1.4
		c0,0.5,0,2.4,0,2.8c0,1.1,0.3,1.3,2,1.3c0.4,0,1.2,0,1.7-0.2c0.4-0.2,0.7-0.5,0.8-1.1c0-0.2,0.1-0.2,0.2-0.2c0.1,0,0.1,0.1,0.1,0.2
		s-0.1,1.2-0.2,1.6c-0.1,0.4-0.3,0.4-0.9,0.4c-1.3,0-2.2,0-2.9-0.1c-0.7,0-1.2,0-1.4,0c0,0-0.4,0-0.7,0c-0.3,0-0.7,0-1,0
		c-0.2,0-0.3,0-0.3-0.1c0-0.1,0-0.1,0.1-0.1c0.2,0,0.4-0.1,0.5-0.1c0.3-0.1,0.4-0.4,0.4-0.9c0.1-0.7,0.1-1.9,0.1-3.5L179.1,72.8
		L179.1,72.8z M194.5,75.2c0.1,0,0.1,0,0.1-0.1l-1.7-4.5c-0.1-0.2-0.2-0.2-0.3,0l-1.6,4.5c0,0.1,0,0.1,0.1,0.1H194.5L194.5,75.2z
		 M192.7,68.4c0.2-0.5,0.3-0.6,0.4-0.6c0.2,0,0.2,0.2,0.4,0.6c0.3,0.7,3,7.4,4,9.9c0.6,1.5,1.1,1.7,1.4,1.8c0.2,0.1,0.4,0.1,0.7,0.1
		c0.1,0,0.2,0,0.2,0.1c0,0.1-0.2,0.1-0.4,0.1c-0.2,0-1.5,0-2.7,0c-0.3,0-0.6,0-0.6-0.1c0-0.1,0-0.1,0.1-0.1c0.1,0,0.3-0.2,0.2-0.4
		l-1.5-3.7c0-0.1-0.1-0.1-0.2-0.1h-3.9c-0.1,0-0.1,0-0.2,0.1l-1,2.6c-0.2,0.4-0.2,0.8-0.2,1.1c0,0.3,0.3,0.4,0.6,0.4h0.2
		c0.1,0,0.2,0.1,0.2,0.1c0,0.1-0.1,0.1-0.2,0.1c-0.4,0-1.3-0.1-1.5-0.1c-0.2,0-1,0.1-1.7,0.1c-0.2,0-0.3,0-0.3-0.1
		c0-0.1,0.1-0.1,0.2-0.1c0.1,0,0.4,0,0.5,0c0.8-0.1,1.1-0.7,1.4-1.5L192.7,68.4L192.7,68.4z M203.9,74.2c0,0.1,0,0.2,0.1,0.2
		c0.2,0.1,1.1,0.2,1.9,0.2c0.4,0,0.9,0,1.3-0.3c0.6-0.4,1-1.2,1-2.5c0-2-1.1-3.2-2.9-3.2c-0.5,0-1,0.1-1.2,0.1
		c-0.1,0-0.1,0.1-0.1,0.2L203.9,74.2L203.9,74.2z M202.4,72.8c0-2.5,0-3,0-3.5c0-0.5-0.1-0.8-0.7-0.9c-0.2,0-0.4,0-0.6,0
		c-0.1,0-0.1-0.1-0.1-0.1c0-0.1,0.1-0.1,0.3-0.1c0.8,0,1.9,0,2,0c0.2,0,1.6,0,2.1,0c1.1,0,2.3,0.1,3.1,0.7c0.4,0.3,1.2,1.1,1.2,2.2
		c0,1.2-0.5,2.4-2.1,3.7c1.4,1.7,2.6,3.2,3.5,4.2c0.9,0.9,1.5,1.1,1.9,1.1c0.3,0.1,0.5,0.1,0.6,0.1c0.1,0,0.2,0.1,0.2,0.1
		c0,0.1-0.1,0.1-0.4,0.1h-1c-1,0-1.4-0.1-1.8-0.3c-0.7-0.4-1.3-1.2-2.3-2.4c-0.7-0.9-1.5-1.9-1.8-2.4c-0.1-0.1-0.1-0.1-0.2-0.1
		l-2.1,0c-0.1,0-0.1,0-0.1,0.1v0.4c0,1.6,0,2.8,0.1,3.5c0.1,0.5,0.2,0.8,0.7,0.9c0.2,0,0.6,0.1,0.7,0.1c0.1,0,0.1,0.1,0.1,0.1
		c0,0.1-0.1,0.1-0.3,0.1c-0.9,0-2-0.1-2.1-0.1c0,0-1.2,0.1-1.7,0.1c-0.2,0-0.3,0-0.3-0.1c0-0.1,0-0.1,0.1-0.1c0.2,0,0.4,0,0.5-0.1
		c0.3-0.1,0.4-0.4,0.4-0.9c0.1-0.7,0.1-1.9,0.1-3.5L202.4,72.8L202.4,72.8z"/>
	<g transform="translate(653.718 58.878)">
		<path class="st0" d="M-438.6,20c-1.6-1.4-2.1-3.3-2.1-4.8c0-1.1,0.4-3,1.9-4.4c1-1,2.6-1.7,5.1-1.7c0.7,0,1.6,0.1,2.4,0.2
			c0.6,0.1,1.2,0.2,1.7,0.2c0.2,0,0.2,0.1,0.2,0.2c0,0.1,0,0.3-0.1,0.9c0,0.5,0,1.4,0,1.7c0,0.2-0.1,0.3-0.2,0.3
			c-0.1,0-0.1-0.1-0.1-0.3c0-0.6-0.3-1.3-0.7-1.6c-0.6-0.5-1.8-0.9-3.3-0.9c-2.2,0-3.2,0.6-3.8,1.1c-1.2,1.2-1.5,2.6-1.5,4.3
			c0,3.1,2.5,5.9,6.1,5.9c1.3,0,2.1-0.1,2.8-0.8c0.4-0.4,0.6-1,0.7-1.4c0-0.2,0.1-0.2,0.2-0.2c0.1,0,0.2,0.1,0.2,0.2
			s-0.2,1.5-0.4,2.1c-0.1,0.3-0.1,0.4-0.4,0.5c-0.7,0.3-1.9,0.4-3,0.4C-435.6,21.7-437.3,21.1-438.6,20"/>
	</g>
	<path class="st0" d="M238.4,75.6c0,1.6,0,2.9,0.1,3.5c0.1,0.5,0.1,0.8,0.6,0.9c0.2,0,0.6,0.1,0.7,0.1c0.1,0,0.2,0.1,0.2,0.1
		c0,0.1-0.1,0.1-0.3,0.1c-0.9,0-2-0.1-2.1-0.1c-0.1,0-1.2,0.1-1.7,0.1c-0.2,0-0.3,0-0.3-0.1c0-0.1,0-0.1,0.1-0.1
		c0.2,0,0.3,0,0.5-0.1c0.3-0.1,0.4-0.4,0.5-0.9c0.1-0.7,0.1-1.9,0.1-3.5v-1.6c0-0.1,0-0.1-0.1-0.1h-7c-0.1,0-0.1,0-0.1,0.1v1.6
		c0,1.6,0,2.8,0.1,3.5c0.1,0.5,0.1,0.8,0.6,0.9c0.2,0,0.6,0.1,0.8,0.1c0.1,0,0.1,0.1,0.1,0.1c0,0.1-0.1,0.1-0.3,0.1
		c-0.9,0-2-0.1-2.1-0.1c-0.1,0-1.2,0.1-1.7,0.1c-0.2,0-0.3,0-0.3-0.1c0-0.1,0-0.1,0.1-0.1c0.2,0,0.4,0,0.5-0.1
		c0.3-0.1,0.4-0.4,0.4-0.9c0.1-0.7,0.1-1.9,0.1-3.5v-2.9c0-2.5,0-3,0-3.5c0-0.5-0.1-0.8-0.7-0.9c-0.2,0-0.4,0-0.6,0
		c-0.1,0-0.1-0.1-0.1-0.1c0-0.1,0.1-0.1,0.3-0.1c0.8,0,1.8,0,1.9,0c0.1,0,1.2,0,1.7,0c0.2,0,0.3,0,0.3,0.1c0,0.1-0.1,0.1-0.1,0.1
		c-0.1,0-0.2,0-0.4,0c-0.5,0.1-0.5,0.3-0.6,0.9c0,0.5,0,1,0,3.5v0.3c0,0.1,0,0.1,0.1,0.1h7c0.1,0,0.1,0,0.1-0.1v-0.4
		c0-2.5,0-3,0-3.5c0-0.5-0.1-0.8-0.7-0.9c-0.2,0-0.4,0-0.6,0c-0.1,0-0.1-0.1-0.1-0.1c0-0.1,0.1-0.1,0.3-0.1c0.7,0,1.8,0,1.9,0
		c0.1,0,1.2,0,1.7,0c0.2,0,0.3,0,0.3,0.1c0,0.1-0.1,0.1-0.2,0.1c-0.1,0-0.2,0-0.4,0c-0.4,0.1-0.5,0.3-0.6,0.9c0,0.5,0,1,0,3.5
		L238.4,75.6L238.4,75.6z"/>
</g>
<g>
	<g transform="translate(0 .928)">
		<path class="st0" d="M18.7,17.9c-0.4,0.5-0.8,1-1.2,1.5c0.8,0.2,2,0.4,2.9,0.2C19.7,19.2,19.4,18.4,18.7,17.9 M9.4,14.4
			C10,14.7,11,15,11.8,15c0.6-0.1,0.9-0.6,0.9-1.2c0-1.1-0.5-2.2-1.2-2.4C11.1,12.6,10,13.3,9.4,14.4 M23.1,6
			c0.3,0.4,0.9,0.9,0.8,1.7c0,0.6-0.4,0.8-0.6,1.3c0.5,0.6-0.6,0.6-0.2,1c-1.1,0.9-3,1.1-4.8,1.1c0.1,1,0.4,1.7,0.6,2.5
			c1-0.9,1.7-2.2,3.5-2.4c1,1.2-0.2,2.3-0.9,3.2c-0.5,0.6-0.9,1.2-1.3,1.7c0.6,1,1.2,2,2,2.8c-0.2,0.2,0,0.4,0,0.5
			c0,0.2-0.2,0.1-0.2,0.3c0.4,0.4,1.1,0.1,1.7,0.1c0.5,0,1,0.1,1.4,0.3c-0.1,0.3,0,0.6,0,1c-0.6,0.1-1.1,0.5-1.7,0.6
			c-0.2,0-0.4-0.1-0.7,0c-0.6,0-1.2,0.1-1.8,0.1c-2.3,0-4.4,0.2-6.5,0.1c-0.7,0-1.3,0.1-1.9,0.1c-1.8,0.1-3.6-0.1-5.3-0.1
			c-1,0-1.9-0.1-2.7-0.1c-0.1,0.7,0.2,1.1,0.3,1.7C6.2,23.2,7.3,24,8.5,24c0.5,0,1.2-0.1,1.7-0.3c0.2-0.1,0.4-0.2,0.6-0.2
			c0.2,0,0.4,0.1,0.6,0.1c0.2,0,0.3-0.1,0.5-0.1c0.7,0,1.5,0.6,2.2,0.7c1.2,0.1,2.3-0.2,3.5,0c0.8-0.5,1.7,0.1,2.6,0.2
			c0.8,0,1.5-0.3,2.3-0.2c0.2,0,0.4,0.1,0.6,0.1c0.6,0,1.2-0.3,1.8-0.3c0.8-1.9,0.3-4.3,0.3-6.6c0-1.9-0.2-3.8,0-5.7
			c0.1-0.6,0.2-1.2,0.2-1.7c0-0.9-0.3-1.7-0.2-2.7c0-0.4,0.2-0.9,0.2-1.3C24.9,6.1,23.9,6.1,23.1,6 M18.9,5.5c-1.9,0-4.3,0-6.1,0.5
			c-0.3-0.4-0.9,0-1.4,0.1c-0.6,0-1.2-0.2-1.9-0.2c-0.4,0-0.8,0.1-1.2,0.1c-0.6,0-1.1-0.2-1.7-0.2c-0.9,0-1.8,0.1-2.6,0.2
			c0.2,0.8,0.4,1.5,0.3,2.4c-0.1,0.7-0.5,1.5-0.5,2c0,0.4,0.3,0.9,0.4,1.3c0,0.3,0,0.7,0,1C4.1,13.8,4.1,15,4,16.2
			c0,0.2-0.1,0.5-0.1,0.7c0,0.6,0.3,1.2,0.1,1.8c0.6-0.1,1.2-0.3,1.8-0.2c0.5,0.1,0.9,0.4,1.3,0.4c0.4,0.1,0.9-0.1,1.4,0
			c0.3,0,0.7,0.2,1,0.2c1.8,0.3,3.6,0.6,5.2,0.1c0.6-1.5,1.7-2.5,2.5-3.8c-0.6-1.4-1.3-2.7-1.8-4.2h-0.7c0.1,1.1,0.5,2.5,0.1,3.6
			c-0.1,0.4-0.7,1.4-0.9,1.6c-0.1,0.1-0.4,0.2-0.7,0.3C13.1,16.8,13,17,12.8,17c-0.5,0.1-1.2-0.2-1.7-0.1c-0.4,0-0.7,0.2-1.1,0.2
			c-0.8,0-1.5-0.2-2.1-0.5c-0.8,0.6-2.1,0.1-2.5-0.5c-0.2-0.6,0-1.3,0.4-1.6c0.2-0.1,0.4-0.1,0.6-0.2c1.3-0.6,2-1.7,2.6-3
			c-0.8-0.6-2.4-0.2-2.9-1C5.9,10,5.7,9.2,5.8,8.8c0.1-0.3,0.9-1.1,1.5-1.4c0.4-0.1,0.8-0.2,1.2-0.1C9.2,7.3,9.4,7.9,10,8.2
			c0.5,0.2,1.2,0,1.8,0.1c0.6,0.1,1.2,0.3,1.9,0.3c0.5,0,0.9-0.2,1.4-0.1c0.2-0.5,0-1.2,0.2-1.7c0.1-0.2,0.4-0.4,0.6-0.5
			c0.7-0.5,1-0.4,1.4,0.3c0.3,0.6,0.7,1.2,0.6,2.1C18.9,8.7,20,9,21.1,8.8c0.2-0.4,0.4-0.9,0.2-1.4c-0.1-0.3-0.6-0.3-0.7-0.7
			c0.2-0.2,0.8-0.6,0.7-0.8C20.6,5.7,19.6,5.8,18.9,5.5 M0,6.1v-1c0.1-0.6,0.3-1,0.6-1.5c0.3-0.4,0.5-1,0.8-1.3
			c0.5-0.7,1.5-1.6,2.5-1.7c1.2,0,1.4,0.9,2.2,1.1c0.4,0.1,0.9,0,1.4,0c0.8,0.1,1.5,0.6,2.3,0.8c0.9,0.2,1.8,0.4,2.7,0.5
			c2.1-0.9,4.6-0.3,7-0.2c1.3,0.1,2.5,0,3.7,0.2c1.2,0.2,2.3,0.4,3.5,0.4c0.2-0.3,0.7-0.2,0.7-0.7c0.3-0.1,0.5-0.5,0.9-0.5
			c0.6,0,1.6,1.2,1.6,1.8c0,0.5-0.4,1-0.5,1.7c-0.1,0.3-0.1,0.6-0.1,0.9c-0.1,0.3-0.3,0.6-0.3,0.9c0,0.7,0.1,1.5,0.2,2.2
			c0,0.7-0.1,1.3-0.2,2.1c-0.4,2.2-0.3,4.5-0.5,6.7c-0.1,0.7,0.1,1.3,0.1,2c0,0.3-0.1,0.7-0.1,1.1c0,0.1-0.1,0.3-0.1,0.5
			c0,0.2,0.1,0.3,0.1,0.5c-0.1,0.6-0.4,1.2-0.5,1.8c0,0.3,0.1,0.5,0.1,0.9c-0.5,0.6-1,1.2-1.7,1.4c-1.2,0.4-2.9,0.3-4.4,0.3
			c-0.7,0-1.5,0.1-2.3,0.1c-0.8,0-1.6-0.2-2.3-0.2c-0.7,0-1.4,0-2,0c-0.1,0-0.2-0.1-0.3-0.1c-0.1,0-0.4,0.1-0.6,0.1
			c-0.7,0.1-1.4,0.1-2.1,0.1c-0.5,0-0.9-0.3-1.5-0.3c-0.9,0-1.6,0.2-2.4,0.3c-1.1,0.2-2.4-0.1-3.4,0.1c-0.6,0.1-1,0.4-1.4,0.3
			c-0.6-0.1-1.1-0.7-1.2-1.4c0-0.2-0.1-0.2-0.1-0.4c-0.1-0.4,0.1-0.6,0.1-0.9c0-0.3-0.4-0.9-0.5-1.2C1.3,22.1,1,20.8,1,19.1
			c0-1.1-0.1-2.1,0-3.2C1,14.8,1,13.7,1,12.6c0-0.6-0.3-1.2-0.3-1.8c-0.1-0.6,0-1.1,0.1-1.8C0.9,7.9,0.3,7,0,6.1"/>
	</g>
	<path class="st0" d="M74.5,15c0.3,0.3,0.5,0.8,0.8,1.2c0.3-0.4,0.5-0.8,0.8-1.2C75.6,14.9,74.9,14.8,74.5,15 M75.2,6.6
		c-0.2,0.5-0.4,1.1-0.4,1.8c0.3,0.1,0.5,0.2,0.8,0.2c0.2-0.7,0.4-1.4,0.5-2.2C75.8,6.5,75.5,6.6,75.2,6.6 M75.2,4
		c0.1,0.1,0.3,0.2,0.4,0.2c0.5,0,0.7-0.3,1.2-0.3c0.2-0.4,0.5-0.7,0.5-1.2c0.3-0.1,0.7-0.2,1.2-0.1c0.4,0.2,0.6,0.5,0.6,1.2
		c0,0.4,0,1,0,1.3c-0.1,0.5-0.5,1.2-0.7,1.8c-0.3,0.7-0.6,1.2-0.7,1.8c0.6,0.4,1.6-0.4,2.1,0.2c0.4,1.3-0.7,2-2,2.1
		c-1.5,0.2-3.4,0.2-4.5-0.2c-0.4,0.3-1-0.2-1.4,0.1c-0.1,0.6,0.1,1.2,0,1.8c0,0.1-0.1,0.3-0.2,0.4c-0.2,0.9-0.1,1.7-0.2,2.6
		c-0.1,0.9-0.7,1.7-0.5,2.7c0.6-0.2,0.9-0.7,1.7-0.5c0.4,0.1,0.8,0.6,1.3,0.6c-0.2-0.7-0.6-1.3-1.1-2c-0.2-0.4-0.6-0.6-0.7-1
		c-0.2-0.8,0.2-1.5,0.4-2.2c1-1.4,3.3-0.4,4.5,0.1c0.3-0.2,0.3-0.4,0.6-0.5c0.6-0.1,1.3,0.7,1.2,1.3c-0.1,0.3-0.5,0.7-0.7,1
		c-0.2,0.3-0.2,0.6-0.4,0.8c-0.2,0.3-0.6,0.5-0.8,0.7c-0.2,0.2-0.2,0.5-0.4,0.6c-0.2,0.2-0.5,0.2-0.6,0.4c-0.1,0.3,0,0.7,0.1,1
		c0.4,0.1,0.8,0.3,1.3,0.3c0.5,0,0.9-0.4,1.4-0.4c0.2,0.3,0.3,0.6,0.6,0.8c0,0.2-0.3,0.2-0.1,0.4c-0.5,0.3-0.9,0.9-1.6,1.1
		c-0.5,0.2-1.1,0-1.6,0.4c-0.3,3.6-1.6,6.3-5.4,6.5c-0.5-0.2-1.5-0.6-1.3-1.5c0,0,0.1-0.2,0.1-0.2c0.4-0.4,1.2-0.1,1.8-0.3
		c2-0.5,2.8-2.2,2.8-4.7c-1-0.5-2.8,0.1-3.7-0.5c-0.8,1.8-3.2,3.2-5.8,2.3c-0.4-0.5-1.2-1.3-0.9-2.2c0.2-0.5,0.7-0.6,1.2-0.8
		c0.2,0.2,0.5,0.4,0.8,0.5c2.1,0.3,3.3-1,3.7-3.2c0.3-2,0.3-4.4-0.3-6c-1.2-0.4-2.2-0.1-3.4,0c-0.1-0.1-0.2-0.2-0.3-0.3
		c0.2-0.9-0.2-1.9,0.4-2.6C66.1,8,66.3,8,66.5,7.9c0.6-0.3,1.5-1,2.3-0.5c0.2,0.1,0.2,0.3,0.5,0.4C69.5,7.9,69.8,8,70,8.1
		c0.6,0.3,1.1,0.5,2,0.4c0.2-0.5,0.1-1.3,0.1-1.9c-0.8-0.1-1.7-0.2-2.4-0.3c-0.3,0-0.6,0-0.8-0.1c-0.2-0.1-0.4-0.4-0.6-0.4
		c-0.2,0-0.4,0.1-0.5,0.1c-0.3,0-0.4-0.2-0.6-0.2c-0.3-0.9-0.1-2.2,0.4-2.9c0.2-0.3,0.9-0.7,1.3-0.8c0.4-0.1,0.8,0.1,1.2,0.1
		c0.2,0,0.4-0.2,0.7-0.2C70.9,2.1,71,2.6,71,3c0.3,0.3,0.9,0.4,1.3,0.6c0-1.5,0.2-2.9,1.1-3.5c0.2-0.1,0.2,0.1,0.4,0.1
		c0.2,0,0.3-0.3,0.7-0.2c0.4,0.2,0.7,1.6,0.8,2.2C75.3,2.9,75.2,3.6,75.2,4"/>
	<path class="st0" d="M84.5,10.4c-0.4-0.7-1.7-0.4-2.1,0.1c0.5,0.8,0.9,1.6,1.3,2.5c0.2,0.5,0.3,0.9,0.5,1.4
		c0.2,0.4,0.5,0.8,0.6,1.2c0.1,0.2,0.1,0.6,0.3,0.7c0.2-1.8,0.8-3.7,0.5-5.6C85.2,10.6,84.8,10.5,84.5,10.4 M85.3,7.6
		c0.3,0.3,0.7,0.4,1.2,0.6c0.7,0.3,1.5,0.7,2.3,0.9c0.7,0.1,1.6,0.2,2.2,0c0.2-0.1,0.4-0.4,0.6-0.4c0.6-0.1,0.6,0.8,0.3,1.2
		c-0.6,1-2,1.6-3.7,1.6c-0.2,0.9-0.7,2-0.6,2.9c0,0.2-0.1,0.1-0.2,0.3c0.1,1.4-0.8,2.2-0.5,3.9c-0.6,0.7-0.1,1.3,0.2,2.2
		c0.5,1.2,1.3,2.9,1.9,3.8c0.4,0.6,1.3,1.3,1.9,1.5c0.8,0.2,1.7,0.1,2-0.4c0.2-0.3,0.3-1,0.6-1c0.5,0,0.4,1.4,0.2,1.9
		c-0.3,0.8-0.6,1.1-1.4,1.5c-1,0.5-3.4,1.2-4.5,0.2c-0.7-0.7-1-1.9-1.4-3c-0.4-1.1-1-1.9-1.3-3c-1.2,0.7-2.5,1.9-4.3,2.2
		c-0.8,0.1-1.6-0.2-2.6-0.2c-0.2-0.2-0.4-0.3-0.6-0.4c-0.2-0.5-0.2-1-0.2-1.7c0.1-0.2,0.4-0.3,0.6-0.5c1.8,0.4,3.9,0.2,5-0.8
		c0.3-0.2,0.9-0.9,0.9-1.3c0-0.3-0.5-1-0.7-1.4c-0.3-0.5-0.5-1-0.7-1.4c-0.4-1-0.8-2.3-1.2-3.1c-0.3-0.5-0.5-0.9-0.7-1.5
		c-0.1-0.3-0.3-0.5-0.3-0.7c0-0.5,0.6-0.8,0.6-1.2c-0.2-0.1-0.5-0.1-0.7-0.3c-0.2-0.3-0.2-0.9-0.1-1.2c0.1-0.1,0.2-0.2,0.3-0.3
		C80.9,8.2,80.9,8,81,8c0.2-0.1,0.4-0.1,0.6-0.2c1.1-0.4,2.3-1.9,2-3.3c-0.1-0.2-0.3-0.5-0.2-0.9c0-0.4,0.6-0.5,0.7-1.1
		c1-0.5,2.2,0.5,2.4,1.4C86.9,5.4,85.6,6.8,85.3,7.6 M50.1,4.4c0.8-0.1,1.8,0,2.6,0c0.2,0,0.5-0.1,0.7-0.1c0.3,0,0.6,0.3,0.9,0.3
		c0.5,0.1,1.1,0,1.7,0c0.7,0.1,1.2,0.3,1.8,0.2c0.1,0,0.2-0.2,0.4-0.2c0.2-0.1,0.3,0,0.5-0.1c0.5-0.2,1.2-0.8,2-0.4
		c0.4,0.2,0.9,1,0.7,1.7c-0.1,0.4-0.5,0.6-0.8,1C60,8,60.3,9.5,60,10.8c0,0.2-0.1-0.1-0.2,0.1c0,1.4-0.9,2.4-2,2.8
		c-0.2-0.1-0.5-0.1-0.7-0.2c-0.5-0.5-0.1-1.4,0.1-1.9c0.4-1.3,0.1-2.9,0.3-4.4C56,6.9,54.4,6.9,53,6.6c-0.5-0.1-0.9-0.3-1.4-0.3
		c-1-0.1-1.8,0.3-2.6,0.6c-0.7,0-1.4-0.4-2.2-0.3c-0.2,0-0.4,0.2-0.6,0.3c-0.9,0.3-1.9,0.4-3.1,0.4c-0.7,0.1-1.5,0.2-2.3,0.2
		c-1.1-0.1-2.1-0.5-3.1-0.3c0.2,1.7-0.3,4.1,0.4,5.4c-0.3,0.3-0.2,0.9-0.6,1.1c-0.2,0.1,0.2,0.2,0,0.3c-0.2-0.1-0.4,0-0.6-0.1
		c-0.5-0.6-1.5-1.4-1.7-2.6c0-0.3,0-0.5,0-0.9C35.2,10.1,35,9.7,35,9.2c0-0.2,0.1-0.4,0.1-0.6c0-0.8-0.9-1.3-1.1-2.1
		c-0.3-1.2,0.3-2.5,1-2.9c0.9-0.6,3-0.6,3.4,0.6c0.8,0.1,1.4,0.2,2,0.4c0.6,0.2,1.1,0.6,1.8,0.6C42.6,5.2,43,5,43.6,5
		c1,0,2.5,0,2.9-0.7c0.1-0.3,0.1-0.7,0-0.9c-0.3-0.5-1.2-0.3-1.2-1c0-0.3,0.2-0.7,0.4-1c0.6-0.8,1.3-1.4,2.7-0.9
		c0.4,0.2,1,0.5,1.3,0.7C50.5,1.9,50.5,3.4,50.1,4.4"/>
	<path class="st0" d="M53.9,10.1c0.7,0.2,0.7,1.2,0.3,1.7c-0.6,0-1,0.5-1.5,0.7c-1.6,0.4-3.7-0.2-5.3,0.2c0.1,1.3,0.6,2.2,1.2,3.1
		c0.7-0.2,1.3,0,1.9,0.3c0.3,0.2,0.5,0.5,0.8,0.5c0.3,0,0.6-0.3,0.9-0.4c0.8-0.4,1.5-1.1,2-1.8c-0.1-0.3-0.1-0.8,0-1
		c0.6-0.1,0.8-0.6,1.5-0.5c0.6,0.1,1.7,1.3,1.6,2.4c-0.1,0.6-0.5,0.6-1.1,0.9c-0.5,0.2-0.9,0.8-1.4,1c-0.3,0.7-1.5,0.8-2.1,1.4
		c0.1,0.7,0.6,1.2,1,1.7c0.8,1.1,1.6,2.1,2.4,3.2c0.5,0.7,1,1.3,1.7,1.7c0.9,0.5,2.5,1,3.7,0.4c0.2-0.1,0.5-0.7,0.8-0.7
		c0.4,0,0.8,0.8,0.7,1.4c0,0.2-0.2,0.4-0.5,0.7c-0.5,0.5-1.3,1.4-2.3,1.5c-0.2,0-0.5-0.1-0.7-0.1c-0.5,0-0.9,0.1-1.4,0.1
		c-0.3,0-0.6-0.2-0.9-0.1c-0.4-0.3-1-0.4-1.4-0.7c-0.3-0.3-0.5-0.7-0.7-1.1c-0.3-0.4-0.5-0.8-0.8-1.1c-0.8-1-1.6-2-2.3-3.1
		c-0.7-1-1.6-2-2.2-3.3c0.6,2.4,0,4.9-0.9,6.5c-0.9,1.7-2.4,3-4.3,3.4c-0.5-0.2-1-0.8-0.8-1.5c0-0.1,0.2-0.2,0.4-0.4
		c0.3-0.2,0.4-0.5,0.8-0.5c1.5-1.5,3.1-3.8,2.3-6.8c-0.4,0.3-0.7,0.7-1,1.1c-0.3,0.4-0.6,0.8-0.9,1.2c-0.7,0.3-1.4,0.9-2.1,1.5
		c-1.4,1-3,1.8-4.7,2.5c-1.2,0.5-2.4,1.2-4.1,1c-0.4-0.1-1.4-1-1.3-1.6c0-0.2,0.5-0.7,0.8-0.7c0.3-0.1,0.7,0,1-0.1
		c0.9-0.1,1.6-0.4,2.3-0.7c1.7-0.5,3.2-0.9,4.6-1.8c0.4-0.3,0.9-0.7,1.3-1.1c0.4-0.4,0.9-0.7,1.2-1.1c0.4-0.5,0.7-1,1.1-1.5
		c0.3-0.4,1-0.9,0.7-1.6c-0.4,0-0.8,0.2-1.2,0.5c-0.2,0.2-0.3,0.4-0.5,0.6c-0.2,0.2-0.6,0.3-1,0.6c-0.3,0.2-0.6,0.5-0.9,0.6
		c-0.1,0.1-0.3,0.1-0.5,0.1c-0.5,0.2-1,0.6-1.6,0.9c-1.1,0.6-2,1.2-3.4,1.6c-0.9,0.3-2,0.4-2.8,0.3c-0.3-0.3-0.8-0.4-1-0.7
		c-0.3-0.6,0.1-1,0.5-1.4c2,0.1,3.5-0.6,4.9-1.3c0.7-0.3,1.5-0.5,2-0.8c0.4-0.2,0.9-0.6,1.3-0.9c0.5-0.3,1-0.5,1.4-0.8
		c0.3-0.2,0.5-0.5,0.7-0.8c0.2-0.3,0.5-0.5,0.6-0.8c-0.1-0.2-0.2-0.4-0.3-0.6c-1.1,0.3-2,1.2-3,1.8c-1,0.5-2.1,1-3.2,1.3
		c-1,0.3-1.7,0.5-2.7,0.3c-1-0.2-1.8-0.5-1.7-1.8c0.3-0.4,0.8-0.5,1.1-0.9c3.1,0.2,6.2-0.5,7.8-2.1c-0.5,0-0.9-0.4-1.5-0.5
		c-0.2,0-0.5,0.1-0.7,0c-1.1-0.4-0.2-1.7,0.2-2.5c0.5-0.1,0.9-0.5,1.4-0.6c0.6-0.1,1.1,0.2,1.7,0.2c0.2,0.3,0.5,0.6,0.8,0.9
		c0.9,0.1,1.9,0.5,3,0.5c0.5,0,0.9-0.1,1.4-0.2c0.7-0.1,1.5-0.1,2.1,0c0.4,0,0.8,0.2,1.2,0.2C52.9,10.5,53.4,10.1,53.9,10.1
		 M131.5,7.7c0,0.9-0.3,1.8-0.3,2.7c-0.1,0.7,0.1,1.5,0,2.2c0,0.3-0.1,0.6-0.2,0.9c-0.1,0.9,0,1.7-0.2,2.6c-0.1,0.7-0.3,1.6-0.5,2.3
		c-0.1,0.4-0.4,0.8-0.6,1.2c-0.5,0.9-0.8,1.4-1.6,2.1c-0.3,0.3-0.6,0.7-0.9,1c-0.4,0.3-1.4,1.1-2.1,1.1c-0.7,0-1.3-0.8-1.6-1.5
		c-0.1-0.3-0.2-0.6-0.2-0.8c0.1-0.4,0.7-0.2,0.9-0.6c0.4-0.1,1-0.1,1.4-0.2c1.3-0.6,2.7-2.1,3-3.9c0.4-1.9,0.6-4.2,0.4-6.3
		c-0.1-1.2-0.8-2.2-1.2-3.1c-0.4-1.9,0.7-3.3,1.8-3.9c1.2-0.5,1.8,1,2.4,1.3c0.3,0.2,0.9,0.1,1.5,0.3c0.2,0.1,0.4,0.2,0.6,0.3
		c0.5,0.1,1.1,0,1.6,0c0.6,0.1,1.2,0.2,1.8-0.1c0.2-0.1,0.4-0.6,0.8-0.5c0.2,0.1,0.3,0.8,0.2,1.1c-0.1,0.2-0.3,0.3-0.5,0.5
		c-0.2,0.2-0.3,0.5-0.5,0.6c-0.1,0.1-0.4,0.2-0.6,0.4c-0.4,0.3-0.7,0.5-1.4,0.6C134.3,8,132.8,7.6,131.5,7.7"/>
	<g transform="translate(114.72 2.58)">
		<path class="st0" d="M31.3,5.4c-0.1,1.5,0,2.8-0.3,4.2c0.4,0.1,0.8,0.2,1.3,0.3c1,0.2,1.6,0.3,2.4,0c0-0.5,0.3-1,0.2-1.6
			c0-0.5-0.3-0.9-0.3-1.5c0-0.6,0.1-0.9,0.1-1.3C33.5,5.5,32.3,5.2,31.3,5.4 M37.3,5.5c0,0.5-0.2,0.9-0.2,1.4c0,0.4,0.2,0.8,0.2,1.3
			c0,0.6-0.1,1.2-0.1,1.9c0.4,0.1,0.7,0.3,1.3,0.4c1,0.1,2.1-0.7,2.2,0.4c0.1,0.7-0.5,1.3-1.1,1.5c-0.7,0.3-1.7,0.2-2.5,0.3
			c-0.3,3.6-0.1,7.9,0,11.7c0,0.9,0.4,2.2,0.1,2.8c-0.1,0.4-1.2,0.8-1.7,0.6c-0.5-0.2-0.3-1.1-0.5-1.8c-0.1-0.4-0.2-0.7-0.2-0.9
			c0-0.3,0.1-0.6,0.1-0.8c0-0.3-0.1-0.6-0.1-0.9c0-0.5,0-1,0.1-1.6c0-1-0.1-2.1-0.1-3.2c0-1.2-0.2-2.3-0.1-3.3c0.1-1,0.3-1.9,0-2.8
			c-1.3,0-2.3-0.4-3.6-0.4c-0.6,2-0.8,4.5-1.7,6.2c-0.2,0.3-0.4,0.5-0.5,0.8c-0.2,0.3-0.3,0.6-0.5,0.8c-0.9,1.1-2.2,1.9-4,2.3
			c-0.8,0.2-1.6,0.2-2.3-0.3c-0.5-0.3-0.7-1.1-0.6-1.7c0.3-0.5,1-0.2,1.6-0.1c0.8,0,1.4-0.2,2-0.5c0.2-0.1,0.3-0.3,0.5-0.3
			c0.3-0.3,0.7-0.4,1-0.6c0.3-0.3,0.6-0.9,0.9-1.4c0.8-1.3,1-3.1,1.2-5.1c-0.3,0-0.5,0-0.8,0c-0.4,0-0.9-0.3-1.3-0.3
			c-0.6,0-0.8,0.9-1.5,0.7c-0.3-0.1-0.5-1.1-0.4-1.6c0-1,1.3-2.5,2.3-2.5c0.7,0,1.1,0.5,1.6,0.9C29,8.2,29,6.2,28.5,5.2
			c-0.7-0.2-1.4-0.4-1.9-0.7C25.9,4.8,25,5,24.8,4.1c-0.1-0.5,0-1.8,0.3-2.1c0.4-0.4,0.9-1.1,1.5-1.2c0.6-0.1,1,0.1,1.7,0.2
			c0.6,1.3,2.6,1.2,3.9,1.7c0.9-0.4,2,0.1,3.1,0.1c0.4,0,0.8-0.1,1.2-0.1c1,0.1,1.9,0.3,2.7,0.2c0.4-0.1,0.8-0.4,1.2-0.5
			c0.5,0,0.8,0.4,0.9,0.7C40.7,4.7,39.4,5.5,37.3,5.5"/>
	</g>
	<path class="st0" d="M134.5,14.7c-0.2,1.1-0.4,2.2-0.5,3.2c0.6,0.2,1.5,0.4,2.3,0.2c0.1-1.1,0.2-2.2,0.2-3.3
		C135.8,14.7,135.1,14.7,134.5,14.7 M132.3,20.7c-0.9-0.7-0.2-1.9,0.1-2.8c0.2-0.8,0.3-2.1,0.1-2.9c-0.1-0.4-0.4-0.7-0.5-1.2
		c-0.3-1.6,0.5-2.8,1.5-2.9c1-0.2,1.3,0.6,1.7,1.2c0.7,0.2,1,0.4,1.6,0.2c0.5-0.2,0.6-0.9,1.1-0.9c0.4,0,0.5,0.3,0.7,0.6
		c0.1,1-0.3,2-0.3,2.9c0,0.3,0.1,0.5,0,0.8c0,0.2-0.2,0.3-0.3,0.5c-0.1,0.2-0.1,0.6-0.1,0.9c-0.1,0.3-0.2,0.7-0.2,0.8
		c0,0.5,0.2,0.8,0.1,1.2c-0.1,0.4-0.5,0.7-0.9,0.8c-1.1,0.4-2.7,0.1-3.8,0.4C132.9,20.4,132.7,20.6,132.3,20.7 M110.3,6.1
		c-0.6,0.6-1,1.4-1.4,2.3c0.8,0.5,2.5,0.7,3.5,0.3c0.4-0.9-0.2-1.7-0.8-2c0.1-0.2,0.1-0.4,0.1-0.7C111.3,6,110.7,6,110.3,6.1
		 M111.9,3.7c0.6,0.2,1.3,0.5,2,0.5c0.7,0,1.4-0.2,2.1-0.2c0.6,0,1.3,0.1,1.8,0.3c1.4,0.4,3.2,0.3,4.6,0.7c0.4-0.1,0.9-0.3,1.2-0.3
		c0.5-0.3,0.8-0.8,1.3-1.1c0.4,0.2,0.4,0.7,0.4,1.2c-0.8,1.2-2.2,2.1-4.2,2.3c-0.9,0.1-1.6-0.2-2.4-0.3c-0.8-0.2-1.6-0.2-2.1-0.5
		c-0.6,0.1-1.4-0.2-2,0c0.2,0.4,0.2,0.8,0.2,1.3c0,0.2,0.1,0.3,0.1,0.5c0,0.9-0.9,2.4-1.7,2.7c-0.5,0.2-1.7,0.4-2.3,0.4
		c-0.6,0.1-1.4,0-2,0c-0.4,0-0.7-0.2-1.1-0.2c-0.7-0.1-1.4,0.5-2,0.4c-0.2,0-0.4-0.2-0.7-0.3c-0.7-0.3-1.3-1-0.7-1.9
		c0.1-0.1,0.3-0.1,0.5-0.1c1-0.7,1.9-1.5,2.4-2.6c-0.6,0-1.1,0.3-1.7,0.4c-1.1,0.1-2.3-0.3-3.5-0.4c-0.5,0-0.8,0.2-1.3,0.3
		c-1.4,0.3-2.7-0.4-3.8-0.7c-0.4,0.1-1.5,0.8-1.7,0.4c-0.1-0.2,0-0.4,0-0.6c0-0.4-0.2-0.9-0.1-1.2c0.1-0.3,0.4-0.8,0.6-1.1
		c0.4-0.5,1.1-1.2,2-1.1c0.3,0,0.6,0.3,1,0.4c0.3,0.1,0.6,0,0.8,0.1c0.4,0.2,0.6,0.6,1,0.8c0.7,0.1,1.3,0,1.9,0
		c1.2,0.1,2.2,0.7,3.5,0.7c1.1,0,2.6,0.1,2.6-1c-0.1-0.2-0.5-0.4-0.5-0.7c-0.1-0.4,0.1-0.9,0.3-1.2c0.7-1.4,3.6-1,3.8,0.7
		C112.1,2.7,112,3.1,111.9,3.7 M107.7,18.5c0,0.3-0.1,0.6-0.1,0.9c0.5,0.1,1,0.1,1.6,0.2c1,0,2,0.1,2.8,0.1c0.1-0.4,0-1,0-1.4
		C110.5,18.6,108.8,17.6,107.7,18.5 M107.7,15.9c0.7,0.4,1.6,0.1,2.5,0.2c0.5,0.1,1.2,0.4,1.8,0.2c0-0.5,0.2-1,0.3-1.6
		c-1.7-0.1-3.2-0.5-4.9-0.3C107.6,14.9,107.7,15.4,107.7,15.9 M112.2,21.8c-0.7,0.2-1.7,0-2.6,0c-0.5,0-1,0.2-1.4,0.2
		c-0.3,0-0.7-0.2-1,0c-0.1,0.1-0.6,0.7-0.7,1c-0.2,0.4-0.4,1-0.6,1.4c-0.3,0.6-1.2,1.6-1.7,2c-0.2,0.2-0.4,0.3-0.6,0.5
		c-0.4,0.3-0.7,0.7-1.3,0.8c-0.4,0.1-1,0.1-1.5-0.1c-0.1-0.1-0.7-0.7-0.7-1c0-0.7,1.2-0.8,1.7-1c0.5-0.2,0.9-0.6,1.3-1
		c0.9-0.8,1.2-1.7,1.6-3c0.2-0.5,0.5-1.1,0.6-1.7c0.2-0.9,0.1-2,0.1-2.9c0-0.5-0.2-1-0.4-1.5c-0.3-0.7-1.3-1.6-0.7-2.6
		c0.2-0.3,1.3-1.3,1.7-1.4c0.6-0.1,1.5,0.2,2.1,0.4c0.7,0.2,1.4,0.2,2.1,0.3c1.4,0.2,2.8,1.1,3.5-0.3c0.5,0.1,0.6-0.9,1.3-0.7
		c0.5,0.1,0.4,2,0.2,2.4c-0.1,0.2-0.3,0.4-0.3,0.6c-0.2,0.4-0.2,0.9-0.3,1.4c-0.1,0.3-0.3,0.5-0.3,0.8c-0.2,0.7-0.1,1.6-0.1,2.5
		c0.1,1.5,0,3,0,4.3c0,0.3,0.1,0.7,0.1,1.1c0,0.3-0.1,0.6-0.1,0.9c0,0.7,0.1,1.4,0.2,2c0,0.3-0.1,0.6,0,0.9c0,0.4,0.1,0.8,0,1
		c-0.1,0.4-0.6,0.7-1.1,0.7c-1.1-0.1-1.2-2.6-1.2-3.9C112,24.5,112.1,23.2,112.2,21.8 M196.2,16.8c0.1,0,0.1,0.1,0.2,0.1
		c0.3-0.1,0.6-0.6,0.9-0.9c0.1-0.1,0.2-0.1,0.3-0.2c0.9-0.9,0.8-2.9-0.3-3.5c-0.3,0.2-1,0.3-1.4,0.1c-0.3,1.5-0.3,3.1-0.2,4.6
		C195.9,17,196,16.8,196.2,16.8 M196.3,6.6c-0.5,1,0,2.2-0.3,3.5c0.9-0.3,1.3-1.2,1.8-1.9c0.3-0.4,0.6-0.8,0.6-1.4
		C197.7,6.9,196.9,6.7,196.3,6.6 M212.9,5.1c0.6,0.3,1.2,0.1,1.9,0.2c0.4,0.1,0.9,0.2,1.4,0.3c0.5,0.1,1.1,0.3,1.4,0.3
		c0.5-0.1,0.6-0.7,1-0.8c0.8-0.3,1.3,0.5,1.6,0.8c-0.1,1.1-0.1,2.2-0.2,3.3c-0.1,0.7-0.1,1.7-0.3,2.3c-0.1,0.4-0.5,0.7-0.6,1
		c-0.2,0.4-0.4,0.7-0.8,0.9h-0.6c-0.2-0.1-0.3-0.3-0.5-0.5c-0.3-0.9,0.2-1.5,0.3-2.2c0.2-1,0-2.1-0.2-3.1c-2.3-0.1-4.4-0.1-6.7-0.2
		c-0.7,0-1.4,0.2-2.1,0.2c-0.2,0-0.4-0.1-0.5,0c-0.3,0-0.6,0.2-1,0.2c-0.6,0.1-1.3,0-2,0c-0.1,0.9-0.4,1.9-0.3,2.9
		c0,0.6,0.3,1.1,0.2,1.6c0,0.1-0.1,0.1-0.2,0.2c-0.2,0.4-0.6,1.6-1.4,1.2c-0.2-0.1-0.6-1-0.7-1.4c-0.2-0.5-0.3-1.2-0.3-1.7
		c-0.2-1.7-0.3-3.1-0.1-4.6c-0.7,0.5-1.1,1.7-1.9,2.2c-0.2,0.5-0.5,1-1,1.3c0,0.2,0,0.5-0.2,0.5c0.5,0.5,1.1,0.9,1.3,1.7
		c-0.1,0.8,0.2,1.6,0.1,2.7c-0.1,1.4-1.2,2.5-2.2,3.3c-0.3,0.2-0.8,0.6-1.1,0.7c-0.6,0.2-1.1,0.1-1.7,0.3c0,0.6-0.2,1.3-0.2,2
		c0,0.3,0.1,0.7,0.1,1c0,0.2-0.2,0.4-0.2,0.6c-0.2,1.5,0,3.3,0,4.8c0,0.9-0.2,2.1-0.8,2.2c-0.3,0-0.7-0.2-0.9-0.4
		c-1.1-1.3-1-3.4-1-5.9c0-1,0.1-2,0.1-2.9c0-0.2-0.1-0.4-0.1-0.5c0-1,0.2-2,0.2-3.1c0-0.7-0.2-1.5-0.1-2.2c0.1-1.5,0.2-3.1,0.2-4.5
		c0-1.2-0.4-2.4,0.1-3.3c-0.4-0.1-0.6-0.5-0.9-0.7c-0.4-1.1,0.1-2.1,0.5-2.7c0.9-0.5,1.6-1.3,3.2-1c1,0.4,1.6,1.4,2.5,2
		c0.3,0.2,0.9,0.5,1.2,0.5c0.7,0,1.2-1.3,2.1-1.3c0.5,0,1.3,1,1.1,1.7c0.5-0.5,1.3-1.4,2.7-1.1c0.4,0.5,1.3,1.2,2.3,1.3
		c0.8,0,2.1-0.1,2.1-0.9c-0.6-0.4-1.3-0.6-1.3-1.3c0-0.8,0.7-0.9,0.9-1.5c0.2-0.1,0.4-0.2,0.6-0.3c0.3-0.2,1.3,0,1.7,0.1
		c0.4,0.2,1.1,1,1.2,1.6C213.3,3.6,213,4.4,212.9,5.1"/>
	<path class="st0" d="M207,9.4c0.9-0.2,1.6,0.2,2.4,0.3c0.9,0.6,2.1,0.7,3.5,0.7c0.4,0,0.9-0.1,1.2-0.2c0.4-0.1,0.7-0.4,1-0.4
		c0.5,0,0.9,0.3,1.1,0.5c0.1,0.2,0.3,0.7,0.2,0.9c-0.1,0.7-1,1-2,1.1c-0.9,0.1-2,0.3-2.8,0.3c-0.7,0-1.4,0.1-1.9,0.1
		c-0.8,0-1.6-0.1-2.5,0.1c-0.3,0.1-0.6,0.3-0.9,0.2c-0.3-0.1-0.7-0.4-0.8-0.7c-0.2-0.5,0.2-1.6,0.4-2C206.2,9.8,206.8,9.5,207,9.4
		 M217.1,14.9c0.1,0.6-0.3,0.7-0.4,1.2c-0.4,0.1-0.6,0.4-1,0.6c-0.6,0.3-1.3,0.1-2,0.4c-0.4,1.1-0.1,2.9-0.4,4
		c0.6,0.6,1.3,0.9,2.1,1.3c0.1,0.1,0.2,0.2,0.2,0.3c0.9,0.4,2.2,1.3,3.3,1.5c0.6,0.1,1.4,0.2,2.1,0c0.8-0.2,0.4-1.5,1.3-1.8
		c0.7,0.7,0.4,2.6-0.2,3.4c-0.2,0.3-0.9,0.7-1.3,1c-0.3,0.2-0.8,0.4-1.2,0.6c-0.6,0.2-1,0.6-1.6,0.6c-0.8-0.1-1.4-1.2-2-1.7
		c-0.3-0.3-0.7-0.5-1.1-0.7c-0.4-0.2-0.7-0.6-1-0.9c-0.2-0.1-0.5-0.2-0.8-0.4c-0.4-0.2-0.7-0.5-1.1-0.6c-0.6-0.1-1.2,0-1.8-0.2
		c-0.5-0.7,0.1-1.5,0.3-2.1c0.5-1.2,0.4-2.7,0.4-4.2c-0.3-0.1-1.3-0.4-1.7-0.2c-0.3,0.1-0.6,1.2-0.8,1.5c-0.2,0.3-0.5,0.7-0.8,1.1
		c-0.2,0.4-0.4,0.8-0.7,1.2c-0.2,0.3-0.6,0.7-0.9,1c-0.8,0.9-1.5,1.8-2.5,2.4c-0.7,0.2-1.3,0.5-2,0.6c-0.2-0.1-0.2-0.5-0.5-0.2
		c-0.2-0.3-0.4-0.4-0.6-0.6c0.1-0.3-0.2-0.3-0.2-0.4c0.1-0.4,0.5-0.4,0.5-0.9c0.2-0.1,0.4-0.3,0.5-0.4c1.2,0,2.5-0.9,3.3-1.7
		c0.3-0.2,0.6-0.4,0.9-0.7c0.3-0.2,0.5-0.6,0.7-0.9c0.5-0.6,1-0.9,1.2-1.7c-0.9-0.3-2,0.8-2.8,0c-0.2-0.2-0.7-1.1-0.5-1.7
		c0.1-0.3,0.4-0.9,0.7-1.1c0.5-0.5,1.8-0.9,2.6-0.7c0.3,0.1,0.5,0.4,0.8,0.5c0.3,0.1,0.7,0.1,1.2,0.2c1.6,0.3,3.8,0.4,5.5,0.2
		c0.5-0.1,1.2-0.3,1.6-0.2C216.5,14.4,216.8,14.7,217.1,14.9 M172.7,1c0.4,0,0.7,0,1.1,0c1.4,0.3,2.1,1,2.1,2.7
		c0,0.3-0.1,0.6-0.1,0.9c1.4,0.4,3,0.2,4.7,0.4c0.7,0.1,1.5,0.1,2.2,0.2c0.3,0.1,0.7,0.2,1.1,0.2c0.4,0,0.9,0.1,1.1,0
		c0.4-0.1,0.2-0.2,0.5-0.5c0.6-0.7,1.8-0.2,2,0.5c-0.1,1.1-0.7,2-0.9,3.2c-0.3,1.1-0.6,2.3-0.9,3.2c-0.1,0.4-0.3,0.7-0.6,0.9
		c-0.1,0.4-0.4,0.6-0.8,0.7c-0.1-0.2-0.4,0-0.5-0.1c0,0,0-0.2-0.1-0.3c-0.1-0.1-0.2-0.1-0.2-0.1c-0.8-1,0-1.9,0.2-3.1
		c0.2-0.9,0.3-1.6,0.2-2.4c-1.5-0.3-3.6-0.3-5.3-0.2c-0.1,1-0.1,2.3-0.5,3c1.2,0.5,2.8-0.1,4,0.1c0.1,0.6-0.5,1.4-0.9,1.6
		c-0.4,0.2-1,0.5-1.5,0.6c-1,0.1-2.2-0.2-3.3-0.2c-0.5,0-0.9,0.2-1.3,0.2c-0.6,0-1.8-0.4-1.8-1c0-0.4,0.4-0.6,0.5-0.8
		c0.1-0.2,0.2-0.7,0.5-0.8c0.3-0.1,0.6,0.1,0.9-0.1c0.7-0.3,1-1.7,0.6-2.6c-0.6-0.2-1.5-0.1-2.2,0c-0.4-0.1-0.9-0.1-1.3,0
		c-0.3,0.6-0.2,1.2-0.3,1.8c-0.1,0.6-0.5,1-0.7,1.5c-0.6,1.4-1.8,2.4-3.8,2.2c-0.5,0-1.4-0.1-1.6-0.3c-0.4-0.6-0.6-1.8,0.3-2.1
		c0.7-0.2,1.4,0.2,2.1,0.2c0.6,0,1.2-0.4,1.4-1c0.1-0.4,0.4-1.5,0.1-1.9c-0.3-0.4-2.1-0.1-2.8-0.2c-0.9-0.1-1.7-0.3-2.6-0.5
		c0.3,0.8,0.1,1.7,0.1,2.8c0,0.8,0,1.8,0.4,2.2c0.5,0.5-0.6,1.3-1.2,1.3c-0.5,0-0.9-0.5-1.3-1.1c-0.3-0.5-0.5-1.2-0.6-1.8
		c-0.1-0.7-0.1-1.5-0.2-2.2c-0.2-0.7-0.6-1.2-0.6-1.8c-0.1-0.6,0-1.2,0.3-1.8c0.2-0.4,0.6-1.1,0.9-1.3c0.5-0.4,1.5-0.6,2.3-0.4
		c1,0.2,1.5,1.3,2.3,1.6c0.9,0.3,2.4,0.1,3.4,0.4c0.4,0.1,0.8,0.5,1.2,0.4c0.5-0.1,0.8-0.7,1-1.2c-0.4-0.4-1.2-0.3-1.3-0.9
		C171,2.2,171.9,1.1,172.7,1"/>
	<path class="st0" d="M173.8,16.4c0.6,0.4,1.9,0.3,2.9,0.4c0.3,0.1,0.7,0.2,0.9,0.2c0.3-0.1,0.3-0.5,0.7-0.4
		c0.4-0.4,0.8-1.4,1.6-1.3c0.3,0,0.7,0.5,0.7,0.9c0.1,0.5-0.3,0.9-0.5,1.3c-0.3,0.7-0.4,1.6-0.6,2.5c-0.1,0.2-0.3,0.5-0.3,0.8
		c-0.1,0.9-0.5,2.2-0.3,2.7c0.2,0.4,0.6,0.4,0.8,0.8c0.8,0.4,1.8,0.9,2.9,1.3c1,0.4,2.3,0.8,3.4,0.8c0.4,0,0.8-0.1,1.2-0.2
		c0.2-0.1,0.2-0.2,0.4-0.3c0.1-0.1,0.4-0.1,0.5-0.1c0.3-0.1,0.7-0.6,0.9-0.9c0.2-0.3,0.1-1.1,0.4-1.2c0.4,0,0.5,1.3,0.4,2
		c-0.1,1.1-1.2,2.6-2,3.1c-0.4,0.3-1,0.4-1.6,0.7c-0.5,0.2-1.2,0.5-1.7,0.5c-0.6-0.1-1.5-1-2-1.3c-0.6-0.3-1.2-0.4-1.7-0.8
		c-1.4-0.9-4-2-4.2-4.1c-0.1-1.4,0.2-2.7,0.6-3.8c0.1-0.3,0.4-0.6,0.2-0.9c-1.1,0-2.9,0.2-4.2,0c-0.5,0.8-0.7,1.8-1.2,2.5
		c-0.2,0.3-0.6,0.6-0.9,1c-0.3,0.3-0.5,0.8-0.8,1.1c-0.7,0.7-2.4,1.4-3.5,1.6c-1,0.2-2,0.4-3.1,0.5c-1,0.1-1.9,0.1-2.6-0.2
		c-0.5-0.2-1-0.5-1.2-1.1c-0.2-0.6-0.3-1.7,0.5-1.6c-0.1-0.4,0.8-0.9,1.4-0.5c0.2,0.1,0.2,0.4,0.3,0.5c0.3,0.2,0.5,0.1,0.7,0.3
		c0.5-0.2,1.2,0,1.8,0c0.2,0,0.4-0.1,0.6-0.2c0.5-0.1,1,0,1.5-0.1c0.5-0.1,0.9-0.2,1.2-0.7c0.5-0.2,0.8-0.5,1.2-0.8
		c0.2-0.2,0.5-0.4,0.6-0.5c0.1-0.2,0.1-0.4,0.2-0.6c0.2-0.4,0.6-0.7,0.7-1.2c-0.3-0.1-0.6-0.1-0.9-0.1c-0.5,0-1.2,0.3-1.6,0.3
		c-0.2,0-0.4-0.2-0.6-0.3c-0.4-0.1-0.9-0.1-1.3-0.3c-0.8,0.3-2,0-1.6-1c-1-0.6,0.1-1.9,0.8-2.3c0.5-0.3,1.4-0.5,2.1-0.3
		c0.5,0.1,0.7,0.5,1.2,0.8c0.9,0.4,2,0,2.7,0.3c0-0.4,0-0.6-0.1-0.9c-0.3-0.5-1.3-0.4-1.4-1.1c0-0.2,0.1-0.5,0.3-0.7
		c0.3-0.4,0.7-0.9,1.2-1.2c0.1-0.1,1,0,1.4,0.1c0.8,0.2,1.7,1.2,1.7,2.1c0,0.2-0.1,0.4-0.2,0.6C173.9,15.5,173.9,15.9,173.8,16.4"/>
</g>
</svg>
