<?xml version="1.0" encoding="iso-8859-1"?>
<!-- Generator: Adobe Illustrator 19.0.0, SVG Export Plug-In . SVG Version: 6.00 Build 0)  -->
<svg version="1.1" id="Capa_1" xmlns="http://www.w3.org/2000/svg" xmlns:xlink="http://www.w3.org/1999/xlink" x="0px" y="0px"
	 viewBox="0 0 502.686 502.686" style="enable-background:new 0 0 502.686 502.686;" xml:space="preserve">
<g>
	<g>
		<g>
			<path style="fill:#010002;" d="M481.136,200.166h-84.881V44.533H106.473v155.633H21.571C9.707,200.166,0,209.873,0,221.737
				v167.346c0,11.842,9.707,21.571,21.571,21.571h72.413v47.499h314.653v-47.499h72.478c11.864,0,21.571-9.728,21.571-21.571
				V221.737C502.707,209.873,493,200.166,481.136,200.166z M136.155,74.236c24.85,0,205.548,0,230.376,0c0,17.559,0,85.118,0,125.93
				H136.155C136.155,159.354,136.155,91.794,136.155,74.236z M378.912,428.407c-25.216,0-229.901,0-255.139,0
				c0-5.975,0-11.864,0-17.753h255.139C378.912,416.543,378.912,422.453,378.912,428.407z M451.8,265.763
				c-11.238,0-20.341-9.103-20.341-20.363s9.124-20.363,20.341-20.363c11.238,0,20.363,9.103,20.363,20.363
				S463.038,265.763,451.8,265.763z"/>
		</g>
	</g>
	<g>
	</g>
	<g>
	</g>
	<g>
	</g>
	<g>
	</g>
	<g>
	</g>
	<g>
	</g>
	<g>
	</g>
	<g>
	</g>
	<g>
	</g>
	<g>
	</g>
	<g>
	</g>
	<g>
	</g>
	<g>
	</g>
	<g>
	</g>
	<g>
	</g>
</g>
<g>
</g>
<g>
</g>
<g>
</g>
<g>
</g>
<g>
</g>
<g>
</g>
<g>
</g>
<g>
</g>
<g>
</g>
<g>
</g>
<g>
</g>
<g>
</g>
<g>
</g>
<g>
</g>
<g>
</g>
</svg>
