<?xml version="1.0" encoding="utf-8"?>
<!-- Generator: Adobe Illustrator 23.0.3, SVG Export Plug-In . SVG Version: 6.00 Build 0)  -->
<svg version="1.1" id="layer" xmlns="http://www.w3.org/2000/svg" xmlns:xlink="http://www.w3.org/1999/xlink" x="0px" y="0px"
	 viewBox="0 0 240 235" style="enable-background:new 0 0 240 235;" xml:space="preserve">
<style type="text/css">
	.st0{fill:#3FA9F5;}
</style>
<g>
	<g>
		<path class="st0" d="M29.1,6.5c4.6,2.3,9.1,4.6,13.7,6.9c4.1,2,7.6-4.1,3.6-6.1C41.8,5,37.2,2.7,32.6,0.4
			C28.6-1.6,25,4.5,29.1,6.5z"/>
		<path class="st0" d="M56,69c-4.6-2.3-9.1-4.6-13.7-6.9c-4.1-2-7.6,4.1-3.6,6.1c4.6,2.3,9.1,4.6,13.7,6.9C56.5,77.2,60,71,56,69z"
			/>
		<path class="st0" d="M17.1,23.5c9.1,0,18.3,0,27.4,0c4.6,0,4.6-7.1,0-7.1c-9.1,0-18.3,0-27.4,0C12.6,16.4,12.6,23.5,17.1,23.5z"/>
		<path class="st0" d="M29.1,51.2c-4.6,2.3-9.1,4.6-13.7,6.9c-4.1,2-0.5,8.1,3.6,6.1c4.6-2.3,9.1-4.6,13.7-6.9
			C36.7,55.2,33.1,49.1,29.1,51.2z"/>
		<path class="st0" d="M27.3,72.1c0,9.1,0,18.3,0,27.4c0,4.6,7.1,4.6,7.1,0c0-9.1,0-18.3,0-27.4C34.4,67.5,27.3,67.5,27.3,72.1z"/>
		<path class="st0" d="M31,48.1c0.2,0,0.3-0.1,0.4-0.1c1.5-0.2,2.4-1.2,2.7-2.4c0-0.1,0-0.1,0-0.2c0.1-0.3,0.1-0.6,0.1-0.9
			c0-0.4-0.1-0.7-0.2-1.1c0-0.1,0-0.2-0.1-0.2c-0.1-0.1,0-0.3-0.1-0.4c-2.3-4.6-4.6-9.1-6.9-13.7c-2-4.1-8.1-0.5-6.1,3.6
			c1.4,2.8,2.8,5.6,4.2,8.4c-7.2,0-14.5,0-21.7,0c-4.6,0-4.6,7.1,0,7.1C12.6,48.2,21.7,48.2,31,48.1C30.9,48.2,30.9,48.1,31,48.1z"
			/>
		<path class="st0" d="M99.5,41.1c-10.3,0-20.5,0-30.8,0c0-9.5,0-19.1,0-28.6c4-2,8-4,12-6c4.1-2,0.5-8.1-3.6-6.1
			C72.5,2.7,67.9,5,63.4,7.3c-0.2,0.1-0.4,0.3-0.6,0.4c0,0-0.1,0.1-0.1,0.1c-0.8,0.7-1.1,1.5-1,2.4c0,0,0,0.1,0,0.1
			c0,10.3,0,20.5,0,30.8c-5,0-9.9,0-14.9,0c-2-4-4-8-6-12c-2-4.1-8.1-0.5-6.1,3.6c2.3,4.6,4.6,9.1,6.9,13.7c0.1,0.2,0.3,0.4,0.4,0.6
			c0,0,0.1,0.1,0.1,0.1c0.7,0.8,1.5,1.1,2.4,1.1c0,0,0.1,0,0.1,0c5.7,0,11.4,0,17,0c0,10.3,0,20.5,0,30.8c0,4.6,7.1,4.6,7.1,0
			c0-10.3,0-20.5,0-30.8c10.3,0,20.5,0,30.8,0C104,48.2,104,41.1,99.5,41.1z"/>
		<path class="st0" d="M82.2,58.3c0,13.7,0,27.4,0,41.2c0,4.6,7.1,4.6,7.1,0c0-13.7,0-27.4,0-41.2C89.3,53.8,82.2,53.8,82.2,58.3z"
			/>
	</g>
	<g>
		<path class="st0" d="M234.7,19.7c-12.1,7.1-24.2,14.3-36.2,21.4c0-12.6,0-25.1,0-37.7c0-4.6-7.1-4.6-7.1,0c0,13.9,0,27.9,0,41.8
			c-10.7,6.3-21.4,12.7-32.1,19c-3.9,2.3-0.4,8.4,3.6,6.1c9.5-5.6,19-11.3,28.6-16.9c0,9.1,0,18.1,0,27.2c-0.7,2.5,1.7,5.6,4.5,4.4
			c0.6-0.2,1.2-0.4,1.6-0.9c4.2-2.7,8.4-5.3,12.6-8c3.8-2.4,0.3-8.5-3.6-6.1c-2.7,1.7-5.4,3.4-8.1,5.1c0-8.6,0-17.2,0-25.9
			c13.3-7.8,26.5-15.7,39.8-23.5C242.2,23.5,238.6,17.4,234.7,19.7z"/>
		<path class="st0" d="M171.4,44.6c0-9.1,0-18.3,0-27.4c0-4.6-7.1-4.6-7.1,0c0,9.1,0,18.3,0,27.4C164.3,49.2,171.4,49.2,171.4,44.6z
			"/>
		<path class="st0" d="M215.9,96c-20.9,0-41.9,0-62.8,0c5.5-3.4,11.1-6.7,16.6-10.1c3.9-2.4,0.3-8.5-3.6-6.1
			c-9,5.5-18.1,11-27.1,16.5c0,0,0,0,0,0c-0.1,0.1-0.2,0.1-0.3,0.2c-0.1,0.1-0.1,0.1-0.2,0.2c-0.2,0.2-0.5,0.4-0.7,0.6
			c-0.2,0.3-0.4,0.6-0.5,0.9l0,0c-0.1,0.4-0.2,0.8-0.2,1.2c0,0.1,0,0.1,0,0.2c0,0.3,0.1,0.5,0.1,0.7c0.2,1.1,0.9,2,2.1,2.5
			c0.4,0.2,0.8,0.2,1.2,0.2c0,0,0,0,0,0c0,0,0,0,0,0c0.1,0,0.3,0,0.4,0c25,0,50,0,75,0C220.4,103,220.4,96,215.9,96z"/>
	</g>
	<g>
		<path class="st0" d="M99.5,192.7c-15.8,0-31.6,0-47.4,0c1.5-0.2,3-1.3,3-3.3c0-1.1,0-2.2,0-3.3c3.4,0,6.8,0,10.2,0
			c4.6,0,4.6-7.1,0-7.1c-3.4,0-6.8,0-10.2,0c0-2.2,0-4.4,0-6.6c3.2,0,6.3,0,9.5,0c0.6,0.1,1.2,0.1,1.9-0.2c0.2-0.1,0.3-0.1,0.5-0.2
			c0,0,0.1,0,0.1,0c6.9-4.6,13.7-9.1,20.6-13.7c3.8-2.5,0.2-8.6-3.6-6.1c-6.6,4.4-13.2,8.8-19.9,13.2c-3,0-6.1,0-9.1,0
			c0-4.5,0-9,0-13.5c5.7,0,11.4,0,17,0c4.6,0,4.6-7.1,0-7.1c-5.7,0-11.4,0-17,0c0-3.4,0-6.8,0-10.2c0-4.6-7.1-4.6-7.1,0
			c0,10.3,0,20.5,0,30.8c-5.7,0-11.4,0-17,0c-4.6,0-4.6,7.1,0,7.1c5.7,0,11.4,0,17,0c0,2.2,0,4.4,0,6.6c-3.4,0-6.8,0-10.2,0
			c-4.6,0-4.6,7.1,0,7.1c3.4,0,6.8,0,10.2,0c0,1.1,0,2.2,0,3.3c0,2,1.4,3.1,3,3.3c-15.8,0-31.6,0-47.4,0c-4.6,0-4.6,7.1,0,7.1
			c32,0,64,0,96,0C104,199.7,104,192.7,99.5,192.7z"/>
		<path class="st0" d="M58.3,213.4c4.6,0,4.6-7.1,0-7.1c-6.9,0-13.7,0-20.6,0c-0.1,0-0.2,0.1-0.3,0.1c-0.4,0-0.7,0.1-1.1,0.2
			c-0.3,0.1-0.6,0.4-0.9,0.6c-0.1,0.1-0.2,0.1-0.3,0.2c-6.9,6.9-13.7,13.7-20.6,20.6c-3.2,3.2,1.8,8.2,5,5c6.5-6.5,13-13,19.5-19.5
			C45.6,213.4,51.9,213.4,58.3,213.4z"/>
		<path class="st0" d="M83.2,207.4c-6.5,6.5-13,13-19.5,19.5c-6.4,0-12.7,0-19.1,0c-4.6,0-4.6,7.1,0,7.1c6.9,0,13.7,0,20.6,0
			c0.1,0,0.2-0.1,0.3-0.1c0.4,0,0.7-0.1,1.1-0.2c0.3-0.1,0.6-0.4,0.9-0.6c0.1-0.1,0.2-0.1,0.3-0.2c6.9-6.9,13.7-13.7,20.6-20.6
			C91.5,209.2,86.5,204.2,83.2,207.4z"/>
	</g>
	<g>
		<path class="st0" d="M151.6,173.1c-4.6,4.6-9.1,9.1-13.7,13.7c-0.1,0.1-0.1,0.2-0.2,0.3c-0.2,0.3-0.5,0.5-0.6,0.9
			c-0.1,0.4-0.2,0.7-0.2,1.1c0,0.1-0.1,0.2-0.1,0.3c0,13.7,0,27.4,0,41.2c0,4.6,7.1,4.6,7.1,0c0-13.2,0-26.5,0-39.7
			c4.2-4.2,8.5-8.5,12.7-12.7C159.9,174.9,154.9,169.9,151.6,173.1z"/>
		<path class="st0" d="M202.2,138c2.3,0,4.6,0,6.9,0c4.6,0,4.6-7.1,0-7.1c-2.3,0-4.6,0-6.9,0C197.6,130.9,197.6,138,202.2,138z"/>
		<path class="st0" d="M181.6,172.1c-4.6,0-4.6,7.1,0,7.1c6.9,0,13.7,0,20.6,0c4.6,0,4.6-7.1,0-7.1
			C195.3,172.1,188.4,172.1,181.6,172.1z"/>
		<path class="st0" d="M184.1,164.4c4.6-4.6,9.1-9.1,13.7-13.7c3.2-3.2-1.8-8.2-5-5c-4.6,4.6-9.1,9.1-13.7,13.7
			C175.9,162.6,180.9,167.6,184.1,164.4z"/>
		<path class="st0" d="M158.5,145.7c-4.6,4.6-9.1,9.1-13.7,13.7c-3.2,3.2,1.8,8.2,5,5c4.6-4.6,9.1-9.1,13.7-13.7
			C166.7,147.4,161.7,142.4,158.5,145.7z"/>
		<path class="st0" d="M234,145.7c-4.6,4.6-9.1,9.1-13.7,13.7c-3.2,3.2,1.8,8.2,5,5c4.6-4.6,9.1-9.1,13.7-13.7
			C242.2,147.4,237.2,142.4,234,145.7z"/>
		<path class="st0" d="M198,187.2c-0.6-0.8-1.4-1.4-2.7-1.4c-6.9,0-13.7,0-20.6,0c-4.6,0-4.6,7.1,0,7.1c4.7,0,9.3,0,14,0
			c-8,11.9-15.9,23.9-23.9,35.8c-2.5,3.8,3.6,7.3,6.1,3.6c9.1-13.7,18.3-27.4,27.4-41.2C199.4,189.6,199,188.2,198,187.2z"/>
		<path class="st0" d="M229.6,227c-11.5,0-23,0-34.6,0c8-11.9,15.9-23.9,23.9-35.8c2.5-3.8-3.6-7.3-6.1-3.6
			c-9.1,13.7-18.3,27.4-27.4,41.2c-1,1.5-0.6,3,0.3,3.9c0.6,0.8,1.4,1.4,2.7,1.4c13.7,0,27.4,0,41.2,0
			C234.1,234,234.2,227,229.6,227z"/>
	</g>
</g>
</svg>
