<?xml version="1.0" encoding="utf-8"?>
<!-- Generator: Adobe Illustrator 23.0.3, SVG Export Plug-In . SVG Version: 6.00 Build 0)  -->
<svg version="1.1" id="圖層_1" xmlns="http://www.w3.org/2000/svg" xmlns:xlink="http://www.w3.org/1999/xlink" x="0px" y="0px"
	 viewBox="0 0 240 240" style="enable-background:new 0 0 240 240;" xml:space="preserve">
<style type="text/css">
	.st0{fill:#231815;}
</style>
<g>
	<g>
		<path class="st0" d="M209.1,28.4v-8.7h-16.7V0H55.5v102.5H36.7v8.7h18.8v25.7h136.9V28.4H209.1z M183.7,128.2H64.2v-17h5.4v-8.7
			h-5.4V8.7h119.5v11h-15.8v8.7h15.8V128.2z"/>
		<rect x="199.3" y="106.9" class="st0" width="40.7" height="8.6"/>
		<rect y="63.8" class="st0" width="39.9" height="8.7"/>
		<rect x="128.8" y="40.9" class="st0" width="20.6" height="8.7"/>
		<rect x="99.4" y="72.6" class="st0" width="32.9" height="8.7"/>
	</g>
	<g>
		<rect x="81.1" y="176.4" class="st0" width="2.4" height="47"/>
		<g>
			<g>
				<path class="st0" d="M108.4,187.5c0-0.4-0.1-0.7-0.3-0.9c-0.2-0.2-0.5-0.4-0.8-0.6c-0.3-0.1-0.7-0.3-1.1-0.4
					c-0.4-0.1-0.8-0.2-1.3-0.3c-0.6-0.1-1.1-0.3-1.7-0.5c-0.5-0.2-1-0.4-1.4-0.7c-0.4-0.3-0.7-0.7-1-1.2c-0.2-0.5-0.4-1.1-0.4-1.8
					c0-0.8,0.1-1.5,0.4-2.1c0.3-0.6,0.7-1.1,1.1-1.5c0.5-0.4,1-0.7,1.7-0.9c0.7-0.2,1.4-0.3,2.2-0.3c0.8,0,1.6,0.1,2.4,0.2
					c0.8,0.2,1.5,0.4,2.1,0.6v2.4c-0.8-0.3-1.5-0.5-2.3-0.7c-0.7-0.1-1.4-0.2-2-0.2c-0.9,0-1.6,0.2-2.1,0.5
					c-0.5,0.3-0.7,0.8-0.7,1.5c0,0.4,0.1,0.7,0.2,0.9c0.2,0.3,0.4,0.5,0.7,0.6c0.3,0.2,0.6,0.3,1,0.4c0.4,0.1,0.8,0.2,1.2,0.3
					c0.6,0.1,1.3,0.3,1.8,0.5c0.6,0.2,1.1,0.4,1.6,0.7c0.5,0.3,0.8,0.7,1.1,1.2c0.3,0.5,0.4,1.2,0.4,2c0,0.8-0.2,1.5-0.5,2.1
					c-0.3,0.6-0.7,1.1-1.3,1.5c-0.6,0.4-1.2,0.7-2,0.9c-0.8,0.2-1.7,0.3-2.6,0.3c-0.8,0-1.6-0.1-2.4-0.2c-0.8-0.2-1.5-0.4-2-0.7
					v-2.3c0.7,0.3,1.5,0.6,2.2,0.7c0.7,0.1,1.4,0.2,2.2,0.2c0.4,0,0.9,0,1.3-0.1c0.4-0.1,0.8-0.2,1.1-0.4c0.3-0.2,0.6-0.4,0.8-0.7
					C108.3,188.3,108.4,187.9,108.4,187.5"/>
				<polygon class="st0" points="121.9,189.5 129.4,189.5 129.4,191.8 119.2,191.8 119.2,176.6 129,176.6 129,179 121.9,179 
					121.9,182.9 128,182.9 128,185.2 121.9,185.2 				"/>
				<path class="st0" d="M148.4,181.2c0,1.1-0.3,2-0.9,2.7c-0.6,0.7-1.5,1.3-2.7,1.6v0l4.5,6.2h-3.3l-4.1-5.9h-1.9v5.9h-2.8v-15.2
					h4.6c0.8,0,1.5,0,2.1,0.1c0.7,0.1,1.2,0.2,1.7,0.4c0.9,0.3,1.6,0.8,2.1,1.5C148.1,179.3,148.4,180.2,148.4,181.2 M141.3,183.6
					c0.6,0,1.2,0,1.6-0.1c0.4-0.1,0.8-0.1,1.1-0.3c0.6-0.2,0.9-0.5,1.2-0.9c0.2-0.4,0.3-0.8,0.3-1.3c0-0.4-0.1-0.8-0.3-1.1
					c-0.2-0.3-0.5-0.6-0.9-0.7c-0.3-0.1-0.6-0.2-1-0.3c-0.4-0.1-0.9-0.1-1.5-0.1h-2v4.7H141.3z"/>
				<path class="st0" d="M160.5,188.1c0.3-0.8,0.5-1.4,0.6-1.8c0.1-0.3,0.4-1.1,0.8-2.2l2.8-7.5h2.9l-5.9,15.2h-2.5l-5.9-15.2h3
					l2.8,7.5c0.4,1.1,0.7,1.8,0.8,2.2C160,186.7,160.2,187.3,160.5,188.1L160.5,188.1z"/>
				<rect x="174.5" y="176.6" class="st0" width="2.8" height="15.2"/>
				<path class="st0" d="M192.2,178.7c-0.8,0-1.5,0.1-2.1,0.4c-0.6,0.2-1.2,0.6-1.6,1.1c-0.5,0.5-0.8,1.1-1.1,1.8
					c-0.2,0.7-0.4,1.5-0.4,2.4c0,0.9,0.1,1.7,0.4,2.3c0.2,0.7,0.6,1.2,1,1.7c0.4,0.5,1,0.8,1.6,1c0.6,0.2,1.4,0.3,2.2,0.3
					c0.6,0,1.2,0,1.8-0.1c0.6-0.1,1.2-0.2,1.7-0.4v2.4c-0.5,0.1-1.1,0.3-1.7,0.4c-0.6,0.1-1.2,0.1-1.9,0.1c-1.3,0-2.4-0.2-3.4-0.6
					c-1-0.4-1.8-0.9-2.4-1.6c-0.7-0.7-1.1-1.5-1.5-2.4c-0.3-0.9-0.5-2-0.5-3.1c0-1.2,0.2-2.2,0.5-3.2c0.4-1,0.9-1.9,1.5-2.6
					c0.7-0.7,1.5-1.3,2.5-1.7c1-0.4,2.1-0.6,3.4-0.6c0.6,0,1.3,0,1.8,0.1c0.6,0.1,1.1,0.2,1.6,0.4v2.4c-0.6-0.2-1.2-0.3-1.7-0.4
					C193.2,178.7,192.7,178.7,192.2,178.7"/>
				<polygon class="st0" points="205.9,189.5 213.4,189.5 213.4,191.8 203.2,191.8 203.2,176.6 213,176.6 213,179 205.9,179 
					205.9,182.9 212,182.9 212,185.2 205.9,185.2 				"/>
			</g>
			<g>
				<polygon class="st0" points="103.3,207.9 103.3,220.7 110.4,220.7 110.4,223.1 100.5,223.1 100.5,207.9 				"/>
				<polygon class="st0" points="120.5,220.7 128,220.7 128,223.1 117.8,223.1 117.8,207.9 127.6,207.9 127.6,210.2 120.5,210.2 
					120.5,214.1 126.6,214.1 126.6,216.5 120.5,216.5 				"/>
				<path class="st0" d="M143.4,219.2h-5.7l-1.5,3.9h-3l6-15.2h2.5l6,15.2h-2.9L143.4,219.2z M140.5,211.5c-0.5,1.6-1,2.9-1.4,4
					l-0.5,1.4h3.9l-0.5-1.4C141.6,214.4,141.1,213.1,140.5,211.5L140.5,211.5z"/>
				<path class="st0" d="M166,212.4c0,1.1-0.3,2-0.9,2.7c-0.6,0.7-1.5,1.3-2.7,1.6v0l4.5,6.2h-3.3l-4.1-5.9h-1.9v5.9h-2.8v-15.2h4.6
					c0.8,0,1.5,0,2.1,0.1c0.7,0.1,1.2,0.2,1.7,0.4c0.9,0.3,1.6,0.8,2.1,1.5C165.8,210.6,166,211.4,166,212.4 M158.9,214.9
					c0.6,0,1.2,0,1.6-0.1c0.4-0.1,0.8-0.1,1.1-0.3c0.6-0.2,0.9-0.5,1.2-0.9c0.2-0.4,0.3-0.8,0.3-1.3c0-0.4-0.1-0.8-0.3-1.1
					c-0.2-0.3-0.5-0.6-0.9-0.7c-0.3-0.1-0.6-0.2-1-0.3c-0.4-0.1-0.9-0.1-1.5-0.1h-2v4.6H158.9z"/>
				<path class="st0" d="M182,214.9c1.1,1.6,2,2.9,2.7,4.1h0.1c-0.1-2-0.1-3.4-0.1-4.3v-6.9h2.8v15.2h-2.9l-4.9-7
					c-0.9-1.2-1.8-2.6-2.7-4.2h-0.1c0.1,1.9,0.1,3.3,0.1,4.3v6.9h-2.8v-15.2h2.9L182,214.9z"/>
				<rect x="195.8" y="207.9" class="st0" width="2.8" height="15.2"/>
				<path class="st0" d="M214.9,214.9c1.1,1.6,2,2.9,2.6,4.1h0.1c-0.1-2-0.1-3.4-0.1-4.3v-6.9h2.8v15.2h-2.9l-5-7
					c-0.9-1.2-1.8-2.6-2.7-4.2h-0.1c0.1,1.9,0.1,3.3,0.1,4.3v6.9H207v-15.2h2.9L214.9,214.9z"/>
				<path class="st0" d="M237.2,217.3h-3.4v-2.3h6.2v7.7c-0.2,0.1-0.5,0.2-0.9,0.3c-0.3,0.1-0.7,0.2-1.2,0.2
					c-0.4,0.1-0.9,0.1-1.4,0.2c-0.4,0-0.9,0.1-1.4,0.1c-1.4,0-2.6-0.2-3.6-0.6c-1-0.4-1.9-0.9-2.5-1.5c-0.7-0.7-1.2-1.5-1.5-2.4
					c-0.3-0.9-0.5-1.9-0.5-3c0-0.8,0.1-1.5,0.3-2.3c0.2-0.7,0.4-1.4,0.8-2c0.3-0.6,0.8-1.2,1.3-1.7c0.5-0.5,1-0.9,1.7-1.3
					c0.6-0.3,1.3-0.6,2.1-0.8c0.8-0.2,1.6-0.3,2.4-0.3c0.8,0,1.5,0.1,2.2,0.2c0.7,0.1,1.2,0.3,1.7,0.4v2.4c-0.6-0.2-1.2-0.3-1.8-0.4
					c-0.6-0.1-1.2-0.1-1.8-0.1c-0.8,0-1.6,0.1-2.3,0.4c-0.7,0.2-1.3,0.6-1.9,1.1c-0.5,0.5-0.9,1.1-1.2,1.8c-0.3,0.7-0.4,1.5-0.4,2.4
					c0,1.8,0.5,3.1,1.4,4c0.9,0.9,2.3,1.3,4,1.3c0.3,0,0.6,0,1-0.1c0.3,0,0.6-0.1,0.9-0.1V217.3z"/>
			</g>
		</g>
		<g>
			<path class="st0" d="M8.1,199.3c1.1,1.6,2,3,2.7,4.2h0.1c-0.1-2-0.1-3.5-0.1-4.4v-7h2.8v15.5h-3l-5-7.1c-0.9-1.2-1.8-2.7-2.8-4.3
				H2.7c0.1,1.9,0.1,3.4,0.1,4.4v7H0v-15.5h3L8.1,199.3z"/>
			<polygon class="st0" points="32,207.6 29.2,207.6 29.2,194.5 24.2,194.5 24.2,192.1 37,192.1 37,194.5 32,194.5 			"/>
			<path class="st0" d="M54.4,207.6c-0.8,0-1.5-0.1-2.1-0.2c-0.6-0.1-1.2-0.4-1.7-0.7c-0.5-0.3-0.9-0.6-1.2-1.1
				c-0.3-0.4-0.6-0.9-0.8-1.4c-0.2-0.4-0.3-0.9-0.4-1.4c-0.1-0.5-0.1-1.1-0.1-1.7v-9h2.8v8.7c0,1.1,0.1,1.9,0.4,2.5
				c0.3,0.7,0.7,1.2,1.3,1.5c0.5,0.3,1.2,0.5,1.9,0.5c0.8,0,1.4-0.2,2-0.5c0.6-0.3,1-0.8,1.3-1.5c0.2-0.6,0.4-1.4,0.4-2.5v-8.7h2.8
				v9c0,0.6,0,1.2-0.1,1.7c-0.1,0.5-0.2,1-0.4,1.4c-0.2,0.5-0.5,1-0.8,1.4c-0.3,0.4-0.8,0.8-1.3,1.1c-0.5,0.3-1.1,0.5-1.7,0.7
				C55.9,207.5,55.2,207.6,54.4,207.6"/>
		</g>
	</g>
</g>
</svg>
