<?xml version="1.0" encoding="utf-8"?>
<!-- Generator: $$$/GeneralStr/196=Adobe Illustrator 27.6.0, SVG Export Plug-In . SVG Version: 6.00 Build 0)  -->
<svg version="1.1" id="圖層_1" xmlns="http://www.w3.org/2000/svg" xmlns:xlink="http://www.w3.org/1999/xlink" x="0px" y="0px"
	 viewBox="0 0 240 81" style="enable-background:new 0 0 240 81;" xml:space="preserve">
<style type="text/css">
	.st0{fill-rule:evenodd;clip-rule:evenodd;}
	.st1{fill-rule:evenodd;clip-rule:evenodd;fill:#AB002E;}
</style>
<g>
	<path class="st0" d="M1.5,52.6c0-6.6,0-4.2,0-7.8c0-0.7,0.1-0.9,0.2-0.9s0.5,0.4,0.6,0.6c0.3,0.3,3,3.3,5.8,6.3
		c1.8,1.9,3.8,4.2,4.4,4.8l-0.2-9.3c0-1.2-0.1-1.6-0.7-1.7c-0.3-0.1-0.5-0.1-0.8-0.1c-0.2,0-0.3-0.1-0.3-0.1c0-0.1,0.1-0.1,0.4-0.1
		c0.8,0,1.7,0.1,1.9,0.1s0.8-0.1,1.6-0.1c0.2,0,0.3,0,0.3,0.1s-0.1,0.1-0.2,0.1c-0.1,0-0.3,0-0.5,0.1c-0.5,0.1-0.6,0.4-0.6,1.6v10.7
		c0,1.2,0,1.3-0.2,1.3c-0.1,0-0.4-0.2-1.3-1.2c-0.2-0.3-2.9-2.9-4.8-5c-1.6-1.7-3.2-3.5-4.8-5.2l0.2,8.8c0,1.5,0.2,2,0.7,2.1
		c0.4,0.1,0.7,0.1,0.9,0.1c0.1,0,0.1,0,0.1,0.1c0.1,0,0,0.1-0.2,0.1c-1,0-1.8-0.1-1.9-0.1S1.1,58,0.3,58C0.1,58,0,58,0,57.9
		s0.1-0.1,0.1-0.1c0.1,0,0.5,0,0.7-0.1c0.5-0.1,0.5-0.7,0.5-2.3C1.5,55.3,1.5,52.6,1.5,52.6z M22.8,52.9c0.1,0,0.1-0.1,0.1-0.1
		l-1.4-4c-0.1-0.3-0.1-0.3-0.2,0l-1.4,4c0,0.1,0,0.1,0,0.1H22.8L22.8,52.9z M19.7,53.5c-0.1,0-0.1,0.1-0.2,0.1l-0.8,2.3
		c-0.2,0.5-0.3,1-0.3,1.3s0.2,0.5,0.6,0.5h0.1c0.2,0,0.2,0.1,0.2,0.1c0,0.1-0.1,0.1-0.3,0.1c-0.4,0-1.2-0.1-1.4-0.1
		c-0.2,0-1,0.1-1.8,0.1c-0.2,0-0.3,0-0.3-0.1s0.1-0.1,0.2-0.1c0.1,0,0.3,0,0.4,0c0.8-0.1,1.1-0.7,1.4-1.4l3.7-9.6
		c0.2-0.5,0.3-0.6,0.4-0.6s0.2,0.1,0.4,0.6c0.3,0.6,2.7,7,3.7,9.3c0.6,1.4,1.1,1.7,1.4,1.8c0.2,0.1,0.5,0.1,0.6,0.1s0.2,0,0.2,0.1
		s-0.1,0.1-0.3,0.1c-0.2,0-1.6,0-2.8,0c-0.4,0-0.5,0-0.5-0.1s0.1-0.1,0.1-0.1c0.1,0,0.2-0.1,0.1-0.4l-1.4-3.7c0-0.1-0.1-0.1-0.1-0.1
		C23,53.5,19.7,53.5,19.7,53.5z M33,53.4c0,1.4,0,2.7,0.1,3.4c0.1,0.4,0.1,0.7,0.5,0.8c0.2,0.1,0.6,0.1,0.7,0.1
		c0.1,0,0.2,0.1,0.2,0.1c0,0.1-0.1,0.1-0.2,0.1c-0.9,0-2-0.1-2.1-0.1s-1.2,0.1-1.6,0.1c-0.2,0-0.3,0-0.3-0.1s0.1-0.1,0.2-0.1
		s0.3,0,0.4,0c0.4-0.1,0.4-0.3,0.5-0.9c0.1-0.7,0.1-2,0.1-3.3V47c-0.6,0-1.6,0-2.3,0c-1.2,0-1.4,0.2-1.7,0.6
		c-0.2,0.2-0.2,0.5-0.3,0.6c-0.1,0.1-0.1,0.1-0.2,0.1s0-0.2,0-0.3s0.3-1.3,0.4-1.8c0.1-0.2,0.1-0.3,0.2-0.3s0.5,0.2,0.8,0.2
		c0.6,0.1,1.2,0.1,1.2,0.1h6c0.5,0,1.1,0,1.3-0.1s0.3-0.1,0.4-0.1c0.1,0,0.1,0.1,0.1,0.2c0,0.5,0,1.7,0,1.9s-0.1,0.2-0.1,0.2
		c-0.1,0-0.1-0.1-0.1-0.2c0-0.1,0-0.1,0-0.3c-0.1-0.7-0.3-0.9-2.2-0.9c-0.7,0-1.3,0-1.8,0v6.5H33z M40.5,50.7c0-2.4,0-2.9,0-3.3
		c0-0.5-0.1-0.8-0.5-0.8c-0.2,0-0.3,0-0.4-0.1c-0.1,0-0.2-0.1-0.2-0.1c0-0.1,0.1-0.1,0.3-0.1c0.6,0,1.6,0.1,1.7,0.1
		c0.1,0,1.1-0.1,1.6-0.1c0.2,0,0.3,0,0.3,0.1s-0.1,0.1-0.2,0.1c-0.1,0-0.2,0-0.3,0c-0.5,0.1-0.6,0.4-0.6,0.9s0,0.9,0,3.3v2.7
		c0,1.4,0,2.7,0.1,3.3c0.1,0.5,0.1,0.7,0.6,0.8c0.2,0.1,0.6,0.1,0.7,0.1c0.2,0,0.2,0.1,0.2,0.1c0,0.1-0.1,0.1-0.3,0.1
		c-0.9,0-2-0.1-2.1-0.1s-1.1,0.1-1.6,0.1c-0.2,0-0.3,0-0.3-0.1s0.1-0.1,0.2-0.1c0.1,0,0.3,0,0.4-0.1c0.3-0.1,0.4-0.4,0.4-0.9
		c0.1-0.7,0.1-1.9,0.1-3.3L40.5,50.7L40.5,50.7z M56.3,52.3c0-3.7-2.3-5.7-4.8-5.7s-4.6,1.6-4.6,5c0,3.6,2,6,5.1,6
		C53.2,57.5,56.3,56.9,56.3,52.3L56.3,52.3z M45.2,52.1c0-2.4,1.9-6.1,6.4-6.1c3.6,0,6.4,2.2,6.4,5.8c0,3.5-2.6,6.3-6.5,6.3
		C47,58.2,45.2,54.8,45.2,52.1L45.2,52.1z M60.9,46.7c0-0.6,0.1-0.7,0.2-0.7c0.1,0,0.4,0.4,0.6,0.5c0.2,0.2,2.7,2.8,5.3,5.4
		c1.4,1.4,3.3,3.3,3.7,3.7L70.5,48c0-1-0.1-1.3-0.6-1.4c-0.2,0-0.5-0.1-0.7-0.1S69,46.4,69,46.4c0-0.1,0.1-0.1,0.3-0.1
		c0.8,0,1.6,0.1,1.7,0.1c0.2,0,0.7-0.1,1.5-0.1c0.2,0,0.3,0,0.3,0.1s-0.1,0.1-0.2,0.1s-0.3,0-0.5,0.1c-0.4,0.1-0.5,0.3-0.5,1.4v9.2
		c0,0.9,0,1-0.2,1c-0.1,0-0.3-0.1-1.2-1c-0.1,0-2.6-2.6-4.2-4.1c-1.9-2-3.7-3.9-4.2-4.3l0.2,7.1c0,1.3,0.1,1.7,0.6,1.8
		c0.3,0.1,0.6,0.1,0.7,0.1s0.2,0.1,0.2,0.1c0,0.1-0.1,0.1-0.3,0.1c-1,0-1.6-0.1-1.8-0.1c-0.1,0-0.8,0.1-1.6,0.1
		c-0.2,0-0.3,0-0.3-0.1s0.1-0.1,0.3-0.1c0.1,0,0.3,0,0.6-0.1c0.4-0.1,0.5-0.6,0.5-1.9C60.9,47,61,49.8,60.9,46.7L60.9,46.7z
		 M80.7,52.9C80.8,52.9,80.8,52.8,80.7,52.9l-1.3-4.1c-0.1-0.3-0.1-0.3-0.2,0l-1.4,4c0,0.1,0,0.1,0,0.1H80.7L80.7,52.9z M77.6,53.5
		c-0.1,0-0.1,0.1-0.2,0.1l-0.8,2.3c-0.2,0.5-0.3,1-0.3,1.3s0.2,0.5,0.6,0.5H77c0.2,0,0.2,0.1,0.2,0.1c0,0.1-0.1,0.1-0.3,0.1
		c-0.4,0-1.2-0.1-1.4-0.1c-0.2,0-1,0.1-1.8,0.1c-0.2,0-0.3,0-0.3-0.1s0.1-0.1,0.2-0.1s0.3,0,0.4,0c0.8-0.1,1.1-0.7,1.4-1.4l3.7-9.6
		c0.2-0.5,0.3-0.6,0.4-0.6s0.2,0.1,0.4,0.6c0.3,0.6,2.7,7,3.7,9.3c0.6,1.4,1.1,1.7,1.4,1.8c0.2,0.1,0.5,0.1,0.6,0.1s0.2,0,0.2,0.1
		s-0.1,0.1-0.3,0.1c-0.2,0-1.6,0-2.8,0c-0.4,0-0.5,0-0.5-0.1s0.1-0.1,0.1-0.1c0.1,0,0.2-0.1,0.1-0.4L81,53.8c0-0.1-0.1-0.1-0.1-0.1
		L77.6,53.5L77.6,53.5z M90,53.5c0,2.1,0.1,3.2,0.4,3.5s0.7,0.4,1.9,0.4c0.8,0,1.5,0,1.9-0.5c0.2-0.3,0.3-0.6,0.4-0.9
		c0-0.1,0.1-0.2,0.1-0.2c0.1,0,0.1,0.1,0.1,0.2c0,0.2-0.1,1.2-0.2,1.6c-0.1,0.4-0.1,0.5-1,0.5c-1.2,0-2.6-0.1-4.4-0.1
		c-0.6,0-1,0.1-1.6,0.1c-0.2,0-0.3,0-0.3-0.1s0.1-0.1,0.2-0.1s0.3,0,0.4,0c0.3-0.1,0.4-0.4,0.5-0.9c0.1-0.7,0.1-1.9,0.1-3.4v-2.7
		c0-2.4,0-2.8,0-3.3s-0.1-0.8-0.7-0.9c-0.1,0-0.3,0-0.5,0c-0.1,0-0.2-0.1-0.2-0.1c0-0.1,0.1-0.1,0.3-0.1c0.8,0,1.9,0.1,1.9,0.1
		c0.3,0,1.4-0.1,1.9-0.1c0.2,0,0.2,0.1,0.2,0.1c0,0.1-0.1,0.1-0.2,0.1s-0.3,0-0.5,0c-0.5,0.1-0.6,0.4-0.7,0.9c0,0.5,0,0.9,0,3.3
		L90,53.5L90,53.5z"/>
	<g transform="translate(190.237 11.805)">
		<path class="st0" d="M-81.3,40.1C-81.2,40.1-81.2,40-81.3,40.1l-1.6-5c-0.1-0.3-0.2-0.3-0.3,0l-1.6,4.9c0,0.1,0,0.1,0.1,0.1
			C-84.8,40.1-81.3,40.1-81.3,40.1z M-85,40.8c-0.1,0-0.1,0.1-0.2,0.1l-1.1,3.2c-0.2,0.5-0.3,0.9-0.3,1.2c0,0.4,0.4,0.5,0.7,0.5h0.2
			c0.2,0,0.2,0,0.2,0.1s-0.2,0.1-0.3,0.1c-0.4,0-1.2-0.1-1.4-0.1c-0.2,0-1.2,0.1-2.1,0.1c-0.2,0-0.4,0-0.4-0.1s0.1-0.1,0.3-0.1
			c0.1,0,0.3,0,0.4,0c0.8-0.1,1.2-0.8,1.5-1.7l4.1-11.3c0.2-0.6,0.3-0.7,0.4-0.7s0.2,0.1,0.4,0.7c0.3,0.7,3.1,8.2,4.3,11
			c0.7,1.6,1.2,1.9,1.6,2c0.3,0.1,0.6,0.1,0.7,0.1s0.2,0,0.2,0.1s-0.2,0.1-0.4,0.1c-0.3,0-1.6,0-2.9,0c-0.4,0-0.5,0-0.5-0.1
			s0.1-0.1,0.1-0.1c0.1,0,0.2-0.2,0.1-0.5l-1.7-4.5c0-0.1-0.1-0.1-0.2-0.1H-85L-85,40.8z"/>
	</g>
	<path class="st0" d="M116.4,56.4c-1.6-1.4-2-3.2-2-4.7c0-1,0.4-2.9,1.9-4.3c1-1,2.5-1.6,5-1.6c0.9,0,1.5,0.1,2.4,0.2
		c0.6,0.1,1.2,0.2,1.6,0.2c0.1,0,0.2,0.1,0.2,0.2c0,0.1-0.1,0.3-0.1,0.9c0,0.5,0,1.5,0,1.7c0,0.3-0.1,0.4-0.1,0.4
		c-0.1,0-0.1-0.1-0.1-0.4c0-0.5-0.3-1.3-0.7-1.6c-0.6-0.5-1.9-0.9-3.3-0.9c-2.1,0-3,0.6-3.6,1.1c-1.2,1.1-1.5,2.4-1.5,4.1
		c0,3.1,2.5,5.8,5.8,5.8c1.3,0,2.2-0.1,2.8-0.8c0.3-0.4,0.5-0.8,0.6-1.3c0-0.2,0.1-0.3,0.2-0.3s0.1,0.1,0.1,0.3
		c0,0.1-0.2,1.6-0.4,2.1c-0.1,0.3-0.2,0.4-0.4,0.5c-0.7,0.3-1.9,0.4-2.9,0.4C119.4,58.1,117.7,57.5,116.4,56.4L116.4,56.4z"/>
	<path class="st0" d="M138.9,57.6c-0.1,0-0.4,0-0.6-0.1c-0.3-0.1-0.8-0.3-1.4-1.8c-1-2.3-3.5-8.8-3.8-9.4c-0.2-0.5-0.3-0.6-0.4-0.6
		c-0.1,0-0.2,0.1-0.4,0.6l-3.7,9.8c-0.3,0.8-0.6,1.4-1.4,1.5c-0.1,0-0.3,0-0.4,0s-0.2,0.1-0.2,0.1c0,0.1,0.1,0.1,0.3,0.1
		c0.8,0,1.6-0.1,1.8-0.1s1.1,0.1,1.5,0.1c0.1,0,0.3,0,0.3-0.1s-0.1-0.1-0.2-0.1h-0.1c-0.4,0-0.6-0.1-0.6-0.5c0-0.3,0.1-0.8,0.3-1.3
		l0.8-2.3c0-0.1,0.1-0.1,0.2-0.1h3.4c0.1,0,0.1,0,0.1,0.1l1.5,3.7c0.1,0.3,0,0.4-0.1,0.4s-0.1,0.1-0.1,0.1c0,0.1,0.1,0.1,0.5,0.1
		c1.2,0,2.6,0,2.8,0s0.3,0,0.3-0.1C139.1,57.7,139,57.6,138.9,57.6z M133.9,52.7h-3c0,0-0.1,0,0-0.1l1.4-4.1c0.1-0.3,0.1-0.3,0.2,0
		L133.9,52.7C134,52.7,134,52.7,133.9,52.7z"/>
	<path class="st0" d="M151.4,47.8c-2-2-5-1.8-6.6-1.8c-1,0-2,0.1-2.1,0.1s-1.2-0.1-2-0.1c-0.2,0-0.3,0-0.3,0.1s0.1,0.1,0.2,0.1
		c0.2,0,0.4,0,0.5,0c0.5,0.1,0.7,0.4,0.7,0.9s0,0.9,0,3.4v2.7c0,1.5,0,2.8-0.1,3.5c-0.1,0.4-0.2,0.8-0.5,0.9c-0.1,0-0.3,0.1-0.4,0.1
		c-0.1,0-0.2,0.1-0.2,0.1c0,0.1,0.1,0.1,0.3,0.1c0.3,0,0.7,0,1.1,0c0.4,0,0.6,0,0.6,0c0.1,0,0.6,0.1,1.3,0.1
		c0.8,0.1,1.5,0.1,2.3,0.1c2.8,0,4.2-1.1,5-1.8c0.9-0.9,1.8-2.5,1.8-4.4C153,49.9,152.2,48.6,151.4,47.8z M150.2,56
		c-1,1-2.3,1.5-3.9,1.5c-1.9,0-2.5-0.4-2.7-0.7c-0.1-0.2-0.2-0.7-0.2-1.2c0-0.3,0-1.7,0-3.4v-1.9c0-1.1,0-2.7,0-3.2
		c0-0.2,0.1-0.2,0.2-0.3c0.1-0.1,0.7-0.1,0.9-0.1c1.8,0,3.7,0.2,5.2,1.8c0.6,0.6,1.6,1.9,1.6,4C151.4,53.8,151,55.2,150.2,56z"/>
	<path class="st0" d="M156.2,50.5c0-2.4,0-2.9,0-3.4s-0.2-0.8-0.7-0.9c-0.1,0-0.3,0-0.4,0c-0.1,0-0.2-0.1-0.2-0.1
		c0-0.1,0.1-0.1,0.3-0.1c0.4,0,0.9,0,1.9,0.1c0.1,0,3.4,0,3.8,0c0.4,0,0.6,0,0.7-0.1c0.1,0,0.1-0.1,0.2-0.1c0,0,0.1,0,0.1,0.1
		s-0.1,0.4-0.1,0.8c0,0.3,0,0.6-0.1,1c0,0.2,0,0.3-0.1,0.3s-0.1-0.1-0.1-0.2c0-0.3-0.1-0.5-0.1-0.6c-0.1-0.4-0.3-0.5-1.2-0.6
		c-0.2,0-2.1,0-2.1,0c-0.1,0-0.1,0-0.1,0.1V51c0,0.1,0,0.2,0.1,0.2c0.2,0,2.1,0,2.5-0.1c0.4,0,0.7-0.1,0.9-0.3
		c0.1-0.1,0.1-0.1,0.2-0.1c0,0,0.1,0,0.1,0.1s-0.1,0.4-0.1,1c-0.1,0.5-0.1,0.9-0.1,1.1c0,0.1-0.1,0.2-0.1,0.2
		c-0.1,0-0.1-0.1-0.1-0.2c0-0.1,0-0.3-0.1-0.4c-0.1-0.2-0.2-0.5-0.9-0.6c-0.4,0-1.9-0.1-2.2-0.1c-0.1,0-0.1,0.1-0.1,0.1v1.4
		c0,0.6,0,2.2,0,2.5c0,0.7,0.1,1,0.5,1.2c0.3,0.1,0.7,0.2,1.4,0.2c0.4,0,0.9,0,1.4-0.1c0.6-0.2,0.7-0.5,0.8-1.2
		c0-0.2,0.1-0.3,0.2-0.3c0.1,0,0.1,0.2,0.1,0.3s-0.1,1.3-0.2,1.6c-0.1,0.4-0.2,0.4-0.8,0.4c-1.2,0-1.7,0-2.4,0s-1.5-0.1-2.2-0.1
		c-0.4,0-0.8,0.1-1.2,0.1c-0.2,0-0.3,0-0.3-0.1s0.1-0.1,0.2-0.1c0.1,0,0.2,0,0.4-0.1c0.3-0.1,0.6-0.3,0.6-1.5c0-0.6,0-1.4,0-2.8
		v-2.8H156.2z"/>
	<path class="st0" d="M178.4,55.9c0.1,0.4,0.2,1.5,0.9,1.6c0.3,0.1,0.7,0.1,0.9,0.1c0.1,0,0.2,0,0.2,0.1s-0.1,0.1-0.3,0.1
		c-0.3,0-2.3-0.1-2.9-0.1c-0.4,0-0.6-0.1-0.6-0.2c0-0.1,0.1-0.1,0.2-0.2c0.1,0,0.1-0.3,0.1-0.5l-0.8-8l-3.9,8
		c-0.4,0.7-0.4,0.9-0.6,0.9c-0.1,0-0.2-0.2-0.6-0.8c-0.3-0.5-1.8-3.5-1.9-3.7c-0.1-0.2-1.9-3.8-2.1-4.2l-0.7,7.2c0,0.3,0,0.4,0,0.7
		c0,0.2,0.1,0.5,0.5,0.6c0.2,0,0.3,0,0.5,0.1c0.1,0,0.2,0.1,0.2,0.1c0,0.1-0.1,0.1-0.3,0.1c-0.6,0-1.4-0.1-1.5-0.1
		c-0.2,0-1,0.1-1.4,0.1c-0.2,0-0.3,0-0.3-0.1c0,0,0.1-0.1,0.2-0.1c0.1,0,0.1,0,0.4,0c0.4,0,0.6-0.5,0.7-1.2l1.2-10.2
		c0-0.3,0.1-0.5,0.2-0.5c0.1,0,0.1,0.1,0.3,0.3l5,9.6l4.7-9.6c0.1-0.2,0.2-0.3,0.3-0.3s0.2,0.2,0.2,0.5L178.4,55.9z"/>
	<path class="st0" d="M184.8,53.9c0-0.9-0.1-1.2-0.4-1.7c-0.1-0.2-2.3-3.7-2.8-4.5c-0.5-0.7-0.7-0.9-0.9-1.1
		c-0.3-0.2-0.5-0.3-0.9-0.3c-0.1,0-0.2-0.1-0.2-0.1c0-0.1,0.1-0.1,0.2-0.1c0.3,0,1.7,0.1,1.7,0.1c0.1,0,0.7-0.1,1.4-0.1
		c0.2,0,0.2,0.1,0.2,0.1c0,0.1-0.1,0.1-0.2,0.1c-0.3,0.1-0.3,0.1-0.3,0.3s0.1,0.4,0.2,0.6c0.2,0.5,2.7,4.4,3,4.9
		c0.3-0.7,2.4-4,2.6-4.5c0.4-0.6,0.4-0.8,0.4-1s-0.2-0.2-0.4-0.3c-0.1,0-0.2-0.1-0.2-0.1c0-0.1,0-0.1,0.2-0.1c0.4,0,0.8,0.1,1.1,0.1
		c0.2,0,1.3-0.1,1.6-0.1c0.2,0,0.2,0.1,0.2,0.1c0,0.1-0.1,0.1-0.2,0.1c-0.4,0-0.7,0.1-0.9,0.2c-0.3,0.2-0.4,0.4-0.7,0.8
		c-1.1,1.5-2.9,4.5-3.2,5.2c-0.2,0.6-0.2,1-0.2,1.5v1.4c0,0.1,0,0.8,0,1.5c0,0.4,0.1,0.8,0.7,0.9c0.2,0.1,0.6,0.1,0.7,0.1
		c0.1,0,0.2,0.1,0.2,0.1c0,0.1-0.1,0.1-0.2,0.1c-0.9,0-2.1-0.1-2.1-0.1s-1.2,0.1-1.7,0.1c-0.2,0-0.3-0.1-0.3-0.1
		c0-0.1,0.1-0.1,0.2-0.1c0.1,0,0.3,0,0.5-0.1c0.3-0.1,0.4-0.4,0.5-0.9c0.1-0.7,0.1-1.3,0.1-1.5L184.8,53.9L184.8,53.9z"/>
	<path class="st0" d="M199.6,49.7c0.2-1.1,0.8-3,2-4.1c0.9-0.8,1.7-1,2.3-1c0.5,0,0.9,0.1,1.2,0.4c-0.1,0.4-0.5,1.2-0.8,1.6
		l-0.3,0.1c-0.1-0.4-0.3-0.9-0.4-1.4c-0.1,0-0.1,0-0.2,0c-0.7,0-1.8,0.4-2.7,4.5h2l-0.3,0.6l-1.9,0.3c-0.4,2-0.7,3.3-1.4,6.2
		c-0.6,2.5-1.2,3.6-2.3,4.6c-0.8,0.7-1.4,0.9-2.1,0.9c-0.7,0-1.2-0.4-1.4-0.8l0.7-0.9h0.1c0.4,0.6,1,0.8,1.5,0.8s1.3-0.1,2-3.1
		c0.5-1.9,0.9-3.6,1.7-7.8l-1.5-0.3l0.3-0.5L199.6,49.7L199.6,49.7z"/>
	<path class="st0" d="M207,49.5c-2.6,0-4.8,2.7-4.8,5.6c0,1.9,1.2,3,2.5,3c2.6,0,4.8-2.8,4.8-5.5l0,0
		C209.5,50.9,208.6,49.5,207,49.5z M204.8,57.5c-0.7,0-1.3-0.5-1.3-2.1c0-2,1.3-5.3,3.3-5.3c0.9,0,1.3,0.8,1.3,2.2
		C208.2,54.5,206.6,57.5,204.8,57.5z"/>
	<path class="st0" d="M211.3,50.2c0.7-0.3,1.9-0.7,2.4-0.7l0,0c0,0.6-0.1,1.7-0.6,3.4h0.1c1.5-2.8,2.8-3.5,3.6-3.5
		c0.3,0,0.5,0.1,0.7,0.2c0,0.3-0.6,1.8-0.9,2.2l-0.3,0.1c-0.1-0.4-0.2-0.9-0.3-1.5h-0.1c-0.4,0-1.6,0.9-2.9,4
		c-0.4,0.8-0.6,1.6-1.1,3.3l-1.3,0.1c1-3.2,1.8-6.4,1.9-7.2l-1.4-0.1L211.3,50.2z"/>
</g>
<g>
	<path class="st0" d="M1.7,71.4c0-3,0-3.6,0-4.2c0-0.7-0.2-1-0.8-1.1C0.7,66,0.3,66,0.2,66S0,66,0,65.9s0.1-0.2,0.3-0.2
		c0.4,0,1,0,1.4,0h0.8c0.1,0,4,0,4.4,0s0.7-0.1,0.8-0.1c0.1,0,0.2-0.1,0.3-0.1c0.1,0,0.1,0.1,0.1,0.2S8,66.1,7.9,66.6
		c0,0.2-0.1,1-0.1,1.3c0,0.1-0.1,0.2-0.1,0.2c-0.1,0-0.2-0.1-0.2-0.2s0-0.5-0.1-0.7c-0.1-0.3-0.3-0.5-1.4-0.7
		c-0.3,0-2.4-0.1-2.7-0.1c-0.1,0-0.1,0.1-0.1,0.2V72c0,0.1,0,0.2,0.1,0.2c0.2,0,2.6,0,3.1,0s0.7-0.1,0.9-0.3
		c0.1-0.2,0.2-0.2,0.3-0.2c0.1,0,0.1,0,0.1,0.2S7.6,72.3,7.5,73c0,0.4-0.1,1.1-0.1,1.2c0,0.2,0,0.4-0.1,0.4s-0.1-0.1-0.1-0.2
		c0-0.2,0-0.4-0.1-0.6c-0.1-0.3-0.2-0.6-1-0.7C5.7,73,3.8,73,3.5,73c-0.1,0-0.1,0.1-0.1,0.1v1.7c0,0.7,0,2.9,0,3.3
		c0.1,1.3,0.4,1.6,2.3,1.6c0.5,0,1.4,0,1.9-0.2s0.7-0.6,0.9-1.4c0-0.2,0.1-0.3,0.2-0.3c0.1,0,0.1,0.2,0.1,0.3c0,0.2-0.2,1.5-0.2,1.9
		c-0.1,0.5-0.3,0.5-1,0.5c-1.5,0-2.5,0-3.3-0.1c-0.8,0-1.2-0.1-1.5-0.1c0,0-0.4,0-0.8,0s-0.8,0-1.1,0c-0.2,0-0.3,0-0.3-0.2
		c0-0.1,0-0.1,0.2-0.1s0.4,0,0.6-0.1C1.5,80,1.5,79.6,1.6,79c0.1-0.8,0.1-2.3,0.1-4.2V71.4L1.7,71.4z"/>
	<path class="st0" d="M22.2,69.8c-2-2-5.1-1.9-6.8-1.9c-1,0-2.1,0-2.3,0c-0.1,0-1.2,0-2,0c-0.2,0-0.3,0-0.3,0.1s0.1,0.1,0.1,0.1
		c0.2,0,0.4,0,0.6,0c0.6,0.1,0.7,0.4,0.7,0.9s0,1,0,3.5v2.9c0,1.6,0,2.9-0.1,3.6c-0.1,0.5-0.1,0.8-0.4,0.9c-0.2,0-0.4,0.1-0.5,0.1
		s-0.1,0.1-0.1,0.1c0,0.1,0.1,0.1,0.3,0.1c0.3,0,0.7,0,1,0c0.4,0,0.7,0,0.7,0c0.1,0,0.7,0,1.4,0.1c0.7,0,1.6,0.1,2.4,0.1
		c2.9,0,4.4-1.1,5.2-1.9c1-1,1.8-2.6,1.8-4.6C23.9,72,23.1,70.6,22.2,69.8z M20.9,78.4c-1,1-2.4,1.5-4,1.5c-2,0-2.6-0.4-2.8-0.7
		C14,79,13.9,78.4,13.9,78c0-0.3,0-1.8,0-3.6l0,0V69c0-0.2,0.1-0.3,0.2-0.3c0.2-0.1,0.7-0.1,1-0.1c2,0,3.9,0.2,5.5,1.8
		c0.7,0.7,1.6,2,1.6,4.1C22.2,76,21.8,77.6,20.9,78.4z"/>
	<g transform="translate(86.23 59.688)">
		<path class="st0" d="M-59.4,13.1c0-2.5,0-3,0-3.5s-0.1-0.8-0.7-0.9c-0.2,0-0.4,0-0.6,0c-0.1,0-0.1-0.1-0.1-0.1
			c0-0.1,0.1-0.1,0.3-0.1c0.8,0,1.8,0,1.9,0c0.2,0,1.2,0,1.7,0c0.2,0,0.3,0,0.3,0.1s-0.1,0.1-0.2,0.1c-0.1,0-0.2,0-0.4,0
			c-0.4,0.1-0.5,0.4-0.6,0.9c0,0.5,0,1,0,3.5v2.3c0,2.4,0.5,3.3,1.2,4c0.8,0.7,1.6,0.9,2.5,0.9c1,0,2-0.5,2.6-1.2
			c0.8-0.9,1-2.3,1-3.9v-2.1c0-2.5,0-3,0-3.5s-0.1-0.8-0.7-0.9c-0.2,0-0.4,0-0.6,0c-0.1,0-0.1-0.1-0.1-0.1c0-0.1,0.1-0.1,0.3-0.1
			c0.7,0,1.7,0,1.8,0s0.9,0,1.4,0c0.2,0,0.3,0,0.3,0.1s-0.1,0.1-0.1,0.1c-0.1,0-0.2,0-0.4,0c-0.5,0.1-0.5,0.4-0.6,0.9
			c0,0.5,0,1,0,3.5v1.7c0,1.8-0.2,3.7-1.6,4.9c-1.2,1-2.5,1.2-3.5,1.2c-0.5,0-2.3,0-3.5-1.2c-0.8-0.8-1.5-1.9-1.5-4.3L-59.4,13.1
			L-59.4,13.1z"/>
	</g>
	<g transform="translate(128.68 58.878)">
		<path class="st0" d="M-87.1,20c-1.6-1.4-2.1-3.3-2.1-4.8c0-1.1,0.4-3,1.9-4.4c1-1,2.6-1.7,5.1-1.7c0.7,0,1.6,0.1,2.4,0.2
			c0.6,0.1,1.2,0.2,1.7,0.2c0.2,0,0.2,0.1,0.2,0.2c0,0.1,0,0.3-0.1,0.9c0,0.5,0,1.4,0,1.7c0,0.2-0.1,0.3-0.2,0.3s-0.1-0.1-0.1-0.3
			c0-0.6-0.3-1.3-0.7-1.6c-0.6-0.5-1.8-0.9-3.3-0.9c-2.2,0-3.2,0.6-3.8,1.1c-1.2,1.2-1.5,2.6-1.5,4.3c0,3.1,2.5,5.9,6.1,5.9
			c1.3,0,2.1-0.1,2.8-0.8c0.4-0.4,0.6-1,0.7-1.4c0-0.2,0.1-0.2,0.2-0.2s0.2,0.1,0.2,0.2s-0.2,1.5-0.4,2.1c-0.1,0.3-0.1,0.4-0.4,0.5
			c-0.7,0.3-1.9,0.4-3,0.4C-84.1,21.7-85.8,21.1-87.1,20L-87.1,20z"/>
	</g>
	<path class="st0" d="M59.9,75.2C60,75.2,60,75.2,59.9,75.2l-1.6-4.6c-0.1-0.2-0.2-0.2-0.3,0L56.4,75c0,0.1,0,0.1,0.1,0.1L59.9,75.2
		L59.9,75.2z M58,68.4c0.2-0.5,0.3-0.6,0.4-0.6c0.2,0,0.2,0.2,0.4,0.6c0.3,0.7,3,7.4,4,9.9c0.6,1.5,1.1,1.7,1.4,1.8
		c0.2,0.1,0.4,0.1,0.7,0.1c0.1,0,0.2,0,0.2,0.1s-0.2,0.1-0.4,0.1c-0.2,0-1.5,0-2.7,0c-0.3,0-0.6,0-0.6-0.1s0-0.1,0.1-0.1
		s0.3-0.2,0.2-0.4l-1.5-3.7c0-0.1-0.1-0.1-0.2-0.1h-3.9c-0.1,0-0.1,0-0.2,0.1l-1,2.6c-0.2,0.4-0.2,0.8-0.2,1.1
		c0,0.3,0.3,0.4,0.6,0.4h0.2c0.1,0,0.2,0.1,0.2,0.1c0,0.1-0.1,0.1-0.2,0.1c-0.4,0-1.3-0.1-1.5-0.1s-1,0.1-1.7,0.1
		c-0.2,0-0.3,0-0.3-0.1s0.1-0.1,0.2-0.1c0.1,0,0.4,0,0.5,0c0.8-0.1,1.1-0.7,1.4-1.5L58,68.4L58,68.4z M70.3,75.6
		c0,1.6,0,2.9,0.1,3.5c0.1,0.5,0.1,0.8,0.7,0.9c0.2,0,0.6,0.1,0.8,0.1c0.1,0,0.1,0.1,0.1,0.1c0,0.1-0.1,0.1-0.3,0.1
		c-0.9,0-2-0.1-2.1-0.1s-1.2,0.1-1.7,0.1c-0.2,0-0.3,0-0.3-0.1s0-0.1,0.1-0.1c0.2,0,0.3,0,0.5-0.1c0.3-0.1,0.4-0.4,0.5-0.9
		c0.1-0.7,0.1-1.9,0.1-3.5v-6.8h-2.4c-1,0-1.5,0.1-1.7,0.5c-0.2,0.3-0.2,0.4-0.3,0.5c0,0.1-0.1,0.2-0.2,0.2c0,0-0.1,0-0.1-0.1
		c0-0.2,0.3-1.6,0.4-1.8c0-0.1,0.1-0.3,0.2-0.3s0.3,0.1,0.7,0.2c0.5,0.1,1.1,0.1,1.3,0.1h6.4c0.5,0,0.9,0,1.2-0.1
		c0.2,0,0.4-0.1,0.5-0.1s0.1,0.1,0.1,0.2c0,0.5-0.1,1.7-0.1,1.9c0,0.1-0.1,0.2-0.2,0.2s-0.1-0.1-0.1-0.3v-0.2
		c-0.1-0.5-0.4-0.9-2-0.9h-2.1L70.3,75.6L70.3,75.6z M79.7,75.6c0,1.6,0,2.9,0.1,3.5c0.1,0.5,0.1,0.8,0.6,0.9c0.2,0,0.6,0.1,0.8,0.1
		c0.1,0,0.1,0.1,0.1,0.1c0,0.1-0.1,0.1-0.3,0.1c-0.9,0-2-0.1-2.1-0.1s-1.2,0.1-1.7,0.1c-0.2,0-0.3,0-0.3-0.1s0-0.1,0.1-0.1
		c0.2,0,0.4,0,0.5-0.1c0.3-0.1,0.4-0.4,0.4-0.9c0.1-0.7,0.1-1.9,0.1-3.5v-2.9c0-2.5,0-3,0-3.5s-0.2-0.8-0.5-0.9
		c-0.2,0-0.3-0.1-0.5-0.1c-0.1,0-0.1-0.1-0.1-0.1c0-0.1,0.1-0.1,0.3-0.1c0.5,0,1.6,0,1.7,0s1.2,0,1.7,0c0.2,0,0.3,0,0.3,0.1
		s-0.1,0.1-0.1,0.1c-0.1,0-0.2,0-0.4,0c-0.5,0.1-0.5,0.3-0.6,0.9c0,0.5,0,1,0,3.5L79.7,75.6L79.7,75.6z"/>
	<g transform="translate(259.035 58.878)">
		<path class="st0" d="M-169.1,21c1.5,0,4.6-0.8,4.6-5.5c0-3.9-2.4-6-5-6c-2.8,0-4.8,1.8-4.8,5.3C-174.5,18.7-172.2,21-169.1,21
			L-169.1,21z M-169.5,9c3.8,0,6.7,2.3,6.7,6.1c0,3.6-2.7,6.6-6.8,6.6c-4.6,0-6.6-3.5-6.6-6.4C-176.2,12.7-174.2,9-169.5,9L-169.5,9
			z"/>
	</g>
	<path class="st0" d="M100.3,78.2c0,1.3,0.2,1.7,0.7,1.9c0.3,0.1,0.7,0.1,0.8,0.1c0.1,0,0.1,0.1,0.1,0.1c0,0.1-0.1,0.1-0.3,0.1
		c-1,0-1.6-0.1-1.8-0.1c-0.2,0-0.9,0.1-1.6,0.1c-0.2,0-0.3,0-0.3-0.1s0.1-0.1,0.1-0.1c0.1,0,0.4,0,0.7-0.1c0.4-0.1,0.5-0.5,0.5-2
		v-9.3c0-0.7,0.1-0.8,0.2-0.8c0.2,0,0.5,0.3,0.7,0.5c0.3,0.3,2.7,2.9,5.3,5.5c1.7,1.7,3.5,3.7,4,4.2l-0.2-8.2c0-1-0.1-1.4-0.6-1.5
		c-0.3-0.1-0.5-0.1-0.8-0.1c-0.1,0-0.1-0.1-0.1-0.2s0.1-0.1,0.3-0.1c0.8,0,1.6,0,1.8,0s0.7,0,1.4,0c0.2,0,0.3,0,0.3,0.1
		s-0.1,0.2-0.2,0.2s-0.2,0-0.4,0c-0.5,0.1-0.6,0.4-0.6,1.4v9.5c0,1.1,0,1.2-0.1,1.2c-0.2,0-0.3-0.1-1.3-1c-0.2-0.2-2.6-2.6-4.4-4.4
		c-1.9-2.1-3.8-4-4.4-4.6L100.3,78.2z M120.1,75.2C120.2,75.2,120.2,75.2,120.1,75.2l-1.6-4.6c-0.1-0.2-0.2-0.2-0.3,0l-1.6,4.5
		c0,0.1,0,0.1,0.1,0.1H120.1z M118.2,68.4c0.2-0.5,0.3-0.6,0.4-0.6c0.2,0,0.2,0.2,0.4,0.6c0.3,0.7,3,7.4,4,9.9
		c0.6,1.5,1.1,1.7,1.4,1.8c0.2,0.1,0.4,0.1,0.7,0.1c0.1,0,0.2,0,0.2,0.1s-0.2,0.1-0.4,0.1c-0.2,0-1.5,0-2.7,0c-0.3,0-0.6,0-0.6-0.1
		s0-0.1,0.1-0.1s0.3-0.2,0.2-0.4l-1.5-3.7c0-0.1-0.1-0.1-0.2-0.1h-3.9c-0.1,0-0.1,0-0.2,0.1l-1,2.6c-0.2,0.4-0.2,0.8-0.2,1.1
		c0,0.3,0.3,0.4,0.6,0.4h0.2c0.1,0,0.2,0.1,0.2,0.1c0,0.1-0.1,0.1-0.2,0.1c-0.4,0-1.3-0.1-1.5-0.1s-1,0.1-1.7,0.1
		c-0.2,0-0.3,0-0.3-0.1s0.1-0.1,0.2-0.1s0.4,0,0.5,0c0.8-0.1,1.1-0.7,1.4-1.5L118.2,68.4L118.2,68.4z M129.5,75.7
		c0,2.4,0,3.4,0.3,3.7c0.3,0.3,0.9,0.4,2.2,0.4c0.9,0,1.6,0,2-0.5c0.2-0.2,0.3-0.6,0.4-0.9c0-0.1,0.1-0.2,0.2-0.2
		c0.1,0,0.1,0.1,0.1,0.2c0,0.2-0.1,1.2-0.2,1.6c-0.1,0.4-0.2,0.4-1.1,0.4c-1.2,0-2.1,0-2.9-0.1c-0.8,0-1.3,0-1.8,0
		c-0.1,0-0.4,0-0.7,0s-0.7,0-1,0c-0.2,0-0.3,0-0.3-0.1s0-0.1,0.1-0.1c0.2,0,0.4,0,0.5-0.1c0.3-0.1,0.4-0.4,0.4-0.9
		c0.1-0.7,0.1-1.9,0.1-3.5v-2.9c0-2.5,0-3,0-3.5s-0.1-0.8-0.7-0.9c-0.2,0-0.4,0-0.6,0c-0.1,0-0.1-0.1-0.1-0.1c0-0.1,0.1-0.1,0.3-0.1
		c0.8,0,1.8,0,1.9,0s1.3,0,1.9,0c0.2,0,0.3,0,0.3,0.1s-0.1,0.1-0.1,0.1c-0.1,0-0.4,0-0.5,0c-0.5,0.1-0.6,0.3-0.6,0.9
		c0,0.5,0,1,0,3.5L129.5,75.7L129.5,75.7z M146.4,73.1c0,0.1,0,0.2,0.1,0.2c0.3,0.2,1.2,0.3,2,0.3c0.5,0,1-0.1,1.4-0.4
		c0.7-0.5,1.2-1.5,1.2-2.9c0-2.4-1.3-3.8-3.3-3.8c-0.6,0-1.1,0.1-1.3,0.1c-0.1,0-0.2,0.1-0.2,0.2v6.3H146.4z M144.9,71.5
		c0-3,0-3.5,0-4.1c0-0.7-0.2-1-0.8-1.1c-0.2,0-0.5-0.1-0.7-0.1c-0.1,0-0.2,0-0.2-0.1s0.1-0.2,0.3-0.2c0.9,0,2.1,0.1,2.2,0.1
		c0.2,0,1.7-0.1,2.3-0.1c1.2,0,2.5,0.1,3.5,0.8c0.5,0.3,1.3,1.3,1.3,2.6c0,1.4-0.6,2.8-2.3,4.4c1.6,2,2.9,3.7,4,4.9
		c1,1.1,1.9,1.3,2.3,1.4c0.2,0,0.5,0.1,0.7,0.1c0.1,0,0.2,0.1,0.2,0.1c0,0.1-0.1,0.2-0.5,0.2h-1.4c-1.1,0-1.6-0.1-2.1-0.4
		c-0.8-0.4-1.5-1.4-2.6-2.8c-0.8-1-1.7-2.3-2.1-2.8c-0.1-0.1-0.1-0.1-0.2-0.1h-2.4c-0.1,0-0.1,0.1-0.1,0.2V75c0,1.8,0,3.3,0.1,4.2
		c0.1,0.5,0.2,1,0.7,1c0.3,0,0.7,0.1,0.9,0.1c0.1,0,0.2,0.1,0.2,0.1c0,0.1-0.1,0.2-0.3,0.2c-1.1,0-2.3-0.1-2.4-0.1
		c0,0-1.2,0.1-1.8,0.1c-0.2,0-0.3,0-0.3-0.2c0-0.1,0-0.1,0.2-0.1s0.4,0,0.6-0.1c0.4-0.1,0.5-0.5,0.5-1c0.1-0.8,0.1-2.3,0.1-4.2
		L144.9,71.5L144.9,71.5z M159.9,72.8c0-2.5,0-3,0-3.5s-0.1-0.8-0.7-0.9c-0.2,0-0.4,0-0.6,0c-0.1,0-0.1-0.1-0.1-0.1
		c0-0.1,0.1-0.1,0.3-0.1c0.8,0,1.9,0,1.9,0c0.1,0,3.6,0,4,0c0.3,0,0.6-0.1,0.8-0.1c0.1,0,0.2-0.1,0.2-0.1c0.1,0,0.1,0.1,0.1,0.2
		s-0.1,0.3-0.1,0.8c0,0.2-0.1,0.9-0.1,1.1c0,0.1-0.1,0.2-0.2,0.2c-0.1,0-0.1-0.1-0.1-0.2s0-0.4-0.1-0.6c-0.1-0.3-0.3-0.4-1.2-0.5
		c-0.3,0-2.2-0.1-2.4-0.1c-0.1,0-0.1,0.1-0.1,0.2v4.4c0,0.1,0,0.2,0.1,0.2c0.2,0,2.4,0,2.8,0c0.4,0,0.7-0.1,0.8-0.2s0.2-0.2,0.2-0.2
		c0.1,0,0.1,0,0.1,0.1s-0.1,0.4-0.1,0.9c0,0.3-0.1,0.9-0.1,1s0,0.3-0.2,0.3c-0.1,0-0.1-0.1-0.1-0.2c0-0.2,0-0.3-0.1-0.5
		s-0.2-0.4-0.9-0.5c-0.5-0.1-2.3-0.1-2.6-0.1c-0.1,0-0.1,0.1-0.1,0.1v1.4c0,0.5,0,2.4,0,2.8c0,1.1,0.3,1.3,2,1.3
		c0.4,0,1.2,0,1.7-0.2c0.4-0.2,0.7-0.5,0.8-1.1c0-0.2,0.1-0.2,0.2-0.2s0.1,0.1,0.1,0.2s-0.1,1.2-0.2,1.6c-0.1,0.4-0.3,0.4-0.9,0.4
		c-1.3,0-2.2,0-2.9-0.1c-0.7,0-1.2,0-1.4,0c0,0-0.4,0-0.7,0s-0.7,0-1,0c-0.2,0-0.3,0-0.3-0.1s0-0.1,0.1-0.1c0.2,0,0.4-0.1,0.5-0.1
		c0.3-0.1,0.4-0.4,0.4-0.9c0.1-0.7,0.1-1.9,0.1-3.5L159.9,72.8L159.9,72.8z"/>
	<g transform="translate(517.933 58.878)">
		<path class="st0" d="M-349.3,21.3c-0.2-0.1-0.2-0.2-0.2-0.6c0-0.8,0.1-1.5,0.1-1.7s0-0.3,0.1-0.3s0.2,0.1,0.2,0.2s0,0.4,0.1,0.6
			c0.3,1.2,1.5,1.6,2.7,1.6c1.7,0,2.5-0.9,2.5-2.2c0-1.2-0.6-1.7-2.1-2.8l-0.8-0.6c-1.8-1.4-2.4-2.4-2.4-3.5c0-1.9,1.5-3.1,3.7-3.1
			c0.7,0,1.3,0.1,1.7,0.2c0.3,0.1,0.5,0.1,0.6,0.1s0.2,0,0.2,0.1S-343,9.9-343,11c0,0.2,0,0.4-0.1,0.4s-0.1-0.1-0.2-0.2
			c0-0.2-0.2-0.6-0.2-0.8c-0.1-0.2-0.7-0.8-2.2-0.8c-1.2,0-2.2,0.6-2.2,1.8c0,1,0.5,1.6,2.2,2.8l0.5,0.3c2.1,1.4,2.8,2.5,2.8,3.9
			c0,1-0.4,2-1.6,2.8c-0.7,0.5-1.8,0.6-2.7,0.6C-347.6,21.7-348.6,21.6-349.3,21.3L-349.3,21.3z"/>
	</g>
	<path class="st0" d="M179.1,72.8c0-2.5,0-3,0-3.5s-0.1-0.8-0.7-0.9c-0.2,0-0.4,0-0.6,0c-0.1,0-0.1-0.1-0.1-0.1
		c0-0.1,0.1-0.1,0.3-0.1c0.8,0,1.9,0,1.9,0c0.1,0,3.6,0,4,0c0.3,0,0.6-0.1,0.8-0.1c0.1,0,0.2-0.1,0.2-0.1c0.1,0,0.1,0.1,0.1,0.2
		s-0.1,0.3-0.1,0.8c0,0.2-0.1,0.9-0.1,1.1c0,0.1-0.1,0.2-0.2,0.2c-0.1,0-0.1-0.1-0.1-0.2s0-0.4-0.1-0.6c-0.1-0.3-0.3-0.4-1.2-0.5
		c-0.3,0-2.2-0.1-2.4-0.1c-0.1,0-0.1,0.1-0.1,0.2v4.4c0,0.1,0,0.2,0.1,0.2c0.2,0,2.4,0,2.8,0c0.4,0,0.7-0.1,0.8-0.2s0.2-0.2,0.2-0.2
		c0.1,0,0.1,0,0.1,0.1s-0.1,0.4-0.1,0.9c0,0.3-0.1,0.9-0.1,1s0,0.3-0.2,0.3c-0.1,0-0.1-0.1-0.1-0.2c0-0.2,0-0.3-0.1-0.5
		s-0.2-0.4-0.9-0.5c-0.5-0.1-2.3-0.1-2.6-0.1c-0.1,0-0.1,0.1-0.1,0.1v1.4c0,0.5,0,2.4,0,2.8c0,1.1,0.3,1.3,2,1.3
		c0.4,0,1.2,0,1.7-0.2c0.4-0.2,0.7-0.5,0.8-1.1c0-0.2,0.1-0.2,0.2-0.2c0.1,0,0.1,0.1,0.1,0.2s-0.1,1.2-0.2,1.6
		c-0.1,0.4-0.3,0.4-0.9,0.4c-1.3,0-2.2,0-2.9-0.1c-0.7,0-1.2,0-1.4,0c0,0-0.4,0-0.7,0s-0.7,0-1,0c-0.2,0-0.3,0-0.3-0.1
		s0-0.1,0.1-0.1c0.2,0,0.4-0.1,0.5-0.1c0.3-0.1,0.4-0.4,0.4-0.9c0.1-0.7,0.1-1.9,0.1-3.5L179.1,72.8L179.1,72.8z M194.5,75.2
		c0.1,0,0.1,0,0.1-0.1l-1.7-4.5c-0.1-0.2-0.2-0.2-0.3,0l-1.6,4.5c0,0.1,0,0.1,0.1,0.1H194.5L194.5,75.2z M192.7,68.4
		c0.2-0.5,0.3-0.6,0.4-0.6c0.2,0,0.2,0.2,0.4,0.6c0.3,0.7,3,7.4,4,9.9c0.6,1.5,1.1,1.7,1.4,1.8c0.2,0.1,0.4,0.1,0.7,0.1
		c0.1,0,0.2,0,0.2,0.1s-0.2,0.1-0.4,0.1s-1.5,0-2.7,0c-0.3,0-0.6,0-0.6-0.1s0-0.1,0.1-0.1s0.3-0.2,0.2-0.4l-1.5-3.7
		c0-0.1-0.1-0.1-0.2-0.1h-3.9c-0.1,0-0.1,0-0.2,0.1l-1,2.6c-0.2,0.4-0.2,0.8-0.2,1.1c0,0.3,0.3,0.4,0.6,0.4h0.2
		c0.1,0,0.2,0.1,0.2,0.1c0,0.1-0.1,0.1-0.2,0.1c-0.4,0-1.3-0.1-1.5-0.1s-1,0.1-1.7,0.1c-0.2,0-0.3,0-0.3-0.1s0.1-0.1,0.2-0.1
		c0.1,0,0.4,0,0.5,0c0.8-0.1,1.1-0.7,1.4-1.5L192.7,68.4L192.7,68.4z M203.9,74.2c0,0.1,0,0.2,0.1,0.2c0.2,0.1,1.1,0.2,1.9,0.2
		c0.4,0,0.9,0,1.3-0.3c0.6-0.4,1-1.2,1-2.5c0-2-1.1-3.2-2.9-3.2c-0.5,0-1,0.1-1.2,0.1c-0.1,0-0.1,0.1-0.1,0.2L203.9,74.2L203.9,74.2
		z M202.4,72.8c0-2.5,0-3,0-3.5s-0.1-0.8-0.7-0.9c-0.2,0-0.4,0-0.6,0c-0.1,0-0.1-0.1-0.1-0.1c0-0.1,0.1-0.1,0.3-0.1c0.8,0,1.9,0,2,0
		c0.2,0,1.6,0,2.1,0c1.1,0,2.3,0.1,3.1,0.7c0.4,0.3,1.2,1.1,1.2,2.2c0,1.2-0.5,2.4-2.1,3.7c1.4,1.7,2.6,3.2,3.5,4.2
		c0.9,0.9,1.5,1.1,1.9,1.1c0.3,0.1,0.5,0.1,0.6,0.1s0.2,0.1,0.2,0.1c0,0.1-0.1,0.1-0.4,0.1h-1c-1,0-1.4-0.1-1.8-0.3
		c-0.7-0.4-1.3-1.2-2.3-2.4c-0.7-0.9-1.5-1.9-1.8-2.4c-0.1-0.1-0.1-0.1-0.2-0.1h-2.1c-0.1,0-0.1,0-0.1,0.1v0.4c0,1.6,0,2.8,0.1,3.5
		c0.1,0.5,0.2,0.8,0.7,0.9c0.2,0,0.6,0.1,0.7,0.1c0.1,0,0.1,0.1,0.1,0.1c0,0.1-0.1,0.1-0.3,0.1c-0.9,0-2-0.1-2.1-0.1
		c0,0-1.2,0.1-1.7,0.1c-0.2,0-0.3,0-0.3-0.1s0-0.1,0.1-0.1c0.2,0,0.4,0,0.5-0.1c0.3-0.1,0.4-0.4,0.4-0.9c0.1-0.7,0.1-1.9,0.1-3.5
		L202.4,72.8L202.4,72.8z"/>
	<g transform="translate(653.718 58.878)">
		<path class="st0" d="M-438.6,20c-1.6-1.4-2.1-3.3-2.1-4.8c0-1.1,0.4-3,1.9-4.4c1-1,2.6-1.7,5.1-1.7c0.7,0,1.6,0.1,2.4,0.2
			c0.6,0.1,1.2,0.2,1.7,0.2c0.2,0,0.2,0.1,0.2,0.2c0,0.1,0,0.3-0.1,0.9c0,0.5,0,1.4,0,1.7c0,0.2-0.1,0.3-0.2,0.3s-0.1-0.1-0.1-0.3
			c0-0.6-0.3-1.3-0.7-1.6c-0.6-0.5-1.8-0.9-3.3-0.9c-2.2,0-3.2,0.6-3.8,1.1c-1.2,1.2-1.5,2.6-1.5,4.3c0,3.1,2.5,5.9,6.1,5.9
			c1.3,0,2.1-0.1,2.8-0.8c0.4-0.4,0.6-1,0.7-1.4c0-0.2,0.1-0.2,0.2-0.2s0.2,0.1,0.2,0.2s-0.2,1.5-0.4,2.1c-0.1,0.3-0.1,0.4-0.4,0.5
			c-0.7,0.3-1.9,0.4-3,0.4C-435.6,21.7-437.3,21.1-438.6,20L-438.6,20z"/>
	</g>
	<path class="st0" d="M238.4,75.6c0,1.6,0,2.9,0.1,3.5c0.1,0.5,0.1,0.8,0.6,0.9c0.2,0,0.6,0.1,0.7,0.1c0.1,0,0.2,0.1,0.2,0.1
		c0,0.1-0.1,0.1-0.3,0.1c-0.9,0-2-0.1-2.1-0.1s-1.2,0.1-1.7,0.1c-0.2,0-0.3,0-0.3-0.1s0-0.1,0.1-0.1c0.2,0,0.3,0,0.5-0.1
		c0.3-0.1,0.4-0.4,0.5-0.9c0.1-0.7,0.1-1.9,0.1-3.5V74c0-0.1,0-0.1-0.1-0.1h-7c-0.1,0-0.1,0-0.1,0.1v1.6c0,1.6,0,2.8,0.1,3.5
		c0.1,0.5,0.1,0.8,0.6,0.9c0.2,0,0.6,0.1,0.8,0.1c0.1,0,0.1,0.1,0.1,0.1c0,0.1-0.1,0.1-0.3,0.1c-0.9,0-2-0.1-2.1-0.1
		s-1.2,0.1-1.7,0.1c-0.2,0-0.3,0-0.3-0.1s0-0.1,0.1-0.1c0.2,0,0.4,0,0.5-0.1c0.3-0.1,0.4-0.4,0.4-0.9c0.1-0.7,0.1-1.9,0.1-3.5v-2.9
		c0-2.5,0-3,0-3.5s-0.1-0.8-0.7-0.9c-0.2,0-0.4,0-0.6,0c-0.1,0-0.1-0.1-0.1-0.1c0-0.1,0.1-0.1,0.3-0.1c0.8,0,1.8,0,1.9,0
		c0.1,0,1.2,0,1.7,0c0.2,0,0.3,0,0.3,0.1s-0.1,0.1-0.1,0.1c-0.1,0-0.2,0-0.4,0c-0.5,0.1-0.5,0.3-0.6,0.9c0,0.5,0,1,0,3.5V73
		c0,0.1,0,0.1,0.1,0.1h7c0.1,0,0.1,0,0.1-0.1v-0.4c0-2.5,0-3,0-3.5s-0.1-0.8-0.7-0.9c-0.2,0-0.4,0-0.6,0c-0.1,0-0.1-0.1-0.1-0.1
		c0-0.1,0.1-0.1,0.3-0.1c0.7,0,1.8,0,1.9,0c0.1,0,1.2,0,1.7,0c0.2,0,0.3,0,0.3,0.1s-0.1,0.1-0.2,0.1c-0.1,0-0.2,0-0.4,0
		c-0.4,0.1-0.5,0.3-0.6,0.9c0,0.5,0,1,0,3.5V75.6L238.4,75.6z"/>
</g>
<g>
	<g transform="translate(0 .928)">
		<path class="st1" d="M18.7,17.9c-0.4,0.5-0.8,1-1.2,1.5c0.8,0.2,2,0.4,2.9,0.2C19.7,19.2,19.4,18.4,18.7,17.9L18.7,17.9z
			 M9.4,14.4C10,14.7,11,15,11.8,15c0.6-0.1,0.9-0.6,0.9-1.2c0-1.1-0.5-2.2-1.2-2.4C11.1,12.6,10,13.3,9.4,14.4L9.4,14.4z M23.1,6
			c0.3,0.4,0.9,0.9,0.8,1.7c0,0.6-0.4,0.8-0.6,1.3c0.5,0.6-0.6,0.6-0.2,1c-1.1,0.9-3,1.1-4.8,1.1c0.1,1,0.4,1.7,0.6,2.5
			c1-0.9,1.7-2.2,3.5-2.4c1,1.2-0.2,2.3-0.9,3.2c-0.5,0.6-0.9,1.2-1.3,1.7c0.6,1,1.2,2,2,2.8c-0.2,0.2,0,0.4,0,0.5
			c0,0.2-0.2,0.1-0.2,0.3c0.4,0.4,1.1,0.1,1.7,0.1c0.5,0,1,0.1,1.4,0.3c-0.1,0.3,0,0.6,0,1c-0.6,0.1-1.1,0.5-1.7,0.6
			c-0.2,0-0.4-0.1-0.7,0c-0.6,0-1.2,0.1-1.8,0.1c-2.3,0-4.4,0.2-6.5,0.1c-0.7,0-1.3,0.1-1.9,0.1c-1.8,0.1-3.6-0.1-5.3-0.1
			c-1,0-1.9-0.1-2.7-0.1c-0.1,0.7,0.2,1.1,0.3,1.7C6.2,23.2,7.3,24,8.5,24c0.5,0,1.2-0.1,1.7-0.3c0.2-0.1,0.4-0.2,0.6-0.2
			c0.2,0,0.4,0.1,0.6,0.1c0.2,0,0.3-0.1,0.5-0.1c0.7,0,1.5,0.6,2.2,0.7c1.2,0.1,2.3-0.2,3.5,0c0.8-0.5,1.7,0.1,2.6,0.2
			c0.8,0,1.5-0.3,2.3-0.2c0.2,0,0.4,0.1,0.6,0.1c0.6,0,1.2-0.3,1.8-0.3c0.8-1.9,0.3-4.3,0.3-6.6c0-1.9-0.2-3.8,0-5.7
			c0.1-0.6,0.2-1.2,0.2-1.7c0-0.9-0.3-1.7-0.2-2.7c0-0.4,0.2-0.9,0.2-1.3C24.9,6.1,23.9,6.1,23.1,6L23.1,6z M18.9,5.5
			c-1.9,0-4.3,0-6.1,0.5c-0.3-0.4-0.9,0-1.4,0.1c-0.6,0-1.2-0.2-1.9-0.2C9.1,5.9,8.7,6,8.3,6C7.7,6,7.2,5.8,6.6,5.8
			C5.7,5.8,4.8,5.9,4,6c0.2,0.8,0.4,1.5,0.3,2.4c-0.1,0.7-0.5,1.5-0.5,2c0,0.4,0.3,0.9,0.4,1.3c0,0.3,0,0.7,0,1
			C4.1,13.8,4.1,15,4,16.2c0,0.2-0.1,0.5-0.1,0.7c0,0.6,0.3,1.2,0.1,1.8c0.6-0.1,1.2-0.3,1.8-0.2c0.5,0.1,0.9,0.4,1.3,0.4
			c0.4,0.1,0.9-0.1,1.4,0c0.3,0,0.7,0.2,1,0.2c1.8,0.3,3.6,0.6,5.2,0.1c0.6-1.5,1.7-2.5,2.5-3.8c-0.6-1.4-1.3-2.7-1.8-4.2h-0.7
			c0.1,1.1,0.5,2.5,0.1,3.6c-0.1,0.4-0.7,1.4-0.9,1.6c-0.1,0.1-0.4,0.2-0.7,0.3C13.1,16.8,13,17,12.8,17c-0.5,0.1-1.2-0.2-1.7-0.1
			c-0.4,0-0.7,0.2-1.1,0.2c-0.8,0-1.5-0.2-2.1-0.5c-0.8,0.6-2.1,0.1-2.5-0.5c-0.2-0.6,0-1.3,0.4-1.6c0.2-0.1,0.4-0.1,0.6-0.2
			c1.3-0.6,2-1.7,2.6-3c-0.8-0.6-2.4-0.2-2.9-1C5.9,10,5.7,9.2,5.8,8.8c0.1-0.3,0.9-1.1,1.5-1.4c0.4-0.1,0.8-0.2,1.2-0.1
			c0.7,0,0.9,0.6,1.5,0.9c0.5,0.2,1.2,0,1.8,0.1s1.2,0.3,1.9,0.3c0.5,0,0.9-0.2,1.4-0.1c0.2-0.5,0-1.2,0.2-1.7
			c0.1-0.2,0.4-0.4,0.6-0.5c0.7-0.5,1-0.4,1.4,0.3c0.3,0.6,0.7,1.2,0.6,2.1c1,0,2.1,0.3,3.2,0.1c0.2-0.4,0.4-0.9,0.2-1.4
			c-0.1-0.3-0.6-0.3-0.7-0.7c0.2-0.2,0.8-0.6,0.7-0.8C20.6,5.7,19.6,5.8,18.9,5.5L18.9,5.5z M0,6.1v-1c0.1-0.6,0.3-1,0.6-1.5
			c0.3-0.4,0.5-1,0.8-1.3c0.5-0.7,1.5-1.6,2.5-1.7c1.2,0,1.4,0.9,2.2,1.1c0.4,0.1,0.9,0,1.4,0C8.3,1.8,9,2.3,9.8,2.5
			c0.9,0.2,1.8,0.4,2.7,0.5c2.1-0.9,4.6-0.3,7-0.2c1.3,0.1,2.5,0,3.7,0.2s2.3,0.4,3.5,0.4c0.2-0.3,0.7-0.2,0.7-0.7
			c0.3-0.1,0.5-0.5,0.9-0.5c0.6,0,1.6,1.2,1.6,1.8c0,0.5-0.4,1-0.5,1.7c-0.1,0.3-0.1,0.6-0.1,0.9C29.2,6.9,29,7.2,29,7.5
			c0,0.7,0.1,1.5,0.2,2.2c0,0.7-0.1,1.3-0.2,2.1c-0.4,2.2-0.3,4.5-0.5,6.7c-0.1,0.7,0.1,1.3,0.1,2c0,0.3-0.1,0.7-0.1,1.1
			c0,0.1-0.1,0.3-0.1,0.5s0.1,0.3,0.1,0.5c-0.1,0.6-0.4,1.2-0.5,1.8c0,0.3,0.1,0.5,0.1,0.9c-0.5,0.6-1,1.2-1.7,1.4
			C25.2,27.1,23.5,27,22,27c-0.7,0-1.5,0.1-2.3,0.1s-1.6-0.2-2.3-0.2c-0.7,0-1.4,0-2,0c-0.1,0-0.2-0.1-0.3-0.1s-0.4,0.1-0.6,0.1
			C13.8,27,13.1,27,12.4,27c-0.5,0-0.9-0.3-1.5-0.3c-0.9,0-1.6,0.2-2.4,0.3c-1.1,0.2-2.4-0.1-3.4,0.1c-0.6,0.1-1,0.4-1.4,0.3
			c-0.6-0.1-1.1-0.7-1.2-1.4c0-0.2-0.1-0.2-0.1-0.4c-0.1-0.4,0.1-0.6,0.1-0.9S2.1,23.8,2,23.5c-0.7-1.4-1-2.7-1-4.4
			C1,18,0.9,17,1,15.9c0-1.1,0-2.2,0-3.3c0-0.6-0.3-1.2-0.3-1.8c-0.1-0.6,0-1.1,0.1-1.8C0.9,7.9,0.3,7,0,6.1L0,6.1z"/>
	</g>
	<path class="st1" d="M74.5,15c0.3,0.3,0.5,0.8,0.8,1.2c0.3-0.4,0.5-0.8,0.8-1.2C75.6,14.9,74.9,14.8,74.5,15L74.5,15z M75.2,6.6
		c-0.2,0.5-0.4,1.1-0.4,1.8c0.3,0.1,0.5,0.2,0.8,0.2c0.2-0.7,0.4-1.4,0.5-2.2C75.8,6.5,75.5,6.6,75.2,6.6L75.2,6.6z M75.2,4
		c0.1,0.1,0.3,0.2,0.4,0.2c0.5,0,0.7-0.3,1.2-0.3c0.2-0.4,0.5-0.7,0.5-1.2c0.3-0.1,0.7-0.2,1.2-0.1c0.4,0.2,0.6,0.5,0.6,1.2
		c0,0.4,0,1,0,1.3c-0.1,0.5-0.5,1.2-0.7,1.8c-0.3,0.7-0.6,1.2-0.7,1.8c0.6,0.4,1.6-0.4,2.1,0.2c0.4,1.3-0.7,2-2,2.1
		c-1.5,0.2-3.4,0.2-4.5-0.2c-0.4,0.3-1-0.2-1.4,0.1c-0.1,0.6,0.1,1.2,0,1.8c0,0.1-0.1,0.3-0.2,0.4c-0.2,0.9-0.1,1.7-0.2,2.6
		c-0.1,0.9-0.7,1.7-0.5,2.7c0.6-0.2,0.9-0.7,1.7-0.5c0.4,0.1,0.8,0.6,1.3,0.6c-0.2-0.7-0.6-1.3-1.1-2c-0.2-0.4-0.6-0.6-0.7-1
		c-0.2-0.8,0.2-1.5,0.4-2.2c1-1.4,3.3-0.4,4.5,0.1c0.3-0.2,0.3-0.4,0.6-0.5c0.6-0.1,1.3,0.7,1.2,1.3c-0.1,0.3-0.5,0.7-0.7,1
		S78,15.8,77.8,16c-0.2,0.3-0.6,0.5-0.8,0.7c-0.2,0.2-0.2,0.5-0.4,0.6c-0.2,0.2-0.5,0.2-0.6,0.4c-0.1,0.3,0,0.7,0.1,1
		c0.4,0.1,0.8,0.3,1.3,0.3s0.9-0.4,1.4-0.4c0.2,0.3,0.3,0.6,0.6,0.8c0,0.2-0.3,0.2-0.1,0.4c-0.5,0.3-0.9,0.9-1.6,1.1
		c-0.5,0.2-1.1,0-1.6,0.4c-0.3,3.6-1.6,6.3-5.4,6.5c-0.5-0.2-1.5-0.6-1.3-1.5l0.1-0.2c0.4-0.4,1.2-0.1,1.8-0.3
		c2-0.5,2.8-2.2,2.8-4.7c-1-0.5-2.8,0.1-3.7-0.5c-0.8,1.8-3.2,3.2-5.8,2.3c-0.4-0.5-1.2-1.3-0.9-2.2c0.2-0.5,0.7-0.6,1.2-0.8
		c0.2,0.2,0.5,0.4,0.8,0.5c2.1,0.3,3.3-1,3.7-3.2c0.3-2,0.3-4.4-0.3-6c-1.2-0.4-2.2-0.1-3.4,0c-0.1-0.1-0.2-0.2-0.3-0.3
		c0.2-0.9-0.2-1.9,0.4-2.6C66.1,8,66.3,8,66.5,7.9c0.6-0.3,1.5-1,2.3-0.5C69,7.5,69,7.7,69.3,7.8C69.5,7.9,69.8,8,70,8.1
		c0.6,0.3,1.1,0.5,2,0.4c0.2-0.5,0.1-1.3,0.1-1.9c-0.8-0.1-1.7-0.2-2.4-0.3c-0.3,0-0.6,0-0.8-0.1c-0.2-0.1-0.4-0.4-0.6-0.4
		s-0.4,0.1-0.5,0.1c-0.3,0-0.4-0.2-0.6-0.2c-0.3-0.9-0.1-2.2,0.4-2.9c0.2-0.3,0.9-0.7,1.3-0.8c0.4-0.1,0.8,0.1,1.2,0.1
		c0.2,0,0.4-0.2,0.7-0.2C70.9,2.1,71,2.6,71,3c0.3,0.3,0.9,0.4,1.3,0.6c0-1.5,0.2-2.9,1.1-3.5c0.2-0.1,0.2,0.1,0.4,0.1
		c0.2,0,0.3-0.3,0.7-0.2c0.4,0.2,0.7,1.6,0.8,2.2C75.3,2.9,75.2,3.6,75.2,4L75.2,4z"/>
	<path class="st1" d="M84.5,10.4c-0.4-0.7-1.7-0.4-2.1,0.1c0.5,0.8,0.9,1.6,1.3,2.5c0.2,0.5,0.3,0.9,0.5,1.4
		c0.2,0.4,0.5,0.8,0.6,1.2c0.1,0.2,0.1,0.6,0.3,0.7c0.2-1.8,0.8-3.7,0.5-5.6C85.2,10.6,84.8,10.5,84.5,10.4L84.5,10.4z M85.3,7.6
		C85.6,7.9,86,8,86.5,8.2c0.7,0.3,1.5,0.7,2.3,0.9c0.7,0.1,1.6,0.2,2.2,0c0.2-0.1,0.4-0.4,0.6-0.4c0.6-0.1,0.6,0.8,0.3,1.2
		c-0.6,1-2,1.6-3.7,1.6c-0.2,0.9-0.7,2-0.6,2.9c0,0.2-0.1,0.1-0.2,0.3c0.1,1.4-0.8,2.2-0.5,3.9c-0.6,0.7-0.1,1.3,0.2,2.2
		c0.5,1.2,1.3,2.9,1.9,3.8c0.4,0.6,1.3,1.3,1.9,1.5c0.8,0.2,1.7,0.1,2-0.4c0.2-0.3,0.3-1,0.6-1c0.5,0,0.4,1.4,0.2,1.9
		c-0.3,0.8-0.6,1.1-1.4,1.5c-1,0.5-3.4,1.2-4.5,0.2c-0.7-0.7-1-1.9-1.4-3s-1-1.9-1.3-3c-1.2,0.7-2.5,1.9-4.3,2.2
		c-0.8,0.1-1.6-0.2-2.6-0.2c-0.2-0.2-0.4-0.3-0.6-0.4c-0.2-0.5-0.2-1-0.2-1.7c0.1-0.2,0.4-0.3,0.6-0.5c1.8,0.4,3.9,0.2,5-0.8
		c0.3-0.2,0.9-0.9,0.9-1.3c0-0.3-0.5-1-0.7-1.4c-0.3-0.5-0.5-1-0.7-1.4c-0.4-1-0.8-2.3-1.2-3.1c-0.3-0.5-0.5-0.9-0.7-1.5
		c-0.1-0.3-0.3-0.5-0.3-0.7c0-0.5,0.6-0.8,0.6-1.2c-0.2-0.1-0.5-0.1-0.7-0.3C80,9.7,80,9.1,80.1,8.8c0.1-0.1,0.2-0.2,0.3-0.3
		C80.9,8.2,80.9,8,81,8c0.2-0.1,0.4-0.1,0.6-0.2c1.1-0.4,2.3-1.9,2-3.3c-0.1-0.2-0.3-0.5-0.2-0.9c0-0.4,0.6-0.5,0.7-1.1
		c1-0.5,2.2,0.5,2.4,1.4C86.9,5.4,85.6,6.8,85.3,7.6L85.3,7.6z M50.1,4.4c0.8-0.1,1.8,0,2.6,0c0.2,0,0.5-0.1,0.7-0.1
		c0.3,0,0.6,0.3,0.9,0.3c0.5,0.1,1.1,0,1.7,0c0.7,0.1,1.2,0.3,1.8,0.2c0.1,0,0.2-0.2,0.4-0.2c0.2-0.1,0.3,0,0.5-0.1
		c0.5-0.2,1.2-0.8,2-0.4c0.4,0.2,0.9,1,0.7,1.7c-0.1,0.4-0.5,0.6-0.8,1C60,8,60.3,9.5,60,10.8c0,0.2-0.1-0.1-0.2,0.1
		c0,1.4-0.9,2.4-2,2.8c-0.2-0.1-0.5-0.1-0.7-0.2c-0.5-0.5-0.1-1.4,0.1-1.9c0.4-1.3,0.1-2.9,0.3-4.4C56,6.9,54.4,6.9,53,6.6
		c-0.5-0.1-0.9-0.3-1.4-0.3c-1-0.1-1.8,0.3-2.6,0.6c-0.7,0-1.4-0.4-2.2-0.3c-0.2,0-0.4,0.2-0.6,0.3c-0.9,0.3-1.9,0.4-3.1,0.4
		c-0.7,0.1-1.5,0.2-2.3,0.2c-1.1-0.1-2.1-0.5-3.1-0.3c0.2,1.7-0.3,4.1,0.4,5.4c-0.3,0.3-0.2,0.9-0.6,1.1c-0.2,0.1,0.2,0.2,0,0.3
		c-0.2-0.1-0.4,0-0.6-0.1c-0.5-0.6-1.5-1.4-1.7-2.6c0-0.3,0-0.5,0-0.9c0-0.3-0.2-0.7-0.2-1.2c0-0.2,0.1-0.4,0.1-0.6
		c0-0.8-0.9-1.3-1.1-2.1c-0.3-1.2,0.3-2.5,1-2.9C35.9,3,38,3,38.4,4.2c0.8,0.1,1.4,0.2,2,0.4c0.6,0.2,1.1,0.6,1.8,0.6
		C42.6,5.2,43,5,43.6,5c1,0,2.5,0,2.9-0.7c0.1-0.3,0.1-0.7,0-0.9c-0.3-0.5-1.2-0.3-1.2-1c0-0.3,0.2-0.7,0.4-1
		C46.3,0.6,47,0,48.4,0.5c0.4,0.2,1,0.5,1.3,0.7C50.5,1.9,50.5,3.4,50.1,4.4L50.1,4.4z"/>
	<path class="st1" d="M53.9,10.1c0.7,0.2,0.7,1.2,0.3,1.7c-0.6,0-1,0.5-1.5,0.7c-1.6,0.4-3.7-0.2-5.3,0.2c0.1,1.3,0.6,2.2,1.2,3.1
		c0.7-0.2,1.3,0,1.9,0.3c0.3,0.2,0.5,0.5,0.8,0.5s0.6-0.3,0.9-0.4c0.8-0.4,1.5-1.1,2-1.8c-0.1-0.3-0.1-0.8,0-1
		c0.6-0.1,0.8-0.6,1.5-0.5c0.6,0.1,1.7,1.3,1.6,2.4c-0.1,0.6-0.5,0.6-1.1,0.9c-0.5,0.2-0.9,0.8-1.4,1c-0.3,0.7-1.5,0.8-2.1,1.4
		c0.1,0.7,0.6,1.2,1,1.7c0.8,1.1,1.6,2.1,2.4,3.2c0.5,0.7,1,1.3,1.7,1.7c0.9,0.5,2.5,1,3.7,0.4c0.2-0.1,0.5-0.7,0.8-0.7
		c0.4,0,0.8,0.8,0.7,1.4c0,0.2-0.2,0.4-0.5,0.7c-0.5,0.5-1.3,1.4-2.3,1.5c-0.2,0-0.5-0.1-0.7-0.1c-0.5,0-0.9,0.1-1.4,0.1
		c-0.3,0-0.6-0.2-0.9-0.1c-0.4-0.3-1-0.4-1.4-0.7c-0.3-0.3-0.5-0.7-0.7-1.1c-0.3-0.4-0.5-0.8-0.8-1.1c-0.8-1-1.6-2-2.3-3.1
		c-0.7-1-1.6-2-2.2-3.3c0.6,2.4,0,4.9-0.9,6.5c-0.9,1.7-2.4,3-4.3,3.4c-0.5-0.2-1-0.8-0.8-1.5c0-0.1,0.2-0.2,0.4-0.4
		c0.3-0.2,0.4-0.5,0.8-0.5c1.5-1.5,3.1-3.8,2.3-6.8c-0.4,0.3-0.7,0.7-1,1.1s-0.6,0.8-0.9,1.2c-0.7,0.3-1.4,0.9-2.1,1.5
		c-1.4,1-3,1.8-4.7,2.5c-1.2,0.5-2.4,1.2-4.1,1c-0.4-0.1-1.4-1-1.3-1.6c0-0.2,0.5-0.7,0.8-0.7c0.3-0.1,0.7,0,1-0.1
		c0.9-0.1,1.6-0.4,2.3-0.7c1.7-0.5,3.2-0.9,4.6-1.8c0.4-0.3,0.9-0.7,1.3-1.1c0.4-0.4,0.9-0.7,1.2-1.1c0.4-0.5,0.7-1,1.1-1.5
		c0.3-0.4,1-0.9,0.7-1.6c-0.4,0-0.8,0.2-1.2,0.5c-0.2,0.2-0.3,0.4-0.5,0.6s-0.6,0.3-1,0.6c-0.3,0.2-0.6,0.5-0.9,0.6
		c-0.1,0.1-0.3,0.1-0.5,0.1c-0.5,0.2-1,0.6-1.6,0.9c-1.1,0.6-2,1.2-3.4,1.6c-0.9,0.3-2,0.4-2.8,0.3c-0.3-0.3-0.8-0.4-1-0.7
		c-0.3-0.6,0.1-1,0.5-1.4c2,0.1,3.5-0.6,4.9-1.3c0.7-0.3,1.5-0.5,2-0.8c0.4-0.2,0.9-0.6,1.3-0.9c0.5-0.3,1-0.5,1.4-0.8
		c0.3-0.2,0.5-0.5,0.7-0.8s0.5-0.5,0.6-0.8c-0.1-0.2-0.2-0.4-0.3-0.6c-1.1,0.3-2,1.2-3,1.8c-1,0.5-2.1,1-3.2,1.3
		c-1,0.3-1.7,0.5-2.7,0.3s-1.8-0.5-1.7-1.8c0.3-0.4,0.8-0.5,1.1-0.9c3.1,0.2,6.2-0.5,7.8-2.1c-0.5,0-0.9-0.4-1.5-0.5
		c-0.2,0-0.5,0.1-0.7,0c-1.1-0.4-0.2-1.7,0.2-2.5c0.5-0.1,0.9-0.5,1.4-0.6c0.6-0.1,1.1,0.2,1.7,0.2c0.2,0.3,0.5,0.6,0.8,0.9
		c0.9,0.1,1.9,0.5,3,0.5c0.5,0,0.9-0.1,1.4-0.2c0.7-0.1,1.5-0.1,2.1,0c0.4,0,0.8,0.2,1.2,0.2C52.9,10.5,53.4,10.1,53.9,10.1
		L53.9,10.1z M131.5,7.7c0,0.9-0.3,1.8-0.3,2.7c-0.1,0.7,0.1,1.5,0,2.2c0,0.3-0.1,0.6-0.2,0.9c-0.1,0.9,0,1.7-0.2,2.6
		c-0.1,0.7-0.3,1.6-0.5,2.3c-0.1,0.4-0.4,0.8-0.6,1.2c-0.5,0.9-0.8,1.4-1.6,2.1c-0.3,0.3-0.6,0.7-0.9,1c-0.4,0.3-1.4,1.1-2.1,1.1
		s-1.3-0.8-1.6-1.5c-0.1-0.3-0.2-0.6-0.2-0.8c0.1-0.4,0.7-0.2,0.9-0.6c0.4-0.1,1-0.1,1.4-0.2c1.3-0.6,2.7-2.1,3-3.9
		c0.4-1.9,0.6-4.2,0.4-6.3c-0.1-1.2-0.8-2.2-1.2-3.1c-0.4-1.9,0.7-3.3,1.8-3.9c1.2-0.5,1.8,1,2.4,1.3c0.3,0.2,0.9,0.1,1.5,0.3
		c0.2,0.1,0.4,0.2,0.6,0.3c0.5,0.1,1.1,0,1.6,0c0.6,0.1,1.2,0.2,1.8-0.1c0.2-0.1,0.4-0.6,0.8-0.5c0.2,0.1,0.3,0.8,0.2,1.1
		c-0.1,0.2-0.3,0.3-0.5,0.5s-0.3,0.5-0.5,0.6c-0.1,0.1-0.4,0.2-0.6,0.4c-0.4,0.3-0.7,0.5-1.4,0.6C134.3,8,132.8,7.6,131.5,7.7
		L131.5,7.7z"/>
	<g transform="translate(114.72 2.58)">
		<path class="st1" d="M31.3,5.4c-0.1,1.5,0,2.8-0.3,4.2c0.4,0.1,0.8,0.2,1.3,0.3c1,0.2,1.6,0.3,2.4,0c0-0.5,0.3-1,0.2-1.6
			c0-0.5-0.3-0.9-0.3-1.5s0.1-0.9,0.1-1.3C33.5,5.5,32.3,5.2,31.3,5.4L31.3,5.4z M37.3,5.5c0,0.5-0.2,0.9-0.2,1.4
			c0,0.4,0.2,0.8,0.2,1.3c0,0.6-0.1,1.2-0.1,1.9c0.4,0.1,0.7,0.3,1.3,0.4c1,0.1,2.1-0.7,2.2,0.4c0.1,0.7-0.5,1.3-1.1,1.5
			c-0.7,0.3-1.7,0.2-2.5,0.3c-0.3,3.6-0.1,7.9,0,11.7c0,0.9,0.4,2.2,0.1,2.8c-0.1,0.4-1.2,0.8-1.7,0.6C35,27.6,35.2,26.7,35,26
			c-0.1-0.4-0.2-0.7-0.2-0.9c0-0.3,0.1-0.6,0.1-0.8c0-0.3-0.1-0.6-0.1-0.9c0-0.5,0-1,0.1-1.6c0-1-0.1-2.1-0.1-3.2
			c0-1.2-0.2-2.3-0.1-3.3c0.1-1,0.3-1.9,0-2.8c-1.3,0-2.3-0.4-3.6-0.4c-0.6,2-0.8,4.5-1.7,6.2c-0.2,0.3-0.4,0.5-0.5,0.8
			c-0.2,0.3-0.3,0.6-0.5,0.8c-0.9,1.1-2.2,1.9-4,2.3c-0.8,0.2-1.6,0.2-2.3-0.3c-0.5-0.3-0.7-1.1-0.6-1.7c0.3-0.5,1-0.2,1.6-0.1
			c0.8,0,1.4-0.2,2-0.5c0.2-0.1,0.3-0.3,0.5-0.3c0.3-0.3,0.7-0.4,1-0.6c0.3-0.3,0.6-0.9,0.9-1.4c0.8-1.3,1-3.1,1.2-5.1
			c-0.3,0-0.5,0-0.8,0c-0.4,0-0.9-0.3-1.3-0.3c-0.6,0-0.8,0.9-1.5,0.7c-0.3-0.1-0.5-1.1-0.4-1.6c0-1,1.3-2.5,2.3-2.5
			c0.7,0,1.1,0.5,1.6,0.9C29,8.2,29,6.2,28.5,5.2c-0.7-0.2-1.4-0.4-1.9-0.7C25.9,4.8,25,5,24.8,4.1c-0.1-0.5,0-1.8,0.3-2.1
			c0.4-0.4,0.9-1.1,1.5-1.2s1,0.1,1.7,0.2c0.6,1.3,2.6,1.2,3.9,1.7c0.9-0.4,2,0.1,3.1,0.1c0.4,0,0.8-0.1,1.2-0.1
			c1,0.1,1.9,0.3,2.7,0.2c0.4-0.1,0.8-0.4,1.2-0.5c0.5,0,0.8,0.4,0.9,0.7C40.7,4.7,39.4,5.5,37.3,5.5L37.3,5.5z"/>
	</g>
	<path class="st1" d="M134.5,14.7c-0.2,1.1-0.4,2.2-0.5,3.2c0.6,0.2,1.5,0.4,2.3,0.2c0.1-1.1,0.2-2.2,0.2-3.3
		C135.8,14.7,135.1,14.7,134.5,14.7L134.5,14.7z M132.3,20.7c-0.9-0.7-0.2-1.9,0.1-2.8c0.2-0.8,0.3-2.1,0.1-2.9
		c-0.1-0.4-0.4-0.7-0.5-1.2c-0.3-1.6,0.5-2.8,1.5-2.9c1-0.2,1.3,0.6,1.7,1.2c0.7,0.2,1,0.4,1.6,0.2c0.5-0.2,0.6-0.9,1.1-0.9
		c0.4,0,0.5,0.3,0.7,0.6c0.1,1-0.3,2-0.3,2.9c0,0.3,0.1,0.5,0,0.8c0,0.2-0.2,0.3-0.3,0.5c-0.1,0.2-0.1,0.6-0.1,0.9
		c-0.1,0.3-0.2,0.7-0.2,0.8c0,0.5,0.2,0.8,0.1,1.2c-0.1,0.4-0.5,0.7-0.9,0.8c-1.1,0.4-2.7,0.1-3.8,0.4
		C132.9,20.4,132.7,20.6,132.3,20.7L132.3,20.7z M110.3,6.1c-0.6,0.6-1,1.4-1.4,2.3c0.8,0.5,2.5,0.7,3.5,0.3c0.4-0.9-0.2-1.7-0.8-2
		c0.1-0.2,0.1-0.4,0.1-0.7C111.3,6,110.7,6,110.3,6.1L110.3,6.1z M111.9,3.7c0.6,0.2,1.3,0.5,2,0.5S115.3,4,116,4
		c0.6,0,1.3,0.1,1.8,0.3c1.4,0.4,3.2,0.3,4.6,0.7c0.4-0.1,0.9-0.3,1.2-0.3c0.5-0.3,0.8-0.8,1.3-1.1c0.4,0.2,0.4,0.7,0.4,1.2
		c-0.8,1.2-2.2,2.1-4.2,2.3c-0.9,0.1-1.6-0.2-2.4-0.3c-0.8-0.2-1.6-0.2-2.1-0.5c-0.6,0.1-1.4-0.2-2,0c0.2,0.4,0.2,0.8,0.2,1.3
		c0,0.2,0.1,0.3,0.1,0.5c0,0.9-0.9,2.4-1.7,2.7c-0.5,0.2-1.7,0.4-2.3,0.4c-0.6,0.1-1.4,0-2,0c-0.4,0-0.7-0.2-1.1-0.2
		c-0.7-0.1-1.4,0.5-2,0.4c-0.2,0-0.4-0.2-0.7-0.3c-0.7-0.3-1.3-1-0.7-1.9c0.1-0.1,0.3-0.1,0.5-0.1c1-0.7,1.9-1.5,2.4-2.6
		c-0.6,0-1.1,0.3-1.7,0.4c-1.1,0.1-2.3-0.3-3.5-0.4c-0.5,0-0.8,0.2-1.3,0.3c-1.4,0.3-2.7-0.4-3.8-0.7c-0.4,0.1-1.5,0.8-1.7,0.4
		c-0.1-0.2,0-0.4,0-0.6c0-0.4-0.2-0.9-0.1-1.2s0.4-0.8,0.6-1.1c0.4-0.5,1.1-1.2,2-1.1c0.3,0,0.6,0.3,1,0.4c0.3,0.1,0.6,0,0.8,0.1
		c0.4,0.2,0.6,0.6,1,0.8c0.7,0.1,1.3,0,1.9,0c1.2,0.1,2.2,0.7,3.5,0.7c1.1,0,2.6,0.1,2.6-1c-0.1-0.2-0.5-0.4-0.5-0.7
		c-0.1-0.4,0.1-0.9,0.3-1.2c0.7-1.4,3.6-1,3.8,0.7C112.1,2.7,112,3.1,111.9,3.7L111.9,3.7z M107.7,18.5c0,0.3-0.1,0.6-0.1,0.9
		c0.5,0.1,1,0.1,1.6,0.2c1,0,2,0.1,2.8,0.1c0.1-0.4,0-1,0-1.4C110.5,18.6,108.8,17.6,107.7,18.5L107.7,18.5z M107.7,15.9
		c0.7,0.4,1.6,0.1,2.5,0.2c0.5,0.1,1.2,0.4,1.8,0.2c0-0.5,0.2-1,0.3-1.6c-1.7-0.1-3.2-0.5-4.9-0.3C107.6,14.9,107.7,15.4,107.7,15.9
		L107.7,15.9z M112.2,21.8c-0.7,0.2-1.7,0-2.6,0c-0.5,0-1,0.2-1.4,0.2c-0.3,0-0.7-0.2-1,0c-0.1,0.1-0.6,0.7-0.7,1
		c-0.2,0.4-0.4,1-0.6,1.4c-0.3,0.6-1.2,1.6-1.7,2c-0.2,0.2-0.4,0.3-0.6,0.5c-0.4,0.3-0.7,0.7-1.3,0.8c-0.4,0.1-1,0.1-1.5-0.1
		c-0.1-0.1-0.7-0.7-0.7-1c0-0.7,1.2-0.8,1.7-1s0.9-0.6,1.3-1c0.9-0.8,1.2-1.7,1.6-3c0.2-0.5,0.5-1.1,0.6-1.7c0.2-0.9,0.1-2,0.1-2.9
		c0-0.5-0.2-1-0.4-1.5c-0.3-0.7-1.3-1.6-0.7-2.6c0.2-0.3,1.3-1.3,1.7-1.4c0.6-0.1,1.5,0.2,2.1,0.4c0.7,0.2,1.4,0.2,2.1,0.3
		c1.4,0.2,2.8,1.1,3.5-0.3c0.5,0.1,0.6-0.9,1.3-0.7c0.5,0.1,0.4,2,0.2,2.4c-0.1,0.2-0.3,0.4-0.3,0.6c-0.2,0.4-0.2,0.9-0.3,1.4
		c-0.1,0.3-0.3,0.5-0.3,0.8c-0.2,0.7-0.1,1.6-0.1,2.5c0.1,1.5,0,3,0,4.3c0,0.3,0.1,0.7,0.1,1.1c0,0.3-0.1,0.6-0.1,0.9
		c0,0.7,0.1,1.4,0.2,2c0,0.3-0.1,0.6,0,0.9c0,0.4,0.1,0.8,0,1c-0.1,0.4-0.6,0.7-1.1,0.7c-1.1-0.1-1.2-2.6-1.2-3.9
		C112,24.5,112.1,23.2,112.2,21.8L112.2,21.8z M196.2,16.8c0.1,0,0.1,0.1,0.2,0.1c0.3-0.1,0.6-0.6,0.9-0.9c0.1-0.1,0.2-0.1,0.3-0.2
		c0.9-0.9,0.8-2.9-0.3-3.5c-0.3,0.2-1,0.3-1.4,0.1c-0.3,1.5-0.3,3.1-0.2,4.6C195.9,17,196,16.8,196.2,16.8L196.2,16.8z M196.3,6.6
		c-0.5,1,0,2.2-0.3,3.5c0.9-0.3,1.3-1.2,1.8-1.9c0.3-0.4,0.6-0.8,0.6-1.4C197.7,6.9,196.9,6.7,196.3,6.6L196.3,6.6z M212.9,5.1
		c0.6,0.3,1.2,0.1,1.9,0.2c0.4,0.1,0.9,0.2,1.4,0.3c0.5,0.1,1.1,0.3,1.4,0.3c0.5-0.1,0.6-0.7,1-0.8c0.8-0.3,1.3,0.5,1.6,0.8
		c-0.1,1.1-0.1,2.2-0.2,3.3c-0.1,0.7-0.1,1.7-0.3,2.3c-0.1,0.4-0.5,0.7-0.6,1c-0.2,0.4-0.4,0.7-0.8,0.9h-0.6
		c-0.2-0.1-0.3-0.3-0.5-0.5c-0.3-0.9,0.2-1.5,0.3-2.2c0.2-1,0-2.1-0.2-3.1c-2.3-0.1-4.4-0.1-6.7-0.2c-0.7,0-1.4,0.2-2.1,0.2
		c-0.2,0-0.4-0.1-0.5,0c-0.3,0-0.6,0.2-1,0.2c-0.6,0.1-1.3,0-2,0c-0.1,0.9-0.4,1.9-0.3,2.9c0,0.6,0.3,1.1,0.2,1.6
		c0,0.1-0.1,0.1-0.2,0.2c-0.2,0.4-0.6,1.6-1.4,1.2c-0.2-0.1-0.6-1-0.7-1.4c-0.2-0.5-0.3-1.2-0.3-1.7c-0.2-1.7-0.3-3.1-0.1-4.6
		c-0.7,0.5-1.1,1.7-1.9,2.2c-0.2,0.5-0.5,1-1,1.3c0,0.2,0,0.5-0.2,0.5c0.5,0.5,1.1,0.9,1.3,1.7c-0.1,0.8,0.2,1.6,0.1,2.7
		c-0.1,1.4-1.2,2.5-2.2,3.3c-0.3,0.2-0.8,0.6-1.1,0.7c-0.6,0.2-1.1,0.1-1.7,0.3c0,0.6-0.2,1.3-0.2,2c0,0.3,0.1,0.7,0.1,1
		c0,0.2-0.2,0.4-0.2,0.6c-0.2,1.5,0,3.3,0,4.8c0,0.9-0.2,2.1-0.8,2.2c-0.3,0-0.7-0.2-0.9-0.4c-1.1-1.3-1-3.4-1-5.9
		c0-1,0.1-2,0.1-2.9c0-0.2-0.1-0.4-0.1-0.5c0-1,0.2-2,0.2-3.1c0-0.7-0.2-1.5-0.1-2.2c0.1-1.5,0.2-3.1,0.2-4.5c0-1.2-0.4-2.4,0.1-3.3
		c-0.4-0.1-0.6-0.5-0.9-0.7c-0.4-1.1,0.1-2.1,0.5-2.7c0.9-0.5,1.6-1.3,3.2-1c1,0.4,1.6,1.4,2.5,2c0.3,0.2,0.9,0.5,1.2,0.5
		c0.7,0,1.2-1.3,2.1-1.3c0.5,0,1.3,1,1.1,1.7c0.5-0.5,1.3-1.4,2.7-1.1c0.4,0.5,1.3,1.2,2.3,1.3c0.8,0,2.1-0.1,2.1-0.9
		c-0.6-0.4-1.3-0.6-1.3-1.3c0-0.8,0.7-0.9,0.9-1.5c0.2-0.1,0.4-0.2,0.6-0.3c0.3-0.2,1.3,0,1.7,0.1c0.4,0.2,1.1,1,1.2,1.6
		C213.3,3.6,213,4.4,212.9,5.1L212.9,5.1z"/>
	<path class="st1" d="M207,9.4c0.9-0.2,1.6,0.2,2.4,0.3c0.9,0.6,2.1,0.7,3.5,0.7c0.4,0,0.9-0.1,1.2-0.2c0.4-0.1,0.7-0.4,1-0.4
		c0.5,0,0.9,0.3,1.1,0.5c0.1,0.2,0.3,0.7,0.2,0.9c-0.1,0.7-1,1-2,1.1c-0.9,0.1-2,0.3-2.8,0.3c-0.7,0-1.4,0.1-1.9,0.1
		c-0.8,0-1.6-0.1-2.5,0.1c-0.3,0.1-0.6,0.3-0.9,0.2c-0.3-0.1-0.7-0.4-0.8-0.7c-0.2-0.5,0.2-1.6,0.4-2C206.2,9.8,206.8,9.5,207,9.4
		L207,9.4z M217.1,14.9c0.1,0.6-0.3,0.7-0.4,1.2c-0.4,0.1-0.6,0.4-1,0.6c-0.6,0.3-1.3,0.1-2,0.4c-0.4,1.1-0.1,2.9-0.4,4
		c0.6,0.6,1.3,0.9,2.1,1.3c0.1,0.1,0.2,0.2,0.2,0.3c0.9,0.4,2.2,1.3,3.3,1.5c0.6,0.1,1.4,0.2,2.1,0c0.8-0.2,0.4-1.5,1.3-1.8
		c0.7,0.7,0.4,2.6-0.2,3.4c-0.2,0.3-0.9,0.7-1.3,1c-0.3,0.2-0.8,0.4-1.2,0.6c-0.6,0.2-1,0.6-1.6,0.6c-0.8-0.1-1.4-1.2-2-1.7
		c-0.3-0.3-0.7-0.5-1.1-0.7c-0.4-0.2-0.7-0.6-1-0.9c-0.2-0.1-0.5-0.2-0.8-0.4c-0.4-0.2-0.7-0.5-1.1-0.6c-0.6-0.1-1.2,0-1.8-0.2
		c-0.5-0.7,0.1-1.5,0.3-2.1c0.5-1.2,0.4-2.7,0.4-4.2c-0.3-0.1-1.3-0.4-1.7-0.2c-0.3,0.1-0.6,1.2-0.8,1.5s-0.5,0.7-0.8,1.1
		c-0.2,0.4-0.4,0.8-0.7,1.2c-0.2,0.3-0.6,0.7-0.9,1c-0.8,0.9-1.5,1.8-2.5,2.4c-0.7,0.2-1.3,0.5-2,0.6c-0.2-0.1-0.2-0.5-0.5-0.2
		c-0.2-0.3-0.4-0.4-0.6-0.6c0.1-0.3-0.2-0.3-0.2-0.4c0.1-0.4,0.5-0.4,0.5-0.9c0.2-0.1,0.4-0.3,0.5-0.4c1.2,0,2.5-0.9,3.3-1.7
		c0.3-0.2,0.6-0.4,0.9-0.7c0.3-0.2,0.5-0.6,0.7-0.9c0.5-0.6,1-0.9,1.2-1.7c-0.9-0.3-2,0.8-2.8,0c-0.2-0.2-0.7-1.1-0.5-1.7
		c0.1-0.3,0.4-0.9,0.7-1.1c0.5-0.5,1.8-0.9,2.6-0.7c0.3,0.1,0.5,0.4,0.8,0.5s0.7,0.1,1.2,0.2c1.6,0.3,3.8,0.4,5.5,0.2
		c0.5-0.1,1.2-0.3,1.6-0.2C216.5,14.4,216.8,14.7,217.1,14.9L217.1,14.9z M172.7,1c0.4,0,0.7,0,1.1,0c1.4,0.3,2.1,1,2.1,2.7
		c0,0.3-0.1,0.6-0.1,0.9c1.4,0.4,3,0.2,4.7,0.4c0.7,0.1,1.5,0.1,2.2,0.2c0.3,0.1,0.7,0.2,1.1,0.2c0.4,0,0.9,0.1,1.1,0
		c0.4-0.1,0.2-0.2,0.5-0.5c0.6-0.7,1.8-0.2,2,0.5c-0.1,1.1-0.7,2-0.9,3.2c-0.3,1.1-0.6,2.3-0.9,3.2c-0.1,0.4-0.3,0.7-0.6,0.9
		c-0.1,0.4-0.4,0.6-0.8,0.7c-0.1-0.2-0.4,0-0.5-0.1c0,0,0-0.2-0.1-0.3s-0.2-0.1-0.2-0.1c-0.8-1,0-1.9,0.2-3.1
		c0.2-0.9,0.3-1.6,0.2-2.4c-1.5-0.3-3.6-0.3-5.3-0.2c-0.1,1-0.1,2.3-0.5,3c1.2,0.5,2.8-0.1,4,0.1c0.1,0.6-0.5,1.4-0.9,1.6
		c-0.4,0.2-1,0.5-1.5,0.6c-1,0.1-2.2-0.2-3.3-0.2c-0.5,0-0.9,0.2-1.3,0.2c-0.6,0-1.8-0.4-1.8-1c0-0.4,0.4-0.6,0.5-0.8
		s0.2-0.7,0.5-0.8s0.6,0.1,0.9-0.1c0.7-0.3,1-1.7,0.6-2.6c-0.6-0.2-1.5-0.1-2.2,0c-0.4-0.1-0.9-0.1-1.3,0c-0.3,0.6-0.2,1.2-0.3,1.8
		c-0.1,0.6-0.5,1-0.7,1.5c-0.6,1.4-1.8,2.4-3.8,2.2c-0.5,0-1.4-0.1-1.6-0.3c-0.4-0.6-0.6-1.8,0.3-2.1c0.7-0.2,1.4,0.2,2.1,0.2
		c0.6,0,1.2-0.4,1.4-1c0.1-0.4,0.4-1.5,0.1-1.9c-0.3-0.4-2.1-0.1-2.8-0.2c-0.9-0.1-1.7-0.3-2.6-0.5c0.3,0.8,0.1,1.7,0.1,2.8
		c0,0.8,0,1.8,0.4,2.2c0.5,0.5-0.6,1.3-1.2,1.3c-0.5,0-0.9-0.5-1.3-1.1c-0.3-0.5-0.5-1.2-0.6-1.8c-0.1-0.7-0.1-1.5-0.2-2.2
		c-0.2-0.7-0.6-1.2-0.6-1.8c-0.1-0.6,0-1.2,0.3-1.8c0.2-0.4,0.6-1.1,0.9-1.3c0.5-0.4,1.5-0.6,2.3-0.4c1,0.2,1.5,1.3,2.3,1.6
		c0.9,0.3,2.4,0.1,3.4,0.4c0.4,0.1,0.8,0.5,1.2,0.4c0.5-0.1,0.8-0.7,1-1.2c-0.4-0.4-1.2-0.3-1.3-0.9C171,2.2,171.9,1.1,172.7,1
		L172.7,1z"/>
	<path class="st1" d="M173.8,16.4c0.6,0.4,1.9,0.3,2.9,0.4c0.3,0.1,0.7,0.2,0.9,0.2c0.3-0.1,0.3-0.5,0.7-0.4
		c0.4-0.4,0.8-1.4,1.6-1.3c0.3,0,0.7,0.5,0.7,0.9c0.1,0.5-0.3,0.9-0.5,1.3c-0.3,0.7-0.4,1.6-0.6,2.5c-0.1,0.2-0.3,0.5-0.3,0.8
		c-0.1,0.9-0.5,2.2-0.3,2.7c0.2,0.4,0.6,0.4,0.8,0.8c0.8,0.4,1.8,0.9,2.9,1.3c1,0.4,2.3,0.8,3.4,0.8c0.4,0,0.8-0.1,1.2-0.2
		c0.2-0.1,0.2-0.2,0.4-0.3c0.1-0.1,0.4-0.1,0.5-0.1c0.3-0.1,0.7-0.6,0.9-0.9s0.1-1.1,0.4-1.2c0.4,0,0.5,1.3,0.4,2
		c-0.1,1.1-1.2,2.6-2,3.1c-0.4,0.3-1,0.4-1.6,0.7c-0.5,0.2-1.2,0.5-1.7,0.5c-0.6-0.1-1.5-1-2-1.3c-0.6-0.3-1.2-0.4-1.7-0.8
		c-1.4-0.9-4-2-4.2-4.1c-0.1-1.4,0.2-2.7,0.6-3.8c0.1-0.3,0.4-0.6,0.2-0.9c-1.1,0-2.9,0.2-4.2,0c-0.5,0.8-0.7,1.8-1.2,2.5
		c-0.2,0.3-0.6,0.6-0.9,1c-0.3,0.3-0.5,0.8-0.8,1.1c-0.7,0.7-2.4,1.4-3.5,1.6c-1,0.2-2,0.4-3.1,0.5c-1,0.1-1.9,0.1-2.6-0.2
		c-0.5-0.2-1-0.5-1.2-1.1s-0.3-1.7,0.5-1.6c-0.1-0.4,0.8-0.9,1.4-0.5c0.2,0.1,0.2,0.4,0.3,0.5c0.3,0.2,0.5,0.1,0.7,0.3
		c0.5-0.2,1.2,0,1.8,0c0.2,0,0.4-0.1,0.6-0.2c0.5-0.1,1,0,1.5-0.1s0.9-0.2,1.2-0.7c0.5-0.2,0.8-0.5,1.2-0.8c0.2-0.2,0.5-0.4,0.6-0.5
		c0.1-0.2,0.1-0.4,0.2-0.6c0.2-0.4,0.6-0.7,0.7-1.2c-0.3-0.1-0.6-0.1-0.9-0.1c-0.5,0-1.2,0.3-1.6,0.3c-0.2,0-0.4-0.2-0.6-0.3
		c-0.4-0.1-0.9-0.1-1.3-0.3c-0.8,0.3-2,0-1.6-1c-1-0.6,0.1-1.9,0.8-2.3c0.5-0.3,1.4-0.5,2.1-0.3c0.5,0.1,0.7,0.5,1.2,0.8
		c0.9,0.4,2,0,2.7,0.3c0-0.4,0-0.6-0.1-0.9c-0.3-0.5-1.3-0.4-1.4-1.1c0-0.2,0.1-0.5,0.3-0.7c0.3-0.4,0.7-0.9,1.2-1.2
		c0.1-0.1,1,0,1.4,0.1c0.8,0.2,1.7,1.2,1.7,2.1c0,0.2-0.1,0.4-0.2,0.6C173.9,15.5,173.9,15.9,173.8,16.4L173.8,16.4z"/>
</g>
</svg>
