<?xml version="1.0" encoding="utf-8"?>
<!-- Generator: Adobe Illustrator 27.3.1, SVG Export Plug-In . SVG Version: 6.00 Build 0)  -->
<svg version="1.1" id="layer" xmlns="http://www.w3.org/2000/svg" xmlns:xlink="http://www.w3.org/1999/xlink" x="0px" y="0px"
	 viewBox="0 0 344 45" style="enable-background:new 0 0 344 45;" xml:space="preserve">
<g>
	<g transform="translate(63.425837, 159.833634)">
		<g>
			<path d="M-62.3-138c-0.7,0-1-0.4-1-1.1c0-0.2,0.1-0.4,0.3-0.6c0.2-0.2,0.5-0.4,0.9-0.6c4.8-2.3,7.5-6.1,8.1-11.4h-7.9
				c-0.4,0-0.7-0.1-0.9-0.2c-0.2-0.2-0.3-0.4-0.3-0.7c0-0.3,0.1-0.6,0.3-0.7c0.2-0.2,0.5-0.2,0.9-0.2h8.1c0.1-0.7,0.1-2.3,0.1-4.8
				c0-0.8,0.3-1.2,1-1.2c0.4,0,0.6,0.1,0.8,0.3c0.2,0.2,0.3,0.5,0.3,0.9c0,1,0,2.6-0.1,4.8h8.8c0.8,0,1.2,0.3,1.2,1
				c0,0.7-0.4,1-1.2,1h-8.5c0.6,2.3,1.6,4.5,3.2,6.4c1.6,2,3.5,3.6,5.9,4.8c0.6,0.3,0.9,0.7,0.9,1.2c0,0.8-0.4,1.2-1.1,1.2
				c-0.2,0-0.5-0.1-1-0.4c-0.5-0.3-1.2-0.7-2.1-1.4c-1.6-1.1-2.9-2.4-4.1-4c-1.2-1.7-2.1-3.4-2.6-5c-1.1,4.3-3.6,7.5-7.2,9.8
				C-60.9-138.4-61.8-138-62.3-138z"/>
		</g>
	</g>
</g>
<g>
	<g transform="translate(149.707482, 159.833634)">
		<g>
			<path d="M-104.1-143.9c0.6,0,0.9,0.3,0.9,0.8c0,0.6-0.3,0.8-0.9,0.8h-4.2v2.7c0,0.6-0.2,1-0.5,1.3c-0.3,0.3-0.8,0.5-1.3,0.5h-2.8
				c-0.7,0-1.1-0.3-1.1-0.9c0-0.3,0.1-0.6,0.3-0.7c0.2-0.2,0.4-0.2,0.8-0.2h2.1c0.4,0,0.6-0.2,0.6-0.6v-2.1h-13.7
				c-0.7,0-1-0.3-1-0.8c0-0.6,0.3-0.8,1-0.8h13.7v-1.6c-4.5,0.3-9,0.5-13.4,0.6c-0.4,0-0.6,0-0.8-0.2c-0.2-0.1-0.3-0.4-0.3-0.6
				c0-0.6,0.3-0.9,0.9-0.9c1,0,2.5-0.1,4.6-0.1c0.9,0,2.1-0.1,3.9-0.1v-1.3h-5.8c-0.7,0-1.3-0.2-1.6-0.5c-0.3-0.3-0.5-0.8-0.4-1.5
				v-3.2c0-0.7,0.2-1.2,0.5-1.6c0.3-0.3,0.8-0.5,1.5-0.4h5.8v-1.1h-8.7c-0.3,0-0.6-0.1-0.7-0.2c-0.2-0.1-0.2-0.3-0.2-0.6
				c0-0.5,0.3-0.8,0.9-0.8h8.7v-0.9c0-0.6,0.3-0.9,1-0.9c0.6,0,1,0.3,1,0.9v0.9h8.9c0.6,0,0.9,0.3,0.9,0.8c0,0.5-0.3,0.8-0.9,0.8
				h-8.9v1.1h6c0.7,0,1.2,0.2,1.6,0.5c0.3,0.3,0.5,0.8,0.4,1.5v3.2c0,0.7-0.2,1.3-0.5,1.6c-0.3,0.3-0.8,0.5-1.5,0.4h0
				c0.5,0.2,1,0.5,1.6,0.8c0.6,0.3,1.1,0.6,1.5,0.9c0.4,0.3,0.6,0.5,0.6,0.9c0,0.3-0.1,0.5-0.2,0.7c-0.2,0.2-0.4,0.2-0.6,0.2
				c-0.1,0-0.3-0.1-0.5-0.2c-0.2-0.1-0.7-0.5-1.5-1c-0.4,0-1,0.1-1.7,0.1v1.7H-104.1z M-121.1-152.5h5.9v-1.3h-5.3
				c-0.4,0-0.6,0.2-0.6,0.6V-152.5z M-113.3-153.8v1.3h6.1v-0.7c0-0.4-0.2-0.6-0.6-0.6H-113.3z M-115.3-149.7v-1.4h-5.9v0.8
				c0,0.4,0.2,0.6,0.6,0.6H-115.3z M-107.3-151h-6.1v1.4h5.5c0.4,0,0.6-0.2,0.6-0.6V-151z M-108.5-147c-0.3-0.2-0.5-0.5-0.5-0.7
				c0,0,0-0.1,0-0.2c0-0.1,0.1-0.1,0.1-0.2h-4.5v1.2L-108.5-147z M-119.3-142c0.4,0,0.9,0.3,1.5,1c0.6,0.6,0.9,1.1,0.9,1.4
				c0,0.6-0.3,0.9-1,0.9c-0.2,0-0.4-0.1-0.7-0.3c-0.3-0.2-0.5-0.5-0.8-0.9l-0.4-0.5c-0.2-0.3-0.4-0.5-0.4-0.7
				C-120.2-141.7-119.9-142-119.3-142z"/>
		</g>
	</g>
</g>
<g>
	<g transform="translate(235.989126, 159.833634)">
		<g>
			<path d="M-182.4-137.7c-0.6,0-0.9-0.3-0.9-1V-149c-0.5,1.8-1,3.2-1.4,4.1c-0.4,0.9-0.8,1.3-1.1,1.3c-0.6,0-0.9-0.3-0.9-1
				c0-0.3,0.1-0.6,0.3-0.9c1.3-1.8,2.2-4.3,2.9-7.4h-2c-0.7,0-1.1-0.3-1.1-0.9c0-0.6,0.4-0.9,1.1-0.9h2.1v-4c0-0.7,0.3-1,0.9-1
				c0.6,0,0.9,0.3,0.9,1v4h1.6c0.8,0,1.2,0.3,1.2,0.9c0,0.6-0.4,0.9-1.2,0.9h-1.6v3.1c0.1-0.2,0.3-0.2,0.6-0.2
				c0.1,0,0.3,0.1,0.6,0.4c0.2,0.3,0.5,0.6,0.8,1.1c0.6,1.1,0.9,1.8,0.9,2.1c0,0.5-0.3,0.8-0.8,0.8c-0.3,0-0.7-0.4-1-1.2
				c-0.2-0.6-0.6-1.3-1.1-2.1v10.3C-181.5-138-181.8-137.7-182.4-137.7z M-177.6-154.6c-0.7,0-1.1-0.3-1.1-0.9
				c0-0.6,0.4-0.9,1.1-0.9h4.7v-2.1c0-0.8,0.3-1.2,1-1.2c0.7,0,1,0.4,1,1.2v2.1h4.8c0.8,0,1.1,0.3,1.1,0.9c0,0.6-0.4,0.9-1.1,0.9
				H-177.6z M-165.9-148.7c-0.2,0-0.7-0.4-1.4-1.1c-0.6-0.6-1.5-1.4-2.6-2.2c-0.4-0.3-0.6-0.6-0.6-0.8c0-0.6,0.3-0.8,0.9-0.8
				c0.3,0,1.2,0.6,2.6,1.7c1.4,1.1,2.1,1.9,2.1,2.4c0,0.3-0.1,0.5-0.3,0.7C-165.4-148.7-165.6-148.7-165.9-148.7z M-178.1-148.4
				c-0.5,0-0.8-0.3-0.8-1c0-0.3,0.2-0.6,0.7-1c0.9-0.7,1.7-1.5,2.6-2.5c0.2-0.3,0.4-0.4,0.6-0.6c0.2-0.1,0.3-0.2,0.5-0.2
				c0.2,0,0.4,0.1,0.6,0.2c0.2,0.1,0.2,0.3,0.3,0.6c0,0.2-0.1,0.4-0.4,0.8c-0.3,0.4-0.8,0.9-1.4,1.6c-0.6,0.6-1.1,1.1-1.6,1.4
				C-177.5-148.6-177.8-148.4-178.1-148.4z M-178.6-137.9c-0.6,0-0.9-0.3-0.9-1c0-0.3,0.1-0.5,0.2-0.6c0,0,0.2-0.1,0.5-0.2
				c0.3-0.1,0.6-0.2,1-0.4c1.7-0.6,3.2-1.5,4.6-2.7c-0.7-0.9-1.3-1.8-1.9-2.7c-0.6-1.1-0.9-1.8-0.9-2.2c0-0.3,0.1-0.5,0.2-0.6
				c0.2-0.1,0.4-0.2,0.6-0.2c0.2,0,0.4,0.1,0.5,0.2c0.1,0.1,0.3,0.3,0.4,0.6c0.4,0.9,0.7,1.6,1.1,2.2c0.3,0.6,0.7,1.1,1.1,1.6
				c0.9-1.1,1.7-2.5,2.3-4c0.2-0.4,0.4-0.6,0.8-0.6c0.7,0,1,0.3,1,0.9c0,0.3-0.3,1-1,2.1c-0.6,1.1-1.3,2.1-1.9,2.8
				c1.6,1.3,3.2,2.2,4.8,2.7c0.4,0.1,0.8,0.3,1,0.5c0.2,0.2,0.3,0.4,0.3,0.6c0,0.7-0.3,1-0.9,1c-0.6,0-1.6-0.4-2.9-1.1
				c-1.3-0.7-2.4-1.5-3.5-2.5c-0.9,0.9-2.1,1.7-3.6,2.5C-177.2-138.3-178.1-137.9-178.6-137.9z"/>
		</g>
	</g>
</g>
<g>
	<g transform="translate(322.270771, 159.833634)">
		<g>
			<path d="M-239.5-152.1c-0.6,0-0.9-0.3-0.9-1v-1.9c0-0.8,0.2-1.3,0.5-1.7c0.3-0.3,0.9-0.5,1.6-0.4h3.5v-1.3c0-0.9,0.3-1.3,1-1.3
				c0.7,0,1,0.4,1,1.3v1.3h4c0.8,0,1.3,0.2,1.7,0.5c0.3,0.3,0.5,0.9,0.4,1.6v1.8c0,0.4-0.1,0.6-0.2,0.8c-0.1,0.2-0.4,0.3-0.7,0.3
				c-0.6,0-0.9-0.4-0.9-1.1v-1.4c0-0.5-0.3-0.8-0.8-0.8h-8.4c-0.5,0-0.8,0.3-0.8,0.8v1.4C-238.6-152.5-238.9-152.1-239.5-152.1z
				 M-246.2-137.7c-0.6,0-0.9-0.4-0.9-1.1v-17.8c0-0.8,0.2-1.3,0.5-1.7c0.3-0.4,0.9-0.5,1.7-0.5h2.6c1.4,0,2,0.4,2,1.3
				c0,0.5-0.5,2.1-1.6,4.7c-0.4,0.9-0.5,1.4-0.5,1.7c0,0.2,0.2,0.6,0.7,1.2c0.8,1.1,1.2,2.3,1.2,3.7c0,2.4-1.1,3.6-3.3,3.6
				c-0.7,0-1.1-0.4-1.1-1.1c0-0.4,0.1-0.7,0.4-0.8c0.1-0.1,0.5-0.1,1.2-0.2c0.3-0.1,0.6-0.2,0.7-0.5c0.2-0.3,0.2-0.7,0.2-1.2
				c0-1.3-0.4-2.4-1.1-3.3c-0.5-0.7-0.7-1.2-0.7-1.5c0-0.3,0.2-0.9,0.5-1.8c0.3-0.9,0.5-1.5,0.6-1.7l0.4-1.2
				c0.1-0.3,0.1-0.5,0.1-0.6c0-0.3-0.2-0.5-0.7-0.5h-1.3c-0.5,0-0.8,0.3-0.8,0.8v17.4C-245.3-138.1-245.6-137.7-246.2-137.7z
				 M-237.5-150.9c-0.6,0-1-0.3-1-0.9c0-0.6,0.3-0.9,1-0.9h7.8c0.7,0,1,0.3,1,0.9c0,0.6-0.3,0.9-1,0.9H-237.5z M-240.9-137.9
				c-0.6,0-1-0.3-1-1c0-0.5,0.3-0.8,0.9-1.1c1.3-0.5,2.3-1.3,2.9-2.3c0.6-0.9,0.9-2.4,0.9-4.4h-2.1c-0.7,0-1.1-0.3-1.1-0.9
				c0-0.6,0.4-0.8,1.1-0.8h11.5c0.7,0,1.1,0.3,1.1,0.9c0,0.6-0.4,0.8-1.1,0.8h-3.4v5.7c0,0.6,0.4,0.9,1.3,0.9c0.6,0,1-0.1,1.3-0.2
				c0.2-0.1,0.4-0.4,0.4-1c0-0.5,0.1-0.8,0.3-1.1c0.2-0.2,0.4-0.3,0.7-0.3c0.6,0,0.9,0.3,0.9,0.8c0,1.4-0.3,2.4-0.8,2.9
				c-0.4,0.4-1.4,0.5-2.9,0.5l-1.4,0c-1.1,0-1.6-0.6-1.6-1.5v-6.8h-2.2c-0.1,1.7-0.3,3.2-0.8,4.4c-0.4,1.1-1.2,2.1-2.3,3
				C-239.4-138.3-240.2-137.9-240.9-137.9z"/>
		</g>
	</g>
</g>
<g>
	<g transform="translate(408.552415, 159.833634)">
		<g>
			<path d="M-301.6-152.2c-0.6,0-0.9-0.3-0.9-0.8c0-0.5,0.3-0.8,0.9-0.8h2.4l-0.5-2.4h-1.3c-0.6,0-0.9-0.3-0.9-0.8
				c0-0.5,0.3-0.8,0.9-0.8h4.7v-0.9c0-0.6,0.3-1,1-1c0.7,0,1,0.3,1,1v0.9h4.6c0.6,0,1,0.3,1,0.8c0,0.5-0.3,0.8-1,0.8h-1.2l-0.7,2.4
				h2.9c0.6,0,0.9,0.3,0.9,0.8c0,0.5-0.3,0.8-0.9,0.8H-301.6z M-302.2-144c0,0.5-0.3,0.8-0.9,1c-3.2,1.1-5.2,1.7-5.8,1.7
				c-0.7,0-1-0.4-1-1.1c0-0.5,0.5-0.9,1.6-1.1l1.3-0.4v-8.2h-1.6c-0.8,0-1.2-0.3-1.2-1c0-0.6,0.4-0.9,1.2-0.9h1.6v-4.4
				c0-0.8,0.3-1.2,1-1.2c0.6,0,1,0.4,1,1.2v4.4h1.1c0.8,0,1.2,0.3,1.2,1c0,0.6-0.4,0.9-1.2,0.9h-1.1v7.8l0.9-0.3l1-0.3
				C-302.5-144.9-302.2-144.6-302.2-144z M-298-156.2l0.6,2.4h4.1l0.6-2.4H-298z M-288.8-142.4c0.6,0,1,0.3,1,1
				c0,1.2-0.2,2.1-0.6,2.6c-0.4,0.5-1.1,0.7-2.1,0.7c-1.9,0-3.1-0.1-3.4-0.2c-0.5-0.2-0.8-0.7-0.8-1.4v-3.8h-2.5
				c-0.4,3.1-2.4,5-6.2,5.8l-0.7,0.1c-0.3,0-0.6,0-0.7-0.2c-0.2-0.2-0.2-0.4-0.2-0.8c0-0.5,0.4-0.9,1.2-1c2.7-0.5,4.3-1.8,4.8-3.9
				h-0.6c-0.7,0-1.3-0.2-1.6-0.5c-0.3-0.3-0.5-0.8-0.4-1.5v-3.4c0-0.7,0.2-1.2,0.5-1.6c0.3-0.3,0.9-0.5,1.6-0.4h8.6
				c1.4,0,2.1,0.7,2,2v3.4c0,0.7-0.2,1.2-0.5,1.6c-0.3,0.3-0.9,0.5-1.5,0.5h-1.8v2.8c0,0.4,0.1,0.6,0.2,0.7c0.2,0.1,0.6,0.1,1.3,0.1
				c0.6,0,1-0.1,1.2-0.2c0.2-0.1,0.3-0.5,0.4-1.2C-289.7-142.1-289.4-142.4-288.8-142.4z M-299.8-148h8.9v-0.7
				c0-0.5-0.3-0.7-0.8-0.8h-7.4c-0.5,0-0.7,0.3-0.8,0.8V-148z M-299.8-145.8c0,0.5,0.3,0.7,0.8,0.8h7.4c0.5,0,0.7-0.3,0.8-0.8v-0.8
				h-8.9V-145.8z"/>
		</g>
	</g>
</g>
<g>
	<g transform="translate(494.83406, 159.833634)">
		<g>
			<path d="M-349.8-147.9c0.3,0.3,0.4,0.5,0.4,0.8c0,0.2-0.1,0.4-0.2,0.6c-0.2,0.2-0.5,0.3-0.7,0.3c-0.3,0-0.6-0.1-0.8-0.4
				c-1.6-1.6-2.8-2.8-3.8-3.6v11.1c0,0.4-0.1,0.6-0.3,0.8c-0.2,0.2-0.4,0.3-0.7,0.3c-0.7,0-1-0.4-1-1.1v-19.5c0-0.8,0.3-1.2,1-1.2
				c0.7,0,1,0.4,1,1.2v6.4C-353-150.8-351.3-149.4-349.8-147.9z M-361.7-156c0.6,0,1,0.2,1.4,0.5c0.3,0.3,0.5,0.7,0.5,1.3
				c0,2.3-0.5,4.5-1.3,6.6c-0.8,2.1-2,4-3.4,5.7c-1.5,1.7-3.2,3-5.1,3.9c-0.2,0.1-0.4,0.2-0.7,0.2c-0.4,0-0.6-0.2-0.8-0.5
				c-0.1-0.1-0.1-0.3-0.1-0.4c0-0.4,0.2-0.7,0.7-0.9c2.9-1.6,5.1-3.7,6.5-6.3c-1.1-0.9-2.2-1.8-3.4-2.5c-0.3-0.2-0.4-0.4-0.4-0.7
				c0-0.2,0.1-0.3,0.2-0.5c0.2-0.2,0.4-0.4,0.7-0.4c0.2,0,0.4,0.1,0.6,0.2c1,0.6,2.1,1.3,3.2,2.1c0.7-1.7,1.1-3.7,1.3-5.8
				c0-0.2,0-0.4-0.2-0.5c-0.1-0.1-0.3-0.2-0.5-0.2h-3.6c-0.4,1.1-0.9,2.2-1.5,3.2c-0.6,1.1-1.2,2-1.8,2.9c-0.2,0.3-0.5,0.5-0.8,0.5
				c-0.2,0-0.4-0.1-0.6-0.2c-0.2-0.2-0.3-0.4-0.3-0.7c0-0.3,0.1-0.5,0.3-0.8c1.8-2.6,3.2-5.8,4.1-9.5c0.1-0.5,0.4-0.8,0.9-0.8
				c0.4,0,0.6,0.1,0.8,0.3c0.2,0.2,0.3,0.5,0.2,0.9c-0.1,0.7-0.3,1.5-0.6,2.5H-361.7z"/>
		</g>
	</g>
</g>
<g>
	<g transform="translate(581.115704, 159.833634)">
		<g>
			<path d="M-431.6-145.5c-0.7,0-1-0.4-1-1.2v-1.9c0-0.7,0.1-1.1,0.4-1.4c0.3-0.3,0.7-0.5,1.3-0.5h0.3l-0.5-6.9c0-0.4,0.1-0.7,0.3-1
				c0.2-0.3,0.5-0.4,0.9-0.5l2.5-0.4l0.8-0.2c0.1,0,0.2,0,0.3-0.1c0.1,0,0.2,0,0.3,0c0.5,0,0.7,0.3,0.7,0.8c0,0.3-0.2,0.5-0.7,0.6
				c-0.5,0.2-1.2,0.3-2.3,0.4c-0.4,0-0.6,0.1-0.8,0.3c-0.2,0.1-0.2,0.3-0.2,0.5l0,0.7h2.9c0.6,0,0.9,0.2,0.9,0.7
				c0,0.5-0.3,0.7-0.9,0.7h-2.8l0.1,1.3h2.7c0.6,0,0.9,0.3,0.9,0.8c0,0.5-0.3,0.7-0.9,0.7h-2.6l0.1,1.5h13.6l0.1-1.5h-2.9
				c-0.5,0-0.8-0.2-0.8-0.7c0-0.5,0.3-0.8,0.8-0.8h3l0-1.3h-3.1c-0.3,0-0.5-0.1-0.6-0.2c-0.1-0.1-0.2-0.3-0.2-0.6
				c0-0.5,0.3-0.7,0.8-0.7h3.2v-0.5c0-0.3,0-0.5-0.1-0.6c-0.1-0.1-0.3-0.2-0.5-0.2h-2.8c-0.5,0-0.8-0.2-0.8-0.7
				c0-0.3,0.1-0.4,0.2-0.6c0.1-0.1,0.3-0.2,0.6-0.2h3.4c1.3,0,1.9,0.5,1.9,1.4l-0.5,7h0.3c1.2,0,1.7,0.6,1.6,1.9v2
				c0,0.8-0.3,1.1-1,1.1c-0.3,0-0.6-0.1-0.7-0.3c-0.2-0.2-0.2-0.5-0.2-0.9v-1.5c0-0.5-0.3-0.8-0.8-0.8h-15.6c-0.5,0-0.8,0.3-0.8,0.8
				v1.4C-430.6-145.9-430.9-145.5-431.6-145.5z M-424.4-155.1c-0.5,0-0.7-0.2-0.7-0.7c0-0.3,0.5-0.7,1.4-1.3l0.5-0.3
				c-1-0.7-1.5-1.2-1.5-1.4c0-0.2,0.1-0.3,0.2-0.5c0.1-0.1,0.3-0.2,0.5-0.2c0.2,0,0.8,0.4,1.9,1.1l0.7-0.7c0.3-0.4,0.6-0.6,0.9-0.6
				c0.2,0,0.4,0.1,0.5,0.2c0.1,0.1,0.2,0.3,0.2,0.5c0,0.3-0.4,0.8-1.2,1.5l0.3,0.1c0.7,0.5,1,0.9,1,1.2c0,0.2-0.1,0.4-0.2,0.6
				c-0.1,0.1-0.3,0.2-0.5,0.2c-0.2,0-0.5-0.2-0.8-0.5l-0.8-0.8C-423.2-155.6-424-155.1-424.4-155.1z M-425-151.3
				c0-0.3,0.5-0.7,1.5-1.3l0.5-0.3l-0.3-0.2c-0.8-0.5-1.2-0.9-1.2-1.1c0-0.4,0.2-0.6,0.7-0.6c0.1,0,0.4,0.1,0.8,0.4l0.7,0.4l0.4,0.3
				l0.7-0.6c0.4-0.4,0.7-0.5,0.9-0.5c0.5,0,0.7,0.2,0.7,0.6c0,0.3-0.4,0.7-1.1,1.3c0.9,0.6,1.4,1.1,1.4,1.4c0,0.5-0.2,0.7-0.7,0.7
				c-0.2,0-0.5-0.2-0.8-0.5l-1-0.9c-0.6,0.5-1.1,0.8-1.5,1.1c-0.4,0.2-0.7,0.4-0.9,0.4C-424.7-150.7-425-150.9-425-151.3z
				 M-412.2-143.4c0.7,0,1,0.3,1,0.8c0,0.5-0.3,0.8-1,0.8h-9.2v1.7c0,0.9-0.2,1.5-0.6,1.9c-0.4,0.4-1,0.5-1.8,0.5h-1.5
				c-0.4,0-0.7-0.1-0.9-0.2c-0.2-0.1-0.3-0.4-0.3-0.7c0-0.6,0.4-0.9,1.2-0.9h1c0.6,0,0.9-0.3,0.9-0.9v-1.3h-8.7c-0.6,0-1-0.3-1-0.8
				c0-0.5,0.3-0.8,1-0.8h8.7v-0.7c0-0.4,0.1-0.6,0.4-0.8c0.3-0.2,0.9-0.4,1.9-0.6l2.5-0.7v0H-429c-0.6,0-0.9-0.2-0.9-0.7
				c0-0.3,0.1-0.4,0.2-0.6c0.1-0.1,0.4-0.2,0.7-0.2h12.9c0.6,0,1.1,0.1,1.4,0.2c0.3,0.1,0.5,0.3,0.5,0.6c0,0.3-0.6,0.6-1.7,1.1
				c-1.1,0.5-2.7,1-4.7,1.5c-0.5,0.1-0.8,0.4-0.8,0.7v0.1H-412.2z"/>
		</g>
	</g>
</g>
<g>
	<g transform="translate(667.397349, 159.833634)">
		<g>
			<path d="M-473.9-140.4c0.8,0,1.1,0.3,1.1,0.9s-0.4,0.9-1.1,0.9h-19.3c-0.8,0-1.2-0.3-1.2-0.9s0.4-0.9,1.2-0.9h9.1v-5.9h-5.8
				c-0.8,0-1.1-0.3-1.1-0.9c0-0.6,0.4-0.9,1.1-0.9h5.8v-5h-5.9c-0.5,2-1.2,3.6-1.9,4.9c-0.3,0.6-0.6,1-0.9,1.3
				c-0.3,0.3-0.6,0.4-0.8,0.4c-0.3,0-0.6-0.1-0.7-0.2c-0.2-0.2-0.2-0.4-0.2-0.8c0-0.2,0.2-0.6,0.5-1.2c1.2-2,2.2-4.9,3-8.8
				c0.1-0.7,0.5-1.1,1.1-1.1c0.7,0,1,0.3,1,0.8l-0.1,0.6l-0.5,2.2h5.4v-3.5c0-0.8,0.3-1.1,1-1.1c0.7,0,1,0.4,1,1.1v3.5h7.2
				c0.8,0,1.2,0.3,1.2,0.9c0,0.6-0.4,0.9-1.2,0.9h-7.2v5h6.1c0.8,0,1.1,0.3,1.1,0.9c0,0.6-0.4,0.9-1.1,0.9h-6.1v5.9H-473.9z"/>
		</g>
	</g>
</g>
<g>
	<g transform="translate(753.678993, 159.833634)">
		<g>
			<path d="M-535.7-137.7c-0.2,0-0.4-0.1-0.6-0.2c-0.3-0.1-0.6-0.3-1.1-0.7c-0.6-0.4-1.6-0.9-3-1.6c-0.8,0.6-2,1.2-3.6,1.6
				c-1.5,0.4-3,0.7-4.5,0.7c-0.7,0-1.1-0.3-1.1-1c0-0.6,0.5-0.9,1.4-0.9c2.4,0,4.4-0.4,5.9-1.2c-1.1-0.4-2.3-0.8-3.7-1.3
				c-0.8-0.2-1.2-0.6-1.2-1.2c0-0.2,0.2-0.8,0.7-1.7l0.5-0.8h-2.1c-0.7,0-1-0.3-1-0.9c0-0.6,0.3-0.9,1-0.9h3
				c0.3-0.7,0.7-1.5,1.1-2.5h-4.1c-0.4,0-0.6-0.1-0.8-0.2c-0.2-0.1-0.2-0.4-0.2-0.7c0-0.6,0.3-0.9,1-0.9h2.3c-0.2-0.8-0.4-2-0.8-3.7
				h-1c-0.6,0-0.9-0.3-0.9-0.9c0-0.6,0.3-0.9,0.9-0.9h4.6v-1.4c0-0.7,0.3-1,1-1c0.6,0,1,0.3,1,1v1.4h4.9c0.7,0,1,0.3,1,0.9
				c0,0.6-0.3,0.9-1,0.9h-1.4c-0.4,1.6-0.7,2.9-1,3.7h3.3c0.7,0,1,0.3,1,0.9c0,0.6-0.3,0.9-1,0.9h-6.9l-0.7,1.6l-0.4,0.8h7.9
				c0.7,0,1,0.3,1,0.9c0,0.6-0.3,0.9-1,0.9h-2.1c-0.2,0.9-0.4,1.7-0.7,2.4c-0.3,0.7-0.6,1.3-1.1,1.9c2.9,1.3,4.3,2.2,4.3,2.9
				c0,0.3-0.1,0.6-0.3,0.8C-535.3-137.8-535.5-137.7-535.7-137.7z M-554.7-137.9c-0.6,0-0.9-0.3-0.9-1c0-0.7,0.3-1,0.9-1h0.9
				c0.6,0,0.9-0.3,0.8-0.8v-5.8l-0.6,0.2c-0.3,0.1-0.5,0.1-0.6,0.2c-0.2,0-0.3,0.1-0.4,0.1c-0.4,0.1-0.6,0.2-0.8,0.2
				c-0.6,0-0.8-0.3-0.8-1c0-0.6,0.5-1,1.5-1.2l1.7-0.4l0.1,0v-4.8h-2.1c-0.7,0-1.1-0.3-1.1-0.9c0-0.6,0.4-0.9,1.1-0.9h2.1v-3.5
				c0-0.7,0.3-1.1,0.9-1.1c0.6,0,1,0.4,1,1.1v3.5h1.4c0.7,0,1.1,0.3,1.1,0.9c0,0.6-0.4,0.9-1.1,0.9h-1.4v4.2l1-0.3
				c0.3-0.1,0.5-0.1,0.6-0.1c0.5,0,0.8,0.3,0.8,0.9c0,0.5-0.4,0.8-1.2,1.1l-1.2,0.4v6.7c0.1,1.8-0.7,2.6-2.5,2.5H-554.7z
				 M-540.3-151.9c0.4-1.3,0.7-2.5,0.9-3.7h-5.4c-0.1-0.2,0.1,0.5,0.5,2.2l0.3,1.5H-540.3z M-540.9-142.3c0.8-1,1.3-2.2,1.6-3.6
				h-4.7c-0.3,0.6-0.6,1.2-0.9,1.8c0,0.1-0.1,0.2-0.1,0.3c0,0.2,0.1,0.3,0.4,0.4L-540.9-142.3z"/>
		</g>
	</g>
</g>
<g>
	<g transform="translate(839.960638, 159.833634)">
		<g>
			<path d="M-616.8-154.1c-0.6,0-1-0.3-1-1c0-0.4,0.4-0.8,1.1-1.3c1.2-0.7,2.1-1.4,2.9-2.2c0.4-0.4,0.7-0.6,1-0.8
				c0.3-0.2,0.5-0.3,0.6-0.3c0.6,0,1,0.3,1,1c0,0.5-0.8,1.4-2.5,2.7C-615.3-154.8-616.3-154.1-616.8-154.1z M-597.1-147.7
				c0.7,0,1.1,0.3,1.1,0.9c0,0.6-0.4,0.9-1.1,0.9h-2.2v5.5c0,0.9-0.2,1.5-0.6,2c-0.4,0.4-1.1,0.6-2,0.6h-2c-0.8,0-1.2-0.3-1.2-0.9
				c0-0.7,0.4-1,1.1-1h1.9c0.6,0,0.9-0.3,0.9-0.9v-5.3h-8.8c-0.7,0-1.1-0.3-1.1-0.9c0-0.6,0.4-0.9,1.1-0.9h8.8v-2.7h-8.8
				c-0.7,0-1.1-0.3-1.1-0.9c0-0.6,0.4-0.9,1.1-0.9h5.4v-2.8h-4.5c-0.4,0-0.7-0.1-0.8-0.2c-0.2-0.1-0.3-0.4-0.3-0.7
				c0-0.3,0.1-0.6,0.3-0.7c0.2-0.1,0.4-0.2,0.8-0.2h4.5v-1.8c0-0.8,0.3-1.2,1-1.2s1,0.4,1,1.2v1.8h4.4c0.4,0,0.7,0.1,0.8,0.2
				c0.2,0.1,0.3,0.4,0.3,0.7c0,0.3-0.1,0.5-0.3,0.7c-0.2,0.1-0.4,0.2-0.8,0.2h-4.4v2.8h5.5c0.7,0,1.1,0.3,1.1,0.9
				c0,0.6-0.4,0.9-1.1,0.9h-2.2v2.7H-597.1z M-611-153.4c0,0.4-0.6,1.4-1.9,3l0,0v11.5c0,0.8-0.3,1.2-1,1.2c-0.7,0-1-0.4-1-1.2v-9.1
				c-1.1,1.2-1.8,1.8-2.2,1.8c-0.3,0-0.5-0.1-0.6-0.2c-0.1-0.2-0.2-0.4-0.2-0.8c0-0.3,0.2-0.6,0.5-1c1.7-1.7,3.1-3.4,4.1-5
				c0.5-0.7,0.9-1.1,1.2-1.1C-611.3-154.2-611-154-611-153.4z M-604.8-141.6c0,0.2-0.1,0.4-0.3,0.6c-0.2,0.2-0.4,0.2-0.7,0.2
				c-0.2,0-0.4-0.1-0.7-0.3c-0.2-0.2-0.5-0.5-0.9-0.9l-1.3-1.5c-0.1-0.1-0.2-0.2-0.2-0.3c0-0.1-0.1-0.2-0.1-0.4
				c0-0.2,0.1-0.4,0.2-0.5c0.2-0.1,0.4-0.2,0.7-0.2c0.4,0,1,0.4,1.8,1.2c0.5,0.5,0.8,1,1,1.3C-604.9-142.1-604.8-141.8-604.8-141.6z
				"/>
		</g>
	</g>
</g>
<g>
	<g transform="translate(926.242282, 159.833634)">
		<g>
			<path d="M-677.9-152.1c-0.7,0-1-0.4-1-1.3v-1.6c0-0.9,0.2-1.5,0.6-1.9c0.5-0.4,1.1-0.6,1.9-0.6h6.8v-1.2c0-0.7,0.4-1,1.1-1
				c0.7,0,1.1,0.3,1.1,1v1.2h7.1c0.9,0,1.5,0.2,2,0.6c0.4,0.4,0.6,1,0.6,1.8v1.7c0,0.8-0.3,1.3-1,1.3c-0.7,0-1-0.4-1-1.3v-1.4
				c0-0.6-0.3-1-0.9-0.9H-676c-0.6,0-0.9,0.3-0.9,0.9v1.4C-676.9-152.5-677.2-152.1-677.9-152.1z M-658.3-141.4
				c0.6,0.3,0.9,0.6,0.9,1c0,0.1,0,0.2-0.1,0.4c-0.1,0.2-0.2,0.4-0.3,0.5c-0.2,0.1-0.4,0.2-0.6,0.2c-0.2,0-0.3,0-0.6-0.1
				c-0.9-0.4-1.9-1-2.9-1.7c-0.8-0.6-1.4-1.2-2-1.9c-0.6-0.7-1.1-1.4-1.6-2.3c0.2,1,0.3,1.9,0.3,2.8c0,1.7-0.3,3-1,3.8
				c-0.6,0.7-1.7,1-3.5,1c-0.2,0-0.6,0-1.2,0c-0.7,0-1-0.4-1-0.9c0-0.4,0.1-0.7,0.3-0.8c0.2-0.2,0.5-0.2,1-0.2c0.2,0,0.5,0,0.8,0
				c1.2,0,2-0.2,2.3-0.7c0.3-0.5,0.4-1.2,0.4-2.3c0-0.5,0-1.1-0.1-1.6c-1.8,1.7-3.8,3-6.2,3.9c-1.1,0.4-2.1,0.8-2.9,1
				c-0.8,0.2-1.4,0.4-1.8,0.4c-0.6,0-0.8-0.3-0.8-0.8c0-0.3,0.1-0.5,0.2-0.6c0.1-0.1,0.3-0.2,0.7-0.3c2-0.5,4-1.2,5.8-2.2
				c1.8-0.9,3.4-2,4.7-3.3c-0.2-0.5-0.4-1-0.6-1.4c-0.6,0.5-1.4,1.1-2.4,1.6c-0.9,0.5-1.8,1-2.7,1.3c-1.1,0.4-2.1,0.8-2.9,1
				c-0.8,0.2-1.4,0.3-1.7,0.3c-0.5,0-0.8-0.3-0.8-0.8c0-0.3,0.1-0.5,0.3-0.6c0.2-0.1,0.6-0.3,1.2-0.4c1.7-0.4,3.2-1,4.6-1.6
				c1.4-0.7,2.6-1.4,3.5-2.2l-1.1-1.1c-1.3,0.7-2.7,1.4-4.4,2c-1.3,0.5-2.3,0.7-2.9,0.7c-0.6,0-0.9-0.3-0.9-0.9
				c0-0.2,0.1-0.4,0.2-0.5c0.1-0.1,0.3-0.2,0.6-0.3c1.5-0.4,2.8-0.8,4-1.3c1.2-0.5,2.5-1.1,3.7-1.8h-5.3c-0.7,0-1-0.3-1-0.9
				c0-0.6,0.3-0.9,1-0.9h13.6c0.7,0,1,0.3,1,0.9c0,0.6-0.3,0.9-1,0.9h-5.6c-0.5,0.4-1,0.8-1.7,1.2c1.1,0.9,2,2.1,2.8,3.6
				c1.4-0.8,3-1.9,4.6-3.3c0.3-0.2,0.5-0.4,0.8-0.4c0.3,0,0.5,0.1,0.7,0.3c0.2,0.2,0.2,0.3,0.2,0.6c0,0.3-0.2,0.6-0.5,0.9
				c-1.3,1.1-2.8,2-4.6,2.8C-663.4-144.3-661.2-142.7-658.3-141.4z"/>
		</g>
	</g>
</g>
<g>
	<g transform="translate(1012.523927, 159.833634)">
		<g>
			<path d="M-737-150.8c0,4-0.3,7-0.9,9.2c-0.6,2.2-1.3,3.3-2,3.3c-0.7,0-1-0.3-1-1c0-0.2,0.1-0.5,0.3-1c1.1-2.1,1.7-5.8,1.7-11.1
				v-3.9c0-1.5,0.8-2.2,2.3-2.2h6.4v-1.4c0-0.5,0.3-0.8,1-0.8c0.7,0,1,0.3,1,0.8v1.4h8c0.8,0,1.1,0.3,1.1,0.9c0,0.6-0.4,0.9-1.1,0.9
				H-736c-0.7,0-1,0.4-1,1.1V-150.8z M-723.6-147.4v3.9h2.7c0.7,0,1,0.3,1,0.9c0,0.6-0.3,0.9-1,0.9h-7.3c-0.7,0-1-0.3-1-0.9
				c0-0.6,0.3-0.9,1-0.9h2.7v-3.9h-3.1c-0.7,0-1-0.3-1-0.9c0-0.6,0.3-0.9,1-0.9h3.1v-2.8c-1.7,0.2-2.8,0.4-3.3,0.4
				c-0.7,0-1-0.3-1-0.8c0-0.3,0.1-0.5,0.3-0.6c0.2-0.1,0.5-0.2,0.9-0.2c2.5-0.1,4.6-0.5,6.5-1c0.4-0.1,0.7-0.2,0.8-0.2
				c0.6,0,0.9,0.3,0.9,0.9c0,0.5-0.5,0.9-1.5,1l-1.8,0.3v3.1h3.4c0.7,0,1,0.3,1,0.9c0,0.6-0.3,0.9-1,0.9H-723.6z M-719.9-140.1
				c0.6,0,0.9,0.3,0.9,0.9c0,0.7-0.5,1-1.4,1l-3.9,0c-2.2,0-4-0.2-5.3-0.6c-1.2-0.3-2.2-0.9-3.1-1.5c-0.7,0.7-1.3,1.2-1.9,1.6
				c-0.9,0.6-1.5,0.8-1.9,0.8c-0.3,0-0.5-0.1-0.6-0.2c-0.2-0.2-0.2-0.4-0.2-0.7c0-0.4,0.3-0.7,0.8-1c0.4-0.2,0.8-0.5,1.2-0.7
				c0.4-0.3,0.8-0.6,1.2-1.1c-0.5-0.5-0.9-1.2-1.4-2.1c-0.4-0.8-0.6-1.4-0.6-1.7c0-0.5,0.3-0.8,0.9-0.8c0.2,0,0.4,0.1,0.6,0.2
				s0.3,0.4,0.4,0.7c0.3,0.9,0.6,1.7,1.2,2.3c0.3-0.5,0.5-0.9,0.7-1.2c0.2-0.5,0.3-1,0.4-1.4c0.1-0.5,0.2-0.9,0.2-1.2
				c0-0.3-0.2-0.5-0.6-0.5h-2.3c-0.7,0-1-0.3-1-0.9c0-0.2,0.2-0.5,0.5-0.9c1-1.3,1.7-2.4,2.1-3.3l0-0.1c0-0.1,0-0.1-0.1-0.2
				c-0.1-0.1-0.2-0.1-0.3-0.1h-2c-0.6,0-0.9-0.3-0.9-0.9c0-0.6,0.3-0.9,0.9-0.9h3.3c0.9,0,1.3,0.3,1.3,0.9c0,0.1,0,0.3-0.1,0.6
				c-0.2,0.5-0.5,1.1-1,1.8c-0.3,0.4-0.6,0.9-0.9,1.4l-0.3,0.5c0,0,0,0.1,0,0.1c0,0,0,0.1,0.1,0.1c0.1,0,0.1,0.1,0.2,0.1h1.4
				c0.1,0,0.2,0,0.4,0c0.4,0,0.7,0.1,0.9,0.3c0.2,0.2,0.3,0.6,0.3,1.1c0,2.3-0.6,4.2-1.7,5.9c0.5,0.3,0.9,0.6,1.4,0.8
				c0.5,0.2,1,0.4,1.6,0.5c1,0.2,2.8,0.3,5.3,0.3h0.8L-719.9-140.1z"/>
		</g>
	</g>
</g>
<g>
	<g transform="translate(1098.805571, 159.833634)">
		<g>
			<path d="M-781.7-151.9c0.7,0,1,0.3,1,0.9c0,0.6-0.3,0.9-1,0.9h-4.3v11.2c0,0.4-0.1,0.8-0.2,1c-0.2,0.2-0.4,0.3-0.8,0.3
				c-0.4,0-0.6-0.1-0.8-0.3c-0.2-0.2-0.2-0.5-0.2-1v-11.2h-4.1c-0.7,0-1.1-0.3-1.1-0.9c0-0.6,0.4-0.9,1.1-0.9h4.1v-6.4
				c0-0.4,0.1-0.8,0.3-1c0.2-0.2,0.4-0.3,0.8-0.3c0.4,0,0.6,0.1,0.8,0.3c0.2,0.2,0.2,0.5,0.2,1v6.4H-781.7z M-800.7-156.9
				c-0.7,0-1-0.3-1-0.9c0-0.6,0.3-0.9,1-0.9h5.8c0.3,0,0.6,0.1,0.7,0.2c0.2,0.2,0.3,0.4,0.3,0.7c0,0.6-0.3,0.9-1,0.9H-800.7z
				 M-801.6-153.6c-0.7,0-1-0.3-1-0.9c0-0.6,0.3-0.9,1-0.9h7.7c0.7,0,1,0.3,1,0.9c0,0.6-0.3,0.9-1,0.9H-801.6z M-795-152.2
				c0.7,0,1,0.3,1,0.9c0,0.6-0.3,0.9-1,0.9h-5.7c-0.6,0-1-0.3-1-0.9c0-0.6,0.3-0.9,1-0.9H-795z M-794.9-149c0.7,0,1,0.3,1,0.9
				c0,0.6-0.3,0.9-1,0.9h-5.8c-0.6,0-1-0.3-1-0.9c0-0.6,0.3-0.9,1-0.9H-794.9z M-796-145.8c1.3,0,2,0.6,2,1.9v3.5
				c0,1.3-0.7,1.9-2,1.9h-3.8c-1.3,0-2-0.6-2-1.9v-3.5c0-1.3,0.7-1.9,2-1.9H-796z M-795.9-143.4c0-0.2,0-0.4-0.1-0.5
				c-0.1-0.1-0.3-0.1-0.5-0.1h-2.7c-0.2,0-0.4,0-0.5,0.1c-0.1,0.1-0.2,0.3-0.2,0.5v2.6c0,0.2,0,0.4,0.1,0.5c0.1,0.1,0.3,0.2,0.5,0.2
				h2.7c0.2,0,0.4-0.1,0.5-0.2c0.1-0.1,0.2-0.3,0.2-0.5V-143.4z"/>
		</g>
	</g>
</g>
<g>
	<g transform="translate(1185.087216, 159.833634)">
		<g>
			<path d="M-842.9-149.2c0.5,0,0.8,0.2,0.8,0.6c0,0.4-0.3,0.7-0.8,0.7h-20.4c-0.3,0-0.5-0.1-0.6-0.2c-0.1-0.1-0.2-0.3-0.2-0.5
				c0-0.4,0.3-0.6,0.8-0.6h8.9v-1.1h-7.2c-0.5,0-0.8-0.2-0.8-0.6c0-0.4,0.3-0.6,0.8-0.6h7.2v-1h-6.5c-0.5,0-0.8-0.2-0.8-0.6
				c0-0.4,0.3-0.6,0.8-0.6h6.5v-1.1h-8.9c-0.5,0-0.8-0.2-0.8-0.6c0-0.4,0.3-0.7,0.8-0.7h8.9v-1h-6.5c-0.5,0-0.8-0.2-0.8-0.6
				c0-0.4,0.3-0.7,0.8-0.7h6.5v-0.4c0-0.6,0.3-0.9,1-0.9c0.7,0,1,0.3,1,0.9v0.4h5.8c1.2,0,1.8,0.5,1.8,1.5v0.8h2
				c0.5,0,0.8,0.2,0.8,0.7c0,0.4-0.3,0.6-0.8,0.6h-2v0.7c0,1.1-0.6,1.6-1.8,1.6h-5.8v1h7.7c0.5,0,0.8,0.2,0.8,0.6
				c0,0.4-0.3,0.6-0.8,0.6h-7.7v1.1H-842.9z M-852.5-156.1h5.6v-0.5c0-0.3-0.2-0.5-0.6-0.6h-5.1V-156.1z M-852.5-153.8h5.1
				c0.4,0,0.6-0.2,0.6-0.5v-0.5h-5.6V-153.8z M-860.1-140.8c-1.2,0-1.8-0.6-1.8-1.8v-2.6c0-1.2,0.6-1.8,1.8-1.8h14
				c1.2,0,1.8,0.6,1.8,1.8v2.6c0,1.2-0.6,1.8-1.8,1.8H-860.1z M-860-144.5h5.6v-1.2h-5c-0.4,0-0.6,0.2-0.7,0.6V-144.5z
				 M-852.4-144.5h6.1v-0.5c0-0.4-0.2-0.6-0.7-0.6h-5.5V-144.5z M-860-142.7c0,0.4,0.2,0.6,0.7,0.7h5v-1.3h-5.6V-142.7z M-852.4-142
				h5.5c0.4,0,0.6-0.2,0.7-0.7v-0.6h-6.1V-142z M-843-139.7c0.6,0,0.8,0.2,0.8,0.7c0,0.4-0.3,0.7-0.8,0.7h-20.4
				c-0.6,0-0.8-0.2-0.8-0.7c0-0.5,0.3-0.7,0.8-0.7H-843z"/>
		</g>
	</g>
</g>
<g>
	<g transform="translate(63.425837, 233.283813)">
		<g>
			<path d="M-62.5-192.5c-0.3,0-0.5-0.1-0.7-0.3c-0.2-0.2-0.3-0.4-0.3-0.7v-8.6c0-0.2,0.1-0.3,0.2-0.5c0.1-0.1,0.3-0.2,0.5-0.2
				c0.2,0,0.3,0.1,0.5,0.2c0.1,0.1,0.2,0.3,0.2,0.5v8c0,0.1,0.1,0.2,0.2,0.2h4.5c0.2,0,0.3,0.1,0.5,0.2c0.1,0.1,0.2,0.3,0.2,0.5
				c0,0.2-0.1,0.3-0.2,0.5c-0.1,0.1-0.3,0.2-0.5,0.2H-62.5z"/>
		</g>
	</g>
</g>
<g>
	<g transform="translate(93.809159, 233.283813)">
		<g>
			<path d="M-84.7-201.4c-0.2,0-0.4-0.1-0.5-0.2c-0.1-0.1-0.2-0.3-0.2-0.5v-0.1c0-0.2,0.1-0.4,0.2-0.5c0.1-0.2,0.3-0.2,0.5-0.2h0.1
				c0.2,0,0.4,0.1,0.5,0.2c0.1,0.1,0.2,0.3,0.2,0.5v0.1c0,0.2-0.1,0.4-0.2,0.5C-84.3-201.4-84.4-201.4-84.7-201.4L-84.7-201.4z
				 M-84.7-192.4c-0.2,0-0.3-0.1-0.5-0.2c-0.1-0.1-0.2-0.3-0.2-0.5v-6.2c0-0.2,0.1-0.3,0.2-0.5c0.1-0.1,0.3-0.2,0.5-0.2
				c0.2,0,0.4,0.1,0.5,0.2c0.1,0.1,0.2,0.3,0.2,0.5v6.2c0,0.2-0.1,0.3-0.2,0.5C-84.4-192.5-84.5-192.4-84.7-192.4z"/>
		</g>
	</g>
</g>
<g>
	<g transform="translate(107.649586, 233.283813)">
		<g>
			<path d="M-91.8-189c-0.5,0-1.1-0.1-1.7-0.2c-0.6-0.1-1-0.3-1.4-0.5c-0.2-0.1-0.3-0.3-0.3-0.5c0-0.2,0.1-0.3,0.2-0.4
				c0.1-0.1,0.3-0.2,0.4-0.2c0.1,0,0.2,0,0.3,0.1c0.8,0.4,1.5,0.5,2.4,0.5c1.5,0,2.2-0.8,2.2-2.3v-0.9c-0.7,0.7-1.5,1.1-2.5,1.1
				c-0.6,0-1.1-0.1-1.6-0.4c-0.6-0.3-1-0.7-1.4-1.3c-0.3-0.6-0.5-1.3-0.5-2c0-0.8,0.2-1.5,0.5-2.1c0.3-0.6,0.8-1,1.3-1.3
				c0.5-0.3,1.1-0.4,1.7-0.4c1,0,1.8,0.4,2.5,1.1v-0.3c0-0.2,0.1-0.3,0.2-0.5c0.1-0.1,0.3-0.2,0.5-0.2c0.2,0,0.3,0.1,0.5,0.2
				c0.1,0.1,0.2,0.3,0.2,0.5v6.5c0,1.2-0.3,2.2-0.9,2.8C-89.9-189.3-90.7-189-91.8-189z M-91.9-193.7c0.4,0,0.8-0.1,1.1-0.3
				c0.3-0.2,0.7-0.4,1-0.8v-3c-0.3-0.3-0.7-0.6-1-0.8c-0.3-0.2-0.7-0.3-1.1-0.3c-0.7,0-1.3,0.2-1.8,0.7c-0.4,0.4-0.7,1.1-0.7,1.9
				c0,0.8,0.2,1.4,0.7,1.9C-93.2-193.9-92.7-193.7-91.9-193.7z"/>
		</g>
	</g>
</g>
<g>
	<g transform="translate(140.815349, 233.283813)">
		<g>
			<path d="M-118.3-192.4c-0.2,0-0.3-0.1-0.5-0.2c-0.1-0.1-0.2-0.3-0.2-0.5v-9.4c0-0.2,0.1-0.3,0.2-0.5c0.1-0.1,0.3-0.2,0.5-0.2
				c0.2,0,0.3,0.1,0.5,0.2c0.1,0.1,0.2,0.3,0.2,0.5v3.7c0.4-0.4,0.8-0.7,1.2-1c0.4-0.2,0.9-0.3,1.4-0.3c0.5,0,1,0.1,1.4,0.4
				c0.4,0.3,0.7,0.6,0.9,1c0.2,0.4,0.3,0.9,0.3,1.4v4.1c0,0.2-0.1,0.3-0.2,0.5c-0.1,0.1-0.3,0.2-0.5,0.2c-0.2,0-0.3-0.1-0.5-0.2
				c-0.1-0.1-0.2-0.3-0.2-0.5v-4c0-1.2-0.5-1.8-1.6-1.8c-0.5,0-0.9,0.1-1.3,0.3c-0.4,0.2-0.7,0.6-1.1,1v4.3c0,0.2-0.1,0.3-0.2,0.5
				C-117.9-192.5-118.1-192.4-118.3-192.4z"/>
		</g>
	</g>
</g>
<g>
	<g transform="translate(172.868142, 233.283813)">
		<g>
			<path d="M-138.2-193.6c0.1,0,0.3,0.1,0.4,0.2c0.1,0.1,0.2,0.2,0.2,0.4c0,0.2-0.1,0.4-0.3,0.5c-0.4,0.2-0.8,0.3-1.2,0.3
				c-1.4,0-2.1-0.6-2.1-1.9v-4.4h-0.7c-0.2,0-0.3-0.1-0.4-0.2c-0.1-0.1-0.2-0.2-0.2-0.4c0-0.2,0.1-0.3,0.2-0.4
				c0.1-0.1,0.2-0.2,0.4-0.2h0.7v-1c0-0.2,0.1-0.4,0.2-0.5c0.1-0.1,0.3-0.2,0.5-0.2c0.2,0,0.4,0.1,0.5,0.2c0.1,0.1,0.2,0.3,0.2,0.5
				v1h1.6c0.2,0,0.3,0.1,0.4,0.2c0.1,0.1,0.2,0.2,0.2,0.4c0,0.2-0.1,0.3-0.2,0.4c-0.1,0.1-0.2,0.2-0.4,0.2h-1.6v4.3
				c0,0.3,0.1,0.6,0.2,0.7c0.2,0.1,0.4,0.2,0.7,0.2c0.2,0,0.4,0,0.6-0.1c0,0,0,0,0,0C-138.4-193.6-138.3-193.6-138.2-193.6z"/>
		</g>
	</g>
</g>
<g>
	<g transform="translate(193.437029, 233.283813)">
	</g>
</g>
<g>
	<g transform="translate(209.857545, 233.283813)">
		<g>
			<path d="M-166.3-192.3c-0.4,0-0.8-0.1-1.2-0.3c-0.4-0.2-0.7-0.4-0.9-0.8c-0.2-0.3-0.3-0.7-0.3-1.2c0-0.8,0.3-1.3,0.9-1.7
				c0.6-0.4,1.4-0.6,2.5-0.6h1.7v-0.1c0-0.6-0.2-1.1-0.5-1.4c-0.3-0.3-0.8-0.4-1.5-0.4c-0.3,0-0.7,0-0.9,0.1c-0.3,0.1-0.6,0.1-1,0.3
				l-0.2,0c-0.1,0-0.3-0.1-0.4-0.2c-0.1-0.1-0.2-0.2-0.2-0.4c0-0.3,0.1-0.5,0.4-0.6c0.8-0.3,1.6-0.5,2.5-0.5c0.7,0,1.2,0.1,1.7,0.4
				c0.4,0.3,0.8,0.6,1,1c0.2,0.4,0.3,0.9,0.3,1.4v4.1c0,0.2-0.1,0.3-0.2,0.5c-0.1,0.1-0.3,0.2-0.5,0.2c-0.2,0-0.3-0.1-0.5-0.2
				c-0.1-0.1-0.2-0.3-0.2-0.5v-0.3C-164.3-192.7-165.2-192.3-166.3-192.3z M-165.8-193.5c0.4,0,0.8-0.1,1.2-0.3
				c0.4-0.2,0.7-0.5,1-0.8v-1.2h-1.6c-1.4,0-2.2,0.4-2.2,1.1C-167.3-193.9-166.8-193.5-165.8-193.5z"/>
		</g>
	</g>
</g>
<g>
	<g transform="translate(239.532613, 233.283813)">
	</g>
</g>
<g>
	<g transform="translate(255.953128, 233.283813)">
		<g>
			<path d="M-200.2-192.4c-0.2,0-0.3-0.1-0.5-0.2c-0.1-0.1-0.2-0.3-0.2-0.5v-8.6c0-0.3,0.1-0.5,0.3-0.7c0.2-0.2,0.4-0.3,0.7-0.3h0.5
				c0.2,0,0.4,0.1,0.5,0.2c0.2,0.1,0.3,0.3,0.4,0.5l3.2,7.9c0,0.1,0.1,0.1,0.1,0.1c0,0,0.1,0,0.1-0.1l3.2-7.9
				c0.1-0.2,0.2-0.3,0.4-0.5c0.2-0.1,0.3-0.2,0.5-0.2h0.5c0.3,0,0.5,0.1,0.7,0.3c0.2,0.2,0.3,0.4,0.3,0.7v8.6c0,0.2-0.1,0.3-0.2,0.5
				c-0.1,0.1-0.3,0.2-0.5,0.2c-0.2,0-0.3-0.1-0.5-0.2c-0.1-0.1-0.2-0.3-0.2-0.5v-7.6c0-0.1,0-0.1-0.1-0.1c0,0-0.1,0-0.1,0.1
				l-3.1,7.7c-0.1,0.2-0.2,0.3-0.4,0.5c-0.2,0.1-0.4,0.2-0.6,0.2c-0.2,0-0.4-0.1-0.6-0.2c-0.2-0.1-0.3-0.3-0.4-0.5l-3.1-7.7
				c0-0.1-0.1-0.1-0.1-0.1c-0.1,0-0.1,0-0.1,0.1v7.6c0,0.2-0.1,0.3-0.2,0.5C-199.9-192.5-200-192.4-200.2-192.4z"/>
		</g>
	</g>
</g>
<g>
	<g transform="translate(306.066514, 233.283813)">
		<g>
			<path d="M-235-192.3c-0.4,0-0.8-0.1-1.2-0.3c-0.4-0.2-0.7-0.4-0.9-0.8c-0.2-0.3-0.3-0.7-0.3-1.2c0-0.8,0.3-1.3,0.9-1.7
				c0.6-0.4,1.4-0.6,2.5-0.6h1.7v-0.1c0-0.6-0.2-1.1-0.5-1.4c-0.3-0.3-0.8-0.4-1.5-0.4c-0.3,0-0.7,0-0.9,0.1c-0.3,0.1-0.6,0.1-1,0.3
				l-0.2,0c-0.1,0-0.3-0.1-0.4-0.2c-0.1-0.1-0.2-0.2-0.2-0.4c0-0.3,0.1-0.5,0.4-0.6c0.8-0.3,1.6-0.5,2.5-0.5c0.7,0,1.2,0.1,1.7,0.4
				c0.4,0.3,0.8,0.6,1,1c0.2,0.4,0.3,0.9,0.3,1.4v4.1c0,0.2-0.1,0.3-0.2,0.5c-0.1,0.1-0.3,0.2-0.5,0.2c-0.2,0-0.3-0.1-0.5-0.2
				c-0.1-0.1-0.2-0.3-0.2-0.5v-0.3C-233-192.7-233.9-192.3-235-192.3z M-234.5-193.5c0.4,0,0.8-0.1,1.2-0.3c0.4-0.2,0.7-0.5,1-0.8
				v-1.2h-1.6c-1.4,0-2.2,0.4-2.2,1.1C-236-193.9-235.5-193.5-234.5-193.5z"/>
		</g>
	</g>
</g>
<g>
	<g transform="translate(335.741566, 233.283813)">
		<g>
			<path d="M-254.5-193.6c0.1,0,0.3,0.1,0.4,0.2c0.1,0.1,0.2,0.2,0.2,0.4c0,0.2-0.1,0.4-0.3,0.5c-0.4,0.2-0.8,0.3-1.2,0.3
				c-1.4,0-2.1-0.6-2.1-1.9v-4.4h-0.7c-0.2,0-0.3-0.1-0.4-0.2c-0.1-0.1-0.2-0.2-0.2-0.4c0-0.2,0.1-0.3,0.2-0.4
				c0.1-0.1,0.2-0.2,0.4-0.2h0.7v-1c0-0.2,0.1-0.4,0.2-0.5c0.1-0.1,0.3-0.2,0.5-0.2c0.2,0,0.4,0.1,0.5,0.2c0.1,0.1,0.2,0.3,0.2,0.5
				v1h1.6c0.2,0,0.3,0.1,0.4,0.2c0.1,0.1,0.2,0.2,0.2,0.4c0,0.2-0.1,0.3-0.2,0.4c-0.1,0.1-0.2,0.2-0.4,0.2h-1.6v4.3
				c0,0.3,0.1,0.6,0.2,0.7c0.2,0.1,0.4,0.2,0.7,0.2c0.2,0,0.4,0,0.6-0.1c0,0,0,0,0,0C-254.6-193.6-254.6-193.6-254.5-193.6z"/>
		</g>
	</g>
</g>
<g>
	<g transform="translate(356.310454, 233.283813)">
		<g>
			<path d="M-269.3-192.3c-0.7,0-1.3-0.2-1.9-0.5c-0.6-0.3-1.1-0.8-1.4-1.4c-0.3-0.6-0.5-1.3-0.5-2c0-0.8,0.2-1.5,0.5-2.1
				c0.3-0.6,0.8-1,1.4-1.3c0.6-0.3,1.2-0.5,1.9-0.5c0.5,0,0.9,0.1,1.3,0.2c0.4,0.1,0.7,0.3,1.1,0.5c0.2,0.1,0.3,0.3,0.3,0.5
				c0,0.1-0.1,0.3-0.2,0.4c-0.1,0.1-0.2,0.2-0.4,0.2c-0.1,0-0.2,0-0.3-0.1c-0.3-0.2-0.6-0.3-0.8-0.4c-0.2-0.1-0.5-0.1-0.8-0.1
				c-0.8,0-1.5,0.2-1.9,0.7c-0.5,0.5-0.7,1.1-0.7,1.9c0,0.8,0.2,1.4,0.7,1.9c0.5,0.5,1.1,0.7,1.9,0.7c0.3,0,0.6,0,0.8-0.1
				c0.2-0.1,0.5-0.2,0.8-0.4c0.1-0.1,0.2-0.1,0.3-0.1c0.1,0,0.3,0.1,0.4,0.2s0.2,0.3,0.2,0.4c0,0.2-0.1,0.4-0.3,0.5
				c-0.4,0.2-0.7,0.4-1.1,0.5C-268.4-192.4-268.8-192.3-269.3-192.3z"/>
		</g>
	</g>
</g>
<g>
	<g transform="translate(384.518414, 233.283813)">
		<g>
			<path d="M-292.2-192.4c-0.2,0-0.3-0.1-0.5-0.2c-0.1-0.1-0.2-0.3-0.2-0.5v-9.4c0-0.2,0.1-0.3,0.2-0.5c0.1-0.1,0.3-0.2,0.5-0.2
				c0.2,0,0.3,0.1,0.5,0.2c0.1,0.1,0.2,0.3,0.2,0.5v3.7c0.4-0.4,0.8-0.7,1.2-1c0.4-0.2,0.9-0.3,1.4-0.3c0.5,0,1,0.1,1.4,0.4
				c0.4,0.3,0.7,0.6,0.9,1c0.2,0.4,0.3,0.9,0.3,1.4v4.1c0,0.2-0.1,0.3-0.2,0.5c-0.1,0.1-0.3,0.2-0.5,0.2c-0.2,0-0.3-0.1-0.5-0.2
				c-0.1-0.1-0.2-0.3-0.2-0.5v-4c0-1.2-0.5-1.8-1.6-1.8c-0.5,0-0.9,0.1-1.3,0.3c-0.4,0.2-0.7,0.6-1.1,1v4.3c0,0.2-0.1,0.3-0.2,0.5
				C-291.9-192.5-292-192.4-292.2-192.4z"/>
		</g>
	</g>
</g>
<g>
	<g transform="translate(416.571207, 233.283813)">
	</g>
</g>
<g>
	<g transform="translate(432.991723, 233.283813)">
		<g>
			<path d="M-326.6-192.4c-0.2,0-0.3-0.1-0.5-0.2c-0.1-0.1-0.2-0.3-0.2-0.5v-8.6c0-0.3,0.1-0.5,0.3-0.7c0.2-0.2,0.4-0.3,0.7-0.3h0.5
				c0.2,0,0.4,0.1,0.5,0.2c0.2,0.1,0.3,0.3,0.4,0.5l3.2,7.9c0,0.1,0.1,0.1,0.1,0.1c0,0,0.1,0,0.1-0.1l3.2-7.9
				c0.1-0.2,0.2-0.3,0.4-0.5c0.2-0.1,0.3-0.2,0.5-0.2h0.5c0.3,0,0.5,0.1,0.7,0.3c0.2,0.2,0.3,0.4,0.3,0.7v8.6c0,0.2-0.1,0.3-0.2,0.5
				c-0.1,0.1-0.3,0.2-0.5,0.2c-0.2,0-0.3-0.1-0.5-0.2c-0.1-0.1-0.2-0.3-0.2-0.5v-7.6c0-0.1,0-0.1-0.1-0.1c0,0-0.1,0-0.1,0.1
				l-3.1,7.7c-0.1,0.2-0.2,0.3-0.4,0.5c-0.2,0.1-0.4,0.2-0.6,0.2c-0.2,0-0.4-0.1-0.6-0.2c-0.2-0.1-0.3-0.3-0.4-0.5l-3.1-7.7
				c0-0.1-0.1-0.1-0.1-0.1c-0.1,0-0.1,0-0.1,0.1v7.6c0,0.2-0.1,0.3-0.2,0.5C-326.2-192.5-326.4-192.4-326.6-192.4z"/>
		</g>
	</g>
</g>
<g>
	<g transform="translate(483.105109, 233.283813)">
		<g>
			<path d="M-360-192.3c-1.2,0-2.1-0.3-2.8-1c-0.7-0.7-1-1.6-1-2.8c0-0.7,0.1-1.3,0.4-1.9c0.3-0.6,0.7-1.1,1.2-1.4
				c0.5-0.3,1.2-0.5,1.9-0.5c0.7,0,1.3,0.2,1.9,0.5c0.5,0.3,0.9,0.8,1.2,1.3c0.3,0.6,0.4,1.2,0.4,1.8c0,0.2-0.1,0.3-0.2,0.5
				c-0.1,0.1-0.3,0.2-0.5,0.2h-4.9c0.1,0.7,0.3,1.2,0.8,1.6c0.4,0.4,1,0.5,1.7,0.5c0.4,0,0.7,0,1-0.1c0.3-0.1,0.6-0.2,0.9-0.3
				c0.1,0,0.2-0.1,0.3-0.1c0.2,0,0.3,0.1,0.4,0.2c0.1,0.1,0.2,0.2,0.2,0.4c0,0.2-0.1,0.4-0.4,0.5c-0.4,0.2-0.8,0.4-1.2,0.5
				C-358.9-192.4-359.4-192.3-360-192.3z M-358.3-196.8c0.1,0,0.2-0.1,0.2-0.2c0-0.4-0.2-0.7-0.3-1c-0.2-0.3-0.5-0.5-0.8-0.7
				c-0.3-0.2-0.6-0.2-1-0.2c-0.3,0-0.6,0.1-1,0.2c-0.3,0.2-0.6,0.4-0.8,0.7c-0.2,0.3-0.3,0.7-0.3,1.1H-358.3z"/>
		</g>
	</g>
</g>
<g>
	<g transform="translate(512.982537, 233.283813)">
		<g>
			<path d="M-381.3-192.3c-1.2,0-2.1-0.3-2.8-1c-0.7-0.7-1-1.6-1-2.8c0-0.7,0.1-1.3,0.4-1.9c0.3-0.6,0.7-1.1,1.2-1.4
				c0.5-0.3,1.2-0.5,1.9-0.5c0.7,0,1.3,0.2,1.9,0.5c0.5,0.3,0.9,0.8,1.2,1.3c0.3,0.6,0.4,1.2,0.4,1.8c0,0.2-0.1,0.3-0.2,0.5
				c-0.1,0.1-0.3,0.2-0.5,0.2h-4.9c0.1,0.7,0.3,1.2,0.8,1.6c0.4,0.4,1,0.5,1.7,0.5c0.4,0,0.7,0,1-0.1c0.3-0.1,0.6-0.2,0.9-0.3
				c0.1,0,0.2-0.1,0.3-0.1c0.2,0,0.3,0.1,0.4,0.2c0.1,0.1,0.2,0.2,0.2,0.4c0,0.2-0.1,0.4-0.4,0.5c-0.4,0.2-0.8,0.4-1.2,0.5
				C-380.3-192.4-380.7-192.3-381.3-192.3z M-379.6-196.8c0.1,0,0.2-0.1,0.2-0.2c0-0.4-0.2-0.7-0.3-1c-0.2-0.3-0.5-0.5-0.8-0.7
				c-0.3-0.2-0.6-0.2-1-0.2c-0.3,0-0.6,0.1-1,0.2c-0.3,0.2-0.6,0.4-0.8,0.7c-0.2,0.3-0.3,0.7-0.3,1.1H-379.6z"/>
		</g>
	</g>
</g>
<g>
	<g transform="translate(542.859965, 233.283813)">
		<g>
			<path d="M-402.3-193.6c0.1,0,0.3,0.1,0.4,0.2c0.1,0.1,0.2,0.2,0.2,0.4c0,0.2-0.1,0.4-0.3,0.5c-0.4,0.2-0.8,0.3-1.2,0.3
				c-1.4,0-2.1-0.6-2.1-1.9v-4.4h-0.7c-0.2,0-0.3-0.1-0.4-0.2c-0.1-0.1-0.2-0.2-0.2-0.4c0-0.2,0.1-0.3,0.2-0.4
				c0.1-0.1,0.2-0.2,0.4-0.2h0.7v-1c0-0.2,0.1-0.4,0.2-0.5c0.1-0.1,0.3-0.2,0.5-0.2c0.2,0,0.4,0.1,0.5,0.2c0.1,0.1,0.2,0.3,0.2,0.5
				v1h1.6c0.2,0,0.3,0.1,0.4,0.2c0.1,0.1,0.2,0.2,0.2,0.4c0,0.2-0.1,0.3-0.2,0.4c-0.1,0.1-0.2,0.2-0.4,0.2h-1.6v4.3
				c0,0.3,0.1,0.6,0.2,0.7c0.2,0.1,0.4,0.2,0.7,0.2c0.2,0,0.4,0,0.6-0.1c0,0,0,0,0,0C-402.5-193.6-402.4-193.6-402.3-193.6z"/>
		</g>
	</g>
</g>
<g>
	<g transform="translate(563.428852, 233.283813)">
	</g>
</g>
<g>
	<g transform="translate(579.849367, 233.283813)">
		<g>
			<path d="M-430.4-192.3c-0.4,0-0.8-0.1-1.2-0.3c-0.4-0.2-0.7-0.4-0.9-0.8c-0.2-0.3-0.3-0.7-0.3-1.2c0-0.8,0.3-1.3,0.9-1.7
				c0.6-0.4,1.4-0.6,2.5-0.6h1.7v-0.1c0-0.6-0.2-1.1-0.5-1.4c-0.3-0.3-0.8-0.4-1.5-0.4c-0.3,0-0.7,0-0.9,0.1c-0.3,0.1-0.6,0.1-1,0.3
				l-0.2,0c-0.1,0-0.3-0.1-0.4-0.2c-0.1-0.1-0.2-0.2-0.2-0.4c0-0.3,0.1-0.5,0.4-0.6c0.8-0.3,1.6-0.5,2.5-0.5c0.7,0,1.2,0.1,1.7,0.4
				c0.4,0.3,0.8,0.6,1,1c0.2,0.4,0.3,0.9,0.3,1.4v4.1c0,0.2-0.1,0.3-0.2,0.5c-0.1,0.1-0.3,0.2-0.5,0.2c-0.2,0-0.3-0.1-0.5-0.2
				c-0.1-0.1-0.2-0.3-0.2-0.5v-0.3C-428.4-192.7-429.3-192.3-430.4-192.3z M-429.9-193.5c0.4,0,0.8-0.1,1.2-0.3
				c0.4-0.2,0.7-0.5,1-0.8v-1.2h-1.6c-1.4,0-2.2,0.4-2.2,1.1C-431.5-193.9-431-193.5-429.9-193.5z"/>
		</g>
	</g>
</g>
<g>
	<g transform="translate(609.524435, 233.283813)">
	</g>
</g>
<g>
	<g transform="translate(625.944951, 233.283813)">
		<g>
			<path d="M-464.3-192.4c-0.2,0-0.3-0.1-0.5-0.2c-0.1-0.1-0.2-0.3-0.2-0.5v-8.9c0-0.2,0.1-0.3,0.2-0.5c0.1-0.1,0.3-0.2,0.5-0.2h5.6
				c0.2,0,0.3,0.1,0.4,0.2c0.1,0.1,0.2,0.3,0.2,0.4c0,0.2-0.1,0.3-0.2,0.4c-0.1,0.1-0.3,0.2-0.4,0.2h-4.8c-0.1,0-0.2,0.1-0.2,0.2v3
				h4.4c0.2,0,0.3,0.1,0.4,0.2c0.1,0.1,0.2,0.3,0.2,0.4c0,0.2-0.1,0.3-0.2,0.4c-0.1,0.1-0.3,0.2-0.4,0.2h-4.4v3.8
				c0,0.2-0.1,0.3-0.2,0.5C-464-192.5-464.1-192.4-464.3-192.4z"/>
		</g>
	</g>
</g>
<g>
	<g transform="translate(657.947154, 233.283813)">
		<g>
			<path d="M-486.2-192.3c-0.4,0-0.8-0.1-1.2-0.3c-0.4-0.2-0.7-0.4-0.9-0.8c-0.2-0.3-0.3-0.7-0.3-1.2c0-0.8,0.3-1.3,0.9-1.7
				c0.6-0.4,1.4-0.6,2.5-0.6h1.7v-0.1c0-0.6-0.2-1.1-0.5-1.4c-0.3-0.3-0.8-0.4-1.5-0.4c-0.3,0-0.7,0-0.9,0.1c-0.3,0.1-0.6,0.1-1,0.3
				l-0.2,0c-0.1,0-0.3-0.1-0.4-0.2c-0.1-0.1-0.2-0.2-0.2-0.4c0-0.3,0.1-0.5,0.4-0.6c0.8-0.3,1.6-0.5,2.5-0.5c0.7,0,1.2,0.1,1.7,0.4
				c0.4,0.3,0.8,0.6,1,1c0.2,0.4,0.3,0.9,0.3,1.4v4.1c0,0.2-0.1,0.3-0.2,0.5c-0.1,0.1-0.3,0.2-0.5,0.2c-0.2,0-0.3-0.1-0.5-0.2
				c-0.1-0.1-0.2-0.3-0.2-0.5v-0.3C-484.2-192.7-485.1-192.3-486.2-192.3z M-485.7-193.5c0.4,0,0.8-0.1,1.2-0.3
				c0.4-0.2,0.7-0.5,1-0.8v-1.2h-1.6c-1.4,0-2.2,0.4-2.2,1.1C-487.2-193.9-486.7-193.5-485.7-193.5z"/>
		</g>
	</g>
</g>
<g>
	<g transform="translate(687.622222, 233.283813)">
		<g>
			<path d="M-499.2-199.6c0.3,0.3,0.6,0.6,0.8,1c0.2,0.4,0.3,0.9,0.3,1.4v4.2c0,0.2-0.1,0.3-0.2,0.5c-0.1,0.1-0.3,0.2-0.5,0.2
				c-0.2,0-0.3-0.1-0.5-0.2c-0.1-0.1-0.2-0.3-0.2-0.5v-3.9c0-0.6-0.1-1.1-0.3-1.4c-0.2-0.3-0.6-0.4-1.1-0.4c-0.5,0-0.9,0.1-1.2,0.4
				c-0.3,0.2-0.6,0.6-0.9,1v4.3c0,0.2-0.1,0.3-0.2,0.5c-0.1,0.1-0.3,0.2-0.5,0.2c-0.2,0-0.3-0.1-0.5-0.2c-0.1-0.1-0.2-0.3-0.2-0.5
				v-3.9c0-0.6-0.1-1.1-0.3-1.4c-0.2-0.3-0.6-0.4-1.1-0.4c-0.5,0-0.9,0.1-1.2,0.4c-0.3,0.2-0.6,0.6-0.9,1v4.3c0,0.2-0.1,0.3-0.2,0.5
				c-0.1,0.1-0.3,0.2-0.5,0.2c-0.2,0-0.3-0.1-0.5-0.2c-0.1-0.1-0.2-0.3-0.2-0.5v-6.2c0-0.2,0.1-0.3,0.2-0.5c0.1-0.1,0.3-0.2,0.5-0.2
				c0.2,0,0.3,0.1,0.5,0.2c0.1,0.1,0.2,0.3,0.2,0.5v0.5c0.3-0.4,0.6-0.7,1-0.9c0.4-0.2,0.9-0.3,1.4-0.3c0.5,0,1,0.1,1.4,0.4
				c0.4,0.3,0.7,0.6,0.8,1.1c0.6-1,1.5-1.5,2.7-1.5C-500-200-499.6-199.9-499.2-199.6z"/>
		</g>
	</g>
</g>
<g>
	<g transform="translate(735.307293, 233.283813)">
		<g>
			<path d="M-542.7-201.4c-0.2,0-0.4-0.1-0.5-0.2c-0.1-0.1-0.2-0.3-0.2-0.5v-0.1c0-0.2,0.1-0.4,0.2-0.5c0.1-0.2,0.3-0.2,0.5-0.2h0.1
				c0.2,0,0.4,0.1,0.5,0.2c0.1,0.1,0.2,0.3,0.2,0.5v0.1c0,0.2-0.1,0.4-0.2,0.5C-542.2-201.4-542.4-201.4-542.7-201.4L-542.7-201.4z
				 M-542.6-192.4c-0.2,0-0.3-0.1-0.5-0.2c-0.1-0.1-0.2-0.3-0.2-0.5v-6.2c0-0.2,0.1-0.3,0.2-0.5c0.1-0.1,0.3-0.2,0.5-0.2
				c0.2,0,0.4,0.1,0.5,0.2c0.1,0.1,0.2,0.3,0.2,0.5v6.2c0,0.2-0.1,0.3-0.2,0.5C-542.3-192.5-542.5-192.4-542.6-192.4z"/>
		</g>
	</g>
</g>
<g>
	<g transform="translate(749.147692, 233.283813)">
		<g>
			<path d="M-552.5-192.4c-0.2,0-0.3-0.1-0.5-0.2c-0.1-0.1-0.2-0.3-0.2-0.5v-9.4c0-0.2,0.1-0.3,0.2-0.5c0.1-0.1,0.3-0.2,0.5-0.2
				c0.2,0,0.4,0.1,0.5,0.2c0.1,0.1,0.2,0.3,0.2,0.5v9.4c0,0.2-0.1,0.3-0.2,0.5C-552.2-192.5-552.3-192.4-552.5-192.4z"/>
		</g>
	</g>
</g>
<g>
	<g transform="translate(762.988092, 233.283813)">
		<g>
			<path d="M-561.4-189.1c-0.2,0-0.3-0.1-0.4-0.2c-0.1-0.1-0.2-0.3-0.2-0.5c0-0.1,0-0.2,0-0.2l0.9-2.4l-2.7-6.6
				c0-0.1-0.1-0.2-0.1-0.3c0-0.2,0.1-0.3,0.2-0.5c0.1-0.1,0.3-0.2,0.5-0.2c0.1,0,0.3,0,0.4,0.1c0.1,0.1,0.2,0.2,0.2,0.3l2.2,5.5
				l2.3-5.5c0.1-0.3,0.3-0.4,0.6-0.4c0.2,0,0.3,0.1,0.5,0.2c0.1,0.1,0.2,0.3,0.2,0.5c0,0.1,0,0.2,0,0.2l-4,9.5
				C-560.9-189.2-561.1-189.1-561.4-189.1z"/>
		</g>
	</g>
</g>
<g>
	<g transform="translate(791.398381, 233.283813)">
	</g>
</g>
<g>
	<g transform="translate(807.818897, 233.283813)">
		<g>
			<path d="M-595.6-197c-0.2,0-0.3-0.1-0.4-0.2s-0.2-0.3-0.2-0.4c0-0.2,0.1-0.3,0.2-0.4c0.1-0.1,0.3-0.2,0.4-0.2h13.6
				c0.2,0,0.3,0.1,0.4,0.2c0.1,0.1,0.2,0.3,0.2,0.4c0,0.2-0.1,0.3-0.2,0.4c-0.1,0.1-0.3,0.2-0.4,0.2H-595.6z"/>
		</g>
	</g>
</g>
<g>
	<g transform="translate(860.866497, 233.283813)">
	</g>
</g>
<g>
	<g transform="translate(877.287012, 233.283813)">
		<g>
			<path d="M-643.5-192.5c-0.3,0-0.5-0.1-0.7-0.3c-0.2-0.2-0.3-0.4-0.3-0.7v-8.6c0-0.2,0.1-0.3,0.2-0.5c0.1-0.1,0.3-0.2,0.5-0.2
				c0.2,0,0.3,0.1,0.5,0.2c0.1,0.1,0.2,0.3,0.2,0.5v8c0,0.1,0.1,0.2,0.2,0.2h4.5c0.2,0,0.3,0.1,0.5,0.2c0.1,0.1,0.2,0.3,0.2,0.5
				c0,0.2-0.1,0.3-0.2,0.5c-0.1,0.1-0.3,0.2-0.5,0.2H-643.5z"/>
		</g>
	</g>
</g>
<g>
	<g transform="translate(907.670339, 233.283813)">
		<g>
			<path d="M-665.4-192.4c-0.2,0-0.3-0.1-0.5-0.2c-0.1-0.1-0.2-0.3-0.2-0.5v-8.6c0-0.3,0.1-0.5,0.3-0.7c0.2-0.2,0.4-0.3,0.7-0.3h0.5
				c0.2,0,0.4,0.1,0.5,0.2c0.2,0.1,0.3,0.3,0.4,0.5l3.2,7.9c0,0.1,0.1,0.1,0.1,0.1c0,0,0.1,0,0.1-0.1l3.2-7.9
				c0.1-0.2,0.2-0.3,0.4-0.5c0.2-0.1,0.3-0.2,0.5-0.2h0.5c0.3,0,0.5,0.1,0.7,0.3c0.2,0.2,0.3,0.4,0.3,0.7v8.6c0,0.2-0.1,0.3-0.2,0.5
				c-0.1,0.1-0.3,0.2-0.5,0.2c-0.2,0-0.3-0.1-0.5-0.2c-0.1-0.1-0.2-0.3-0.2-0.5v-7.6c0-0.1,0-0.1-0.1-0.1c0,0-0.1,0-0.1,0.1
				l-3.1,7.7c-0.1,0.2-0.2,0.3-0.4,0.5c-0.2,0.1-0.4,0.2-0.6,0.2c-0.2,0-0.4-0.1-0.6-0.2c-0.2-0.1-0.3-0.3-0.4-0.5l-3.1-7.7
				c0-0.1-0.1-0.1-0.1-0.1c-0.1,0-0.1,0-0.1,0.1v7.6c0,0.2-0.1,0.3-0.2,0.5C-665.1-192.5-665.2-192.4-665.4-192.4z"/>
		</g>
	</g>
</g>
<g>
	<g transform="translate(957.783725, 233.283813)">
		<g>
			<path d="M-701.2-192.4c-0.2,0-0.3-0.1-0.5-0.2c-0.1-0.1-0.2-0.3-0.2-0.5v-8.6c0-0.3,0.1-0.5,0.3-0.7c0.2-0.2,0.4-0.3,0.7-0.3h0.5
				c0.2,0,0.4,0.1,0.5,0.2c0.2,0.1,0.3,0.3,0.4,0.5l3.2,7.9c0,0.1,0.1,0.1,0.1,0.1c0,0,0.1,0,0.1-0.1l3.2-7.9
				c0.1-0.2,0.2-0.3,0.4-0.5c0.2-0.1,0.3-0.2,0.5-0.2h0.5c0.3,0,0.5,0.1,0.7,0.3c0.2,0.2,0.3,0.4,0.3,0.7v8.6c0,0.2-0.1,0.3-0.2,0.5
				c-0.1,0.1-0.3,0.2-0.5,0.2c-0.2,0-0.3-0.1-0.5-0.2c-0.1-0.1-0.2-0.3-0.2-0.5v-7.6c0-0.1,0-0.1-0.1-0.1c0,0-0.1,0-0.1,0.1
				l-3.1,7.7c-0.1,0.2-0.2,0.3-0.4,0.5c-0.2,0.1-0.4,0.2-0.6,0.2c-0.2,0-0.4-0.1-0.6-0.2c-0.2-0.1-0.3-0.3-0.4-0.5l-3.1-7.7
				c0-0.1-0.1-0.1-0.1-0.1c-0.1,0-0.1,0-0.1,0.1v7.6c0,0.2-0.1,0.3-0.2,0.5C-700.8-192.5-701-192.4-701.2-192.4z"/>
		</g>
	</g>
</g>
<g>
	<g transform="translate(1007.897111, 233.283813)">
		<g>
			<path d="M-737-192.4c-0.2,0-0.3-0.1-0.5-0.2c-0.1-0.1-0.2-0.3-0.2-0.5v-8.9c0-0.2,0.1-0.3,0.2-0.5c0.1-0.1,0.3-0.2,0.5-0.2h5.6
				c0.2,0,0.3,0.1,0.4,0.2c0.1,0.1,0.2,0.3,0.2,0.4c0,0.2-0.1,0.3-0.2,0.4c-0.1,0.1-0.3,0.2-0.4,0.2h-4.8c-0.1,0-0.2,0.1-0.2,0.2v3
				h4.4c0.2,0,0.3,0.1,0.4,0.2c0.1,0.1,0.2,0.3,0.2,0.4c0,0.2-0.1,0.3-0.2,0.4c-0.1,0.1-0.3,0.2-0.4,0.2h-4.4v3.8
				c0,0.2-0.1,0.3-0.2,0.5C-736.6-192.5-736.8-192.4-737-192.4z"/>
		</g>
	</g>
</g>
<g>
	<g transform="translate(1039.899314, 233.283813)">
	</g>
</g>
<g>
	<g transform="translate(1056.319829, 233.283813)">
		<g>
			<path d="M-771.5-192.4c-0.2,0-0.3-0.1-0.5-0.2c-0.1-0.1-0.2-0.3-0.2-0.5v-8.9c0-0.2,0.1-0.3,0.2-0.5c0.1-0.1,0.3-0.2,0.5-0.2h3.3
				c0.9,0,1.7,0.2,2.2,0.5c0.5,0.3,0.9,0.7,1.2,1.1c0.3,0.5,0.4,1,0.4,1.6c0,0.6-0.1,1.1-0.4,1.6c-0.3,0.5-0.7,0.9-1.3,1.2
				c-0.6,0.3-1.3,0.4-2.2,0.4h-2.6v3.1c0,0.2-0.1,0.3-0.2,0.5C-771.2-192.5-771.3-192.4-771.5-192.4z M-768.4-197.4
				c0.9,0,1.5-0.2,2-0.5c0.4-0.3,0.7-0.8,0.7-1.5c0-0.6-0.2-1.1-0.7-1.5c-0.4-0.3-1.1-0.5-2-0.5h-2.3c-0.1,0-0.2,0.1-0.2,0.2v3.7
				H-768.4z"/>
		</g>
	</g>
</g>
<g>
	<g transform="translate(1091.559786, 233.283813)">
		<g>
			<path d="M-796.9-192.4c-0.2,0-0.3-0.1-0.5-0.2c-0.1-0.1-0.2-0.3-0.2-0.5v-6.2c0-0.2,0.1-0.3,0.2-0.5c0.1-0.1,0.3-0.2,0.5-0.2
				c0.2,0,0.3,0.1,0.5,0.2c0.1,0.1,0.2,0.3,0.2,0.5v0.6c0.7-0.9,1.4-1.3,2.3-1.3h0.1c0.2,0,0.3,0.1,0.5,0.2c0.1,0.1,0.2,0.3,0.2,0.5
				c0,0.2-0.1,0.3-0.2,0.5c-0.1,0.1-0.3,0.2-0.5,0.2h-0.1c-0.5,0-0.9,0.1-1.3,0.3c-0.4,0.2-0.7,0.5-1,0.9v4.4c0,0.2-0.1,0.3-0.2,0.5
				C-796.6-192.5-796.8-192.4-796.9-192.4z"/>
		</g>
	</g>
</g>
<g>
	<g transform="translate(1112.179231, 233.283813)">
		<g>
			<path d="M-809.1-192.3c-0.7,0-1.4-0.2-2-0.5c-0.6-0.3-1-0.8-1.3-1.4c-0.3-0.6-0.5-1.3-0.5-2c0-0.8,0.2-1.4,0.5-2
				c0.3-0.6,0.7-1,1.3-1.4c0.6-0.3,1.2-0.5,1.9-0.5c0.7,0,1.4,0.2,1.9,0.5c0.6,0.3,1,0.8,1.3,1.4c0.3,0.6,0.5,1.3,0.5,2
				c0,0.8-0.2,1.4-0.5,2c-0.3,0.6-0.8,1.1-1.3,1.4C-807.7-192.5-808.3-192.3-809.1-192.3z M-809.1-193.6c0.4,0,0.8-0.1,1.1-0.3
				c0.4-0.2,0.7-0.5,0.9-0.9c0.2-0.4,0.3-0.9,0.3-1.5c0-0.6-0.1-1.1-0.3-1.5c-0.2-0.4-0.5-0.6-0.8-0.8c-0.4-0.2-0.7-0.3-1.2-0.3
				c-0.4,0-0.8,0.1-1.1,0.3c-0.4,0.2-0.7,0.5-0.9,0.9c-0.2,0.4-0.3,0.9-0.3,1.5c0,0.6,0.1,1.1,0.3,1.5c0.2,0.4,0.5,0.7,0.8,0.9
				C-809.9-193.7-809.5-193.6-809.1-193.6z"/>
		</g>
	</g>
</g>
<g>
	<g transform="translate(1144.181434, 233.283813)">
		<g>
			<path d="M-831.7-189c-0.5,0-1.1-0.1-1.7-0.2c-0.6-0.1-1-0.3-1.4-0.5c-0.2-0.1-0.3-0.3-0.3-0.5c0-0.2,0.1-0.3,0.2-0.4
				c0.1-0.1,0.3-0.2,0.4-0.2c0.1,0,0.2,0,0.3,0.1c0.8,0.4,1.5,0.5,2.4,0.5c1.5,0,2.2-0.8,2.2-2.3v-0.9c-0.7,0.7-1.5,1.1-2.5,1.1
				c-0.6,0-1.1-0.1-1.6-0.4c-0.6-0.3-1-0.7-1.4-1.3c-0.3-0.6-0.5-1.3-0.5-2c0-0.8,0.2-1.5,0.5-2.1c0.3-0.6,0.8-1,1.3-1.3
				c0.5-0.3,1.1-0.4,1.7-0.4c1,0,1.8,0.4,2.5,1.1v-0.3c0-0.2,0.1-0.3,0.2-0.5c0.1-0.1,0.3-0.2,0.5-0.2c0.2,0,0.3,0.1,0.5,0.2
				c0.1,0.1,0.2,0.3,0.2,0.5v6.5c0,1.2-0.3,2.2-0.9,2.8C-829.8-189.3-830.6-189-831.7-189z M-831.8-193.7c0.4,0,0.8-0.1,1.1-0.3
				c0.3-0.2,0.7-0.4,1-0.8v-3c-0.3-0.3-0.7-0.6-1-0.8c-0.3-0.2-0.7-0.3-1.1-0.3c-0.7,0-1.3,0.2-1.8,0.7c-0.4,0.4-0.7,1.1-0.7,1.9
				c0,0.8,0.2,1.4,0.7,1.9C-833.2-193.9-832.6-193.7-831.8-193.7z"/>
		</g>
	</g>
</g>
<g>
	<g transform="translate(1177.347236, 233.283813)">
		<g>
			<path d="M-858.2-192.4c-0.2,0-0.3-0.1-0.5-0.2c-0.1-0.1-0.2-0.3-0.2-0.5v-6.2c0-0.2,0.1-0.3,0.2-0.5c0.1-0.1,0.3-0.2,0.5-0.2
				c0.2,0,0.3,0.1,0.5,0.2c0.1,0.1,0.2,0.3,0.2,0.5v0.6c0.7-0.9,1.4-1.3,2.3-1.3h0.1c0.2,0,0.3,0.1,0.5,0.2c0.1,0.1,0.2,0.3,0.2,0.5
				c0,0.2-0.1,0.3-0.2,0.5c-0.1,0.1-0.3,0.2-0.5,0.2h-0.1c-0.5,0-0.9,0.1-1.3,0.3c-0.4,0.2-0.7,0.5-1,0.9v4.4c0,0.2-0.1,0.3-0.2,0.5
				C-857.8-192.5-858-192.4-858.2-192.4z"/>
		</g>
	</g>
</g>
<g>
	<g transform="translate(1197.966743, 233.283813)">
		<g>
			<path d="M-871.7-192.3c-0.4,0-0.8-0.1-1.2-0.3c-0.4-0.2-0.7-0.4-0.9-0.8c-0.2-0.3-0.3-0.7-0.3-1.2c0-0.8,0.3-1.3,0.9-1.7
				c0.6-0.4,1.4-0.6,2.5-0.6h1.7v-0.1c0-0.6-0.2-1.1-0.5-1.4c-0.3-0.3-0.8-0.4-1.5-0.4c-0.3,0-0.7,0-0.9,0.1c-0.3,0.1-0.6,0.1-1,0.3
				l-0.2,0c-0.1,0-0.3-0.1-0.4-0.2c-0.1-0.1-0.2-0.2-0.2-0.4c0-0.3,0.1-0.5,0.4-0.6c0.8-0.3,1.6-0.5,2.5-0.5c0.7,0,1.2,0.1,1.7,0.4
				c0.4,0.3,0.8,0.6,1,1c0.2,0.4,0.3,0.9,0.3,1.4v4.1c0,0.2-0.1,0.3-0.2,0.5c-0.1,0.1-0.3,0.2-0.5,0.2c-0.2,0-0.3-0.1-0.5-0.2
				c-0.1-0.1-0.2-0.3-0.2-0.5v-0.3C-869.7-192.7-870.6-192.3-871.7-192.3z M-871.2-193.5c0.4,0,0.8-0.1,1.2-0.3
				c0.4-0.2,0.7-0.5,1-0.8v-1.2h-1.6c-1.4,0-2.2,0.4-2.2,1.1C-872.7-193.9-872.2-193.5-871.2-193.5z"/>
		</g>
	</g>
</g>
<g>
	<g transform="translate(1227.641749, 233.283813)">
		<g>
			<path d="M-884.7-199.6c0.3,0.3,0.6,0.6,0.8,1c0.2,0.4,0.3,0.9,0.3,1.4v4.2c0,0.2-0.1,0.3-0.2,0.5c-0.1,0.1-0.3,0.2-0.5,0.2
				c-0.2,0-0.3-0.1-0.5-0.2c-0.1-0.1-0.2-0.3-0.2-0.5v-3.9c0-0.6-0.1-1.1-0.3-1.4c-0.2-0.3-0.6-0.4-1.1-0.4c-0.5,0-0.9,0.1-1.2,0.4
				c-0.3,0.2-0.6,0.6-0.9,1v4.3c0,0.2-0.1,0.3-0.2,0.5c-0.1,0.1-0.3,0.2-0.5,0.2c-0.2,0-0.3-0.1-0.5-0.2c-0.1-0.1-0.2-0.3-0.2-0.5
				v-3.9c0-0.6-0.1-1.1-0.3-1.4c-0.2-0.3-0.6-0.4-1.1-0.4c-0.5,0-0.9,0.1-1.2,0.4c-0.3,0.2-0.6,0.6-0.9,1v4.3c0,0.2-0.1,0.3-0.2,0.5
				c-0.1,0.1-0.3,0.2-0.5,0.2c-0.2,0-0.3-0.1-0.5-0.2c-0.1-0.1-0.2-0.3-0.2-0.5v-6.2c0-0.2,0.1-0.3,0.2-0.5c0.1-0.1,0.3-0.2,0.5-0.2
				c0.2,0,0.3,0.1,0.5,0.2c0.1,0.1,0.2,0.3,0.2,0.5v0.5c0.3-0.4,0.6-0.7,1-0.9c0.4-0.2,0.9-0.3,1.4-0.3c0.5,0,1,0.1,1.4,0.4
				c0.4,0.3,0.7,0.6,0.8,1.1c0.6-1,1.5-1.5,2.7-1.5C-885.5-200-885.1-199.9-884.7-199.6z"/>
		</g>
	</g>
</g>
</svg>
