<?xml version="1.0" encoding="utf-8"?>
<!-- Generator: Adobe Illustrator 27.3.1, SVG Export Plug-In . SVG Version: 6.00 Build 0)  -->
<svg version="1.1" id="layer" xmlns="http://www.w3.org/2000/svg" xmlns:xlink="http://www.w3.org/1999/xlink" x="0px" y="0px"
	 viewBox="0 0 132 42" style="enable-background:new 0 0 132 42;" xml:space="preserve">
<style type="text/css">
	.st0{fill:#FFFFFF;}
</style>
<path class="st0" d="M19.2,40.5V22c0-3.1-2.6-5.6-5.7-5.6S7.8,18.9,7.8,22v14.8c0,0.2,0.2,0.4,0.4,0.4c0.2,0,0.4-0.2,0.4-0.4V22
	c0-2.7,2.2-4.8,4.9-4.8s4.9,2.2,4.9,4.8v18.5H6.8H6.1c-0.5,0-0.9-0.2-1.2-0.7c-0.2-0.5-0.4-1-0.4-1.5V16.3H0v22.2c0,0.3,0,0.6,0.1,1
	c0.1,0.4,0.2,0.7,0.3,1C0.6,40.8,0.7,41,1,41.2c0.2,0.2,0.5,0.3,0.9,0.3h19.3v-1h-0.7L19.2,40.5L19.2,40.5z"/>
<path class="st0" d="M52.2,15.6c-0.5,0-1.1,0.2-1.6,0.6c-0.6,0.4-1.1,1.1-1.5,2L40.2,36l-9.1-18c-0.4-0.9-1-1.5-1.5-1.9
	c-0.6-0.4-1.1-0.6-1.6-0.6c-0.6,0-1.2,0.2-1.6,0.7c-0.5,0.5-0.7,1.1-0.7,1.9v23.3h1V20.5c0-0.4,0.1-0.6,0.3-0.6
	c0.2,0,0.4,0.2,0.6,0.6l10.3,21h0.9l10.5-21.1c0.1-0.1,0.1-0.2,0.2-0.3c0.1-0.1,0.2-0.2,0.3-0.2c0.2,0,0.3,0.2,0.3,0.6v21h4.4V18.6
	c0-1-0.2-1.7-0.6-2.3C53.3,15.8,52.8,15.6,52.2,15.6z"/>
<path class="st0" d="M88.2,15.6c-0.5,0-1.1,0.2-1.6,0.6c-0.6,0.4-1.1,1.1-1.5,2L76.2,36l-9.1-18c-0.4-0.9-1-1.5-1.5-1.9
	c-0.6-0.4-1.1-0.6-1.6-0.6c-0.6,0-1.2,0.2-1.6,0.7c-0.5,0.5-0.7,1.1-0.7,1.9v23.3h1V20.5c0-0.4,0.1-0.6,0.3-0.6
	c0.2,0,0.4,0.2,0.6,0.6l10.3,21h0.9l10.5-21.1c0.1-0.1,0.1-0.2,0.2-0.3c0.1-0.1,0.2-0.2,0.3-0.2c0.2,0,0.3,0.2,0.3,0.6v21h4.4V18.6
	c0-1-0.2-1.7-0.6-2.3C89.3,15.8,88.8,15.6,88.2,15.6z"/>
<path class="st0" d="M98.3,16.6c-0.2,0.2-0.4,0.4-0.6,0.7c-0.1,0.3-0.2,0.6-0.3,1c-0.1,0.4-0.1,0.7-0.1,1v22.2h4.6V28.7h12v-1h-12
	v-8.1c0-0.5,0.1-1,0.4-1.5s0.6-0.7,1.2-0.7h14.5v-1H99.2C98.8,16.3,98.6,16.4,98.3,16.6z"/>
<path class="st0" d="M10.2,30.7V29c0-0.2-0.2-0.4-0.4-0.4S9.4,28.8,9.4,29v1.6c0,0.2,0.2,0.4,0.4,0.4C10,31.1,10.2,30.9,10.2,30.7z"
	/>
<path class="st0" d="M8.2,40.1c0.2,0,0.4-0.2,0.4-0.4v-0.8c0-0.2-0.2-0.4-0.4-0.4c-0.2,0-0.4,0.2-0.4,0.4v0.8
	C7.8,39.9,7.9,40.1,8.2,40.1z"/>
<path class="st0" d="M131.9,22.2l-7.4-7.4v-14c0.1-0.1,0.2-0.2,0.2-0.4c0-0.2-0.2-0.4-0.4-0.4h-7.6c-0.2,0-0.4,0.2-0.4,0.4
	c0,0.1,0.1,0.2,0.2,0.3v6.4l-6.7-6.5c-0.2-0.2-0.5-0.2-0.6,0c0,0.1-0.1,0.1-0.1,0.2c0,0,0,0-0.1,0l-15.1,9.8
	c-0.2,0.1-0.3,0.4-0.1,0.6c0.1,0.1,0.2,0.2,0.4,0.2c0.1,0,0.2,0,0.2-0.1l15.1-9.8l0,0l7.4,7c0.1,0.1,0.2,0.1,0.3,0.1
	c0.1,0,0.2,0,0.3-0.1c0.2-0.2,0.2-0.5,0-0.6l-0.1,0V0.9h6.3v14.2c0,0.2,0.1,0.3,0.2,0.4l7.4,7.4c0.1,0.1,0.2,0.1,0.3,0.1
	s0.2,0,0.3-0.1C132,22.7,132,22.4,131.9,22.2z"/>
</svg>
