<?xml version="1.0" encoding="iso-8859-1"?>
<!-- Generator: Adobe Illustrator 19.0.0, SVG Export Plug-In . SVG Version: 6.00 Build 0)  -->
<svg version="1.1" id="Capa_1" xmlns="http://www.w3.org/2000/svg" xmlns:xlink="http://www.w3.org/1999/xlink" x="0px" y="0px"
	 viewBox="0 0 395.44 395.44" style="enable-background:new 0 0 395.44 395.44;" xml:space="preserve">
<path style="fill:#C6BF66;" d="M197.68,387.26c-75.504,0.4-137.04-60.496-137.44-136c-0.032-5.64,0.288-11.28,0.96-16.88l0.8-7.04
	l136-0.72l136,0.72l0.8,7.04c8.928,74.976-44.616,143-119.592,151.928C209.392,387.004,203.536,387.316,197.68,387.26z"/>
<path style="fill:#798C49;" d="M357.68,262.54c0.816-10.44-2.008-20.848-8-29.44c-3.472-3.912-8.536-6.032-13.76-5.76l-138.24-0.72
	l-138.64,0.72h-0.56c-5.04-0.144-9.88,1.968-13.2,5.76c-5.992,8.592-8.816,19-8,29.44v10.56l-10.16-2.8
	c-7.136-1.696-13.52-5.688-18.16-11.36l-1.68-2.16v-76.72c0.72-13.6,23.6-13.84,24.56-13.84C33.52,26.86,104.24,8.06,173.68,8.06h48
	c69.04,0,139.84,18.8,141.04,158.16l0,0c1.04,0,24,0,24.56,12.96v77.6l-1.68,2.16c-4.664,5.688-11.072,9.68-18.24,11.36l-9.68,2.8
	V262.54z"/>
<g>
	<path style="fill:#1F2310;" d="M370.96,158.86C366.56,0.06,265.52,0.06,221.68,0.06h-12.96c-8,0-14.4,0-22.16,0h-12.88
		c-43.52,0-144.56,0-148.96,158.8c-11.12,1.68-24,7.28-24.72,20.8v76.72c0.008,1.192,0.28,2.368,0.8,3.44
		c0,0.72,9.04,18.48,37.28,20.24h0.64c4.4-0.368,7.672-4.232,7.312-8.632c-0.056-0.6-0.168-1.192-0.352-1.768
		c-0.96-9.28,0-24.8,5.36-31.2c0.456-0.512,0.96-0.968,1.52-1.36c0,4.24-0.56,8.56-0.56,12.8c0,80.344,65.136,145.48,145.48,145.48
		s145.48-65.136,145.48-145.48c0-4.16,0-8-0.56-12.56c0.512,0.296,1,0.648,1.44,1.04c5.92,6.72,6.32,24,5.12,32.64
		c-0.304,2.36,0.456,4.736,2.08,6.48c1.632,1.72,3.952,2.632,6.32,2.48c28.24-1.76,36.96-19.44,37.28-20.24
		c0.52-1.072,0.792-2.248,0.8-3.44v-77.12C394.96,165.66,381.68,160.54,370.96,158.86z M197.68,379.26
		c-71.448-0.088-129.352-57.992-129.44-129.44c0.024-4.84,0.32-9.672,0.88-14.48l128.56-0.72l128.64,0.72
		c8.4,70.592-42.024,134.624-112.616,143.024C208.384,378.996,203.032,379.292,197.68,379.26z M379.68,254.06
		c-3.6,4.32-8.52,7.328-14,8.56c0.848-12.368-2.568-24.648-9.68-34.8c-4.984-5.648-12.232-8.76-19.76-8.48l0,0l-138.56-0.72
		l-138.32,0.72h-0.88c-7.336-0.152-14.368,2.952-19.2,8.48c-7.088,10.16-10.472,22.44-9.6,34.8c-5.44-1.232-10.328-4.208-13.92-8.48
		v-74.08c0-3.52,10-5.84,16.64-5.84c4.416,0,8-3.584,8-8C41.44,34.3,104.88,16.06,173.68,16.06h13.04c8,0,14.72,0,22.56,0h12.4
		c68.4,0,131.92,18.16,133.04,150.24c0,4.416,3.584,8,8,8c6.48,0,16.4,2.32,16.56,5.44L379.68,254.06z"/>
	<path style="fill:#1F2310;" d="M223.76,314.7H171.6c-4.416,0-8,3.584-8,8s3.584,8,8,8h52.16c4.416,0,8-3.584,8-8
		S228.176,314.7,223.76,314.7z"/>
</g>
<g>
	<path style="fill:#515E27;" d="M139.44,54.7c-4.4,2.8-28.64,24-36,30c-3.248,3-3.448,8.056-0.456,11.304
		c2.864,3.104,7.656,3.448,10.936,0.776c14.8-12.8,31.6-26.96,34.16-28.64c3.736-2.36,4.84-7.304,2.48-11.04s-7.304-4.84-11.04-2.48
		L139.44,54.7z"/>
	<path style="fill:#515E27;" d="M179.04,145.66c-1.896-3.992-6.664-5.696-10.656-3.8s-5.696,6.664-3.8,10.656
		c0.064,0.144,0.136,0.28,0.216,0.424c8.88,17.44,18.72,37.12,19.68,40c1.104,3.256,4.16,5.448,7.6,5.44
		c0.872,0.008,1.736-0.128,2.56-0.4c4.192-1.4,6.456-5.936,5.056-10.12c-0.008-0.016-0.008-0.024-0.016-0.04
		C197.68,182.86,183.52,154.3,179.04,145.66z"/>
	<path style="fill:#515E27;" d="M258.4,103.82c-5.2-0.4-37.2,1.6-46.8,2.24c-4.416,0.136-7.896,3.824-7.76,8.24
		s3.824,7.896,8.24,7.76h0.56c19.52-1.28,41.44-2.48,44.48-2.24c4.416,0.352,8.288-2.944,8.64-7.36S262.816,104.172,258.4,103.82z"
		/>
	<path style="fill:#515E27;" d="M121.36,142.54c-3.824-2.168-8.68-0.848-10.88,2.96c-3.44,6-13.2,9.76-23.52,13.68
		c-14.72,5.68-31.36,12.08-36.88,28.4c-1.376,4.176,0.88,8.672,5.04,10.08c0.824,0.272,1.688,0.408,2.56,0.4
		c3.44,0.008,6.496-2.184,7.6-5.44c3.12-9.2,14.96-13.76,27.44-18.56s25.36-9.76,32-20.72
		C126.776,149.428,125.272,144.596,121.36,142.54z"/>
	<path style="fill:#515E27;" d="M231.44,49.26c9.68-1.44,19.04,7.04,29.04,16c10,8.96,20.24,18.16,32.8,18.8l0,0
		c4.416,0,8-3.584,8-8s-3.584-8-8-8c-6.88,0-14.64-7.28-22.88-14.72c-11.68-10.48-25.04-22.48-42.08-19.92
		c-4.416,0.64-7.48,4.744-6.84,9.16s4.744,7.48,9.16,6.84L231.44,49.26z"/>
	<path style="fill:#515E27;" d="M341.68,193.34c-6.64,1.76-16-2.64-26.24-7.28c-13.76-6.56-30.16-14-45.76-6.56
		c-4.112,1.616-6.136,6.256-4.52,10.368c1.616,4.112,6.256,6.136,10.368,4.52c0.352-0.136,0.696-0.304,1.032-0.496
		c8.8-4.16,20.32,1.12,32.48,6.64c9.152,5.072,19.256,8.184,29.68,9.12c2.424,0.016,4.848-0.28,7.2-0.88
		c4.288-1.104,6.864-5.472,5.76-9.76c-1.104-4.288-5.472-6.864-9.76-5.76L341.68,193.34z"/>
</g>
<g>
</g>
<g>
</g>
<g>
</g>
<g>
</g>
<g>
</g>
<g>
</g>
<g>
</g>
<g>
</g>
<g>
</g>
<g>
</g>
<g>
</g>
<g>
</g>
<g>
</g>
<g>
</g>
<g>
</g>
</svg>
