<?xml version="1.0" encoding="utf-8"?>
<!-- Generator: Adobe Illustrator 23.0.3, SVG Export Plug-In . SVG Version: 6.00 Build 0)  -->
<svg version="1.1" id="圖層_1" xmlns="http://www.w3.org/2000/svg" xmlns:xlink="http://www.w3.org/1999/xlink" x="0px" y="0px"
	 viewBox="0 0 448 304" style="enable-background:new 0 0 448 304;" xml:space="preserve">
<style type="text/css">
	.st0{fill:#3FA9F5;}
</style>
<g>
	<path class="st0" d="M47.2,72.6c0.9,0,1.8,1.2,2.9,3.7c0.9,2.5,1.4,4.3,1.4,5.4c0,0.4-0.4,1-1.3,1.8c-1.8,1.7-3.9,4-6.3,6.8
		c1.2,0.6,2.9,1.6,5,3c3.8,2,5.7,4,5.7,6c-1.9,3.7-3.4,5.6-4.3,5.6c-1.4,0-2.6-0.9-3.5-2.7c-1.5-1.6-3-3.2-4.6-4.5
		c-0.1,1.1-0.3,2.4-0.3,3.9c-0.6,15.5-1,24.7-1,27.8c0,1.1-1.3,1.7-4,1.7c-2.4,0-3.7-0.5-3.9-1.4c0.1-4.8,0.3-14,0.4-27.6
		c-4.9,5.6-8.2,9.4-9.9,11.4c-1.2,1.4-3.2,2-5.9,2c-4-0.5-6-1.3-6-2.5c0-0.5,0.7-1.1,2-1.8c7.2-5.1,13.2-11.1,18.3-18
		c2.8-3.4,4.2-5.5,4.2-6.3c0-1.5-0.6-2.3-1.7-2.3c-1.6,0-5.8,1.4-12.7,4.2c-1.6,1-2.7,1.5-3.3,1.5c-0.9,0-1.7-1.4-2.4-4.2
		c-0.4-1.5-0.6-2.8-0.6-4c0-1,1-1.8,3-2.3c13.2-1.6,21.7-3.5,25.5-5.5C45.7,73.2,46.8,72.6,47.2,72.6z M40,44.3
		c0.9,0.4,1.8,1.8,2.7,4.1c1.2,2.3,2.8,4.4,4.7,6.4c2.1,2.5,3.2,5.2,3.2,7.9c-0.1,1.9-1.1,2.9-3,2.9c-3-1.2-5.8-2.1-8.3-2.6
		c-2.7-0.5-4.1-2.9-4.1-7.3c0-3.7,0.6-6.7,1.7-9.1C37.9,45.3,38.9,44.5,40,44.3z M91.6,77.8c0.9,0.3,1.5,1.7,1.6,4.3
		c-0.1,2.6-1.2,4.7-3.3,6.3c-4.2,1.1-8.2,2-11.8,2.6c-0.1,6-0.2,10.6-0.2,13.9c0,1.6,0,3.2,0.1,4.5c0,0.4,0,0.7,0.1,1
		c7.3-0.6,13.9-1.1,19.9-1.6c1.2-0.3,2.5-0.4,3.9-0.4c0.6,1.6,1.3,3.1,2.1,4.6c1.2,2.3,2,4.5,2.3,6.6c-0.3,1.2-0.9,1.9-1.7,2
		c-0.4,0-2-0.5-4.7-1.4c-3-1-5.7-1.5-8.2-1.5c-5.7,0-13.4,0.4-23.1,1.1c-8.5,0.7-14.8,1.6-19,2.8c-1.3,0-2.6-3-3.9-9l2.6-0.9h3.8
		c6.1-0.6,11.8-1.1,17.2-1.5c0-0.6,0-1.2,0-1.9l0.2-17c-3.6,0.5-7.5,1.3-11.7,2.4c-0.9,0-1.7-1.6-2.4-4.8c-0.4-2.3-0.6-3.7-0.6-4.2
		c0-1.2,0.9-1.8,2.6-1.8c3.4-0.1,7.4-0.5,12.1-1.2l0.2-29.2c0-1-0.3-2-0.8-3c0-0.5,0.3-0.9,0.9-1.3c0.9-0.6,2.3-1,4.2-1
		c1.3,0,2.8,0.3,4.6,1c1.3,0.7,1.9,1.3,1.9,1.7s-0.2,1-0.5,2c-0.5,1.9-0.9,4.7-1.1,8.6c-0.2,7.4-0.4,13.9-0.5,19.6
		c2.9-0.6,5.9-1.3,9-2C89.5,78.2,90.9,77.9,91.6,77.8z"/>
	<path class="st0" d="M137.1,55c0.4,0,1.3,0.3,2.7,0.8c2-0.3,4.8-0.9,8.5-1.7c14.9-2.8,26.1-4.2,33.5-4.2c5.9,0,12.1,0.8,18.5,2.4
		c3.4,1.1,5.2,2.1,5.2,2.8c0,0.5-0.5,1.5-1.4,3c-1.3,2.3-2,6.5-2,12.6l0.3,36.6l-0.3,19.1l0.8,7.3c0,2.1-0.5,3.3-1.6,3.4
		c-1.1,0-2.9-0.6-5.5-1.8c-4.9-2.5-9.8-6.2-14.7-11.1c-3.7,0.2-7.9,0.6-12.5,1.2c-4.4,0.5-8.4,0.9-12,1.1
		c-5.1,0.3-10.4,0.8-15.9,1.6c-0.1,0-0.3,0-0.3,0c-0.6,0.3-1.3,0.4-1.9,0.4c-1.6,0-2.5-1.6-2.5-4.7c0-28.2-0.3-50-1-65.3
		C135.2,56.2,136,55,137.1,55z M143.3,120c10.5-0.9,18.9-1.6,25.2-2.1c-0.1-0.1-0.1-0.1-0.2-0.1c-0.7-0.4-2-1.5-3.8-3.4
		c-1.1-1.1-1.7-1.8-1.7-2.3c0-0.3,0.3-0.4,0.9-0.4c2,1.2,3.6,1.8,4.7,1.8c0.6,0,0.9-1,0.9-3V103c-0.6,0-1.3,0-1.8,0.1
		c-2.9,0.5-5.7,1-8.3,1.5c0.4,1.1,1,2.3,1.6,3.3c0.6,1.3,1,2.7,1.1,4.1c-0.1,1.2-0.6,1.8-1.6,1.8c-1.1-0.6-2.2-1.1-3.2-1.5
		c-1-0.2-1.5-1.4-1.5-3.7c0-1.3,0.1-2.4,0.3-3.3c-2.7,0.7-5.1,1.5-7.3,2.4c-0.5,0-1.1-0.6-1.9-1.8c-0.9-1.9-1.4-3-1.4-3.3
		c0-0.6,0.5-1,1.6-1.2c3.5-0.1,8.1-0.8,13.8-2c2.6-0.4,5.5-0.8,8.6-1.3c-0.1-1.1-0.3-2-0.6-2.8c-5.4,0.5-9.6,1.4-12.8,2.6
		c-1.9,0.9-3.1,1.3-3.8,1.4c-0.8,0-1.3-1.8-1.6-5.3c0-0.2,0.1-0.4,0.4-0.4c3.6-0.5,6.4-0.9,8.6-1.3c1-0.4,2.3-0.7,3.9-1
		c0-0.4,0.1-0.8,0.3-1.2c0.1-0.6,0.1-1.3,0.1-2c-2.5,0.5-4.1,0.9-4.7,1.3c-1.2,0.6-2.1,0.9-2.7,0.9c-1.3-0.1-2.9-2.4-4.9-6.9
		c-1.5-3.6-2.3-6-2.3-7.3c0-1.2,0.3-1.8,0.9-1.8l2,0.4c4.2-1.1,7.9-2,11.2-2.7l-0.1-3c-2.9,0.4-6,1-9.2,1.8c-1.1,0-1.7-1-1.8-2.9
		c0-1.1,0.6-1.8,1.8-2.3c3.4-0.6,6.4-1.1,9.1-1.6l-0.1-3.1c0-0.6-0.2-1.3-0.5-2c0-0.3,0.3-0.5,0.8-0.8c0.5-0.4,1.4-0.5,2.7-0.5
		c0.8,0,1.8,0.2,3.1,0.5c0.8,0.5,1.2,0.9,1.2,1.2c0,0.1-0.1,0.5-0.2,1c-0.1,0.6-0.3,1.4-0.3,2.6c6.5-1.2,10-1.9,10.4-1.9
		c0.9,0.1,1.4,1.3,1.4,3.5c0,0.9-0.8,1.4-2.3,1.6c-2.4,0.2-5.2,0.8-8.3,1.7c-0.6,0.1-1.1,0.2-1.5,0.3c-0.1,0.9-0.1,1.7-0.1,2.6
		c1.9-0.3,3.6-0.5,5-0.5c3.7-0.6,5.5-1,5.7-1c1.3,0,2.8,0.6,4.4,1.8c1.4,1.2,2.1,2.3,2.1,3.2c0,0.3-0.4,0.7-1.1,1.2
		c-0.9,0.9-2.5,3.9-4.7,9c-0.5,1.4-1,2.1-1.6,2.4c-0.7,0-1.5-0.3-2.5-0.9c-2.9,0.4-5.5,0.8-7.7,1.2v3.3c0.5-0.1,1-0.1,1.6-0.2
		c2.1-0.3,3.7-1,4.8-2c1-0.6,2-1,3-1c2.1,0,4,1,5.7,3.1c1.4,1.5,2,2.7,2,3.7c0,1.2-0.5,1.8-1.4,1.8c-2.1,0-4.2-0.4-6.4-1.1
		c-1.1-0.9-1.6-1.6-1.6-2l0.9-0.1c1.6-0.2,2.6-0.6,2.9-1.2c-0.2-1.9-0.9-2.9-2-3c-2.2,0.3-3.7,1.5-4.3,3.5c0,0.1,0,0.3,0,0.4h0.1
		c0.7,0.6,1.1,1.4,1.1,2.6v2.3c3.9-0.2,7.1-0.7,9.7-1.4c1.8-0.6,3.2-0.9,4.1-0.9c0.9,0,2,2,3.1,6c-0.1,0.8-0.7,1.2-1.7,1.2l-4.3-0.4
		c-2,0-5.6,0.3-10.8,0.8v10.1c0,1.7-0.1,3.3-0.3,4.6c5.2-0.5,8.1-0.8,8.6-0.9c1.4,0.2,2.1,1.8,2.1,4.7c0,0.8-0.3,1.4-0.8,1.8
		c3.8,1.1,6.1,1.7,6.8,1.7c0.4,0,0.8-2.3,1-7c0.2-11.1,0.3-28.6,0.3-52.4c0-6.8-2.4-10.2-7.3-10.2c-6.9,0-14.5,0.8-22.7,2.4
		c-7.5,1.5-13.8,3.1-18.7,4.7c-0.1,1.3-0.2,2.9-0.3,4.8c-0.6,15.2-1,31.3-1,48.2c0,1.1,0.1,2.6,0.3,4.6
		C143.3,119.9,143.3,119.9,143.3,120z M157.6,85.5c1.1,0,3.2-0.3,6-0.9l-0.1-2.5c-1.5,0.2-3,0.6-4.5,1.1c-0.7,0-1.2-0.8-1.4-2.5
		c0-0.9,0.5-1.5,1.4-1.8c1.6-0.3,3-0.6,4.4-0.9l-0.1-2.5c-5.2,1.4-7.7,2.6-7.7,3.8C155.7,83.5,156.4,85.5,157.6,85.5z M169.1,74.5
		c-0.1,0.9-0.1,1.8-0.1,2.5c2.6-0.5,4-0.8,4.2-0.9c0.9,0.1,1.3,1,1.3,2.5c0,0.9-0.6,1.4-1.7,1.7c-1.2,0.2-2.5,0.5-3.9,0.9
		c0,0.9,0,1.8,0,2.5c1.5-0.3,3.2-0.6,5.2-1.1c0.6-0.1,1.1-0.6,1.5-1.4c0.7-1.5,1.1-3,1.1-4.6c0-1.8-0.5-2.7-1.4-2.7
		C173.6,73.8,171.6,74,169.1,74.5z"/>
	<path class="st0" d="M243.6,73.8c1.1,0,2.1,0.6,3,1.8c1,1,2.4,1.9,4.1,2.6c1,0.6,1.5,1.6,1.5,3c0,0.7-0.4,1.4-1.2,2.1
		c-2.5,2.3-4.7,5.4-6.6,9.2c-1.6,4.2-2.5,7.8-2.5,11c0,2.7,0.4,5.1,1.2,7.2c1.1,2.1,2.7,3.1,4.7,3.1c1.1,0,2.6-1.7,4.6-5
		c3.8-6.9,6.4-13.3,7.9-19c0.6,0,0.9,0.6,0.9,1.7c0,5.2-0.7,10.2-2.1,15c-1.1,4.7-2.6,8.4-4.4,11.1c-1.5,1.9-2.7,4.1-3.7,6.6
		c-0.7,2.6-1.6,3.9-2.8,3.9c-1.7,0-3.9-1.8-6.6-5.4c-3-4.5-4.5-10.9-4.5-19.1c0-6.1,1.4-14.8,4.3-26.2
		C241.9,75,242.6,73.8,243.6,73.8z M255.3,46.7c0.4,0,0.8,1.3,1.3,3.8c0.4,2.9,0.9,5,1.4,6.3c1.4,3.8,2,6.7,2,8.8
		c0,1.1-0.3,1.8-1,2.3c-1,0.6-2.1,0.9-3.3,0.9c-2,0-4.1-0.9-6.2-2.6c-1.6-1.1-2.4-2.1-2.4-3c0-5.3,1.2-9.7,3.7-13.1
		C252.9,47.9,254.4,46.7,255.3,46.7z M306.4,49c1.7,0,3.2,2.4,4.3,7.2c0,0.7-0.6,1.2-1.8,1.4c-3.9,0-9.2,0.8-15.9,2.3
		c-1.6,0.3-3,1.1-4.4,2.5c0.4,0,0.7,0,1,0c4.1,0,6.1,0.8,6.1,2.5c0,1.4-0.4,4.9-1.1,10.3c7.6-1.1,14.4-2.1,20.5-3
		c1.2-0.5,2.6-0.8,4.2-0.8c0.6,1.6,1.3,3.1,2,4.6c1.3,2.3,2,4.5,2.3,6.6c-0.3,1.2-0.9,1.9-1.8,2c-0.4,0-2-0.5-4.7-1.4
		c-3-1-5.7-1.5-8.2-1.5c-4.1,0-9.1,0.4-15.1,1.1c-0.6,5-1.2,9.5-1.8,13.3c1.9-0.2,3.7-0.4,5.3-0.4c4.2-0.4,6.4-0.6,6.6-0.6
		c2.2,0,4.8,1,7.6,2.9c2.4,1.9,3.7,3.7,3.7,5.2c0,0.6-0.7,1.4-2,2.4c-1.6,1.5-4.6,7.2-8.8,17.1c-0.9,2.6-1.9,4-2.9,4.3
		c-1.3,0-2.7-0.5-4.3-1.4c-9.5,1-14.9,1.7-16.2,2.1c-1,0.4-1.8,0.5-2.3,0.5c-2.2-0.1-4.9-4.4-7.9-12.9c-2.5-6.7-3.8-11.3-3.8-13.8
		c0-2.1,0.6-3.1,1.8-3.1l3.3,0.5c4-0.7,7.7-1.3,11-1.7c0-0.1,0-0.1,0-0.2c0.2-2.3,0.4-6.5,0.6-12.7c-8.9,1.6-15.6,3.6-20.1,6
		c-1.4,0-2.8-3.5-4.3-10.4l2.5-0.4h4.3c6.3-0.9,12.3-1.8,17.9-2.6c0.1-4.1,0.2-7.1,0.2-8.9c0-0.7-0.1-1.3-0.2-1.8
		c-1.2,0.4-2.7,0.7-4.3,0.9c-5.2,0.9-8.8,1.4-11,1.4c-1.5,0-2.3-0.4-2.3-1.3c5.9-4.2,11.8-7.8,17.5-10.8c4.9-2.4,9.5-3.9,14-4.5
		C300.8,51.5,303.7,50.6,306.4,49z M281.4,118.6h11.3c1.6-0.2,2.8-1.2,3.7-2.9c1.5-3.1,2.3-6.3,2.3-9.6c0-2.6-0.8-4-2.5-4
		c-2.4,0-5.6,0.4-9.6,1.2c-5.1,1-7.6,1.9-7.6,2.8C279,114.5,279.9,118.6,281.4,118.6z"/>
	<path class="st0" d="M385.4,49.4c1.3,0,2.3,1.7,3.1,5.2c0,0.6-0.3,1-0.9,1.2c-3.7,0-8.6,0.7-14.7,2.1c-1.2,0.2-2.4,0.8-3.4,1.8
		c0.4,0,0.9,0,1.4,0c2.3,0,3.4,0.5,3.4,1.6v5.5c0.4-0.1,0.9-0.2,1.3-0.3c4.2-0.2,7.7-0.8,10.6-1.8c1.9-0.7,3.3-1.1,4.3-1.1
		c1.1,0,2.5,2.7,4,8.2c-0.1,0.6-0.9,0.9-2.1,0.9l-5.7-0.4c-2.1,0-6.3,0.3-12.4,1v4.1c1.7-0.3,3.3-0.5,4.7-0.5
		c4.1-0.8,6.2-1.2,6.3-1.2c1.4,0,3,0.8,4.7,2.3c1.5,1.4,2.3,2.7,2.3,3.9c0,0.4-0.4,0.9-1.2,1.6c-0.9,1.2-2.4,5.4-4.6,12.7
		c-0.5,2-1,3.1-1.5,3.3c-0.9,0-1.9-0.3-3.1-1c-2.9,0.5-5.5,0.9-7.6,1.2v4.9c5.7-1.1,8.7-1.8,9-1.8c1.1,0.1,1.7,1.3,1.7,3.5
		c0,1.1-0.9,1.8-2.7,2.1c-2.2,0.3-4.8,0.9-7.6,1.9c-0.1,0.1-0.3,0.1-0.4,0.1v5.3c3.8-1,8.1-2.2,12.9-3.5c0.6,0,0.9,1.4,0.9,4.3
		c0,0.6-0.8,1-2.3,1.4c-6.7,3.2-12.2,5.3-16.8,6.1c-4,0.7-8.9,2.4-14.6,5c-0.9,0-1.8-1-2.6-2.9c-0.5-1.4-0.8-2.7-0.8-4
		c0-0.9,0.6-1.4,1.7-1.4c2-0.2,6.7-1.3,14.1-3.1V112c-2.6,0.5-5.3,1.3-8.2,2.4c-1.2,0-1.9-1.4-2-4.3c0-1.2,0.7-2.1,2-2.7
		c3-0.6,5.7-1.1,8.2-1.5v-5c-2.1,0.4-3.4,0.8-4,1.1c-1.3,0.5-2.2,0.8-2.8,0.8c-1.8-0.1-4-3.1-6.6-9.1c-1.9-4.7-2.9-8-2.9-9.8
		c0-1.6,0.4-2.5,1.3-2.5l2.5,0.4c4.7-1.3,8.9-2.3,12.5-3.1V74c-7.1,1.3-13.3,3.2-18.5,5.8c-0.6,0-1.6-0.8-2.8-2.4
		c-1.3-2.3-1.9-3.6-1.9-4c0-0.9,0.8-1.4,2.3-1.7c3.7-0.1,8.6-1,14.5-2.6c2-0.4,4.2-0.7,6.4-1.1v-5.5c-1.5,1-3.5,1.6-6.1,1.8
		c-4.8,0.8-8.2,1.2-10.1,1.2c-0.9,0-1.4-0.3-1.4-0.9c5.4-3.6,10.7-6.7,15.9-9.2c4.3-2,8.4-3.3,12.5-3.9
		C380.3,51.5,382.9,50.7,385.4,49.4z M362.2,96.3c0.9,0,2.5-0.2,4.7-0.5v-4.2c-1.1,0.2-2.2,0.5-3.4,0.9c-0.7,0-1.1-1-1.3-3.1
		c0-0.8,0.6-1.3,1.7-1.6s2.1-0.5,3-0.8v-3.7c-5.2,1.4-7.7,2.8-7.7,4C359.4,93.3,360.4,96.3,362.2,96.3z M374.3,81.8v3.7
		c2.1-0.5,3.2-0.8,3.3-0.9c0.9,0.1,1.4,1.3,1.4,3.4c0,0.9-0.8,1.5-2.3,1.8c-0.8,0.1-1.6,0.2-2.5,0.4v4.4c1.6-0.3,3.3-0.6,5.2-1.1
		c0.6-0.1,1-0.8,1.3-2c0.5-2.4,0.8-4.8,0.8-7.4c0-1.9-0.4-2.9-1.2-2.9C378.6,81.2,376.6,81.4,374.3,81.8z M425,70.4
		c1.4,0,3.5,0.7,6.3,2.1c3.4,1.4,5.2,2.6,5.2,3.5c0,0.4-0.4,0.9-1.1,1.4c-1.9,2.4-3.3,5.2-4.2,8.3c-1.6,6.8-2.9,12.8-4.1,18
		c-1,7.4-3,14-6,19.7c-1.4,2.1-2.4,4-2.9,5.5c-0.1,0.8-0.8,1.2-1.8,1.2c-0.6,0-1.8-0.7-3.7-2.1c-2.2-2.2-4.2-4-5.9-5.3
		c-2.7-1.8-5-4.7-6.9-8.8c0-0.6,0.5-0.9,1.4-0.9c5,2.2,8.3,3.3,9.9,3.3c2.1,0,4.2-3.9,6.1-11.6c2.1-9.3,3.5-17.6,4.2-24.9
		c0-1.6-0.6-2.5-1.7-2.5c-2.3,0.1-5.1,0.5-8.5,1.2c-1.1,5.2-2.4,10.4-4.1,15.5c-3.2,8.6-6.1,14.9-8.7,19l0.3,2.4
		c-2.9,5-5.8,8.6-8.7,10.7c-2.7,1.3-5.2,1.9-7.3,1.9c-1.7,0-2.6-0.3-2.6-0.9c0-0.8,1-1.9,3-3.4c6.9-7.2,12.2-16.5,15.8-27.8
		c1.3-4.6,2.5-9.7,3.7-15.5c-0.7,0.2-1.5,0.4-2.3,0.5c-2.4,1-3.8,1.5-4.4,1.5c-1.4,0-2.5-1.4-3.3-4.3c0-0.7,0.6-1.3,1.7-1.7
		c3.4-0.9,6.6-1.7,9.6-2.4c0.5-2.8,1-5.7,1.5-8.6c1.2-8.7,1.8-14.3,1.8-16.5c0-1.5,0.8-2.3,2.5-2.3c0.2,0,1.7,0.4,4.5,1.3
		c2.1,0.5,3.2,1.5,3.2,3c-1.6,2.7-3,7.8-4.3,15.4c-0.2,1.9-0.5,3.9-0.8,5.9c2.2-0.5,4.1-0.9,5.7-1.2C421.5,70.6,423.8,70.4,425,70.4
		z"/>
	<path class="st0" d="M47.6,186.5c0.6,0,1,0.3,1,1c0,0.2-0.5,0.9-1.6,2.1c-4.7,5.2-9.1,9.5-13.3,13c-1.5,1.1-2.8,2.6-4,4.3
		c-0.5,1-1,1.5-1.4,1.5c-0.6,0-2-0.9-4.2-2.6c-2-1.9-3-3.3-3-4.2c0-0.4,0.3-1,0.9-1.8c5.8-2.9,10.3-5.3,13.6-7.3
		c4.2-2.5,7.4-4.2,9.7-5C46.7,186.8,47.5,186.5,47.6,186.5z M61.9,157.7c0.6,0,1.8,0.9,3.4,2.7c1.7,2,2.6,3.4,2.6,4.3
		c0,0.4-0.2,0.6-0.6,0.9c-0.9,0.7-2.4,2.6-4.5,5.6c-0.6,0.9-1.3,1.7-2,2.6c1.1-0.4,2.3-0.8,3.3-1.4c3.5-1.4,7.4-2,11.6-2
		c4.4,0.2,8,1.5,10.7,3.8c5.2,4.8,7.7,7.7,7.7,8.7c0,0.6-0.6,1-1.8,1.3c-1.4,0.3-3.2,0.7-5.3,1.3c-1.3,0.5-2.7,0.8-4.1,0.8
		c-6.1,0-9.1-0.5-9.1-1.6c0-0.3,0.9-0.8,2.7-1.4c4.1-1.6,6.2-3.8,6.4-6.4c-0.4-1.6-2.3-2.5-5.6-2.5c-1.4,0.1-3.8,0.6-7.2,1.6
		c-1.1,0.4-2.3,0.8-3.5,1.2c0.4,0.2,0.9,0.5,1.4,0.8c1.6,1,2.4,1.8,2.4,2.4c0,0.4-0.6,1-1.9,1.7c-0.9,0.6-1.8,2-2.6,4
		c1.7,1.5,5.1,3.7,10.2,6.6c7.2,4,12.8,6.7,16.8,7.9c2.9,0.7,5.3,1.6,7.3,2.7c1.6,1,2.5,1.9,2.5,2.6c-0.1,0.6-0.8,0.9-2,0.9
		c-6.5,0-12.1-0.3-16.8-0.8c-2.7-0.4-4.1-1-4.3-1.9c0-1.3-0.5-2.2-1.4-2.8c-3.6-2.8-8.6-5.4-15.1-7.9c-0.3-0.1-0.5-0.1-0.6-0.2
		c-2.1,3-4.5,5.5-7.3,7.4c-3,1.9-6.6,3.6-10.6,4.9c1.7-0.4,3.9-0.8,6.4-1.3c6.2-1.1,11.4-1.7,15.8-1.7c1.4,0.2,4,1,7.8,2.5
		c3.3,1.4,4.9,2.5,4.9,3.4c0,0.4-0.4,1.1-1.2,2.3c-0.8,2.1-1.4,10.3-1.7,24.5c0,2.8-2.3,4.8-7,5.9c-1.4,0-2-0.7-2-2
		c0-1.2,0-2.3,0.1-3.3c-2.1,0.1-4.3,0.4-6.7,0.9c-0.7,0.1-1.4,0.1-2.1,0.2c0.1,0.2,0.1,0.4,0.1,0.4c-2.6,3.4-6.1,6.8-10.5,10.4
		c-1.6,1.4-3,3.8-4.2,7.1c-3.5,1.6-6.9,2.4-10.3,2.4c-3.7-0.3-5.6-1-5.6-2.3c0-0.5,0.9-1.2,2.7-2c4.6-1.9,8.6-4.4,12.1-7.7
		c2.6-2.5,4.8-4.9,6.3-7.2c-1.1,0.1-2.3,0.3-3.4,0.4c-0.2,0.3-0.5,0.5-0.8,0.8c-0.9,1.1-2,1.6-3.2,1.6c-1.4,0-2-1.4-2-4.3v-28.3
		c0.1-0.6,0.1-1,0.2-1.4c-1.2,0.4-2.4,0.7-3.7,1c-0.6,0-0.9-0.3-0.9-0.9c10.5-6,17.4-11.9,20.5-17.5c2.2-3.5,3.6-6.6,4.1-9.3
		c-1,0.4-2,0.9-3.1,1.4c-0.5,0-1.1-0.6-1.8-1.8c-1.7,1.4-3.6,2.7-5.6,4.1c-2.7,1.6-4.4,2.5-5,2.5c-1.8,0-2.7-0.4-2.7-1.2
		c2.1-2.6,4.4-5,6.9-7.1c3.9-4.2,7.3-9.6,10-16.1C60.1,158.9,61.1,157.7,61.9,157.7z M32.6,166.8c0.9,0.4,1.8,1.4,2.8,3
		c1.1,1.6,2.6,3.2,4.5,4.7c1.9,1.7,2.9,3.6,3,5.6c-0.1,1.5-1,2.3-2.5,2.3c-2.7-0.9-5.3-1.6-7.6-1.9c-2.4-0.3-3.7-2-3.7-5
		c0-2.7,0.5-4.9,1.4-6.7C31.3,167.5,31.9,166.9,32.6,166.8z M46.7,232.2c10.7-1.4,17.7-2.3,21.1-2.7c0.1-6.2,0.1-12.1,0.2-17.5
		c0-3.4-1.3-5.2-3.9-5.2c-5.2,0-10.3,0.7-15.1,2c-0.4,0.1-0.6,0.1-0.9,0.2c-0.1,0.6-0.2,1.2-0.4,1.9c-0.1,0.5-0.3,1-0.3,1.6
		c9.6-1,14.6-1.5,15-1.5c0.9,0.1,1.3,1.3,1.3,3.4c0,0.9-0.8,1.4-2.3,1.7c-1.5,0.1-3.3,0.5-5.4,1c-1.6,0.4-3.2,0.6-4.7,0.8
		c-1.4,0.1-2.9,0.4-4.5,0.9c-0.1,1.2-0.2,2.4-0.2,3.7c10.1-1.3,15.4-1.9,15.8-1.9c0.9,0.1,1.3,1.3,1.3,3.4c0,0.9-0.8,1.4-2.3,1.7
		c-1.6,0.1-3.4,0.5-5.5,1.1c-1.7,0.4-3.3,0.7-4.8,0.9c-1.5,0.3-3.1,0.6-4.7,1C46.4,229.6,46.5,230.7,46.7,232.2z M60.5,239.5
		c7.2,1.7,13.5,3.4,18.9,5.2c1.6,0.6,2.5,1.4,2.7,2.1c0,1.9-0.4,4.8-1.1,8.7c-0.5,2.1-1.2,3.2-2,3.2c-0.5,0-1.2-0.5-2-1.6
		c-3.3-4.5-8.5-9.4-15.6-14.6c-1.1-0.8-1.6-1.4-1.6-1.8C59.8,239.9,60,239.5,60.5,239.5z"/>
	<path class="st0" d="M158.6,185.7c0.9,0,1.3,1.6,1.3,4.7c0,0.7-0.9,1.3-2.7,1.8c-6.9,2.3-12.6,3.8-17.3,4.5
		c-4.1,0.5-9.1,1.7-14.9,3.5c-0.9,0-1.8-1-2.6-2.9c-0.5-1.6-0.8-3-0.8-4.3c0-0.9,0.6-1.3,1.7-1.3
		C126.9,191.5,138.6,189.5,158.6,185.7z M129.7,224.4l2.7,0.4c6.9-2.1,12.1-3.3,15.6-3.5c2.6-0.5,4-0.8,4.1-0.8
		c1.3,0,2.8,0.7,4.4,2.1c1.4,1.4,2.1,2.7,2.1,3.8c0,0.4-0.4,0.9-1.1,1.6c-0.7,1-2,4.7-4,11.1c-0.5,1.7-1,2.7-1.5,2.9
		c-0.7,0-1.5-0.5-2.5-1.4c-6.6,1.3-10.3,2.3-11.3,2.9c-0.7,0.4-1.3,0.6-1.6,0.6c-1.6-0.1-3.4-2.9-5.6-8.4c-1.8-4.3-2.7-7.3-2.7-8.9
		C128.4,225.3,128.8,224.4,129.7,224.4z M153.4,198.2c1.1,0.1,1.7,1.4,1.7,3.9c0,1.1-0.9,1.8-2.7,2c-1.8,0.3-3.9,0.9-6.3,1.8
		c-2,0.6-3.8,1-5.5,1.3c-2.4,0.4-4.9,1-7.5,2c-1.2,0-1.9-1.4-2-4.2c0-1.3,0.7-2.1,2-2.6C146.1,199.7,152.9,198.3,153.4,198.2z
		 M153.9,209.3c1.1,0.3,1.7,1.6,1.7,3.9c0,1.1-0.9,1.9-2.7,2.3c-1.9,0.2-4,0.8-6.4,1.6c-2.1,0.6-4,1.1-5.7,1.4
		c-2.4,0.4-5,1.1-7.6,2.1c-1.2,0-1.9-1.4-2-4.3c0-1.2,0.7-2.1,2-2.7C146.4,210.9,153.3,209.5,153.9,209.3z M138.7,236.8
		c1.1,0,3.8-0.4,8.2-1.3c0.5-0.1,0.9-0.5,1.1-1.4c0.4-1.6,0.6-3.3,0.6-4.9c0-2-0.4-3-1.3-3c-1.4,0-3.3,0.4-5.7,1.2
		c-3,1.1-4.5,2.1-4.5,3.1C137.2,234.7,137.7,236.8,138.7,236.8z M144.8,166.8c1.1,0.2,1.8,1.3,2,3.1c0.3,3,1.1,5.3,2.4,7
		c1.1,1.4,1.6,3,1.6,4.9c0,1.8-1.3,2.7-4,2.7c-2.1,0-4.5-1-7.2-3c-1.5-1.1-2.3-2.4-2.3-3.9s1.1-3.8,3.2-7
		C142.2,168,143.6,166.8,144.8,166.8z M191.7,177.6c2.3,0,6,0.9,11.1,2.8c2.4,0.7,3.5,1.6,3.5,2.8c0,0.3-0.8,1.2-2.4,2.7
		c-3.1,2.7-5.4,6.4-7,11.4c-1.5,7.3-2.3,14.9-2.3,22.9c0.1,5.7,1.8,10.4,4.8,14c3.2,3.3,5.8,4.9,7.9,4.9c1.6,0,2.5-1.3,2.7-3.9
		c0-6.2,0.1-13.6,0.4-22.5c0-0.4,0.3-0.7,0.9-0.8c4.7,10.2,7.3,19.5,7.7,27.7c0.1,2.9,0.4,6,0.9,9.2c0,1.1-0.3,1.6-0.9,1.6
		c-2.1,0-5.3-0.9-9.3-2.6c-6.2-2.8-11.2-6.4-14.9-10.8c-3.8-4.7-5.9-10.3-6.3-17c0-3.7,0.1-12.7,0.4-27.1c-0.2-4.7-1.9-7-5.2-7
		c-2.7,0.3-5.6,0.9-8.7,1.7c0.2,0.1,0.4,0.1,0.5,0.2c2.6,1.4,3.9,2.5,3.9,3.3c0,0.3-0.3,0.7-1,1.2c-0.6,0.5-1.3,1.6-1.9,3.3
		c-0.5,2.3-0.9,6.2-1.2,11.6c1.7-0.4,3.5-0.9,5.5-1.4c1.5-0.5,2.5-0.8,2.9-1c0.8,0.2,1.2,1.3,1.3,3.3c-0.1,1.9-0.9,3.5-2.5,4.7
		c-2.7,0.9-5.2,1.6-7.5,2c-0.1,1.3-0.1,2.7-0.1,4.1c0,12.8,0.4,21.4,1.1,25.7c0,1.8-0.7,2.7-2,2.7c-0.3,0-1.5-0.5-3.8-1.6
		c-2.1-0.7-3.1-1.8-3.1-3.1c0-0.2,0.5-1.2,1.4-3c0.1-2.2,0.2-10.1,0.2-23.6c-2.6,0.4-5.4,1.1-8.5,2c-0.6,0-1.2-1.2-1.7-3.5
		c-0.3-1.8-0.4-2.9-0.4-3.2c0-0.9,0.6-1.3,1.7-1.3c2.4-0.1,5.4-0.5,8.9-1.3c0.1-3.9,0.1-8.2,0.1-12.9l-0.6-6.1
		c-0.6,0.2-1.2,0.4-1.8,0.5c-1.7,0.9-2.8,1.3-3.1,1.3c-1.1,0-1.7-1.8-1.8-5.3c0-1.6,1.3-2.5,3.9-2.9c2.9-0.4,7.3-1.4,13.1-3.1
		C184.4,178.8,188.8,177.8,191.7,177.6z"/>
	<path class="st0" d="M262.9,226.5c1.2,0,1.8,0.3,1.8,0.9c0,1.2-0.5,2.3-1.5,3.2c-4.6,7.3-7.7,12.5-9.2,15.6
		c-0.6,1.6-1.2,2.4-1.8,2.4c-1.1,0-2.6-1-4.4-2.9c-2.2-2.9-3.3-5-3.3-6.1c0-1,1-1.7,3-2.1C253.1,233.3,258.2,229.7,262.9,226.5z
		 M299.9,163.3c1.8,0,3.2,2.5,4.3,7.4c0,0.6-0.5,1-1.6,1.2c-5.2,0-12.1,0.9-20.5,2.6c-0.6,0.1-1.2,0.2-1.7,0.4
		c0.4,0.3,1,0.7,1.6,1.3c1.1,2.4,1.7,4.2,1.7,5.2c0,0.7-0.6,1.3-1.8,1.7c-3.6,2-7.5,4.9-11.8,8.7c-1.6,1.2-2.5,1.9-2.8,2
		c0,0.6,0.5,0.9,1.4,0.9s3.4-0.1,7.6-0.4c2.4-0.1,4.3-0.1,5.7-0.2c6.6-6.2,9.9-9.7,9.9-10.5c0-0.5,1.4-0.8,4.3-0.8
		c1.2,0,2.9,0.5,5,1.6c3.2,2.1,4.8,3.6,4.8,4.4c-6.7,1.9-12.4,5-17.1,9.2c-5.6,4.4-12.8,9.2-21.7,14.4c0,0.8,0.5,1.2,1.4,1.2
		c12.2-1.5,19.3-2.8,21.4-3.8c2.6-3.4,5.1-5.1,7.4-5.3c3.6,0,6.6,1.7,8.9,5c2.6,4,4,7.7,4,11c-0.1,1.1-1,1.6-2.7,1.6
		c-1.4,0-3.6-0.6-6.7-1.8c-2.8-0.9-4.3-1.8-4.4-2.5c0.2-0.4,0.9-0.9,1.9-1.5c2.7-1.9,4.1-3.6,4.1-5.3c0-1.6-1.2-2.5-3.5-2.7
		c-1.2,0-2.4,0.5-3.4,1.4c-1.4,1.1-2,1.9-2,2.6c0.1,1.3,0.3,2.4,0.8,3.4c-0.1,0.6-0.6,1-1.6,1.2c-2.2,0-5.2,0.3-9,0.9
		c0.2,0.1,0.4,0.3,0.5,0.3c1,0.9,1.5,2.3,1.5,4V241c0,4-0.2,7.4-0.5,10.2c-0.6,2.4-1.4,3.5-2.4,3.5c-0.5,0-1.7-0.5-3.7-1.4
		c-2-1.1-3.9-2-5.7-2.5c-1.6-0.6-4.3-2.3-8.1-5.3c-2.5-1.6-3.8-2.7-3.8-3.2c0-0.9,0.4-1.4,1.3-1.4c5.1,0.9,9,1.4,11.7,1.4
		c1.7,0,2.6-1.9,2.6-5.7v-9.5c0-2.6-0.7-4.8-2.1-6.4c-0.6-0.4-1-0.8-1.2-1.2c-7.9,1.6-13.4,3-16.3,4c-1.4,0.8-2.6,1.2-3.7,1.2
		c-0.5,0-1.5-2.9-2.9-8.6c0-1,0.5-1.8,1.6-2.3c6.1-1.1,11.4-3.7,16-7.8c2-1.9,3.9-3.5,5.6-5c-1.6,0.2-3.1,0.4-4.3,0.5
		c-3.2,0.5-5.7,1-7.5,1.4c-1.9,0.4-3.3,0.6-4.2,0.6c-1.1,0-1.9-0.5-2.6-1.6c-1.1-2.1-1.7-3.7-1.7-4.7c0.2-0.6,1.1-1.3,2.7-2.3
		c2.2-0.7,5.2-3.2,9-7.4c2.5-2.4,4.7-4.7,6.4-6.9c-1.9,0.9-4.4,1.5-7.3,1.6c-6.7,1.1-11.4,1.6-14.2,1.6c-1.5,0-2.3-0.4-2.3-1.3
		c7.7-4.5,15.3-8.4,22.6-11.6c6.2-2.6,12.2-4.2,17.9-4.8C292.7,166,296.4,165,299.9,163.3z M297,225.3c0.7,0,4.2,1.2,10.5,3.5
		c2.1,1,3.8,1.6,5,1.9c0.7,0.6,1.1,2.9,1.1,7c0,1.9-0.6,4.2-1.9,6.9c-1.1,2.3-2.1,3.4-3.2,3.4c-0.8,0-1.6-1-2.5-3.1
		c-2.9-5.9-6-11-9.5-15.5c-1.1-1.1-1.7-2-1.8-2.6C294.7,225.8,295.4,225.3,297,225.3z"/>
	<path class="st0" d="M354.9,223c0.4,0.2,0.5,0.5,0.5,1c0,0.2-0.1,0.7-0.2,1.4c-1.1,5.3-1.6,9.8-1.6,13.6c0,0.8-0.4,1.2-1.2,1.2
		c-1.6,0-3.6-0.6-5.8-1.8c-1.6-1.1-2.5-1.9-2.5-2.5c0-0.9,3.1-4.7,9.2-11.6C354,223.5,354.5,223,354.9,223z M369.6,169.4
		c0.7,0,1.8,0.5,3.1,1.6c1.6,1.3,2.5,2.2,2.5,2.7c0,0.9-0.5,1.7-1.6,2.6c-3.7,3.6-7.8,9.8-12.6,18.8c0,0.3,0.1,0.4,0.4,0.4
		c0.6,0,3.2-0.2,7.7-0.5c3.5-4.7,5.3-7.4,5.3-8.2c0-0.5,0.8-0.8,2.4-0.8c1,0,2.3,0.4,3.8,1.3c0.6,0.4,1.2,0.8,1.6,1.1
		c0.3-0.1,0.5-0.1,0.8-0.1c3.4-0.1,7.7-0.8,13-2c4.2-0.6,8.7-1.3,13.8-2c3.8-0.2,7-0.7,9.7-1.5c1.6-0.6,2.9-1,3.9-1
		c1.3,0,2.7,2.7,4.3,8.2c-0.1,0.9-0.8,1.4-2,1.4l-5.6-0.5c-2.4,0-7.4,0.3-14.9,0.9c0.8,0.6,1.2,1,1.2,1.4c-1.9,1-3.4,2.6-4.7,4.8
		c-1.6,2.4-3.6,4.9-6.1,7.6c0,0.6,0.3,0.9,0.9,0.9c6.1-0.7,9.7-1.3,10.8-1.8c2.4-3.3,4.5-5,6.3-5.2c2.8,0,5.1,1.3,6.9,4
		c2,3.1,3,5.9,3,8.6c-0.1,0.5-0.5,0.8-1.2,0.8c-1.3,0-3.4-0.5-6.2-1.5c-2.6-0.7-3.9-1.4-4.1-1.9c0.3-0.2,1-0.5,2.3-0.8
		c3-0.9,4.5-1.8,4.5-2.6c0-2.1-1.1-3.3-3.3-3.4c-1.2,0-2.3,0.5-3.2,1.4c-1.4,1.2-2,2.2-2,2.9c0.1,1.2,0.3,2.4,0.5,3.4
		c-0.1,0.6-0.4,1.1-1,1.3c-1.9,0-5,0.4-9.1,1.3c-0.1,1.1-0.5,2.6-1.2,4.4c-1.2,4.3-3,8.5-5.5,12.6c-1.2,2-2.1,4.6-2.7,7.7
		c-0.6,3-2.3,4.9-5.2,5.8c-5,2.3-9.6,3.4-13.8,3.4c-1.9,0-2.9-0.3-2.9-1s1-1.6,2.9-2.8c7.9-5.2,13.3-10.1,16.1-14.5
		c2.4-4.2,4.1-8.8,5-13.8c-2.1,0.6-3.7,1.1-4.7,1.5c-0.9,0.5-1.6,0.8-2.3,0.8c-0.5,0-1.5-2.6-2.9-7.7c0-1,0.6-1.7,1.7-2
		c1.9-0.7,3.6-2.3,4.9-4.7c2.7-4.4,4.7-7.8,5.9-10c-4.2,0.6-8,1.3-11.3,2.1c-0.5,0-1.2-0.6-2-1.8c-0.3-0.4-0.5-0.8-0.6-1.2
		c-2.8,1.6-5.2,3.9-7.3,6.9c-3,3.9-7,8.1-12,12.6c0,0.6,0.3,0.9,0.9,0.9c2.4-0.4,3.9-0.6,4.3-0.9c2.8-3,5.4-4.6,7.8-4.7
		c2.3,0,4.2,1.2,5.6,3.7c1.7,2.9,2.6,5.6,2.6,7.8c-0.1,0.9-0.8,1.4-1.8,1.4c-1.1,0-3-0.5-5.7-1.6c-2.4-0.7-3.6-1.3-3.8-1.8
		c0.2-0.3,0.9-0.6,1.9-1.1c2.5-1.3,3.8-2.5,3.8-3.7c0-1.4-0.5-2.2-1.4-2.3c-1.3,0-2.5,0.5-3.8,1.5c-1.4,1.2-2.1,2.1-2.1,2.8
		c0,1.1,0.1,2.2,0.4,3.1c-0.1,0.6-0.4,1-0.9,1.2c-1.7,0-4.5,0.5-8.4,1.5c-3.5,0.9-5.9,1.6-7.3,2.1c-0.6,0.4-1.1,0.6-1.6,0.6
		c-0.4,0-1.3-2.4-2.5-7.2c0-1.1,0.4-1.8,1.3-2.1c3.4-1,6.5-3.2,9.1-6.7c1.9-2.5,3.6-4.8,5.2-6.8c-5.9,2.1-10.1,4-12.8,5.5
		c-1.4,0.7-2.4,1.1-2.8,1.1c-1.7,0-2.6-2.4-2.6-7.3c0-0.8,0.5-1.2,1.6-1.3c2.3-0.6,4.2-2.1,5.6-4.3l12.5-21.9
		C368.3,169.9,368.9,169.4,369.6,169.4z M363.9,220.6c0.5,0.1,0.8,0.5,1,1.2c0.3,3.2,1,5.8,2.1,7.6c1.1,1.4,1.6,3.2,1.6,5.4
		c0,0.5-0.6,0.8-1.7,0.8c-1.2,0-2.8-0.4-4.6-1.2c-0.9-0.5-1.3-1.1-1.3-1.7c0-1.6,0.4-4.2,1.2-7.7C362.8,222,363.4,220.6,363.9,220.6
		z M375.6,218.3c0.4,0.1,0.6,0.5,0.8,1.4c0.3,3,1.1,5.3,2.6,7c1.1,1.4,1.7,3,1.7,4.9c0,0.9-0.5,1.4-1.6,1.4c-1.5,0-3.3-0.5-5.4-1.5
		c-1.1-0.6-1.6-1.2-1.6-1.9c0-1.6,0.5-4,1.6-7.2C374.4,219.7,375,218.3,375.6,218.3z M403.5,163.3c0.9,0.1,1.4,0.9,1.6,2.3
		c0.4,3.6,1.2,6.4,2.6,8.5c1.1,1.6,1.7,3.6,1.7,6c0,1.1-1,1.7-2.9,1.7s-4.1-0.8-6.8-2.4c-1.2-0.9-1.8-1.9-1.8-3.2
		c0-1.7,0.8-4.5,2.3-8.3C401.5,164.9,402.6,163.3,403.5,163.3z M406.5,215c2,0,4,0.4,6,1.3c1.1,0.5,1.6,1.2,1.6,2
		c0,0.4-0.4,0.7-1.1,1.1c-1.1,0.9-1.8,2.1-2.3,3.4c-0.9,2.1-1.4,4.7-1.4,7.6c0,3.6,0.7,6.4,2,8.5c1.4,2.4,3.7,3.5,6.8,3.5
		c3.6,0,6.1-1.2,7.4-3.7c1-2.1,1.8-7.4,2.3-15.8c0.1-0.6,0.3-0.9,0.5-0.9c0.8,0,1.6,1.4,2.6,4.1c0.9,1.4,1.7,3.4,2.6,6.1
		c-0.2,3.4,0.3,6.3,1.6,8.7c0.9,2.6,1.3,4.5,1.3,5.7c0,0.4-0.9,0.7-2.8,1.1c-2.7,0.4-7.8,0.6-15.5,0.6c-3.8,0-6.7-0.6-8.8-1.9
		c-1.6-0.8-3.1-2.7-4.5-5.6c-1.2-3.3-1.8-6.8-1.8-10.5c0-2.1,0.2-4.3,0.5-6.7c0.4-2.4,0.6-4.6,0.6-6.8
		C404.5,215.7,405.2,215,406.5,215z"/>
</g>
</svg>
