<?xml version="1.0" encoding="utf-8"?>
<!-- Generator: Adobe Illustrator 23.0.3, SVG Export Plug-In . SVG Version: 6.00 Build 0)  -->
<svg version="1.1" id="圖層_1" xmlns="http://www.w3.org/2000/svg" xmlns:xlink="http://www.w3.org/1999/xlink" x="0px" y="0px"
	 viewBox="0 0 240 240" style="enable-background:new 0 0 240 240;" xml:space="preserve">
<style type="text/css">
	.st0{fill:#00357E;}
</style>
<path class="st0" d="M120,240C53.8,240,0,186.2,0,120C0,53.8,53.8,0,120,0c66.2,0,120,53.8,120,120C240,186.2,186.2,240,120,240
	 M120,1.5C54.7,1.5,1.5,54.7,1.5,120c0,65.3,53.2,118.5,118.5,118.5S238.5,185.3,238.5,120C238.5,54.7,185.3,1.5,120,1.5"/>
<path class="st0" d="M202.3,119.4c0,1.4-1.2,2.6-2.6,2.6c-1.4,0-2.6-1.2-2.6-2.6c0-1.4,1.2-2.6,2.6-2.6
	C201.2,116.8,202.3,118,202.3,119.4"/>
<path class="st0" d="M199.7,122.5c-1.7,0-3-1.4-3-3c0-1.7,1.4-3,3-3c1.7,0,3,1.4,3,3C202.8,121.1,201.4,122.5,199.7,122.5
	 M199.7,117.3c-1.2,0-2.1,1-2.1,2.1c0,1.2,1,2.1,2.1,2.1c1.2,0,2.1-1,2.1-2.1C201.9,118.2,200.9,117.3,199.7,117.3"/>
<path class="st0" d="M225,125.6c0,1.4-1.2,2.6-2.6,2.6c-1.4,0-2.6-1.2-2.6-2.6c0-1.4,1.2-2.6,2.6-2.6C223.9,123,225,124.2,225,125.6
	"/>
<path class="st0" d="M222.4,128.6c-1.7,0-3-1.4-3-3c0-1.7,1.4-3,3-3c1.7,0,3,1.4,3,3C225.5,127.3,224.1,128.6,222.4,128.6
	 M222.4,123.5c-1.2,0-2.1,0.9-2.1,2.1c0,1.2,1,2.1,2.1,2.1c1.2,0,2.1-0.9,2.1-2.1C224.6,124.4,223.6,123.5,222.4,123.5"/>
<path class="st0" d="M228.2,133.2c0,1.4-1.2,2.6-2.6,2.6c-1.4,0-2.6-1.2-2.6-2.6c0-1.4,1.2-2.6,2.6-2.6
	C227.1,130.6,228.2,131.8,228.2,133.2"/>
<path class="st0" d="M225.7,136.3c-1.7,0-3.1-1.4-3.1-3c0-1.7,1.4-3.1,3.1-3.1c1.7,0,3,1.4,3,3.1
	C228.7,134.9,227.3,136.3,225.7,136.3 M225.7,131.1c-1.2,0-2.1,1-2.1,2.1c0,1.2,1,2.1,2.1,2.1c1.2,0,2.1-1,2.1-2.1
	C227.8,132,226.8,131.1,225.7,131.1"/>
<path class="st0" d="M223.1,140.4c0,1.4-1.2,2.6-2.6,2.6c-1.4,0-2.6-1.1-2.6-2.6c0-1.4,1.2-2.6,2.6-2.6
	C221.9,137.9,223.1,139,223.1,140.4"/>
<path class="st0" d="M220.5,143.5c-1.7,0-3-1.4-3-3c0-1.7,1.4-3,3-3s3,1.4,3,3C223.5,142.1,222.2,143.5,220.5,143.5 M220.5,138.3
	c-1.2,0-2.1,1-2.1,2.1c0,1.2,0.9,2.1,2.1,2.1c1.2,0,2.1-0.9,2.1-2.1C222.6,139.3,221.7,138.3,220.5,138.3"/>
<path class="st0" d="M204.2,146.2c0,1.4-1.2,2.6-2.6,2.6c-1.4,0-2.6-1.2-2.6-2.6c0-1.4,1.2-2.6,2.6-2.6
	C203.1,143.7,204.2,144.8,204.2,146.2"/>
<path class="st0" d="M201.7,149.3c-1.7,0-3-1.4-3-3c0-1.7,1.4-3,3-3s3,1.4,3,3C204.7,147.9,203.3,149.3,201.7,149.3 M201.7,144.1
	c-1.2,0-2.1,1-2.1,2.1c0,1.2,1,2.1,2.1,2.1c1.2,0,2.1-1,2.1-2.1C203.8,145.1,202.8,144.1,201.7,144.1"/>
<path class="st0" d="M182.6,146.2c0,1.4-1.2,2.6-2.6,2.6c-1.4,0-2.6-1.2-2.6-2.6c0-1.4,1.2-2.6,2.6-2.6
	C181.5,143.7,182.6,144.8,182.6,146.2"/>
<path class="st0" d="M180,149.3c-1.7,0-3-1.4-3-3c0-1.7,1.4-3,3-3c1.7,0,3,1.4,3,3C183.1,147.9,181.7,149.3,180,149.3 M180,144.1
	c-1.2,0-2.1,1-2.1,2.1c0,1.2,1,2.1,2.1,2.1c1.2,0,2.1-1,2.1-2.1C182.2,145.1,181.2,144.1,180,144.1"/>
<path class="st0" d="M95.4,120.7c0,1.4-1.2,2.6-2.6,2.6c-1.4,0-2.6-1.1-2.6-2.6s1.2-2.6,2.6-2.6C94.3,118.1,95.4,119.2,95.4,120.7"
	/>
<path class="st0" d="M92.8,123.7c-1.7,0-3-1.4-3-3c0-1.7,1.4-3,3-3c1.7,0,3,1.4,3,3C95.9,122.3,94.5,123.7,92.8,123.7 M92.8,118.5
	c-1.2,0-2.1,1-2.1,2.1c0,1.2,1,2.1,2.1,2.1c1.2,0,2.1-1,2.1-2.1C95,119.5,94,118.5,92.8,118.5"/>
<path class="st0" d="M67.8,120c0,1.4-1.2,2.6-2.6,2.6c-1.4,0-2.6-1.2-2.6-2.6c0-1.4,1.2-2.6,2.6-2.6C66.7,117.4,67.8,118.6,67.8,120
	"/>
<path class="st0" d="M65.3,123c-1.7,0-3-1.4-3-3c0-1.7,1.4-3,3-3c1.7,0,3,1.4,3,3C68.3,121.7,66.9,123,65.3,123 M65.3,117.9
	c-1.2,0-2.1,1-2.1,2.1c0,1.2,1,2.1,2.1,2.1c1.2,0,2.1-1,2.1-2.1C67.4,118.8,66.4,117.9,65.3,117.9"/>
<path class="st0" d="M42.4,123.9c0,1.4-1.2,2.6-2.6,2.6c-1.4,0-2.6-1.2-2.6-2.6c0-1.4,1.2-2.6,2.6-2.6
	C41.2,121.3,42.4,122.5,42.4,123.9"/>
<path class="st0" d="M39.8,126.9c-1.7,0-3.1-1.4-3.1-3c0-1.7,1.4-3,3.1-3c1.7,0,3,1.4,3,3C42.8,125.6,41.4,126.9,39.8,126.9
	 M39.8,121.8c-1.2,0-2.1,1-2.1,2.1c0,1.2,1,2.1,2.1,2.1c1.2,0,2.1-1,2.1-2.1C41.9,122.7,40.9,121.8,39.8,121.8"/>
<path class="st0" d="M27.6,132.5c0,1.4-1.2,2.6-2.6,2.6c-1.4,0-2.6-1.1-2.6-2.6c0-1.4,1.2-2.6,2.6-2.6
	C26.5,129.9,27.6,131,27.6,132.5"/>
<path class="st0" d="M25,135.5c-1.7,0-3.1-1.4-3.1-3c0-1.7,1.4-3.1,3.1-3.1c1.7,0,3,1.4,3,3.1C28.1,134.1,26.7,135.5,25,135.5
	 M25,130.3c-1.2,0-2.1,1-2.1,2.1c0,1.2,1,2.1,2.1,2.1c1.2,0,2.1-1,2.1-2.1C27.2,131.3,26.2,130.3,25,130.3"/>
<path class="st0" d="M18.6,140.7c0,1.4-1.2,2.6-2.6,2.6c-1.4,0-2.6-1.2-2.6-2.6c0-1.4,1.2-2.6,2.6-2.6
	C17.4,138.1,18.6,139.3,18.6,140.7"/>
<path class="st0" d="M16,143.8c-1.7,0-3-1.4-3-3c0-1.7,1.4-3,3-3c1.7,0,3,1.4,3,3C19,142.4,17.7,143.8,16,143.8 M16,138.6
	c-1.2,0-2.1,1-2.1,2.1c0,1.2,1,2.1,2.1,2.1c1.2,0,2.1-1,2.1-2.1C18.1,139.6,17.2,138.6,16,138.6"/>
<path class="st0" d="M25,148.2c0,1.4-1.2,2.6-2.6,2.6c-1.4,0-2.6-1.2-2.6-2.6c0-1.4,1.2-2.6,2.6-2.6C23.9,145.7,25,146.8,25,148.2"
	/>
<path class="st0" d="M22.4,151.3c-1.7,0-3-1.4-3-3c0-1.7,1.4-3.1,3-3.1c1.7,0,3,1.4,3,3.1C25.5,149.9,24.1,151.3,22.4,151.3
	 M22.4,146.1c-1.2,0-2.1,1-2.1,2.1c0,1.2,1,2.1,2.1,2.1c1.2,0,2.1-1,2.1-2.1C24.6,147.1,23.6,146.1,22.4,146.1"/>
<path class="st0" d="M37.2,153.9c0,1.4-1.2,2.6-2.6,2.6c-1.4,0-2.6-1.2-2.6-2.6c0-1.4,1.2-2.6,2.6-2.6
	C36,151.3,37.2,152.4,37.2,153.9"/>
<path class="st0" d="M34.6,156.9c-1.7,0-3-1.4-3-3c0-1.7,1.4-3,3-3c1.7,0,3,1.4,3,3C37.6,155.5,36.3,156.9,34.6,156.9 M34.6,151.7
	c-1.2,0-2.1,1-2.1,2.1c0,1.2,1,2.1,2.1,2.1c1.2,0,2.1-1,2.1-2.1C36.7,152.7,35.8,151.7,34.6,151.7"/>
<path class="st0" d="M53.6,158.4c0,1.4-1.2,2.6-2.6,2.6c-1.4,0-2.6-1.2-2.6-2.6s1.2-2.6,2.6-2.6C52.5,155.8,53.6,157,53.6,158.4"/>
<path class="st0" d="M51,161.5c-1.7,0-3-1.4-3-3c0-1.7,1.4-3,3-3c1.7,0,3,1.4,3,3C54.1,160.1,52.7,161.5,51,161.5 M51,156.3
	c-1.2,0-2.1,1-2.1,2.1c0,1.2,1,2.1,2.1,2.1c1.2,0,2.1-1,2.1-2.1C53.2,157.2,52.2,156.3,51,156.3"/>
<path class="st0" d="M64.8,162.6c0,1.4-1.2,2.6-2.6,2.6c-1.4,0-2.6-1.2-2.6-2.6c0-1.4,1.2-2.6,2.6-2.6
	C63.6,160,64.8,161.2,64.8,162.6"/>
<path class="st0" d="M62.2,165.7c-1.7,0-3-1.4-3-3.1c0-1.7,1.4-3,3-3c1.7,0,3,1.4,3,3C65.2,164.3,63.8,165.7,62.2,165.7 M62.2,160.5
	c-1.2,0-2.1,1-2.1,2.1c0,1.2,1,2.1,2.1,2.1c1.2,0,2.1-1,2.1-2.1C64.3,161.4,63.3,160.5,62.2,160.5"/>
<path class="st0" d="M76.8,165.2c0,1.4-1.2,2.6-2.6,2.6s-2.6-1.2-2.6-2.6c0-1.4,1.2-2.6,2.6-2.6S76.8,163.8,76.8,165.2"/>
<path class="st0" d="M74.3,168.2c-1.7,0-3-1.4-3-3c0-1.7,1.4-3,3-3c1.7,0,3,1.4,3,3C77.3,166.9,75.9,168.2,74.3,168.2 M74.3,163.1
	c-1.2,0-2.1,1-2.1,2.1c0,1.2,1,2.1,2.1,2.1c1.2,0,2.1-1,2.1-2.1C76.4,164,75.4,163.1,74.3,163.1"/>
<path class="st0" d="M88.6,166.2c0,1.4-1.2,2.6-2.6,2.6c-1.4,0-2.6-1.2-2.6-2.6c0-1.4,1.2-2.6,2.6-2.6
	C87.5,163.7,88.6,164.8,88.6,166.2"/>
<path class="st0" d="M86,169.3c-1.7,0-3-1.4-3-3c0-1.7,1.4-3.1,3-3.1c1.7,0,3.1,1.4,3.1,3.1C89.1,167.9,87.7,169.3,86,169.3
	 M86,164.1c-1.2,0-2.1,0.9-2.1,2.1c0,1.2,1,2.1,2.1,2.1c1.2,0,2.1-1,2.1-2.1C88.2,165,87.2,164.1,86,164.1"/>
<path class="st0" d="M103.5,160c0,1.4-1.2,2.6-2.6,2.6c-1.4,0-2.6-1.1-2.6-2.6c0-1.4,1.2-2.6,2.6-2.6
	C102.3,157.4,103.5,158.6,103.5,160"/>
<path class="st0" d="M100.9,163.1c-1.7,0-3.1-1.4-3.1-3c0-1.7,1.4-3.1,3.1-3.1c1.7,0,3,1.4,3,3.1
	C103.9,161.7,102.5,163.1,100.9,163.1 M100.9,157.9c-1.2,0-2.1,1-2.1,2.1c0,1.2,1,2.1,2.1,2.1c1.2,0,2.1-1,2.1-2.1
	C103,158.8,102.1,157.9,100.9,157.9"/>
<path class="st0" d="M98.8,170.4c0,1.4-1.2,2.6-2.6,2.6c-1.4,0-2.6-1.1-2.6-2.6c0-1.4,1.2-2.6,2.6-2.6
	C97.7,167.8,98.8,168.9,98.8,170.4"/>
<path class="st0" d="M96.2,173.4c-1.7,0-3-1.4-3-3c0-1.7,1.4-3,3-3c1.7,0,3,1.4,3,3C99.3,172,97.9,173.4,96.2,173.4 M96.2,168.2
	c-1.2,0-2.1,1-2.1,2.1c0,1.2,1,2.1,2.1,2.1c1.2,0,2.1-1,2.1-2.1C98.4,169.2,97.4,168.2,96.2,168.2"/>
<path class="st0" d="M101.4,179.6c0,1.4-1.2,2.6-2.6,2.6c-1.4,0-2.6-1.2-2.6-2.6c0-1.4,1.2-2.6,2.6-2.6
	C100.2,177,101.4,178.2,101.4,179.6"/>
<path class="st0" d="M98.8,182.6c-1.7,0-3-1.4-3-3.1c0-1.7,1.4-3,3-3c1.7,0,3,1.4,3,3C101.8,181.3,100.5,182.6,98.8,182.6
	 M98.8,177.5c-1.2,0-2.1,1-2.1,2.1c0,1.2,1,2.1,2.1,2.1c1.2,0,2.1-1,2.1-2.1C100.9,178.4,100,177.5,98.8,177.5"/>
<path class="st0" d="M105.6,183.4c0,1.4-1.2,2.6-2.6,2.6c-1.4,0-2.6-1.2-2.6-2.6c0-1.4,1.2-2.6,2.6-2.6
	C104.4,180.8,105.6,182,105.6,183.4"/>
<path class="st0" d="M103,186.4c-1.7,0-3-1.4-3-3c0-1.7,1.4-3.1,3-3.1c1.7,0,3,1.4,3,3.1C106,185.1,104.7,186.4,103,186.4
	 M103,181.3c-1.2,0-2.1,1-2.1,2.2c0,1.2,1,2.1,2.1,2.1c1.2,0,2.1-1,2.1-2.1C105.1,182.2,104.2,181.3,103,181.3"/>
<path class="st0" d="M113,183.4c0,1.4-1.2,2.6-2.6,2.6c-1.4,0-2.6-1.2-2.6-2.6c0-1.4,1.2-2.6,2.6-2.6C111.8,180.8,113,182,113,183.4
	"/>
<path class="st0" d="M110.4,186.4c-1.7,0-3-1.4-3-3c0-1.7,1.4-3.1,3-3.1c1.7,0,3,1.4,3,3.1C113.4,185.1,112.1,186.4,110.4,186.4
	 M110.4,181.3c-1.2,0-2.1,1-2.1,2.2c0,1.2,1,2.1,2.1,2.1c1.2,0,2.1-1,2.1-2.1C112.5,182.2,111.6,181.3,110.4,181.3"/>
<path class="st0" d="M119.1,189.2c0,1.4-1.2,2.6-2.6,2.6c-1.4,0-2.6-1.2-2.6-2.6c0-1.4,1.2-2.6,2.6-2.6
	C117.9,186.6,119.1,187.8,119.1,189.2"/>
<path class="st0" d="M116.5,192.2c-1.7,0-3-1.4-3-3c0-1.7,1.4-3,3-3c1.7,0,3,1.4,3,3C119.5,190.9,118.2,192.2,116.5,192.2
	 M116.5,187.1c-1.2,0-2.1,0.9-2.1,2.1c0,1.2,1,2.1,2.1,2.1c1.2,0,2.1-1,2.1-2.1C118.6,188,117.7,187.1,116.5,187.1"/>
<path class="st0" d="M121.7,199.9c0,1.4-1.2,2.6-2.6,2.6c-1.4,0-2.6-1.2-2.6-2.6c0-1.4,1.2-2.6,2.6-2.6
	C120.5,197.4,121.7,198.5,121.7,199.9"/>
<path class="st0" d="M119.1,203c-1.7,0-3-1.4-3-3c0-1.7,1.4-3,3-3c1.7,0,3,1.4,3,3C122.1,201.6,120.8,203,119.1,203 M119.1,197.8
	c-1.2,0-2.1,1-2.1,2.1c0,1.2,1,2.1,2.1,2.1c1.2,0,2.1-1,2.1-2.1C121.2,198.8,120.3,197.8,119.1,197.8"/>
<path class="st0" d="M127.7,222.7c0,1.4-1.2,2.6-2.6,2.6c-1.4,0-2.6-1.1-2.6-2.6c0-1.4,1.2-2.6,2.6-2.6
	C126.5,220.1,127.7,221.2,127.7,222.7"/>
<path class="st0" d="M125.1,225.7c-1.7,0-3-1.4-3-3c0-1.7,1.4-3,3-3c1.7,0,3,1.4,3,3C128.1,224.3,126.7,225.7,125.1,225.7
	 M125.1,220.5c-1.2,0-2.1,1-2.1,2.1c0,1.2,1,2.1,2.1,2.1c1.2,0,2.1-1,2.1-2.1C127.2,221.5,126.3,220.5,125.1,220.5"/>
<path class="st0" d="M135,225.3c0,1.4-1.2,2.6-2.6,2.6c-1.4,0-2.6-1.2-2.6-2.6c0-1.4,1.2-2.6,2.6-2.6
	C133.8,222.7,135,223.8,135,225.3"/>
<path class="st0" d="M132.4,228.3c-1.7,0-3-1.4-3-3c0-1.7,1.4-3,3-3c1.7,0,3,1.4,3,3C135.4,226.9,134.1,228.3,132.4,228.3
	 M132.4,223.1c-1.2,0-2.1,1-2.1,2.1c0,1.2,1,2.1,2.1,2.1c1.2,0,2.1-1,2.1-2.1C134.5,224.1,133.6,223.1,132.4,223.1"/>
<path class="st0" d="M142.7,220.6c0,1.4-1.2,2.6-2.6,2.6c-1.4,0-2.6-1.2-2.6-2.6c0-1.4,1.2-2.6,2.6-2.6
	C141.5,218,142.7,219.2,142.7,220.6"/>
<path class="st0" d="M140.1,223.6c-1.7,0-3.1-1.4-3.1-3c0-1.7,1.4-3,3.1-3c1.7,0,3,1.4,3,3C143.1,222.3,141.8,223.6,140.1,223.6
	 M140.1,218.5c-1.2,0-2.1,1-2.1,2.1c0,1.2,1,2.1,2.1,2.1c1.2,0,2.1-0.9,2.1-2.1C142.2,219.4,141.3,218.5,140.1,218.5"/>
<path class="st0" d="M148.5,201.7c0,1.4-1.2,2.6-2.6,2.6c-1.4,0-2.6-1.2-2.6-2.6c0-1.4,1.2-2.6,2.6-2.6
	C147.3,199.1,148.5,200.2,148.5,201.7"/>
<path class="st0" d="M145.9,204.7c-1.7,0-3-1.4-3-3.1c0-1.7,1.4-3,3-3c1.7,0,3,1.4,3,3C148.9,203.4,147.6,204.7,145.9,204.7
	 M145.9,199.5c-1.2,0-2.1,1-2.1,2.1c0,1.2,1,2.1,2.1,2.1c1.2,0,2.1-1,2.1-2.1C148,200.5,147.1,199.5,145.9,199.5"/>
<path class="st0" d="M149,180.8c0,1.4-1.2,2.6-2.6,2.6c-1.4,0-2.6-1.2-2.6-2.6c0-1.4,1.2-2.6,2.6-2.6
	C147.8,178.2,149,179.4,149,180.8"/>
<path class="st0" d="M146.4,183.9c-1.7,0-3-1.4-3-3c0-1.7,1.4-3,3-3s3,1.4,3,3C149.4,182.5,148.1,183.9,146.4,183.9 M146.4,178.7
	c-1.2,0-2.1,0.9-2.1,2.1c0,1.2,1,2.1,2.1,2.1c1.2,0,2.1-1,2.1-2.1C148.5,179.6,147.5,178.7,146.4,178.7"/>
<path class="st0" d="M191.5,116.8c0,1.4-1.2,2.6-2.6,2.6c-1.4,0-2.6-1.1-2.6-2.6c0-1.4,1.2-2.6,2.6-2.6
	C190.3,114.3,191.5,115.4,191.5,116.8"/>
<path class="st0" d="M188.9,119.9c-1.7,0-3-1.4-3-3c0-1.7,1.4-3,3-3c1.7,0,3,1.4,3,3C191.9,118.5,190.6,119.9,188.9,119.9
	 M188.9,114.7c-1.2,0-2.1,1-2.1,2.1c0,1.2,1,2.1,2.1,2.1c1.2,0,2.1-1,2.1-2.1C191,115.7,190.1,114.7,188.9,114.7"/>
<path class="st0" d="M185.2,110c0,1.4-1.2,2.6-2.6,2.6c-1.4,0-2.6-1.2-2.6-2.6c0-1.4,1.2-2.6,2.6-2.6
	C184.1,107.4,185.2,108.6,185.2,110"/>
<path class="st0" d="M182.6,113c-1.7,0-3.1-1.4-3.1-3c0-1.7,1.4-3.1,3.1-3.1c1.7,0,3,1.4,3,3.1C185.7,111.7,184.3,113,182.6,113
	 M182.6,107.9c-1.2,0-2.1,1-2.1,2.1c0,1.2,1,2.1,2.1,2.1c1.2,0,2.1-1,2.1-2.1C184.8,108.8,183.8,107.9,182.6,107.9"/>
<path class="st0" d="M185.2,103c0,1.4-1.2,2.6-2.6,2.6c-1.4,0-2.6-1.2-2.6-2.6c0-1.4,1.2-2.6,2.6-2.6
	C184.1,100.4,185.2,101.5,185.2,103"/>
<path class="st0" d="M182.6,106c-1.7,0-3.1-1.4-3.1-3c0-1.7,1.4-3.1,3.1-3.1c1.7,0,3,1.4,3,3.1C185.7,104.6,184.3,106,182.6,106
	 M182.6,100.8c-1.2,0-2.1,1-2.1,2.1c0,1.2,1,2.1,2.1,2.1c1.2,0,2.1-1,2.1-2.1C184.8,101.8,183.8,100.8,182.6,100.8"/>
<path class="st0" d="M181.4,98.5c0,1.4-1.2,2.6-2.6,2.6c-1.4,0-2.6-1.2-2.6-2.6c0-1.4,1.2-2.6,2.6-2.6
	C180.2,95.9,181.4,97.1,181.4,98.5"/>
<path class="st0" d="M178.8,101.5c-1.7,0-3-1.4-3-3.1c0-1.7,1.4-3,3-3c1.7,0,3,1.4,3,3C181.9,100.2,180.5,101.5,178.8,101.5
	 M178.8,96.4c-1.2,0-2.1,1-2.1,2.1c0,1.2,1,2.1,2.1,2.1c1.2,0,2.1-1,2.1-2.1C181,97.3,180,96.4,178.8,96.4"/>
<path class="st0" d="M172.5,96.5c0,1.4-1.2,2.6-2.6,2.6c-1.4,0-2.6-1.2-2.6-2.6c0-1.4,1.2-2.6,2.6-2.6
	C171.3,93.9,172.5,95.1,172.5,96.5"/>
<path class="st0" d="M169.9,99.5c-1.7,0-3-1.4-3-3c0-1.7,1.4-3,3-3c1.7,0,3,1.4,3,3C172.9,98.2,171.6,99.5,169.9,99.5 M169.9,94.4
	c-1.2,0-2.1,1-2.1,2.1c0,1.2,1,2.1,2.1,2.1c1.2,0,2.1-0.9,2.1-2.1C172,95.3,171.1,94.4,169.9,94.4"/>
<path class="st0" d="M162.1,101.1c0,1.4-1.2,2.6-2.6,2.6s-2.6-1.2-2.6-2.6c0-1.4,1.2-2.6,2.6-2.6S162.1,99.6,162.1,101.1"/>
<path class="st0" d="M159.5,104.1c-1.7,0-3-1.4-3-3c0-1.7,1.4-3,3-3c1.7,0,3,1.4,3,3C162.6,102.7,161.2,104.1,159.5,104.1
	 M159.5,98.9c-1.2,0-2.1,0.9-2.1,2.1c0,1.2,1,2.1,2.1,2.1c1.2,0,2.1-1,2.1-2.1C161.7,99.9,160.7,98.9,159.5,98.9"/>
<path class="st0" d="M122.6,93c0,1.4-1.2,2.6-2.6,2.6c-1.4,0-2.6-1.2-2.6-2.6c0-1.4,1.2-2.6,2.6-2.6C121.4,90.5,122.6,91.6,122.6,93
	"/>
<path class="st0" d="M120,96.1c-1.7,0-3.1-1.4-3.1-3c0-1.7,1.4-3,3.1-3c1.7,0,3,1.4,3,3C123,94.7,121.7,96.1,120,96.1 M120,90.9
	c-1.2,0-2.1,1-2.1,2.1c0,1.2,1,2.1,2.1,2.1c1.2,0,2.1-1,2.1-2.1C122.1,91.9,121.2,90.9,120,90.9"/>
<path class="st0" d="M168.6,86.1c0,1.4-1.2,2.6-2.6,2.6c-1.4,0-2.6-1.1-2.6-2.6c0-1.4,1.2-2.6,2.6-2.6
	C167.4,83.5,168.6,84.7,168.6,86.1"/>
<path class="st0" d="M166,89.1c-1.7,0-3-1.4-3-3c0-1.7,1.4-3,3-3c1.7,0,3,1.4,3,3C169,87.8,167.7,89.1,166,89.1 M166,84
	c-1.2,0-2.1,1-2.1,2.1c0,1.2,1,2.1,2.1,2.1c1.2,0,2.1-1,2.1-2.1C168.1,84.9,167.2,84,166,84"/>
<path class="st0" d="M167.7,74.4c0,1.4-1.2,2.6-2.6,2.6c-1.4,0-2.6-1.1-2.6-2.6c0-1.4,1.2-2.6,2.6-2.6
	C166.6,71.9,167.7,73,167.7,74.4"/>
<path class="st0" d="M165.1,77.5c-1.7,0-3-1.4-3-3c0-1.7,1.4-3,3-3c1.7,0,3,1.4,3,3C168.2,76.1,166.8,77.5,165.1,77.5 M165.1,72.3
	c-1.2,0-2.1,1-2.1,2.1c0,1.2,1,2.1,2.1,2.1c1.2,0,2.1-1,2.1-2.1C167.3,73.3,166.3,72.3,165.1,72.3"/>
<path class="st0" d="M164.7,62.3c0,1.4-1.2,2.6-2.6,2.6c-1.4,0-2.6-1.2-2.6-2.6c0-1.4,1.2-2.6,2.6-2.6
	C163.5,59.7,164.7,60.8,164.7,62.3"/>
<path class="st0" d="M162.1,65.3c-1.7,0-3-1.4-3-3c0-1.7,1.4-3.1,3-3.1c1.7,0,3,1.4,3,3.1C165.1,63.9,163.8,65.3,162.1,65.3
	 M162.1,60.1c-1.2,0-2.1,1-2.1,2.1c0,1.2,1,2.1,2.1,2.1c1.2,0,2.1-0.9,2.1-2.1C164.2,61.1,163.3,60.1,162.1,60.1"/>
<path class="st0" d="M160.8,51.7c0,1.4-1.2,2.6-2.6,2.6c-1.4,0-2.6-1.2-2.6-2.6c0-1.4,1.2-2.6,2.6-2.6
	C159.7,49.1,160.8,50.3,160.8,51.7"/>
<path class="st0" d="M158.3,54.7c-1.7,0-3-1.4-3-3.1c0-1.7,1.4-3,3-3c1.7,0,3,1.4,3,3C161.3,53.4,159.9,54.7,158.3,54.7 M158.3,49.6
	c-1.2,0-2.1,1-2.1,2.1c0,1.2,1,2.1,2.1,2.1c1.2,0,2.1-1,2.1-2.1C160.4,50.5,159.4,49.6,158.3,49.6"/>
<path class="st0" d="M156.4,34.8c0,1.4-1.2,2.6-2.6,2.6c-1.4,0-2.6-1.1-2.6-2.6c0-1.4,1.2-2.6,2.6-2.6
	C155.3,32.2,156.4,33.4,156.4,34.8"/>
<path class="st0" d="M153.8,37.8c-1.7,0-3-1.4-3-3c0-1.7,1.4-3,3-3s3,1.4,3,3C156.9,36.5,155.5,37.8,153.8,37.8 M153.8,32.7
	c-1.2,0-2.1,0.9-2.1,2.1c0,1.2,1,2.1,2.1,2.1c1.2,0,2.1-1,2.1-2.1C156,33.6,155,32.7,153.8,32.7"/>
<path class="st0" d="M150.4,22.4c0,1.4-1.2,2.6-2.6,2.6c-1.4,0-2.6-1.1-2.6-2.6c0-1.4,1.1-2.6,2.6-2.6
	C149.3,19.8,150.4,20.9,150.4,22.4"/>
<path class="st0" d="M147.8,25.4c-1.7,0-3-1.4-3-3c0-1.7,1.4-3,3-3c1.7,0,3,1.4,3,3C150.9,24.1,149.5,25.4,147.8,25.4 M147.8,20.2
	c-1.2,0-2.1,1-2.1,2.1c0,1.2,1,2.1,2.1,2.1c1.2,0,2.1-1,2.1-2.1C150,21.2,149,20.2,147.8,20.2"/>
<path class="st0" d="M143.4,16.7c0,1.4-1.2,2.6-2.6,2.6s-2.6-1.2-2.6-2.6c0-1.4,1.2-2.6,2.6-2.6S143.4,15.2,143.4,16.7"/>
<path class="st0" d="M140.8,19.7c-1.7,0-3-1.4-3-3c0-1.7,1.4-3,3-3c1.7,0,3,1.4,3,3C143.8,18.3,142.5,19.7,140.8,19.7 M140.8,14.6
	c-1.2,0-2.1,0.9-2.1,2.1c0,1.2,1,2.1,2.1,2.1c1.2,0,2.1-1,2.1-2.1C142.9,15.5,142,14.6,140.8,14.6"/>
<path class="st0" d="M134.8,25.4c0,1.4-1.2,2.6-2.6,2.6c-1.4,0-2.6-1.1-2.6-2.6c0-1.4,1.2-2.6,2.6-2.6
	C133.7,22.8,134.8,24,134.8,25.4"/>
<path class="st0" d="M132.2,28.5c-1.7,0-3-1.4-3-3c0-1.7,1.4-3,3-3c1.7,0,3,1.4,3,3C135.3,27.1,133.9,28.5,132.2,28.5 M132.2,23.3
	c-1.2,0-2.1,0.9-2.1,2.1c0,1.2,1,2.1,2.1,2.1c1.2,0,2.1-1,2.1-2.1C134.4,24.2,133.4,23.3,132.2,23.3"/>
<path class="st0" d="M126.2,40c0,1.4-1.2,2.6-2.6,2.6c-1.4,0-2.6-1.1-2.6-2.6c0-1.4,1.2-2.6,2.6-2.6C125,37.4,126.2,38.5,126.2,40"
	/>
<path class="st0" d="M123.6,43c-1.7,0-3-1.4-3-3c0-1.7,1.4-3,3-3c1.7,0,3,1.4,3,3C126.6,41.6,125.2,43,123.6,43 M123.6,37.8
	c-1.2,0-2.1,1-2.1,2.1c0,1.2,1,2.1,2.1,2.1c1.2,0,2.1-1,2.1-2.1C125.7,38.8,124.7,37.8,123.6,37.8"/>
<path class="st0" d="M121.8,64.8c0,1.4-1.2,2.6-2.6,2.6s-2.6-1.2-2.6-2.6s1.2-2.6,2.6-2.6S121.8,63.4,121.8,64.8"/>
<path class="st0" d="M119.2,67.9c-1.7,0-3.1-1.4-3.1-3c0-1.7,1.4-3,3.1-3c1.7,0,3,1.4,3,3C122.2,66.5,120.8,67.9,119.2,67.9
	 M119.2,62.7c-1.2,0-2.1,1-2.1,2.1c0,1.2,1,2.1,2.1,2.1c1.2,0,2.1-1,2.1-2.1C121.3,63.7,120.4,62.7,119.2,62.7"/>
<line class="st0" x1="146.4" y1="180.8" x2="129.6" y2="131.3"/>
<polygon class="st0" points="145.9,181 129.2,131.4 130.1,131.1 146.8,180.7 "/>
<line class="st0" x1="92.8" y1="120.7" x2="129.6" y2="131.3"/>
<polygon class="st0" points="129.5,131.7 92.7,121.1 93,120.2 129.8,130.8 "/>
<line class="st0" x1="39.8" y1="123.9" x2="129.6" y2="131.3"/>
<polygon class="st0" points="129.6,131.7 39.7,124.4 39.8,123.4 129.7,130.8 "/>
<line class="st0" x1="65.3" y1="120" x2="129.6" y2="131.3"/>
<polygon class="st0" points="129.6,131.7 65.2,120.4 65.3,119.5 129.7,130.8 "/>
<line class="st0" x1="25" y1="132.5" x2="129.6" y2="131.3"/>
<polygon class="st0" points="25,132.9 25,132 129.6,130.8 129.6,131.7 "/>
<line class="st0" x1="16" y1="140.7" x2="129.6" y2="131.3"/>
<polygon class="st0" points="16,141.2 16,140.3 129.6,130.8 129.7,131.7 "/>
<line class="st0" x1="22.4" y1="148.2" x2="129.6" y2="131.3"/>
<polygon class="st0" points="22.5,148.7 22.4,147.8 129.6,130.8 129.7,131.7 "/>
<line class="st0" x1="34.6" y1="153.9" x2="129.6" y2="131.3"/>
<polygon class="st0" points="34.7,154.3 34.5,153.4 129.5,130.8 129.7,131.7 "/>
<line class="st0" x1="51" y1="158.4" x2="129.6" y2="131.3"/>
<polygon class="st0" points="51.2,158.9 50.9,158 129.5,130.8 129.8,131.7 "/>
<line class="st0" x1="62.2" y1="162.6" x2="129.6" y2="131.3"/>
<polygon class="st0" points="62.4,163 62,162.2 129.4,130.9 129.8,131.7 "/>
<line class="st0" x1="74.3" y1="165.2" x2="129.6" y2="131.3"/>
<polygon class="st0" points="74.5,165.6 74,164.8 129.4,130.9 129.9,131.6 "/>
<line class="st0" x1="86" y1="166.2" x2="129.6" y2="131.3"/>
<polygon class="st0" points="86.3,166.6 85.8,165.9 129.3,130.9 129.9,131.6 "/>
<line class="st0" x1="100.9" y1="160" x2="129.6" y2="131.3"/>
<polygon class="st0" points="101.2,160.3 100.6,159.7 129.3,131 130,131.6 "/>
<line class="st0" x1="96.2" y1="170.4" x2="129.6" y2="131.3"/>
<polygon class="st0" points="96.6,170.7 95.9,170.1 129.3,131 130,131.6 "/>
<line class="st0" x1="98.8" y1="179.6" x2="129.6" y2="131.3"/>
<polygon class="st0" points="99.2,179.8 98.4,179.4 129.3,131 130,131.5 "/>
<line class="st0" x1="103" y1="183.4" x2="129.6" y2="131.3"/>
<rect x="87" y="156.9" transform="matrix(0.458 -0.889 0.889 0.458 -76.818 188.6806)" class="st0" width="58.5" height="0.9"/>
<line class="st0" x1="110.4" y1="183.4" x2="129.6" y2="131.3"/>
<polygon class="st0" points="110.8,183.6 110,183.2 129.2,131.1 130.1,131.4 "/>
<line class="st0" x1="116.5" y1="189.2" x2="129.6" y2="131.3"/>
<polygon class="st0" points="116.9,189.3 116.1,189.1 129.2,131.2 130.1,131.4 "/>
<line class="st0" x1="145.9" y1="201.7" x2="129.6" y2="131.3"/>
<polygon class="st0" points="145.5,201.8 129.2,131.4 130.1,131.2 146.3,201.6 "/>
<line class="st0" x1="140.1" y1="220.6" x2="129.6" y2="131.3"/>
<polygon class="st0" points="139.6,220.6 129.2,131.3 130.1,131.2 140.5,220.5 "/>
<line class="st0" x1="132.4" y1="225.3" x2="129.6" y2="131.3"/>
<polygon class="st0" points="131.9,225.3 129.2,131.3 130.1,131.3 132.8,225.2 "/>
<line class="st0" x1="125.1" y1="222.7" x2="129.6" y2="131.3"/>
<polygon class="st0" points="125.5,222.7 124.6,222.7 129.2,131.2 130.1,131.3 "/>
<line class="st0" x1="119.1" y1="199.9" x2="129.6" y2="131.3"/>
<polygon class="st0" points="119.5,200 118.6,199.9 129.2,131.2 130.1,131.3 "/>
<line class="st0" x1="120" y1="93" x2="130.4" y2="130"/>
<polygon class="st0" points="130,130.1 119.6,93.2 120.4,92.9 130.9,129.9 "/>
<line class="st0" x1="119.2" y1="64.8" x2="130.4" y2="130"/>
<polygon class="st0" points="130,130.1 118.7,64.9 119.6,64.8 130.9,129.9 "/>
<line class="st0" x1="123.6" y1="40" x2="130.4" y2="130"/>
<polygon class="st0" points="130,130 123.1,40 124,39.9 130.9,129.9 "/>
<line class="st0" x1="132.2" y1="25.4" x2="130.4" y2="130"/>
<polygon class="st0" points="130.9,130 130,130 131.8,25.4 132.7,25.4 "/>
<line class="st0" x1="140.8" y1="16.7" x2="130.4" y2="130"/>
<polygon class="st0" points="130.9,130 130,129.9 140.3,16.6 141.2,16.7 "/>
<line class="st0" x1="147.8" y1="22.4" x2="130.4" y2="130"/>
<rect x="84.6" y="75.7" transform="matrix(0.1602 -0.9871 0.9871 0.1602 41.6449 201.3089)" class="st0" width="109" height="0.9"/>
<line class="st0" x1="153.8" y1="34.8" x2="130.4" y2="130"/>
<polygon class="st0" points="130.9,130.1 130,129.9 153.4,34.7 154.3,34.9 "/>
<line class="st0" x1="158.3" y1="51.7" x2="130.4" y2="130"/>
<polygon class="st0" points="130.8,130.1 130,129.8 157.8,51.5 158.7,51.8 "/>
<line class="st0" x1="162.1" y1="62.3" x2="130.4" y2="130"/>
<polygon class="st0" points="130.8,130.2 130,129.8 161.7,62.1 162.5,62.4 "/>
<line class="st0" x1="165.1" y1="74.4" x2="130.4" y2="130"/>
<polygon class="st0" points="130.8,130.2 130,129.7 164.7,74.2 165.5,74.7 "/>
<line class="st0" x1="166" y1="86.1" x2="130.4" y2="130"/>
<polygon class="st0" points="130.8,130.3 130.1,129.7 165.6,85.8 166.3,86.4 "/>
<line class="st0" x1="159.5" y1="101.1" x2="130.4" y2="130"/>
<polygon class="st0" points="130.7,130.3 130.1,129.7 159.2,100.8 159.8,101.4 "/>
<line class="st0" x1="169.9" y1="96.5" x2="130.4" y2="130"/>
<polygon class="st0" points="130.7,130.3 130.1,129.6 169.6,96.1 170.2,96.8 "/>
<line class="st0" x1="178.8" y1="98.5" x2="130.4" y2="130"/>
<polygon class="st0" points="130.7,130.4 130.2,129.6 178.6,98.1 179.1,98.9 "/>
<line class="st0" x1="182.6" y1="103" x2="130.4" y2="130"/>
<polygon class="st0" points="130.6,130.4 130.2,129.6 182.4,102.6 182.8,103.3 "/>
<line class="st0" x1="182.6" y1="110" x2="130.4" y2="130"/>
<polygon class="st0" points="130.6,130.4 130.3,129.6 182.5,109.6 182.8,110.4 "/>
<line class="st0" x1="188.9" y1="116.8" x2="130.4" y2="130"/>
<polygon class="st0" points="130.5,130.4 130.3,129.5 188.8,116.4 189,117.3 "/>
<line class="st0" x1="199.7" y1="119.4" x2="130.4" y2="130"/>
<polygon class="st0" points="130.5,130.4 130.4,129.5 199.7,119 199.8,119.9 "/>
<line class="st0" x1="222.4" y1="125.6" x2="130.4" y2="130"/>
<polygon class="st0" points="130.4,130.4 130.4,129.5 222.4,125.2 222.4,126.1 "/>
<line class="st0" x1="225.7" y1="133.2" x2="130.4" y2="130"/>
<polygon class="st0" points="225.6,133.7 130.4,130.4 130.4,129.5 225.7,132.8 "/>
<line class="st0" x1="220.5" y1="140.4" x2="130.4" y2="130"/>
<polygon class="st0" points="220.4,140.9 130.4,130.4 130.5,129.5 220.5,140 "/>
<line class="st0" x1="201.7" y1="146.2" x2="130.4" y2="130"/>
<polygon class="st0" points="201.6,146.7 130.3,130.4 130.5,129.5 201.8,145.8 "/>
<line class="st0" x1="180" y1="146.2" x2="130.4" y2="130"/>
<rect x="154.8" y="112" transform="matrix(0.3113 -0.9503 0.9503 0.3113 -24.3483 242.6314)" class="st0" width="0.9" height="52.2"/>
</svg>
