<?xml version="1.0" encoding="utf-8"?>
<!-- Generator: $$$/GeneralStr/196=Adobe Illustrator 27.6.0, SVG Export Plug-In . SVG Version: 6.00 Build 0)  -->
<svg version="1.1" id="圖層_1" xmlns="http://www.w3.org/2000/svg" xmlns:xlink="http://www.w3.org/1999/xlink" x="0px" y="0px"
	 viewBox="0 0 64 64" style="enable-background:new 0 0 64 64;" xml:space="preserve">
<style type="text/css">
	.st0{fill-rule:evenodd;clip-rule:evenodd;fill:#808184;}
	.st1{fill-rule:evenodd;clip-rule:evenodd;fill:none;stroke:#808184;stroke-width:2;stroke-miterlimit:10;}
</style>
<g>
	<g>
		<path class="st0" d="M28,64h2V52h-2V64z M34,64h2V52h-2V64z M40,64h2V52h-2V64z M22,64h2V52h-2V64z M28,12h2V0h-2V12z M34,12h2V0
			h-2V12z M40,12h2V0h-2V12z M22,12h2V0h-2V12z M0,30h12v-2H0V30z M0,36h12v-2H0V36z M0,42h12v-2H0V42z M0,24h12v-2H0V24z M52,30h12
			v-2H52V30z M52,36h12v-2H52V36z M52,42h12v-2H52V42z M52,22v2h12v-2H52z"/>
	</g>
</g>
<path class="st1" d="M20,12h24c4.4,0,8,3.6,8,8v24c0,4.4-3.6,8-8,8H20c-4.4,0-8-3.6-8-8V20C12,15.6,15.6,12,20,12z"/>
<path class="st1" d="M22,22h20v20H22V22z"/>
</svg>
