<?xml version="1.0" encoding="utf-8"?>
<!-- Generator: $$$/GeneralStr/196=Adobe Illustrator 27.6.0, SVG Export Plug-In . SVG Version: 6.00 Build 0)  -->
<svg version="1.1" id="圖層_1" xmlns="http://www.w3.org/2000/svg" xmlns:xlink="http://www.w3.org/1999/xlink" x="0px" y="0px"
	 viewBox="0 0 64 53" style="enable-background:new 0 0 64 53;" xml:space="preserve">
<style type="text/css">
	.st0{fill:#FFFFFF;}
</style>
<g>
	<path class="st0" d="M26.2,29.2h-9.4v-5.7c0-2.2,1.8-4,4-4h9.4v5.7C30.2,27.4,28.4,29.2,26.2,29.2z"/>
	<path class="st0" d="M64,0H31.8v6c0,2-1.7,3.7-3.7,3.7h3.7v0h4.6v39.6c0,2-1.7,3.7-3.7,3.7h3.7h8.7c1.4,0,2.5-1.1,2.5-2.4V9.7h14
		c1.4,0,2.5-1.1,2.5-2.4L64,0z"/>
	<path class="st0" d="M32.9,49.3V37.9C32,38.6,31,39,29.8,39H12.3V13c0-1.8,1.5-3.3,3.3-3.3h9c2.1,0,3.7-1.7,3.7-3.7V0h-25
		C1.5,0,0,1.5,0,3.3v46.4C0,51.5,1.5,53,3.3,53h25.9C31.2,53,32.9,51.3,32.9,49.3z"/>
	<g>
		<path class="st0" d="M50.9,21.2l4.1-8.6h2.5l3.8,8.6h0.8v0c0,1.1-0.9,2-2,2h-0.7l-1.2-2.5h-4.2l-0.4,0.9c-0.5,1-1.6,1.7-2.8,1.7
			l0,0V21.2L50.9,21.2z M55.1,18.7h2.3l-1.1-2.4L55.1,18.7z"/>
		<path class="st0" d="M53.9,27.1V35h8.3v0c0,1-0.8,1.8-1.8,1.8h-6.9c-1.4,0-2.5-1.1-2.5-2.5v-4.7c0-1.4,1.1-2.5,2.5-2.5H53.9z"/>
		<path class="st0" d="M62.2,51.5L62.2,51.5c0,0.8-0.6,1.4-1.4,1.4h-2.2l-4.3-4.6V53h0c-1.8,0-3.3-1.4-3.3-3.2v-4.2
			c0-1.8,1.5-3.2,3.3-3.2h0v4l3.7-3.7h3.7L57,47.3l3.9,4.2H62.2z"/>
	</g>
</g>
</svg>
