<?xml version="1.0" encoding="utf-8"?>
<!-- Generator: Adobe Illustrator 24.1.1, SVG Export Plug-In . SVG Version: 6.00 Build 0)  -->
<svg version="1.1" id="logo" xmlns="http://www.w3.org/2000/svg" xmlns:xlink="http://www.w3.org/1999/xlink" x="0px" y="0px"
	 viewBox="0 0 256 256" style="enable-background:new 0 0 256 256;" xml:space="preserve">
<style type="text/css">
	.st0{fill:#262626;}
	.st1{fill:#B7282E;}
	.st2{fill:#4C4C4E;}
</style>
<g id="ch">
	<g>
		<g>
			<path class="st0" d="M108.6,176.9c0.8-0.8-1-1.8-1.9-1.8c-0.5,0-1.1-0.1-1.6,0.2c-0.6,0.4-1.1,0.8-1.7,1.2
				c-1.4,1.1-2.5,1.5-2.9,2.6c-0.1,0.5,0.2,2.7,1.1,2.3C101.6,181.5,105.4,179.8,108.6,176.9z"/>
			<path class="st0" d="M117.9,178.9c-0.4-0.3-0.8-1-1-1.4c-0.5-0.7-1-1.5-1.4-2.2c-0.6-1-1.1-2-1.1-3.2c0-1.6,0.7-3,1.5-4.3
				c0.4-0.7,0.7-1.4,1.2-1.9c1.8-2.1,4.1-3.9,4.1-3.9c1.1-0.6,2.4-1.3,2.6-2.7c0.1-1.1-0.4-2.3-1.3-2.9c-0.9-0.6-2-0.6-3-0.7
				c-0.7-0.1-1.5-0.2-2.2,0.1c-1.1,0.7,1.2,1.2,1.2,1.6c0,1.7-1.4,3.2-2.9,4.4c-0.6,0.5-1.3,0.9-1.8,1.2c-0.8,0.4-1.5,0.8-2.3,1.1
				c-0.6,0.2-1.1,0.7-1.7,0.1c-0.6-0.6-0.9-1.7-1.3-2.4c-0.9-1.8-1.9-3.5-2.7-5.2c-0.7-1.5-1.7-2.9-2.6-4.3c-1-1.6-2-3.1-3-4.7
				c-0.2-0.6-0.7-1-1-1.6c-0.2-0.5-0.1-0.8-0.7-0.8c0,0-0.3,0-0.7,0.7c0,0-0.5,0.8-0.6,1.8c-0.1,0.4,0.6,0.5,0.9,0.8
				c1.6,1.8,3,3.7,4.2,5.6c2.1,3.2,3.5,6.5,4.7,10c0.3,0.9-0.1,1.5-0.7,2.1c0,0-0.3,0.5-1,1c-0.6,0.5-1.3,0.9-2,1.3
				c-1.8,1.1-3.8,1.8-5.6,2.8c-0.8,0.5-1.7,0.9-2.6,1c-0.5,0.1-1,0-1.4-0.1c-0.2-0.1-0.8-0.6-0.8,0c-0.1,1-0.3,1.9-0.5,2.9
				c-0.4,2.1,2.8,2.1,2.8,4.2c0.1,2.2-0.2,4.4-0.7,6.5c-0.3,1.4-0.6,2.9-1,4.3c-0.1,0.4-0.2,1.7-0.8,1.7c-0.6,0-1.2-0.3-1.6-0.7
				c-0.3-0.3-0.7-0.8-1.1-0.7c-0.6,0.2-0.6,1-0.5,1.4c0.2,0.8,0.8,1.4,1.2,2.1c0.4,0.5,0.7,1.2,1.2,1.5c0.8,0.5,1.4,0.1,2.2-0.4
				c0.5-0.3,2-0.4,1.7-1.5c-0.6-2.3,0.4-4.2,0.9-6.4c0.5-1.8,0.6-3.7,0.7-5.6c0.1-1.3,0-2.6-0.2-4c-0.2-1.3-0.1-2.5,0.3-3.7
				c0-0.1,0.1-0.4,0.2-0.4c1.2-0.9,1.8-1.2,2.8-1.9c1.3-0.9,2.8-1.5,4-2.2c0.8-0.5,1.7-1.1,2.5-1.5c0.4-0.2,1.7-0.8,2.1-0.6
				c0.4,0.2,0.4,0.3,0.5,0.7c0.1,0.5,0.3,1,0.5,1.5c0.3,0.9,0.7,1.9,1.1,2.8c0.2,0.4,0.6,0.8,0.6,1.3c0,0.3-0.2,0.7-0.4,1
				c-0.2,0.3-0.4,0.6-0.8,0.8c-0.7,0.4-1.8,1.5-1.6,2.4c0.3,1.6-0.1,3-0.8,4.4c-0.7,1.2-1.8,2-2.9,3c-0.8,0.8-1.7,1.4-2.7,1.9
				c-0.8,0.4-1.7,0.7-2.6,1.1c-0.3,0.1-0.6,0.2-0.9,0.4c-0.4,0.3-0.4,0.9-0.2,1.2c0.5,0.9,1.7,1.3,2.6,1.7c1,0.4,2.2,0.7,3.2,0.1
				c0.6-0.4,1-1,1.4-1.6c0.5-0.7,1-1.4,1.5-2.2c0.9-1.5,1.6-3,2.3-4.5c0.7-1.6,1.5-3.1,2-4.8c0.2-0.8,0.4-2.3,1.6-2.1
				c1,0.2,1.8,2.2,2.6,3.2c0,0,0.9,1.4,0.3,1.8c0,0-1.1,1.1-1.9,2.2c-0.8,1.1-1.1,1.8-0.8,3.2c0.1,0.6,0.2,1.5,0.9,1.8
				c0.9,0.4,1.6-0.5,2-1.2c0.5-0.8,1.1-1.8,1.4-2.7c0.2-0.7,1.1,0.8,1.1,0.8s4.4,5.1,5.9,6.3c1.7,1.3,3.3,3.8,5.6,4
				c0.4,0,1.1-0.3,1.1-0.3c0.1-1.7-0.3-3.5-0.3-3.5c-0.1-0.6-0.3-1-0.5-1.5c-0.1-0.4-0.3-1.2-0.3-1.5c-0.2-0.9,0.2-1.9,0.1-2.9
				c-0.1-0.5-0.4-1.7-0.9-0.7c-0.3,0.7-0.5,1.5-0.6,2.3c-0.1,0.4-0.2,0.8-0.2,1.3c-0.1,0.5-0.1,0.9,0.1,1.3c0.1,0.2,0.2,0.4,0,0.6
				c-0.4,0.3-0.8,0-0.8,0c-0.6-0.3-1.1-0.7-1.6-1.2c-1.6-1.3-3.2-2.8-4.6-4.3c-1.1-1.2-2.7-2.2-1.9-4.1c0.3-0.7,0.7-1.3,1.1-1.9
				c0.6-1.2,1.4-2.5,2-3.7c0.2-0.5,0.5-1.8-0.4-1.3c-0.6,0.3-1.2,0.8-1.8,1.3c-0.8,0.7-1.4,1.3-1.9,2.2
				C119.1,177.9,118.5,179.2,117.9,178.9z M110.5,166.1c0.9-0.5,2.5-1.3,3.3-1.9c0.8,0.4,1,1.1,0.7,2c-0.3,0.7-1,1.4-1.7,1.8
				c-0.3,0.2-0.8,0.4-1.2,0.3c-0.4-0.2-0.5-0.7-0.6-1C110.9,167.1,110.5,166.1,110.5,166.1z"/>
		</g>
		<path class="st0" d="M196.8,170c0.7-0.3,1.5-0.6,2.2-0.8c1.2-0.4,2.7-0.7,3.9-1.4c1.5-0.8-1.3-2-1.8-2.7c-0.5-0.6-0.5-1.5-0.9-2.1
			c-0.2-0.4-1-2-1.4-2c-0.5,0.4-1.1,1.2-1.3,1.8c0,0.1-0.2,1.2-0.2,1.2c-0.2,0.9-0.4,1.8-0.6,2.7c-0.1,0.7-0.3,1.3-0.5,1.9
			c-0.1,0.3-0.5,1.2-0.3,1.5c0.2,0.2,0.5,0,0.7-0.1C196.6,170.1,196.7,170.1,196.8,170z M197.1,191.6 M197.1,191.6
			c1.8-0.3,3.4-1.3,5.1-2c1.1-0.4,2.1-0.9,3.1-1.5c0.6-0.4,1.2-0.8,1.7-1.3c0.8-1.1-1.1-2.5-1.8-3c-0.5-0.3-0.9-0.6-1.4-0.8
			c-1.1-0.5-2.3-0.9-3.5-1.2c-0.7-0.2-1.4-0.4-2.1-0.7c-1-0.4-2.8-0.4-3.9-0.4c-1,0-1.4,0.6-1.7,1.5c-0.4,1.1-1,2.1-1.6,3.2
			c-0.6,1.1-1.2,2.1-1.9,3.1c-1.1,1.7-2.4,3-4.4,3.6c-0.8,0.2-2.8,0.5-3.5-0.1c0.2,0.2,1.8-1,2-1.1c0.7-0.5,1.2-1,1.8-1.5
			c1.1-1.1,2-2.4,2.8-3.7c0.4-0.6,0.8-1.2,1.2-1.8c0.2-0.2,2.1-3.2,0.8-2.8c0.4-0.5,1.2-0.6,1.5-1.3c0.3-0.6,1.5-3.2,1-3.7
			c-0.3-0.4-1.5,0.4-1.8,0.5c-0.9,0.4-1.7,0.9-2.5,1.3c-0.9,0.4-1.8,0.6-2.8,0.6c-0.5,0-1.1,0-1.6-0.2c-0.7-0.2-1.4-0.5-2-0.8
			c-0.5-0.3-1-0.6-1.4-0.9c-1-0.8-2.2-2.1-1.4-3.4c0-0.1,0.3-0.5,0.5-0.2c0.2,0.4-0.5,0.8-0.1,1.2c0.2,0.2,0.4,0.4,0.5,0.6
			c0.4,0.4,0.9,0.2,1.4,0.1c0.7-0.1,1.4-0.2,2.1-0.4c1.4-0.3,2.8-0.7,4.2-1.1c0.8-0.2,1.6-0.5,2.4-0.7c0.9-0.3,1.8-0.5,2.7-0.8
			c0.4-0.1,0.8-0.2,1.1-0.6c0.7-0.9,0.6-2.3,0.8-3.4c0.3-2.7,0.7-5.6,1.7-8.1c0.3-0.7,0.6-1.4,1-2c1.6-2.3,2.7,0.3,3.5,1.7
			c0,0,2.7,6.2,7.4,7.7c0.4,0.1,0.9,0.5,0.7,0.9c-0.1,0.2-0.8,0.3-1,0.3c-0.4,0.1-0.8,0.2-1.2,0.3c-0.7,0.3-1.3,0.9-2,1.4
			c-0.7,0.5-1.5,1-2.3,1.5c-0.4,0.3-0.9,0.5-1.3,0.8c-1.1,0.6-2.3,0.9-3.4,1.5c-0.1,0.1-0.2,0.1-0.3,0.2c-0.9,0.5-2,0.8-2.3,2
			c-0.2,0.8-0.4,1.7-0.5,2.5c-0.1,0.3-0.1,0.5-0.2,0.8c-0.1,1.5,1,1.1,2.3,1c0,0,3.8-0.3,8.2,1.6c1.8,0.9,4.5,2.3,5.5,4.1
			c0.6,1.1,1.1,2.4,0.2,3.3c0,0-3.6,2.9-15.3,3.9c0.3-1.4,1.2-2.6,2.4-3.3C197.3,190.3,195.7,191.8,197.1,191.6"/>
		<path class="st0" d="M169.7,175.2c0.2-2.2-0.6-4.4-2.8-4.9c-0.8-0.2-1.6-0.3-2.5-0.3c0,0-0.6,0.1-0.8,0.6
			c-1.7,2.6-3.6,5.8-5.4,8.3c-0.3,0.5-0.6,0.9-1,1.3c-0.2,0.3-0.5,0.6-0.7,0.9c-0.7,0.9-1.4,1.8-2,2.8c-0.2,0.5-0.5,1-0.5,1.6
			c0,1.1,3.1,2.4,4,2.5c2.8,0.2,5.9-0.6,8.1-2.5c2.5-2.2,3.2-5.8,3.5-8.9C169.7,176.3,169.7,175.8,169.7,175.2z M149.3,193.1
			c-0.4,0-0.8-0.5-1.3-1c-0.4-0.5-0.7-1-0.7-1.7c-0.1-1.3,1.2-2.8,1.9-3.8c2.6-3.8,5.3-7.1,8.2-10.7c0,0,0.8-0.8,0.9-1.6
			c0-0.9-1.7-1.3-1.7-1.3c-0.8-0.3-1.6-0.1-1.6-0.1c-2.1,0.6-3.8,1.9-5.6,3c-1.9,1.2-3.7,2.6-5.1,4.3c-0.5,0.6-0.9,1.3-1.4,2
			c-0.8,1.2-1.6,2.4-2.7,3.3c-0.6,0.4-1.5,1.2-2.3,0.9c-0.4-0.2-0.8-0.5-1.2-0.8c-0.4-0.3-0.8-0.7-1-1.2c0-0.1-0.1-0.1-0.1-0.2
			c0.1-1.1,1-2.8,1.4-3.8c0.8-1.9,5.4-9.9,5.4-9.9c0.4-0.7,0.8-1.4,0.6-2.5c-0.1-0.6-1.2-1.2-1.7-1.5c-0.6-0.3-2.8-1.1-1.4-2
			c0.7-0.5,1.3-0.3,2.1-0.2c1.4,0.1,2.8,0.9,4.4,0.8c0.8,0,1.8-0.7,2.3-0.6c0.5,0,0.4,0,0.5,0.5c0.1,0.4,0.2,0.7,0.1,1.1
			c-0.1,0.4-0.3,0.7-0.5,1c-0.5,0.6-1.1,0.9-1.6,1.5c-0.5,0.6-1,1.2-1.5,1.8c-1.3,1.7-2.7,3.4-3.9,5.2c-0.6,0.9-1.2,1.8-1.7,2.7
			c-0.1,0.2-1.6,2.9-1.3,3.1c0.3,0.3,0.8-0.3,0.9-0.5c2.7-3.5,7.1-5.7,10.4-7.3c0.6-0.3,1.3-0.6,1.9-0.9c2-0.8,4-1.6,5.9-2.4
			l1.6-0.8c0,0,0.6-0.2,0.8-0.8c0,0,1.3-2.7,1.4-3c0,0,0.5-0.7,1,0.3c0,0,0.5,1.3,0.8,2.2c0,0,3-0.8,4.9,0.3c0.7,0.4,1.2,1,1.7,1.7
			c1.5,2,2.2,4.4,2.3,6.9c0,1.8,0.2,3.8-0.2,5.5c-0.9,3.4-3.5,6-6.6,7.5c-1.3,0.6-2.7,1-4.1,1.3c0,0-6.2,1.1-7.8-2
			c0,0-0.4-0.8-0.2-2.5c-1.2,2.2-2.1,3.7-3.1,5.1C150.1,192.7,149.6,193.1,149.3,193.1z"/>
		<g>
			<path class="st0" d="M36.7,156.1c0.6,0.7,0.6,0.9,0.4,1.7c-0.3,0.9-0.1,1.8-0.2,2.7c0,0-0.8,7.1-0.3,15.6
				c0.2,2.7,0.2,5.4,0.4,8.1c0,0.6,0.1,1.3,0.1,1.9c0.2,2,0.3,4,0.2,6c0,1-0.9,7.7-2.8,7.1c0,0-0.5-0.3-1.6-1.7
				c0-0.1-0.1-0.1-0.1-0.2c-1.2-1.4-3.3-1.3-4.9-2.1c-1.1-0.6-3.8-2-3.4-3.7c0.1-0.7,8.3,2.1,9.3-1c0.6-1.9,0-4.3-0.1-6.3
				c-0.1-2.3-0.2-4.5-0.3-6.8c-0.1-2.3-0.3-4.5-0.4-6.8c-0.1-2.6-0.1-5,0-7.6c0-2.5,0.4-4.3-0.2-6.3c0,0-0.8-2.1-1.9-2.5
				c0,0-0.8-0.4-1.7-0.1c-0.8,0.3-5.4,1-5.4,1c-3.1,0.6-6.2,1.7-9.1,2.9c-0.2,0.1-0.4,0.2-0.6,0.3c-0.9,0.4-1.8,0.7-2.7,1.2
				c-0.4,0.2-0.7,0.5-1,0.9c-0.1,0.1-0.6,1.2-0.7,1.2c-1.7,0.3-4.2-0.6-4.2-0.6c-0.7-0.3-1.4-0.8-0.8-1.5c0.5-0.6,2.3-1.3,2.9-1.6
				c4.6-1.9,9.1-3.2,14.5-4.3c2.2-0.5,4.5-0.9,6.7-1.2c0.9-0.1,1.7-0.1,2.5-0.5c0.8-0.4,1.2-0.1,1.8,0.5L36.7,156.1z"/>
			<path class="st0" d="M9.9,174.6c0.7-1.2,3.1-6.4,3.1-6.4c0.6-1.7,1.5-2.6,1.5-2.6c0.4-0.5,1-0.7,1.5-1.2c0.5-0.4,1-1.1,1.3-0.4
				c0,0,0.3,1,1.4,3.5c1.1,2.4,2.4,4.8,3.3,7.3c-0.8,0.8-2,1.3-2.8,2.2c-1.4,1.6-10.2,8.2-10.2,8.2L8.1,186c-0.5,0.4-0.2,1,0.1,1.4
				c0.2,0.2,0.5,0.5,0.8,0.7c0.1,0,0.7,0.4,0.8,0.3c1-0.8,1.5-1.1,2.2-1.7c1.1-1,2.1-2.2,3.1-3.2c2-2.2,4.1-4.4,6.1-6.5
				c0.4-0.4,0.9-1,1.6-0.7c0.7,0.3,1.6,1.6,1.6,2.3c0.1,1.9-1.9,4.7-3.4,6.1c-0.7,0.6-2.3,2.3-3,2.8c-0.4,0.3-1.2,0.5-1.7,0.6
				c-1.4,0.4-2.8,1-4.2,1.5c-1.9,0.7-3.9,1.3-5.5,2.5c-0.5,0.4-1,0.7-1.4,1.1c-0.2,0.4,0.9,1,1.2,1.1c0.8,0.1,1,0.6,1.4,0
				c0.5-0.6,1.6-0.5,2.2-0.9c0.8-0.5,1.4-1.2,2.2-1.7c0.8-0.5,1.6-1.1,2.5-1.4c1.5-0.5,3.1-1,4.6-1.4c1.6-0.4,3.3-0.7,5-0.9
				c1.3-0.2,2.6-0.4,3.8-0.6c0.9-0.1,2.3-0.3,3.1,0.3c-0.4-4.1-4-6.7-4-6.7c-0.8-1-0.5-1.7-0.5-1.7c0.1-1,1-2.4,1-2.4
				c0.4-0.6,0.8-1.2,1.2-1.8c0.5-0.8,1-1.6,1.4-2.5c0.2-0.4,0.5-1.1,0.4-1.6c-0.1-0.2-0.3-0.2-0.5-0.3c-0.6-0.2-1.1-0.6-1.5-1.1
				c-0.3-0.4-0.6-0.9-1.1-1c-1.5-0.8-0.5,1.2-0.4,1.7c0.2,0.7,0.2,1.4,0.1,2.1c-0.1,0.7-0.4,1.4-0.7,2.1c-0.2,0.6-0.4,1.1-0.6,1.7
				c-0.1,0.2-0.2,0.6-0.4,0.8c-0.4,0.3-0.7-0.3-0.7-0.3c-1.9-3.8-3.8-7.7-5.5-11.6c-0.2-0.5-0.5-1-0.7-1.5c-0.3-1,0.7-1.1,1.1-1.8
				c0.5-0.9-0.5-1-1.2-0.9c-0.9,0.2-0.8-1-1.7-1.2c-0.6-0.1-1.4,0-2.2,0.2c0,0.4,0.3,0.5,0.6,0.7c0.5,0.5,0.2,1.3,0,1.9
				c-0.3,0.7-0.5,0.8-1.2,1.1c-2.2,0.9-4.3,2.1-6.5,2.9c0,0-1.8,0.8-1.2,1.4c0.6,0.5,1.4,0.8,2.2,0.8c0.6,0,1.1-0.1,1.7-0.4
				c0.3-0.1,0.6-0.3,0.8-0.5c0.1-0.1,0.7-0.4,0.7-0.5c0,0.1-0.1,0.4-0.1,0.5c-0.1,0.5-0.7,1.6-0.9,2c-0.8,1.7-1.5,2.6-2.4,4.3
				c-0.8,1.6-1.7,3.2-2.1,5c-0.3,1.4-1.5,1.8-1.5,1.8s0,0.8,1.2,1.6c0.1,0.1,0.6,0.7,0.8,0.7c0.5,0,1-1,1.4-1.3c2-1.5,4.4-2.8,5.8-5
				c0.3-0.5,0.6-1,0.6-1.6c-0.5-0.3-2,1.1-2.3,1.3c-1.5,1.1-3.4,2.9-4,2.2c-0.5-0.5,0.4-1.7,0.6-2.2L9.9,174.6z M21.4,186.5
				c-0.1,0-0.8,0.3-0.7,0c0-0.1,0.2-0.1,0.2-0.2c0.7-0.5,1.3-1.4,1.9-2.1c1-1,2.8-3.6,4-1.6c0.5,0.9,1.2,1.6,1.6,2.6
				c0.2,0.6-1.2,0.6-1.5,0.6c-0.2,0-0.4,0-0.6,0.1c-0.7,0.1-1.4,0.1-2.2,0.2c-0.8,0.1-1.6,0.2-2.4,0.3L21.4,186.5z"/>
			<path class="st0" d="M26,163.6c0.2,0.8,1.5,1.3,2,0.4c1.5-2.3-1.8-3.7-3.9-3.6c-0.1,0,0,0.3,0,0.3c0.1,0.3,0.4,0.6,0.6,0.8
				c0.3,0.2,0.5,0.5,0.7,0.8C25.8,162.7,25.9,163.1,26,163.6z"/>
			<path class="st0" d="M16.7,173.8c-0.4,0.2-0.5,0.1-0.5,0.1c-0.2-0.2-0.1-0.6-0.1-0.9c0-0.4-0.2-0.5-0.6-0.7
				c-0.6-0.2-1.1-0.6-1.7-0.9c-0.6-0.3,1-1,1.2-1c0.5-0.2,1.1,0,1.5,0.2c0.7,0.3,2.8,0.7,2.1,1.9c-0.1,0.1-0.1,0.4-0.2,0.4
				c-0.2,0.1-0.3-0.1-0.4,0c-0.2,0-0.3,0.2-0.4,0.3C17.3,173.4,17,173.7,16.7,173.8z"/>
			<path class="st0" d="M3.8,190.6c0.1,0.7,0.3,1.4,0.4,2.1c0,0.2,0.1,0.4,0.1,0.5c0.1,0.5,0.2,1,0.2,1.6c-0.1,0.6-0.9,2.5-1.6,2.8
				c-1.1-0.1-1.4-1.2-1.4-1.2c-1.1-3.1-1.4-3.5-1.4-3.5c0.4-0.4,0.6-0.9,0.8-1.5c0.3-1.2,0.3-2.4,0.3-3.5c0.2-2.7,0.1-5.5-0.1-8.2
				c-0.1-1.4,0.7-2.7,0.8-4c0.1-1.5,0.9-1.4,1.1,0c0,0,0,0.3,0.8,1.4c0.6,0.7,1,1.6,0.7,2.5c-0.2,0.5,0,0.8,0.4,1.2
				c-0.8,0-1.1,1-1.2,1.6c-0.3,1.4-0.2,2.7-0.3,4.1C3.4,186.4,3.3,187.9,3.8,190.6z"/>
		</g>
		<g>
			<path class="st0" d="M225.4,169.6c0.1-0.6-0.1-1.6-0.2-2.3c-0.2-1.1-0.3-2.2-0.4-3.3c-0.1-1.1-0.1-2.2-0.5-3.2
				c-0.4-0.9-0.9-1.8-1.7-2.5c0,0-1-0.4-1,2.3c0,0.7,0.3,1.4,0.4,2.1c0.1,0.9,0.3,1.8,0.4,2.7c0.1,0.9,0.2,1.8,0.3,2.7
				c0.1,0.7,0,1.2,0.3,1.8c0.2,0.6,0.5,1.1,0.8,1.6c0.1,0.3,0.2,0.5,0.3,0.8c0.1,0.4,0,0.9,0.2,1.2c0.2,0.4,0.7,0.4,1.1,0.3
				c0,0,0.5-0.1,0.7-0.4C224.8,173.1,225.2,170.4,225.4,169.6z"/>
			<path class="st0" d="M216,172.6c0.1,0.8,0.3,1.7,0.1,2.5c-0.1,0.7-0.4,1.4-0.7,2c-0.3,0.7-0.5,1.3-0.8,2c-0.2,0.4-0.3,0.7-0.5,1
				c-0.3,0.5-0.6,1.2-0.6,1.8c0,0.9,0.9,1.1,1.6,0.9c0.6-0.2,1.2-0.7,1.7-1.2c0.4-0.4,0.8-0.9,1.1-1.4c0.5-0.8-0.1-0.3-0.2-1
				c-0.1-0.6,0.5-1.2,0.4-1.9C218.1,173.6,216,172.6,216,172.6z"/>
			<path class="st0" d="M247.4,153.6c0.2-0.4,0.4-0.6,0.2-1.1c-0.7-1.5-1.7-2.1-3.2-2.8c-0.1,0-0.2-0.1-0.3-0.1
				c-1.4,0.1-5.2,2.5-5.2,2.5c-0.7,0.4-0.9,1.4-1.2,2c-0.4,0.8-0.9,0.9-1.5,1.5c-0.4,0.4-0.3,0.8-1,0.8c-1,0-1.2-1-1.2-1.6
				c-0.1-1.6,0.4-3.5,1.2-4.9c0.7-1.2,2-1.4,3.1-1.9c0.7-0.3,1.4-0.7,2-1c0.4-0.2,1.1-0.4,1.4-0.8c0.4-0.4,0.5-0.9,0.5-1.3
				c0.1-1.1-0.5-1.1-0.5-1.1c-0.7,0.6-0.9,0.7-1.3,0.9c-0.3,0.2-0.7,0.4-1,0.6c-0.5,0.3-3.5,2-3.5,0.6c0-0.4-0.8-1.4-1-1.7
				c-0.5-0.3-0.6-0.3-1.1,0c-0.8,0.4-0.5,1-0.5,1.8c0.1,1.7,0,3.3-0.1,5c-0.1,1.5-0.2,2.9-0.5,4.5c-0.2,1-0.7,2,0.4,2.6
				c0.7,0.3,0.4,0.6,0.2,1.2c-0.8,2.1-0.9,4.3-1,6.6c0,0.8,0,1.7,0.4,2.5c0.3,0.6,0.6,1.2,0.4,1.8c-0.1,0.3-1.2,0.7-1.4,0.8
				c-0.6,0.3-1,0.3-1.3-0.3c-0.6-1.2,1-3-0.6-3.9c-0.3-0.1-0.2-1.7-0.2-2c0-0.9,0-1.9,0-2.8c-0.1-2.2,0-4.7-0.9-6.8
				c-0.3-0.7-0.7-1.4-1.5-1.2c-0.2,0-0.3,0.6-0.3,0.9c0,0.5,0,1.1,0,1.6c0,2.7,0,4.1,0.1,6.7c0,1.4,0.2,4.1,0.7,5.4
				c0.3,0.9,1.1,2.2,0.4,3.2c-0.4,0.6-1.6,0.8-1.9,1.5c0.5,0.3,1.1,0,1.7-0.1c0.5,0,0.6,0.1,1,0.2c0.1,0,0.5,0.3,0.6,0.2
				c0,0,0.3-0.4,0.3-0.9c0,0,0-0.5,1.6-0.9c1-0.2,1.9-0.4,2.9-0.6c1.8-0.3,3.6-0.3,5.5-0.2c0.6,0.1,0.9,0.6,1.2,1
				c0.4,0.6,0.9,1.1,1.6,1.4c0,0,0.8,0.3,1.6-0.7c0,0,0.5-1,1-2.5c0.1-0.3,0.2-0.7,0.4-0.8c0.3-0.2,0.7-0.2,1.1-0.2
				c1.2,0,3.1-0.5,3.8,0.8c0.3,0.5,0.1,1.2-0.3,1.6c-2,2.2-4.4,3.7-6.6,5.7c-0.2,0.2-0.3,0.2-0.5,0.3c-0.3,0.1-0.6-0.1-0.9-0.1
				c-0.3,0-0.6,0.1-0.9,0.2c-2.5,0.6-4.8,1.8-7.1,2.7c-0.4,0.2-1,0.8-1,0.8c-0.2,0.3-0.3,0.7,0.1,0.9c0.3,0.1,0.9,0.2,1.2,0.2
				c0.2,0,0.5-0.1,0.7-0.2c1.1-0.4,2.1-0.6,3.3-1.3c0.6-0.3,1.1,0.1,0.9,0.6c-0.4,1-1.1,2.1-1.8,3c-0.6,0.8-1,1.3-1.5,2.2
				c-0.4,0.6,0,1.5,0.2,2.1c0.2,0.6,0.4,1.3,0.6,1.9c0.1,0.3,0.1,0.7-0.1,0.8c-0.2,0-1,0.2-1.3,0.2c-1.7,0.1-3.3,1.1-4.6,2
				c-1.2,0.9-1.5,1.9-1.3,3.4c0.1,0.7,0.4,2.9,1.2,3c0-0.5-0.4-0.9-0.4-1.4c0-1.3,0.4-2.5,1.3-3.4c1.2-1.3,3.4-1.8,5.1-2
				c0.6-0.1,1.1-0.2,1.7-0.3c1-0.2,0.7,2.2,0.7,2.7c-0.2,2.7-2.4,7.1-5.9,5.7c-0.4-0.2-0.2-0.6-0.7-0.7c-0.5-0.1-1,0-1.5,0
				c0.5,0.8,1.9,1.4,2.7,1.6c3.5,0.6,7.4-2,8.2-5.4c0.2-0.9-0.1-2,0.2-2.9c0.3-1,1.2-1.5,2.2-1.2c0,0,4,0.6,7.7,1.9
				c-0.6-2.2-1.4-2.8-1.4-2.8c-0.4-0.4-0.9-0.7-1.5-0.7c-0.7-0.1-1.3,0.3-2,0.5c-1,0.2-2.7,0.1-3.7-0.1c-0.5-0.1-0.8-0.4-0.9-0.9
				c-0.3-0.9-0.1-1.7-1-2.3c-0.5-0.3-1.1-0.5-1.6-0.6c-0.8-0.1-3.1,0-2-1.4c0.4-0.7,0.9-1.4,1.3-2c1-1.6,1.8-3.8,3.8-4.3
				c0.4-0.1,1.1-0.3,0.9-0.8c-0.1-0.3-0.5-0.7-0.5-1.1c0-0.2,0.5-0.4,0.6-0.5l0,0c0.6-0.4,1.2-0.7,1.8-1c0.5-0.3,1.1-0.6,1.6-0.9
				c0.4-0.2,0.7-0.5,1.1-0.7c1.4-0.9,2.8-2,4.3-2.8c0.7-0.4,1.6,0.1,2.2-0.4c0.2-0.2,0.5-0.5,0.8-0.8c0.5-0.5-0.6-1.4-0.6-1.4
				c-1.5-1.5-4.7-2.3-4.7-2.3c-0.3-0.1-0.6,0.3-0.8,0.4c-0.6,0.5-2.5,1-3.1,0.8c-1.2-0.4-0.9-2.1-0.7-3.3c0.3-2,0.6-4,0.9-6
				c0.1-1,0.3-2,0.4-3c0.1-0.4,0.1-0.9,0.2-1.3C247.3,154.6,247.3,154,247.4,153.6z M235.6,166.4l-1.2,0.8c0,0-0.4,0.3-0.5-0.6
				c0,0-0.3-5.5-0.3-6.9c0,0,0.2-1.1,0.9-1.1c0,0,1.1-0.4,1.3,0.5c0,0-0.6,4.3,0.1,6.1C236,165.2,236.2,166.1,235.6,166.4z
				 M242.6,171c0,0-1.3,0.2-1.7,0.1c-0.6-0.2-0.4-0.5-0.1-0.8c0.3-0.3,0.5-0.2,1.2-0.6c0,0,1.1-0.1,1.1,0.4
				C243,170.1,243.1,170.7,242.6,171z M243.1,167.3c-0.1,0.6-0.4,1.7-1.1,1.9c-0.6,0.2-1.2-0.5-1.8-0.2c-0.4,0.2-0.7,0.6-1.2,0.7
				c-0.5,0.2-1-0.1-1.3-0.5c-0.3-0.4-0.3-0.9-0.3-1.4c0.1-0.5,0.3-1.1,0.4-1.5c0.2-0.5,0.3-1,0.4-1.6c0-0.3,0.1-0.5,0-0.8
				c0-0.3-0.1-0.6,0-0.9c0.1-1.2,0.6-2.9,2.2-2.3c0.3,0.1,1,0.5,1,0.9c0,1.2-1.6,2.3-0.7,3.7C241.5,166.5,243.5,165.6,243.1,167.3z
				 M244.7,160.2c0.1,1.2-0.4,3-0.5,3.3c-0.4,1.2-2.1,0.6-2.1-0.4c0-0.6,0.4-2.1,0.4-2.1c0.1-0.5,1.1-1.6,1.6-1.7
				C244.5,159.2,244.6,159.6,244.7,160.2z M245.2,155.9c-0.2,1.8-0.7,2.5-2.6,2.7c-0.7,0.1-1.6-0.3-2.1,0.3
				c-0.2,0.2-0.2,0.6-0.4,0.7c-0.2,0.1-1.1-0.2-1.1-0.5c0.1-1.9-1.3-1.7-1.3-1.7c-0.3,0.1-0.4-0.4-0.3-0.8c0.1-0.4,0.2-0.9,0.3-1.1
				c0.1-0.4,0.3-0.8,0.4-1.2c0.3-0.7,0.8-0.6,0.8-0.6c0.4,0.1,0.9-0.1,0.9-0.1c0.7-0.4,1.4-0.7,2.1-1.1c0.6-0.4,1.3-1.1,2-0.9
				C245,152.6,245.3,154.6,245.2,155.9z"/>
		</g>
		<g>
			<path class="st0" d="M60.6,167.2c0.9,0.8,1.9,1.4,3,0.7c0.7-0.5,0.5-1.6,0.8-2.2c0.6-1.4,0-2.5-1.1-3.4c-1.2-0.9-2.6-1-4-0.8
				c-0.9,0.1-2.6,0.3-3.1,1.3c-0.4,0.9,1.6,1.9,2.1,2.3c0.4,0.3,0.8,0.7,1.2,1.1C59.9,166.4,60.2,166.8,60.6,167.2z"/>
			<path class="st0" d="M63.8,173.3c0.9-0.2,1.9-0.4,2.9-0.6c2.4-0.5,4.9-1,7.3-1.3c0,0,1.9-0.1,2.2-1.1c-0.4-0.6-1-1.1-1-1.1
				c-0.8-0.8-3.8-0.4-3.8-0.4c-1.6-0.1-9.1,2.4-9.1,2.4c-3,1-6.2,1.8-9.2,2.9c-1.4,0.5-2.9,0.7-4.1,1.7c0,0-0.7,0.6,1,0.8
				c0,0,1.5,0.5,2.8,0.1C56.4,175.4,60,174.2,63.8,173.3z"/>
			<path class="st0" d="M72.1,186.4c1.8-0.2,3.5-0.3,5.3-0.6c0,0,2.4-0.4,4.9,0.7c0,0,1.7,0.7,2.1,2.6c-0.2,0.7-1,0.8-1.7,0.7
				c-1.4-0.1-2.8-0.2-4.3-0.2c-10-0.1-20.7,2.2-20.7,2.2c-3.2,0.8-7.6,1.7-7.6,1.7c-2.3,0-5.9-1.1-5.9-1.1s1.6-1.3,9.8-2.6
				c2.3-0.4,4.5-1,6.7-1.5c0.4-0.1,1-0.3,1.2-0.4c3-0.8,6.3-7.9,6.3-7.9c1.3-2.5,0.4-3.2,0.4-3.2c-0.8-1.1-0.6-1.5-0.6-1.5
				c-0.1-0.7,2-0.3,2.4-0.3c0,0,3.7,1.3,2.2,3.8c0,0-2.8,5.3-7.3,8.5c0,0-0.4,0.4,1.2,0C68.4,186.8,70.3,186.6,72.1,186.4z"/>
			<path class="st0" d="M58.6,180.4c0.5,0.7,1,1.5,1.4,2.3c0.2,0.4,0.4,0.9,0.4,1.3c0.1,0.8,0.1,1.2-0.5,1.8c-0.4,0.5-0.7,1-1.3,1.3
				c-0.4,0.2-1.1,0.3-1.4,0.1c-0.4-0.2-0.5-0.8-0.6-1.3c0-0.1-0.1-0.2-0.1-0.4c-0.2-0.9-0.3-1.7-0.4-2.6c-0.2-1-1.7-3.6-0.7-4.4
				c0.9-0.7,2.5,1,3,1.6C58.4,180.2,58.5,180.3,58.6,180.4z"/>
		</g>
	</g>
</g>
<g id="icon">
	<g>
		<path class="st1" d="M120.4,89c-2,2.7-5.5,3.1-5.2,4.1c0.7,2.4,8.5-1,11-7.8c0.7-2,1.5-1.6,1.5-1.6s2.3,0.2-2.2,6.8
			c-1,1.4-0.2,1.8-0.2,1.8s1,0.6,2.4-1.2c3.5-4.4,2.7-7.7,3.9-7.2c2.2,0.9-1.9,7.8-0.5,8.4c1.1,0.4,2.1-0.7,3-3.9
			c0.8-2.9,0.3-4.6,1.3-4.5c1.9,0.1-0.1,8.6,3.5,8.5c1.5,0-1.5-8.3,0.8-8.8c0,0,0.7-0.2,1,2c0.3,2.3,1,4.1,1,4.1
			c0.4,1.1,1.9,4.1,3.4,3.3c1.3-0.6-2.1-4.1-1.7-10.1c0,0,0.2-2.7-2.2-3c-1.4-0.2-3.7,0.8-3.3-0.6c0.3-1,4.8-1.1,4.3-3.5
			c-0.2-0.9-1.6-0.2-2.8,0.3c-1.2,0.5-2.7,0.5-2.8-0.2c-0.1-0.6,0.7-0.9,1.8-1.2c1.2-0.4,2.4-1.1,2.2-2.2c-0.3-1.6-5,1.4-5-0.6
			c0.2-1,3.6-0.9,2.9-2.9c-0.6-1.6-3.6,1.1-8.9-0.2c-2.7-0.7-2.1,1.6-2.1,1.6c1.3,2.1,5.4,0.1,4.9,2.1c-0.4,1.6-4.3,0.1-4.6,1.9
			c-0.4,2.2,5.1,0.4,5.7,2.3c1.2,4-0.8,4.1-1.3,4c-1.4-0.2-0.2-3-2-3c-1.6,0-0.1,3.3-2.2,3.1c-1.7-0.2,0.3-2.7-1.9-3.5
			c-1.3-0.5-2.7-0.9-2.9-1.6c-0.2-1,2-1.6,1.8-3.4c-0.2-1.9-7.8-4.8-9-2.8c-1,1.6,1.5,2.1,1.5,2.1c2.3,0.5,4.7,1.3,2.6,3
			c-3.1,2.6,3.7,3.5,3.6,4.8c0,1-1.7,0.6-1.8,0.5c-1.3-0.5-2.3,0.2-2.4,0.8c-0.1,1.1-0.7,0.9-1.5,0.9c-0.7,0-2.6-0.8-0.4-1.8
			c0.9-0.4,0.9-1.1,0.8-1.4c-0.5-0.9-4.2-1-4.2-1s-1.3-0.1-1.7,0.8c-0.3,0.8,0.8,1.3,0.8,1.3c1.7,1.1,0.1,2-0.2,2.1
			c-0.5,0.2-1,0.4-0.9,1.2c0.1,0.6,0.7,0.9,1.6,1c0,0,3.1,0.2,3.2,0.2c0,0,1.1,0,0.6,1.1c0,0-0.6,2.2-3.3,3.8
			c-1.3,0.8-0.1,1.6,0.9,1.4c0,0,2.6,0.2,5.7-5.8c0.7-1.3,1.5-0.8,1.5-0.8S124.1,84,120.4,89z"/>
	</g>
	<path class="st1" d="M168.2,56.9c-5.6-6.3-9.4-6-9.4-6c-4.5-0.5-11.8,6.4-15.1,9.7l-0.5-2.6c10.9-9.5,9.1-14.6,9.1-14.6
		c-4.6-0.2-10,8.4-12.5,13c-0.7-0.2-1.5-0.5-2.3-0.6c10.9-13.7,2.8-20,2.8-20c-2.6-2.6-11.9-6.6-12.2-6.8c0,0,0,0,0,0c0,0,0,0,0,0
		c-0.3,0.1-8.1,3.2-12.2,6.8c0,0-8,6.3,2.8,20c-0.9,0.2-1.6,0.4-2.3,0.6c-2.5-4.6-7.9-13.2-12.5-13c0,0-1.8,5.1,9.1,14.6l-0.5,2.6
		c-3.2-3.3-10.6-10.3-15.1-9.7c0,0-3.8-0.3-9.4,6c0,0-2.9,3.7-4.5,4.8v0c0.7,1.8,1.3,6.5,1.3,6.5c1.5,8.3,4.9,10.1,4.9,10.1
		c3.7,2.9,15.1,0.3,19.7-0.9l-0.6,3.4c-18.3,0.8-19.1,6.9-19.1,6.9s4.2,4.3,18.5-3.8l-0.6,3.4c-0.2,0.1-8.1,2.9-11,5.3
		C92,96.2,94.8,103,97,106.9c0,0,2.4,4.8,3,6.6h0c1.9-0.1,6.5,0.9,6.5,0.9c8.3,1.3,11-0.2,11-0.2c6.3-1.9,5.6-10.4,4.9-14.4
		c1.2-0.1,2.4-0.2,3.5-0.2c-0.8,3.9-2,12,2,16h0h0h0c4-3.9,2.9-12.1,2-16c1.2,0,2.3,0.1,3.5,0.2c-0.7,4-1.4,12.5,4.9,14.4
		c0,0,2.7,1.5,11,0.2c0,0,4.6-1,6.5-0.9h0c0.6-1.8,3-6.6,3-6.6c2.2-3.9,5-10.6,0.6-14.2c-2.9-2.4-10.8-5.2-11-5.3l-0.6-3.4
		c14.3,8.1,18.5,3.8,18.5,3.8s-0.8-6.1-19.1-6.9l-0.6-3.4c4.6,1.2,16,3.8,19.7,0.9c0,0,3.4-1.8,4.9-10.1c0,0,0.6-4.7,1.3-6.5v0
		C171.1,60.6,168.2,56.9,168.2,56.9z M133,57.9L133,57.9c-0.5,0.4-1.1,0.7-1.8,0.9l-1.1-13.3c0.6-0.1,1.1-0.4,1.5-0.6L133,57.9z
		 M128,41.6c3,0,3.5,1.8,3.5,1.8c-1.5,1.1-3.5,1-3.5,1s-2.1,0.1-3.6-1C124.4,43.3,124.9,41.6,128,41.6z M129.8,59.1
		c-1.9,0.3-3.7,0-3.7,0l1.1-13.4c0,0,0.7,0.1,1.6,0L129.8,59.1z M122.9,57.9l1.3-13c0.5,0.3,1,0.5,1.5,0.6l-1.1,13.3
		C124.1,58.6,123.5,58.3,122.9,57.9L122.9,57.9z M120.1,57.8c0,0,2.5,3.1,7.8,3.1c5.3,0,7.8-3.1,7.8-3.1c2.1,0.2,3.9,0.9,4.9,1.4
		c-2.4,2.8-7.3,4.6-12.7,4.7c-5.4-0.1-10.3-1.9-12.7-4.7C116.3,58.7,118,58,120.1,57.8z M148.7,100.7c-13.1-4.6-28.4-4.8-41.5,0
		l7.2-39.5c4.6,4.8,18.4,7.6,27.1,0L148.7,100.7z"/>
</g>
<g id="en">
	<path class="st2" d="M11.3,209.5v0.6c-0.2,0.1-0.4,0.1-0.5,0.2c-0.1,0.1-0.2,0.1-0.3,0.2c-0.1,0.1-0.1,0.2-0.2,0.4
		c0,0.2-0.1,0.5-0.1,0.8v10H8.1l-4-7c-0.6-0.9-0.9-1.7-1.2-2.2H2.7c0.1,1.3,0.1,2.6,0.1,4.1v2.9c0,0.5,0,0.8,0.1,0.9
		c0,0.2,0.1,0.3,0.2,0.4c0.1,0.1,0.3,0.2,0.7,0.3v0.6H0.4v-0.6c0.2-0.1,0.4-0.1,0.5-0.2c0.1-0.1,0.2-0.2,0.3-0.3
		c0.1-0.1,0.1-0.3,0.1-0.5c0-0.2,0-0.4,0-0.7v-7.8c0-0.4,0-0.8-0.1-0.9c0-0.2-0.1-0.3-0.2-0.4c-0.1-0.1-0.3-0.2-0.7-0.3v-0.6H4
		l3.2,5.5c0.2,0.3,0.5,0.8,0.8,1.4c0.3,0.6,0.6,1.1,0.8,1.7H9c-0.1-1.4-0.1-3-0.1-4.7v-1.7c0-0.4,0-0.7,0-0.8c0-0.2-0.1-0.3-0.1-0.4
		c-0.1-0.1-0.2-0.2-0.3-0.2c-0.1-0.1-0.3-0.1-0.5-0.2v-0.6H11.3z"/>
	<path class="st2" d="M17.6,220.6l-0.1,0c-0.5,0.5-1,0.8-1.4,1c-0.5,0.2-1,0.3-1.5,0.3c-0.5,0-1-0.1-1.3-0.3
		c-0.4-0.2-0.7-0.5-0.9-0.8c-0.2-0.3-0.3-0.7-0.3-1.1c0-0.9,0.4-1.6,1.3-2.1c0.9-0.5,2.2-0.8,3.9-1v-0.9c0-0.6-0.1-1-0.2-1.3
		c-0.1-0.3-0.3-0.5-0.5-0.6c-0.2-0.1-0.4-0.2-0.7-0.2c-0.3,0-0.5,0.1-0.7,0.1c-0.2,0.1-0.4,0.3-0.5,0.5c-0.2,0.3-0.3,0.6-0.3,1.1
		h-1.7v-1.6c0.6-0.2,1-0.4,1.4-0.6c0.4-0.1,0.7-0.2,1.1-0.3c0.3-0.1,0.7-0.1,0.9-0.2c0.3,0,0.6-0.1,0.9-0.1c0.7,0,1.3,0.1,1.7,0.3
		c0.4,0.2,0.8,0.5,1,0.9c0.2,0.4,0.3,1,0.3,1.8v3.5c0,0.4,0,0.7,0,0.9c0,0.2,0.1,0.4,0.1,0.5c0,0.1,0.1,0.2,0.1,0.2
		c0.1,0.1,0.1,0.1,0.2,0.1c0.1,0.1,0.2,0.1,0.5,0.2v0.6h-3.3L17.6,220.6z M17.3,217.6c-0.9,0-1.6,0.2-2.1,0.5
		c-0.4,0.3-0.7,0.8-0.7,1.4c0,0.4,0.1,0.7,0.3,0.8c0.2,0.2,0.5,0.3,0.8,0.3c0.3,0,0.5-0.1,0.8-0.2c0.2-0.1,0.4-0.3,0.6-0.6
		c0.1-0.2,0.2-0.5,0.2-0.8V217.6z"/>
	<path class="st2" d="M27.8,220.7c-0.5,0.4-1,0.8-1.4,1c-0.4,0.2-0.9,0.3-1.4,0.3c-0.9,0-1.6-0.2-2-0.7c-0.5-0.5-0.7-1.2-0.7-2.2v-5
		h-1.1v-0.6c0.4-0.1,0.6-0.2,0.8-0.3c0.2-0.1,0.3-0.3,0.4-0.5c0.1-0.2,0.2-0.5,0.2-0.8c0.1-0.3,0.1-0.7,0.1-1.2h2.1v2.2h2.6v1.1
		h-2.6v4.1c0,0.7,0,1.2,0.1,1.5c0.1,0.3,0.2,0.6,0.3,0.7c0.1,0.1,0.3,0.2,0.5,0.2c0.2,0,0.3,0,0.5,0c0.1,0,0.3-0.1,0.4-0.2
		c0.2-0.1,0.3-0.2,0.5-0.3L27.8,220.7z"/>
	<path class="st2" d="M27.8,221.2c0.3-0.1,0.5-0.2,0.6-0.3c0.1-0.1,0.2-0.3,0.2-0.5c0-0.2,0.1-0.6,0.1-1.2V215c0-0.3,0-0.5,0-0.7
		c0-0.2-0.1-0.3-0.2-0.4c-0.1-0.1-0.2-0.2-0.3-0.2c-0.1-0.1-0.3-0.1-0.5-0.2v-0.6l2.5-0.1h1.1v6.4c0,0.3,0,0.6,0,0.8
		c0,0.2,0,0.3,0,0.4c0,0.1,0,0.2,0.1,0.3c0,0.1,0.1,0.2,0.1,0.2c0,0.1,0.1,0.1,0.2,0.2c0.1,0.1,0.2,0.1,0.4,0.1v0.6h-4.4V221.2z
		 M31.2,209.3v2.2h-2.5v-2.2H31.2z"/>
	<path class="st2" d="M37.5,221.9c-0.9,0-1.6-0.2-2.3-0.5c-0.6-0.3-1.1-0.8-1.5-1.5c-0.3-0.7-0.5-1.5-0.5-2.6c0-0.8,0.1-1.5,0.3-2.1
		c0.2-0.6,0.5-1.1,0.9-1.5c0.4-0.4,0.9-0.7,1.4-0.9c0.5-0.2,1.1-0.3,1.8-0.3c1.4,0,2.5,0.4,3.3,1.2c0.7,0.8,1.1,1.9,1.1,3.4
		c0,1-0.2,1.9-0.5,2.6c-0.4,0.7-0.9,1.2-1.6,1.6C39.2,221.8,38.4,221.9,37.5,221.9z M35.9,217.2c0,1.3,0.1,2.2,0.4,2.9
		c0.3,0.6,0.7,0.9,1.3,0.9c0.3,0,0.6-0.1,0.8-0.2c0.2-0.2,0.4-0.4,0.5-0.7c0.1-0.3,0.2-0.7,0.3-1.1c0.1-0.4,0.1-0.9,0.1-1.4
		c0-1.3-0.1-2.3-0.4-2.9c-0.3-0.6-0.7-1-1.3-1c-0.4,0-0.7,0.1-1,0.4c-0.3,0.3-0.4,0.6-0.5,1.2C35.9,215.7,35.9,216.4,35.9,217.2z"/>
	<path class="st2" d="M52.8,221.8h-4.4v-0.6c0.3-0.1,0.5-0.2,0.6-0.3c0.1-0.1,0.2-0.3,0.2-0.5c0-0.2,0.1-0.6,0.1-1.2v-2.4
		c0-0.4,0-0.8,0-1c0-0.3,0-0.5-0.1-0.7c0-0.2-0.1-0.3-0.2-0.4c-0.1-0.1-0.1-0.2-0.2-0.3c-0.1-0.1-0.2-0.1-0.3-0.2
		c-0.1,0-0.3-0.1-0.4-0.1c-0.2,0-0.5,0.1-0.7,0.2c-0.3,0.1-0.5,0.3-0.6,0.6c-0.2,0.3-0.3,0.5-0.3,0.8v3.5c0,0.6,0,1,0.1,1.2
		c0,0.2,0.1,0.4,0.2,0.5c0.1,0.1,0.3,0.2,0.6,0.3v0.6H43v-0.6c0.3-0.1,0.5-0.2,0.6-0.3c0.1-0.1,0.2-0.3,0.2-0.5
		c0-0.2,0.1-0.6,0.1-1.2v-3.7c0-0.4,0-0.8,0-1c0-0.2-0.1-0.4-0.1-0.5c0-0.1-0.1-0.2-0.3-0.3c-0.1-0.1-0.3-0.1-0.6-0.2v-0.6l2.5-0.1
		h1.1l-0.1,1.3l0.1,0c0.4-0.3,0.7-0.6,1-0.8c0.3-0.2,0.6-0.3,0.9-0.4c0.3-0.1,0.6-0.2,1-0.2c0.5,0,0.9,0.1,1.2,0.2
		c0.3,0.1,0.6,0.3,0.8,0.6c0.2,0.3,0.4,0.6,0.4,1c0.1,0.4,0.1,0.8,0.1,1.4v3.3c0,0.3,0,0.5,0,0.7c0,0.2,0,0.4,0.1,0.6
		c0,0.1,0.1,0.2,0.2,0.3c0.1,0.1,0.1,0.2,0.3,0.2c0.1,0.1,0.3,0.1,0.4,0.2V221.8z"/>
	<path class="st2" d="M58.9,220.6l-0.1,0c-0.5,0.5-1,0.8-1.4,1c-0.5,0.2-1,0.3-1.5,0.3c-0.5,0-1-0.1-1.4-0.3
		c-0.4-0.2-0.7-0.5-0.9-0.8c-0.2-0.3-0.3-0.7-0.3-1.1c0-0.9,0.4-1.6,1.3-2.1c0.9-0.5,2.2-0.8,3.9-1v-0.9c0-0.6-0.1-1-0.2-1.3
		c-0.1-0.3-0.3-0.5-0.5-0.6c-0.2-0.1-0.4-0.2-0.7-0.2c-0.3,0-0.5,0.1-0.7,0.1c-0.2,0.1-0.4,0.3-0.5,0.5c-0.2,0.3-0.3,0.6-0.4,1.1
		h-1.7v-1.6c0.5-0.2,1-0.4,1.4-0.6c0.4-0.1,0.7-0.2,1.1-0.3c0.4-0.1,0.7-0.1,1-0.2c0.3,0,0.6-0.1,0.8-0.1c0.7,0,1.3,0.1,1.7,0.3
		c0.4,0.2,0.8,0.5,1,0.9c0.2,0.4,0.3,1,0.3,1.8v3.5c0,0.4,0,0.7,0,0.9c0,0.2,0.1,0.4,0.1,0.5c0,0.1,0.1,0.2,0.2,0.2
		c0.1,0.1,0.1,0.1,0.2,0.1c0.1,0.1,0.2,0.1,0.5,0.2v0.6h-3.3L58.9,220.6z M58.6,217.6c-0.9,0-1.6,0.2-2.1,0.5
		c-0.4,0.3-0.7,0.8-0.7,1.4c0,0.4,0.1,0.7,0.3,0.8c0.2,0.2,0.5,0.3,0.9,0.3c0.3,0,0.5-0.1,0.8-0.2c0.3-0.1,0.4-0.3,0.6-0.6
		c0.1-0.2,0.2-0.5,0.2-0.8V217.6z"/>
	<path class="st2" d="M66.3,219.2c0,0.6,0,1,0.1,1.2c0,0.2,0.1,0.4,0.2,0.5c0.1,0.1,0.3,0.2,0.6,0.3v0.6h-4.4v-0.6
		c0.2,0,0.3-0.1,0.4-0.2c0.1,0,0.2-0.1,0.2-0.2c0.1-0.1,0.1-0.2,0.2-0.3c0-0.1,0.1-0.3,0.1-0.5c0-0.2,0-0.5,0-0.9v-7
		c0-0.5,0-0.9,0-1.1c0-0.2,0-0.4-0.1-0.6c0-0.2-0.1-0.3-0.1-0.4c-0.1-0.1-0.2-0.2-0.3-0.2c-0.1-0.1-0.3-0.1-0.5-0.2v-0.6l2.5-0.1
		h1.1V219.2z"/>
	<path class="st2" d="M80.7,209.8v2.6h-1.2c-0.1-0.7-0.4-1.2-0.7-1.5c-0.3-0.3-0.7-0.5-1.2-0.5c-0.9,0-1.7,0.5-2.1,1.4
		c-0.5,0.9-0.7,2.2-0.7,4c0,1.7,0.2,2.9,0.7,3.8c0.5,0.8,1.1,1.3,1.9,1.3c0.4,0,0.8-0.1,1.1-0.2c0.3-0.1,0.5-0.4,0.7-0.7
		c0.2-0.3,0.3-0.7,0.4-1.2h1.2v2.7c-0.7,0.2-1.3,0.3-1.8,0.3c-0.6,0.1-1.1,0.1-1.7,0.1c-1.2,0-2.3-0.2-3.1-0.7
		c-0.8-0.4-1.4-1.1-1.7-2c-0.4-0.9-0.6-2.1-0.6-3.4c0-1.3,0.2-2.4,0.7-3.4c0.4-1,1.1-1.7,1.9-2.2c0.9-0.5,1.9-0.8,3.1-0.8
		c0.6,0,1.2,0,1.6,0.1C79.6,209.6,80.1,209.7,80.7,209.8z"/>
	<path class="st2" d="M85.1,214.1c0.5-0.5,1-0.8,1.5-1c0.4-0.2,0.9-0.3,1.3-0.3c0.7,0,1.2,0.1,1.5,0.4c0.4,0.2,0.6,0.6,0.8,1
		c0.2,0.5,0.3,1,0.3,1.8v3.3c0,0.3,0,0.5,0,0.7c0,0.2,0,0.4,0.1,0.6c0,0.1,0.1,0.2,0.2,0.3c0.1,0.1,0.1,0.2,0.3,0.2
		c0.1,0.1,0.3,0.1,0.4,0.2v0.6h-4.4v-0.6c0.3-0.1,0.5-0.2,0.6-0.3c0.1-0.1,0.2-0.3,0.2-0.5c0-0.2,0.1-0.6,0.1-1.2v-2.3
		c0-0.6,0-1.1-0.1-1.4c0-0.3-0.1-0.6-0.2-0.8c-0.1-0.2-0.2-0.3-0.4-0.4c-0.1-0.1-0.3-0.1-0.6-0.1c-0.2,0-0.5,0.1-0.7,0.2
		c-0.2,0.1-0.5,0.3-0.6,0.6c-0.2,0.2-0.2,0.5-0.2,0.8v3.5c0,0.3,0,0.6,0,0.8c0,0.2,0,0.3,0,0.4c0,0.1,0.1,0.2,0.1,0.3
		c0,0.1,0.1,0.2,0.1,0.2c0.1,0.1,0.1,0.1,0.2,0.2c0.1,0.1,0.2,0.1,0.4,0.1v0.6h-4.4v-0.6c0.2,0,0.3-0.1,0.4-0.2
		c0.1,0,0.2-0.1,0.2-0.2c0.1-0.1,0.1-0.2,0.1-0.3c0-0.1,0.1-0.3,0.1-0.5c0-0.2,0-0.5,0-0.9v-7c0-0.5,0-0.9,0-1.1
		c0-0.2,0-0.4-0.1-0.6c0-0.2-0.1-0.3-0.1-0.4c-0.1-0.1-0.1-0.2-0.3-0.2c-0.1-0.1-0.3-0.1-0.6-0.2v-0.6l2.5-0.1H85L85.1,214.1
		L85.1,214.1z"/>
	<path class="st2" d="M100.2,220.2c-0.6,0.6-1.2,1.1-1.8,1.4c-0.6,0.3-1.3,0.4-2.1,0.4c-1.4,0-2.4-0.4-3.2-1.1c-0.7-0.8-1-1.9-1-3.4
		c0-1,0.2-1.8,0.5-2.5c0.4-0.7,0.9-1.2,1.5-1.6c0.7-0.4,1.5-0.5,2.3-0.5c0.6,0,1,0.1,1.4,0.2c0.4,0.1,0.8,0.3,1.1,0.5
		c0.3,0.2,0.5,0.5,0.7,0.8c0.2,0.4,0.4,0.8,0.5,1.3c0.1,0.5,0.2,1.1,0.2,1.8h-5.7c0,1.1,0.2,1.9,0.6,2.4c0.4,0.5,1,0.8,1.7,0.8
		c0.5,0,0.9-0.1,1.2-0.3c0.4-0.2,0.7-0.5,1.2-0.9L100.2,220.2z M97.8,216.4c0-0.9-0.1-1.6-0.4-2c-0.2-0.4-0.6-0.7-1-0.7
		c-0.5,0-0.8,0.2-1.1,0.7c-0.3,0.5-0.4,1.1-0.5,2H97.8z"/>
	<path class="st2" d="M111.1,221.8h-4.4v-0.6c0.3-0.1,0.5-0.2,0.6-0.3c0.1-0.1,0.2-0.3,0.2-0.5c0-0.2,0.1-0.6,0.1-1.2v-2.4
		c0-0.4,0-0.8,0-1c0-0.3-0.1-0.5-0.1-0.7c0-0.2-0.1-0.3-0.2-0.4c-0.1-0.1-0.2-0.2-0.2-0.3c-0.1-0.1-0.2-0.1-0.3-0.2
		c-0.1,0-0.2-0.1-0.4-0.1c-0.2,0-0.5,0.1-0.7,0.2c-0.2,0.1-0.4,0.3-0.6,0.6c-0.2,0.3-0.3,0.5-0.3,0.8v3.5c0,0.6,0,1,0.1,1.2
		c0,0.2,0.1,0.4,0.2,0.5c0.1,0.1,0.3,0.2,0.6,0.3v0.6h-4.3v-0.6c0.3-0.1,0.5-0.2,0.6-0.3c0.1-0.1,0.2-0.3,0.2-0.5
		c0-0.2,0.1-0.6,0.1-1.2v-3.7c0-0.4,0-0.8,0-1c0-0.2-0.1-0.4-0.1-0.5c-0.1-0.1-0.1-0.2-0.3-0.3c-0.1-0.1-0.3-0.1-0.6-0.2v-0.6
		l2.5-0.1h1.1l-0.1,1.3l0.1,0c0.4-0.3,0.7-0.6,1-0.8c0.3-0.2,0.6-0.3,0.9-0.4c0.3-0.1,0.6-0.2,1-0.2c0.5,0,0.9,0.1,1.2,0.2
		c0.3,0.1,0.6,0.3,0.8,0.6c0.2,0.3,0.4,0.6,0.4,1c0.1,0.4,0.1,0.8,0.1,1.4v3.3c0,0.3,0,0.5,0,0.7c0,0.2,0,0.4,0.1,0.6
		c0,0.1,0.1,0.2,0.1,0.3c0.1,0.1,0.2,0.2,0.3,0.2c0.1,0.1,0.3,0.1,0.4,0.2V221.8z"/>
	<path class="st2" d="M120.6,214.1l-1.5-0.2l0,0.1c0.2,0.2,0.3,0.4,0.4,0.7c0.1,0.3,0.2,0.6,0.2,1c0,1-0.3,1.8-1,2.4
		c-0.6,0.5-1.6,0.8-2.8,0.8c-0.6,0-1.1-0.1-1.4-0.2c-0.3,0.3-0.5,0.6-0.5,0.9c0,0.2,0,0.3,0.1,0.4c0.1,0.1,0.2,0.2,0.4,0.2
		c0.2,0.1,0.4,0.1,0.8,0.1h2.2c1,0,1.7,0.2,2.2,0.6c0.5,0.4,0.8,1,0.8,1.8c0,0.6-0.2,1.2-0.5,1.7c-0.4,0.5-0.9,0.8-1.6,1.1
		c-0.7,0.2-1.5,0.4-2.4,0.4c-0.7,0-1.3,0-1.8-0.1c-0.6-0.1-1-0.2-1.4-0.3c-0.4-0.2-0.7-0.4-0.9-0.7c-0.2-0.3-0.3-0.6-0.3-1
		c0-0.3,0.1-0.7,0.3-0.9c0.2-0.3,0.5-0.5,0.9-0.7c-0.3-0.2-0.4-0.4-0.6-0.6c-0.1-0.2-0.2-0.5-0.2-0.9c0-0.3,0.1-0.5,0.2-0.8
		c0.1-0.2,0.3-0.5,0.5-0.7c0.2-0.2,0.4-0.4,0.8-0.7c-0.5-0.3-0.8-0.6-1.1-1c-0.2-0.4-0.3-0.9-0.3-1.5c0-0.6,0.1-1,0.3-1.4
		c0.2-0.4,0.5-0.7,0.8-1c0.4-0.2,0.8-0.4,1.2-0.6c0.5-0.1,1-0.2,1.5-0.2c0.3,0,0.6,0,0.8,0.1c0.2,0,0.5,0.1,0.7,0.1h3.2V214.1z
		 M114.2,222.4c-0.2,0.2-0.4,0.3-0.5,0.5c-0.1,0.2-0.2,0.4-0.2,0.7c0,0.4,0.2,0.7,0.6,1c0.4,0.2,1,0.3,1.8,0.3
		c0.7,0,1.3-0.1,1.7-0.4c0.4-0.2,0.6-0.6,0.6-1.1c0-0.2,0-0.4-0.1-0.5c-0.1-0.2-0.2-0.3-0.4-0.4c-0.2-0.1-0.5-0.1-0.9-0.1h-1.5
		C114.8,222.4,114.5,222.4,114.2,222.4z M114.6,215.8c0,0.8,0.1,1.3,0.3,1.7c0.2,0.4,0.6,0.5,1,0.5c0.4,0,0.7-0.2,1-0.5
		c0.2-0.3,0.3-0.9,0.3-1.6c0-0.7-0.1-1.3-0.3-1.7c-0.2-0.4-0.5-0.6-1-0.6c-0.4,0-0.8,0.2-1,0.5C114.7,214.5,114.6,215.1,114.6,215.8
		z"/>
	<path class="st2" d="M134.6,219.4c0.2,0.4,0.4,0.6,0.6,0.9c0.2,0.2,0.3,0.4,0.4,0.5c0.1,0.1,0.2,0.2,0.4,0.3
		c0.1,0.1,0.3,0.1,0.5,0.2v0.6h-4.9v-0.6c0.2,0,0.3-0.1,0.4-0.2c0.1-0.1,0.1-0.1,0.1-0.3c0-0.1,0-0.2,0-0.3c0-0.1-0.1-0.2-0.2-0.4
		c-0.1-0.2-0.3-0.5-0.6-1l-1.4-2.1c-0.2-0.3-0.3-0.5-0.4-0.6c-0.1-0.1-0.2-0.2-0.4-0.3c-0.1-0.1-0.3-0.1-0.5-0.1h-0.2v3.6
		c0,0.2,0,0.4,0,0.6c0,0.2,0,0.3,0.1,0.4c0,0.1,0.1,0.2,0.2,0.3c0.1,0.1,0.1,0.1,0.3,0.2c0.1,0.1,0.3,0.1,0.4,0.2v0.6h-4.7v-0.6
		c0.2-0.1,0.4-0.1,0.5-0.2c0.1-0.1,0.2-0.2,0.3-0.3c0.1-0.1,0.1-0.3,0.1-0.5c0-0.2,0-0.4,0-0.7v-7.7c0-0.3,0-0.5,0-0.7
		c0-0.2-0.1-0.3-0.1-0.5c-0.1-0.1-0.2-0.2-0.3-0.3c-0.1-0.1-0.3-0.1-0.5-0.2v-0.6h4.7v0.6c-0.3,0.1-0.4,0.1-0.6,0.2
		c-0.1,0.1-0.2,0.2-0.3,0.3c-0.1,0.1-0.1,0.2-0.1,0.4c0,0.2,0,0.4,0,0.8v3.2h0.2c0.3,0,0.5,0,0.7-0.1c0.2-0.1,0.3-0.2,0.5-0.3
		c0.2-0.2,0.5-0.5,1-1.1c0.5-0.6,0.8-1,1.1-1.3c0.2-0.3,0.4-0.6,0.4-0.8c0.1-0.2,0.1-0.4,0.1-0.6c0-0.2-0.1-0.4-0.2-0.5
		c-0.1-0.1-0.3-0.2-0.6-0.2v-0.6h4.6v0.6c-0.2,0-0.4,0.1-0.6,0.2c-0.2,0.1-0.3,0.2-0.6,0.4c-0.2,0.2-0.5,0.5-0.8,0.8l-2.7,3
		L134.6,219.4z"/>
	<path class="st2" d="M135.9,212.9h3.5v5c0,0.6,0,1,0.1,1.4c0,0.3,0.1,0.6,0.2,0.8c0.1,0.2,0.2,0.3,0.4,0.4c0.1,0.1,0.3,0.1,0.6,0.1
		c0.2,0,0.5-0.1,0.7-0.2c0.2-0.1,0.5-0.3,0.6-0.6c0.2-0.3,0.2-0.5,0.2-0.8v-3.5c0-0.4,0-0.8,0-1c0-0.2-0.1-0.4-0.1-0.5
		c0-0.1-0.1-0.2-0.2-0.3c-0.1-0.1-0.3-0.2-0.5-0.2v-0.6h3.5v6.3c0,0.5,0,0.8,0,1c0,0.2,0.1,0.4,0.1,0.5c0.1,0.1,0.1,0.2,0.3,0.3
		c0.1,0.1,0.3,0.2,0.6,0.2v0.6l-2.4,0.1h-1.1l0.1-1.3l-0.1,0c-0.6,0.5-1,0.9-1.5,1.1c-0.4,0.2-0.9,0.3-1.3,0.3
		c-0.6,0-1.1-0.1-1.5-0.4c-0.4-0.2-0.7-0.6-0.8-1c-0.2-0.5-0.2-1.1-0.2-1.8v-3.3c0-0.3,0-0.6,0-0.8c0-0.2,0-0.3,0-0.4
		c0-0.1,0-0.2-0.1-0.3c0-0.1-0.1-0.2-0.1-0.2c-0.1-0.1-0.1-0.1-0.2-0.2c-0.1-0.1-0.2-0.1-0.4-0.2V212.9z"/>
	<path class="st2" d="M156.4,221.8H152v-0.6c0.3-0.1,0.5-0.2,0.6-0.3c0.1-0.1,0.2-0.3,0.2-0.5c0-0.2,0.1-0.6,0.1-1.2v-2.4
		c0-0.4,0-0.8,0-1c0-0.3,0-0.5-0.1-0.7c0-0.2-0.1-0.3-0.2-0.4c-0.1-0.1-0.2-0.2-0.2-0.3c-0.1-0.1-0.2-0.1-0.3-0.2
		c-0.1,0-0.2-0.1-0.4-0.1c-0.2,0-0.5,0.1-0.7,0.2c-0.2,0.1-0.4,0.3-0.6,0.6c-0.2,0.3-0.2,0.5-0.2,0.8v3.5c0,0.6,0,1,0,1.2
		c0,0.2,0.1,0.4,0.2,0.5c0.1,0.1,0.3,0.2,0.6,0.3v0.6h-4.3v-0.6c0.3-0.1,0.5-0.2,0.6-0.3c0.1-0.1,0.2-0.3,0.2-0.5
		c0-0.2,0.1-0.6,0.1-1.2v-3.7c0-0.4,0-0.8,0-1c0-0.2,0-0.4-0.1-0.5c-0.1-0.1-0.2-0.2-0.3-0.3c-0.1-0.1-0.3-0.1-0.6-0.2v-0.6l2.5-0.1
		h1.1l-0.1,1.3l0.1,0c0.4-0.3,0.7-0.6,1-0.8c0.3-0.2,0.6-0.3,0.9-0.4c0.3-0.1,0.6-0.2,1-0.2c0.5,0,0.9,0.1,1.2,0.2
		c0.3,0.1,0.6,0.3,0.8,0.6c0.2,0.3,0.3,0.6,0.4,1c0.1,0.4,0.1,0.8,0.1,1.4v3.3c0,0.3,0,0.5,0,0.7c0,0.2,0,0.4,0.1,0.6
		c0,0.1,0.1,0.2,0.2,0.3c0.1,0.1,0.1,0.2,0.2,0.2c0.1,0.1,0.3,0.1,0.4,0.2V221.8z"/>
	<path class="st2" d="M165.9,214.1l-1.5-0.2l0,0.1c0.2,0.2,0.3,0.4,0.4,0.7c0.1,0.3,0.2,0.6,0.2,1c0,1-0.3,1.8-0.9,2.4
		c-0.6,0.5-1.6,0.8-2.8,0.8c-0.6,0-1.1-0.1-1.5-0.2c-0.3,0.3-0.4,0.6-0.4,0.9c0,0.2,0,0.3,0.1,0.4c0.1,0.1,0.2,0.2,0.4,0.2
		c0.2,0.1,0.4,0.1,0.8,0.1h2.2c1,0,1.8,0.2,2.3,0.6c0.5,0.4,0.7,1,0.7,1.8c0,0.6-0.2,1.2-0.5,1.7c-0.4,0.5-0.9,0.8-1.6,1.1
		c-0.7,0.2-1.5,0.4-2.4,0.4c-0.7,0-1.3,0-1.9-0.1c-0.5-0.1-1-0.2-1.4-0.3c-0.4-0.2-0.7-0.4-0.9-0.7c-0.2-0.3-0.3-0.6-0.3-1
		c0-0.3,0.1-0.7,0.3-0.9c0.2-0.3,0.5-0.5,0.9-0.7c-0.2-0.2-0.4-0.4-0.5-0.6c-0.1-0.2-0.2-0.5-0.2-0.9c0-0.3,0.1-0.5,0.2-0.8
		c0.1-0.2,0.3-0.5,0.5-0.7c0.2-0.2,0.4-0.4,0.8-0.7c-0.5-0.3-0.8-0.6-1.1-1c-0.2-0.4-0.4-0.9-0.4-1.5c0-0.6,0.1-1,0.3-1.4
		c0.2-0.4,0.5-0.7,0.8-1c0.4-0.2,0.8-0.4,1.2-0.6c0.5-0.1,1-0.2,1.5-0.2c0.3,0,0.6,0,0.8,0.1c0.2,0,0.5,0.1,0.7,0.1h3.2V214.1z
		 M159.5,222.4c-0.2,0.2-0.4,0.3-0.5,0.5c-0.1,0.2-0.2,0.4-0.2,0.7c0,0.4,0.2,0.7,0.6,1c0.4,0.2,1,0.3,1.8,0.3
		c0.7,0,1.3-0.1,1.7-0.4c0.4-0.2,0.6-0.6,0.6-1.1c0-0.2,0-0.4-0.1-0.5c-0.1-0.2-0.2-0.3-0.4-0.4c-0.2-0.1-0.5-0.1-0.9-0.1h-1.5
		C160.1,222.4,159.7,222.4,159.5,222.4z M159.8,215.8c0,0.8,0.1,1.3,0.3,1.7c0.2,0.4,0.6,0.5,1,0.5c0.4,0,0.7-0.2,1-0.5
		c0.2-0.3,0.3-0.9,0.3-1.6c0-0.7-0.1-1.3-0.3-1.7c-0.2-0.4-0.5-0.6-1-0.6c-0.5,0-0.8,0.2-1,0.5C159.9,214.5,159.8,215.1,159.8,215.8
		z"/>
	<path class="st2" d="M177.8,211.8c0-0.5,0-0.8-0.1-0.9c0-0.2-0.1-0.3-0.2-0.4c-0.1-0.1-0.3-0.2-0.7-0.3v-0.6h4v0.6
		c-0.2,0.1-0.4,0.1-0.5,0.2c-0.1,0.1-0.2,0.2-0.3,0.3c-0.1,0.1-0.1,0.3-0.1,0.5c0,0.2,0,0.4,0,0.7v5.6c0,0.7-0.1,1.4-0.2,1.9
		c-0.1,0.5-0.3,0.9-0.6,1.3c-0.3,0.3-0.6,0.6-0.9,0.8c-0.4,0.2-0.8,0.4-1.3,0.5c-0.5,0.1-1,0.1-1.6,0.1c-0.9,0-1.6-0.1-2.2-0.3
		c-0.6-0.2-1.1-0.5-1.4-0.8c-0.4-0.3-0.6-0.8-0.8-1.3c-0.2-0.5-0.3-1.2-0.3-2v-5.8c0-0.3,0-0.5,0-0.7c0-0.2-0.1-0.3-0.1-0.5
		c-0.1-0.1-0.2-0.2-0.3-0.3c-0.1-0.1-0.3-0.1-0.5-0.2v-0.6h4.7v0.6c-0.2,0.1-0.4,0.1-0.5,0.2c-0.1,0.1-0.2,0.2-0.3,0.3
		c0,0.1-0.1,0.2-0.1,0.4c0,0.2-0.1,0.4-0.1,0.8v5.9c0,0.5,0,0.9,0.1,1.3c0.1,0.4,0.2,0.7,0.3,1c0.2,0.3,0.4,0.5,0.7,0.6
		c0.3,0.2,0.6,0.2,1.1,0.2c0.6,0,1.1-0.1,1.4-0.4c0.3-0.2,0.5-0.6,0.6-1c0.1-0.4,0.2-1.1,0.2-2V211.8z"/>
	<path class="st2" d="M191.5,221.8h-4.4v-0.6c0.3-0.1,0.5-0.2,0.6-0.3c0.1-0.1,0.2-0.3,0.2-0.5c0-0.2,0.1-0.6,0.1-1.2v-2.4
		c0-0.4,0-0.8,0-1c0-0.3-0.1-0.5-0.1-0.7c-0.1-0.2-0.1-0.3-0.2-0.4c-0.1-0.1-0.1-0.2-0.2-0.3c-0.1-0.1-0.2-0.1-0.3-0.2
		c-0.1,0-0.3-0.1-0.4-0.1c-0.2,0-0.5,0.1-0.7,0.2c-0.2,0.1-0.5,0.3-0.6,0.6c-0.2,0.3-0.3,0.5-0.3,0.8v3.5c0,0.6,0,1,0.1,1.2
		c0,0.2,0.1,0.4,0.2,0.5c0.1,0.1,0.3,0.2,0.6,0.3v0.6h-4.3v-0.6c0.3-0.1,0.5-0.2,0.6-0.3c0.1-0.1,0.2-0.3,0.2-0.5
		c0-0.2,0.1-0.6,0.1-1.2v-3.7c0-0.4,0-0.8,0-1c0-0.2,0-0.4-0.1-0.5c-0.1-0.1-0.1-0.2-0.3-0.3c-0.1-0.1-0.3-0.1-0.6-0.2v-0.6l2.5-0.1
		h1.1l-0.1,1.3l0.1,0c0.4-0.3,0.7-0.6,1-0.8c0.3-0.2,0.6-0.3,0.9-0.4c0.3-0.1,0.6-0.2,1-0.2c0.5,0,0.9,0.1,1.2,0.2
		c0.3,0.1,0.6,0.3,0.8,0.6c0.2,0.3,0.3,0.6,0.4,1c0.1,0.4,0.1,0.8,0.1,1.4v3.3c0,0.3,0,0.5,0,0.7c0,0.2,0,0.4,0.1,0.6
		c0,0.1,0.1,0.2,0.2,0.3c0.1,0.1,0.1,0.2,0.3,0.2c0.1,0.1,0.3,0.1,0.4,0.2V221.8z"/>
	<path class="st2" d="M192.3,221.2c0.3-0.1,0.5-0.2,0.6-0.3c0.1-0.1,0.2-0.3,0.2-0.5c0-0.2,0.1-0.6,0.1-1.2V215c0-0.3,0-0.5,0-0.7
		c0-0.2-0.1-0.3-0.1-0.4c-0.1-0.1-0.2-0.2-0.3-0.2c-0.1-0.1-0.3-0.1-0.5-0.2v-0.6l2.5-0.1h1.1v6.4c0,0.3,0,0.6,0,0.8
		c0,0.2,0,0.3,0,0.4c0,0.1,0.1,0.2,0.1,0.3c0,0.1,0.1,0.2,0.1,0.2c0,0.1,0.1,0.1,0.2,0.2c0.1,0.1,0.2,0.1,0.4,0.1v0.6h-4.4V221.2z
		 M195.7,209.3v2.2h-2.5v-2.2H195.7z"/>
	<path class="st2" d="M200.9,212.9v0.6c-0.3,0.1-0.5,0.1-0.6,0.2c-0.1,0.1-0.2,0.3-0.2,0.5c0,0.3,0.1,0.7,0.2,1.1l1.3,3.9l1.4-3.4
		c0.1-0.3,0.2-0.5,0.3-0.8c0.1-0.2,0.1-0.4,0.1-0.6c0-0.3-0.1-0.5-0.2-0.6c-0.1-0.2-0.4-0.3-0.6-0.3v-0.6h3.5v0.6
		c-0.2,0.1-0.3,0.1-0.4,0.2c-0.1,0.1-0.2,0.2-0.3,0.3c-0.1,0.1-0.2,0.3-0.3,0.6c-0.1,0.2-0.3,0.6-0.5,1.1l-2.8,6.2H200l-2.4-6.8
		c-0.1-0.5-0.3-0.8-0.4-1c-0.1-0.2-0.2-0.3-0.3-0.4c-0.1-0.1-0.3-0.2-0.4-0.2v-0.6H200.9z"/>
	<path class="st2" d="M213.9,220.2c-0.6,0.6-1.2,1.1-1.8,1.4c-0.6,0.3-1.3,0.4-2.1,0.4c-1.4,0-2.4-0.4-3.1-1.1
		c-0.7-0.8-1.1-1.9-1.1-3.4c0-1,0.2-1.8,0.5-2.5c0.4-0.7,0.9-1.2,1.5-1.6c0.7-0.4,1.4-0.5,2.3-0.5c0.5,0,1,0.1,1.4,0.2
		c0.4,0.1,0.8,0.3,1,0.5c0.3,0.2,0.5,0.5,0.7,0.8c0.2,0.4,0.4,0.8,0.5,1.3c0.1,0.5,0.2,1.1,0.2,1.8h-5.7c0,1.1,0.2,1.9,0.6,2.4
		c0.4,0.5,1,0.8,1.7,0.8c0.5,0,0.9-0.1,1.2-0.3c0.4-0.2,0.8-0.5,1.2-0.9L213.9,220.2z M211.5,216.4c0-0.9-0.1-1.6-0.4-2
		c-0.2-0.4-0.6-0.7-1-0.7c-0.5,0-0.8,0.2-1.1,0.7c-0.3,0.5-0.4,1.1-0.5,2H211.5z"/>
	<path class="st2" d="M218.4,214.2l0.1,0c0.4-0.5,0.9-0.9,1.4-1.1c0.5-0.2,0.9-0.4,1.5-0.4c0.4,0,0.8,0.1,1.2,0.1v2.5h-1.6
		c-0.1-0.4-0.2-0.6-0.4-0.8c-0.2-0.2-0.4-0.3-0.7-0.3c-0.1,0-0.3,0-0.4,0.1c-0.2,0.1-0.3,0.2-0.4,0.3c-0.1,0.1-0.2,0.3-0.3,0.5
		c-0.1,0.2-0.1,0.3-0.1,0.5c0,0.2,0,0.4,0,0.7v2.9c0,0.6,0,1,0.1,1.2c0,0.2,0.1,0.4,0.3,0.5c0.1,0.1,0.3,0.2,0.6,0.3v0.6H215v-0.6
		c0.3-0.1,0.5-0.2,0.6-0.3c0.1-0.1,0.2-0.3,0.2-0.5c0-0.2,0.1-0.6,0.1-1.2v-3.7c0-0.4,0-0.8,0-1c0-0.2-0.1-0.4-0.1-0.5
		c0-0.1-0.2-0.2-0.3-0.3c-0.1-0.1-0.3-0.1-0.6-0.2v-0.6l2.5-0.1h1.1L218.4,214.2z"/>
	<path class="st2" d="M224.1,219.4c0.1,0.5,0.4,1,0.7,1.2c0.3,0.3,0.7,0.4,1.2,0.4c0.5,0,0.8-0.1,1-0.3c0.2-0.2,0.4-0.5,0.4-0.9
		c0-0.2-0.1-0.5-0.2-0.6c-0.1-0.2-0.3-0.3-0.5-0.5c-0.2-0.2-0.7-0.4-1.2-0.6c-0.3-0.1-0.6-0.3-0.9-0.5c-0.3-0.2-0.5-0.4-0.8-0.6
		c-0.2-0.2-0.4-0.5-0.5-0.7c-0.1-0.3-0.2-0.6-0.2-0.9c0-0.5,0.2-1,0.5-1.4c0.3-0.4,0.8-0.7,1.3-0.9c0.6-0.2,1.2-0.3,2-0.3
		c0.4,0,0.9,0,1.3,0.1c0.4,0,1,0.1,1.6,0.2v2.1h-1.2c-0.2-0.4-0.3-0.7-0.5-0.9c-0.2-0.2-0.3-0.4-0.6-0.4c-0.2-0.1-0.4-0.1-0.7-0.1
		c-0.4,0-0.7,0.1-0.9,0.3c-0.2,0.2-0.4,0.4-0.4,0.8c0,0.2,0,0.4,0.1,0.6c0.1,0.2,0.2,0.3,0.4,0.5c0.2,0.2,0.6,0.4,1.3,0.6
		c0.6,0.2,1,0.5,1.4,0.7c0.3,0.2,0.6,0.5,0.8,0.9c0.2,0.3,0.3,0.7,0.3,1.2c0,0.5-0.1,0.9-0.3,1.2c-0.2,0.4-0.4,0.6-0.7,0.9
		c-0.3,0.2-0.7,0.4-1.2,0.5c-0.4,0.1-0.9,0.2-1.5,0.2c-1,0-2.1-0.2-3.3-0.4v-2.1H224.1z"/>
	<path class="st2" d="M230.9,221.2c0.3-0.1,0.5-0.2,0.6-0.3c0.1-0.1,0.2-0.3,0.2-0.5c0-0.2,0.1-0.6,0.1-1.2V215c0-0.3,0-0.5,0-0.7
		c0-0.2-0.1-0.3-0.2-0.4c-0.1-0.1-0.2-0.2-0.3-0.2c-0.1-0.1-0.3-0.1-0.5-0.2v-0.6l2.5-0.1h1.1v6.4c0,0.3,0,0.6,0,0.8
		c0,0.2,0,0.3,0,0.4c0,0.1,0,0.2,0.1,0.3c0,0.1,0.1,0.2,0.1,0.2c0,0.1,0.1,0.1,0.2,0.2c0.1,0.1,0.2,0.1,0.4,0.1v0.6h-4.4V221.2z
		 M234.3,209.3v2.2h-2.5v-2.2H234.3z"/>
	<path class="st2" d="M242.3,220.7c-0.5,0.4-1,0.8-1.4,1c-0.4,0.2-0.9,0.3-1.4,0.3c-0.9,0-1.6-0.2-2-0.7c-0.4-0.5-0.6-1.2-0.6-2.2
		v-5h-1.1v-0.6c0.4-0.1,0.6-0.2,0.8-0.3c0.2-0.1,0.3-0.3,0.4-0.5c0.1-0.2,0.2-0.5,0.2-0.8c0.1-0.3,0.1-0.7,0.1-1.2h2.2v2.2h2.5v1.1
		h-2.5v4.1c0,0.7,0,1.2,0.1,1.5c0.1,0.3,0.2,0.6,0.3,0.7c0.1,0.1,0.3,0.2,0.6,0.2c0.2,0,0.3,0,0.4,0c0.1,0,0.3-0.1,0.4-0.2
		c0.1-0.1,0.3-0.2,0.5-0.3L242.3,220.7z"/>
	<path class="st2" d="M246.9,222.2c-0.4,0.9-0.7,1.5-1.1,2c-0.3,0.5-0.7,0.9-1.1,1.1c-0.4,0.2-0.9,0.4-1.5,0.4
		c-0.4,0-0.9-0.1-1.2-0.2v-2h1c0.1,0.3,0.2,0.5,0.3,0.6c0.1,0.1,0.3,0.2,0.5,0.2c0.2,0,0.4-0.1,0.6-0.2c0.2-0.1,0.4-0.4,0.6-0.7
		c0.2-0.3,0.5-0.9,0.8-1.5h-0.5L243,215c-0.2-0.5-0.3-0.8-0.4-1c-0.1-0.2-0.2-0.3-0.3-0.4c-0.1-0.1-0.3-0.2-0.5-0.2v-0.6h4.5v0.6
		c-0.3,0.1-0.5,0.1-0.6,0.2c-0.1,0.1-0.2,0.3-0.2,0.5c0,0.3,0.1,0.7,0.2,1.1l1.3,3.9l1.4-3.4c0.1-0.3,0.2-0.5,0.3-0.8
		c0.1-0.2,0.1-0.4,0.1-0.6c0-0.3-0.1-0.5-0.2-0.6c-0.1-0.2-0.4-0.3-0.6-0.3v-0.6h3.5v0.6c-0.2,0.1-0.3,0.1-0.4,0.2
		c-0.1,0.1-0.2,0.2-0.3,0.3c-0.1,0.1-0.2,0.3-0.3,0.6c-0.1,0.2-0.3,0.6-0.5,1.1L246.9,222.2z"/>
</g>
</svg>
